<?xml version="1.0" encoding="utf-8"?>
<!-- Generator: Adobe Illustrator 16.0.3, SVG Export Plug-In . SVG Version: 6.00 Build 0)  -->
<!DOCTYPE svg PUBLIC "-//W3C//DTD SVG 1.1//EN" "http://www.w3.org/Graphics/SVG/1.1/DTD/svg11.dtd">
<svg version="1.1" id="_x31_5_subjects2_xA0_Image_1_"
	 xmlns="http://www.w3.org/2000/svg" xmlns:xlink="http://www.w3.org/1999/xlink" x="0px" y="0px" width="864px" height="720px"
	 viewBox="0 0 864 720" enable-background="new 0 0 864 720" xml:space="preserve">
<g>
	<g>
		<path fill-rule="evenodd" clip-rule="evenodd" fill="#CBCBFE" d="M865,721c-288,0-576,0-864,0C1,481,1,241,1,1c288,0,576,0,864,0
			C865,241,865,481,865,721z M65.998,357.662c-0.306,195.81,158.399,355.24,354.167,355.785
			c196.974,0.549,356.547-158.25,356.838-355.106C777.292,162.318,618.294,2.816,422.344,2.557
			C225.553,2.296,66.306,160.989,65.998,357.662z"/>
		<path fill-rule="evenodd" clip-rule="evenodd" fill="#010102" d="M65.998,357.662C66.306,160.989,225.553,2.296,422.344,2.557
			c195.95,0.26,354.948,159.762,354.658,355.784c-0.291,196.856-159.864,355.655-356.838,355.106
			C224.396,712.902,65.691,553.472,65.998,357.662z M421.496,42.569c-174.412,0.001-315.5,141.065-315.494,315.439
			c0.007,174.177,140.954,315.313,315.003,315.428c174.77,0.115,315.991-140.857,315.991-315.436
			C736.998,183.622,595.915,42.569,421.496,42.569z"/>
		<path fill-rule="evenodd" clip-rule="evenodd" fill="#CBCBFE" d="M421.496,42.569c174.419,0,315.502,141.053,315.501,315.432
			c0,174.578-141.222,315.551-315.991,315.436c-174.05-0.114-314.996-141.251-315.003-315.428
			C105.996,183.635,247.084,42.57,421.496,42.569z M322.812,146.221c-36.98,0-73.706,0-110.592,0c0,36.949,0,73.674,0,110.56
			c36.948,0,73.674,0,110.592,0C322.812,219.95,322.812,183.342,322.812,146.221z M475.881,149.296c-37.203,0-73.929,0-110.585,0
			c0,37.026,0,73.752,0,110.408c37.026,0,73.752,0,110.585,0C475.881,222.797,475.881,186.189,475.881,149.296z M512.291,150.117
			c0,37.194,0,73.921,0,110.592c37.021,0,73.747,0,110.418,0c0-37.021,0-73.747,0-110.592
			C585.807,150.117,549.199,150.117,512.291,150.117z M322.874,306.282c-37.168,0-73.894,0-110.592,0c0,37.012,0,73.738,0,110.436
			c37.012,0,73.738,0,110.592,0C322.874,379.825,322.874,343.217,322.874,306.282z M475.708,416.884c0-37.197,0-73.924,0-110.592
			c-37.021,0-73.748,0-110.416,0c0,37.021,0,73.748,0,110.592C402.195,416.884,438.803,416.884,475.708,416.884z M623.883,306.292
			c-37.196,0-73.923,0-110.591,0c0,37.021,0,73.748,0,110.416c37.021,0,73.748,0,110.591,0
			C623.883,379.806,623.883,343.197,623.883,306.292z M212.291,465.118c0,37.193,0,73.919,0,110.591c37.021,0,73.747,0,110.418,0
			c0-37.021,0-73.746,0-110.591C285.808,465.118,249.2,465.118,212.291,465.118z M365.289,465.119c0,37.189,0,73.915,0,110.592
			c37.02,0,73.745,0,110.422,0c0-37.02,0-73.745,0-110.592C438.811,465.119,402.202,465.119,365.289,465.119z M622.706,576.883
			c0-37.2,0-73.926,0-110.589c-37.023,0-73.749,0-110.412,0c0,37.023,0,73.749,0,110.589
			C549.198,576.883,585.807,576.883,622.706,576.883z"/>
		<path fill-rule="evenodd" clip-rule="evenodd" fill="#010102" d="M322.812,146.221c0,37.121,0,73.729,0,110.56
			c-36.917,0-73.644,0-110.592,0c0-36.886,0-73.61,0-110.56C249.106,146.221,285.832,146.221,322.812,146.221z"/>
		<path fill-rule="evenodd" clip-rule="evenodd" fill="#010102" d="M475.881,149.296c0,36.894,0,73.501,0,110.408
			c-36.833,0-73.559,0-110.585,0c0-36.656,0-73.382,0-110.408C401.952,149.296,438.678,149.296,475.881,149.296z"/>
		<path fill-rule="evenodd" clip-rule="evenodd" fill="#010102" d="M512.291,150.117c36.908,0,73.516,0,110.418,0
			c0,36.845,0,73.571,0,110.592c-36.671,0-73.397,0-110.418,0C512.291,224.038,512.291,187.312,512.291,150.117z"/>
		<path fill-rule="evenodd" clip-rule="evenodd" fill="#010102" d="M322.874,306.282c0,36.935,0,73.543,0,110.436
			c-36.854,0-73.58,0-110.592,0c0-36.697,0-73.424,0-110.436C248.98,306.282,285.706,306.282,322.874,306.282z"/>
		<path fill-rule="evenodd" clip-rule="evenodd" fill="#010102" d="M475.708,416.884c-36.905,0-73.513,0-110.416,0
			c0-36.844,0-73.57,0-110.592c36.668,0,73.395,0,110.416,0C475.708,342.96,475.708,379.687,475.708,416.884z"/>
		<path fill-rule="evenodd" clip-rule="evenodd" fill="#010102" d="M623.883,306.292c0,36.905,0,73.514,0,110.416
			c-36.843,0-73.569,0-110.591,0c0-36.668,0-73.395,0-110.416C549.96,306.292,586.687,306.292,623.883,306.292z"/>
		<path fill-rule="evenodd" clip-rule="evenodd" fill="#010102" d="M212.291,465.118c36.909,0,73.517,0,110.418,0
			c0,36.845,0,73.57,0,110.591c-36.671,0-73.397,0-110.418,0C212.291,539.037,212.291,502.312,212.291,465.118z"/>
		<path fill-rule="evenodd" clip-rule="evenodd" fill="#010102" d="M365.289,465.119c36.913,0,73.521,0,110.422,0
			c0,36.847,0,73.572,0,110.592c-36.677,0-73.402,0-110.422,0C365.289,539.034,365.289,502.309,365.289,465.119z"/>
		<path fill-rule="evenodd" clip-rule="evenodd" fill="#010102" d="M622.706,576.883c-36.899,0-73.508,0-110.412,0
			c0-36.84,0-73.565,0-110.589c36.663,0,73.389,0,110.412,0C622.706,502.957,622.706,539.683,622.706,576.883z"/>
	</g>
</g>
</svg>
