<?xml version="1.0" encoding="utf-8"?>
<!-- Generator: Adobe Illustrator 16.0.3, SVG Export Plug-In . SVG Version: 6.00 Build 0)  -->
<!DOCTYPE svg PUBLIC "-//W3C//DTD SVG 1.1//EN" "http://www.w3.org/Graphics/SVG/1.1/DTD/svg11.dtd">
<svg version="1.1" id="INTEREST_GROUPthumb_xA0_Image_1_"
	 xmlns="http://www.w3.org/2000/svg" xmlns:xlink="http://www.w3.org/1999/xlink" x="0px" y="0px" width="864px" height="720px"
	 viewBox="0 0 864 720" enable-background="new 0 0 864 720" xml:space="preserve">
<g>
	<g>
		<path fill-rule="evenodd" clip-rule="evenodd" fill="#CBCBFE" d="M1.041,720.791c0-239.846,0-479.818,0-719.75
			c288.014,0,575.986,0,863.959,0c0,239.874,0,479.707,0,719.75C577,720.791,289,720.791,1.041,720.791z M644.18,139.086
			c-2.061-6.873-3.747-13.89-6.301-20.574c-1.978-5.175-4.695-10.159-7.715-14.819c-3.326-5.134-5.957-10.651-10.896-14.898
			c-4.415-3.799-7.14-9.492-11.066-13.947c-5.036-5.713-11.622-8.871-19.221-9.758c-4.082-0.477-8.178-0.837-12.264-1.28
			c-8.408-0.911-16.806-2.445-25.225-2.563c-5.888-0.082-11.774,2.305-17.713,2.61c-8.024,0.412-14.835,3.749-21.708,7.232
			c-3.253-2.728-6.506-5.456-9.762-8.181c-5.55-7.019-11.719-13.08-19.461-18.029c-9.363-5.985-18.832-11.3-29.306-14.988
			c-3.979-1.401-7.629-3.729-11.43-5.636c0.194-0.418,0.39-0.836,0.584-1.254c-4.145,0-8.298,0.164-12.431-0.059
			c-2.721-0.146-3.535,1.03-3.386,3.436c-6.158,0.146-12.32,0.484-18.473,0.358c-3.02-0.063-4.796,0.877-6.441,3.433
			c-6.937,10.773-14.017,21.459-21.286,32.011c-1.159,1.684-3.395,3.139-5.4,3.646c-14.488,3.675-29.084,6.928-43.548,10.691
			c-3.04,0.792-5.261,0.643-7.886-0.94c-10.396-6.269-20.97-12.244-31.329-18.573c-2.646-1.616-4.45-1.593-7.042,0.11
			c-15.437,10.143-30.895,20.264-46.604,29.976c-4.199,2.597-5.542,5.77-5.934,10.283c-1.051,12.11-2.327,24.203-3.736,36.277
			c-0.207,1.77-1.289,3.711-2.535,5.038c-7.179,7.65-14.484,15.184-21.869,22.636c-1.173,1.184-2.923,2.402-4.48,2.506
			c-15.237,1.017-30.49,1.8-46.089,2.669c-12.295,20.921-24.846,42.275-37.302,63.471c8.139,14.94,16.219,29.624,24.077,44.425
			c0.804,1.515,0.679,3.819,0.302,5.613c-1.912,9.111-4.361,18.121-5.956,27.282c-0.643,3.693-2.25,5.355-5.429,6.724
			c-11.694,5.034-23.285,10.306-33.482,14.85c0,26.696-0.067,52.518,0.14,78.338c0.015,1.86,1.583,4.352,3.183,5.448
			c8.234,5.64,16.397,11.522,25.192,16.171c10.64,5.622,18.071,12.993,19.262,25.468c0.108,1.133,0.478,2.334,1.05,3.314
			c5.586,9.566,3.393,18.07-2.13,27.119c-6.626,10.855-11.936,22.514-18.109,34.388c12.196,19.811,24.822,40.317,37.436,60.806
			c1.83-0.592,3.352-1.384,4.939-1.55c14.743-1.539,29.49-3.039,44.255-4.327c1.512-0.132,3.478,0.837,4.675,1.915
			c5.94,5.35,11.83,10.771,17.421,16.479c1.528,1.56,2.732,4.18,2.771,6.336c0.246,13.829,0.221,27.665,0.05,41.496
			c-0.038,3.058,0.913,4.723,3.576,6.257c14.699,8.47,29.274,17.156,43.891,25.77c5.114,3.014,10.227,6.031,14.727,8.685
			c2.717-2.336,4.782-4.467,7.181-6.111c10.432-7.152,21.044-14.046,31.401-21.305c2.776-1.947,5.157-1.982,8.261-1.266
			c10.523,2.432,21.154,4.398,31.669,6.865c1.934,0.453,4.21,2.024,5.149,3.729c7.145,12.956,14.168,25.986,20.802,39.209
			c1.423,2.836,3.083,3.407,5.677,3.515c8.324,0.343,16.646,0.741,24.972,1.118c2.177,4.898,6.307,0.874,9.409,1.719
			c-0.929-0.283-1.856-0.565-3.823-1.164c4.806-1.45,8.699-2.482,12.492-3.806c4.854-1.694,9.737-3.382,14.401-5.521
			c4.147-1.903,7.985-4.472,12.011-6.652c8.941-4.845,17.566-10.042,22.802-19.264c4.385-1.053,8.77-2.104,13.154-3.156
			c3.77,2.149,7.7,4.063,11.271,6.501c6.156,4.203,13.087,5.105,20.223,5.638c11.974,0.894,23.438-1.476,34.449-5.798
			c6.396-2.512,12.119-7.023,18.645-8.842c5.882-1.64,8.634-6.008,11.042-10.032c6.219-10.393,11.898-21.208,16.63-32.349
			c2.424-5.709,2.884-12.445,3.262-18.775c0.359-6.033-0.542-12.141-0.89-18.216c3.114-2.039,6.229-4.078,9.344-6.116
			c4.661,0.035,9.329,0.247,13.98,0.053c4.094-0.17,8.334-0.232,12.206-1.372c4.1-1.207,7.694-4.073,11.771-5.43
			c8.514-2.833,15.949-7.441,22.988-12.805c3.852-2.935,7.367-6.334,11.338-9.087c8.435-5.847,16.852-11.434,17.904-23.109
			c0.88-9.763,2.512-19.457,3.43-29.217c0.466-4.952,0.235-9.988,0.052-14.976c-0.184-4.964,0.043-10.12-1.247-14.825
			c-2.017-7.351-4.414-14.708-8.777-21.162c1.975-3.027,3.949-6.055,5.924-9.082c0.189-0.269,0.319-0.636,0.577-0.791
			c8.33-5.036,15.074-11.64,20.059-20.035c2.944-4.959,6.182-9.752,8.951-14.804c3.373-6.153,6.548-12.43,9.526-18.784
			c3.565-7.608,1.188-15.834,2.084-23.719c1.256-11.049-3.883-20.201-8.397-29.441c-3.872-7.926-8.791-15.211-14.254-22.3
			c-5.141-6.672-10.795-12.342-17.45-17.244c-1.03-4.707-2.06-9.415-3.089-14.122c0.691-0.991,1.792-1.899,2.012-2.985
			c1.869-9.26,5.051-18.247,4.224-28.021c-0.842-9.957-0.501-20.012-1.214-29.985c-0.396-5.535-2.149-10.961-2.8-16.493
			c-0.561-4.764-2.403-8.834-5.794-11.933c-5.163-4.719-10.692-9.04-16.116-13.47c-2.419-1.976-4.775-4.134-7.476-5.645
			c-12.372-6.923-24.482-14.485-38.715-17.249c0.035-0.751,0.41-1.862,0.054-2.198c-4.324-4.084-8.716-8.099-13.222-11.98
			C646.391,138.303,645.084,138.928,644.18,139.086z"/>
		<path fill-rule="evenodd" clip-rule="evenodd" fill="#010101" d="M433.879,706.729c-8.323-0.377-16.646-0.775-24.97-1.118
			c-2.594-0.107-4.254-0.679-5.677-3.515c-6.634-13.223-13.657-26.253-20.802-39.209c-0.939-1.704-3.216-3.275-5.149-3.729
			c-10.515-2.467-21.146-4.434-31.669-6.865c-3.104-0.717-5.484-0.682-8.261,1.266c-10.356,7.259-20.969,14.152-31.401,21.305
			c-2.398,1.645-4.463,3.775-7.181,6.111c-4.5-2.653-9.613-5.671-14.727-8.685c-14.617-8.613-29.192-17.3-43.891-25.77
			c-2.663-1.534-3.614-3.199-3.576-6.257c0.171-13.831,0.195-27.667-0.05-41.496c-0.039-2.156-1.243-4.776-2.771-6.336
			c-5.591-5.707-11.481-11.129-17.421-16.479c-1.197-1.078-3.164-2.047-4.675-1.915c-14.765,1.288-29.513,2.788-44.255,4.327
			c-1.587,0.166-3.109,0.958-4.939,1.55c-12.614-20.488-25.24-40.995-37.436-60.806c6.173-11.874,11.483-23.532,18.109-34.388
			c5.523-9.049,7.717-17.553,2.13-27.119c-0.572-0.98-0.942-2.182-1.05-3.314c-1.19-12.475-8.622-19.846-19.262-25.468
			c-8.795-4.648-16.958-10.531-25.192-16.171c-1.6-1.097-3.167-3.588-3.183-5.448c-0.207-25.82-0.14-51.642-0.14-78.338
			c10.197-4.544,21.789-9.815,33.482-14.85c3.179-1.368,4.786-3.03,5.429-6.724c1.595-9.161,4.044-18.171,5.956-27.282
			c0.377-1.794,0.502-4.099-0.302-5.613c-7.858-14.801-15.938-29.484-24.077-44.425c12.457-21.195,25.007-42.55,37.302-63.471
			c15.599-0.869,30.852-1.652,46.089-2.669c1.557-0.104,3.307-1.322,4.48-2.506c7.385-7.452,14.69-14.985,21.869-22.636
			c1.246-1.327,2.329-3.269,2.535-5.038c1.409-12.074,2.685-24.167,3.736-36.277c0.392-4.514,1.735-7.687,5.934-10.283
			c15.708-9.712,31.167-19.833,46.604-29.976c2.592-1.703,4.396-1.727,7.042-0.11c10.358,6.329,20.933,12.305,31.329,18.573
			c2.625,1.583,4.846,1.732,7.886,0.94c14.464-3.764,29.06-7.017,43.548-10.691c2.006-0.508,4.241-1.963,5.4-3.646
			c7.27-10.552,14.35-21.237,21.286-32.011c1.646-2.556,3.422-3.495,6.441-3.433c6.152,0.126,12.314-0.212,18.474-0.358
			c2.231,0.812,4.463,1.623,7.12,2.589c0,1.782,0,3.926,0,6.069c0,221.566,0.001,443.133-0.005,664.699
			C433.998,702.066,433.921,704.397,433.879,706.729z M381.208,595.98c0-1.731,0-3.042,0-4.353c0-32.314-0.056-64.63,0.08-96.944
			c0.015-3.511-1-5.111-4.345-6.497c-34.531-14.303-59.22-38.694-73.747-73.161c-1.383-3.283-2.879-4.378-6.416-4.36
			c-30.482,0.149-60.965,0.082-91.447,0.096c-1.413,0.001-2.826,0.154-4.288,0.24C217.616,502.15,290.359,577.488,381.208,595.98z
			 M381.208,136.08c-91.339,18.842-161.25,93.16-178.881,178.963c0.628,0.128,1.254,0.367,1.881,0.367
			c32.156,0.021,64.313,0.069,96.468-0.121c1.529-0.009,3.734-1.809,4.468-3.332c15.413-31.974,39.415-54.831,72.258-68.266
			c3.287-1.345,3.88-3.142,3.869-6.309c-0.104-32.156-0.063-64.313-0.063-96.469C381.208,139.436,381.208,137.957,381.208,136.08z"
			/>
		<path fill-rule="evenodd" clip-rule="evenodd" fill="#FDFDFC" d="M725.878,278.643c1.029,4.707,2.059,9.415,3.089,14.122
			c-56.351,12.673-112.701,25.347-169.183,38.05c0.418,1.865,0.654,2.823,0.845,3.79c2.502,12.655,8.607,24.724,6.238,38.176
			c-0.058,0.324,0.053,0.688-0.04,0.995c-0.869,2.9-1.396,5.979-2.737,8.646c-2.212,4.396-1.645,7.166,2.53,8.437
			c53.746,16.355,107.499,32.687,161.251,49.024c-1.975,3.027-3.949,6.055-5.923,9.083c-3.649,4.676-7.716,4.098-12.967,2.281
			c-47.756-16.519-95.645-32.655-143.437-49.071c-4.163-1.431-5.788-1.063-7.48,3.45c-3.434,9.154-7.183,18.344-12.136,26.731
			c-5.456,9.24-12.41,17.596-18.995,26.73c37.821,39.082,76.009,78.544,114.248,118.059c-1.087,1.416-1.982,2.582-2.879,3.748
			c-3.114,2.038-6.229,4.077-9.344,6.116l0.035,0.033c-0.29-0.66-0.581-1.319-0.871-1.979c-0.511-0.65-0.985-1.332-1.536-1.946
			c-34.221-38.184-68.458-76.352-102.633-114.575c-1.296-1.448-1.997-3.429-3.026-5.25c-14.672,12.911-29.432,21.504-45.751,27.25
			c-3.717,1.309-4.338,2.598-3.376,6.358c14.036,54.897,27.9,109.839,41.741,164.786c0.584,2.317,0.538,4.793,0.785,7.196
			c-4.385,1.052-8.77,2.104-13.154,3.155c-12.476-59.123-24.951-118.245-37.535-177.879c-9.099,2.124-17.473,4.08-26.212,6.12
			c-0.172-2.351-0.349-3.651-0.349-4.953c-0.012-85.595-0.015-171.189,0.004-256.785c0.002-5.322,1.396-6.344,6.899-5.401
			c4.396,1.071,8.793,2.143,13.189,3.215c0.955,0.152,1.91,0.304,2.865,0.456c2.021,1.088,3.958,3.49,6.25,0.404
			c0.142-0.3,0.353-0.585,0.416-0.9c9.468-46.777,18.893-93.563,28.406-140.332c2.249-11.057,4.796-22.054,7.206-33.078
			c3.253,2.728,6.506,5.456,9.76,8.183c1.726,2.595,4.017,4.464,2.892,8.601c-11.996,44.112-23.684,88.308-35.442,132.484
			c-2.468,9.271-4.881,18.558-7.403,28.161c19.373,6.552,35.938,16.826,51.161,30.385c1.259-1.491,2.172-2.663,3.178-3.75
			c34.509-37.279,69.041-74.538,103.525-111.839c4.847-5.242,9.47-10.691,14.196-16.044c0.904-0.158,2.211-0.783,2.651-0.403
			c4.506,3.882,8.897,7.896,13.222,11.98c0.356,0.336-0.019,1.447-0.054,2.198c-0.766,0.632-1.571,1.22-2.289,1.9
			c-40.585,38.494-81.163,76.995-121.741,115.497c-2.15,2.04-4.293,4.088-5.573,5.308c9.337,15.176,18.341,29.812,27.661,44.962
			c26.694-7.318,54.564-14.946,82.428-22.601c27.85-7.651,55.692-15.328,83.584-23.007
			C724.77,276.363,725.324,277.503,725.878,278.643z"/>
		<path fill-rule="evenodd" clip-rule="evenodd" fill="#999933" d="M638.303,580.895c0.896-1.166,1.792-2.332,2.879-3.748
			c-38.239-39.515-76.427-78.977-114.248-118.059c6.585-9.135,13.539-17.49,18.995-26.73c4.953-8.388,8.702-17.577,12.136-26.731
			c1.692-4.513,3.317-4.881,7.48-3.45c47.792,16.416,95.681,32.553,143.437,49.071c5.251,1.816,9.317,2.395,12.967-2.281
			c4.362,6.453,6.76,13.811,8.776,21.161c1.29,4.705,1.063,9.861,1.247,14.825c0.184,4.987,0.414,10.023-0.052,14.976
			c-0.918,9.76-2.55,19.454-3.43,29.217c-1.053,11.676-9.47,17.263-17.904,23.109c-3.971,2.753-7.486,6.152-11.338,9.087
			c-7.039,5.363-14.475,9.972-22.988,12.805c-4.076,1.356-7.671,4.223-11.771,5.43c-3.872,1.14-8.112,1.202-12.206,1.372
			C647.632,581.142,642.964,580.93,638.303,580.895z"/>
		<path fill-rule="evenodd" clip-rule="evenodd" fill="#999933" d="M644.18,139.086c-4.727,5.353-9.35,10.802-14.196,16.044
			c-34.484,37.301-69.017,74.56-103.525,111.839c-1.006,1.087-1.919,2.259-3.178,3.75c-15.224-13.559-31.788-23.833-51.161-30.385
			c2.522-9.604,4.936-18.89,7.403-28.161c11.759-44.177,23.446-88.372,35.442-132.484c1.125-4.137-1.166-6.006-2.892-8.601
			c6.872-3.482,13.683-6.819,21.707-7.231c5.938-0.306,11.825-2.692,17.713-2.61c8.419,0.117,16.816,1.651,25.225,2.563
			c4.086,0.443,8.182,0.804,12.264,1.28c7.599,0.887,14.185,4.045,19.221,9.758c3.927,4.455,6.651,10.148,11.066,13.947
			c4.938,4.247,7.569,9.765,10.896,14.898c3.02,4.66,5.737,9.645,7.715,14.819C640.433,125.196,642.119,132.213,644.18,139.086z"/>
		<path fill-rule="evenodd" clip-rule="evenodd" fill="#999933" d="M443.98,233.141c-5.504-0.942-6.897,0.079-6.899,5.401
			c-0.019,85.596-0.016,171.19-0.004,256.785c0,1.302,0.177,2.603,0.349,4.953c8.739-2.04,17.113-3.996,26.212-6.12
			c12.584,59.634,25.06,118.756,37.535,177.879c-5.235,9.223-13.86,14.42-22.802,19.265c-4.025,2.181-7.863,4.749-12.011,6.652
			c-4.664,2.14-9.547,3.827-14.401,5.521c-3.793,1.323-7.687,2.355-12.492,3.806c1.967,0.599,2.895,0.881,3.823,1.164
			c-3.103-0.845-7.232,3.18-9.41-1.719c0.041-2.331,0.118-4.662,0.118-6.993c0.006-221.566,0.005-443.133,0.005-664.699
			c0-2.144,0-4.287,0-6.069c-2.657-0.966-4.889-1.777-7.12-2.589c-0.15-2.405,0.664-3.582,3.385-3.436
			c4.133,0.223,8.286,0.059,12.431,0.059c-0.194,0.418-0.39,0.836-0.584,1.254c3.801,1.906,7.451,4.234,11.43,5.636
			c10.474,3.688,19.942,9.003,29.306,14.988c7.742,4.949,13.911,11.011,19.462,18.028c-2.408,11.022-4.955,22.02-7.204,33.076
			c-9.514,46.769-18.938,93.555-28.406,140.332c-0.063,0.315-0.274,0.601-0.417,0.9c-2.083-0.135-4.166-0.27-6.249-0.404
			c-0.955-0.152-1.91-0.304-2.866-0.455c-2.37-1.19-5.192-1.919-7.005-3.683C447.537,230.117,445.852,230.388,443.98,233.141z"/>
		<path fill-rule="evenodd" clip-rule="evenodd" fill="#999933" d="M727.871,439.883c-53.752-16.338-107.505-32.669-161.251-49.024
			c-4.175-1.271-4.742-4.04-2.53-8.437c1.342-2.667,1.868-5.746,2.737-8.646c0.093-0.308-0.018-0.671,0.04-0.995
			c2.369-13.452-3.736-25.521-6.238-38.176c-0.19-0.967-0.427-1.925-0.845-3.79c56.481-12.703,112.832-25.377,169.183-38.05
			c6.655,4.902,12.31,10.572,17.45,17.244c5.463,7.089,10.382,14.374,14.254,22.3c4.515,9.24,9.653,18.393,8.397,29.441
			c-0.896,7.885,1.481,16.11-2.084,23.719c-2.979,6.354-6.153,12.631-9.526,18.784c-2.77,5.052-6.007,9.845-8.951,14.804
			c-4.984,8.396-11.729,14.999-20.059,20.035C728.19,439.247,728.061,439.614,727.871,439.883z"/>
		<path fill-rule="evenodd" clip-rule="evenodd" fill="#999933" d="M514.327,668.884c-0.247-2.403-0.201-4.879-0.785-7.196
			c-13.841-54.947-27.705-109.889-41.741-164.786c-0.962-3.761-0.341-5.05,3.376-6.358c16.319-5.746,31.079-14.339,45.751-27.25
			c1.029,1.821,1.73,3.802,3.026,5.25c34.175,38.224,68.412,76.392,102.633,114.575c0.551,0.614,1.025,1.296,1.536,1.945
			c0.29,0.66,0.581,1.32,0.871,1.98l-0.035-0.033c0.348,6.075,1.249,12.183,0.89,18.216c-0.378,6.33-0.838,13.066-3.262,18.775
			c-4.731,11.141-10.411,21.956-16.63,32.349c-2.408,4.024-5.16,8.393-11.042,10.032c-6.525,1.818-12.248,6.33-18.645,8.842
			c-11.012,4.322-22.476,6.691-34.449,5.798c-7.136-0.532-14.066-1.435-20.223-5.638
			C522.027,672.946,518.097,671.033,514.327,668.884z"/>
		<path fill-rule="evenodd" clip-rule="evenodd" fill="#999933" d="M725.878,278.643c-0.554-1.14-1.108-2.279-1.81-3.722
			c-27.892,7.679-55.734,15.355-83.584,23.007c-27.863,7.654-55.733,15.282-82.428,22.601c-9.32-15.15-18.324-29.786-27.661-44.962
			c1.28-1.22,3.423-3.268,5.573-5.308c40.578-38.502,81.156-77.003,121.741-115.497c0.718-0.681,1.523-1.269,2.289-1.9
			c14.232,2.764,26.343,10.326,38.715,17.249c2.7,1.511,5.057,3.669,7.476,5.645c5.424,4.43,10.953,8.751,16.116,13.47
			c3.391,3.099,5.233,7.169,5.794,11.933c0.65,5.532,2.404,10.958,2.8,16.493c0.713,9.974,0.372,20.028,1.214,29.985
			c0.827,9.774-2.354,18.762-4.224,28.021C727.67,276.743,726.569,277.651,725.878,278.643z"/>
		<path fill-rule="evenodd" clip-rule="evenodd" fill="#FDFDFD" d="M381.208,595.98c-90.849-18.492-163.592-93.83-180.163-184.979
			c1.462-0.086,2.875-0.239,4.288-0.24c30.482-0.014,60.965,0.054,91.447-0.096c3.537-0.018,5.033,1.077,6.416,4.36
			c14.527,34.467,39.215,58.858,73.747,73.161c3.345,1.386,4.359,2.986,4.345,6.497c-0.136,32.314-0.08,64.63-0.08,96.944
			C381.208,592.938,381.208,594.249,381.208,595.98z"/>
		<path fill-rule="evenodd" clip-rule="evenodd" fill="#FDFDFD" d="M381.208,136.08c0,1.877,0,3.355,0,4.834
			c0,32.156-0.041,64.313,0.063,96.469c0.011,3.167-0.582,4.964-3.869,6.309c-32.844,13.435-56.846,36.292-72.258,68.266
			c-0.734,1.523-2.939,3.323-4.468,3.332c-32.155,0.19-64.312,0.143-96.468,0.121c-0.627,0-1.253-0.239-1.881-0.367
			C219.958,229.24,289.869,154.922,381.208,136.08z"/>
		<path fill-rule="evenodd" clip-rule="evenodd" fill="#B7B771" d="M443.98,233.141c1.871-2.753,3.557-3.023,6.184-0.467
			c1.813,1.764,4.635,2.492,7.005,3.683C452.773,235.283,448.377,234.212,443.98,233.141z"/>
		<path fill-rule="evenodd" clip-rule="evenodd" fill="#B7B771" d="M460.035,236.812c2.083,0.135,4.166,0.27,6.249,0.404
			C463.993,240.302,462.057,237.899,460.035,236.812z"/>
		<path fill-rule="evenodd" clip-rule="evenodd" fill="#CBCBFE" d="M628.994,587.044c-0.29-0.66-0.581-1.32-0.871-1.98
			C628.413,585.725,628.704,586.384,628.994,587.044z"/>
	</g>
</g>
</svg>
