<?xml version="1.0" encoding="utf-8"?>
<!-- Generator: Adobe Illustrator 19.2.0, SVG Export Plug-In . SVG Version: 6.00 Build 0)  -->
<svg version="1.1" id="Back_xA0_Image_1_" xmlns="http://www.w3.org/2000/svg" xmlns:xlink="http://www.w3.org/1999/xlink" x="0px"
	 y="0px" viewBox="0 0 603 720" style="enable-background:new 0 0 603 720;" xml:space="preserve">
<style type="text/css">
	.st0{fill:#CBCBFE;}
	.st1{fill:#010101;}
</style>
<g>
	<g>
		<path class="st0" d="M604,721c-201,0-402,0-602.9,0C1,480.9,1,241,1,1c201,0,402,0,602.9,0C604,241.1,604,481,604,721z M455,38.1
			C328.7,116.5,203.1,194.5,77.1,272.8C203.3,337.9,329.8,403.2,458,469.3c0-18.1-0.2-34.7,0.1-51.3c0.1-4.3-1-6.6-5.1-8.7
			c-68.5-35-137-70.2-205.4-105.3c-22.8-11.7-45.5-23.4-68.6-35.3c1.7-1.1,3.1-2,4.5-2.8c50.9-31.6,101.7-63.2,152.6-94.8
			c38.4-23.9,76.9-47.7,115.2-71.7c1.6-1,3.6-3,3.6-4.5C455.1,76.1,455,57.5,455,38.1z M125.1,580.2c4.1-7,8.8-13.3,11.7-20.4
			c5.8-14.3,5.9-29.3,2.5-44.2c-3.9-17-13.2-24.5-30.7-24.9c-14.2-0.3-28.3-0.2-42.5,0c-2,0-5.6,1.3-5.7,2.4
			c-0.5,3.6-1.2,9.1,0.8,10.6c5.1,3.9,5.7,8.7,5.7,14.1c0,30.8,0.1,61.7,0.1,92.5c0,14.2,0.1,28.3-0.2,42.5
			c-0.1,3.3-0.7,8.2-2.8,9.6c-4.7,2.9-3.9,6.7-4.1,10.7c-0.2,3.8,1.5,5.5,5.3,5.5c13.7-0.1,27.3,0.2,41-0.1
			c16.3-0.4,26.5-8.3,32-23.8c3.8-10.9,4.3-22.2,4.1-33.5C141.8,604.8,137.5,590.2,125.1,580.2z M409.3,593.8
			c0.5-0.2,0.9-0.3,1.4-0.5c1.8,4.9,3.8,9.8,5.4,14.7c5.2,15.8,10.3,31.6,15.1,47.5c0.8,2.5,1,7.3-0.2,7.9c-4.4,2.3-2.6,5.9-3,9
			c-0.5,4.6,1.7,6.2,6.2,6.1c9.7-0.2,19.3,0.1,29-0.2c2.1-0.1,5.8-1.4,6-2.7c0.6-3.4,1.1-8.7-0.8-10.3c-4.8-4-6.7-9-8.5-14.3
			c-8.9-26.4-17.7-52.9-26.4-79.4c-0.5-1.4-0.5-3.4,0.1-4.7c8.1-18,16.2-36.1,24.5-54c1.1-2.4,2.5-5.4,4.6-6.3
			c5.5-2.3,4.3-6.6,4.5-10.8c0.2-3.8-1.6-5.4-5.4-5.4c-7.3,0.1-14.7,0-22,0c-13,0-12.2-1.4-11.9,12.6c0,0.3,0.3,0.6,0.5,1.1
			c4,0,5,3,5.3,6.3c0.2,2,0.2,4-0.2,6c-3.5,18.7-11.9,35.5-20,52.4c-0.7,1.4-2.3,2.2-4.2,3.9c0-19.8-0.2-38.4,0.1-57
			c0.1-3.3,1-7.9,3.3-9.4c4.2-2.8,3.4-6.3,3.6-9.9c0.3-4.3-1.4-6-5.8-5.9c-9.5,0.2-19-0.1-28.5,0.2c-2,0.1-5.5,1.4-5.7,2.5
			c-0.4,3.6-1,9,0.9,10.6c4.8,3.8,5.6,8.4,5.6,13.6c0,32,0.1,64,0.1,95.9c0,13.2,0.1,26.3-0.2,39.5c-0.1,3.3-0.7,8.1-2.8,9.6
			c-4.2,2.9-3.9,6.3-4.1,10.2c-0.2,4.3,1.5,6,5.8,6c9.5-0.2,19,0.1,28.5-0.2c2-0.1,5.5-1.4,5.6-2.5c0.5-3.6,1.1-9.1-0.9-10.6
			c-4.3-3.4-5.6-7.4-5.6-12.1C409.2,633.3,409.3,613.5,409.3,593.8z M222.8,490.5c-6.4,0-12.5,0.1-18.7-0.1
			c-2.9-0.1-3.9,0.9-4.4,3.8c-9.5,50.6-19.1,101.3-29,151.8c-1.1,5.8-2.4,12.6-6.2,16.4c-3.6,3.6-3.5,6.7-3.7,10.6
			c-0.2,3.9,1.7,5.4,5.4,5.3c5.5-0.1,11-0.1,16.5,0c12.9,0.1,12.1,0.7,12-12.2c0-0.3-0.2-0.6-0.3-1.1c-5.1-0.7-6.8-4.4-6.5-8.9
			c0.8-10.4,2-20.8,3.3-31.2c0.1-1,2.2-2.3,3.4-2.4c6.2-0.2,12.3-0.2,18.5,0c1.2,0,3.1,1.5,3.3,2.5c1.3,10.1,2.4,20.2,3.1,30.3
			c0.2,2.6-0.9,6.9-2.5,7.6c-5.3,2-4,6-4.2,9.7c-0.3,4.3,1.6,5.9,5.9,5.9c10.2-0.2,20.3,0.1,30.5-0.2c1.9-0.1,5.3-1.5,5.5-2.8
			c0.6-3.4,1.1-8.9-0.7-10.2c-5-3.5-6-8.3-6.8-13.3C242,618.7,237.1,585.3,232,552C229,531.6,225.9,511.2,222.8,490.5z M334.5,538.6
			c2.7,0,5.6,0,8.4,0c3.5,0,5.1-1.7,5.1-5.2c-0.1-11.7,0-23.3-0.1-35c0-1.2-0.9-2.9-1.9-3.5c-16.2-8.9-39.1-11.3-53,10.7
			c-8.2,13.1-11.9,27.7-14.1,42.7c-3.5,24.2-3.3,48.5-0.9,72.8c1.4,14.4,4,28.7,11.3,41.6c4.8,8.4,11.5,14.7,21.3,16.8
			c12.6,2.7,24.4-0.4,35.7-5.9c1-0.5,1.6-2.7,1.6-4.1c0.1-9.5,0.1-19,0.1-28.5c0-12.5,2.3-13.3-13.9-12.1c-0.2,0.9-0.4,1.9-0.6,2.8
			c-1.6,7.1-2.9,14.3-4.9,21.3c-1,3.6-4,6.9-8.1,6.1c-3-0.6-6.8-2.8-8-5.4c-2.9-6.1-5.2-12.7-6.3-19.3c-4.8-30.3-4.5-60.8-0.8-91.1
			c1.1-9.1,4.4-18,7.4-26.7c1.3-4,4.6-7.3,9.4-6.9c4.8,0.4,6.5,4.5,7.6,8.3C331.7,524.5,332.9,531.2,334.5,538.6z"/>
		<path class="st1" d="M455,38.1c0,19.4,0.1,38-0.2,56.6c0,1.6-2,3.6-3.6,4.5c-38.4,24-76.8,47.8-115.2,71.7
			c-50.9,31.6-101.7,63.2-152.6,94.8c-1.4,0.9-2.7,1.8-4.5,2.8c23.1,11.9,45.9,23.6,68.6,35.3C316,339.1,384.4,374.3,453,409.2
			c4.1,2.1,5.2,4.4,5.1,8.7c-0.3,16.6-0.1,33.2-0.1,51.3C329.8,403.2,203.3,337.9,77.1,272.8C203.1,194.5,328.7,116.5,455,38.1z"/>
		<path class="st1" d="M125.1,580.2c12.4,10,16.7,24.6,17,40.9c0.3,11.4-0.3,22.6-4.1,33.5c-5.4,15.5-15.6,23.4-32,23.8
			c-13.7,0.3-27.3,0-41,0.1c-3.8,0-5.4-1.7-5.3-5.5c0.2-4-0.6-7.8,4.1-10.7c2.1-1.3,2.7-6.2,2.8-9.6c0.3-14.2,0.2-28.3,0.2-42.5
			c0-30.8,0-61.7-0.1-92.5c0-5.4-0.6-10.2-5.7-14.1c-1.9-1.5-1.3-7.1-0.8-10.6c0.2-1.1,3.7-2.4,5.7-2.4c14.2-0.2,28.3-0.3,42.5,0
			c17.4,0.4,26.8,7.9,30.7,24.9c3.4,14.9,3.3,29.9-2.5,44.2C134,566.8,129.2,573.2,125.1,580.2z M93.3,656.8
			c12.8,2.2,19-1.6,21.4-13.5c2.5-12.4,2.5-24.9,0-37.2c-2.4-12.1-8.9-16.2-21.5-13.9C93.3,613.6,93.3,635,93.3,656.8z M93.3,570
			c12.2,1.6,17.3-1.3,20.1-12.6c2.8-11.4,3-23.1,0.2-34.6c-2.4-9.9-10.6-13.7-20.3-10.1C93.3,531.9,93.3,550.9,93.3,570z"/>
		<path class="st1" d="M409.3,593.8c0,19.8-0.1,39.6,0.1,59.3c0,4.7,1.3,8.7,5.6,12.1c2,1.6,1.4,7,0.9,10.6
			c-0.1,1.1-3.6,2.5-5.6,2.5c-9.5,0.3-19,0-28.5,0.2c-4.3,0.1-6-1.7-5.8-6c0.2-3.9-0.2-7.3,4.1-10.2c2.2-1.5,2.8-6.2,2.8-9.6
			c0.3-13.2,0.2-26.3,0.2-39.5c0-32,0-64-0.1-95.9c0-5.2-0.8-9.8-5.6-13.6c-2-1.6-1.4-7-0.9-10.6c0.1-1.1,3.7-2.5,5.7-2.5
			c9.5-0.3,19,0,28.5-0.2c4.4-0.1,6.1,1.7,5.8,5.9c-0.2,3.7,0.6,7.1-3.6,9.9c-2.2,1.5-3.2,6.2-3.3,9.4c-0.3,18.6-0.1,37.2-0.1,57
			c1.8-1.6,3.5-2.5,4.2-3.9c8.1-16.9,16.5-33.7,20-52.4c0.4-1.9,0.4-4,0.2-6c-0.3-3.4-1.3-6.3-5.3-6.3c-0.3-0.5-0.5-0.8-0.5-1.1
			c-0.3-14-1-12.6,11.9-12.6c7.3,0,14.7,0.1,22,0c3.8-0.1,5.5,1.5,5.4,5.4c-0.2,4.1,1,8.4-4.5,10.8c-2.1,0.9-3.5,4-4.6,6.3
			c-8.3,17.9-16.4,36-24.5,54c-0.6,1.3-0.6,3.3-0.1,4.7c8.7,26.5,17.5,53,26.4,79.4c1.8,5.3,3.7,10.3,8.5,14.3
			c1.9,1.6,1.4,6.9,0.8,10.3c-0.2,1.3-3.9,2.6-6,2.7c-9.7,0.3-19.3,0-29,0.2c-4.4,0.1-6.7-1.5-6.2-6.1c0.4-3.1-1.4-6.7,3-9
			c1.2-0.6,1-5.4,0.2-7.9c-4.8-15.9-10-31.7-15.1-47.5c-1.6-5-3.6-9.8-5.4-14.7C410.2,593.5,409.7,593.6,409.3,593.8z"/>
		<path class="st1" d="M222.8,490.5c3.1,20.7,6.2,41,9.2,61.4c5,33.4,10,66.8,15.1,100.1c0.8,5,1.9,9.7,6.8,13.3
			c1.8,1.3,1.2,6.8,0.7,10.2c-0.2,1.2-3.5,2.7-5.5,2.8c-10.2,0.3-20.3,0-30.5,0.2c-4.3,0.1-6.2-1.5-5.9-5.9c0.3-3.7-1.1-7.7,4.2-9.7
			c1.6-0.6,2.7-5,2.5-7.6c-0.7-10.1-1.8-20.2-3.1-30.3c-0.1-1-2.1-2.5-3.3-2.5c-6.2-0.3-12.3-0.2-18.5,0c-1.2,0-3.3,1.4-3.4,2.4
			c-1.3,10.4-2.4,20.8-3.3,31.2c-0.4,4.5,1.4,8.2,6.5,8.9c0.1,0.5,0.3,0.8,0.3,1.1c0.2,13,0.9,12.4-12,12.2c-5.5,0-11-0.1-16.5,0
			c-3.7,0.1-5.6-1.5-5.4-5.3c0.2-3.9,0.2-7,3.7-10.6c3.8-3.8,5.1-10.7,6.2-16.4c9.8-50.6,19.4-101.2,29-151.8
			c0.5-2.9,1.5-3.9,4.4-3.8C210.3,490.7,216.5,490.5,222.8,490.5z M213.5,601.3c-2.6-18.1-5.1-35.6-7.6-53c-0.4,0-0.7,0-1.1,0
			c-3.2,17.6-6.3,35.2-9.5,53C201.6,601.3,207.2,601.3,213.5,601.3z"/>
		<path class="st1" d="M334.5,538.6c-1.6-7.3-2.8-14-4.7-20.6c-1.1-3.8-2.8-7.9-7.6-8.3c-4.8-0.4-8.1,2.9-9.4,6.9
			c-3,8.8-6.3,17.6-7.4,26.7c-3.7,30.4-4,60.8,0.8,91.1c1,6.6,3.4,13.2,6.3,19.3c1.2,2.6,5,4.8,8,5.4c4,0.8,7-2.5,8.1-6.1
			c2-7,3.3-14.2,4.9-21.3c0.2-1,0.4-1.9,0.6-2.8c16.2-1.1,13.9-0.4,13.9,12.1c0,9.5,0.1,19-0.1,28.5c0,1.4-0.6,3.6-1.6,4.1
			c-11.3,5.5-23.1,8.6-35.7,5.9c-9.7-2.1-16.4-8.4-21.3-16.8c-7.3-12.9-9.9-27.1-11.3-41.6c-2.4-24.3-2.6-48.6,0.9-72.8
			c2.2-15,5.9-29.6,14.1-42.7c13.8-22.1,36.8-19.7,53-10.7c1,0.5,1.9,2.3,1.9,3.5c0.1,11.7,0.1,23.3,0.1,35c0,3.5-1.7,5.2-5.1,5.2
			C340.1,538.6,337.3,538.6,334.5,538.6z"/>
		<path class="st0" d="M93.3,656.8c0-21.8,0-43.2,0-64.6c12.5-2.2,19,1.8,21.5,13.9c2.5,12.4,2.5,24.9,0,37.2
			C112.3,655.2,106.1,659,93.3,656.8z"/>
		<path class="st0" d="M93.3,570c0-19,0-38.1,0-57.3c9.6-3.6,17.8,0.2,20.3,10.1c2.8,11.5,2.6,23.1-0.2,34.6
			C110.7,568.6,105.5,571.6,93.3,570z"/>
		<path class="st0" d="M213.5,601.3c-6.3,0-11.9,0-18.2,0c3.2-17.8,6.4-35.4,9.5-53c0.4,0,0.7,0,1.1,0
			C208.3,565.8,210.9,583.2,213.5,601.3z"/>
	</g>
</g>
</svg>
