<?xml version="1.0" encoding="utf-8"?>
<!-- Generator: Adobe Illustrator 19.2.0, SVG Export Plug-In . SVG Version: 6.00 Build 0)  -->
<svg version="1.1" id="Go_Back_xA0_Image_1_" xmlns="http://www.w3.org/2000/svg" xmlns:xlink="http://www.w3.org/1999/xlink"
	 x="0px" y="0px" viewBox="0 0 603 720" style="enable-background:new 0 0 603 720;" xml:space="preserve">
<style type="text/css">
	.st0{fill:#CBCBFE;}
	.st1{fill:#707070;}
</style>
<g>
	<g>
		<path class="st0" d="M1,1c201,0,402,0,603,0c0,240,0,480,0,720c-201,0-402,0-603,0C1,481,1,241,1,1z M77.1,272.8
			C203.5,338,329.9,403.2,456.3,468.4c0.6-0.3,1.1-0.6,1.7-0.9c0-16.5-0.2-33,0.1-49.4c0.1-4.8-1.6-7-5.6-9
			c-87.4-44.8-174.8-89.7-262.2-134.6c-3.6-1.9-7.2-3.8-11.2-5.9c2.5-1.6,4.5-2.9,6.4-4.1c88.4-54.9,176.8-109.9,265.3-164.7
			c3-1.9,4.4-3.8,4.3-7.5C454.8,81,455,69.9,455,58.7c0-6.6,0-13.2,0-20.6C328.7,116.5,203.1,194.5,77.1,272.8z M185.6,579.4
			c18-19.6,19.7-42.4,14.3-66.3c-3.1-13.6-12.1-21.4-26.1-22.2c-15.3-0.9-30.6-0.6-45.9-0.5c-2.2,0-6,1.2-6.2,2.4
			c-0.7,3.5-1.5,9.4,0.3,10.8c6.3,4.7,6,10.8,6,17c0.1,31.1,0.1,62.3,0.1,93.4c0,12.7,0.2,25.3-0.2,38c-0.1,3.6-0.8,8.6-3.2,10.5
			c-3.7,3-3.6,6.1-3.8,9.9c-0.2,4.4,1.5,6.5,6.1,6.4c13.2-0.1,26.3,0.2,39.5-0.1c16.7-0.3,27.9-8.2,32.7-24.2
			c2.5-8.5,3.6-17.6,4.1-26.5C204.3,609.6,200.8,592.4,185.6,579.4z M419.6,572.2c-0.3-0.3-0.6-0.5-0.9-0.8c0-19.1,0-38.2,0-57.3
			c0-4,2-6.8,4.8-9.9c2-2.2,2-7,1.5-10.5c-0.2-1.4-4-3.2-6.2-3.3c-9.1-0.4-18.3-0.3-27.5,0c-2.1,0.1-5.8,1.5-6,2.8
			c-0.6,3.6-1.1,9.1,0.9,10.7c5.2,4.1,5.6,9.2,5.6,14.7c0.1,32.3,0.1,64.6,0.1,97c0,12.2,0.2,24.3-0.2,36.5
			c-0.1,3.6-0.8,8.5-3.1,10.5c-3.7,3-3.6,6.1-3.8,9.9c-0.2,4.8,1.9,6.5,6.6,6.4c9.2-0.2,18.3,0.2,27.5-0.2c2.2-0.1,6-1.8,6.2-3.2
			c0.6-3.6,2-7.6-1.5-11.2c-2.1-2.2-4.5-5.3-4.6-8.1c-0.6-19.3-0.7-38.6-0.9-57.9c0-1.4,0-2.8,0-4.2c1.8,1.2,2.8,2.5,3.3,4
			c3.9,11.5,7.9,23,11.6,34.5c2.6,8.1,5.1,16.2,7.4,24.3c0.5,1.9,0.7,5.5-0.3,6.1c-4,2.5-3,6.1-3.2,9.6c-0.3,4.5,1.8,6.3,6.2,6.2
			c9.7-0.1,19.3,0.1,29-0.2c2.1-0.1,5.8-1.5,6-2.8c0.6-3.5,0.4-7.6-0.9-10.8c-1.7-4.1-5.8-7.3-7.2-11.5
			c-9.4-27.2-18.4-54.5-27.4-81.9c-0.5-1.7-0.2-4,0.5-5.6c7.1-16.1,14.3-32.3,21.7-48.3c1.8-3.9,3.6-8.7,6.9-10.7
			c5-3.1,4.3-7.1,4.4-11.5c0.1-3.5-1.6-5.2-5.1-5.2c-9.8,0-19.7-0.1-29.5,0.1c-1.6,0-4.2,1.6-4.6,2.9c-0.8,3-0.7,6.3-0.3,9.4
			c0.1,1,2.6,1.5,3.5,2.7c1,1.2,2.1,2.9,2,4.3c-0.3,5.3-0.1,10.9-1.9,15.7c-5.1,13.9-10.9,27.5-16.6,41.2
			C422.9,568.6,421,570.3,419.6,572.2z M266.9,490.3c-6.2,0-11.8,0.2-17.5-0.1c-3.6-0.1-5.2,0.7-5.9,4.7
			c-2.9,16.9-6.3,33.7-9.5,50.5c-6.7,34.8-13.2,69.7-20.1,104.4c-0.9,4.5-2.1,10.1-5.2,12.6c-4.3,3.5-3.7,7.2-3.8,11.3
			c-0.1,3.3,1.6,5,4.8,5c8.2,0,16.3,0.2,24.5-0.2c1.6-0.1,4.3-2.2,4.4-3.6c0.3-3.4,0.5-9.1-1.3-10c-4.8-2.5-5.6-6.1-5.3-10.3
			c0.7-9.6,1.9-19.2,3.2-28.7c0.2-1.3,2.5-3,3.9-3.1c5.8-0.4,11.7-0.3,17.5,0c1.3,0.1,3.6,1.6,3.7,2.7c1.2,10.6,2.2,21.2,2.8,31.8
			c0.1,1.9-1,5.2-2.2,5.7c-5.2,1.8-3.9,5.7-4.1,9.4c-0.3,4.8,1.9,6.5,6.5,6.4c9.7-0.2,19.3,0.1,29-0.2c2.2-0.1,5.9-1.3,6.2-2.6
			c0.7-3.5,1.4-9.2-0.5-10.7c-5.1-3.9-6.1-9.1-6.9-14.4c-5.8-37.8-11.4-75.7-17.1-113.6C271.7,521.9,269.4,506.4,266.9,490.3z
			 M303.2,598.1c0.7,7.6,1.4,19.9,3,32.1c1.7,12.9,4.8,25.5,12.6,36.4c5.5,7.7,12.8,12.4,22.3,13.6c10.8,1.4,20.7-1.5,30.5-5.6
			c2.8-1.2,3.5-2.9,3.5-5.7c-0.1-11.3-0.1-22.7,0-34c0-4.1-1-6.7-5.7-6.8c-8.7-0.2-8.4-0.3-9.4,5.7c-1.1,6.5-2.6,13-4.6,19.3
			c-1,3.4-3.8,6.6-7.8,5.7c-2.9-0.6-6.5-2.6-7.8-5c-2.6-4.9-4.7-10.4-5.7-15.8c-5.9-33.6-5.5-67.3-0.6-100.9
			c1.1-7.4,4-14.8,7.2-21.6c1.2-2.7,5.6-5.4,8.5-5.3c2.4,0.1,5.7,3.7,6.9,6.5c2,4.5,3.1,9.5,3.7,14.4c1.2,9.6,1.2,7.4,8.6,7.5
			c5.6,0.1,6.6-1,6.6-6.8c0-9.7-0.4-19.3,0.2-29c0.4-6-1.9-8.8-7.2-11c-16.5-6.8-32.5-4.9-42.6,7.3c-5.6,6.8-10.1,14.9-13.2,23.2
			C303.8,545.3,303.2,569.3,303.2,598.1z"/>
		<path class="st1" d="M77.1,272.8C203.1,194.5,328.7,116.5,455,38.1c0,7.4,0,14,0,20.6c0,11.2-0.1,22.3,0.1,33.5
			c0.1,3.7-1.2,5.6-4.3,7.5c-88.5,54.8-176.9,109.8-265.3,164.7c-2,1.2-3.9,2.5-6.4,4.1c4,2.1,7.6,4.1,11.2,5.9
			c87.4,44.9,174.8,89.8,262.2,134.6c4,2.1,5.7,4.3,5.6,9c-0.4,16.5-0.1,33-0.1,49.4c-0.6,0.3-1.1,0.6-1.7,0.9
			C329.9,403.2,203.5,338,77.1,272.8z"/>
		<path class="st1" d="M185.6,579.4c15.2,13,18.7,30.1,17.6,48.6c-0.5,8.9-1.6,18-4.1,26.5c-4.8,16.1-15.9,23.9-32.7,24.2
			c-13.2,0.3-26.3,0-39.5,0.1c-4.6,0-6.2-2-6.1-6.4c0.1-3.8,0.1-6.9,3.8-9.9c2.4-1.9,3-6.9,3.2-10.5c0.4-12.6,0.2-25.3,0.2-38
			c0-31.1,0-62.3-0.1-93.4c0-6.2,0.3-12.4-6-17c-1.9-1.4-1.1-7.2-0.3-10.8c0.3-1.2,4.1-2.4,6.2-2.4c15.3-0.1,30.7-0.4,45.9,0.5
			c13.9,0.8,22.9,8.6,26.1,22.2C205.3,537,203.5,559.8,185.6,579.4z M154.4,656.6c12.9,2,18.3-1,20.9-12.3c3.1-13.6,3.2-27.4-0.4-41
			c-2.8-10.3-9.9-13.7-20.4-10.6C154.4,613.9,154.4,635.1,154.4,656.6z M154.5,512.3c0,19.3,0,38.4,0,57.4
			c12.2,1.7,17.9-1.3,19.8-12.9c1.6-9.9,1.9-20.3,0.8-30.2C173.6,513.8,167.9,510.5,154.5,512.3z"/>
		<path class="st1" d="M419.6,572.2c1.4-1.9,3.2-3.6,4.1-5.7c5.7-13.7,11.6-27.3,16.6-41.2c1.8-4.8,1.6-10.4,1.9-15.7
			c0.1-1.4-1-3.1-2-4.3c-0.9-1.1-3.4-1.7-3.5-2.7c-0.4-3.1-0.5-6.4,0.3-9.4c0.3-1.3,3-2.8,4.6-2.9c9.8-0.3,19.7-0.1,29.5-0.1
			c3.5,0,5.2,1.7,5.1,5.2c-0.1,4.3,0.6,8.3-4.4,11.5c-3.3,2-5.1,6.8-6.9,10.7c-7.4,16-14.6,32.1-21.7,48.3c-0.7,1.7-1.1,4-0.5,5.6
			c9,27.3,18,54.7,27.4,81.9c1.4,4.2,5.5,7.4,7.2,11.5c1.3,3.2,1.4,7.3,0.9,10.8c-0.2,1.3-3.9,2.7-6,2.8c-9.7,0.3-19.3,0-29,0.2
			c-4.4,0.1-6.5-1.7-6.2-6.2c0.2-3.5-0.8-7.1,3.2-9.6c1-0.6,0.8-4.2,0.3-6.1c-2.3-8.2-4.7-16.3-7.4-24.3c-3.8-11.5-7.7-23-11.6-34.5
			c-0.5-1.5-1.4-2.8-3.3-4c0,1.4,0,2.8,0,4.2c0.2,19.3,0.3,38.6,0.9,57.9c0.1,2.8,2.4,6,4.6,8.1c3.5,3.5,2,7.6,1.5,11.2
			c-0.2,1.4-4,3.1-6.2,3.2c-9.1,0.4-18.3,0-27.5,0.2c-4.6,0.1-6.8-1.6-6.6-6.4c0.2-3.8,0.1-6.9,3.8-9.9c2.4-1.9,3-6.9,3.1-10.5
			c0.4-12.1,0.2-24.3,0.2-36.5c0-32.3,0-64.6-0.1-97c0-5.5-0.4-10.5-5.6-14.7c-2-1.6-1.4-7.1-0.9-10.7c0.2-1.3,3.9-2.7,6-2.8
			c9.2-0.3,18.3-0.3,27.5,0c2.2,0.1,6,1.9,6.2,3.3c0.5,3.5,0.5,8.3-1.5,10.5c-2.8,3.1-4.8,5.9-4.8,9.9c-0.1,19.1,0,38.2,0,57.3
			C419.1,571.7,419.4,571.9,419.6,572.2z"/>
		<path class="st1" d="M266.9,490.3c2.4,16.2,4.8,31.6,7.1,47.1c5.7,37.9,11.3,75.7,17.1,113.6c0.8,5.3,1.8,10.4,6.9,14.4
			c1.9,1.5,1.2,7.2,0.5,10.7c-0.2,1.2-4,2.5-6.2,2.6c-9.7,0.3-19.3,0-29,0.2c-4.7,0.1-6.9-1.6-6.5-6.4c0.2-3.7-1-7.6,4.1-9.4
			c1.3-0.4,2.4-3.8,2.2-5.7c-0.7-10.6-1.6-21.2-2.8-31.8c-0.1-1.1-2.4-2.6-3.7-2.7c-5.8-0.3-11.7-0.3-17.5,0
			c-1.4,0.1-3.7,1.9-3.9,3.1c-1.3,9.5-2.5,19.1-3.2,28.7c-0.3,4.1,0.5,7.8,5.3,10.3c1.8,0.9,1.6,6.6,1.3,10
			c-0.1,1.4-2.8,3.5-4.4,3.6c-8.1,0.4-16.3,0.2-24.5,0.2c-3.2,0-4.9-1.7-4.8-5c0.1-4.1-0.5-7.8,3.8-11.3c3.1-2.5,4.3-8.1,5.2-12.6
			c6.9-34.8,13.4-69.6,20.1-104.4c3.2-16.8,6.6-33.6,9.5-50.5c0.7-3.9,2.4-4.8,5.9-4.7C255.1,490.4,260.7,490.3,266.9,490.3z
			 M249.8,548.2c-0.3,0-0.6,0-0.9,0c-3.1,17.4-6.2,34.8-9.4,52.6c6.3,0,11.8,0,17.8,0C254.7,583,252.2,565.6,249.8,548.2z"/>
		<path class="st1" d="M303.2,598.1c0-28.7,0.6-52.8,9-75.6c3-8.3,7.5-16.5,13.2-23.2c10.1-12.2,26.1-14,42.6-7.3
			c5.3,2.2,7.6,5,7.2,11c-0.6,9.6-0.1,19.3-0.2,29c0,5.7-1,6.9-6.6,6.8c-7.5-0.1-7.4,2-8.6-7.5c-0.6-4.9-1.7-9.9-3.7-14.4
			c-1.2-2.8-4.5-6.4-6.9-6.5c-2.9-0.1-7.3,2.6-8.5,5.3c-3.2,6.9-6.1,14.2-7.2,21.6c-4.9,33.6-5.3,67.3,0.6,100.9
			c1,5.5,3.1,10.9,5.7,15.8c1.3,2.4,4.9,4.4,7.8,5c3.9,0.8,6.7-2.3,7.8-5.7c1.9-6.3,3.4-12.8,4.6-19.3c1-5.9,0.7-5.9,9.4-5.7
			c4.8,0.1,5.8,2.7,5.7,6.8c-0.1,11.3-0.1,22.7,0,34c0,2.8-0.7,4.5-3.5,5.7c-9.8,4.1-19.7,7-30.5,5.6c-9.5-1.3-16.8-5.9-22.3-13.6
			c-7.8-10.9-10.9-23.5-12.6-36.4C304.5,618,303.9,605.7,303.2,598.1z"/>
		<path class="st0" d="M154.4,656.6c0-21.5,0-42.7,0-63.9c10.5-3.1,17.7,0.3,20.4,10.6c3.6,13.5,3.5,27.4,0.4,41
			C172.6,655.7,167.2,658.6,154.4,656.6z"/>
		<path class="st0" d="M154.5,512.3c13.4-1.9,19.1,1.5,20.5,14.3c1.1,9.9,0.8,20.3-0.8,30.2c-1.9,11.6-7.5,14.6-19.8,12.9
			C154.5,550.7,154.5,531.7,154.5,512.3z"/>
		<path class="st0" d="M249.8,548.2c2.5,17.4,5,34.8,7.5,52.6c-6,0-11.5,0-17.8,0c3.2-17.8,6.3-35.2,9.4-52.6
			C249.1,548.2,249.4,548.2,249.8,548.2z"/>
	</g>
</g>
</svg>
