<?xml version="1.0" encoding="utf-8"?>
<!-- Generator: Adobe Illustrator 19.2.0, SVG Export Plug-In . SVG Version: 6.00 Build 0)  -->
<svg version="1.1" id="Layer_1" xmlns="http://www.w3.org/2000/svg" xmlns:xlink="http://www.w3.org/1999/xlink" x="0px" y="0px"
	 viewBox="0 0 90 90" style="enable-background:new 0 0 90 90;" xml:space="preserve">
<style type="text/css">
	.st0{fill:#FFFFFF;}
	.st1{fill:none;stroke:#000000;stroke-miterlimit:10;}
	.st2{font-family:'MyriadPro-Regular';}
	.st3{font-size:9.5px;}
</style>
<g>
	<g>
		<path d="M82.8,49.2C53.2,82.7,26,67.7,6.7,48.6c0-26.2,0.2,5.8,0.2-20.4c25.7,0,50.8-15.6,76.5-15.6
			C83.3,38.9,82.8,23.1,82.8,49.2z M44.8,2.5c-10.6,0-21.1,0-31.7,0c-1.5,0-2.7,0.6-3.7,1.8C8.3,5.6,7.8,7.1,7.8,8.8
			c0,6.3,0,12.6,0,19c0,0.2,0.1,0.3,0.3,0.3c0.5,0,1,0.1,1.5,0.2c1.2,0.3,2.4,0.7,3.6,1c1,0.3,2,0.5,3,0.7c0.5,0.1,1,0.3,1.5,0.4
			c0.8,0.1,1.7,0.1,2.5,0.2c0.2,0,0.4,0,0.4-0.3c0-0.1,0-0.2,0-0.3c0.2-0.7,0.5-1.2,1.2-1.5c0.7-0.2,1.2,0.1,1.7,0.6
			c0.2,0.2,0.3,0.2,0.6,0.1c0.9-0.4,1.8,0.1,2.1,0.8c0.2,0.5,0.5,0.6,1,0.6c1.1-0.1,2.1-0.1,3.2-0.2c0.4,0,0.8-0.4,0.9-0.7
			c0.1-0.2,0.1-0.5,0.1-0.7c0.1-0.7,0.7-1,1.2-1.5c0.8-0.5,1.7-0.7,2.6-1.1c1.6-0.6,3.2-1.2,4.8-1.9c0.5-0.2,1-0.4,1.5-0.5
			c0.7-0.1,1.3-0.1,2-0.1s1.5,0,2.2,0.1c0.3,0,0.5,0.2,0.8,0.4c0.1,0.1,0.2,0.2,0.4,0.2c1,0.2,1.9,0.5,2.9,0.7s2,0.6,3.1,0.7
			c2.1,0.3,4.1,0.5,6.2,0.8c0.7,0.1,1.3,0.1,1.9-0.4c0.1-0.1,0.2-0.2,0.1-0.4c-0.1-0.3-0.3-0.6-0.4-0.9c-0.2-0.5-0.1-0.6,0.3-0.8
			c0.7-0.2,1.5-0.4,2.2-0.6c0.7-0.2,1.5,0,2.1-0.6c0,0,0.1,0,0.2,0c0.6-0.1,1.1-0.4,1.3-0.9c0.4-0.7,0.6-1.5,1-2.2
			c0.2-0.4,0.4-0.8,0.7-1.1c0.3-0.4,0.5-0.3,0.9-0.1c0.2,0.1,0.4,0.2,0.5,0.4c0.4,0.4,0.7,0.3,1.1,0.1c0.8-0.5,1.5-1.2,2.2-1.9
			c0.2-0.2,0.4-0.3,0.7-0.1c0.2,0.1,0.5,0.2,0.7,0.3c0.3,0.2,0.6,0.1,0.9-0.1c2-1.7,4.1-3.2,6.2-4.8c0-0.1,0-0.2,0-0.4
			c0-1.2,0-2.4,0-3.6c0-0.9-0.2-1.8-0.5-2.7c-0.9-2.4-2.7-3.6-5.2-3.6C65.7,2.5,55.3,2.5,44.8,2.5z M8,49c0,0.2,0,0.2,0,0.3
			c0,7.1,0,14,0,21c0,0.8,0.1,1.6,0.3,2.4c0.8,2.7,2.7,4,5.4,4c20.9,0,41.7,0,62.6,0c0.1,0,0.3,0,0.4,0c1,0,2-0.3,2.8-0.9
			c1.6-1.3,2.4-3.1,2.4-5.2c0-6.8,0-13.8,0-20.6c0-0.2-0.1-0.3-0.2-0.5c-1-0.8-2-1.7-3-2.5c-0.2-0.2-0.4-0.2-0.6,0
			c-0.4,0.5-0.9,1.1-1.3,1.7c-0.4,0.5-0.9,1-1.6,1.2c-0.2,0.1-0.5,0-0.6,0.4c0,0-0.1,0.1-0.2,0.1s-0.3,0-0.4,0.1
			c-0.3,0-0.5,0.1-0.5,0.4c-0.1,0.4-0.3,0.8-0.8,0.9c-0.1,0-0.1,0.1-0.2,0.1c-0.1,0.1-0.2,0.2-0.3,0.2c-0.3,0-0.6,0.3-0.6,0.6
			c0,0.5,0,1.1,0,1.7c0,0.1,0,0.2-0.1,0.3c-0.3,0.4-0.6,0.7-1,1c-0.2,0.2-0.5,0.4-0.8,0.4c-0.5,0.1-1,0-1.5,0
			c-0.4,0-0.7-0.1-1.1-0.1c-0.1,0-0.3,0-0.4,0.1c-0.1,0.2-0.2,0.4-0.2,0.6c0.1,0.6-0.2,1.1-0.5,1.7c-0.5,0.6-1.3,0.6-2,0.9
			c-0.3,0.1-0.6,0.1-0.8,0.2c-0.2,0.1-0.4,0.3-0.5,0.4c0,0.3-0.2,0.5-0.4,0.6c-0.3,0.2-0.6,0.5-0.8,0.7c-0.5,0.4-1,0.5-1.6,0.5
			c-0.2,0-0.4,0-0.6,0c-0.2,0-0.4-0.1-0.6-0.1c-0.2-0.1-0.2,0-0.3,0.2c-0.3,1.2-0.9,2.4-1.6,3.3c-0.2,0.3-0.4,0.5-0.8,0.5
			c-0.3,0-0.6,0.1-1,0.1c-1,0.3-1.9,0.1-2.6-0.7c-0.1-0.1-0.2-0.1-0.2-0.1c-0.4,0.2-0.7,0.4-1.1,0.6c-0.2,0.1-0.5,0.3-0.7,0.3
			c-0.7,0-1.4,0.1-2.1-0.1c-0.7-0.2-1.2-0.6-1.3-1.3l0,0c-0.1,0.2-0.2,0.4-0.3,0.6c-0.1,0.2-0.3,0.3-0.3,0.5c-0.4,0.8-1.1,1.2-2,1.2
			c-0.5,0-1,0-1.5,0c-0.1,0-0.2,0-0.2,0c-0.4-0.2-0.7-0.5-1-0.7c-0.1-0.1-0.2-0.4-0.3-0.5c-0.6-1-1.3-2-1.9-3
			c-0.2-0.4-0.3-0.4-0.6-0.1c-0.7,0.7-1.5,1-2.5,0.9c-0.6-0.1-1.2-0.1-1.8-0.1c-0.3,0-0.6-0.1-0.9-0.3c-0.6-0.3-0.9-0.9-1.2-1.5
			c-0.1-0.3-0.2-0.5-0.2-0.8c0-0.6,0.3-1.1-0.1-1.8v-0.1c0.1-0.2,0-0.3-0.2-0.4c-0.8-0.3-1.6-0.5-2.4-0.9c-2.2-1-4.4-2.2-6.4-3.6
			c-0.2-0.1-0.3-0.1-0.4,0c-0.3,0.3-0.6,0.5-0.9,0.7c-0.2,0.2-0.3,0.4-0.4,0.5c-0.1,0.2-0.1,0.4-0.2,0.6c-0.2,0.4-0.3,0.8-0.8,1
			c-0.7,0.3-1.4,0.1-2-0.3c-0.6-0.4-0.9-1.1-1.1-1.8c-0.3-1-0.4-2.1-0.4-3.1c0-0.2,0-0.3-0.3-0.4c-0.2-0.1-0.4-0.3-0.5-0.5
			c-0.1-0.3-0.3-0.4-0.6-0.4c-0.1,0-0.2-0.1-0.4-0.1c-1.1-0.3-2.2-0.6-3.3-0.8c-0.9-0.2-1.9-0.2-2.8-0.4C9,49.1,8.5,49,8,49z
			 M77.7,45.7c-0.1-0.1-0.1-0.1-0.1-0.2c-2.3-2.3-4.2-5-6.1-7.6c-0.9-1.2-1.7-2.6-2.4-3.9c-1-1.9-2.1-3.7-3.1-5.6
			c-0.3-0.4-0.5-0.8-0.8-1.3c-0.3-0.5-0.5-1.1-0.8-1.7c0-0.1-0.2-0.2-0.3-0.2c-0.5,0-0.9,0.1-1.4,0.2c-0.3,0.1-0.6,0.6-0.4,0.9
			c0.5,1.1,1.1,2.3,1.6,3.4c1.1,2.4,2.3,4.9,3.4,7.3c0.5,1,0.9,2.1,1.5,3.1c0.7,1.2,1.5,2.6,2.3,3.8c0.3,0.4,0.7,0.8,1,1.1
			c0.2,0.2,0.6,0.4,0.8,0.6c0.3,0.3,0.5,0.6,0.7,0.9c0.4,0.6,1.1,0.9,1.8,1.1c0.1,0,0.2,0,0.3-0.1C76.3,47.1,76.9,46.4,77.7,45.7z
			 M26.5,39.6c0.1,0.1,0.1,0.2,0.2,0.3c0.8,1,1.8,1.3,3,1c0.8-0.2,1.6-0.6,2.4-0.9c0.7-0.3,1.3-0.7,2-0.9c0.5-0.2,0.8-0.4,1.1-0.8
			c0.7-0.9,1.4-1.9,2.1-2.8c0.1-0.1,0.3-0.3,0.4-0.3c1,0,2-0.4,2.9-0.6c1.3-0.3,2.7-0.5,4-0.3c0.5,0.1,1.1,0.1,1.6,0.2
			c0-0.2,0.1-0.3,0.1-0.4s0-0.2,0-0.3c-0.5-0.7-0.9-1.3-1.4-2.1c-0.2-0.2-0.3-0.2-0.4,0c-0.1,0.2-0.3,0.4-0.5,0.5
			c-0.4,0.1-0.8,0.2-1.2,0.3c-1.7,0.1-3.4,0-5-0.3c-0.2,0-0.3-0.1-0.5-0.2c-0.2-0.1-0.4-0.3-0.6-0.5c0,0.1-0.1,0.2-0.1,0.3
			c-0.1,0.4-0.1,0.9-0.2,1.3c-0.1,0.7-0.2,1.5-0.4,2.2c0,0.1-0.1,0.2-0.1,0.3c-0.5,0.6-0.9,1.2-1.4,1.9c-0.1,0.1-0.2,0.2-0.3,0.2
			c-1.7,0.8-3.4,1.5-5.2,2.1c-0.3,0.1-0.6,0.2-0.9,0.1c-0.4,0-0.9-0.1-1.3-0.2C26.6,39.6,26.5,39.6,26.5,39.6z M66.7,42.1
			c-0.2,0-0.3,0-0.4,0c-0.4-0.1-0.7-0.1-1.1-0.2c-1.1-0.3-2-1-2.9-1.6c-1-0.6-2-1.2-3.2-1.5c-0.7-0.1-1.2-0.4-1.8-0.7
			c-1-0.5-2-1.1-3.1-1.5c-1.3-0.4-2.6-0.9-4-1.3c-1.1-0.4-2.3-0.7-3.4-1.1c-0.1,0-0.2,0-0.3,0.1c0.1,0.1,0.1,0.2,0.2,0.2
			c0.7,0.3,1.4,0.5,2.1,0.8c1.2,0.5,2.5,1.1,3.7,1.7c1.1,0.4,2.2,0.8,3.3,1.2c1.6,0.7,3.1,1.5,4.7,2.2c1.7,0.7,3.4,1.6,5.1,2.3
			c0.1,0,0.3,0.1,0.3,0C66.2,42.5,66.3,42.3,66.7,42.1z M47,64.1C47,64.1,47.2,64.1,47,64.1c0.3-0.4,0.6-0.7,0.7-1.2
			c0.1-0.6,0.1-1.2,0.2-1.8c0.1-0.6,0.5-1.2,1-1.6c0.8-0.5,1.7-0.8,2.6-0.7c0.4,0,0.7,0.1,0.9,0.4c0.2,0.2,0.4,0.4,0.6,0.6
			c0,0,0.1,0,0.1-0.1c0-0.1-0.1-0.2-0.1-0.3c-0.3-0.4-0.6-0.7-0.9-1.1c-0.2-0.3-0.4-0.3-0.7-0.3c-0.3,0.1-0.7,0.2-1,0.3
			c-0.4,0.1-0.7,0.2-1,0.3s-0.7,0.2-0.9,0.5c-0.4,0.4-0.9,0.7-1,1.3c-0.1,0.3-0.1,0.5-0.2,0.8c-0.1,0.2-0.1,0.4-0.2,0.5
			c-0.1,0.1-0.3,0-0.4,0c-0.1-0.2-0.1-0.4-0.2-0.6c-0.2-0.3-0.4-0.7-0.7-0.7c-0.8-0.2-1.6-0.4-2.4-0.5c-0.8-0.1-1.7-0.1-2.5,0.4
			c-0.2,0.1-0.5,0.6-0.5,0.9c0.2-0.1,0.3-0.2,0.4-0.4c0.4-0.4,0.9-0.5,1.4-0.4c0.8,0.1,1.6,0.2,2.3,0.3c0.7,0.1,1.5,0.3,1.9,1
			c0.2,0.3,0.3,0.7,0.4,1C47,63.1,47,63.6,47,64.1z M64.8,56.3v-0.1c-0.2,0-0.4,0-0.6,0c-1.2,0.1-2.3,0-3.5-0.1
			c-1.1-0.1-2.2-0.3-3.3-0.4c-1.4-0.2-2.9-0.3-4.3-0.7c-1.2-0.3-2.4-0.6-3.4-1.5c-0.1-0.1-0.3-0.1-0.4-0.2c-0.1,0-0.3,0.1-0.4,0.1
			c0.1,0.2,0,0.5,0.2,0.6c0.2,0.2,0.6,0.3,0.9,0.4c1,0.3,2,0.7,3,1c1.2,0.3,2.4,0.6,3.7,0.8c0.8,0.2,1.7,0.2,2.5,0.3
			c0.4,0,0.8,0.1,1.1,0.1c0.7,0,1.4,0,2.1-0.1c0.5,0,1.1-0.1,1.6-0.2C64.2,56.5,64.4,56.4,64.8,56.3z M63.5,50.2v-0.1
			c-0.1,0-0.1-0.1-0.2-0.1c-1.2-0.4-2.3-0.9-3.5-1.3c-1.6-0.6-3.2-1.2-4.9-1.9c-0.9-0.3-1.9-0.7-2.8-1c-0.1,0-0.2,0-0.3,0
			c0,0-0.1,0.2,0,0.2c0.2,0.2,0.3,0.4,0.5,0.6c0.9,0.6,1.8,1,2.9,1.3c0.8,0.2,1.5,0.4,2.3,0.6c1,0.3,1.9,0.6,2.9,0.8
			c0.8,0.2,1.6,0.5,2.4,0.7C63,50.2,63.3,50.2,63.5,50.2z M20.6,36.4c0-0.8-0.7-1.6-1.5-1.6c-0.9,0-1.6,0.7-1.6,1.6
			c0,0.8,0.7,1.6,1.6,1.6C20,37.9,20.6,37.2,20.6,36.4z M15.8,43.3c0,0.9,0.7,1.6,1.6,1.6s1.6-0.7,1.6-1.6c0-0.8-0.7-1.7-1.6-1.7
			C16.5,41.8,15.8,42.5,15.8,43.3z M19.6,39.9c0-0.8-0.7-1.6-1.6-1.7c-0.8,0-1.5,0.7-1.6,1.6c0,0.9,0.7,1.7,1.5,1.7
			C19,41.5,19.6,40.7,19.6,39.9z M22.4,33.2c0-0.9-0.7-1.6-1.6-1.6c-0.8,0-1.5,0.7-1.5,1.6s0.7,1.6,1.5,1.6
			C21.5,34.8,22.4,34.1,22.4,33.2z M22.5,29.2c-1,0-1.6,0.8-1.5,1.9c0,0.3,0.2,0.4,0.4,0.5c0.3,0.2,0.5,0.4,0.8,0.6
			c0.1,0.1,0.3,0.2,0.4,0.2c0.8,0,1.5-0.7,1.5-1.6C24,29.9,23.4,29.2,22.5,29.2z M15.7,46.3c0.1,0.7,0.4,1.3,1,1.6s1.3,0.1,1.7-0.4
			c0.4-0.5,0.5-1.1,0.3-1.8c-0.2-0.5-0.5-0.7-1.1-0.6c-0.3,0-0.5,0-0.8,0C16.4,45,16,45.2,16,45.5C16,45.7,15.9,46,15.7,46.3z
			 M17.5,48.1c-0.4-0.1-0.7,0-0.8,0.3c-0.3,0.6-0.2,1.5,0.3,2s1.4,0.6,2,0.2c0.5-0.3,0.7-0.8,0.7-1.5c0-0.6-0.4-1-0.9-1.3
			c-0.1-0.1-0.3,0-0.4,0C18,47.9,17.8,48,17.5,48.1z M18.3,54.9c0,0.8,0.5,1.5,1.3,1.7c0.7,0.1,1.5-0.2,1.7-0.9
			c0.3-0.7,0.1-1.5-0.5-2c-0.2-0.1-0.4-0.1-0.6,0C19.9,53.9,19.4,54,19,54c-0.5,0-0.7,0.1-0.8,0.6C18.4,54.7,18.4,54.8,18.3,54.9z
			 M42.2,64c0,0.6,0.3,1.2,0.9,1.6c0.2,0.1,0.6,0.1,0.8,0.1c0.7-0.3,1.4-0.7,2.1-1c0.1-0.1,0.2-0.1,0.3-0.2c0.1-0.2,0.1-0.3-0.1-0.4
			c-0.3-0.1-0.5-0.1-0.8-0.2c-0.9-0.2-1.8-0.5-2.6-0.7c-0.3-0.1-0.5,0-0.5,0.2C42.2,63.3,42.2,63.6,42.2,64z M17.6,52.3
			c0,0.1,0.1,0.4,0.2,0.6c0.2,0.4,0.5,0.6,0.8,0.7c0.3,0.1,0.5,0,0.7-0.2h0.1c0.5,0,0.7-0.5,1-0.8c0.4-0.4,0-1.5-0.4-1.8
			c-0.4-0.2-0.7-0.3-1.2-0.1C18,51.1,17.8,51.6,17.6,52.3z M50.3,63.5c0.4-0.1,0.8-0.1,1.2-0.2c0.7-0.2,1.3-0.4,1.5-1.1
			c0.1-0.2,0-0.3-0.2-0.3c-0.3,0-0.5,0-0.8-0.1c-0.7-0.1-1.2-0.4-1.6-1c-0.2-0.3-0.2-0.3-0.5-0.2c-0.2,0.1-0.3,0.3-0.4,0.4
			c-0.2,0.6,0,1.3,0.1,2C49.8,63.5,49.8,63.5,50.3,63.5z M73.3,50.2c0-0.8,0-0.8-0.7-0.6c-0.1,0-0.1,0-0.2,0
			c-0.2,0.1-0.5,0.1-0.7,0.2c-0.6,0.5-0.9,1.1-1,2c0,0.2,0.1,0.3,0.2,0.2c0.4,0,0.8,0,1.2-0.1c0.5-0.1,0.9-0.3,1.1-0.9
			C73.3,50.7,73.3,50.4,73.3,50.2z M55,59.7c0.1,0.1,0.1,0.2,0.1,0.2c0.2,0.2,0.4,0.4,0.7,0.5c0.2,0.1,0.5,0.3,0.8,0.3
			c2.1-0.2,4.2-0.6,6.2-1.2c0.1,0,0.1-0.1,0.2-0.1C60.3,60,57.7,59.6,55,59.7z M69.3,55.6c0.4,0,0.8,0,1.1-0.4
			c0.4-0.4,0.6-0.9,0.6-1.6c0-0.3,0-0.6-0.4-0.7c-0.2-0.1-0.8,0.1-0.9,0.3c-0.3,0.5-0.6,1.1-0.9,1.7l-0.1,0.1
			c-0.3,0-0.2,0.3-0.2,0.5c0,0.1,0.2,0.1,0.3,0.1C68.9,55.6,69.1,55.6,69.3,55.6z M54.5,61.6c0.4,0.4,0.8,0.8,1.2,1.2s0.7,1,0.8,1.7
			c0.1,0,0.1-0.1,0.1-0.1c0-0.6,0-1.2-0.1-1.9s-0.4-1.1-1-1.5c-0.3-0.2-0.6-0.4-0.9-0.6c-0.1,0.2-0.1,0.3-0.2,0.5l0,0
			C54.5,61.1,54.5,61.3,54.5,61.6z M39,61.3c0.7-0.5,0.7-1.5,0-1.8c-0.3-0.2-0.7-0.4-1.1-0.5c-0.7-0.2-1.4-0.6-2.2-0.5
			c-0.4,0.1-0.8,0.2-1.2,0.3c0,0-0.1,0.1-0.1,0.2c0.2,0,0.3,0,0.5,0c0.8,0.1,1.6,0.1,2.4,0.3c0.9,0.2,1.5,0.6,1.5,1.7
			C39,61.1,39,61.2,39,61.3z M36,62.7c0.6,0,1-0.1,1.3-0.3c0.1-0.1,0.1-0.3,0.2-0.4c-0.1,0-0.3-0.1-0.4-0.1c-1,0-2.1,0-3.1-0.5
			l-0.2,0.1c0,0.3,0.1,0.6,0.4,0.8C34.8,62.6,35.3,62.7,36,62.7z M52.8,64.5c0.6,0,1.2,0,1.8,0c0.3,0,0.6-0.3,0.6-0.6
			c0-0.1-0.1-0.3-0.2-0.3c-0.6-0.1-1.1-0.2-1.7-0.4c-0.2,0-0.3,0-0.2,0.2C53.3,63.6,53.2,64.1,52.8,64.5z M30.3,33.3
			c-1.2,1.1-2.4,2.3-3.6,3.4c0,0,0,0.1,0.1,0.1c0.2-0.1,0.4-0.1,0.5-0.2c1.1-0.7,2-1.6,2.8-2.6c0-0.1,0.1-0.1,0.1-0.2
			C30.3,33.7,30.3,33.5,30.3,33.3z M24.1,30c0.1,0.3,0.1,0.7,0.2,1c0,0.1,0.1,0.2,0.1,0.2c0.5,0.1,0.9,0.1,1.4,0.1
			c0.2,0,0.2-0.1,0.2-0.2c-0.1-0.2-0.2-0.4-0.3-0.6C25.3,29.7,24.9,29.6,24.1,30z M65.9,57.1c0,0,0-0.2-0.1-0.3c0,0-0.2,0-0.3,0.1
			c-0.5,0.3-0.9,0.8-1.2,1.3c-0.1,0.1-0.1,0.3,0,0.5c0,0.1,0.2,0.1,0.3,0.1C65.3,58.9,65.8,57.9,65.9,57.1z M22.9,53.7
			c-0.4-0.6-1.1-0.9-1.8-1.1c0,0.1-0.1,0.1,0,0.2c0.1,0.5,0.2,0.9,0.4,1.5c0,0.1,0.1,0.1,0.2,0.1C22,54.3,22.6,54.1,22.9,53.7z
			 M69.6,51.8c0,0.1,0,0.2,0.1,0.2c0.2,0.2,0.6,0.1,0.8,0.4c0,0,0.2,0,0.3-0.1c0,0,0-0.2-0.1-0.2C70.3,52,69.9,51.9,69.6,51.8z
			 M30.9,32l-0.1-0.1c-0.1,0.2-0.3,0.5-0.4,0.7c0,0,0.1,0,0.1,0.1C30.6,32.4,30.8,32.2,30.9,32z M65.8,56.3L65.8,56.3
			c-0.3,0-0.6,0-0.8,0l0,0C65.3,56.3,65.6,56.3,65.8,56.3z"/>
		<path class="st0" d="M44.8,2.5c10.4,0,20.8,0,31.2,0c2.5,0,4.2,1.2,5.2,3.6C81.6,6.9,84,7.5,83,8.7c-0.8,0.9,0.4,2.7,0.4,3.9
			c0,0.2-1.7,0.1-1.8,0.2c-2.1,1.6-4.1,3.2-6.2,4.8c-0.3,0.2-0.5,0.3-0.9,0.1c-0.2-0.1-0.5-0.2-0.7-0.3c-0.3-0.2-0.4-0.1-0.7,0.1
			c-0.7,0.7-1.4,1.5-2.2,1.9c-0.4,0.2-0.8,0.3-1.1-0.1c-0.1-0.1-0.3-0.3-0.5-0.4c-0.4-0.3-0.6-0.3-0.9,0.1c-0.3,0.3-0.5,0.7-0.7,1.1
			c-0.3,0.7-0.6,1.5-1,2.2c-0.3,0.5-0.7,0.9-1.3,0.9c-0.1,0-0.1,0-0.2,0c-0.6,0.6-1.4,0.4-2.1,0.6c-0.7,0.2-1.5,0.4-2.2,0.6
			c-0.5,0.2-0.5,0.3-0.3,0.8c0.1,0.3,0.2,0.6,0.4,0.9c0.1,0.2,0,0.3-0.1,0.4c-0.5,0.5-1.2,0.5-1.9,0.4c-2.1-0.3-4.1-0.5-6.2-0.8
			c-1-0.2-2.1-0.5-3.1-0.7s-1.9-0.5-2.9-0.7c-0.1,0-0.2-0.2-0.4-0.2c-0.3-0.1-0.5-0.3-0.8-0.4C44.9,24,44.1,24,43.4,24s-1.4,0-2,0.1
			c-0.5,0.1-1,0.3-1.5,0.5c-1.6,0.6-3.2,1.2-4.8,1.9c-0.9,0.3-1.8,0.5-2.6,1.1c-0.5,0.4-1.1,0.7-1.2,1.5c0,0.2-0.1,0.5-0.1,0.7
			c-0.1,0.3-0.5,0.7-0.9,0.7c-1.1,0.1-2.1,0.1-3.2,0.2c-0.5,0.1-0.8,0-1-0.6c-0.3-0.8-1.2-1.2-2.1-0.8c-0.2,0.1-0.4,0.1-0.6-0.1
			c-0.4-0.5-1-0.8-1.7-0.6c-0.7,0.2-1.1,0.7-1.2,1.5c0,0.1,0,0.2,0,0.3c0,0.2-0.1,0.3-0.4,0.3c-0.8-0.1-1.7-0.1-2.5-0.2
			c-0.5-0.1-1-0.2-1.5-0.4c-1-0.2-2-0.5-3-0.7c-1.2-0.3-2.4-0.7-3.6-1c-0.5-0.1-1-0.2-1.5-0.2c-0.2,0-0.3-0.1-0.3-0.3
			C7.7,21.5,7,15.7,7,9.4c0-1.8,1.2-3.9,2.3-5.2c1-1.1,2.2-1.8,3.7-1.8C23.8,2.5,34.3,2.5,44.8,2.5z"/>
		<path class="st0" d="M8,49c0.5,0.1,1,0.1,1.5,0.2c0.9,0.1,1.9,0.2,2.8,0.4c1.1,0.2,2.2,0.5,3.3,0.8c0.1,0,0.2,0.1,0.4,0.1
			c0.3,0.1,0.5,0.2,0.6,0.4c0.1,0.2,0.3,0.4,0.5,0.5c0.2,0.1,0.2,0.2,0.3,0.4c0,1,0.1,2.1,0.4,3.1c0.2,0.7,0.5,1.3,1.1,1.8
			c0.6,0.5,1.2,0.6,2,0.3c0.5-0.2,0.6-0.6,0.8-1c0.1-0.2,0.1-0.4,0.2-0.6c0.1-0.2,0.2-0.4,0.4-0.5c0.3-0.3,0.6-0.5,0.9-0.7
			c0.1-0.1,0.2-0.1,0.4,0c2,1.3,4.2,2.6,6.4,3.6c0.8,0.3,1.6,0.6,2.4,0.9c0.2,0.1,0.3,0.1,0.2,0.4v0.1c0.4,0.5,0,1.1,0.1,1.8
			c0,0.3,0.1,0.6,0.2,0.8c0.3,0.5,0.6,1.1,1.2,1.5c0.3,0.2,0.5,0.3,0.9,0.3c0.6,0,1.2,0,1.8,0.1c1,0.2,1.8-0.2,2.5-0.9
			c0.3-0.3,0.3-0.3,0.6,0.1c0.6,1,1.3,2,1.9,3c0.1,0.2,0.1,0.4,0.3,0.5c0.3,0.3,0.7,0.5,1,0.7c0.1,0,0.2,0,0.2,0c0.5,0,1,0,1.5,0
			c0.9,0,1.6-0.4,2-1.2c0.1-0.2,0.2-0.3,0.3-0.5c0.1-0.2,0.2-0.4,0.3-0.6l0,0c0.2,0.7,0.7,1.1,1.3,1.3c0.7,0.2,1.4,0.1,2.1,0.1
			c0.2,0,0.5-0.2,0.7-0.3c0.4-0.2,0.7-0.4,1.1-0.6c0.1,0,0.2,0,0.2,0.1c0.7,0.8,1.6,1,2.6,0.7c0.3-0.1,0.6-0.1,1-0.1
			s0.6-0.2,0.8-0.5c0.7-1,1.3-2.2,1.6-3.3c0-0.2,0.1-0.2,0.3-0.2c0.2,0.1,0.4,0.1,0.6,0.1c0.2,0,0.4,0,0.6,0c0.6,0,1.1-0.2,1.6-0.5
			c0.3-0.2,0.6-0.5,0.8-0.7s0.3-0.3,0.4-0.6c0-0.2,0.3-0.3,0.5-0.4c0.3-0.1,0.6-0.1,0.8-0.2c0.7-0.3,1.5-0.3,2-0.9
			c0.4-0.5,0.6-1,0.5-1.7c0-0.2,0.1-0.4,0.2-0.6c0-0.1,0.2-0.1,0.4-0.1c0.4,0,0.7,0.1,1.1,0.1c0.5,0,1,0.1,1.5,0
			c0.3,0,0.5-0.2,0.8-0.4c0.3-0.3,0.6-0.7,1-1c0.1-0.1,0.1-0.2,0.1-0.3c0-0.5,0-1.1,0-1.7c0-0.3,0.2-0.6,0.6-0.6
			c0.1,0,0.2-0.1,0.3-0.2c0.1,0,0.1-0.1,0.2-0.1c0.4-0.2,0.7-0.5,0.8-0.9c0.1-0.3,0.3-0.4,0.5-0.4c0.1,0,0.3,0,0.4-0.1
			c0.1,0,0.2-0.1,0.2-0.1c0.1-0.3,0.3-0.3,0.6-0.4c0.7-0.2,1.2-0.6,1.6-1.2c0.4-0.5,0.9-1.1,1.3-1.7c0.2-0.2,0.3-0.2,0.6,0
			c1,0.8,2,1.7,3,2.5c0.2,0.1,1.2,0.4,1.2,0.7c0,6.8-1,13.6-1,20.4c0,2.1-0.7,3.8-2.4,5.2C79,76.6,78,76.9,77,76.9
			c-0.1,0-0.3,0-0.4,0c-20.9,0-41.7,0-62.6,0c-2.7,0-5.9-2.2-6.7-4.9c-0.2-0.7,0.3-2.2,0.3-3c-0.4-7.2-0.9-12.8-0.9-19.8
			C6.8,49.2,8,49.1,8,49z"/>
		<path class="st0" d="M77.7,45.7c-0.7,0.6-1.4,1.3-2.1,2c-0.1,0.1-0.2,0.1-0.3,0.1c-0.7-0.2-1.4-0.4-1.8-1.1
			c-0.2-0.3-0.4-0.6-0.7-0.9c-0.2-0.2-0.6-0.4-0.8-0.6c-0.4-0.3-0.7-0.7-1-1.1c-0.8-1.2-1.6-2.5-2.3-3.8c-0.6-1-1-2.1-1.5-3.1
			c-1.1-2.4-2.3-4.9-3.4-7.3c-0.5-1.1-1.1-2.3-1.6-3.4c-0.1-0.3,0.1-0.8,0.4-0.9c0.5-0.1,0.9-0.2,1.4-0.2c0.1,0,0.3,0.1,0.3,0.2
			c0.3,0.5,0.5,1.1,0.8,1.7c0.2,0.4,0.5,0.9,0.8,1.3c1,1.9,2.1,3.7,3.1,5.6c0.7,1.3,1.6,2.7,2.4,3.9c1.9,2.7,3.8,5.3,6.1,7.6
			C77.6,45.6,77.7,45.7,77.7,45.7z"/>
		<path class="st0" d="M26.5,39.6c0.2,0,0.3,0,0.4,0c0.4,0.1,0.9,0.2,1.3,0.2c0.3,0,0.6-0.1,0.9-0.1c1.8-0.6,3.5-1.2,5.2-2.1
			c0.1-0.1,0.2-0.1,0.3-0.2c0.5-0.6,0.9-1.2,1.4-1.9c0.1-0.1,0.1-0.2,0.1-0.3c0.1-0.7,0.3-1.5,0.4-2.2c0.1-0.4,0.2-0.9,0.2-1.3
			c0-0.1,0-0.2,0.1-0.3c0.2,0.2,0.4,0.4,0.6,0.5c0.1,0.1,0.3,0.2,0.5,0.2c1.7,0.2,3.3,0.4,5,0.3c0.4,0,0.8-0.1,1.2-0.3
			c0.2-0.1,0.4-0.3,0.5-0.5c0.2-0.2,0.3-0.3,0.4,0c0.5,0.7,0.9,1.3,1.4,2.1c0.1,0.1,0,0.2,0,0.3c0,0.1-0.1,0.3-0.1,0.4
			c-0.5,0-1-0.1-1.6-0.2c-1.4-0.2-2.7,0-4,0.3c-1,0.2-1.9,0.5-2.9,0.6c-0.1,0-0.3,0.1-0.4,0.3c-0.7,0.9-1.4,1.9-2.1,2.8
			c-0.3,0.4-0.6,0.7-1.1,0.8c-0.7,0.2-1.4,0.6-2,0.9c-0.8,0.3-1.6,0.7-2.4,0.9c-1.3,0.3-2.3,0-3-1C26.5,39.8,26.5,39.8,26.5,39.6z"
			/>
		<path class="st0" d="M66.7,42.1c-0.3,0.2-0.5,0.4-0.7,0.6c-0.1,0-0.2,0-0.3,0c-1.7-0.7-3.4-1.6-5.1-2.3c-1.6-0.7-3.1-1.5-4.7-2.2
			c-1.1-0.4-2.2-0.8-3.3-1.2c-1.3-0.5-2.5-1.1-3.7-1.7c-0.7-0.3-1.4-0.6-2.1-0.8c-0.1,0-0.1-0.1-0.2-0.2c0.1,0,0.2-0.1,0.3-0.1
			c1.1,0.4,2.3,0.7,3.4,1.1c1.3,0.4,2.6,0.9,4,1.3c1.1,0.3,2.1,0.9,3.1,1.5c0.6,0.3,1.1,0.6,1.8,0.7c1.2,0.1,2.2,0.8,3.2,1.5
			c0.9,0.6,1.8,1.2,2.9,1.6c0.4,0.1,0.7,0.2,1.1,0.2C66.3,42,66.4,42,66.7,42.1z"/>
		<path class="st0" d="M47,64.1c-0.1-0.4-0.1-0.8-0.3-1.2c-0.1-0.4-0.2-0.7-0.4-1c-0.4-0.7-1.2-0.9-1.9-1c-0.8-0.1-1.5-0.2-2.3-0.3
			c-0.5-0.1-1,0-1.4,0.4c-0.1,0.1-0.3,0.2-0.4,0.4c0-0.3,0.3-0.8,0.5-0.9c0.8-0.6,1.6-0.5,2.5-0.4c0.8,0.1,1.6,0.3,2.4,0.5
			c0.3,0.1,0.5,0.5,0.7,0.7c0.1,0.2,0.1,0.4,0.2,0.6c0,0.1,0.3,0.1,0.4,0c0.1-0.1,0.2-0.3,0.2-0.5c0.1-0.3,0.1-0.5,0.2-0.8
			c0.2-0.6,0.6-0.9,1-1.3c0.2-0.2,0.6-0.3,0.9-0.5c0.3-0.1,0.7-0.2,1-0.3c0.3-0.1,0.7-0.2,1-0.3c0.3-0.1,0.5,0,0.7,0.3
			c0.3,0.4,0.6,0.7,0.9,1.1c0.1,0.1,0.1,0.2,0.1,0.3c0,0-0.1,0-0.1,0.1c-0.2-0.2-0.4-0.4-0.6-0.6c-0.2-0.3-0.5-0.4-0.9-0.4
			c-1,0-1.8,0.3-2.6,0.7c-0.6,0.3-0.9,0.8-1,1.6c-0.1,0.6-0.2,1.1-0.2,1.8C47.7,63.2,47.3,63.6,47,64.1C47.2,64.1,47,64.1,47,64.1z"
			/>
		<path class="st0" d="M64.8,56.3c-0.3,0.1-0.5,0.2-0.8,0.2c-0.5,0.1-1,0.1-1.6,0.2c-0.7,0-1.4,0.1-2.1,0.1c-0.4,0-0.8-0.1-1.1-0.1
			c-0.8-0.1-1.7-0.1-2.5-0.3c-1.2-0.2-2.4-0.5-3.7-0.8c-1-0.3-2-0.7-3-1c-0.3-0.1-0.6-0.2-0.9-0.4C49,54,49,53.7,48.8,53.5
			c0.1,0,0.3-0.1,0.4-0.1c0.2,0,0.3,0.1,0.4,0.2c1,0.7,2.2,1.1,3.4,1.5c1.4,0.4,2.9,0.5,4.3,0.7c1.1,0.1,2.2,0.3,3.3,0.4
			c1.2,0.1,2.3,0.2,3.5,0.1C64.3,56.3,64.6,56.3,64.8,56.3C64.8,56.2,64.8,56.3,64.8,56.3z"/>
		<path class="st0" d="M63.5,50.2c-0.2,0-0.5,0-0.7-0.1c-0.8-0.2-1.6-0.5-2.4-0.7c-1-0.3-1.9-0.6-2.9-0.8c-0.7-0.2-1.5-0.4-2.3-0.6
			c-1-0.3-2-0.6-2.9-1.3c-0.2-0.1-0.4-0.4-0.5-0.6c0-0.1,0-0.2,0-0.2s0.2,0,0.3,0c0.9,0.3,1.9,0.7,2.8,1c1.6,0.6,3.2,1.2,4.9,1.9
			c1.2,0.4,2.3,0.9,3.5,1.3c0.1,0,0.1,0.1,0.2,0.1C63.5,50.1,63.5,50.1,63.5,50.2z"/>
		<path class="st0" d="M20.6,36.4c0,0.8-0.7,1.6-1.6,1.6s-1.6-0.7-1.6-1.6c0-0.9,0.7-1.6,1.6-1.6C20,34.8,20.6,35.6,20.6,36.4z"/>
		<path class="st0" d="M15.8,43.3c0-0.8,0.7-1.6,1.6-1.6c0.8,0,1.6,0.7,1.6,1.7c0,0.8-0.7,1.6-1.6,1.6
			C16.5,44.9,15.8,44.3,15.8,43.3z"/>
		<path class="st0" d="M19.6,39.9c0,0.9-0.7,1.7-1.6,1.6c-0.9,0-1.5-0.8-1.5-1.7c0-0.8,0.8-1.6,1.6-1.6C19,38.2,19.6,39,19.6,39.9z"
			/>
		<path class="st0" d="M22.4,33.2c0,0.9-0.7,1.6-1.6,1.6c-0.8,0-1.6-0.7-1.5-1.6c0-0.8,0.7-1.6,1.5-1.6
			C21.6,31.6,22.4,32.3,22.4,33.2z"/>
		<path class="st0" d="M22.5,29.2c0.9,0,1.6,0.7,1.6,1.6s-0.7,1.6-1.5,1.6c-0.1,0-0.3-0.1-0.4-0.2c-0.3-0.2-0.5-0.4-0.8-0.6
			c-0.2-0.1-0.3-0.3-0.4-0.5C20.9,30.1,21.5,29.2,22.5,29.2z"/>
		<path class="st0" d="M15.7,46.3c0.1-0.3,0.2-0.6,0.4-0.9c0.2-0.3,0.4-0.5,0.8-0.4c0.2,0.1,0.5,0,0.8,0c0.6,0,0.8,0.1,1.1,0.6
			c0.3,0.6,0.2,1.2-0.3,1.8C18,48,17.4,48,16.8,47.8S15.8,47,15.7,46.3z"/>
		<path class="st0" d="M17.5,48.1c0.2-0.1,0.4-0.2,0.7-0.3c0.1,0,0.3-0.1,0.4,0c0.5,0.2,0.9,0.7,0.9,1.3c0,0.6-0.2,1.1-0.7,1.5
			c-0.6,0.4-1.4,0.4-2-0.2c-0.5-0.5-0.6-1.3-0.3-2C16.9,48.1,17.1,48,17.5,48.1z"/>
		<path class="st0" d="M18.3,54.9c0,0,0-0.2,0-0.3c0.1-0.5,0.3-0.7,0.8-0.6c0.4,0,0.7,0,1.1-0.3c0.2-0.1,0.4-0.1,0.6,0
			c0.6,0.4,0.8,1.2,0.5,2c-0.3,0.7-1,1-1.7,0.9C18.9,56.4,18.3,55.8,18.3,54.9z"/>
		<path class="st0" d="M42.2,64c0-0.3,0-0.6,0-0.8c0-0.2,0.3-0.3,0.5-0.2c0.9,0.2,1.8,0.5,2.6,0.7c0.3,0.1,0.5,0.1,0.8,0.2
			c0.2,0.1,0.3,0.2,0.1,0.4c-0.1,0.1-0.2,0.2-0.3,0.2c-0.7,0.4-1.4,0.7-2.1,1c-0.2,0.1-0.6,0.1-0.8-0.1C42.5,65.2,42.2,64.6,42.2,64
			z"/>
		<path class="st0" d="M17.6,52.3c0-0.8,0.3-1.3,1.2-1.7c0.4-0.1,0.8-0.1,1.2,0.1c0.5,0.3,0.8,1.3,0.4,1.8c-0.3,0.3-0.4,0.8-1,0.8
			h-0.1c-0.2,0.2-0.4,0.3-0.7,0.2c-0.4-0.1-0.7-0.4-0.8-0.7C17.8,52.8,17.8,52.6,17.6,52.3z"/>
		<path class="st0" d="M50.3,63.5c-0.5,0-0.5,0-0.6-0.5c-0.1-0.6-0.3-1.3-0.1-2c0.1-0.2,0.2-0.3,0.4-0.4c0.3-0.2,0.4-0.1,0.5,0.2
			c0.3,0.6,0.9,0.8,1.6,1c0.3,0,0.5,0.1,0.8,0.1c0.2,0,0.3,0.1,0.2,0.3c-0.2,0.7-0.9,1-1.5,1.1C51.2,63.4,50.8,63.4,50.3,63.5z"/>
		<path class="st0" d="M73.3,50.2c0,0.3,0,0.5-0.1,0.8c-0.1,0.5-0.5,0.8-1.1,0.9C71.7,52,71.3,52,70.9,52c-0.2,0-0.3-0.1-0.2-0.2
			c0-0.8,0.4-1.5,1-2c0.2-0.1,0.5-0.1,0.7-0.2c0.1,0,0.1,0,0.2,0C73.3,49.3,73.3,49.3,73.3,50.2z"/>
		<path class="st0" d="M55,59.7c2.7-0.1,5.3,0.3,8-0.3c-0.1,0.1-0.1,0.1-0.2,0.1c-2,0.5-4.1,1-6.2,1.2c-0.3,0-0.6-0.2-0.8-0.3
			s-0.4-0.3-0.7-0.5C55,59.9,55,59.8,55,59.7z"/>
		<path class="st0" d="M69.3,55.6c-0.2,0-0.3,0-0.4,0s-0.3-0.1-0.3-0.1c0-0.2-0.1-0.4,0.2-0.5l0.1-0.1c0.3-0.5,0.6-1.1,0.9-1.7
			c0.1-0.2,0.6-0.3,0.9-0.3C71,53,71,53.3,71,53.6c0,0.6-0.2,1.1-0.6,1.6C70.1,55.5,69.7,55.6,69.3,55.6z"/>
		<path class="st0" d="M54.5,61.6c0-0.2,0-0.4,0-0.6l0,0c0-0.2,0.1-0.3,0.2-0.5c0.3,0.2,0.6,0.4,0.9,0.6c0.6,0.3,0.9,0.8,1,1.5
			c0.1,0.6,0.1,1.2,0.1,1.9c0,0,0,0.1-0.1,0.1c-0.1-0.6-0.4-1.1-0.8-1.7C55.3,62.4,54.8,62,54.5,61.6z"/>
		<path class="st0" d="M39,61.3c0-0.1-0.1-0.2-0.1-0.3c-0.1-1-0.7-1.6-1.5-1.7c-0.8-0.2-1.6-0.2-2.4-0.3c-0.1,0-0.3,0-0.5,0
			c0-0.1,0.1-0.2,0.1-0.2c0.4-0.1,0.8-0.2,1.2-0.3c0.8-0.1,1.5,0.3,2.2,0.5c0.4,0.1,0.7,0.3,1.1,0.5C39.8,59.8,39.8,60.7,39,61.3z"
			/>
		<path class="st0" d="M36,62.7c-0.6,0-1.2-0.1-1.8-0.5c-0.3-0.2-0.5-0.4-0.4-0.8c0-0.1,0.2-0.1,0.2-0.1c1,0.5,2,0.5,3.1,0.5
			c0.1,0,0.3,0.1,0.4,0.1c-0.1,0.1-0.1,0.3-0.2,0.4C37,62.6,36.5,62.7,36,62.7z"/>
		<path class="st0" d="M52.8,64.5c0.3-0.4,0.4-0.7,0.3-1.1c0-0.2,0-0.3,0.2-0.2c0.6,0.1,1.1,0.2,1.7,0.4c0.1,0,0.2,0.2,0.2,0.3
			c0,0.4-0.3,0.6-0.6,0.6C54,64.5,53.5,64.5,52.8,64.5z"/>
		<path class="st0" d="M30.3,33.3c0,0.2,0,0.4-0.1,0.5c0,0.1-0.1,0.2-0.1,0.2c-0.8,1-1.7,1.9-2.8,2.6c-0.2,0.1-0.3,0.1-0.5,0.2
			c0,0,0-0.1-0.1-0.1C27.9,35.7,29,34.4,30.3,33.3z"/>
		<path class="st0" d="M24.1,30c0.7-0.3,1.1-0.2,1.5,0.4c0.1,0.2,0.2,0.4,0.3,0.6c0.1,0.2,0,0.3-0.2,0.2c-0.5,0-0.9-0.1-1.4-0.1
			c0,0-0.1-0.1-0.1-0.2C24.3,30.7,24.1,30.3,24.1,30z"/>
		<path class="st0" d="M65.9,57.1c-0.1,0.8-0.7,1.8-1.4,1.7c-0.1,0-0.3-0.1-0.3-0.1c0-0.2,0-0.4,0-0.5c0.3-0.5,0.7-0.9,1.2-1.3
			c0.1-0.1,0.3-0.1,0.3-0.1C65.9,57,65.9,57.1,65.9,57.1z"/>
		<path class="st0" d="M22.9,53.7c-0.1,0.3-0.8,0.6-1.2,0.6c-0.1,0-0.2-0.1-0.2-0.1c-0.1-0.5-0.3-0.9-0.4-1.5c0,0,0-0.1,0-0.2
			C21.8,52.8,22.4,53.1,22.9,53.7z"/>
		<path class="st0" d="M69.6,51.8c0.4,0.1,0.7,0.2,1.1,0.3l0.1,0.2c-0.1,0.1-0.3,0.1-0.3,0.1c-0.2-0.3-0.6-0.2-0.8-0.4
			C69.6,51.9,69.6,51.9,69.6,51.8z"/>
		<path class="st0" d="M30.9,32c-0.1,0.2-0.3,0.4-0.4,0.7c0,0-0.1,0-0.1-0.1c0.1-0.2,0.3-0.5,0.4-0.7C30.9,31.9,30.9,31.9,30.9,32z"
			/>
		<path class="st0" d="M65.8,56.3c-0.3,0-0.6,0-0.8,0l0,0C65.3,56.2,65.6,56.2,65.8,56.3L65.8,56.3z"/>
	</g>
</g>
<g>
	<g>
		<g>
			<path class="st1" d="M75.9,77H14.1C10.2,77,7,73.9,7,70V9.4c0-3.8,3.2-7,7.1-7h61.8c3.9,0,7.1,3.1,7.1,7V70
				C83,73.9,79.8,77,75.9,77z"/>
		</g>
		<text transform="matrix(1 0 0 1 13.6628 87.4604)" class="st2 st3">Basics of Politics</text>
	</g>
</g>
</svg>
