<?xml version="1.0" encoding="utf-8"?>
<!-- Generator: Adobe Illustrator 19.2.0, SVG Export Plug-In . SVG Version: 6.00 Build 0)  -->
<svg version="1.1" id="Chat_2_xA0_Image_1_" xmlns="http://www.w3.org/2000/svg" xmlns:xlink="http://www.w3.org/1999/xlink"
	 x="0px" y="0px" viewBox="0 0 864 720" style="enable-background:new 0 0 864 720;" xml:space="preserve">
<style type="text/css">
	.st0{display:none;fill:#CBCBFE;}
	.st1{fill:#020202;}
	.st2{fill:#FEFEFE;}
</style>
<g>
	<g>
		<path class="st0" d="M865,721c-288,0-576,0-864,0C1,481,1,241,1,1c288,0,576,0,864,0C865,241,865,481,865,721z M32.3,507.7
			c0.9,0.1,1.6,0.2,2.2,0.2c39.1,2.3,78.3,2.8,117.4,0.9c33.1-1.6,66.1-4.6,98.4-12.7c2.6-0.7,4.2-0.4,5.5,2.3
			c8.1,16.7,19.9,30.6,33.8,42.9c24.5,21.7,52.8,37,83.1,48.7c52.6,20.3,107.4,29.3,163.6,30.2c7.6,0.1,14.4,0.8,19.4,7.4
			c1.6,2,4.1,3.4,6.2,5c28.2,20.2,59.9,32.2,93.2,40.4c33.3,8.1,67.2,11.8,101.3,13.8c10.3,0.6,20.7,0.1,30.7,0.1
			c-0.9-0.5-2.4-1.2-3.7-2c-17.7-11.5-35.9-22.3-52.8-34.8c-9.4-7-17-16.8-24.6-25.9c-4.6-5.5-6.6-12.7-5.8-20.2
			c0.4-4.3,2.1-7,6.6-8.7c14.1-5.4,28.3-10.8,41.9-17.3c27.6-13.2,52.5-30.1,72.6-53.6c36.7-43,37.2-94.2,1.3-137.7
			c-17.4-21.1-39.3-36.8-63.1-49.8c-4.2-2.3-8.4-4.4-13-6.8c1.7-1.4,3-2.5,4.2-3.5c16.8-13.4,31.7-28.5,43.1-46.8
			c15.6-25,22.2-51.9,16.2-81.1c-5.4-26.5-19.5-48.2-38.1-67.2c-27.7-28.3-61.1-48-97.1-63.6C604.9,37.7,531.4,24.1,456,20.1
			c-64.5-3.5-128.5,0.8-191.8,13.9c-49.6,10.3-97.4,25.6-141.9,50.1c-30.6,16.8-58.5,37.2-79.5,65.6c-33,44.6-32.9,95,0.1,139.6
			c12.6,17,28,31.3,45,43.7c36,26.2,76.3,43.7,118.6,57c6.1,1.9,12.2,3.7,19,5.7C178.8,464.6,111.1,495.5,32.3,507.7z"/>
		<path class="st1" d="M32.3,507.7c78.9-12.2,146.5-43.2,193.2-112c-6.9-2.1-13-3.8-19-5.7c-42.2-13.3-82.5-30.8-118.6-57
			c-17.1-12.4-32.4-26.6-45-43.7c-33-44.6-33.1-95-0.1-139.6c21.1-28.4,48.9-48.8,79.5-65.6c44.5-24.5,92.4-39.8,141.9-50.1
			C327.5,20.9,391.5,16.6,456,20.1c75.5,4.1,148.9,17.6,218.7,47.8c36,15.6,69.4,35.3,97.1,63.6c18.6,19,32.7,40.8,38.1,67.2
			c6,29.2-0.7,56.1-16.2,81.1c-11.4,18.3-26.4,33.4-43.1,46.8c-1.3,1-2.5,2.1-4.2,3.5c4.6,2.4,8.8,4.6,13,6.8
			c23.9,13,45.7,28.7,63.1,49.8c35.9,43.5,35.4,94.8-1.3,137.7c-20.1,23.5-45,40.4-72.6,53.6c-13.6,6.5-27.8,11.9-41.9,17.3
			c-4.5,1.7-6.2,4.4-6.6,8.7c-0.8,7.5,1.2,14.6,5.8,20.2c7.6,9.2,15.2,18.9,24.6,25.9c16.9,12.6,35.1,23.3,52.8,34.8
			c1.3,0.9,2.8,1.5,3.7,2c-10,0-20.4,0.5-30.7-0.1c-34.1-2-68-5.7-101.3-13.8c-33.3-8.1-65.1-20.2-93.2-40.4c-2.2-1.6-4.6-2.9-6.2-5
			c-5-6.6-11.8-7.2-19.4-7.4c-56.2-0.9-111-9.9-163.6-30.2c-30.3-11.7-58.6-27-83.1-48.7c-13.8-12.3-25.6-26.2-33.8-42.9
			c-1.3-2.7-2.9-2.9-5.5-2.3c-32.3,8.1-65.3,11.1-98.4,12.7c-39.1,1.9-78.3,1.4-117.4-0.9C33.8,507.9,33.2,507.8,32.3,507.7z
			 M711.5,662.5c0.4,0,0.9,0.1,1.3,0.1c-0.2-0.3-0.4-0.5-0.7-0.8c-4-4-8-7.9-11.9-12c-8.3-9-15.4-18.8-18.7-30.8
			c-2.4-8.7-2.8-17.2,1.6-25.7c3.5-6.8,6.1-14,9.5-20.8c1-1.9,3.1-3.9,5.1-4.6c22.4-8.2,44.1-17.7,64.1-30.8
			c19.6-12.8,37.1-27.7,48.7-48.6c12.4-22.5,12.6-45.3-0.2-67.5c-4.7-8.3-10.7-16.1-17.3-23.1c-20.5-21.6-46-35.9-73.1-47.5
			c-1.7-0.7-4.5,0-6.3,1.1c-22.2,12.6-45.3,23-69.3,31.5c-80.6,28.4-164,38.3-249,36.8c-2.8,0-6.2,1.1-8.4,2.9
			c-23.3,19-47.8,36-74.7,49.6c-9.8,4.9-19.8,9.4-29.9,14.1c7.5,14.6,18.4,26.3,30.8,36.7c22.5,18.7,48.2,31.8,75.6,41.8
			c47.8,17.6,97.4,25.3,148.2,26.1c4.2,0.1,7.6,1,10.9,3.8c6.6,5.4,13.4,10.4,20.2,15.5c8,6,15.4,12.9,24.1,17.7
			C629.2,648.5,669.8,657.8,711.5,662.5z M155.9,487.9c0.6,0.2,1.2,0.7,1.7,0.7c23.8-2.7,47.8-4.5,71.4-8.3
			c38-6.1,72.1-22.5,104.2-43.3c22.8-14.7,45.4-29.6,68.2-44.2c2-1.3,4.6-2.1,6.9-2.1c46.4,0.1,92.5-3.3,138.2-11.8
			c48.8-9.1,96-23,140.1-46.1c28.1-14.6,54-32.3,74.2-57.2c25.9-32.1,28.9-66.8,8.8-99.9c-10-16.5-23.4-29.8-38.5-41.5
			c-34.5-26.8-73.8-44.1-115.1-57.1c-57.5-18.2-116.7-26.6-176.9-28.4c-70.5-2.2-140,4.4-208.1,23.4c-43,11.9-84.1,28.4-121,54
			c-21.3,14.7-40.2,31.9-52.7,55.1c-9,16.8-12.6,34.6-8.5,53.5c4,18.6,13.6,34.2,26.3,48c24.2,26.6,54.5,44.5,86.7,59.3
			c23.1,10.6,47.2,18.9,71.7,25.6c2.3,0.6,4.3,0.9,4.5,4.2c0.7,9.8,1.7,19.6,2.9,29.3c0.5,4.4-0.5,7.9-3.1,11.6
			c-20.7,29.9-47,53.8-78.2,72.5c-1.3,0.8-2.5,1.9-3.8,2.9c-0.3,0.1-0.5,0.2-0.8,0.3c0.2,0.1,0.4,0.2,0.6,0.3
			C155.9,488.4,155.9,488.2,155.9,487.9z"/>
		<path class="st2" d="M156,488c1.2-1,2.4-2.1,3.8-2.9c31.1-18.7,57.4-42.5,78.1-72.5c2.5-3.6,3.6-7.2,3.1-11.6
			c-1.2-9.8-2.2-19.5-2.9-29.3c-0.2-3.3-2.2-3.6-4.5-4.2c-24.5-6.7-48.6-15-71.7-25.6c-32.3-14.8-62.5-32.8-86.7-59.3
			c-12.6-13.8-22.3-29.3-26.3-48c-4-19-0.5-36.8,8.5-53.5c12.4-23.2,31.4-40.3,52.7-55.1c36.9-25.6,78-42,121-54
			c68.1-18.9,137.6-25.5,208.1-23.4c60.2,1.9,119.3,10.3,176.9,28.4c41.3,13,80.6,30.3,115.1,57.1c15.1,11.7,28.5,25.1,38.5,41.5
			c20.1,33.1,17.1,67.9-8.8,99.9c-20.2,25-46.1,42.6-74.2,57.2c-44.2,23-91.4,37-140.1,46.1c-45.7,8.5-91.8,11.9-138.2,11.8
			c-2.3,0-5,0.8-6.9,2.1c-22.8,14.7-45.4,29.5-68.2,44.2c-32.1,20.7-66.2,37.1-104.3,43.3c-23.6,3.8-47.6,5.6-71.4,8.3
			c-0.5,0.1-1.1-0.4-1.7-0.7L156,488z"/>
		<path class="st2" d="M711.5,662.5c-41.8-4.8-82.3-14-119.4-34.6c-8.6-4.8-16.1-11.7-24.1-17.7c-6.8-5.1-13.7-10.1-20.2-15.5
			c-3.3-2.7-6.7-3.7-10.9-3.8c-50.8-0.8-100.4-8.5-148.2-26.1c-27.3-10.1-53-23.1-75.6-41.8c-12.5-10.4-23.4-22.1-30.8-36.7
			c10.1-4.8,20.2-9.2,29.9-14.1c26.8-13.6,51.4-30.6,74.7-49.6c2.2-1.8,5.6-2.9,8.4-2.9c85.1,1.5,168.4-8.4,249-36.8
			c24-8.5,47.2-18.9,69.3-31.5c1.8-1,4.6-1.8,6.3-1.1c27.1,11.6,52.6,25.8,73.1,47.5c6.6,6.9,12.6,14.8,17.3,23.1
			c12.7,22.3,12.6,45.1,0.2,67.5c-11.5,20.8-29.1,35.7-48.7,48.6c-20,13.1-41.7,22.6-64.1,30.8c-2,0.7-4.1,2.7-5.1,4.6
			c-3.4,6.8-6,14-9.5,20.8c-4.4,8.4-3.9,17-1.6,25.7c3.3,12,10.4,21.9,18.7,30.8c3.8,4.1,7.9,8,11.9,12
			C711.9,662.1,711.7,662.3,711.5,662.5z"/>
		<path class="st2" d="M155.9,487.9c0,0.2,0,0.5-0.1,0.7c-0.2-0.1-0.4-0.2-0.6-0.3c0.3-0.1,0.5-0.2,0.8-0.3L155.9,487.9z"/>
		<path class="st2" d="M712.2,661.8c0.2,0.3,0.4,0.5,0.7,0.8c-0.4,0-0.9-0.1-1.3-0.1C711.7,662.3,711.9,662.1,712.2,661.8z"/>
	</g>
</g>
</svg>
