<?xml version="1.0" encoding="utf-8"?>
<!-- Generator: Adobe Illustrator 16.0.3, SVG Export Plug-In . SVG Version: 6.00 Build 0)  -->
<!DOCTYPE svg PUBLIC "-//W3C//DTD SVG 1.1//EN" "http://www.w3.org/Graphics/SVG/1.1/DTD/svg11.dtd">
<svg version="1.1" id="Chat_2_xA0_Image_1_" xmlns="http://www.w3.org/2000/svg" xmlns:xlink="http://www.w3.org/1999/xlink"
	 x="0px" y="0px" width="864px" height="720px" viewBox="0 0 864 720" enable-background="new 0 0 864 720" xml:space="preserve">
<g>
	<g>
		<path fill-rule="evenodd" clip-rule="evenodd" fill="#CBCBFE" d="M865,721c-288,0-576,0-864,0C1,481,1,241,1,1c288,0,576,0,864,0
			C865,241,865,481,865,721z M32.258,507.743c0.906,0.095,1.555,0.19,2.208,0.229c39.121,2.294,78.265,2.847,117.411,0.938
			c33.125-1.615,66.105-4.606,98.405-12.688c2.623-0.656,4.158-0.443,5.483,2.285c8.129,16.731,19.936,30.637,33.756,42.898
			c24.469,21.71,52.776,36.959,83.084,48.663c52.605,20.313,107.37,29.269,163.556,30.19c7.595,0.125,14.37,0.776,19.396,7.361
			c1.564,2.05,4.051,3.434,6.213,4.984c28.15,20.192,59.863,32.241,93.21,40.385c33.27,8.124,67.191,11.815,101.298,13.822
			c10.325,0.607,20.717,0.095,30.677,0.095c-0.888-0.482-2.36-1.157-3.704-2.029c-17.695-11.495-35.943-22.25-52.828-34.834
			c-9.426-7.025-16.976-16.77-24.609-25.923c-4.628-5.55-6.557-12.651-5.802-20.156c0.431-4.274,2.089-6.957,6.618-8.674
			c14.12-5.353,28.273-10.773,41.889-17.271c27.576-13.16,52.526-30.12,72.584-53.586c36.718-42.956,37.237-94.182,1.319-137.725
			c-17.444-21.146-39.282-36.771-63.143-49.802c-4.153-2.268-8.374-4.413-12.977-6.831c1.709-1.408,2.952-2.457,4.221-3.473
			c16.751-13.421,31.714-28.509,43.123-46.826c15.561-24.982,22.213-51.87,16.237-81.108c-5.41-26.47-19.525-48.21-38.119-67.225
			c-27.68-28.308-61.123-47.974-97.123-63.561C604.889,37.681,531.417,24.139,455.96,20.081
			c-64.498-3.47-128.504,0.793-191.812,13.938c-49.553,10.288-97.395,25.585-141.92,50.088
			c-30.604,16.843-58.457,37.173-79.517,65.61c-33.021,44.591-32.933,95.012,0.101,139.571
			c12.622,17.026,27.971,31.251,45.039,43.663c36.044,26.214,76.325,43.667,118.568,57.008c6.063,1.915,12.173,3.681,19.034,5.748
			C178.76,464.562,111.13,495.538,32.258,507.743z"/>
		<path fill-rule="evenodd" clip-rule="evenodd" fill="#020202" d="M32.258,507.743c78.872-12.205,146.502-43.182,193.195-112.036
			c-6.861-2.067-12.972-3.833-19.034-5.748c-42.243-13.341-82.524-30.794-118.568-57.008
			c-17.068-12.412-32.417-26.637-45.039-43.663c-33.034-44.56-33.123-94.98-0.101-139.571c21.06-28.438,48.913-48.768,79.517-65.61
			c44.525-24.503,92.368-39.8,141.92-50.088c63.308-13.145,127.314-17.407,191.812-13.938c75.457,4.058,148.929,17.6,218.681,47.802
			c36,15.587,69.443,35.253,97.123,63.561c18.594,19.015,32.709,40.755,38.119,67.225c5.976,29.238-0.677,56.126-16.237,81.108
			c-11.409,18.317-26.372,33.405-43.123,46.826c-1.269,1.016-2.512,2.064-4.221,3.473c4.603,2.418,8.823,4.563,12.977,6.831
			c23.86,13.03,45.698,28.655,63.143,49.802c35.918,43.543,35.398,94.769-1.319,137.725c-20.058,23.466-45.008,40.426-72.584,53.586
			c-13.615,6.498-27.769,11.919-41.889,17.271c-4.529,1.717-6.188,4.399-6.618,8.674c-0.755,7.505,1.174,14.606,5.802,20.156
			c7.634,9.153,15.184,18.897,24.609,25.923c16.885,12.584,35.133,23.339,52.828,34.834c1.344,0.872,2.816,1.547,3.704,2.029
			c-9.96,0-20.352,0.513-30.677-0.095c-34.106-2.007-68.028-5.698-101.298-13.822c-33.347-8.144-65.06-20.192-93.21-40.385
			c-2.162-1.551-4.648-2.935-6.213-4.984c-5.025-6.585-11.801-7.236-19.396-7.361c-56.186-0.922-110.95-9.877-163.556-30.19
			c-30.308-11.704-58.615-26.953-83.084-48.663c-13.82-12.262-25.626-26.167-33.756-42.898c-1.326-2.729-2.861-2.941-5.483-2.285
			c-32.3,8.081-65.28,11.072-98.405,12.688c-39.146,1.909-78.29,1.356-117.411-0.938C33.813,507.934,33.164,507.838,32.258,507.743z
			 M711.526,662.533c0.43,0.037,0.859,0.074,1.289,0.111c-0.221-0.266-0.441-0.531-0.661-0.797
			c-3.958-4.005-8.024-7.909-11.852-12.036c-8.337-8.989-15.421-18.807-18.705-30.846c-2.37-8.688-2.795-17.229,1.577-25.672
			c3.506-6.772,6.132-13.998,9.55-20.821c0.966-1.93,3.087-3.854,5.111-4.592c22.388-8.16,44.106-17.669,64.094-30.797
			c19.554-12.842,37.13-27.74,48.653-48.562c12.428-22.456,12.574-45.258-0.16-67.515c-4.744-8.291-10.729-16.123-17.308-23.067
			c-20.5-21.644-46.021-35.896-73.14-47.472c-1.668-0.712-4.514,0.049-6.282,1.055c-22.162,12.602-45.322,23.001-69.34,31.465
			c-80.621,28.413-163.989,38.255-249.044,36.783c-2.812-0.049-6.225,1.116-8.398,2.891c-23.274,19-47.833,36.044-74.664,49.649
			c-9.759,4.948-19.788,9.366-29.933,14.139c7.483,14.591,18.359,26.349,30.839,36.726c22.522,18.726,48.247,31.753,75.56,41.804
			c47.821,17.599,97.421,25.312,148.209,26.065c4.215,0.063,7.6,1.04,10.904,3.75c6.563,5.381,13.437,10.385,20.229,15.481
			c7.968,5.979,15.441,12.868,24.074,17.661C629.225,648.536,669.761,657.772,711.526,662.533z M155.906,487.928
			c0.573,0.235,1.174,0.728,1.713,0.667c23.809-2.67,47.755-4.503,71.384-8.305c38.033-6.12,72.121-22.538,104.25-43.251
			c22.768-14.677,45.397-29.567,68.178-44.224c1.964-1.264,4.601-2.101,6.923-2.095c46.412,0.115,92.521-3.298,138.187-11.786
			c48.763-9.064,95.962-23.038,140.122-46.062c28.099-14.649,54.031-32.26,74.186-57.246c25.854-32.052,28.899-66.823,8.759-99.922
			c-10.012-16.452-23.442-29.809-38.54-41.528C696.574,107.4,657.299,90.108,616.01,77.079
			c-57.533-18.154-116.68-26.561-176.864-28.414c-70.499-2.172-140.024,4.438-208.126,23.367
			c-42.983,11.947-84.055,28.39-120.969,53.964c-21.283,14.745-40.237,31.89-52.683,55.072
			c-9.009,16.782-12.568,34.561-8.524,53.538c3.973,18.644,13.641,34.164,26.258,47.992c24.239,26.565,54.471,44.489,86.745,59.323
			c23.143,10.637,47.165,18.887,71.711,25.633c2.269,0.623,4.258,0.903,4.497,4.189c0.714,9.795,1.73,19.576,2.916,29.327
			c0.535,4.401-0.525,7.94-3.053,11.591c-20.724,29.929-47.004,53.807-78.15,72.474c-1.343,0.805-2.504,1.913-3.75,2.88
			c-0.258,0.113-0.517,0.226-0.776,0.339c0.201,0.09,0.401,0.18,0.603,0.27C155.864,488.392,155.885,488.16,155.906,487.928z"/>
		<path fill-rule="evenodd" clip-rule="evenodd" fill="#FEFEFE" d="M156.017,488.016c1.246-0.967,2.407-2.075,3.75-2.88
			c31.146-18.667,57.426-42.545,78.15-72.474c2.528-3.65,3.588-7.189,3.053-11.591c-1.186-9.751-2.202-19.532-2.916-29.327
			c-0.239-3.286-2.229-3.566-4.497-4.189c-24.546-6.746-48.568-14.996-71.711-25.633c-32.274-14.834-62.506-32.758-86.745-59.323
			c-12.617-13.828-22.285-29.349-26.258-47.992c-4.044-18.978-0.485-36.756,8.524-53.538c12.445-23.183,31.4-40.327,52.683-55.072
			c36.914-25.574,77.986-42.017,120.969-53.964c68.102-18.929,137.627-25.539,208.126-23.367
			c60.185,1.854,119.331,10.26,176.864,28.414c41.289,13.029,80.564,30.321,115.057,57.098c15.098,11.72,28.528,25.076,38.54,41.528
			c20.141,33.099,17.096,67.87-8.759,99.922c-20.154,24.986-46.087,42.597-74.186,57.246
			c-44.16,23.023-91.359,36.997-140.122,46.062c-45.665,8.488-91.774,11.901-138.187,11.786c-2.322-0.006-4.959,0.831-6.923,2.095
			c-22.78,14.656-45.41,29.547-68.178,44.224c-32.129,20.713-66.216,37.131-104.25,43.251c-23.629,3.802-47.575,5.635-71.384,8.305
			c-0.54,0.061-1.141-0.432-1.713-0.667L156.017,488.016z"/>
		<path fill-rule="evenodd" clip-rule="evenodd" fill="#FEFEFE" d="M711.525,662.536c-41.765-4.764-82.301-14-119.396-34.599
			c-8.633-4.793-16.106-11.683-24.074-17.661c-6.792-5.097-13.666-10.101-20.229-15.481c-3.305-2.71-6.689-3.688-10.904-3.75
			c-50.788-0.754-100.388-8.467-148.209-26.065c-27.313-10.051-53.037-23.078-75.56-41.804
			c-12.48-10.377-23.355-22.135-30.839-36.726c10.145-4.772,20.173-9.19,29.933-14.139c26.831-13.605,51.39-30.649,74.664-49.649
			c2.174-1.774,5.587-2.939,8.398-2.891c85.055,1.472,168.423-8.37,249.044-36.783c24.018-8.464,47.178-18.863,69.34-31.465
			c1.769-1.006,4.614-1.767,6.282-1.055c27.118,11.576,52.64,25.828,73.14,47.472c6.578,6.944,12.563,14.776,17.308,23.067
			c12.734,22.257,12.588,45.059,0.16,67.515c-11.523,20.821-29.1,35.72-48.653,48.562c-19.987,13.128-41.706,22.637-64.094,30.797
			c-2.024,0.738-4.146,2.662-5.111,4.592c-3.418,6.823-6.044,14.049-9.55,20.821c-4.372,8.443-3.947,16.983-1.577,25.672
			c3.284,12.039,10.368,21.856,18.705,30.846c3.827,4.127,7.894,8.031,11.852,12.036
			C711.931,662.065,711.721,662.295,711.525,662.536z"/>
		<path fill-rule="evenodd" clip-rule="evenodd" fill="#FEFEFE" d="M155.906,487.928c-0.021,0.232-0.042,0.464-0.063,0.696
			c-0.201-0.09-0.402-0.18-0.603-0.27c0.259-0.113,0.518-0.226,0.776-0.339L155.906,487.928z"/>
		<path fill-rule="evenodd" clip-rule="evenodd" fill="#FEFEFE" d="M712.154,661.848c0.22,0.266,0.44,0.531,0.661,0.797
			c-0.43-0.037-0.859-0.074-1.289-0.11C711.721,662.295,711.931,662.065,712.154,661.848z"/>
	</g>
</g>
</svg>
