<?xml version="1.0" encoding="utf-8"?>
<!-- Generator: Adobe Illustrator 19.1.1, SVG Export Plug-In . SVG Version: 6.00 Build 0)  -->
<svg version="1.1" id="Layer_1" xmlns="http://www.w3.org/2000/svg" xmlns:xlink="http://www.w3.org/1999/xlink" x="0px" y="0px"
	 viewBox="0 0 90 90" style="enable-background:new 0 0 90 90;" xml:space="preserve">
<style type="text/css">
	.st0{fill:#FFFFFF;stroke:#000000;stroke-miterlimit:10;}
	.st1{font-family:'MyriadPro-Regular';}
	.st2{font-size:9.5px;}
</style>
<g>
	<g>
		<path class="st0" d="M75.9,77H14c-3.9,0-7.1-3.2-7.1-7.1V8.1C6.9,4.2,10.1,1,14,1h61.8c3.9,0,7.1,3.2,7.1,7.1V70
			C82.9,73.9,79.8,77,75.9,77z"/>
		<path d="M31.3,67.6c5.9,0,11.9,0,17.8,0c1,0,1.4-0.4,1.3-1.4c0-3-1.9-4.9-4.9-5c-0.8,0-1.3-0.2-1.7-0.9c-0.6-1.1-1.6-1.6-2.8-1.6
			c-6.4,0-12.9,0-19.3,0c-1.2,0-2.1,0.5-2.7,1.5c-0.5,0.8-1.1,1-2,1c-2.6,0-4.6,2-4.7,4.7c-0.1,1.5,0.1,1.6,1.5,1.6
			C19.6,67.6,25.4,67.6,31.3,67.6z M46.4,31.9c0.1-0.7-0.2-1-0.6-1.2c-3.2-2.3-6.3-4.7-9.5-7c-0.8-0.6-1.4-0.5-2,0.3
			c-3.2,4.3-5.2,7-8.3,11.3c-0.7,1-0.7,1.3,0.3,2c3.1,2.3,6.2,4.6,9.3,6.9c0.9,0.7,1.3,0.6,2-0.3c3.2-4.3,5.2-7,8.3-11.3
			C46.2,32.3,46.3,32.1,46.4,31.9z M45.3,36.7c-0.5-0.1-0.7,0.3-0.9,0.5c-1,1.3-2,2.7-3,4c-0.5,0.6-0.3,1,0.3,1.5
			c1.3,0.9,2.5,1.8,3.8,2.8c8,5.9,16,11.9,24,17.8c0.6,0.5,1,0.5,1.5-0.2c0.8-1.2,1.7-2.3,2.6-3.5c0.9-1.3,1-1.3-0.4-2.3
			C64.1,50.6,55,43.9,46,37.1C45.8,37,45.5,36.8,45.3,36.7z M51.4,28.8c0.1-0.6-0.1-1.1-0.7-1.5c-4.1-3.1-8.3-6.1-12.4-9.2
			c-0.7-0.6-1.5-0.4-2.2,0c-1.5,1-1.5,2.7-0.1,3.8c3.9,2.9,7.8,5.8,11.7,8.6C49.3,31.7,51,30.9,51.4,28.8z M37.1,48
			c0.1-0.6-0.1-1.1-0.6-1.5c-4.2-3.1-8.4-6.2-12.6-9.3c-0.6-0.5-1.3-0.4-1.9,0c-1.6,1-1.7,2.8-0.2,3.9c3.9,2.9,7.7,5.7,11.6,8.6
			C34.9,50.8,36.7,50.1,37.1,48z"/>
		<path d="M77,61.3l-3.2,4.3c-0.5,0.6-1.3,0.7-1.9,0.3l0,0c-0.6-0.5-0.7-1.3-0.3-1.9l3.2-4.3c0.5-0.6,1.3-0.7,1.9-0.3h0
			C77.4,59.9,77.5,60.7,77,61.3z"/>
	</g>
	<text transform="matrix(1 0 0 1 6.8838 87.5)" class="st1 st2">Crime/Punishment</text>
</g>
</svg>
