<?xml version="1.0" encoding="utf-8"?>
<!-- Generator: Adobe Illustrator 19.2.0, SVG Export Plug-In . SVG Version: 6.00 Build 0)  -->
<svg version="1.1" id="Donate2_xA0_Image_1_" xmlns="http://www.w3.org/2000/svg" xmlns:xlink="http://www.w3.org/1999/xlink"
	 x="0px" y="0px" viewBox="0 0 1200 1512" style="enable-background:new 0 0 1200 1512;" xml:space="preserve">
<style type="text/css">
	.st0{fill:#FDFDFD;}
	.st1{fill:#FEFE00;}
</style>
<g>
	<g>
		<path d="M1201,313c0,400,0,800,0,1200c-400,0-800,0-1200,0C1,1009,1,505,1,1c399.7,0,799.3,0,1199,0c0,102.2,0,204.4,0,306.6
			C1200,309.4,1200.7,311.2,1201,313z M523.7,394.9c-8,0.7-15.3,1.4-22.7,2.1c-0.5,0-1.4,0-1.4,0.2c-1,4.3-4.4,2.4-6.9,2.8
			c-1.6,0.3-3.9-0.5-4.9,0.3c-4.6,4-10.6,0.7-15.9,4.3c-4.7,3.2-12.2,1.4-17.9,5.2c-2.7,1.8-6.9,1.5-10.3,2.3
			c-4.4,1-8.7,2.1-13.1,3.2c-2.7,0.7-5.5,1-8,2.1c-5.8,2.4-11.3,5.3-17.1,7.7c-4,1.7-8.2,2-12.3,4.5c-3.9,2.4-9.3,2.9-13.8,5.4
			c-4.4,2.5-9.6,3.5-14.2,5.8c-5.8,2.8-11.3,6.4-17.1,9.3c-7.2,3.6-14.5,7-21.8,10.4c-1.5,0.7-3.8,0.8-4.4,1.8
			c-2.6,4.7-8.1,4.7-11.7,7.7c-4.6,3.7-10.1,6.2-14.9,9.8c-5.2,3.9-11.1,6.9-16.7,10.4c-1.4,0.9-2.7,2.1-4.1,3.1
			c-3.1,2.3-6.1,4.7-9.3,7c-5.7,4.1-11.7,7.8-17,12.3c-7.2,6.1-13.8,12.9-20.8,19.1c-4.3,3.8-9.1,7-13.3,11
			c-4.4,4.2-8,9.2-12.3,13.5c-5.6,5.6-12.1,10.4-17.4,16.2c-5.4,5.9-9.7,12.8-14.7,19.1c-4.2,5.3-8.8,10.3-12.9,15.6
			c-2.3,2.9-3.8,6.3-6,9.2c-3.3,4.3-7.3,8.1-10.2,12.6c-6.2,9.6-11.8,19.6-17.7,29.4c-1,1.7-2.1,3.3-3,5c-2,3.9-3.6,7.9-5.8,11.7
			c-2.1,3.6-5.2,6.7-7.1,10.4c-2.2,4.4-3.5,9.2-5.2,13.9c-0.7,1.8-1,4.3-2.3,5.2c-5.3,3.5-3.5,10.3-7.5,14.4
			c-1.4,1.5-2.1,3.8-2.8,5.8c-1,3.2-0.7,8.2-2.8,9.5c-4.4,2.8-2.1,7.3-4.3,10.5c-2.3,3.4-2.4,8.1-3.8,12.2c-1.2,3.5-4,6.7-4.2,10.2
			c-0.3,8.3-6.3,15.1-5.3,23.6c0,0.3-0.1,0.7-0.2,1c-2.7,5.9-4.8,12-4.8,18.7c0,1.5,0,4.1-0.4,4.2c-4.1,0.9-2.3,4.1-2.5,6.3
			c-0.3,2.3,0.9,5.4-0.3,6.9c-4.6,6,0,13.3-4.3,20c-3,4.7-1.5,12.5-1.5,18.9c0.2,37.9,0.6,75.8,1,113.8c0,1.2,0.3,2.5,0.8,3.6
			c0.5,1.2,1.9,2.2,2.1,3.4c0.8,8.1,1.4,16.3,2.1,24.5c0.1,0.7,0.5,1.4,0.8,2.1c0.7,1.3,1.9,2.5,2.1,3.9c0.4,2.9-0.2,6.1,0.5,8.9
			c1.1,4.3,3.2,8.4,4.5,12.8c1.6,5.5,2.3,11.3,4.3,16.7c1.1,3.1,1.4,6.3,3.3,9.6c3.4,5.7,3.8,13,5.5,19.7c0.1,0.5,0.3,0.9,0.4,1.4
			c1.5,3.5,3.2,7,4.5,10.6c1.1,2.8,1.5,5.9,2.7,8.6c1.4,2.9,3.6,5.5,5,8.4c2.1,4.7,3.1,10,5.9,14.2c3.6,5.4,5,11.9,9,17.2
			c3.8,5,5.7,11.5,8.5,17.4c0.9,1.9,1.4,4,2.6,5.7c2.3,3.2,5.2,5.9,7.2,9.2c2.9,4.9,4.8,10.4,7.9,15.1c5.6,8.4,11.5,16.6,17.6,24.6
			c6.8,8.9,13.6,17.9,21.3,26c6.4,6.7,11.3,14.6,18.6,20.6c6.1,5,10.7,11.8,16.3,17.5c6.8,6.8,13.8,13.5,20.9,19.9
			c5.9,5.3,12.2,10.4,18.5,15.3c6.6,5.2,13.4,10.1,20.2,15c5.3,3.9,10.7,7.6,16,11.4c4,2.9,7.9,6,12.2,8.6c3.7,2.2,8.4,3,11.6,5.8
			c6.7,5.9,15.5,8.2,22.4,14c4.1,3.5,10.1,4.9,15.2,7.3c1.6,0.8,3,2.2,4.6,2.9c4.6,2.1,9.4,3.8,14,5.9c2.6,1.2,4.8,3,7.4,4.1
			c5.1,2.1,10.4,3.8,15.6,5.9c2.7,1.1,5.2,3.1,7.9,4.1c5.9,2,11.9,3.6,17.9,5.4c2.3,0.7,5.6,0.6,6.7,2.1c3.1,4.4,8.1,2.8,11.9,4.1
			c4,1.4,7.9,5.6,13,3.6c0.1,0,0.5,0.8,0.8,1c3.3,1.7,6.9,1.2,10.5,3.4c4.2,2.5,10.4,1.8,15.7,2.5c0.8,0.1,1.9,0.3,2.2,0.9
			c1.6,2.9,4.3,1.9,6.6,2.1c5.3,0.6,10.7,1.3,16,2c0.3,0,0.7,0.2,0.8,0.4c2.9,4.1,7.2,2.1,11,2.5c1.3,0.1,3.1-0.5,3.9,0.2
			c6.6,4.8,14.6,1.4,22.1,4.2c9,3.3,19.9,1.7,30,1.6c36.1-0.2,72.2-0.6,108.3-1c1.1,0,2.2-0.1,3.2-0.4c1.9-0.7,3.7-2.3,5.6-2.5
			c8.6-0.9,17.3-1.4,26-2.1c0.5,0,1.3-0.1,1.3-0.2c0.9-4.5,4.5-2.2,7-2.7c1.6-0.3,3.8,0.5,4.9-0.3c4.7-3.8,10.8-0.9,16.2-4.2
			c4.7-3,11.9-1.3,17.5-5.1c3-2.1,7.9-1.4,11.8-2.4c4.1-1,8.1-2.6,12.3-3.7c2.4-0.7,5-0.5,7.3-1.4c5.7-2.4,11.1-5.7,17-7.5
			c4.4-1.4,8.5-2.5,12.7-4.7c4-2.1,9-2.8,13.3-5.3c4.2-2.4,9.3-3.5,13.9-5.3c1.8-0.7,3.7-1.3,5.4-2.2c4.7-2.5,9.3-5.3,14.1-7.7
			c2.1-1.1,6-0.9,6.6-2.3c2.2-5,8.2-3.6,11-7.6c1.6-2.2,5.4-2.4,8.1-4.5c5.4-4.3,12.2-6.8,17.9-10.8c2.3-1.6,5-1.9,7.4-4.3
			c4.5-4.5,11-7,16.4-10.6c6-4,12-8.1,17.8-12.5c5.5-4.1,10.7-8.5,15.9-12.9c3.4-2.9,6.7-5.9,10.1-8.9c4.4-3.8,8.8-7.5,13.1-11.5
			c2.9-2.7,5.5-5.8,8.3-8.7c4.1-4.2,8.3-8.3,12.4-12.4c4.2-4.1,8.1-8.5,12.5-12.4c4.1-3.5,6.2-8.8,10.1-12.1
			c7.4-6.3,12.1-14.6,18.6-21.6c3.7-4.1,6.2-9.3,9.5-13.8c3.2-4.3,6.9-8.3,10.2-12.6c1.9-2.5,3.7-5.1,5.3-7.8
			c3.9-6.6,7.5-13.4,11.4-20c2.7-4.7,6-9.1,8.5-13.8c3.4-6.2,6.2-12.7,9.5-18.9c2.8-5.4,5.2-11.1,8.3-16.4
			c3.8-6.5,5.3-14.3,8.3-21.3c1.2-2.9,3.6-6,4.5-8.6c1.9-5,2.7-10.3,5.2-15.5c3-6.1,3.7-13.2,5.5-19.8c0.2-0.6,0.6-1.2,0.8-1.8
			c1.3-3.6,2.9-7.1,3.9-10.8c1-3.6,1.4-7.3,2.1-10.9c1.2-5.9,4-11.4,3-17.7c-0.1-0.6,0-1.8,0.3-1.9c4.6-1.3,2.2-5,2.6-7.7
			c0.3-2-0.7-4.6,0.3-5.9c4.6-5.9,0-13.4,4.3-19.9c2.9-4.4,1.5-11.9,1.4-17.9c-0.2-38.3-0.6-76.5-1-114.8c0-1.1-0.3-3.1-0.6-3.2
			c-3.9-0.2-2.2-3.1-2.3-4.9c-0.8-7.8-1.4-15.7-2.1-23.5c-0.1-0.6-0.4-1.7-0.6-1.7c-3.9-0.1-2.1-3.1-2.3-4.8
			c-0.3-2.6,0.3-5.4-0.4-7.9c-1.2-4.2-4.2-8.1-4.4-12.2c-0.2-6.7-3.7-12.3-5-18.5c-0.9-4.4-2.1-8.7-3.3-13c-0.2-0.7-0.9-1.2-1.1-1.8
			c-1.3-3.4-2.9-6.7-3.7-10.2c-1.1-4.4-1.7-8.6-4.7-12.6c-2.8-3.7-2.6-9.3-5.3-13.7c-3.2-5.1-3.4-11.3-7.7-16.3
			c-3.6-4.2-5.1-10.3-7.4-15.7c-0.5-1.1,0.2-3.7-0.3-3.8c-5.4-1.6-4.3-7.6-7.5-10.9c-4-4.1-5.6-10.4-8.4-15.7
			c-2.2-4.3-4.5-8.6-7-12.8c-1.4-2.3-3.4-4.3-4.9-6.5c-2.9-4.4-5.4-9-8.4-13.3c-3-4.2-6.5-8-9.5-12.2c-3.1-4.3-5.5-9-8.9-13.1
			c-6-7.3-12.6-14.2-18.8-21.3c-4.7-5.4-8.9-11.2-13.9-16.4c-5.7-6-11.9-11.4-17.9-17.1c-7-6.6-13.8-13.5-21-19.9
			c-5.6-5-11.7-9.5-17.6-14.2c-2.9-2.3-5.9-4.3-8.8-6.5c-3.3-2.5-6.6-5.1-9.8-7.7c-1.9-1.6-3.5-3.6-5.6-4.9c-4-2.5-8.2-4.7-12.3-7.1
			c-0.5-0.3-1.1-0.6-1.5-0.9c-2.8-2.3-5.4-5-8.4-7c-3.7-2.4-7.9-4-11.6-6.3c-4.5-2.7-8.6-6-13.1-8.7c-4.3-2.6-8.9-4.7-13.4-6.9
			c-1.1-0.5-2.6-0.5-3.7-1.1c-4.1-2.3-8.1-4.9-12.2-7.1c-4.4-2.3-9.1-4.3-13.6-6.4c-2.3-1.1-4.5-2.7-6.9-3.6
			c-5.2-2-10.5-3.7-15.8-5.5c-2-0.7-5.2-0.7-5.8-2c-2.1-4.8-6.9-2-10-4.4c-3.1-2.4-7.6-3.2-11.5-4.5c-4.1-1.4-8.2-2.5-12.3-3.7
			c-0.9-0.3-1.7-0.5-2.6-0.9c-3.3-1.4-6.6-3.2-10-4c-4.6-1.1-9.3-1.4-13.9-2.2c-0.4-0.1-1.2-0.4-1.2-0.7c-0.3-3.1-2.7-2.1-4.4-2.3
			c-4.5-0.6-9-1.3-13.5-2c-0.4-0.1-0.8-0.5-1.3-0.7c-1.7-0.8-3.4-1.9-5.3-2.1c-5.8-0.9-11.6-1.4-17.5-2.1c-0.3,0-0.7-0.1-0.9-0.4
			c-3.1-4.3-7.6-2.1-11.5-2.6c-1.2-0.1-2.7,0.4-3.4-0.1c-6.6-4.9-14.7-0.3-22.2-4.3c-5.6-3.1-13.9-1.5-21-1.5
			c-39.4,0.2-78.8,0.6-118.3,0.9c-0.7,0-1.8-0.2-1.9,0.1C530.8,397.3,526.2,393.9,523.7,394.9z M27.7,985.3c0,2.5,0,4.1,0,5.7
			c0,130.8,0,261.7,0,392.5c0,13.9,1.7,27.5,6.3,40.6c13.5,38.6,41.2,58.5,81.9,58.5c271.7,0,543.3,0,815,0
			c54.3,0,108.7-0.1,163,0.1c21.1,0.1,39-7.4,53.6-22.4c20.6-21.2,28.6-47.3,28.6-76.3c-0.3-201.1-0.7-402.2-0.9-603.3
			c-0.1-113.2-0.1-226.3,0.1-339.5c0-12.1-2-23.7-6.2-35.1c-13.9-37.7-41.4-56.9-81.5-56.9c-54.7,0-109.3,0-164,0
			c-271.2,0-542.3,0-813.5,0c-15.6,0-29.9,3.8-42.6,13c-25.1,18.3-36.5,43.9-39.4,74c-0.6,6.3-0.4,12.7-0.4,19
			c0,125.5,0,251,0,376.5c0,1.7,0.2,3.4,0.3,5.9c1.2-7,2.2-13.1,3.2-19.2c0.8-4.7-1.1-9.4,2.7-14.4c2.5-3.2,0.6-9.4,2.7-14.4
			c2.7-6.7,2.8-14.4,5.8-21.4c2.3-5.4,2.4-11.4,5.3-17c3.2-6.4,3.8-14.1,5.5-21.3c0.1-0.6,0.7-1,1-1.6c1.5-3.5,3-6.9,4.3-10.5
			c1.1-3.2,1.5-6.6,2.9-9.7c2.3-5.2,5.1-10.2,7.7-15.3c1-1.9,2.2-3.6,3-5.5c2.1-4.7,4.2-9.4,6.1-14.1c0.7-1.9,0.5-5.2,1.5-5.6
			c5.5-2.1,4.6-8.1,7.9-11.8c4.1-4.6,5.8-11.3,8.8-17c2.2-4.3,4.7-8.4,7.2-12.5c1.8-3.1,3.7-6.1,5.6-9.1c2.7-4.3,5.3-8.6,8.3-12.8
			c3.2-4.5,6.9-8.6,10.1-13.1c3.2-4.5,5.8-9.5,9.2-13.8c6.4-7.8,13.7-14.8,19.8-22.8c5.1-6.7,10.7-12.8,17-18.4
			c2.6-2.3,5-4.9,7.4-7.5c3.9-4.3,7.6-8.8,11.7-12.8c4.4-4.4,9.3-8.5,13.9-12.7c5.1-4.6,9.9-9.5,15.2-13.9
			c5.3-4.5,10.9-8.6,16.5-12.8c6.7-5.1,13.5-10.1,20.3-15.2c4.2-3.1,8.3-6.3,12.6-9.2c3.7-2.5,7.8-4.6,11.6-7
			c1.7-1.1,3.1-2.9,4.9-3.8c5.3-2.8,10.8-5.2,15.9-8.2c3.9-2.3,7.1-5.6,11.1-7.7c4.2-2.3,8.8-3.6,13.2-5.5c1.8-0.8,3.6-1.8,5.3-2.8
			c4.2-2.5,8.2-5.5,12.7-7.6c4.7-2.2,9.9-3.3,14.5-5.6c6-2.9,11.6-6.6,18.5-7.5c0.9-0.1,1.7-1.9,1.8-2c3.4-1.2,5.9-2.2,8.5-3.1
			c4.4-1.6,8.8-3.2,13.1-4.8c3.1-1.2,6.2-2.6,9.4-3.5c4-1.1,8.1-1.6,12.1-2.4c0.7-0.1,1.2-0.9,1.8-1.4c0.8-0.6,1.6-1.5,2.5-1.7
			c4.8-0.8,9.7-1.5,14.5-2.2c0.5-0.1,1.2-0.3,1.3-0.6c0.5-3.6,3.3-2.2,5.3-2.5c4.5-0.6,8.9-1.4,13.3-2.2c0.6-0.1,1.1-0.7,1.7-1
			c1.6-0.7,3.2-1.7,4.9-2c6.1-0.9,12.3-1.5,18.5-2.4c1-0.1,1.8-1.2,2.8-1.8c0.8-0.5,1.6-1.2,2.5-1.3c4.9-0.6,9.6,0.1,14.7-1.8
			c5.9-2.3,12.6-0.1,19.4-2.9c6.9-2.9,15.6-1.6,23.5-1.5c40.8,0.2,81.5,0.6,122.3,1c1,0,2,0.3,2.9,0.7c1.5,0.7,2.9,2.1,4.4,2.3
			c9.4,0.9,18.7,1.5,28.1,2.2c0.6,0,1.7,0.1,1.7,0.4c1.2,4.3,4.8,2.6,7.5,2.9c1.6,0.2,3.9-0.6,4.9,0.2c5.1,4.2,11.8,0.8,17.4,4.7
			c3.7,2.6,10,1.8,15.1,2.5c0.5,0.1,1.3,0.3,1.3,0.4c0,4.4,3.4,2.2,5.3,2.6c4.1,0.9,8.3,1.5,12.5,2.2c0.3,0.1,0.8,0.2,0.9,0.3
			c1.9,5.6,7.6,2.4,11.1,4.9c3.3,2.3,8.1,2.6,12.2,3.8c2.4,0.7,5.4,0.5,7,2c4.2,4,9.5,3.9,13.6,5.1c1.5,1.3,2.3,2.5,3.4,2.9
			c5.6,2.1,11.4,3.7,16.9,6c4.6,1.9,8.8,4.5,13.3,6.7c1,0.5,2.8-0.1,3.3,0.5c3.7,5,9.9,5.2,14.6,8.1c5,3.1,12.2,3.8,15.9,7.8
			c3.5,3.9,8.3,4.7,12,7.7c5.3,4.1,11.9,6.7,17.5,10.9c1.9,1.4,4.8,1.5,6.8,2.8c3.6,2.5,6.8,5.7,10.4,8.1c4,2.7,9,4.3,12.4,7.6
			c4.3,4.1,8.2,8.4,13.9,10.8c2.7,1.1,5.2,3.2,7.4,5.2c4.8,4.4,8.9,9.7,14.2,13.3c8.4,5.7,14.8,13.2,22,20.1
			c4.7,4.4,9.1,9.2,13.7,13.7c4.3,4.1,9.1,7.7,13.2,12c4.7,4.9,8.9,10.4,13.4,15.5c3.3,3.8,7.1,7.3,10.2,11.3
			c4.3,5.5,8.1,11.3,12.3,16.9c4.5,6.1,9.3,12,13.8,18.1c0.9,1.3,1.3,2.9,2.3,4.2c3.1,4.2,6.8,8.1,9.5,12.5
			c4.6,7.7,8.7,15.7,13.1,23.5c0.7,1.2,2.4,1.8,2.9,2.9c2,4.6,3.1,9.6,5.7,13.8c3.1,5.1,5.7,10.6,8.6,15.6
			c3.4,5.8,4.9,12.6,9.5,17.9c3,3.5,3.6,8.9,5.5,13.4c0.8,2.1,2.4,3.9,3,6c1.1,3.5,0.6,8.9,2.9,10.5c4.2,3,2.4,7.3,4.4,10.7
			c2.3,3.6,2.4,8.5,3.5,12.9c0.1,0.3,1,0.5,1.1,0.8c1.2,3.8,0.9,7.9,3.8,11.3c1.3,1.5,0.9,4.3,1.6,6.5c1.2,4,2.7,7.9,3.7,12
			c1.3,5.5,0.9,11.8,3.6,16.3c3.6,5.7,0.3,12.1,4.4,18.1c3.3,4.9,1.8,13,2.7,19.7c0.5,3.6-2.4,8.2,2.8,10.7c0.3,0.1,0.1,1.2,0.2,1.9
			c0.4,11.4,0.9,22.8,1,34.3c0.1,29.2,0.1,58.3,0,87.5c0,1.8-0.3,3.6-0.7,5.3c-1.4,6.8,0.9,13.8-3,20.7c-2.5,4.4,0.3,10.9-2.2,16.4
			c-1.9,4.2,0.5,9.2-2.9,14.3c-2.7,4-0.4,10.9-2.9,16.5c-2.1,4.7-2.1,10.4-3.1,15.6c-0.1,0.4-0.7,0.7-0.9,1.1
			c-0.8,1.7-1.8,3.3-2.1,5c-0.9,3.9-0.2,9.1-2.5,11.6c-2.8,3-2.4,5.8-2.8,8.9c0,0.4-0.5,0.8-0.7,1.1c-2.3,2.7-1.2,6.5-4,9.6
			c-2.3,2.6-1.7,7.7-2.4,11.7c-0.1,0.6-0.3,1.2-0.6,1.7c-1.9,3.2-3.9,6.3-5.6,9.6c-0.5,1,0.4,2.8-0.1,3.8c-1.5,3.1-3.7,5.9-5.2,9.1
			c-2.1,4.8-3.1,10.2-5.8,14.6c-3.6,5.8-5.6,12.3-9.2,18.1c-5.2,8.5-8.7,18-14.2,26.4c-3.7,5.7-6.7,11.8-10.3,17.7
			c-3.4,5.5-6.9,11-10.6,16.3c-3.1,4.5-6.7,8.8-9.9,13.2c-4.1,5.6-8.1,11.2-12.1,16.9c-2.8,3.9-5.2,8.2-8.4,11.8
			c-5.5,6.4-11.5,12.3-17.2,18.5c-4,4.4-7.7,9.1-11.9,13.3c-4.5,4.6-9.5,8.6-14.1,13.1c-6.2,6.2-11.8,13-18.4,18.7
			c-9.2,8-19,15.4-28.6,22.9c-9.4,7.3-18.9,14.3-28.3,21.4c-4.1,3.1-8.2,6.3-12.6,9c-4.3,2.7-9.1,4.9-13.5,7.5
			c-4.4,2.6-8.3,6.2-12.9,8.3c-6.4,2.9-12.4,6.4-18.3,10.2c-3.3,2.1-7.7,2.9-11.3,5.6c-4.5,3.3-10.2,5-15.3,7.4
			c-2.4,1.1-4.6,2.5-7,3.5c-5.6,2.3-11.2,4.4-16.8,6.7c-2.9,1.2-5.6,3-8.6,4c-6.3,2.3-12.8,4.1-19.1,6.4c-3.1,1.1-6,3.1-9.2,4
			c-3.9,1.1-8.1,1.5-12.1,2.4c-1,0.2-1.9,0.9-2.8,1.5c-0.8,0.5-1.5,1.6-2.4,1.7c-4.8,0.8-9.7,1.5-14.5,2.2c-0.5,0.1-1.2,0.3-1.3,0.6
			c-0.7,3.8-3.7,2.2-5.8,2.5c-4.5,0.7-8.9,1.5-13.3,2.3c-0.5,0.1-0.9,0.5-1.3,0.7c-2.2,0.8-4.3,1.8-6.6,2.2c-5.6,1-11.3,1.6-17,2.4
			c-0.5,0.1-1.1,0.3-1.3,0.6c-1.8,3.6-5.1,2.4-7.9,2.5c-2.3,0.1-5.4-0.9-6.9,0.2c-6.9,5.2-15.2,0-22.9,4.4
			c-6.1,3.5-15.5,1.7-23.4,1.6c-40.9-0.2-81.8-0.6-122.8-1c-0.9,0-1.8-0.2-2.6-0.5c-1.9-0.8-3.8-2.3-5.7-2.5
			c-4.1-0.4-9.2,1.3-12.3-0.5c-6.4-3.9-13.5-0.8-20.4-4.3c-6.8-3.5-16.1-2.6-24.1-5.6c-6.6-2.5-14.3-1.3-21.1-5.3
			c-3.7-2.1-8.9-1.7-13.4-2.4c-0.6-0.1-1.8,0-1.9-0.2c-1.9-5.5-7.6-2.8-11.1-5c-3.7-2.4-8.7-2.9-13.1-4.1c-2.2-0.6-5-0.4-6.4-1.7
			c-4.2-3.9-9.4-4.3-13.6-5c-1.5-1.4-2.3-2.6-3.4-3c-5.6-2.1-11.4-3.7-16.9-6c-4.6-1.9-8.8-4.6-13.3-6.7c-1-0.5-2.8,0.1-3.3-0.5
			c-3.7-5.1-10.2-4.9-14.9-8.2c-3.4-2.4-7.6-3.7-11.4-5.5c-1.6-0.7-3.8-0.9-4.7-2.2c-3.4-4.7-9.1-5.5-13.5-8.3
			c-4.5-2.9-9.5-4.9-14-7.7c-3.8-2.4-7-5.7-10.7-8.2c-4.2-2.8-9-4.8-13.1-7.7c-4.1-3-7.7-6.7-11.6-10.1c-1.4-1.2-2.7-2.6-4.3-3.5
			c-7.3-4.4-13.7-9.9-20.2-15.4c-8.1-7-16.7-13.4-24-21.5c-6.2-6.9-14.1-12.4-20.9-18.8c-4.6-4.4-8.3-9.8-13.1-14.1
			c-6.5-5.9-10.9-13.4-16.7-19.8c-3.9-4.4-7.8-8.8-11.4-13.5c-6.5-8.3-12.8-16.8-19.2-25.2c-1.3-1.7-2.6-3.4-3.8-5.2
			c-2.8-4-5.7-7.8-8.2-11.9c-4.2-7.1-7.6-14.6-12.1-21.4c-3.6-5.4-6.3-11.2-9-17c-1.9-4-3-9-6.1-11.6c-4.4-3.7-3.5-9.3-7.3-13.3
			c-3.2-3.3-3.8-9.1-5.6-13.7c-0.9-2.2-1.8-4.5-2.8-6.7c-1.8-3.9-4.1-7.5-5.1-12c-1.3-5.7-4.8-10.8-7-16.3c-0.9-2.3,0-6.9-1.2-7.4
			c-5.2-2.1-2-7.2-4.5-10.5c-2.6-3.6-2.7-9.1-3.8-13.8c-0.7-3.1-0.4-7.3-2.3-9.2c-3-2.9-2.3-5.8-2.5-8.9c-0.1-1-0.1-1.9-0.5-2.8
			c-1.6-4.6-3.5-9-4.8-13.7c-1.2-4.1,2.2-9.4-3.2-12.6c-0.2-0.1,0-1,0-1.5c-0.7-9.2-1.5-18.3-2.2-27.5
			C28.9,986.7,28.6,986.4,27.7,985.3z M600.8,282.5c163.8,0,327.6,0,491.5,0.1c17.1,0,32.5-4.4,45.9-15.1
			c24.8-19.9,35.5-46.6,36.7-77.5c0.7-19.1,0.1-38.3,0.2-57.5c0-15.1-3-29.7-9-43.5c-11.4-26.4-36-52.3-78-52.2
			c-223.3,0.6-446.6,0.3-669.9,0.3c-103.2,0-206.3,0-309.5,0c-9.9,0-19.6,1.3-28.6,5.5C45.2,59,30,88.5,27.2,125
			c-1.7,21.9-0.3,44-0.3,66c0,12.3,2.6,24,6.9,35.4c14.2,37.6,41,56.2,80.9,56.2C276.8,282.5,438.8,282.5,600.8,282.5z"/>
		<path class="st0" d="M1201,313c-0.3-1.8-1-3.6-1-5.4c0-102.2,0-204.4,0-306.6c0.3,1.5,1,3,1,4.5c0,86.8,0,173.7,0,260.5
			C1201,281.7,1201,297.3,1201,313z"/>
		<path class="st1" d="M523.7,394.9c2.6-1,7.1,2.4,9.2-2.8c0.1-0.3,1.3-0.1,1.9-0.1c39.4-0.3,78.8-0.7,118.3-0.9
			c7.1,0,15.4-1.6,21,1.5c7.4,4.1,15.5-0.5,22.2,4.3c0.8,0.6,2.3,0,3.4,0.1c3.9,0.5,8.4-1.7,11.5,2.6c0.2,0.2,0.6,0.3,0.9,0.4
			c5.8,0.7,11.7,1.3,17.5,2.1c1.8,0.3,3.5,1.4,5.3,2.1c0.4,0.2,0.8,0.7,1.3,0.7c4.5,0.7,9,1.4,13.5,2c1.8,0.2,4.1-0.8,4.4,2.3
			c0,0.3,0.8,0.6,1.2,0.7c4.7,0.7,9.4,1.1,13.9,2.2c3.5,0.8,6.7,2.7,10,4c0.8,0.3,1.7,0.6,2.6,0.9c4.1,1.2,8.2,2.3,12.3,3.7
			c3.9,1.3,8.4,2.1,11.5,4.5c3.1,2.4,7.9-0.4,10,4.4c0.5,1.3,3.8,1.3,5.8,2c5.3,1.8,10.6,3.5,15.8,5.5c2.4,0.9,4.5,2.5,6.9,3.6
			c4.5,2.2,9.2,4.1,13.6,6.4c4.2,2.2,8.1,4.8,12.2,7.1c1.1,0.6,2.5,0.5,3.7,1.1c4.5,2.2,9.1,4.3,13.4,6.9c4.5,2.7,8.7,5.9,13.1,8.7
			c3.8,2.3,7.9,3.9,11.6,6.3c3,2,5.6,4.6,8.4,7c0.5,0.4,1,0.6,1.5,0.9c4.1,2.3,8.3,4.5,12.3,7.1c2.1,1.3,3.7,3.3,5.6,4.9
			c3.2,2.6,6.5,5.2,9.8,7.7c2.9,2.2,5.9,4.3,8.8,6.5c5.9,4.7,12,9.2,17.6,14.2c7.2,6.4,14,13.2,21,19.9c6,5.7,12.2,11.1,17.9,17.1
			c4.9,5.2,9.2,11,13.9,16.4c6.2,7.2,12.8,14,18.8,21.3c3.3,4,5.8,8.8,8.9,13.1c3,4.2,6.6,8,9.5,12.2c3,4.3,5.6,8.9,8.4,13.3
			c1.5,2.3,3.5,4.2,4.9,6.5c2.5,4.2,4.8,8.5,7,12.8c2.8,5.3,4.5,11.6,8.4,15.7c3.2,3.4,2.1,9.3,7.5,10.9c0.4,0.1-0.2,2.7,0.3,3.8
			c2.2,5.3,3.7,11.4,7.4,15.7c4.3,5,4.5,11.2,7.7,16.3c2.7,4.3,2.5,9.9,5.3,13.7c3,4,3.7,8.2,4.7,12.6c0.8,3.5,2.4,6.8,3.7,10.2
			c0.3,0.7,1,1.2,1.1,1.8c1.2,4.3,2.4,8.6,3.3,13c1.3,6.2,4.8,11.8,5,18.5c0.1,4.1,3.2,8,4.4,12.2c0.7,2.5,0.1,5.3,0.4,7.9
			c0.2,1.8-1.6,4.7,2.3,4.8c0.2,0,0.5,1.1,0.6,1.7c0.7,7.8,1.3,15.7,2.1,23.5c0.2,1.8-1.5,4.6,2.3,4.9c0.3,0,0.6,2.1,0.6,3.2
			c0.4,38.3,0.7,76.5,1,114.8c0,6.1,1.5,13.5-1.4,17.9c-4.3,6.6,0.3,14-4.3,19.9c-1,1.3,0.1,3.9-0.3,5.9c-0.4,2.7,2,6.4-2.6,7.7
			c-0.3,0.1-0.4,1.2-0.3,1.9c1,6.3-1.8,11.8-3,17.7c-0.7,3.6-1.1,7.4-2.1,10.9c-1,3.7-2.6,7.2-3.9,10.8c-0.2,0.6-0.7,1.1-0.8,1.8
			c-1.8,6.6-2.5,13.8-5.5,19.8c-2.5,5.1-3.4,10.4-5.2,15.5c-1,2.6-3.3,5.7-4.5,8.6c-3,7-4.5,14.8-8.3,21.3c-3.2,5.3-5.5,11-8.3,16.4
			c-3.3,6.3-6.1,12.7-9.5,18.9c-2.6,4.8-5.8,9.2-8.5,13.8c-3.9,6.6-7.5,13.4-11.4,20c-1.6,2.7-3.4,5.3-5.3,7.8
			c-3.3,4.3-7,8.2-10.2,12.6c-3.3,4.5-5.8,9.7-9.5,13.8c-6.4,7-11.2,15.3-18.6,21.6c-3.9,3.3-6,8.5-10.1,12.1
			c-4.4,3.8-8.4,8.2-12.5,12.4c-4.1,4.1-8.3,8.2-12.4,12.4c-2.8,2.9-5.4,5.9-8.3,8.7c-4.2,3.9-8.7,7.7-13.1,11.5
			c-3.4,2.9-6.6,6-10.1,8.9c-5.2,4.4-10.5,8.8-15.9,12.9c-5.8,4.4-11.8,8.5-17.8,12.5c-5.5,3.6-11.9,6.1-16.4,10.6
			c-2.3,2.4-5.1,2.6-7.4,4.3c-5.7,4-12.5,6.5-17.9,10.8c-2.7,2.2-6.5,2.3-8.1,4.5c-2.8,4-8.8,2.6-11,7.6c-0.6,1.4-4.5,1.2-6.6,2.3
			c-4.8,2.4-9.4,5.1-14.1,7.7c-1.7,0.9-3.6,1.6-5.4,2.2c-4.7,1.7-9.7,2.8-13.9,5.3c-4.3,2.5-9.3,3.1-13.3,5.3
			c-4.2,2.2-8.3,3.4-12.7,4.7c-5.9,1.8-11.2,5.2-17,7.5c-2.2,0.9-4.9,0.8-7.3,1.4c-4.1,1.1-8.1,2.7-12.3,3.7
			c-3.9,1-8.7,0.3-11.8,2.4c-5.6,3.8-12.8,2.2-17.5,5.1c-5.4,3.4-11.5,0.5-16.2,4.2c-1,0.8-3.3,0-4.9,0.3c-2.5,0.5-6-1.8-7,2.7
			c0,0.2-0.9,0.2-1.3,0.2c-8.7,0.7-17.3,1.2-26,2.1c-1.9,0.2-3.7,1.7-5.6,2.5c-1,0.4-2.1,0.4-3.2,0.4c-36.1,0.4-72.2,0.8-108.3,1
			c-10.1,0.1-21,1.7-30-1.6c-7.5-2.8-15.5,0.6-22.1-4.2c-0.9-0.6-2.6,0-3.9-0.2c-3.7-0.4-8.1,1.6-11-2.5c-0.2-0.2-0.5-0.4-0.8-0.4
			c-5.3-0.7-10.6-1.4-16-2c-2.4-0.3-5,0.7-6.6-2.1c-0.3-0.5-1.4-0.8-2.2-0.9c-5.3-0.7-11.5,0.1-15.7-2.5c-3.6-2.2-7.3-1.7-10.5-3.4
			c-0.4-0.2-0.7-1.1-0.8-1c-5.1,2-8.9-2.2-13-3.6c-3.8-1.3-8.8,0.3-11.9-4.1c-1-1.5-4.4-1.4-6.7-2.1c-6-1.8-12-3.4-17.9-5.4
			c-2.8-1-5.2-3-7.9-4.1c-5.1-2.1-10.4-3.8-15.6-5.9c-2.6-1.1-4.9-3-7.4-4.1c-4.6-2.1-9.4-3.8-14-5.9c-1.6-0.7-3-2.2-4.6-2.9
			c-5.1-2.4-11-3.8-15.2-7.3c-6.8-5.8-15.6-8.1-22.4-14c-3.1-2.7-7.9-3.6-11.6-5.8c-4.2-2.6-8.1-5.7-12.2-8.6
			c-5.3-3.8-10.7-7.5-16-11.4c-6.8-4.9-13.6-9.9-20.2-15c-6.3-4.9-12.5-9.9-18.5-15.3c-7.2-6.4-14.1-13.1-20.9-19.9
			c-5.6-5.7-10.2-12.4-16.3-17.5c-7.3-6-12.2-13.9-18.6-20.6c-7.7-8.1-14.4-17.1-21.3-26c-6.2-8-12.1-16.2-17.6-24.6
			c-3.1-4.7-5-10.2-7.9-15.1c-2-3.3-5-6-7.2-9.2c-1.2-1.7-1.7-3.8-2.6-5.7c-2.7-5.9-4.7-12.3-8.5-17.4c-4-5.3-5.4-11.7-9-17.2
			c-2.8-4.2-3.8-9.5-5.9-14.2c-1.4-2.9-3.6-5.5-5-8.4c-1.2-2.7-1.6-5.8-2.7-8.6c-1.4-3.6-3-7.1-4.5-10.6c-0.2-0.4-0.3-0.9-0.4-1.4
			c-1.7-6.7-2.1-14.1-5.5-19.7c-1.9-3.3-2.2-6.5-3.3-9.6c-1.9-5.4-2.7-11.2-4.3-16.7c-1.3-4.3-3.4-8.4-4.5-12.8
			c-0.7-2.8-0.1-5.9-0.5-8.9c-0.2-1.4-1.4-2.6-2.1-3.9c-0.3-0.7-0.7-1.4-0.8-2.1c-0.7-8.2-1.3-16.3-2.1-24.5
			c-0.1-1.2-1.5-2.2-2.1-3.4c-0.5-1.1-0.8-2.4-0.8-3.6c-0.4-37.9-0.8-75.8-1-113.8c0-6.4-1.5-14.2,1.5-18.9c4.3-6.6-0.3-14,4.3-20
			c1.1-1.5,0-4.6,0.3-6.9c0.2-2.2-1.6-5.4,2.5-6.3c0.4-0.1,0.4-2.7,0.4-4.2c-0.1-6.7,2-12.7,4.8-18.7c0.1-0.3,0.3-0.6,0.2-1
			c-1-8.4,5-15.3,5.3-23.6c0.1-3.4,2.9-6.7,4.2-10.2c1.4-4,1.6-8.8,3.8-12.2c2.2-3.3-0.1-7.7,4.3-10.5c2.1-1.3,1.7-6.3,2.8-9.5
			c0.7-2.1,1.4-4.4,2.8-5.8c4-4.1,2.2-10.9,7.5-14.4c1.3-0.9,1.7-3.4,2.3-5.2c1.7-4.6,3-9.5,5.2-13.9c1.8-3.7,4.9-6.8,7.1-10.4
			c2.2-3.7,3.8-7.8,5.8-11.7c0.9-1.7,2-3.3,3-5c5.9-9.8,11.5-19.8,17.7-29.4c2.9-4.5,6.9-8.3,10.2-12.6c2.2-2.9,3.8-6.4,6-9.2
			c4.2-5.3,8.7-10.3,12.9-15.6c5-6.3,9.3-13.2,14.7-19.1c5.3-5.8,11.7-10.6,17.4-16.2c4.3-4.3,7.9-9.3,12.3-13.5
			c4.1-4,9-7.1,13.3-11c7-6.3,13.6-13.1,20.8-19.1c5.3-4.5,11.3-8.2,17-12.3c3.1-2.3,6.2-4.7,9.3-7c1.4-1,2.6-2.2,4.1-3.1
			c5.6-3.5,11.5-6.5,16.7-10.4c4.8-3.6,10.3-6.1,14.9-9.8c3.7-3,9.1-3,11.7-7.7c0.6-1.1,2.9-1.2,4.4-1.8c7.3-3.4,14.6-6.8,21.8-10.4
			c5.8-2.9,11.3-6.5,17.1-9.3c4.6-2.2,9.8-3.2,14.2-5.8c4.5-2.5,9.8-3,13.8-5.4c4.1-2.5,8.3-2.9,12.3-4.5c5.8-2.4,11.3-5.3,17.1-7.7
			c2.5-1,5.3-1.4,8-2.1c4.4-1.1,8.7-2.2,13.1-3.2c3.5-0.8,7.6-0.4,10.3-2.3c5.7-3.9,13.2-2.1,17.9-5.2c5.3-3.5,11.4-0.2,15.9-4.3
			c1-0.8,3.2,0,4.9-0.3c2.5-0.4,6,1.5,6.9-2.8c0-0.1,0.9-0.1,1.4-0.2C508.3,396.3,515.7,395.6,523.7,394.9z M963.1,1000.8
			c-0.8,1-1.4,1.8-2.1,2.5c-17.7,19-37.4,35.6-58.4,50.7c-56.7,40.6-119.3,66.9-188.5,76.8c-57.7,8.2-114.6,3.6-170.8-11.4
			c-56.2-15-108.6-38.9-157.7-69.7c-42.5-26.7-84.3-54.4-118.9-91.5c-1.5-1.6-3.1-5.2-2.4-6.7c6.6-13.7,5.2-28.1,4.1-42.5
			c-0.1-1.6-1.1-3.1-2-5.2c-3.6,7.7-6.5,14.7-10.1,21.2c-9,16.1-22.1,28.2-38.9,35.5c-15.4,6.7-32,6.5-48.5,5.3
			c-6.3-0.5-12.6-1.9-19.3,1.1c1.6,1.2,2.7,2.4,4,2.8c10.2,2.8,20.2,6.4,30.6,7.9c11.7,1.7,23.7,1.6,35.6,2.4
			c1.8,0.1,4.4,0.8,5.2,2.1c4.5,6.7,8.9,13.6,12.8,20.8c3,5.5,5.2,11.5,7.9,17.2c25,53.8,54.5,104.8,94.2,149.3
			c31.3,35.1,67.3,63.9,110.9,82.5c57.7,24.7,117.2,26.4,177.7,12.6c49.6-11.4,95.5-31.7,139.1-57.4
			c87.1-51.2,162.1-117,229.3-191.9c1.1-1.2,1.3-3.3,2-5.4c19.6-1.8,40.1-2,58.4-13.3c-2.6-1.7-5.1-2.9-7.7-3
			c-8.1-0.3-16.2,0.4-24.3-0.3c-13.6-1.2-27.2-3.2-40.8-4.9c-23.9-3-42.3-14.5-55-35.5c0.4,5.2,0.7,10.7,2.6,15.5
			C938.5,982.7,949.6,992.8,963.1,1000.8z M930.5,644.1c-24.4-8.1-49-12.5-74.3-14.2c2.4-10.5,4.6-20.5,7-30.5
			c0.8-3.5-0.4-5.9-3.8-6c-8.6-0.3-17.3-0.1-26.1-0.1c-2.6,11.2-5.2,22-7.5,32.9c-0.7,3.4-2.2,4.4-5.6,4.8
			c-8.1,0.8-16.3,1.6-24.2,3.2c-20.3,4.3-39,12-54.3,26.8c-24.7,24.1-30.6,69.3-3,101.8c12.1,14.3,26.7,25.5,41.9,36.1
			c3.3,2.3,4,4.4,3.1,8.1c-4.5,18.4-8.7,36.9-13,55.3c-3,12.6-6,25.1-8.9,37.6c-9.5,0.2-20-2.6-26-7.2c-11.8-9-12.7-22.6-14.5-35.9
			c-11.9,0-23.5,0-35.1,0c-4.5,19.1-8.8,38-13.3,57.2c26.7,8.8,53.9,13.8,81.9,16c-2.4,10.5-4.7,20.5-7,30.5
			c-0.8,3.3,0.1,6.1,3.5,6.3c8.8,0.4,17.6,0.1,26.3,0.1c2.6-11.3,5.1-21.9,7.4-32.7c0.7-3.5,2.3-4.5,5.9-5.1
			c13.3-2.1,26.8-3.6,39.6-7.3c22.1-6.2,41-17.9,52.6-38.6c16.1-28.9,17.1-69-15.5-99.4c-11.4-10.7-24.2-19.8-36.5-29.5
			c-2.4-1.9-3.3-3.2-2.5-6.5c6.6-28,13-56,19.4-84c0.3-1.2,0.9-2.3,1.3-3.4c10.8,1.9,16.9,4.6,21.9,9.6c8.8,8.8,9.8,20.3,10.6,31.9
			c11.7,0,23.2,0,35.1,0C921.5,682.8,925.9,663.8,930.5,644.1z M377,858.9c-2.3,10.4-4.4,20-6.7,29.5c-0.8,3.2,0.3,6,3,6.2
			c8.4,0.5,16.8,0.2,25.2,0.2c2.3-10.4,4.7-20.1,6.5-29.9c0.9-4.9,2.8-6.6,8-6.9c15.9-0.9,31.1-4.6,45.9-10.7
			c52.9-21.9,62.4-88.2,27.3-124.4c-11.3-11.6-24.4-21.5-37-31.9c-2.9-2.4-3.7-4.3-2.9-7.9c4.1-17.5,7.9-35,11.8-52.5
			c2.2-10,4.6-20,6.9-30.2c24.1,3.5,30,20.1,30.2,40.4c11.5,0,22.5,0,33.4,0c4.2-18.9,8.3-37.5,12.5-56.8
			c-11.7-2.9-22.9-6.1-34.2-8.3c-11.5-2.3-23.2-3.5-35.1-5.2c2.2-9.7,4.2-19.5,6.6-29.2c0.8-3.4-0.7-5.7-3.5-5.8
			c-8.2-0.4-16.5-0.2-24.7-0.2c-2.4,10.8-5.1,20.9-6.9,31.2c-0.8,4.3-2.7,5.2-6.5,5.4c-15.9,0.9-31.2,4.7-45.8,11
			c-50.3,21.5-60,81-27.2,117.3c11,12.1,24.4,22.1,36.9,32.6c2.9,2.4,4.1,4.2,3.2,8.1c-5,21.2-9.8,42.4-14.6,63.7
			c-1.9,8.5-3.9,17-5.8,25.7c-8.9-1-17.2-2-24.1-7.4c-11.1-8.7-11.5-21.8-13.5-34.2c-11.1,0-21.9,0-33,0
			c-4.2,18.4-8.3,36.6-12.4,54.9C325.7,852,350.9,856.7,377,858.9z"/>
		<path class="st0" d="M27.7,985.3c0.9,1.2,1.2,1.4,1.3,1.7c0.8,9.2,1.5,18.3,2.2,27.5c0,0.5-0.2,1.3,0,1.5
			c5.4,3.1,2.1,8.4,3.2,12.6c1.3,4.6,3.2,9.1,4.8,13.7c0.3,0.9,0.4,1.9,0.5,2.8c0.2,3.1-0.5,6.1,2.5,8.9c1.9,1.8,1.6,6,2.3,9.2
			c1.1,4.7,1.2,10.2,3.8,13.8c2.5,3.3-0.7,8.4,4.5,10.5c1.2,0.5,0.3,5,1.2,7.4c2.1,5.5,5.6,10.6,7,16.3c1.1,4.5,3.3,8,5.1,12
			c1,2.2,1.9,4.4,2.8,6.7c1.8,4.6,2.4,10.4,5.6,13.7c3.8,4,2.9,9.6,7.3,13.3c3.1,2.6,4.2,7.6,6.1,11.6c2.7,5.8,5.4,11.6,9,17
			c4.5,6.8,7.9,14.4,12.1,21.4c2.4,4.1,5.4,8,8.2,11.9c1.2,1.8,2.5,3.5,3.8,5.2c6.4,8.4,12.7,16.9,19.2,25.2
			c3.6,4.6,7.4,9.1,11.4,13.5c5.8,6.4,10.2,13.9,16.7,19.8c4.7,4.3,8.4,9.7,13.1,14.1c6.8,6.5,14.7,11.9,20.9,18.8
			c7.3,8.1,15.9,14.4,24,21.5c6.5,5.6,12.9,11,20.2,15.4c1.6,0.9,2.9,2.3,4.3,3.5c3.9,3.4,7.5,7.1,11.6,10.1
			c4.1,2.9,8.9,4.9,13.1,7.7c3.7,2.5,7,5.8,10.7,8.2c4.5,2.8,9.5,4.8,14,7.7c4.4,2.9,10.1,3.6,13.5,8.3c0.9,1.2,3.1,1.4,4.7,2.2
			c3.8,1.8,8,3.1,11.4,5.5c4.7,3.3,11.2,3.1,14.9,8.2c0.5,0.6,2.3,0,3.3,0.5c4.5,2.2,8.7,4.8,13.3,6.7c5.5,2.3,11.3,3.9,16.9,6
			c1.1,0.4,1.9,1.6,3.4,3c4.2,0.8,9.4,1.2,13.6,5c1.4,1.3,4.3,1.1,6.4,1.7c4.4,1.2,9.4,1.7,13.1,4.1c3.6,2.3,9.2-0.4,11.1,5
			c0.1,0.3,1.2,0.1,1.9,0.2c4.5,0.7,9.7,0.2,13.4,2.4c6.8,3.9,14.4,2.8,21.1,5.3c8.1,3,17.3,2.1,24.1,5.6c6.9,3.6,14,0.5,20.4,4.3
			c3.1,1.9,8.2,0.1,12.3,0.5c2,0.2,3.8,1.7,5.7,2.5c0.8,0.3,1.7,0.5,2.6,0.5c40.9,0.4,81.8,0.8,122.8,1c7.9,0,17.3,1.9,23.4-1.6
			c7.7-4.4,16.1,0.8,22.9-4.4c1.5-1.1,4.5-0.1,6.9-0.2c2.8-0.1,6.1,1.1,7.9-2.5c0.2-0.3,0.8-0.6,1.3-0.6c5.7-0.8,11.3-1.4,17-2.4
			c2.3-0.4,4.4-1.4,6.6-2.2c0.5-0.2,0.9-0.6,1.3-0.7c4.4-0.8,8.9-1.6,13.3-2.3c2.2-0.4,5.1,1.3,5.8-2.5c0-0.3,0.8-0.5,1.3-0.6
			c4.8-0.7,9.7-1.4,14.5-2.2c0.9-0.2,1.6-1.2,2.4-1.7c0.9-0.6,1.8-1.3,2.8-1.5c4-0.8,8.2-1.2,12.1-2.4c3.2-0.9,6-2.9,9.2-4
			c6.3-2.2,12.8-4.1,19.1-6.4c3-1.1,5.6-2.8,8.6-4c5.6-2.3,11.2-4.4,16.8-6.7c2.4-1,4.6-2.3,7-3.5c5.1-2.4,10.8-4.1,15.3-7.4
			c3.7-2.7,8-3.5,11.3-5.6c5.9-3.8,11.9-7.3,18.3-10.2c4.6-2.1,8.5-5.7,12.9-8.3c4.4-2.7,9.1-4.8,13.5-7.5c4.4-2.8,8.5-5.9,12.6-9
			c9.5-7.1,19-14.2,28.3-21.4c9.7-7.5,19.4-14.9,28.6-22.9c6.6-5.7,12.2-12.6,18.4-18.7c4.6-4.5,9.6-8.6,14.1-13.1
			c4.2-4.2,7.9-8.9,11.9-13.3c5.7-6.2,11.7-12.1,17.2-18.5c3.1-3.6,5.6-7.9,8.4-11.8c4-5.6,8-11.3,12.1-16.9
			c3.3-4.4,6.8-8.7,9.9-13.2c3.7-5.3,7.3-10.8,10.6-16.3c3.5-5.8,6.6-12,10.3-17.7c5.5-8.4,9-18,14.2-26.4
			c3.6-5.9,5.7-12.3,9.2-18.1c2.7-4.4,3.7-9.8,5.8-14.6c1.4-3.2,3.6-6,5.2-9.1c0.5-1-0.4-2.8,0.1-3.8c1.7-3.3,3.8-6.4,5.6-9.6
			c0.3-0.5,0.5-1.1,0.6-1.7c0.7-4,0.1-9.2,2.4-11.7c2.8-3.1,1.7-6.9,4-9.6c0.3-0.3,0.7-0.7,0.7-1.1c0.3-3.1,0-5.9,2.8-8.9
			c2.3-2.5,1.6-7.7,2.5-11.6c0.4-1.7,1.4-3.4,2.1-5c0.2-0.4,0.8-0.7,0.9-1.1c1-5.2,1.1-10.8,3.1-15.6c2.5-5.6,0.2-12.5,2.9-16.5
			c3.4-5.1,0.9-10.1,2.9-14.3c2.6-5.6-0.3-12.1,2.2-16.4c3.9-6.9,1.6-13.9,3-20.7c0.4-1.8,0.7-3.6,0.7-5.3c0-29.2,0.1-58.3,0-87.5
			c-0.1-11.4-0.6-22.8-1-34.3c0-0.7,0.1-1.8-0.2-1.9c-5.2-2.4-2.4-7.1-2.8-10.7c-0.9-6.7,0.7-14.8-2.7-19.7
			c-4.1-6-0.8-12.3-4.4-18.1c-2.8-4.4-2.3-10.8-3.6-16.3c-1-4-2.5-8-3.7-12c-0.6-2.1-0.3-4.9-1.6-6.5c-2.9-3.4-2.6-7.5-3.8-11.3
			c-0.1-0.4-1-0.5-1.1-0.8c-1.1-4.3-1.2-9.3-3.5-12.9c-2.1-3.3-0.3-7.7-4.4-10.7c-2.3-1.6-1.8-6.9-2.9-10.5c-0.7-2.1-2.2-3.9-3-6
			c-1.8-4.5-2.5-10-5.5-13.4c-4.6-5.4-6.1-12.1-9.5-17.9c-3-5.1-5.6-10.5-8.6-15.6c-2.5-4.2-3.7-9.3-5.7-13.8
			c-0.5-1.2-2.3-1.8-2.9-2.9c-4.4-7.8-8.4-15.8-13.1-23.5c-2.7-4.5-6.4-8.3-9.5-12.5c-0.9-1.3-1.3-2.9-2.3-4.2
			c-4.6-6.1-9.3-12-13.8-18.1c-4.2-5.6-8-11.4-12.3-16.9c-3.1-4-6.9-7.5-10.2-11.3c-4.5-5.1-8.7-10.6-13.4-15.5
			c-4.1-4.3-8.9-7.9-13.2-12c-4.7-4.5-9-9.2-13.7-13.7c-7.2-6.8-13.7-14.4-22-20.1c-5.3-3.6-9.4-8.9-14.2-13.3c-2.2-2-4.7-4-7.4-5.2
			c-5.7-2.4-9.6-6.7-13.9-10.8c-3.4-3.3-8.4-4.8-12.4-7.6c-3.6-2.5-6.8-5.6-10.4-8.1c-2-1.3-4.9-1.4-6.8-2.8
			c-5.6-4.2-12.2-6.8-17.5-10.9c-3.8-2.9-8.5-3.8-12-7.7c-3.7-4-10.8-4.7-15.9-7.8c-4.8-2.9-11-3.2-14.6-8.1c-0.5-0.6-2.3,0-3.3-0.5
			c-4.5-2.2-8.7-4.8-13.3-6.7c-5.5-2.3-11.3-3.9-16.9-6c-1.1-0.4-1.9-1.6-3.4-2.9c-4.1-1.2-9.4-1.1-13.6-5.1c-1.5-1.5-4.6-1.3-7-2
			c-4.1-1.2-8.9-1.5-12.2-3.8c-3.5-2.5-9.3,0.7-11.1-4.9c-0.1-0.2-0.6-0.3-0.9-0.3c-4.2-0.7-8.4-1.3-12.5-2.2
			c-1.9-0.4-5.3,1.8-5.3-2.6c0-0.1-0.9-0.3-1.3-0.4c-5.1-0.7-11.4,0.2-15.1-2.5c-5.6-4-12.3-0.6-17.4-4.7c-1-0.8-3.3,0-4.9-0.2
			c-2.7-0.3-6.2,1.4-7.5-2.9c-0.1-0.3-1.1-0.3-1.7-0.4c-9.4-0.7-18.7-1.3-28.1-2.2c-1.5-0.1-2.9-1.6-4.4-2.3
			c-0.9-0.4-1.9-0.7-2.9-0.7c-40.8-0.4-81.5-0.8-122.3-1c-7.9,0-16.6-1.3-23.5,1.5c-6.8,2.8-13.5,0.7-19.4,2.9
			c-5.1,1.9-9.8,1.2-14.7,1.8c-0.9,0.1-1.7,0.8-2.5,1.3c-0.9,0.6-1.8,1.7-2.8,1.8c-6.1,0.9-12.3,1.5-18.5,2.4
			c-1.7,0.3-3.3,1.3-4.9,2c-0.6,0.3-1.1,0.9-1.7,1c-4.4,0.8-8.9,1.5-13.3,2.2c-2.1,0.3-4.8-1.1-5.3,2.5c0,0.3-0.8,0.5-1.3,0.6
			c-4.8,0.7-9.7,1.4-14.5,2.2c-0.9,0.2-1.6,1.1-2.5,1.7c-0.6,0.5-1.1,1.3-1.8,1.4c-4,0.9-8.1,1.4-12.1,2.4c-3.2,0.9-6.3,2.3-9.4,3.5
			c-4.4,1.6-8.7,3.2-13.1,4.8c-2.6,0.9-5.1,1.9-8.5,3.1c-0.1,0.2-0.9,1.9-1.8,2c-6.9,0.8-12.5,4.6-18.5,7.5
			c-4.7,2.2-9.9,3.3-14.5,5.6c-4.4,2.1-8.4,5.1-12.7,7.6c-1.7,1-3.5,2-5.3,2.8c-4.4,1.9-9,3.2-13.2,5.5c-3.9,2.1-7.2,5.5-11.1,7.7
			c-5.2,3-10.7,5.3-15.9,8.2c-1.8,1-3.1,2.7-4.9,3.8c-3.8,2.4-7.8,4.5-11.6,7c-4.3,2.9-8.4,6.1-12.6,9.2c-6.8,5-13.5,10.1-20.3,15.2
			c-5.5,4.2-11.2,8.3-16.5,12.8c-5.2,4.4-10.1,9.3-15.2,13.9c-4.6,4.2-9.4,8.3-13.9,12.7c-4.1,4.1-7.8,8.6-11.7,12.8
			c-2.4,2.6-4.7,5.1-7.4,7.5c-6.3,5.6-11.9,11.7-17,18.4c-6.1,8-13.4,15-19.8,22.8c-3.5,4.3-6,9.3-9.2,13.8
			c-3.2,4.5-6.9,8.6-10.1,13.1c-3,4.1-5.6,8.5-8.3,12.8c-1.9,3-3.8,6-5.6,9.1c-2.5,4.1-5,8.3-7.2,12.5c-3,5.7-4.7,12.4-8.8,17
			c-3.2,3.6-2.4,9.7-7.9,11.8c-1.1,0.4-0.8,3.8-1.5,5.6c-1.9,4.8-3.9,9.5-6.1,14.1c-0.9,1.9-2.1,3.6-3,5.5
			c-2.6,5.1-5.4,10.1-7.7,15.3c-1.3,3.1-1.8,6.5-2.9,9.7c-1.3,3.6-2.8,7-4.3,10.5c-0.2,0.6-0.8,1-1,1.6c-1.8,7.1-2.3,14.9-5.5,21.3
			c-2.8,5.6-3,11.7-5.3,17c-2.9,7-3,14.7-5.8,21.4c-2.1,5.1-0.2,11.2-2.7,14.4c-3.9,5-1.9,9.6-2.7,14.4c-1,6.1-2,12.2-3.2,19.2
			c-0.1-2.5-0.3-4.2-0.3-5.9c0-125.5,0-251,0-376.5c0-6.3-0.2-12.7,0.4-19c2.8-30.1,14.3-55.8,39.4-74c12.6-9.2,27-13,42.6-13
			c271.2,0,542.3,0,813.5,0c54.7,0,109.3,0,164,0c40.1,0,67.6,19.2,81.5,56.9c4.2,11.3,6.2,22.9,6.2,35.1
			c-0.2,113.2-0.2,226.3-0.1,339.5c0.2,201.1,0.6,402.2,0.9,603.3c0,29-8,55.1-28.6,76.3c-14.6,15.1-32.4,22.5-53.6,22.4
			c-54.3-0.2-108.7-0.1-163-0.1c-271.7,0-543.3,0-815,0c-40.6,0-68.4-19.9-81.9-58.5c-4.6-13.2-6.3-26.7-6.3-40.6
			c0-130.8,0-261.7,0-392.5C27.7,989.3,27.7,987.8,27.7,985.3z"/>
		<path class="st0" d="M600.8,282.5c-162,0-324,0-486,0c-39.9,0-66.7-18.6-80.9-56.2c-4.3-11.4-6.9-23.2-6.9-35.4
			c0-22-1.4-44.1,0.3-66C30,88.5,45.2,59,80,42.6c9-4.2,18.7-5.5,28.6-5.5c103.2,0,206.3,0,309.5,0c223.3,0,446.6,0.3,669.9-0.3
			c42-0.1,66.6,25.7,78,52.2c6,13.9,9,28.4,9,43.5c0,19.2,0.6,38.4-0.2,57.5c-1.2,30.9-11.9,57.7-36.7,77.5
			c-13.4,10.7-28.8,15.1-45.9,15.1C928.4,282.5,764.6,282.5,600.8,282.5z M373.2,153.8c-1.1-13.3-1.7-26.6-3.3-39.8
			c-1.9-14.8-5.9-29-14.9-41.3c-7.6-10.5-17.6-17.3-30.8-17.9c-14.1-0.6-28.3-0.6-42.5-0.6c-2.1,0-5.8,1.6-6,2.9
			c-0.6,3.9-1.4,10.1,0.7,11.6c6.2,4.4,6.5,10,6.5,16.3c0.1,45,0.1,90,0.1,135c0,4.8,0.2,9.7-0.4,14.5c-0.3,3-1,7.4-2.9,8.5
			c-5.6,3.1-4.5,7.7-4.6,12.4c-0.1,3.7,1.8,5.6,5.4,5.6c12,0,24,0,36-0.3c20.1-0.4,33.7-10.7,42.4-28.2c1.5-3.1,2.9-6.3,4.1-9.6
			C371,200.5,372.3,177.3,373.2,153.8z M564.8,176c-11.9-41.3-23.4-81.6-35-121.9c-10.1,0-19.8-0.2-29.4,0.2
			c-1.8,0.1-5.1,2.3-5.1,3.4c0.1,4.7-2.9,10.3,3.6,13.6c1.6,0.8,2.6,3.5,3,5.4c0.7,3.4,1,6.9,1,10.4c0.1,46.2,0.1,92.3,0,138.5
			c0,4.1-0.4,8.3-1,12.4c-0.3,1.9-1.1,4.5-2.5,5.2c-5.3,2.5-4.4,7-4.5,11.3c-0.1,4.7,2.1,6.5,6.7,6.4c6.7-0.2,13.3,0.2,20-0.2
			c2.3-0.1,6.2-1.7,6.3-3c0.4-4,1-9.8-1.3-12c-3.8-3.6-5.6-7.2-5.6-12c-0.2-26.8-0.4-53.7-0.6-80.5c-0.1-7.4,0-14.7,0-22.1
			c0.9,1,1.3,2,1.6,3c11.7,40.4,23.4,80.7,34.9,121.1c1.2,4.1,2.6,6.3,7.3,5.6c3.4-0.5,7-0.1,10.5-0.1c6.8,0,7.4-0.7,7.4-7.5
			c0-52.7,0-105.3,0-158c0-5.8,0.4-11.7,0.9-17.4c0.2-2,0.9-5,2.4-5.8c5.7-2.9,4.5-7.8,4.6-12.5c0.1-4-1.7-5.8-5.7-5.7
			c-6.8,0.1-13.7,0.1-20.5,0c-3,0-6.6,0.1-6.7,3.4c-0.1,4.1-2.8,9.1,1.8,12.4c3.3,2.4,5,5.2,5,9.2c0.3,15.5,0.6,31,0.7,46.5
			C564.9,141.9,564.8,158.4,564.8,176z M482.2,150.5c-0.5-8-1-20.8-2.3-33.6c-1.5-14.2-4.4-28.3-10.8-41.2
			c-4.4-8.9-10.4-16.3-19.6-20.5c-16.9-7.7-34.7-1.2-45.6,16.5c-7.1,11.5-10.7,24.3-12.9,37.5c-5.4,32.1-5.4,64.3-0.9,96.5
			c2.1,14.9,5.6,29.5,14.6,42C419,267.4,446,268.3,461,249c5.2-6.7,9.1-14.7,11.9-22.8C480.9,203.3,481.6,179.3,482.2,150.5z
			 M853,106.9c3.2,0,6-0.1,8.8,0c4.4,0.2,6.3-1.8,6.3-6.2c-0.1-13.5-0.1-27,0-40.5c0-4.5-2-6.2-6.4-6.2c-22,0.1-44,0-66,0.2
			c-2.1,0-5.8,1.6-6,2.9c-0.6,3.9-1.4,10.1,0.7,11.6c6.2,4.4,6.5,10,6.5,16.2c0.1,45,0.1,90,0.1,134.9c0,4.8,0.2,9.7-0.4,14.5
			c-0.4,3.1-1.1,7.6-3.2,8.9c-4.9,2.9-4.4,6.8-4.3,11c0.1,5.3,1.4,6.7,6.8,6.7c19.3,0,38.6,0,58,0c4.3,0,8.6,0,13.3,0
			c0.4-15.7,0.5-31,1.2-46.2c0.7-15.2,0.2-13.6-13.6-13.6c-0.5,0-0.9,0.3-1.6,0.5c-0.1,1-0.2,1.9-0.4,2.9c-2,9.1-3.8,18.2-6.3,27.1
			c-0.7,2.4-3.4,5.6-5.7,6.1c-4.9,0.9-10.1,0.3-15,0.3c0-24.7,0-48.7,0-72.8c10.4-0.7,11.2-0.1,13,9.8c0.6,3.6,1.2,7.2,1.8,10.9
			c1.8,0,3.3,0,4.8,0c8.1,0,8.6-0.4,8.6-8.4c0-14.8-0.2-29.7,0-44.5c0.2-12.8-0.3-12.2-12.5-11.9c-0.3,0-0.5,0.3-1.1,0.6
			c-0.5,3.4-1.1,7-1.7,10.6c-1.7,9.5-3.3,10.7-13.1,9.2c0-21.4,0-42.8,0-64.6c3,0,5.8,0,8.6,0c10.6,0,11.9,1,14.6,11.5
			C850.5,94.4,851.6,100.4,853,106.9z M635,53.2c-3.4,17.9-6.7,35.7-10.1,53.4c-7.7,40.5-15.2,81-23.1,121.5c-1,5.3-2.4,11.8-6,14.9
			c-4.3,3.7-3.9,7.2-4.1,11.5c-0.3,4.8,1.9,6.5,6.6,6.4c7.5-0.2,15-0.1,22.5-0.1c7.1,0,7.9-0.8,7.9-8.1c0-1.7,0.1-3.3-0.1-5
			c-0.1-0.9-0.7-2.2-1.2-2.4c-6.1-1.2-6.4-6.1-6.2-10.4c0.7-12,2.1-24,3.2-35.8c10,0,18.8,0,28.2,0c1.1,12.1,2.4,24,3.1,36
			c0.3,4.4-0.4,8.8-5.8,10.3c-0.7,0.2-1.4,1.7-1.5,2.7c-0.2,2.1,0,4.3-0.1,6.5c-0.2,4.4,1.8,6.3,6.2,6.3c8.7-0.1,17.3-0.1,26,0
			c14.8,0.1,14.4,1.2,13.9-14.6c-6.2-2.3-7.5-8-8.4-13.6c-2.7-16.6-5.2-33.2-7.6-49.8c-5.2-34.9-10.3-69.8-15.5-104.7
			c-1.2-8.3-2.5-16.7-3.7-25C650.9,53.2,643.1,53.2,635,53.2z M764.7,111.9c2.7,0,5.6-0.1,8.4,0c4.5,0.3,6.3-1.7,6.3-6.2
			c-0.1-15.2-0.1-30.3,0-45.5c0-4.4-1.8-6.3-6.3-6.2c-26.5,0.1-53,0-79.5,0.1c-5.4,0-6.6,1.3-6.7,6.8c0,12.5,0.1,25,0,37.5
			c-0.2,14.3-0.7,14,15.4,13.2c0.2-1.5,0.4-3.1,0.7-4.7c1.6-7.8,2.7-15.7,4.9-23.4c1.8-6.3,4.2-7.1,10.9-6c0,52,0,103.9,0,155.9
			c0,6.1-1.7,11.3-8.8,12.6c0,2.8,0,5.3,0,7.8c0,5.8,1.3,7.1,6.9,7.1c11,0,22-0.1,33,0.1c4.7,0.1,6.8-1.9,6.5-6.5
			c-0.1-2,0.2-4-0.1-6c-0.2-1.2-1.2-2.9-2.2-3.2c-4.4-1.5-5.5-5.1-5.9-9c-0.4-3.3-0.6-6.7-0.6-10c-0.1-48.8-0.1-97.7-0.1-146.5
			c0-0.8,0.1-1.6,0.2-2.4c6.9-0.9,9.4,0,11,6.3C761.1,92.8,762.7,102.1,764.7,111.9z"/>
		<path d="M963.1,1000.8c-13.5-8-24.6-18.1-30.5-32.6c-1.9-4.8-2.2-10.2-2.6-15.5c12.7,21,31.1,32.5,55,35.5
			c13.6,1.7,27.2,3.7,40.8,4.9c8,0.7,16.2,0.1,24.3,0.3c2.6,0.1,5.1,1.2,7.7,3c-18.3,11.3-38.8,11.6-58.4,13.3
			c-0.8,2.1-0.9,4.2-2,5.4C930,1090,855,1155.8,767.9,1207c-43.6,25.7-89.6,46-139.1,57.4c-60.5,13.9-119.9,12.1-177.7-12.6
			c-43.5-18.6-79.6-47.4-110.9-82.5c-39.7-44.5-69.2-95.5-94.2-149.3c-2.7-5.7-4.8-11.7-7.9-17.2c-3.9-7.1-8.3-14-12.8-20.8
			c-0.9-1.3-3.4-1.9-5.2-2.1c-11.9-0.8-23.9-0.7-35.6-2.4c-10.4-1.5-20.4-5.1-30.6-7.9c-1.3-0.4-2.4-1.6-4-2.8
			c6.6-3,13-1.6,19.3-1.1c16.5,1.2,33.1,1.4,48.5-5.3c16.8-7.3,29.9-19.4,38.9-35.5c3.6-6.5,6.4-13.5,10.1-21.2
			c0.8,2.2,1.8,3.7,2,5.2c1.2,14.4,2.5,28.8-4.1,42.5c-0.7,1.5,0.9,5,2.4,6.7c34.6,37,76.4,64.8,118.9,91.5
			c49.1,30.8,101.4,54.8,157.7,69.7c56.2,14.9,113.1,19.6,170.8,11.4c69.2-9.9,131.7-36.2,188.5-76.8c21-15.1,40.8-31.7,58.4-50.7
			C961.7,1002.6,962.3,1001.8,963.1,1000.8z"/>
		<path d="M930.5,644.1c-4.6,19.7-9,38.8-13.4,57.8c-11.9,0-23.4,0-35.1,0c-0.8-11.6-1.9-23.1-10.6-31.9c-5-5.1-11.1-7.7-21.9-9.6
			c-0.4,1.1-1,2.2-1.3,3.4c-6.5,28-12.8,56.1-19.4,84c-0.8,3.2,0.1,4.6,2.5,6.5c12.3,9.7,25.1,18.8,36.5,29.5
			c32.5,30.5,31.6,70.5,15.5,99.4c-11.5,20.7-30.5,32.3-52.6,38.6c-12.9,3.6-26.4,5.2-39.6,7.3c-3.5,0.5-5.1,1.6-5.9,5.1
			c-2.3,10.7-4.8,21.4-7.4,32.7c-8.8,0-17.5,0.2-26.3-0.1c-3.4-0.1-4.3-2.9-3.5-6.3c2.4-10,4.6-20,7-30.5c-28-2.2-55.2-7.2-81.9-16
			c4.5-19.2,8.9-38.1,13.3-57.2c11.7,0,23.2,0,35.1,0c1.8,13.3,2.8,26.9,14.5,35.9c5.9,4.5,16.5,7.4,26,7.2c3-12.4,6-25,8.9-37.6
			c4.3-18.4,8.5-36.9,13-55.3c0.9-3.8,0.2-5.8-3.1-8.1c-15.2-10.6-29.8-21.8-41.9-36.1c-27.5-32.5-21.7-77.7,3-101.8
			c15.2-14.8,34-22.5,54.3-26.8c7.9-1.7,16.1-2.5,24.2-3.2c3.4-0.3,4.9-1.4,5.6-4.8c2.3-10.9,4.9-21.7,7.5-32.9
			c8.8,0,17.4-0.2,26.1,0.1c3.4,0.1,4.6,2.5,3.8,6c-2.4,10-4.6,20.1-7,30.5C881.5,631.6,906.1,635.9,930.5,644.1z M811.6,820.5
			c-6.2,26.5-12.3,52.5-18.4,78.5c14.9-0.6,29.1-11.7,33.9-26C833.2,854.8,827,833.2,811.6,820.5z M818,660.6
			c-17.7,2.3-31.7,14.6-34.8,30c-3.4,17,3.6,34.3,17.6,42.6C806.4,709.1,812.2,685.1,818,660.6z"/>
		<path d="M377,858.9c-26.1-2.2-51.4-6.9-76.6-15.4c4.1-18.3,8.3-36.5,12.4-54.9c11.1,0,21.9,0,33,0c1.9,12.4,2.4,25.5,13.5,34.2
			c6.9,5.4,15.2,6.4,24.1,7.4c2-8.7,3.9-17.2,5.8-25.7c4.8-21.2,9.6-42.5,14.6-63.7c0.9-3.9-0.3-5.7-3.2-8.1
			c-12.6-10.6-26-20.5-36.9-32.6c-32.8-36.3-23.1-95.7,27.2-117.3c14.7-6.3,29.9-10.1,45.8-11c3.8-0.2,5.8-1.1,6.5-5.4
			c1.9-10.3,4.5-20.4,6.9-31.2c8.2,0,16.5-0.3,24.7,0.2c2.8,0.1,4.3,2.4,3.5,5.8c-2.4,9.7-4.4,19.4-6.6,29.2
			c11.8,1.7,23.6,3,35.1,5.2c11.4,2.2,22.5,5.4,34.2,8.3c-4.3,19.3-8.4,37.9-12.5,56.8c-10.9,0-21.8,0-33.4,0
			c-0.3-20.2-6.1-36.9-30.2-40.4c-2.3,10.2-4.6,20.2-6.9,30.2c-3.9,17.5-7.7,35.1-11.8,52.5c-0.8,3.5-0.1,5.5,2.9,7.9
			c12.6,10.3,25.7,20.2,37,31.9c35.1,36.2,25.6,102.5-27.3,124.4c-14.8,6.1-30,9.8-45.9,10.7c-5.2,0.3-7.1,2.1-8,6.9
			c-1.8,9.8-4.2,19.5-6.5,29.9c-8.3,0-16.8,0.3-25.2-0.2c-2.8-0.2-3.8-3-3-6.2C372.7,878.9,374.7,869.3,377,858.9z M413.1,829.2
			c15.1-1.6,27.8-12.5,31.7-26.7c4.7-17.3-1.6-38.3-14.5-48c-0.3,0.9-0.7,1.9-0.9,2.8C424,781.1,418.6,804.9,413.1,829.2z
			 M435.6,600.9c-15.7,1.1-29.1,13.6-32.2,29.5c-2.9,14.8,4.7,33.3,16.4,39.3C425,646.9,430.3,624.2,435.6,600.9z"/>
		<path d="M373.2,153.8c-0.9,23.4-2.2,46.7-10.2,69c-1.2,3.3-2.5,6.5-4.1,9.6c-8.7,17.5-22.3,27.8-42.4,28.2c-12,0.2-24,0.2-36,0.3
			c-3.7,0-5.5-1.9-5.4-5.6c0.1-4.6-1-9.3,4.6-12.4c2-1.1,2.6-5.5,2.9-8.5c0.5-4.8,0.4-9.7,0.4-14.5c0-45-0.1-90-0.1-135
			c0-6.2-0.4-11.9-6.5-16.3c-2-1.5-1.3-7.7-0.7-11.6c0.2-1.3,3.9-2.9,6-2.9c14.2-0.1,28.3,0,42.5,0.6c13.2,0.6,23.2,7.4,30.8,17.9
			c8.9,12.3,13,26.6,14.9,41.3C371.6,127.2,372.2,140.6,373.2,153.8z M311.9,238.4c10.1,0.8,15.9-2.1,20.4-10.2
			c1.5-2.7,3.1-5.7,3.7-8.7c2.4-12.2,5.4-24.4,6.3-36.7c1.8-25.1,2.1-50.3-3.3-75.1c-1.9-9-4.5-17.8-10.7-24.9
			c-4.3-5-9.7-7.1-16.3-5.9C311.9,130.9,311.9,184.5,311.9,238.4z"/>
		<path d="M564.8,176c0-17.6,0.1-34.1,0-50.5c-0.1-15.5-0.5-31-0.7-46.5c-0.1-3.9-1.7-6.8-5-9.2c-4.6-3.3-1.9-8.3-1.8-12.4
			c0.1-3.3,3.7-3.4,6.7-3.4c6.8,0.1,13.7,0.1,20.5,0c4,0,5.8,1.8,5.7,5.7c-0.1,4.7,1.1,9.6-4.6,12.5c-1.4,0.7-2.2,3.7-2.4,5.8
			c-0.6,5.8-0.9,11.6-0.9,17.4c-0.1,52.7,0,105.3,0,158c0,6.8-0.7,7.5-7.4,7.5c-3.5,0-7.1-0.4-10.5,0.1c-4.7,0.7-6.2-1.6-7.3-5.6
			c-11.5-40.4-23.3-80.7-34.9-121.1c-0.3-1.1-0.7-2.1-1.6-3c0,7.4,0,14.7,0,22.1c0.2,26.8,0.4,53.7,0.6,80.5c0,4.8,1.8,8.4,5.6,12
			c2.3,2.2,1.7,7.9,1.3,12c-0.1,1.3-4,2.9-6.3,3c-6.6,0.4-13.3,0-20,0.2c-4.6,0.1-6.8-1.7-6.7-6.4c0.1-4.4-0.7-8.8,4.5-11.3
			c1.4-0.7,2.2-3.3,2.5-5.2c0.6-4.1,1-8.3,1-12.4c0.1-46.2,0-92.3,0-138.5c0-3.5-0.3-7-1-10.4c-0.4-2-1.4-4.6-3-5.4
			c-6.4-3.3-3.5-8.9-3.6-13.6c0-1.2,3.2-3.4,5.1-3.4c9.6-0.3,19.3-0.2,29.4-0.2C541.4,94.4,552.9,134.6,564.8,176z"/>
		<path d="M482.2,150.5c-0.6,28.8-1.3,52.8-9.3,75.8c-2.8,8-6.7,16.1-11.9,22.8c-14.9,19.3-42,18.3-56.3-1.4
			c-9-12.5-12.5-27.1-14.6-42c-4.5-32.2-4.6-64.4,0.9-96.5c2.2-13.2,5.9-25.9,12.9-37.5c10.9-17.7,28.7-24.2,45.6-16.5
			c9.2,4.2,15.2,11.6,19.6,20.5c6.4,13,9.3,27,10.8,41.2C481.2,129.7,481.7,142.5,482.2,150.5z M415.9,163.4
			c0.5,7.9,0.7,23.1,2.4,38.1c1.2,10.3,4.1,20.4,7.1,30.4c1.2,4.2,4.1,8.2,9.6,8.2c5.3,0,7.6-4.1,9-8.1c2.4-6.9,4.8-13.9,5.8-21
			c4.7-34.8,4.3-69.7-0.1-104.5c-1.1-8.4-4.2-16.7-6.9-24.8c-1.2-3.6-3.9-6.7-8.5-6.6c-4.5,0-7,3.1-8.6,6.6c-1.9,4-3.5,8.3-4.5,12.6
			C416.3,114.5,416.3,135.3,415.9,163.4z"/>
		<path d="M853,106.9c-1.4-6.5-2.5-12.6-4-18.5c-2.6-10.5-4-11.5-14.6-11.5c-2.8,0-5.6,0-8.6,0c0,21.9,0,43.3,0,64.6
			c9.7,1.5,11.4,0.3,13.1-9.2c0.6-3.6,1.1-7.2,1.7-10.6c0.5-0.3,0.8-0.6,1.1-0.6c12.1-0.4,12.7-1,12.5,11.9c-0.2,14.8,0,29.7,0,44.5
			c0,8-0.4,8.4-8.6,8.4c-1.5,0-3,0-4.8,0c-0.6-3.8-1.2-7.3-1.8-10.9c-1.8-10-2.5-10.5-13-9.8c0,24,0,48.1,0,72.8
			c4.8,0,10,0.6,15-0.3c2.2-0.4,5-3.6,5.7-6.1c2.5-8.9,4.3-18,6.3-27.1c0.2-0.9,0.3-1.9,0.4-2.9c0.6-0.2,1.1-0.5,1.6-0.5
			c13.7-0.1,14.3-1.6,13.6,13.6c-0.7,15.3-0.8,30.6-1.2,46.2c-4.7,0-9,0-13.3,0c-19.3,0-38.6,0-58,0c-5.4,0-6.7-1.4-6.8-6.7
			c-0.1-4.2-0.5-8.1,4.3-11c2.1-1.3,2.9-5.8,3.2-8.9c0.6-4.8,0.4-9.6,0.4-14.5c0-45-0.1-90-0.1-134.9c0-6.2-0.4-11.9-6.5-16.2
			c-2-1.4-1.3-7.7-0.7-11.6c0.2-1.3,3.9-2.9,6-2.9c22-0.2,44-0.1,66-0.2c4.3,0,6.4,1.7,6.4,6.2c-0.1,13.5-0.1,27,0,40.5
			c0,4.4-1.9,6.4-6.3,6.2C859,106.8,856.1,106.9,853,106.9z"/>
		<path d="M635,53.2c8.1,0,15.9,0,24.3,0c1.2,8.3,2.5,16.6,3.7,25c5.2,34.9,10.3,69.8,15.5,104.7c2.5,16.6,5,33.2,7.6,49.8
			c0.9,5.6,2.1,11.3,8.4,13.6c0.5,15.9,0.9,14.7-13.9,14.6c-8.7-0.1-17.3-0.1-26,0c-4.4,0.1-6.4-1.9-6.2-6.3
			c0.1-2.2-0.1-4.3,0.1-6.5c0.1-1,0.8-2.5,1.5-2.7c5.4-1.6,6.1-6,5.8-10.3c-0.8-11.9-2.1-23.8-3.1-36c-9.4,0-18.2,0-28.2,0
			c-1.1,11.9-2.5,23.8-3.2,35.8c-0.3,4.3,0.1,9.3,6.2,10.4c0.6,0.1,1.1,1.5,1.2,2.4c0.2,1.6,0.1,3.3,0.1,5c0,7.3-0.8,8.1-7.9,8.1
			c-7.5,0-15-0.1-22.5,0.1c-4.6,0.1-6.8-1.6-6.6-6.4c0.2-4.2-0.1-7.8,4.1-11.5c3.6-3.1,4.9-9.6,6-14.9c7.9-40.5,15.5-81,23.1-121.5
			C628.3,88.9,631.6,71.1,635,53.2z M649.2,175.9c-2.9-20.2-5.7-40-8.5-59.9c-0.3,0-0.5-0.1-0.8-0.1c-3.6,19.9-7.1,39.8-10.7,60
			C635.8,175.9,642.1,175.9,649.2,175.9z"/>
		<path d="M764.7,111.9c-2-9.8-3.6-19.1-6.1-28.3c-1.7-6.3-4.1-7.2-11-6.3c-0.1,0.8-0.2,1.6-0.2,2.4c0,48.8,0.1,97.7,0.1,146.5
			c0,3.3,0.2,6.7,0.6,10c0.4,3.9,1.5,7.5,5.9,9c1,0.3,1.9,2,2.2,3.2c0.4,1.9,0,4,0.1,6c0.3,4.7-1.7,6.6-6.5,6.5c-11-0.2-22,0-33-0.1
			c-5.7,0-6.9-1.3-6.9-7.1c0-2.5,0-5,0-7.8c7.1-1.3,8.8-6.5,8.8-12.6c0.1-52,0-104,0-155.9c-6.7-1.1-9.1-0.3-10.9,6
			c-2.2,7.6-3.3,15.6-4.9,23.4c-0.3,1.6-0.5,3.2-0.7,4.7c-16.2,0.8-15.6,1.1-15.4-13.2c0.1-12.5,0-25,0-37.5c0-5.5,1.3-6.8,6.7-6.8
			c26.5,0,53,0,79.5-0.1c4.5,0,6.3,1.8,6.3,6.2c-0.1,15.2-0.1,30.3,0,45.5c0,4.4-1.8,6.4-6.3,6.2
			C770.3,111.8,767.5,111.9,764.7,111.9z"/>
		<path class="st1" d="M811.6,820.5c15.5,12.7,21.6,34.3,15.5,52.5c-4.8,14.3-19,25.4-33.9,26C799.3,872.9,805.3,847,811.6,820.5z"
			/>
		<path class="st1" d="M818,660.6c-5.8,24.5-11.5,48.5-17.3,72.6c-13.9-8.3-21-25.6-17.6-42.6C786.3,675.2,800.2,662.9,818,660.6z"
			/>
		<path class="st1" d="M413.1,829.2c5.5-24.3,10.9-48.1,16.3-71.9c0.2-1,0.6-1.9,0.9-2.8c12.9,9.7,19.2,30.6,14.5,48
			C440.9,816.7,428.2,827.6,413.1,829.2z"/>
		<path class="st1" d="M435.6,600.9c-5.3,23.2-10.6,46-15.8,68.8c-11.7-6-19.3-24.5-16.4-39.3C406.5,614.6,419.9,602.1,435.6,600.9z
			"/>
		<path class="st0" d="M311.9,238.4c0-53.9,0-107.5,0-161.5c6.6-1.2,11.9,0.9,16.3,5.9c6.2,7.1,8.8,16,10.7,24.9
			c5.4,24.8,5.1,50,3.3,75.1c-0.9,12.3-3.9,24.5-6.3,36.7c-0.6,3-2.2,5.9-3.7,8.7C327.8,236.3,322,239.2,311.9,238.4z"/>
		<path class="st0" d="M415.9,163.4c0.3-28,0.4-48.9,5.2-69.3c1-4.3,2.7-8.5,4.5-12.6c1.6-3.5,4.1-6.5,8.6-6.6c4.6,0,7.3,3,8.5,6.6
			c2.8,8.1,5.8,16.4,6.9,24.8c4.4,34.8,4.8,69.7,0.1,104.5c-1,7.1-3.4,14.2-5.8,21c-1.4,4-3.7,8.1-9,8.1c-5.4,0-8.4-4-9.6-8.2
			c-2.9-10-5.9-20.1-7.1-30.4C416.6,186.4,416.4,171.3,415.9,163.4z"/>
		<path class="st0" d="M649.2,175.9c-7.1,0-13.3,0-20.1,0c3.6-20.2,7.2-40.1,10.7-60c0.3,0,0.5,0.1,0.8,0.1
			C643.5,135.9,646.3,155.7,649.2,175.9z"/>
	</g>
</g>
</svg>
