<?xml version="1.0" encoding="utf-8"?>
<!-- Generator: Adobe Illustrator 19.1.1, SVG Export Plug-In . SVG Version: 6.00 Build 0)  -->
<svg version="1.1" id="Layer_1" xmlns="http://www.w3.org/2000/svg" xmlns:xlink="http://www.w3.org/1999/xlink" x="0px" y="0px"
	 viewBox="0 0 90 90" style="enable-background:new 0 0 90 90;" xml:space="preserve">
<style type="text/css">
	.st0{fill:#FFFFFF;stroke:#000000;stroke-miterlimit:10;}
	.st1{font-family:'MyriadPro-Regular';}
	.st2{font-size:9.5px;}
</style>
<g>
	<g>
		<path class="st0" d="M75.9,77.1H14.1C10.2,77.1,7,74,7,70.1V8.2c0-3.9,3.2-7.1,7.1-7.1h61.8c3.9,0,7.1,3.2,7.1,7.1v61.8
			C83,74,79.8,77.1,75.9,77.1z"/>
		<g>
			<path d="M35.3,9.5c2.5,0.9,3.7,2.7,4.1,5.2c0.1,0.6,0.2,1.1,0.2,1.8c0,0.2-0.2,0.4-0.4,0.3c-0.9-0.4-2.9-1.3-3.8-1.9
				c-1.3-0.8-1.7-2.2-1.9-3.7c-0.1-0.6-0.1-1.3-0.1-2c0-0.2,0.2-0.4,0.4-0.3C34.2,9.1,34.9,9.4,35.3,9.5z"/>
			<path d="M15.7,40.6c0.8-0.7,1.8-1.1,2.9-1c0.9,0.1,1.9,0.2,2.8,0.3c0.2,0,0.3,0.3,0.2,0.5c-1.7,2.7-4,3.6-7,2.8
				C14.3,43.1,14,43,13.7,43C13.7,42.9,15,41.3,15.7,40.6z"/>
			<path d="M45.6,29.1c0.8-1.9,2-3.6,3.9-4.5c1-0.5,2.1-0.8,3.1-1.1c-1,0.6-2.2,1-3.1,1.7c-1.7,1.3-2.4,3.1-2.8,5.1
				c-0.7,3-0.6,6.1-0.4,9.1c0.1,0.9,0.1,1.7,0.2,2.8c0.5-0.7,1-1.3,1.4-1.9c1.7-2.5,3.8-4.5,6.1-6.4c1.1-1,2.2-2.1,3.1-3.3
				c1.3-1.7,1.6-3.8,0.9-5.8c0-0.1-0.1-0.3-0.1-0.4c0,0,0,0,0.1-0.1c1.1,2.6,1,5.1-0.5,7.8c3.3-1,6.3-0.8,9.4,0.3
				c-7.3-2-11.9,1.6-15.4,7.4c2.3-0.7,4.6-1.2,7-0.8c2.4,0.4,4.4,1.5,6.3,3c-0.2-0.1-0.4-0.2-0.6-0.3c-0.8-0.6-1.7-1.1-2.7-1.4
				c-3-0.9-5.9-0.5-8.5,0.9c-3.6,1.8-5,5-5.5,8.6c-0.6,4.2-0.4,8.4-0.2,12.6c0.1,2.8,0.6,6.2,1.4,8.7c0.1,0.5-0.2,0.9-0.7,0.9h-9.4
				c-0.6,0-0.9-0.7-0.4-1.1c2.6-2.3,4.1-5.4,4.6-8.4c0.4-2.2,0.5-4.5-0.1-6.7c-0.8-3.1-2.7-4.7-5.9-5.1c-2.7-0.3-5.2,0.4-7.4,1.9
				c-0.2,0.1-0.4,0.2-0.7,0.3c1.9-1.5,3.9-2.6,6.3-3c2.4-0.4,4.7,0,7.1,0.9c-1.7-3.2-3.3-6.2-5.9-8.6c-1.4-1.3-2.9-2.3-4.7-2.9
				c-2.3-0.7-4.5-0.5-6.8,0.1c-0.2,0-0.3,0.1-0.5,0c3.1-1.1,6.3-1.4,9.4-0.4c-0.2-1.2-0.5-2.4-0.6-3.7c-0.1-1.3,0.3-2.4,1-3.5
				c-0.1,0.6-0.3,1.1-0.4,1.7c-0.5,3.1,0.8,5.6,3.7,7.1c2.9,1.5,5.2,3.9,6.4,6.9c0.1,0.3,0.1,0.3,0.4,0.6c0-0.2,0-0.3,0-0.5
				c-0.2-5.2-0.4-10.4-0.6-15.7c0-0.5-0.1-0.9-0.3-1.4c-1.7-3.6-3.7-4.4-9-4.8c-2.3-0.2-7.5,0.5-7.4,0.5c3.9-1.1,12.5-2.4,16.3,1.4
				c-0.4-2.9-1.2-5.1-3.2-7.1c-2.1-2.1-4.7-3.4-8.4-5.2c6.3,1.9,9.1,3.9,10.9,5.5c2.3,2.1,2.3,4.5,2.9,7.5c0,0.2,0.1,0.4,0.1,0.6
				C45.5,28.9,45.6,28.9,45.6,29.1z"/>
			<path d="M50.6,13.8c1.8,4.3-0.2,9.3-4.6,11.5c-0.2,0.1-0.4,0-0.4-0.2c-0.5-2.1-0.7-4.2-0.1-6.2c0.7-2.5,2.7-3.9,4.8-5.2
				C50.4,13.6,50.6,13.6,50.6,13.8z"/>
			<path d="M42.8,42.1c0,0.2-0.2,0.4-0.4,0.3c-2.2-0.9-4.2-1.9-5.6-3.7c-1.4-1.9-1.5-4.2-1.4-6.6c0-0.2,0.2-0.3,0.4-0.3
				c2.1,0.7,4,1.5,5.3,3.3C42.6,37.1,42.7,39.5,42.8,42.1z"/>
			<path d="M60.7,48.8c1-0.3,3.2-0.8,4.4-0.5c0.6,0.2,2,1.4,2.7,2c0.1,0.1,0.1,0.4,0,0.5c-1.5,0.9-3.7,1-5.1,0.2
				c-0.8-0.5-1.5-1-2.2-1.7C60.4,49.2,60.5,48.9,60.7,48.8z"/>
			<path d="M31.5,37.5c-1.1-0.2-2.2-0.3-3.3-0.5c-3.5-0.5-5.5-3.4-6.2-6.4c0-0.2,0.1-0.4,0.3-0.4c1.1,0,4.3,0.1,5.8,1.1
				c2.1,1.4,2.9,3.6,3.8,5.8C31.9,37.3,31.7,37.5,31.5,37.5z"/>
			<path d="M48.4,37.1c-0.2,0.1-0.4,0-0.4-0.2c-0.1-0.8-0.2-1.6-0.3-2.3c0-0.3,0-0.7,0-1c-0.3-3.1,1.1-5.4,3.6-7.1
				c0.5-0.3,0.9-0.6,1.4-1c0.2-0.1,0.4,0,0.5,0.1C54.8,30,52.8,35.1,48.4,37.1z"/>
			<path d="M50.9,50.5c-0.1-0.2-0.1-0.4,0.1-0.5c1.2-0.5,2.4-0.7,3.6-0.9c2-0.3,3.7,0.3,5.1,1.6c0.6,0.6,1.2,1.2,1.8,1.9
				c0.1,0.2,0.1,0.4-0.1,0.5c-1.9,0.7-3.7,1.3-5.6,0.8C53.8,53.4,52.4,52,50.9,50.5z"/>
			<path d="M26.8,43.6c5.6-2,8.4-0.7,11.8,3.7c0.1,0.2,0,0.4-0.2,0.5c-1.1,0.2-3.9,0.7-5.2,0.8c-1.4,0.1-2.7-0.6-3.7-1.5
				c-1-0.9-1.8-1.9-2.8-2.9C26.5,43.9,26.6,43.6,26.8,43.6z"/>
			<path d="M60,30.4c-0.2,0-0.4-0.2-0.3-0.4c0.3-1.1,1.3-3.8,1.8-4.9c0.4-1,1.3-1.7,2.2-2.2c1.5-0.8,3.1-1.3,4.8-1.4
				c0.2,0,0.4,0.2,0.3,0.3C68,27.3,65.8,29.4,60,30.4z"/>
			<path d="M56.5,35.6c0.7-0.4,1.5-0.8,2.2-1.1c1.4-0.6,2.8-1.2,4.4-1.1c2.3,0.2,4,1.4,5.8,2.8c0.2,0.1,0.1,0.4,0,0.5
				c-1.8,1.2-3.6,2.3-5.7,2.3c-2.6,0-4.7-1.5-6.7-2.9C56.5,35.9,56.5,35.8,56.5,35.6z"/>
			<path d="M37.1,51.7c0.2,0,0.3,0.2,0.3,0.4c-0.7,4.7-5.1,8.1-9.8,7.6c-0.2,0-0.3-0.2-0.3-0.3C27.8,54.9,32.7,51.1,37.1,51.7z"/>
			<path d="M42,30.1c-2.9,2-7,1.3-9.4-1.7c-0.1-0.1-0.1-0.3,0.1-0.4c2.8-2,7.4-1.2,9.4,1.7C42.2,29.8,42.1,30.1,42,30.1z"/>
			<path d="M41.7,10.2c3.5,2.8,3.8,5.2,2.2,9.3c-0.1,0.2-0.3,0.3-0.5,0.1c-1.3-1.1-2.3-2.4-2.9-3.9c-0.7-1.8-0.1-3.6,0.7-5.4
				C41.3,10.2,41.5,10.1,41.7,10.2z"/>
			<path d="M15.9,36c3.8-2.2,6-1.9,9.5,1.1c0.2,0.1,0.1,0.4-0.1,0.5c-1.1,0.5-3.8,1.5-5.1,1.4c-1.8-0.2-3.1-1.3-4.4-2.5
				C15.7,36.4,15.7,36.1,15.9,36z"/>
			<path d="M26.9,40.2c0,3.4-3.5,6.6-7.1,6.5c-0.2,0-0.3-0.2-0.3-0.3c0.2-3.5,3.1-6.2,7.1-6.5C26.7,39.9,26.9,40.1,26.9,40.2z"/>
			<path d="M31.5,18.3c4.5-0.5,8.2,1.9,9,5.8c0,0.2-0.1,0.3-0.2,0.4c-3.8,0.9-8.3-2-9.1-5.8C31.2,18.5,31.3,18.3,31.5,18.3z"/>
			<path d="M59.5,25c-2.1-3-1.5-6.8,1.4-9.5c0.1-0.1,0.3-0.1,0.4,0c2.1,2.5,1.4,7.2-1.4,9.5C59.8,25.1,59.6,25.1,59.5,25z"/>
			<path d="M65.4,30.2c-0.1-0.1-0.1-0.4,0-0.5c2.6-2.2,5.7-2.4,8.5-0.5c0.4,0.2,0.7,0.5,1,0.7c0.1,0.1,0.2,0.3,0.1,0.4
				C72.9,32.8,68.2,32.7,65.4,30.2z"/>
			<path d="M57.5,46c1.9-2.5,3.7-3,7.2-1.8c0.2,0.1,0.3,0.3,0.1,0.5c-0.8,0.9-1.7,1.6-2.7,2.1c-1.5,0.8-3,0.3-4.5-0.3
				C57.5,46.4,57.4,46.1,57.5,46z"/>
			<path d="M20,27.4c1.7-2.2,3.2-2.6,6.2-1.6c0.2,0.1,0.3,0.3,0.1,0.5c-0.6,0.8-1.4,1.4-2.3,1.8c-1.3,0.6-2.6,0.2-3.9-0.2
				C19.9,27.8,19.9,27.6,20,27.4z"/>
			<path d="M22,48.6c3.7-2.3,6.1-1.9,9.4,1.1c0.1,0.1,0.1,0.4,0,0.5c-2.9,2.2-6.6,1.8-9.5-1.1C21.8,48.9,21.8,48.7,22,48.6z"/>
			<path d="M74.6,40.6c-3.5,2.5-5.9,2.4-9.5-0.2c-0.2-0.1-0.2-0.4,0-0.5c1.4-0.9,2.8-1.6,4.4-1.8c2-0.2,3.6,0.8,5.1,2
				C74.8,40.2,74.8,40.5,74.6,40.6z"/>
			<path d="M59.3,42.1c-2.3,3.7-4.5,4.4-8.9,3.4c-0.2,0-0.3-0.3-0.2-0.5c0.9-1.4,2-2.5,3.4-3.3c1.8-1,3.6-0.6,5.5-0.1
				C59.3,41.7,59.4,41.9,59.3,42.1z"/>
			<path d="M27.8,9.6c3,0.3,4.2,1.6,4.8,4.6c0,0.2-0.1,0.4-0.3,0.4c-2.5,0.1-4.4-1.7-4.9-4.6C27.5,9.7,27.6,9.5,27.8,9.6z"/>
			<path d="M57.2,17.4c0.1,2.8-2.6,5.5-5.7,5.6c-0.2,0-0.3-0.2-0.3-0.4c0.2-1.3,0.7-2.6,1.5-3.7c1-1.3,2.5-1.6,4.1-1.9
				C57,17,57.2,17.2,57.2,17.4z"/>
			<path d="M31.9,26.6c-0.5,2-2.9,3.3-5.1,2.9c-0.2,0-0.3-0.3-0.2-0.4c0.4-0.9,1-1.7,1.8-2.3c1-0.7,2.1-0.7,3.2-0.6
				C31.8,26.3,31.9,26.5,31.9,26.6z"/>
			<path d="M72.3,47.7c-3.5,0.2-5.1-1-6.4-4.4c-0.1-0.2,0.1-0.4,0.3-0.4c3.5-0.1,5.4,1.1,6.4,4.4C72.7,47.5,72.5,47.7,72.3,47.7z"/>
			<path d="M27.3,53.2c-2.2,2.9-4.1,3.6-7.4,2.5c-0.2-0.1-0.3-0.3-0.2-0.5c1.9-3,4-3.5,7.4-2.5C27.3,52.8,27.4,53,27.3,53.2z"/>
			<path d="M22.7,21.3c4.1-1.9,6.5-1.2,9.6,2.2c0.1,0.1,0.1,0.4-0.1,0.5c-3,1.9-7.7,0.8-9.6-2.3C22.5,21.6,22.6,21.4,22.7,21.3z"/>
			<path d="M31.9,16.6c-1.3,1.3-3.7,1.4-5.2,0.1c-0.1-0.1-0.1-0.4,0-0.5c0.7-0.5,1.5-0.9,2.4-1c1.1-0.2,2,0.3,2.8,0.9
				C31.9,16.3,32,16.5,31.9,16.6z"/>
			<path d="M46.3,48.5c0,0,1.4-0.7,4.3-1.4c3-0.7,7.2,0.3,8.9,0.8c0,0-1.2-0.3-4.5-0.3c-2.9,0-5.2,1.2-6.8,2.8
				c-1.6,1.6-2.5,3.3-2.5,3.3L46.3,48.5z"/>
		</g>
	</g>
	<text transform="matrix(1 0 0 1 18.8131 87.5947)" class="st1 st2">Environment</text>
</g>
</svg>
