<?xml version="1.0" encoding="utf-8"?>
<!-- Generator: Adobe Illustrator 19.2.0, SVG Export Plug-In . SVG Version: 6.00 Build 0)  -->
<svg version="1.1" id="Explore2_xA0_Image_1_" xmlns="http://www.w3.org/2000/svg" xmlns:xlink="http://www.w3.org/1999/xlink"
	 x="0px" y="0px" viewBox="0 0 1200 1512" style="enable-background:new 0 0 1200 1512;" xml:space="preserve">
<style type="text/css">
	.st0{fill:#020201;}
	.st1{fill:#FDFDFD;}
	.st2{fill:#FEFE00;}
</style>
<g>
	<g>
		<path class="st0" d="M1201,313c0,400,0,800,0,1200c-400,0-800,0-1200,0C1,1009,1,505,1,1c399.7,0,799.3,0,1199,0
			c0,102.2,0,204.4,0,306.6C1200,309.4,1200.7,311.2,1201,313z M601.9,1482.5c163.8,0,327.7-0.1,491.5,0.1c25.1,0,45-10.2,60.3-29.6
			c16-20.2,22.3-43.7,22.3-69.2c-0.3-201.1-0.7-402.2-0.9-603.3c-0.1-113-0.1-226,0.1-339c0-16-3.2-31.1-10.3-45.1
			c-14.6-28.6-36.6-47.3-70.4-47.3c-328.5-0.1-657-0.1-985.5-0.1c-22.9,0-41.6,9.2-56.4,26.3c-17.9,20.7-25,45.2-25,72.2
			c0,312.2,0,624.3,0,936.5c0,14.8,2.1,29.1,7.3,42.9c14.1,36.9,41.1,55.6,80.4,55.6C277.6,1482.5,439.7,1482.5,601.9,1482.5z
			 M600.4,282.5c164,0,328,0,491.9,0.1c16.9,0,32.2-4.3,45.5-14.8c24.9-19.7,35.7-46.5,37-77.4c0.8-19.5,0.2-39,0.1-58.5
			c-0.1-15.6-3.1-30.7-9.9-44.8c-15.5-32.3-39.8-50.4-77.2-50.1c-77,0.6-154,0.2-231,0.2c-249.3,0-498.6,0-747.9,0
			c-9.9,0-19.7,1.1-28.7,5.3c-34.9,16.2-50.2,45.8-53.1,82.2c-1.7,21.9-0.3,44-0.3,66c0,12.8,2.7,25,7.3,36.9
			c14.1,36.6,41.1,55.1,80.3,55.1C276.5,282.5,438.4,282.5,600.4,282.5z"/>
		<path class="st1" d="M1201,313c-0.3-1.8-1-3.6-1-5.4c0-102.2,0-204.4,0-306.6c0.3,1.5,1,3,1,4.5c0,86.8,0,173.7,0,260.5
			C1201,281.7,1201,297.3,1201,313z"/>
		<path class="st1" d="M601.9,1482.5c-162.2,0-324.3,0-486.5,0c-39.3,0-66.3-18.7-80.4-55.6c-5.3-13.8-7.4-28.2-7.3-42.9
			c0-312.2,0-624.3,0-936.5c0-27,7.1-51.5,25-72.2c14.8-17.1,33.5-26.3,56.4-26.3c328.5,0,657,0,985.5,0.1
			c33.7,0,55.7,18.7,70.4,47.3c7.2,14,10.4,29.1,10.3,45.1c-0.2,113-0.2,226-0.1,339c0.2,201.1,0.6,402.2,0.9,603.3
			c0,25.5-6.3,49-22.3,69.2c-15.4,19.4-35.2,29.6-60.3,29.6C929.5,1482.5,765.7,1482.5,601.9,1482.5z M144.6,814.8
			c-2.2,0.5-3.6,0.9-5.1,1.2c-22.2,4.8-43.8,11.1-63.9,21.9C64.3,844,53.6,851,46.8,862.6c-0.5,0.8-1.7,1.5-2.6,1.7
			c-7.2,1.1-9,3-9.2,10.2c-0.3,8.6,2.8,16.3,6.6,23.8c8.2,16,19.6,29.7,31.9,42.7c41.1,43.2,89.6,76.2,142.6,103
			c13.9,7,28.7,12,43.2,17.7c3.5,1.4,8.4-0.1,9.6,5.3c0.4,2,0.6,4,1.2,5.9c2.6,7.5,5.3,14.9,8,22.4c0.9,2.6,1.6,5.2,2.7,7.7
			c2.6,5.8,5.3,11.5,8,17.3c3.7,7.9,7.4,15.7,11.4,23.5c2.7,5.2,5.8,10.1,8.7,15.3c3.2,5.9,6,12.1,9.6,17.7
			c5.5,8.5,11.5,16.7,17.7,24.7c7.8,10.3,15.9,20.4,24.2,30.4c4,4.8,8.8,9,13.2,13.5c7.9,7.9,15.4,16.3,23.7,23.7
			c9.2,8.2,19,15.6,28.8,23.1c10.3,7.9,20.5,16,31.3,23.1c10.4,6.8,21.6,12.5,32.6,18.5c7.2,4,14.5,8,22,11.5
			c7.8,3.6,15.9,6.5,23.9,9.7c1.6,0.6,3.4,0.9,5,1.5c4.9,1.9,9.7,4.1,14.7,5.8c5.6,1.9,11.3,3.3,16.9,5.1c3.4,1,6.6,2.6,10,3.3
			c7.5,1.7,15.2,2.8,22.8,4.5c6.8,1.5,13.2,4.6,20.3,4.1c0.5,0,1-0.1,1.5,0c6.3,1.4,12.6,3.1,19,4c5.7,0.8,11.5,1,17.3,0.9
			c31.8-0.2,63.6-0.5,95.3-0.8c0.7,0,1.5,0.2,2-0.2c6.6-4.3,14.5-1.6,21.5-3.9c5.2-1.7,10.8-2.1,16.3-3.1c3-0.5,6.1-0.6,8.9-1.5
			c6.6-2,13-4.6,19.7-6.6c5.9-1.8,12-3.2,18-4.7c2.2-0.6,4.4-0.8,6.5-1.6c4.9-2,9.5-4.6,14.5-6.4c6-2.3,12.5-3.7,18.3-6.4
			c10.1-4.6,20-9.8,29.8-15c7.3-3.9,14.4-8.1,21.4-12.5c11.3-7,22.7-13.8,33.5-21.5c10.7-7.6,20.9-15.8,30.9-24.3
			c8.4-7.2,16.3-15.1,24.3-22.9c6.5-6.3,12.9-12.8,19-19.5c7.6-8.6,15.1-17.3,22.1-26.4c6.5-8.5,12.3-17.5,18.1-26.4
			c4.8-7.3,9-15,13.6-22.4c1.9-3.1,4.1-6.3,6.8-8.6c2.6-2.1,6.2-2.9,9.1-4.6c14.3-8,23.8-20.1,27-36c2.7-13.3,4.2-27,4.9-40.5
			c0.9-17.8-0.4-35.6,3.3-53.2c0.1-0.5,0-1,0.1-1.5c1.3-5.9,3.3-11.8,3.7-17.7c0.8-11.7,1.3-23.6,0.9-35.3
			c-1-27.4,2.8-54.9-2.8-82.2c-1.7-8.1-1.2-16.6-4.3-24.7c-1.3-3.5-1.3-7.6-2.1-11.3c-2-9.1-4.2-18.2-6.4-27.3
			c-0.1-0.5-0.3-0.9-0.5-1.4c-2-5.5-4-10.9-5.9-16.4c-2.3-6.6-4.2-13.4-6.8-19.9c-2.4-6-5.4-11.8-8.1-17.7
			c-2.1-4.7-3.7-9.7-6.1-14.2c-4.4-8.2-9.4-16.2-14-24.3c-3.3-5.8-6-12-9.6-17.6c-5.3-8.2-11-16.3-16.9-24.1
			c-8.1-10.6-16.5-21-25.1-31.3c-3.9-4.7-8.5-8.8-12.9-13.1c-8-8-15.7-16.4-24.1-23.9c-9.1-8.1-18.7-15.4-28.4-22.8
			c-10.3-7.9-20.5-16.1-31.4-23.2c-10.5-6.9-21.8-12.6-32.8-18.7c-7.2-3.9-14.4-7.9-21.8-11.3c-7.8-3.6-15.9-6.5-23.9-9.7
			c-6-2.4-12-5.2-18.1-7.2c-5.4-1.8-11.1-3-16.7-4.3c-2.9-0.7-6-1.1-8.8-2c-6.4-2-12.7-4.9-19.2-6.3c-9.1-2-18.5-3-27.8-4.4
			c-0.3-0.1-0.7-0.1-1-0.2c-6.3-1.3-12.6-3.4-19-3.8c-11.4-0.8-22.9-1-34.3-1c-24.4,0.1-48.9,0.4-73.3,0.9c-7,0.2-14.1,1.5-21.1,2.4
			c-3.5,0.4-6.9,1.1-10.4,1.7c-0.8,0.1-1.7,0.1-2.4,0.3c-4.8,1.3-9.5,2.8-14.4,3.9c-4.8,1.2-9.6,2.1-14.4,3.1
			c-2.3,0.5-4.7,0.7-6.9,1.4c-5.9,2-11.6,4.5-17.5,6.4c-5.3,1.8-10.8,3.2-16.2,4.7c-2,0.6-4,1-5.9,1.8c-4.4,2-8.7,4.4-13.2,6.2
			c-5.6,2.3-11.6,3.7-17.1,6.3c-7.3,3.4-14.2,7.4-21.3,11.1c-6.4,3.3-13,6.2-19.1,10c-10,6.3-19.6,13-29.3,19.8
			c-9,6.4-18,12.9-26.7,19.8c-7.9,6.3-15.5,12.9-22.8,19.8c-9.2,8.8-18.1,18-26.7,27.4c-6.2,6.7-6,7-14.8,4
			c-22-7.6-44-15.1-65.9-22.9c-5.6-2-11-4.6-16.1-7.6c-32.6-19.1-66.1-21.4-100.2-5.1c-49.9,23.8-76.2,84-62.2,139.8
			C112.8,776.1,125.1,797.1,144.6,814.8z"/>
		<path class="st1" d="M600.4,282.5c-162,0-324,0-485.9,0c-39.1,0-66.1-18.4-80.3-55.1c-4.6-11.8-7.3-24.1-7.3-36.9
			c0-22-1.4-44.1,0.3-66c2.9-36.4,18.2-66,53.1-82.2c9-4.2,18.8-5.3,28.7-5.3c249.3,0,498.6,0,747.9,0c77,0,154,0.4,231-0.2
			c37.4-0.3,61.7,17.8,77.2,50.1c6.8,14.1,9.8,29.2,9.9,44.8c0.1,19.5,0.6,39-0.1,58.5c-1.2,30.9-12.1,57.7-37,77.4
			c-13.3,10.5-28.6,14.9-45.5,14.8C928.4,282.5,764.4,282.5,600.4,282.5z M772.1,177.2c5.3-1.2,7,2.4,8.1,6.2
			c2.7,9.9,5.1,19.9,7.7,29.9c3.9,14.8,7.7,29.6,11.8,44.3c0.4,1.4,2.4,3.2,3.8,3.3c8.5,0.3,17,0.4,25.5-0.1
			c1.8-0.1,4.3-2.8,4.8-4.8c0.8-2.9,0.2-6.3,0.2-9.4c-0.4,0.2-0.8,0.5-1.1,0.7c-2.4-3.4-5.6-6.5-7-10.2c-2.8-7.6-4.8-15.5-6.8-23.4
			c-4.2-16.1-6.2-33-18-46.5c8.6-7.6,14.1-16.9,16.9-27.8c3.6-13.9,4-28,2.3-42.1c-0.9-7.7-2.9-15.4-5.8-22.5
			c-4.9-11.7-14.1-19.1-27.1-19.7c-15.3-0.7-30.6-0.6-45.9-0.6c-2.1,0-5.7,1.7-5.9,3c-0.5,3.9-1.2,9.9,0.9,11.5
			c5.4,4.1,6.4,9,6.4,14.8c0,46.1,0.1,92.3,0.1,138.4c0,4.2,0.2,8.4-0.3,12.5c-0.4,3-1,7.4-3,8.5c-5.7,3.1-4.5,7.8-4.5,12.4
			c0,3.7,1.8,5.5,5.5,5.5c11.2,0,22.3,0.1,33.5-0.1c1.6,0,3.6-1,4.6-2.2c2.4-2.9,0.3-11.5-2.2-14.2c-2.1-2.3-4.2-5.6-4.3-8.5
			C771.9,216.5,772.1,197,772.1,177.2z M722.2,153.2c-0.3-7-0.4-16.4-1.2-25.7c-1.4-17.8-3.9-35.4-11.8-51.7
			c-4.4-9.1-10.5-16.6-20-20.8c-16.9-7.5-34.6-0.9-45.5,16.9c-6.9,11.4-10.5,24-12.7,37c-5.5,32.3-5.4,64.7-0.9,97
			c2,14.5,5.5,28.8,14.2,41.1c14.4,20.5,42.2,21.4,57.2,1.3c5-6.6,8.7-14.6,11.5-22.4C720.9,203.2,721.6,179.3,722.2,153.2z
			 M394.6,118.3c-2.1-6.9-4-12.2-5.3-17.7c-1.9-7.7-3.7-15.5-5.1-23.3c-0.6-3.3,0-6.7,4.4-7.8c0.8-0.2,1.5-1.9,1.7-3
			c0.3-2,0-4,0.1-6c0.3-4.7-1.7-6.6-6.4-6.5c-11,0.2-22-0.1-33,0.2c-2.3,0.1-6.2,1.5-6.5,2.8c-0.7,3.9-0.8,8.3,0.4,12
			c1.2,3.9,4.9,7,6.1,10.9c8.4,26.4,16.5,53,24.5,79.5c0.5,1.7,0.2,4-0.4,5.7c-7,20.2-14,40.5-21.3,60.6c-2.1,5.9-4.2,12.3-8.2,16.9
			c-3.5,4-3.7,7.6-3.8,12c-0.1,4.4,1.7,6.4,6.2,6.3c7.8-0.1,15.7-0.1,23.5,0c4.6,0.1,6.8-1.8,6.6-6.5c-0.1-2,0.2-4-0.1-6
			c-0.1-1.1-0.8-2.7-1.6-3c-3.6-1.2-4.5-4-4.3-7c0.3-4.8,0.5-9.7,1.8-14.3c3.2-11,7-21.7,10.9-33.8c1.2,3.6,2.1,6,2.7,8.5
			c3.3,12.2,6.7,24.3,9.6,36.6c1.1,4.7,0.4,9.6-6.1,10.5c0,3,0.1,5.9,0,8.7c-0.2,4.4,1.9,6.3,6.3,6.3c11.2-0.1,22.3,0.1,33.5-0.2
			c2.3-0.1,6.2-1.5,6.4-2.9c0.7-3.8,0.7-8.2-0.5-11.9c-1.3-4.1-5.1-7.3-6.4-11.4c-9.1-28.7-17.8-57.4-26.5-86.2
			c-0.4-1.4-0.2-3.3,0.3-4.7c6.7-19.3,13.4-38.6,20.4-57.8c1.7-4.8,3.4-10.3,6.9-13.6c4-3.8,3.7-7.6,3.9-11.9c0.2-4.8-2-6.5-6.6-6.4
			c-5.3,0.2-10.7,0.1-16,0c-14.6-0.2-13.7-0.4-13.5,14c0,0.3,0.2,0.6,0.5,1.2c5.2,0.6,5.5,4.7,5.5,8.9
			C405.2,92,398.4,104,394.6,118.3z M320,106.9c3,0,5.5,0,8,0c5.9,0,7-1.1,7-6.9c0-13.2-0.1-26.3,0.1-39.5c0-4.7-2-6.5-6.6-6.5
			c-22,0.1-44,0-66,0.2c-2.1,0-5.7,1.8-5.9,3.1c-0.5,3.9-1.2,9.9,0.9,11.5c5.4,4.1,6.3,9,6.4,14.8c0,46.1,0.1,92.3,0.1,138.4
			c0,4.3,0.2,8.7-0.4,13c-0.4,3-1.3,7.3-3.3,8.4c-5,2.6-4.2,6.6-4.2,10.6c0,5.8,1.2,7,7,7c22.3,0,44.6,0,67,0c1.3,0,2.6-0.1,4.1-0.2
			c0.5-18.2,1.2-36.2,1.3-54.2c0-1.8-2.5-4.7-4.4-5.2c-3.4-0.8-7.1-0.2-10.8-0.2c-0.2,1.6-0.3,2.6-0.5,3.6c-2,9.1-3.8,18.2-6.4,27.1
			c-0.7,2.4-3.5,5.5-5.8,5.9c-4.8,0.9-9.8,0.3-14.9,0.3c0-24.5,0-48.5,0-72.6c10-1.2,11.2-0.4,13,8.9c0.7,3.9,1.3,7.7,1.9,11.7
			c2.2,0,3.8,0,5.5,0c7.3,0,7.9-0.6,7.9-8.1c0-15-0.2-30,0.1-45c0.2-12.7-0.5-12.1-12.7-11.7c-0.2,0-0.3,0.1-0.8,0.3
			c-0.6,3.7-1.1,7.6-1.8,11.5c-1.7,8.9-3.9,10.3-12.9,8.4c0-21.4,0-42.8,0-64.5c4.9,0,9.6-0.4,14.2,0.2c2.1,0.3,4.5,1.9,5.8,3.7
			c1.6,2.2,2.4,5.1,3.1,7.8C317.5,94.6,318.6,100.6,320,106.9z M875.9,238.1c0-24.7,0-48.7,0-72.8c10.3-1,11.2-0.3,13,9.5
			c0.6,3.6,1.2,7.2,1.8,11.1c1.9,0,3.5,0,5.2,0c7.7,0,8.2-0.5,8.2-8.2c0-15.2,0-30.3,0-45.5c0-11.4-0.2-11.6-11.8-11.2
			c-0.5,0-0.9,0.2-1.7,0.4c-0.6,3.9-1.1,7.8-1.8,11.7c-1.7,8.8-4.2,10.3-12.8,8.3c0-21.5,0-42.9,0-64.5c4.8,0,9.3-0.4,13.7,0.2
			c2.3,0.3,4.8,2,6.2,3.8c1.6,2.1,2.4,5.1,3.1,7.8c1.5,6,2.6,12,4,18.2c2.8,0,5.5,0,8.1,0c5.8,0,6.9-1.1,6.9-7.1c0-13,0-26,0-39
			c0-5.5-1.2-6.8-6.7-6.8c-21.8,0-43.6-0.1-65.5,0.1c-2.2,0-6,1.7-6.3,3.2c-0.7,3.7-1.3,9.9,0.6,11.2c7,4.6,6.7,11,6.7,17.6
			c0.1,44.5,0.1,89,0.1,133.4c0,5,0.2,10-0.4,15c-0.4,3.1-1.3,7.6-3.4,8.8c-4.7,2.6-4.1,6.2-4.1,10.1c0,6.2,1.1,7.4,7.1,7.4
			c22.2,0,44.3,0,66.5,0c1.4,0,2.9-0.1,4.5-0.2c0.5-18.4,1.1-36.3,1.4-54.3c0-1.7-2.3-4.7-4-5c-3.6-0.8-7.5-0.2-10.3-0.2
			c-2.6,10.6-4.8,20.3-7.3,29.9c-1.3,5.1-4.6,7.8-10.3,7.2C883.3,237.8,879.8,238.1,875.9,238.1z M481.2,177.7
			c23.7,2.1,38-7.2,44.9-34.2c1.9-7.2,2.9-14.7,3.5-22.1c1.1-13.7,0.5-27.3-3.7-40.5c-5.4-17.3-17.2-26.3-35.4-26.7
			c-13.1-0.3-26.3-0.2-39.5,0c-2.2,0-6.1,1.6-6.4,3.1c-0.8,3.7-1.4,10,0.5,11.2c7.5,4.8,6.8,11.7,6.8,18.6
			c0.1,44.1,0.1,88.3,0.1,132.4c0,5,0.2,10-0.4,15c-0.3,3-1,7.3-3,8.5c-4.9,2.9-4.6,6.9-4.6,11.4c0,4.6,1.8,6.7,6.5,6.6
			c8.5-0.1,17-0.1,25.5,0c14.5,0.1,13.7,0.9,13.4-13.9c0-0.3-0.3-0.6-0.6-1.2c-4.8-1-7.6-4.3-7.7-9.4
			C481.1,217,481.2,197.5,481.2,177.7z M577.7,238c0-2.2,0-3.9,0-5.7c0-44.1,0-88.3,0-132.4c0-6.5,0-13,0.5-19.5
			c0.3-3,1.1-7.2,3.1-8.5c5-3,4.1-7.3,4.3-11.6c0.2-4.4-1.8-6.3-6.2-6.3c-10.5,0.1-21-0.1-31.5,0.2c-2.2,0.1-6,1.7-6.3,3.2
			c-0.7,3.7-1.3,9.9,0.7,11.2c6.7,4.5,6.7,10.7,6.7,17.2c0.1,44.6,0.1,89.3,0.1,133.9c0,4.8,0.2,9.7-0.4,14.5c-0.4,3.2-1,7.6-3.2,9
			c-4.6,2.9-4.5,6.7-4.4,11c0.1,5.6,1.4,6.8,7.2,6.8c21.3,0,42.6,0,64,0c1.5,0,2.9,0,4.8,0c0-2,0-3.7,0-5.3
			c0.4-15.6,0.5-31.3,1.3-46.9c0.8-15.4,0-13.8-14.5-13.5c-0.1,0-0.3,0.2-0.7,0.5c-0.4,3.7-0.7,7.6-1.4,11.5
			c-1.6,8.1-3,16.4-5.3,24.3c-0.8,2.6-4,5.4-6.7,6.2C586.2,238.8,582,238,577.7,238z"/>
		<path class="st0" d="M144.6,814.8c-19.6-17.7-31.8-38.8-38.1-63.5c-14.1-55.8,12.3-116,62.2-139.8c34.1-16.2,67.6-13.9,100.2,5.1
			c5.1,3,10.5,5.6,16.1,7.6c21.9,7.8,43.9,15.3,65.9,22.9c8.8,3,8.5,2.8,14.8-4c8.6-9.4,17.5-18.5,26.7-27.4
			c7.2-7,14.9-13.6,22.8-19.8c8.6-6.9,17.6-13.4,26.7-19.8c9.6-6.8,19.3-13.5,29.3-19.8c6.1-3.8,12.7-6.7,19.1-10
			c7.1-3.7,14-7.8,21.3-11.1c5.5-2.5,11.5-4,17.1-6.3c4.5-1.8,8.8-4.2,13.2-6.2c1.9-0.8,3.9-1.2,5.9-1.8c5.4-1.6,10.9-3,16.2-4.7
			c5.9-2,11.6-4.4,17.5-6.4c2.2-0.8,4.6-0.9,6.9-1.4c4.8-1,9.6-1.9,14.4-3.1c4.8-1.2,9.6-2.7,14.4-3.9c0.8-0.2,1.6-0.2,2.4-0.3
			c3.5-0.6,6.9-1.2,10.4-1.7c7-0.9,14-2.2,21.1-2.4c24.4-0.6,48.9-0.8,73.3-0.9c11.4,0,22.9,0.1,34.3,1c6.4,0.5,12.7,2.5,19,3.8
			c0.3,0.1,0.6,0.1,1,0.2c9.3,1.4,18.6,2.4,27.8,4.4c6.6,1.4,12.8,4.3,19.2,6.3c2.9,0.9,5.9,1.3,8.8,2c5.6,1.4,11.2,2.5,16.7,4.3
			c6.2,2.1,12.1,4.8,18.1,7.2c8,3.2,16.1,6.1,23.9,9.7c7.4,3.4,14.6,7.3,21.8,11.3c11,6.1,22.3,11.8,32.8,18.7
			c10.9,7.1,21.1,15.2,31.4,23.2c9.6,7.4,19.3,14.8,28.4,22.8c8.4,7.5,16.1,15.9,24.1,23.9c4.3,4.3,9,8.4,12.9,13.1
			c8.6,10.2,17,20.7,25.1,31.3c6,7.8,11.6,15.8,16.9,24.1c3.6,5.6,6.4,11.8,9.6,17.6c4.6,8.1,9.6,16.1,14,24.3
			c2.4,4.5,4,9.5,6.1,14.2c2.6,5.9,5.7,11.7,8.1,17.7c2.6,6.5,4.5,13.3,6.8,19.9c1.9,5.5,3.9,10.9,5.9,16.4c0.2,0.5,0.4,0.9,0.5,1.4
			c2.1,9.1,4.3,18.2,6.4,27.3c0.8,3.7,0.8,7.8,2.1,11.3c3,8,2.6,16.6,4.3,24.7c5.6,27.3,1.8,54.9,2.8,82.2
			c0.4,11.8-0.1,23.6-0.9,35.3c-0.4,6-2.5,11.8-3.7,17.7c-0.1,0.5,0,1-0.1,1.5c-3.7,17.6-2.4,35.4-3.3,53.2
			c-0.7,13.6-2.2,27.2-4.9,40.5c-3.2,15.9-12.7,28-27,36c-3,1.7-6.6,2.5-9.1,4.6c-2.8,2.3-4.9,5.5-6.8,8.6
			c-4.7,7.4-8.9,15.1-13.6,22.4c-5.8,9-11.6,18-18.1,26.4c-6.9,9.1-14.5,17.8-22.1,26.4c-6,6.8-12.5,13.2-19,19.5
			c-7.9,7.8-15.8,15.7-24.3,22.9c-10,8.5-20.2,16.8-30.9,24.3c-10.8,7.7-22.2,14.5-33.5,21.5c-7,4.4-14.1,8.6-21.4,12.5
			c-9.8,5.2-19.7,10.4-29.8,15c-5.9,2.7-12.3,4-18.3,6.4c-4.9,1.9-9.6,4.4-14.5,6.4c-2,0.8-4.3,1.1-6.5,1.6c-6,1.5-12.1,2.9-18,4.7
			c-6.6,2-13.1,4.5-19.7,6.6c-2.9,0.9-6,1-8.9,1.5c-5.4,0.9-11.1,1.4-16.3,3.1c-7.1,2.2-14.9-0.4-21.5,3.9c-0.5,0.3-1.3,0.1-2,0.2
			c-31.8,0.3-63.6,0.6-95.3,0.8c-5.8,0-11.6-0.1-17.3-0.9c-6.4-0.9-12.7-2.7-19-4c-0.5-0.1-1-0.1-1.5,0c-7.1,0.4-13.6-2.7-20.3-4.1
			c-7.5-1.7-15.2-2.8-22.8-4.5c-3.4-0.8-6.7-2.3-10-3.3c-5.6-1.7-11.3-3.2-16.9-5.1c-5-1.7-9.8-3.9-14.7-5.8c-1.6-0.6-3.4-0.9-5-1.5
			c-8-3.2-16.1-6.1-23.9-9.7c-7.5-3.4-14.7-7.5-22-11.5c-10.9-6-22.1-11.7-32.6-18.5c-10.8-7.1-21-15.2-31.3-23.1
			c-9.8-7.5-19.6-14.9-28.8-23.1c-8.3-7.4-15.8-15.7-23.7-23.7c-4.4-4.5-9.2-8.7-13.2-13.5c-8.3-9.9-16.3-20.1-24.2-30.4
			c-6.1-8-12.1-16.3-17.7-24.7c-3.7-5.6-6.4-11.8-9.6-17.7c-2.8-5.1-6-10.1-8.7-15.3c-4-7.7-7.6-15.6-11.4-23.5
			c-2.7-5.7-5.4-11.5-8-17.3c-1.1-2.5-1.8-5.1-2.7-7.7c-2.7-7.5-5.4-14.9-8-22.4c-0.7-1.9-0.8-3.9-1.2-5.9c-1.2-5.4-6.1-3.9-9.6-5.3
			c-14.5-5.7-29.4-10.7-43.2-17.7c-53-26.7-101.5-59.7-142.6-103c-12.3-12.9-23.6-26.7-31.9-42.7c-3.8-7.4-6.9-15.1-6.6-23.8
			c0.2-7.3,2-9.1,9.2-10.2c1-0.1,2.1-0.9,2.6-1.7c6.8-11.6,17.5-18.5,28.9-24.7c20.1-10.8,41.7-17.1,63.9-21.9
			C141,815.7,142.5,815.3,144.6,814.8z M694.1,808.8c-0.7,0.3-1.4,0.5-2.1,0.8c-1.5-1.7-2.9-3.5-4.4-5.2c-6-7.1-11.7-14.6-18.3-21.2
			c-3.1-3.2-7.7-6.4-11.9-6.9c-11.2-1.2-22.5-0.7-33.7-1.4c-7.8-0.5-14.7,2-21.6,4.9c-5.1,2.2-8.1,4.5-8.5,10.9
			c-0.4,8.6,3.1,14.9,11.5,15.1c6.7,0.2,13.4-1.2,20.1-1.5c7.2-0.3,15.1-2.3,21,3.6c2.6,2.6,4.4,6.7,5.2,10.4
			c0.9,4.1,0.6,8.6-0.1,12.7c-0.6,3.5-4.3,2.9-7,3.2c-0.6,0.1-1.3,0.4-1.7,0.9c-4.6,5.1-10.9,9.6-13.2,15.6
			c-5,12.9-3.5,26.7,5.1,37.4c11.8,14.7,25.5,27.9,46.1,29.7c4.3,0.4,8.5,1.4,12.8,2.1c0.9,0.2,2.1,0.3,2.7,0.9
			c3.1,3.6,6.1,7.3,9.1,11c7.5,9.1,14.7,18.4,22.4,27.3c23.2,26.6,47.4,52.4,69.7,79.8c23.6,29,55.1,45.7,87.8,60.7
			c13.5,6.2,28.9,8.4,43.5,12.4c5.3,1.4,10.6,2.6,15.9,4c4.5,1.2,8.8,2.9,13.3,3.9c4.6,1.1,9.3,1.4,13.9,2.4
			c12.9,2.8,25.7,6,38.7,8.5c4,0.8,8.4-0.6,12.6-0.6c12.2,0.1,24.5,0.4,36.7,0.8c2.7,0.1,5.5,0.8,8,1.9c6.8,3,13.7,6.2,21.1,4.6
			c17.8-3.8,30.6-13.5,36.2-31.8c3.1-10.2,1.7-20.5,2.7-30.7c0.9-8.5,0.6-17.2,1.2-25.8c1.2-17.3,1.9-34.6-2.2-51.6
			c-1.8-7.4,0.2-13.4,3.5-19.5c1.1-2.1,2.2-4.2,3.3-6.3c0.8,1.4,1.7,2.9,3.2,5.4c0-16.7,0.3-32.2-0.1-47.6c-0.4-15,1.4-30-3.1-45
			c-2.2-7.5-2.3-15.8-3.8-23.8c-2-10.7-5.2-21.1-7.7-31.7c-0.4-1.8-0.2-3.7-0.8-5.3c-1.9-5.1-4.3-10.1-6.1-15.3
			c-2.2-6.2-3.4-12.8-6-18.8c-4.9-11.1-10.5-22-16-32.9c-4.9-9.7-9.9-19.4-15.5-28.6c-5.9-9.7-12-19.3-19-28.1
			c-10.9-13.8-22.4-27.1-34.2-40.1c-8.4-9.3-17.1-18.3-26.4-26.6c-9.6-8.6-20-16.4-30.3-24.2c-8-6-16.5-11.6-24.9-17.1
			c-7.6-5-15.3-10-23.2-14.5c-7.6-4.3-15.5-8.2-23.5-11.9c-9-4.2-18-8.4-27.3-12c-8.2-3.2-16.7-5.5-25.1-8.1
			c-2.1-0.7-4.3-1.1-6.4-1.9c-5.8-2-11.5-4.4-17.4-5.9c-6.9-1.8-14.1-2.9-21.1-4.2c-6.4-1.3-12.8-2.5-19.2-3.8
			c-0.6-0.1-1.3-0.1-2-0.2c-6.2-1.3-12.4-2.9-18.7-3.7c-5.4-0.7-11-0.6-16.4-0.6c-24.5-0.1-49-0.1-73.5,0c-6.1,0-12.3,0-18.4,0.8
			c-6.8,0.8-13.5,2.5-20.2,3.7c-5.4,1-10.8,1.8-16.1,2.7c-3,0.5-6.1,0.7-8.9,1.6c-6.3,1.9-12.4,4.3-18.6,6
			c-7.6,2.1-15.4,3.3-22.9,5.9c-8.2,2.8-15.9,7.2-24.1,10c-9.2,3.1-17.9,7-26.3,11.8c-10.9,6.3-22.3,11.6-33.4,17.5
			c-5.1,2.7-10.3,5.3-15.1,8.6c-8.3,5.8-16.2,11.9-24.2,18.1c-8.1,6.3-16.3,12.5-24.1,19.1c-6.9,5.8-13.5,12.1-20,18.4
			c-3.2,3.1-5.9,6.7-9.3,10.5c9.7,3.4,18.7,6.5,27.7,9.6c3.8-6.5,7-12.9,11-18.8c33.6-50.4,97.3-64.5,146.8-32.7
			c2.9,1.9,5.8,4.1,8.9,5.5c52.1,23.2,104.2,46.3,156.4,69.2c8.3,3.7,17.1,7.3,25.9,8.6c7.5,1.1,13.4,4.1,19.1,8.3
			c13.1,9.6,21.8,22.7,28.6,37.2c0.8,1.8,2.8,4,4.5,4.3c14.1,2.5,28.2,4.5,42.3,6.7c0.9,0.1,1.9,0.5,2.7,1
			c10.2,7.3,18.1,16.4,23.4,28c11.1,23.8-16.5,58.4-39.9,51.2c-2.7-0.8-5.6-1-8.3-1.5c-6.6-1.2-13.3-2.5-19.8-3.7
			c-4,10.1-9.5,18.5-16.5,26.1c-6.9,7.5-13,15.8-19.6,23.9c7.5,3.8,8.4,10.4,8.3,16.9c-0.1,10.3,2.9,19.6,8.9,27.5
			c6.8,9,14,17.9,22.1,25.6c27.5,26.2,59.2,46.9,91.2,67c1.5,0.9,4.1,0.8,6,0.4c11.1-2.3,22-5.1,33.1-7.3c6.1-1.2,12.4-1.8,19.1-2.8
			c-3-12.6-5.9-24.7-8.8-36.8c0.4-0.1,0.9-0.2,1.3-0.2c0.9,1.4,1.7,2.8,3.3,5.5c0-5.2-0.4-9,0.1-12.6c1.4-10.7,2.7-21.4,5-31.9
			c1.2-5.6,4.8-10.3,10.2-12.9c0,16.7-0.1,33,0.1,49.4c0.1,8.3,0.7,16.6,1.3,24.9c0.8,9.7,2,19.3,3,29c-8.5,0.8-15.6,1.4-22.7,2.2
			c-16.6,1.8-33,7.5-49.9,5.2c-6.7-0.9-14-2.3-19.5-5.9c-17.8-11.3-35.2-23.4-52.3-35.8c-19.3-14.1-37.4-29.6-51.7-48.9
			c-8.9-12-15.4-24.9-15-40.4c0-0.9-0.4-1.8-0.6-2.8c-1.8,0-3.2,0-5,0c0-6.8-0.2-13.4,0.1-20.1c0.1-2.4,1.1-5.1,2.6-7
			c9.1-11.5,17.9-23.2,22.5-37.4c1.2-3.8,1.9-7.9,3.4-11.6c4.8-11.4,5-22.6-0.1-34.1c-1.3-3-1.9-6.5-1.9-9.8
			c0.1-6.7-1.5-12.7-6.6-17.1c-8.7-7.5-17.6-14.8-26.6-22c-5.2-4.2-11.3-7.3-15.9-12.1c-7.8-8.3-16.7-12.1-28.1-10.9
			c-7,0.7-11.7,6.3-10,13.1c0.4,1.4,0.5,2.9,0.5,4.4c0.1,5.6,3.5,10.5,8.9,12.6c7.8,3,14,7.7,18.3,15.3c3.3,5.9,7.6,11.2,11.4,16.8
			c4.8,7.1,6.9,15,6.3,23.7c-1.7-1.3-3-2.9-4.5-3.2c-3.2-0.6-6.6-0.2-9.7-0.9c-2-0.4-4.7-1.4-5.4-3c-3.3-6.9-5.9-14.2-9.1-21.1
			c-7.6-16.3-21.7-25.7-37-33.5c-5.5-2.8-12.3-3.3-17.8-6c-6.6-3.3-13.3-1.6-19.9-2.1c-0.8-0.1-1.6,0.9-2.4,1.5
			c-4.7,3.2-2.7,8.1-2.9,12.3c-0.2,8.5,3.4,13.1,11.4,16.1c5.4,2.1,11.2,3.7,15.8,7c8.4,6.1,16.6,12.8,18.8,24
			C691.1,798.4,692.8,803.6,694.1,808.8z M441.5,934.8c3.4,7.5,2.6,26.3-1.3,36.1c-0.6,1.5-0.9,3.9-0.1,4.9c3.3,4.2,6.6,8.6,10.6,12
			c45.6,39.4,94.6,73.5,150,97.7c66.7,29.2,135.8,40.9,208.1,26.4c14.2-2.9,28.1-7.1,42.1-10.7c0-0.5-0.1-1-0.1-1.5
			c-1.7-0.9-3.4-1.9-5.1-2.8c-23.9-12.9-45-28.9-61.7-50.6c-8.5-11.1-18-21.4-27.1-32c-22.6-26-45.2-52-67.9-78
			c-1.2-1.3-3.3-2.3-5.1-2.4c-21.4-2.2-39.1-11.1-53.2-27.5c-1.1-1.3-2.6-2.2-3.5-3.5c-3.8-5.6-8.3-10.9-10.9-17
			c-4.8-11.3-5.6-23.4-2.8-35.7c-1.6-0.4-2.9-0.7-4.2-0.9c-18.1-2.8-36.2-5.4-54.3-8.5c-9.3-1.6-18.3-2.1-27.7-0.6
			c-6.3,1-13,1.1-19.4,0.4c-4.8-0.6-7.9,0.7-11.5,3.6c-10.7,8.6-22.5,14.3-37.1,12.9c-20.6-2-41.2-3.1-61.8-4.7
			c-26.1-2-52.1-4.3-78.2-6.3c-2.4-0.2-5.3,0.5-7.3,1.9c-9.8,6.6-19.3,13.6-28.9,20.5c-1,0.7-2.5,1.6-2.7,2.6
			c-1.5,6.4-3.1,12.8-4,19.2c-0.7,4.9-0.3,10-0.3,15c0,16.2-0.5,32.3,0.1,48.5c0.6,15.7-2.3,31.5,2.3,47.3
			c2.7,9.4,2.9,19.5,4.2,29.3c0,0.3,0.1,0.7,0.2,1c2,6.3,4.5,12.5,5.9,18.9c1.9,8.5,5.2,16.6,7.5,24.8c2.2,7.9,5.5,15.3,8.3,22.8
			c3.4,9.3,7.2,18.5,11.8,27.2c4.9,9.5,10.7,18.5,16.4,27.6c6.7,10.8,13,21.9,20.6,32.1c9.5,12.6,19.8,24.7,30.5,36.4
			c9.6,10.6,19.6,20.9,30.4,30.3c12.8,11.2,26,22,39.9,31.7c17.9,12.5,36.6,23.7,56.4,33c10.6,5,21.1,10.4,32,14.8
			c8.1,3.3,16.7,5.5,25.1,8.2c2.4,0.8,4.9,1.5,7.3,2.3c5.5,1.9,10.9,4.2,16.5,5.6c7.1,1.8,14.4,2.8,21.6,4.2
			c6.4,1.2,12.7,2.6,19,3.9c0.6,0.1,1.3,0,2,0.1c6.2,1.3,12.3,3.2,18.6,3.8c8.7,0.8,17.6,1,26.4,0.9c25.3-0.1,50.6-0.4,75.9-0.9
			c6.9-0.1,13.9-1.4,20.8-2.2c3.9-0.5,7.9-1,11.8-1.9c7.6-1.8,15.2-4.1,22.8-6c6.4-1.6,12.9-2.8,19.3-4.2c2.3-0.5,4.6-1,6.8-1.8
			c5.2-1.9,10.3-4.1,15.5-5.9c6-2.1,12.1-3.7,18-6c7.7-3.1,15.3-6.6,22.9-10.1c7-3.2,14.1-6.2,20.7-10.2c16.2-9.7,32.4-19.4,48-30
			c11.8-8.1,22.9-17.2,33.7-26.6c9.1-7.9,17.5-16.7,25.9-25.3c8.2-8.4,16.7-16.7,24-25.8c9.8-12.2,18.8-25.2,28-38
			c2.5-3.5,4.4-7.5,6.8-11.6c-4.9-1.5-9.2-2.9-13.5-4.1c-0.8-0.2-1.7-0.1-2.5-0.2c-51-2.7-101.3-10.2-150.3-24.9
			c-2.8-0.9-4.8-0.4-7.1,1.5c-12.3,9.4-24.5,18.9-37.2,27.8c-40.8,28.4-84,51.9-132.2,65.3c-41.2,11.5-82.6,14-124.2,2.4
			c-41.1-11.4-75-34.5-104.2-65c-32.8-34.3-56.8-74.4-77.5-116.8c-6.4-13.2-10.7-27.4-19.7-39.5c-3-4-5.7-4.8-10.1-5.2
			c-12.2-1-24.4-2.3-36.5-4.2c-5-0.8-9.7-3.4-14.5-5.2c1.4-1.6,2.5-2.1,3.6-2.1c6.6,0.1,13.2,0.3,19.9,0.7
			c23.2,1.2,42-7.4,55.4-26.4C433.9,950.4,437.3,942.5,441.5,934.8z M600.1,719.8c-0.3-27.6-7.3-51.3-23.2-72
			c-32.8-42.9-89.6-46.6-126.6-8.5c-40.4,41.7-40.5,115.3-0.1,157.1c33,34.2,82.4,35.6,116.5,2.9
			C589.8,777.3,599.4,749.5,600.1,719.8z M301,725.4c0-31.1-8-55.7-22.8-75.2c-32.8-43.2-89.8-47.2-126.9-8.8
			c-40.4,41.7-40.4,115.4-0.1,157.1c33,34.2,82.4,35.5,116.5,2.9C290.8,779.3,300.4,751.4,301,725.4z M291.2,845.5
			c-0.3-0.6-0.6-1.3-0.9-1.9c-13.9-1.2-27.8-2.5-41.7-3.5c-5.5-0.4-11.1-1.4-16.4-0.5c-23,3.8-44.7,0.3-65.6-9.8
			c-2.5-1.2-5.8-1.9-8.5-1.5c-20.4,3.3-40.5,7.9-59.6,16c-17.8,7.6-36.3,15-43,35.8c-1.1,3.5-1.5,8.3,0,11.4
			c8.5,16.8,20.9,30.8,34,44.1c34.7,35.1,74.5,63.4,118,86.5c16.2,8.6,33.4,15.6,50.1,23.2c1.6,0.7,3.5,0.8,5.6,1.3
			c-2.3-8.6-5-16.2-6.3-24.1c-1.4-8.8-1.9-17.6-4-26.4c-1.6-7-1-14.5-1.1-21.8c-0.1-8.5-0.3-17,0.1-25.5c0.2-4.5-0.9-6.8-5.6-7.9
			c-22-5.1-43.9-10.7-65.9-15.9c-10.1-2.4-20.4-4.3-31-6.5c1-6.8,1.6-13,2.8-19.1c0.2-1.2,2.5-2.8,3.9-3c6.3-0.6,12.6-0.6,19-1.1
			c24.8-1.8,47.3-10.7,68.7-22.4C260,864.4,275.5,854.7,291.2,845.5z M252.2,886.3c-20.9,10.6-42.1,20.3-66.8,23.5
			c23.1,5.6,44.7,10.8,66.8,16.2C252.2,913,252.2,899.9,252.2,886.3z"/>
		<path class="st0" d="M772.1,177.2c0,19.8-0.2,39.3,0.2,58.8c0.1,2.9,2.2,6.2,4.3,8.5c2.5,2.7,4.6,11.3,2.2,14.2
			c-1,1.2-3,2.2-4.6,2.2c-11.2,0.2-22.3,0.1-33.5,0.1c-3.7,0-5.5-1.8-5.5-5.5c0.1-4.6-1.2-9.3,4.5-12.4c2-1.1,2.6-5.5,3-8.5
			c0.5-4.1,0.3-8.3,0.3-12.5c0-46.1,0-92.3-0.1-138.4c0-5.8-1-10.7-6.4-14.8c-2.1-1.6-1.5-7.7-0.9-11.5c0.2-1.3,3.8-3,5.9-3
			c15.3-0.1,30.6-0.1,45.9,0.6c13,0.6,22.2,8,27.1,19.7c3,7.1,4.9,14.9,5.8,22.5c1.7,14.1,1.3,28.2-2.3,42.1
			c-2.9,10.9-8.4,20.2-16.9,27.8c11.8,13.4,13.8,30.3,18,46.5c2,7.9,4,15.8,6.8,23.4c1.4,3.8,4.6,6.8,7,10.2
			c0.4-0.2,0.8-0.5,1.1-0.7c0,3.2,0.6,6.5-0.2,9.4c-0.6,2-3,4.7-4.8,4.8c-8.5,0.5-17,0.4-25.5,0.1c-1.3,0-3.4-1.9-3.8-3.3
			c-4.1-14.7-7.9-29.5-11.8-44.3c-2.6-10-5-20-7.7-29.9C779.2,179.6,777.4,175.9,772.1,177.2z M772,77c0,25.9,0,51.4,0,76.9
			c10.7,0.5,14.9-2.2,17.9-12.1c1.3-4.3,2.2-8.7,2.5-13.2c1-13.4,1.6-26.9-2.5-40.1C786.8,78.5,782,75.5,772,77z"/>
		<path class="st0" d="M722.2,153.2c-0.5,26.1-1.3,50-9.2,72.8c-2.7,7.9-6.5,15.8-11.5,22.4c-15.1,20.1-42.8,19.2-57.2-1.3
			c-8.6-12.3-12.1-26.6-14.2-41.1c-4.5-32.3-4.6-64.7,0.9-97c2.2-13,5.8-25.6,12.7-37c10.8-17.8,28.5-24.4,45.5-16.9
			c9.5,4.2,15.6,11.7,20,20.8c7.9,16.3,10.4,33.9,11.8,51.7C721.7,136.8,721.9,146.2,722.2,153.2z M655.9,163.4
			c0.5,8,0.8,23.4,2.4,38.6c1,9.3,3.4,18.6,6,27.6c1.4,5,4,10.4,10.6,10.4c6.4,0,8.4-5.5,10-10.3c2.1-6.1,4-12.4,4.8-18.7
			c4.6-34.8,4.3-69.7-0.2-104.5c-1.1-8.9-4.1-17.8-7.8-26c-3.5-7.8-11.1-7.6-15.4-0.1c-2.5,4.2-4.2,9-5.3,13.8
			C656.3,114.5,656.3,135.3,655.9,163.4z"/>
		<path class="st0" d="M394.6,118.3c3.8-14.3,10.6-26.3,10.6-40.2c0-4.2-0.3-8.3-5.5-8.9c-0.3-0.6-0.5-0.9-0.5-1.2
			c-0.2-14.4-1.2-14.2,13.5-14c5.3,0.1,10.7,0.2,16,0c4.6-0.2,6.8,1.6,6.6,6.4c-0.2,4.4,0.1,8.2-3.9,11.9c-3.5,3.3-5.2,8.8-6.9,13.6
			c-7,19.2-13.7,38.5-20.4,57.8c-0.5,1.4-0.7,3.3-0.3,4.7c8.7,28.8,17.4,57.5,26.5,86.2c1.3,4.1,5.1,7.3,6.4,11.4
			c1.2,3.7,1.2,8.1,0.5,11.9c-0.3,1.4-4.2,2.8-6.4,2.9c-11.2,0.3-22.3,0.1-33.5,0.2c-4.4,0-6.4-1.9-6.3-6.3c0.1-2.8,0-5.6,0-8.7
			c6.5-1,7.2-5.8,6.1-10.5c-2.9-12.3-6.3-24.4-9.6-36.6c-0.7-2.5-1.6-4.9-2.7-8.5c-4,12.1-7.8,22.8-10.9,33.8
			c-1.3,4.6-1.5,9.5-1.8,14.3c-0.2,3.1,0.7,5.9,4.3,7c0.8,0.3,1.5,1.9,1.6,3c0.3,2,0,4,0.1,6c0.3,4.7-1.9,6.6-6.6,6.5
			c-7.8-0.1-15.7-0.1-23.5,0c-4.5,0.1-6.3-1.9-6.2-6.3c0.1-4.4,0.4-8,3.8-12c4-4.5,6.1-11,8.2-16.9c7.3-20.1,14.3-40.4,21.3-60.6
			c0.6-1.8,0.9-4,0.4-5.7c-8-26.5-16.1-53.1-24.5-79.5c-1.2-3.9-4.9-7-6.1-10.9c-1.2-3.8-1.1-8.2-0.4-12c0.3-1.3,4.2-2.7,6.5-2.8
			c11-0.3,22,0,33-0.2c4.7-0.1,6.7,1.9,6.4,6.5c-0.1,2,0.2,4-0.1,6c-0.2,1.1-0.9,2.8-1.7,3c-4.4,1.1-5,4.5-4.4,7.8
			c1.4,7.8,3.1,15.6,5.1,23.3C390.6,106.1,392.5,111.4,394.6,118.3z"/>
		<path class="st0" d="M320,106.9c-1.4-6.3-2.5-12.3-4-18.3c-0.7-2.7-1.5-5.6-3.1-7.8c-1.3-1.8-3.7-3.4-5.8-3.7
			c-4.6-0.5-9.3-0.2-14.2-0.2c0,21.7,0,43.1,0,64.5c9,1.9,11.2,0.5,12.9-8.4c0.7-3.9,1.3-7.8,1.8-11.5c0.5-0.2,0.7-0.3,0.8-0.3
			c12.1-0.4,12.9-1,12.7,11.7c-0.2,15-0.1,30-0.1,45c0,7.5-0.6,8.1-7.9,8.1c-1.7,0-3.3,0-5.5,0c-0.6-4-1.2-7.8-1.9-11.7
			c-1.8-9.3-3-10.1-13-8.9c0,24,0,48.1,0,72.6c5,0,10.1,0.6,14.9-0.3c2.3-0.4,5.1-3.5,5.8-5.9c2.6-8.9,4.3-18,6.4-27.1
			c0.2-1,0.3-2,0.5-3.6c3.6,0,7.4-0.6,10.8,0.2c1.8,0.5,4.4,3.4,4.4,5.2c-0.2,18-0.8,35.9-1.3,54.2c-1.5,0.1-2.8,0.2-4.1,0.2
			c-22.3,0-44.6,0-67,0c-5.8,0-7-1.2-7-7c0-4-0.8-7.9,4.2-10.6c2-1.1,2.9-5.4,3.3-8.4c0.6-4.3,0.4-8.6,0.4-13
			c0-46.1,0-92.3-0.1-138.4c0-5.8-1-10.7-6.4-14.8c-2.1-1.6-1.5-7.7-0.9-11.5c0.2-1.3,3.8-3,5.9-3.1c22-0.2,44-0.1,66-0.2
			c4.6,0,6.6,1.8,6.6,6.5c-0.1,13.2,0,26.3-0.1,39.5c0,5.8-1.1,6.9-7,6.9C325.5,106.9,323,106.9,320,106.9z"/>
		<path class="st0" d="M875.9,238.1c3.8,0,7.3-0.3,10.8,0.1c5.7,0.6,8.9-2.1,10.3-7.2c2.5-9.6,4.7-19.3,7.3-29.9
			c2.9,0,6.7-0.5,10.3,0.2c1.7,0.4,4,3.3,4,5c-0.2,18-0.8,36-1.4,54.3c-1.6,0.1-3,0.2-4.5,0.2c-22.2,0-44.3,0-66.5,0
			c-6,0-7.1-1.2-7.1-7.4c0-3.9-0.6-7.5,4.1-10.1c2.2-1.2,3.1-5.7,3.4-8.8c0.6-4.9,0.4-10,0.4-15c0-44.5,0-89-0.1-133.4
			c0-6.6,0.2-13-6.7-17.6c-1.9-1.3-1.3-7.5-0.6-11.2c0.3-1.5,4.1-3.2,6.3-3.2c21.8-0.2,43.6-0.2,65.5-0.1c5.4,0,6.7,1.3,6.7,6.8
			c0,13,0,26,0,39c0,5.9-1.1,7-6.9,7.1c-2.7,0-5.3,0-8.1,0c-1.3-6.2-2.5-12.2-4-18.2c-0.7-2.7-1.4-5.6-3.1-7.8
			c-1.4-1.8-4-3.5-6.2-3.8c-4.4-0.6-8.9-0.2-13.7-0.2c0,21.6,0,43,0,64.5c8.6,2.1,11.1,0.6,12.8-8.3c0.7-3.9,1.2-7.8,1.8-11.7
			c0.8-0.2,1.3-0.4,1.7-0.4c11.5-0.5,11.8-0.3,11.8,11.2c0,15.2,0,30.3,0,45.5c0,7.7-0.5,8.2-8.2,8.2c-1.6,0-3.3,0-5.2,0
			c-0.6-3.9-1.2-7.5-1.8-11.1c-1.8-9.9-2.7-10.6-13-9.5C875.9,189.3,875.9,213.4,875.9,238.1z"/>
		<path class="st0" d="M481.2,177.7c0,19.8-0.1,39.3,0.1,58.7c0,5,2.9,8.4,7.7,9.4c0.3,0.7,0.6,0.9,0.6,1.2
			c0.2,14.8,1.1,14.1-13.4,13.9c-8.5-0.1-17-0.1-25.5,0c-4.7,0.1-6.5-2-6.5-6.6c0-4.5-0.3-8.5,4.6-11.4c2-1.2,2.7-5.5,3-8.5
			c0.5-4.9,0.4-10,0.4-15c0-44.1,0-88.3-0.1-132.4c0-6.9,0.6-13.8-6.8-18.6c-1.9-1.2-1.2-7.5-0.5-11.2c0.3-1.5,4.1-3,6.4-3.1
			c13.1-0.3,26.3-0.3,39.5,0c18.2,0.4,30,9.3,35.4,26.7c4.1,13.2,4.8,26.8,3.7,40.5c-0.6,7.4-1.6,14.9-3.5,22.1
			C519.2,170.5,504.9,179.8,481.2,177.7z M480.9,154.8c10.2,0.8,14.9-1.9,17.5-11.2c1.8-6.5,2.6-13.4,3-20.1
			c0.7-12.5,0.8-25-3.3-37.1c-2.9-8.5-7.9-11.1-17.2-9.2C480.9,102.9,480.9,128.7,480.9,154.8z"/>
		<path class="st0" d="M577.7,238c4.3,0,8.5,0.8,12.2-0.3c2.7-0.8,5.9-3.6,6.7-6.2c2.4-7.9,3.8-16.1,5.3-24.3
			c0.7-3.9,1-7.9,1.4-11.5c0.4-0.3,0.5-0.5,0.7-0.5c14.5-0.3,15.4-2,14.5,13.5c-0.8,15.6-0.9,31.3-1.3,46.9c0,1.6,0,3.2,0,5.3
			c-1.9,0-3.4,0-4.8,0c-21.3,0-42.6,0-64,0c-5.8,0-7.1-1.3-7.2-6.8c-0.1-4.3-0.2-8,4.4-11c2.1-1.4,2.8-5.8,3.2-9
			c0.6-4.8,0.4-9.6,0.4-14.5c0-44.6,0-89.3-0.1-133.9c0-6.5,0-12.7-6.7-17.2c-2-1.3-1.4-7.5-0.7-11.2c0.3-1.5,4-3.1,6.3-3.2
			c10.5-0.3,21-0.1,31.5-0.2c4.4-0.1,6.4,1.9,6.2,6.3c-0.1,4.3,0.8,8.6-4.3,11.6c-2,1.2-2.8,5.5-3.1,8.5c-0.6,6.5-0.5,13-0.5,19.5
			c0,44.1,0,88.3,0,132.4C577.7,234.1,577.7,235.9,577.7,238z"/>
		<path class="st2" d="M694.1,808.8c-1.4-5.2-3-10.4-4.1-15.7c-2.2-11.2-10.5-17.9-18.8-24c-4.5-3.3-10.4-5-15.8-7
			c-8-3-11.6-7.6-11.4-16.1c0.1-4.2-1.8-9.1,2.9-12.3c0.8-0.5,1.6-1.5,2.4-1.5c6.6,0.5,13.3-1.2,19.9,2.1c5.6,2.8,12.3,3.2,17.8,6
			c15.2,7.8,29.4,17.2,37,33.5c3.3,6.9,5.8,14.2,9.1,21.1c0.7,1.5,3.5,2.6,5.4,3c3.2,0.6,6.6,0.2,9.7,0.9c1.5,0.3,2.8,1.9,4.5,3.2
			c0.6-8.7-1.4-16.6-6.3-23.7c-3.8-5.6-8.1-10.9-11.4-16.8c-4.2-7.6-10.4-12.3-18.3-15.3c-5.4-2.1-8.9-7-8.9-12.6
			c0-1.5-0.1-3-0.5-4.4c-1.7-6.8,3-12.4,10-13.1c11.4-1.2,20.3,2.6,28.1,10.9c4.5,4.8,10.7,7.9,15.9,12.1c9,7.2,17.9,14.5,26.6,22
			c5.1,4.4,6.6,10.4,6.6,17.1c0,3.3,0.6,6.8,1.9,9.8c5.1,11.4,5,22.6,0.1,34.1c-1.6,3.7-2.2,7.8-3.4,11.6
			c-4.6,14.2-13.4,25.9-22.5,37.4c-1.5,1.9-2.5,4.6-2.6,7c-0.3,6.6-0.1,13.3-0.1,20.1c1.8,0,3.3,0,5,0c0.2,1,0.6,1.9,0.6,2.8
			c-0.3,15.5,6.1,28.4,15,40.4c14.4,19.3,32.5,34.8,51.7,48.9c17,12.5,34.5,24.5,52.3,35.8c5.5,3.5,12.8,5,19.5,5.9
			c17,2.3,33.3-3.4,49.9-5.2c7.1-0.8,14.2-1.4,22.7-2.2c-1-9.7-2.2-19.3-3-29c-0.7-8.3-1.2-16.6-1.3-24.9
			c-0.2-16.3-0.1-32.6-0.1-49.4c-5.4,2.6-9,7.3-10.2,12.9c-2.3,10.5-3.6,21.2-5,31.9c-0.5,3.6-0.1,7.3-0.1,12.6
			c-1.6-2.7-2.5-4.1-3.3-5.5c-0.4,0.1-0.9,0.2-1.3,0.2c2.9,12.1,5.8,24.2,8.8,36.8c-6.7,1-13,1.6-19.1,2.8c-11.1,2.3-22,5-33.1,7.3
			c-1.9,0.4-4.5,0.6-6-0.4c-32-20.2-63.7-40.8-91.2-67c-8.1-7.8-15.3-16.7-22.1-25.6c-6.1-7.9-9-17.2-8.9-27.5
			c0-6.5-0.8-13.2-8.3-16.9c6.6-8.2,12.6-16.5,19.6-23.9c7-7.6,12.5-15.9,16.5-26.1c6.6,1.2,13.2,2.5,19.8,3.7
			c2.8,0.5,5.7,0.7,8.3,1.5c23.5,7.1,51-27.4,39.9-51.2c-5.4-11.6-13.3-20.6-23.4-28c-0.7-0.5-1.7-0.9-2.7-1
			c-14.1-2.2-28.2-4.2-42.3-6.7c-1.7-0.3-3.6-2.5-4.5-4.3c-6.8-14.5-15.5-27.6-28.6-37.2c-5.7-4.1-11.6-7.2-19.1-8.3
			c-8.9-1.3-17.6-4.9-25.9-8.6c-52.2-22.9-104.3-46-156.4-69.2c-3.2-1.4-6-3.6-8.9-5.5c-49.5-31.8-113.3-17.7-146.8,32.7
			c-3.9,5.9-7.2,12.3-11,18.8c-9-3.1-18-6.3-27.7-9.6c3.4-3.8,6.1-7.4,9.3-10.5c6.5-6.3,13.1-12.5,20-18.4
			c7.8-6.6,16-12.9,24.1-19.1c8-6.2,16-12.3,24.2-18.1c4.7-3.3,9.9-5.9,15.1-8.6c11.1-5.9,22.5-11.3,33.4-17.5
			c8.4-4.8,17.1-8.7,26.3-11.8c8.2-2.8,15.9-7.2,24.1-10c7.4-2.5,15.3-3.7,22.9-5.9c6.3-1.8,12.4-4.2,18.6-6
			c2.9-0.9,5.9-1.1,8.9-1.6c5.4-0.9,10.8-1.7,16.1-2.7c6.7-1.2,13.4-2.9,20.2-3.7c6.1-0.7,12.3-0.7,18.4-0.8c24.5-0.1,49-0.1,73.5,0
			c5.5,0,11-0.1,16.4,0.6c6.3,0.8,12.5,2.4,18.7,3.7c0.6,0.1,1.3,0.1,2,0.2c6.4,1.3,12.8,2.5,19.2,3.8c7,1.4,14.2,2.4,21.1,4.2
			c5.9,1.5,11.6,4,17.4,5.9c2.1,0.7,4.3,1.2,6.4,1.9c8.4,2.7,16.9,5,25.1,8.1c9.3,3.6,18.3,7.8,27.3,12c7.9,3.7,15.8,7.6,23.5,11.9
			c7.9,4.5,15.6,9.5,23.2,14.5c8.4,5.5,16.8,11.1,24.9,17.1c10.3,7.8,20.7,15.6,30.3,24.2c9.3,8.3,18.1,17.3,26.4,26.6
			c11.8,13.1,23.3,26.4,34.2,40.1c7,8.8,13.1,18.4,19,28.1c5.6,9.3,10.5,19,15.5,28.6c5.6,10.9,11.1,21.8,16,32.9
			c2.6,6,3.8,12.6,6,18.8c1.8,5.2,4.2,10.2,6.1,15.3c0.6,1.7,0.4,3.6,0.8,5.3c2.5,10.6,5.6,20.9,7.7,31.7c1.5,8,1.6,16.3,3.8,23.8
			c4.5,15,2.7,30,3.1,45c0.4,15.4,0.1,30.9,0.1,47.6c-1.5-2.5-2.3-4-3.2-5.4c-1.1,2.1-2.2,4.2-3.3,6.3c-3.4,6.1-5.3,12.1-3.5,19.5
			c4,17,3.4,34.3,2.2,51.6c-0.6,8.6-0.3,17.2-1.2,25.8c-1,10.2,0.4,20.5-2.7,30.7c-5.6,18.3-18.4,28-36.2,31.8
			c-7.4,1.6-14.4-1.6-21.1-4.6c-2.5-1.1-5.3-1.8-8-1.9c-12.2-0.4-24.5-0.7-36.7-0.8c-4.2,0-8.6,1.3-12.6,0.6
			c-13-2.5-25.8-5.7-38.7-8.5c-4.6-1-9.3-1.3-13.9-2.4c-4.5-1-8.8-2.7-13.3-3.9c-5.3-1.4-10.6-2.6-15.9-4
			c-14.6-4-29.9-6.2-43.5-12.4c-32.7-15-64.2-31.7-87.8-60.7c-22.3-27.4-46.5-53.2-69.7-79.8c-7.7-8.9-14.9-18.2-22.4-27.3
			c-3-3.7-6-7.4-9.1-11c-0.5-0.6-1.7-0.8-2.7-0.9c-4.3-0.8-8.5-1.7-12.8-2.1c-20.6-1.8-34.3-15-46.1-29.7
			c-8.6-10.7-10.1-24.5-5.1-37.4c2.3-6,8.7-10.5,13.2-15.6c0.4-0.4,1.1-0.8,1.7-0.9c2.7-0.4,6.4,0.3,7-3.2c0.7-4.2,0.9-8.6,0.1-12.7
			c-0.8-3.7-2.6-7.7-5.2-10.4c-5.9-5.9-13.7-3.9-21-3.6c-6.7,0.3-13.4,1.7-20.1,1.5c-8.4-0.2-12-6.5-11.5-15.1
			c0.3-6.4,3.4-8.7,8.5-10.9c7-3,13.8-5.4,21.6-4.9c11.2,0.7,22.6,0.2,33.7,1.4c4.2,0.5,8.7,3.7,11.9,6.9
			c6.5,6.6,12.2,14.1,18.3,21.2c1.5,1.7,2.9,3.5,4.4,5.2C692.7,809.4,693.4,809.1,694.1,808.8z"/>
		<path class="st2" d="M441.5,934.8c-4.2,7.7-7.6,15.7-12.5,22.6c-13.4,18.9-32.2,27.6-55.4,26.4c-6.6-0.3-13.2-0.5-19.9-0.7
			c-1.1,0-2.2,0.5-3.6,2.1c4.8,1.8,9.5,4.4,14.5,5.2c12.1,1.9,24.3,3.2,36.5,4.2c4.4,0.4,7.1,1.1,10.1,5.2
			c9,12.1,13.2,26.3,19.7,39.5c20.7,42.4,44.7,82.5,77.5,116.8c29.2,30.5,63.1,53.6,104.2,65c41.6,11.5,83.1,9,124.2-2.4
			c48.2-13.4,91.4-36.9,132.2-65.3c12.7-8.8,25-18.3,37.2-27.8c2.4-1.8,4.3-2.3,7.1-1.5c49,14.7,99.3,22.3,150.3,24.9
			c0.8,0,1.7,0,2.5,0.2c4.3,1.3,8.5,2.6,13.5,4.1c-2.3,4.1-4.2,8.1-6.8,11.6c-9.2,12.8-18.1,25.7-28,38c-7.3,9.1-15.8,17.4-24,25.8
			c-8.4,8.6-16.8,17.4-25.9,25.3c-10.8,9.4-21.9,18.5-33.7,26.6c-15.6,10.7-31.8,20.3-48,30c-6.6,3.9-13.7,6.9-20.7,10.2
			c-7.6,3.5-15.2,7-22.9,10.1c-5.9,2.3-12,3.9-18,6c-5.2,1.9-10.3,4-15.5,5.9c-2.2,0.8-4.5,1.3-6.8,1.8c-6.4,1.4-12.9,2.7-19.3,4.2
			c-7.6,1.9-15.2,4.2-22.8,6c-3.9,0.9-7.8,1.4-11.8,1.9c-6.9,0.8-13.8,2.1-20.8,2.2c-25.3,0.5-50.6,0.7-75.9,0.9
			c-8.8,0-17.6-0.1-26.4-0.9c-6.3-0.6-12.4-2.5-18.6-3.8c-0.6-0.1-1.3,0-2-0.1c-6.3-1.3-12.7-2.6-19-3.9c-7.2-1.4-14.5-2.4-21.6-4.2
			c-5.6-1.4-11-3.7-16.5-5.6c-2.4-0.8-4.8-1.5-7.3-2.3c-8.4-2.7-17-4.9-25.1-8.2c-10.9-4.5-21.4-9.8-32-14.8
			c-19.8-9.3-38.6-20.5-56.4-33c-13.9-9.7-27.1-20.5-39.9-31.7c-10.7-9.4-20.7-19.7-30.4-30.3c-10.6-11.7-21-23.8-30.5-36.4
			c-7.6-10.1-13.9-21.3-20.6-32.1c-5.6-9.1-11.4-18.1-16.4-27.6c-4.5-8.8-8.4-18-11.8-27.2c-2.8-7.6-6.1-14.9-8.3-22.8
			c-2.3-8.3-5.7-16.3-7.5-24.8c-1.4-6.4-3.9-12.6-5.9-18.9c-0.1-0.3-0.1-0.6-0.2-1c-1.3-9.8-1.4-19.9-4.2-29.3
			c-4.6-15.7-1.7-31.5-2.3-47.3c-0.6-16.1-0.2-32.3-0.1-48.5c0-5-0.4-10.1,0.3-15c0.9-6.5,2.5-12.9,4-19.2c0.3-1,1.7-1.9,2.7-2.6
			c9.6-6.9,19.1-13.9,28.9-20.5c2-1.3,4.9-2,7.3-1.9c26.1,2,52.1,4.2,78.2,6.3c20.6,1.6,41.2,2.7,61.8,4.7
			c14.6,1.4,26.3-4.3,37.1-12.9c3.6-2.9,6.7-4.2,11.5-3.6c6.4,0.7,13.1,0.6,19.4-0.4c9.4-1.5,18.4-1,27.7,0.6
			c18,3.1,36.2,5.7,54.3,8.5c1.3,0.2,2.6,0.6,4.2,0.9c-2.9,12.3-2.1,24.3,2.8,35.7c2.6,6.1,7.1,11.4,10.9,17
			c0.9,1.4,2.4,2.3,3.5,3.5c14,16.3,31.8,25.3,53.2,27.5c1.8,0.2,3.9,1.1,5.1,2.4c22.7,25.9,45.4,51.9,67.9,78
			c9.2,10.6,18.6,20.9,27.1,32c16.7,21.7,37.9,37.7,61.7,50.6c1.7,0.9,3.4,1.9,5.1,2.8c0,0.5,0.1,1,0.1,1.5
			c-14,3.6-28,7.8-42.1,10.7c-72.3,14.5-141.3,2.8-208.1-26.4c-55.4-24.2-104.5-58.3-150-97.7c-4-3.5-7.4-7.8-10.6-12
			c-0.8-1-0.5-3.5,0.1-4.9C444.1,961.1,444.9,942.3,441.5,934.8z"/>
		<path class="st1" d="M600.1,719.8c-0.7,29.7-10.3,57.5-33.3,79.6c-34.1,32.7-83.5,31.3-116.5-2.9c-40.3-41.8-40.2-115.4,0.1-157.1
			c36.9-38.2,93.8-34.4,126.6,8.5C592.7,668.5,599.7,692.2,600.1,719.8z M516,692.6c0.1-18.1-4-32.1-11-41.4
			c-12.2-16.3-29.8-16.2-42,0.1c-14.6,19.6-14.7,54.8-0.1,74.4c12.3,16.6,30,16.6,42.3-0.1c1.5-2,2.8-4.2,3.9-6.4
			C513.9,709.7,515.9,699.5,516,692.6z"/>
		<path class="st1" d="M301,725.4c-0.6,26.1-10.2,53.9-33.2,76c-34.1,32.7-83.5,31.3-116.5-2.9c-40.3-41.8-40.3-115.4,0.1-157.1
			c37.1-38.3,94.1-34.4,126.9,8.8C293,669.7,301,694.2,301,725.4z M154.9,702.6c0.3,13.6,3.3,25.9,11.6,36.4
			c12.8,16.1,32.2,16.1,45-0.1c15.3-19.2,15.3-52.7-0.1-71.8c-12.7-15.9-31.9-16.1-44.7-0.3C158.2,677.3,155.3,689.8,154.9,702.6z"
			/>
		<path class="st2" d="M291.2,845.5c-15.7,9.3-31.2,19-47.2,27.7c-21.5,11.7-44,20.6-68.7,22.4c-6.3,0.4-12.7,0.5-19,1.1
			c-1.5,0.1-3.7,1.7-3.9,3c-1.2,6.1-1.9,12.2-2.8,19.1c10.6,2.2,20.9,4.1,31,6.5c22,5.2,43.9,10.8,65.9,15.9
			c4.7,1.1,5.8,3.4,5.6,7.9c-0.4,8.5-0.2,17-0.1,25.5c0.1,7.3-0.5,14.8,1.1,21.8c2.1,8.8,2.6,17.6,4,26.4c1.2,7.8,3.9,15.4,6.3,24.1
			c-2-0.5-3.9-0.6-5.6-1.3c-16.8-7.6-33.9-14.6-50.1-23.2c-43.5-23.1-83.3-51.3-118-86.5c-13.1-13.3-25.6-27.3-34-44.1
			c-1.5-3.1-1.2-7.9,0-11.4c6.7-20.9,25.2-28.3,43-35.8c19.1-8.1,39.2-12.7,59.6-16c2.7-0.4,6,0.3,8.5,1.5
			c20.9,10.1,42.6,13.6,65.6,9.8c5.3-0.9,10.9,0.1,16.4,0.5c13.9,1.1,27.8,2.4,41.7,3.5C290.6,844.2,290.9,844.8,291.2,845.5z"/>
		<path class="st1" d="M252.2,886.3c0,13.6,0,26.7,0,39.6c-22.2-5.4-43.8-10.6-66.8-16.2C210.1,906.6,231.3,896.9,252.2,886.3z"/>
		<path class="st1" d="M772,77c9.9-1.5,14.8,1.5,17.9,11.5c4.1,13.1,3.5,26.6,2.5,40.1c-0.3,4.4-1.2,8.9-2.5,13.2
			c-3,9.9-7.2,12.6-17.9,12.1C772,128.4,772,102.9,772,77z"/>
		<path class="st1" d="M655.9,163.4c0.3-28.1,0.4-48.9,5.2-69.3c1.1-4.8,2.9-9.6,5.3-13.8c4.3-7.5,11.9-7.6,15.4,0.1
			c3.7,8.2,6.6,17.1,7.8,26c4.5,34.8,4.8,69.7,0.2,104.5c-0.8,6.4-2.7,12.7-4.8,18.7c-1.6,4.8-3.6,10.3-10,10.3
			c-6.6,0-9.1-5.4-10.6-10.4c-2.6-9-5-18.3-6-27.6C656.8,186.7,656.4,171.4,655.9,163.4z"/>
		<path class="st1" d="M480.9,154.8c0-26.1,0-51.9,0-77.6c9.3-1.9,14.3,0.7,17.2,9.2c4.1,12,4,24.6,3.3,37.1
			c-0.4,6.8-1.3,13.6-3,20.1C495.8,152.9,491.1,155.5,480.9,154.8z"/>
		<path class="st0" d="M516,692.6c-0.1,6.9-2.1,17.1-7,26.6c-1.1,2.2-2.4,4.4-3.9,6.4c-12.2,16.6-30,16.6-42.3,0.1
			c-14.5-19.7-14.5-54.9,0.1-74.4c12.2-16.3,29.8-16.3,42-0.1C512,660.5,516,674.4,516,692.6z"/>
		<path class="st0" d="M154.9,702.6c0.3-12.8,3.3-25.3,11.8-35.8c12.8-15.8,32-15.7,44.7,0.3c15.3,19.2,15.4,52.6,0.1,71.8
			c-12.9,16.1-32.2,16.2-45,0.1C158.2,728.5,155.2,716.2,154.9,702.6z"/>
	</g>
</g>
</svg>
