<?xml version="1.0" encoding="utf-8"?>
<!-- Generator: Adobe Illustrator 19.1.1, SVG Export Plug-In . SVG Version: 6.00 Build 0)  -->
<svg version="1.1" id="Layer_1" xmlns="http://www.w3.org/2000/svg" xmlns:xlink="http://www.w3.org/1999/xlink" x="0px" y="0px"
	 viewBox="0 0 90 90" style="enable-background:new 0 0 90 90;" xml:space="preserve">
<style type="text/css">
	.st0{fill:#FFFFFF;stroke:#000000;stroke-miterlimit:10;}
	.st1{fill:#FFFFFF;}
	.st2{font-family:'MyriadPro-Regular';}
	.st3{font-size:9.5px;}
</style>
<g>
	<g>
		<path class="st0" d="M76,77H14.1C10.2,77,7,73.9,7,70V8.1C7,4.2,10.2,1,14.1,1H76C79.9,1,83,4.2,83,8.1V70C83,73.9,79.9,77,76,77z
			"/>
		<path d="M74.4,74h-59c-3,0-5.4-2.4-5.4-5.4v-59c0-3,2.4-5.4,5.4-5.4h59c3,0,5.4,2.4,5.4,5.4v59C79.8,71.5,77.4,74,74.4,74z"/>
		<polygon class="st1" points="71.4,30.4 53.5,30.4 53.5,12.5 36.2,12.5 36.2,30.4 18.4,30.4 18.4,47.7 36.2,47.7 36.2,65.5 
			53.5,65.5 53.5,47.7 71.4,47.7 		"/>
	</g>
	<text transform="matrix(1 -8.944959e-004 8.944959e-004 1 17.5317 87.5396)" class="st2 st3">Health/Safety</text>
</g>
</svg>
