<?xml version="1.0" encoding="utf-8"?>
<!-- Generator: Adobe Illustrator 19.2.0, SVG Export Plug-In . SVG Version: 6.00 Build 0)  -->
<svg version="1.1" xmlns="http://www.w3.org/2000/svg" xmlns:xlink="http://www.w3.org/1999/xlink" x="0px" y="0px"
	 viewBox="0 0 900 900" style="enable-background:new 0 0 900 900;" xml:space="preserve">
<style type="text/css">
	.st0{enable-background:new    ;}
	.st1{fill-rule:evenodd;clip-rule:evenodd;}
	.st2{fill-rule:evenodd;clip-rule:evenodd;fill:#FFFFFF;}
</style>
<g id="Ellipse_2_1_" class="st0">
	<g id="Ellipse_2">
		<g>
			<path class="st1" d="M460,848.6c-30.1,0-54.6-29.9-54.6-66.6s24.5-66.6,54.6-66.6c30.1,0,54.6,29.9,54.6,66.6
				S490.1,848.6,460,848.6z"/>
		</g>
		<g>
			<path d="M460,724.8c11.4,0,22.4,5.5,30.9,15.6c9.2,11,14.3,25.7,14.3,41.6c0,15.9-5.1,30.7-14.3,41.6
				c-8.5,10-19.4,15.6-30.9,15.6c-11.4,0-22.4-5.5-30.9-15.6c-9.2-11-14.3-25.7-14.3-41.6c0-15.9,5.1-30.7,14.3-41.6
				C437.6,730.3,448.6,724.8,460,724.8 M460,706c-35.3,0-64,34-64,76c0,42,28.7,76,64,76c35.3,0,64-34,64-76
				C524,740,495.3,706,460,706L460,706z"/>
		</g>
	</g>
</g>
<g id="Ellipse_1_1_" class="st0">
	<g id="Ellipse_1">
		<g>
			<path class="st2" d="M453.8,670.5c-37,0-74.8-15.7-101-42c-22.2-22.3-34.4-50.1-34.3-78.4c0.1-30.7-15.1-45.6-31.3-61.4
				c-23.6-23-52.9-51.7-51.7-152.7c0.8-66.9,24.2-129.4,66-176.2c41.6-46.6,96.8-72.2,155.5-72.2c56.2,0,110,23.4,151.5,65.9
				c22.5,23.1,40.1,50.3,52.2,81c12.6,32,18.6,66,17.8,101.1c-1.1,44.2-7.9,78.8-20.8,105.6c-11,22.8-24.5,36.5-37.5,49.8
				c-16.5,16.8-32.2,32.7-35.6,61.6c-5.1,43.5-19,73.9-42.3,92.9C521.5,662.3,492.5,670.5,453.8,670.5z"/>
		</g>
		<g>
			<path d="M457,100c52.8,0,103.4,22.1,142.6,62.2c21.4,21.9,38,47.7,49.5,76.8c12,30.4,17.7,62.8,16.9,96.2
				c-1,42.4-7.4,75.3-19.6,100.5c-10.1,20.9-22.8,33.9-35.2,46.4c-17.3,17.6-35.2,35.7-39.1,69c-4.7,40.1-17.1,67.8-37.8,84.6
				c-18.5,15-44.8,22.3-80.6,22.3c-16.9,0-34.4-3.6-50.5-10.4c-15.7-6.6-30.1-16.3-41.7-28c-19.9-19.9-30.7-44.6-30.6-69.5
				c0.1-36-18.6-54.3-35.1-70.4c-11.4-11.1-23.1-22.6-32.1-42.5c-11.1-24.6-16.3-57.6-15.8-101.1c0.4-32.3,6.2-63.6,17.4-92.9
				c10.8-28.3,26.1-53.5,45.4-75.2C350,124.2,401.9,100,457,100 M457,75c-129.2,0-232.3,116.8-234,260.8
				c-2,172.1,83.3,147.7,83,214.2c-0.3,72.9,70.7,133,147.8,133c77.5,0,131.7-31.4,143.2-129c7.8-66,90-52.6,94-218.2
				C694.5,191.8,586.2,75,457,75L457,75z"/>
		</g>
	</g>
</g>
<g id="Rectangle_1_1_" class="st0">
	<g id="Rectangle_1">
		<g>
			<polygon class="st1" points="373.3,785.6 371.5,640.4 540.7,640.4 542.5,785.6 			"/>
		</g>
		<g>
			<path d="M531.4,649.8l1.5,126.4H382.6l-1.5-126.4H531.4 M550,631H362l2,164h188L550,631L550,631z"/>
		</g>
	</g>
</g>
<g id="Shape_1_1_" class="st0">
	<g id="Shape_1">
		<g>
			<polygon class="st2" points="352,302 406,289 461,426 460,336 425,251 309,275 439,637 481,647 			"/>
		</g>
		<g>
			<polygon points="425,251 309,275 439,637 481,647 352,302 406,289 461,426 460,336 425,251 			"/>
		</g>
	</g>
</g>
<g id="Shape_1_copy_1_" class="st0">
	<g id="Shape_1_copy">
		<g>
			<polygon class="st2" points="493,251 458,336 458,422 512,289 566,302 437,647 479,637 609,275 			"/>
		</g>
		<g>
			<polygon points="493,251 458,336 458,422 512,289 566,302 437,647 479,637 609,275 493,251 			"/>
		</g>
	</g>
</g>
<g id="Rectangle_7_1_" class="st0">
	<g id="Rectangle_7">
	</g>
</g>
<g id="Rectangle_6_copy_1_" class="st0">
	<g id="Rectangle_6_copy">
		<g>
			
				<rect x="108.2" y="662.9" transform="matrix(0.7935 -0.6086 0.6086 0.7935 -374.2898 250.6505)" class="st2" width="148" height="28"/>
		</g>
		<g>
			<polygon points="232.4,620.7 115,710.8 132,733 249.4,642.9 232.4,620.7 			"/>
		</g>
	</g>
</g>
<g id="Rectangle_6_copy_2_1_" class="st0">
	<g id="Rectangle_6_copy_2">
		<g>
			
				<rect x="677" y="585" transform="matrix(0.6827 -0.7307 0.7307 0.6827 -262.2748 714.0377)" class="st2" width="28" height="148"/>
		</g>
		<g>
			<polygon points="646.5,598.3 627.4,618.7 735.5,719.8 754.6,699.3 646.5,598.3 			"/>
		</g>
	</g>
</g>
<g id="Rectangle_6_copy_3_1_" class="st0">
	<g id="Rectangle_6_copy_3">
		<g>
			<rect x="58" y="413" class="st2" width="148" height="28"/>
		</g>
		<g>
			<polygon points="206,413 58,413 58,441 206,441 206,413 			"/>
		</g>
	</g>
</g>
<g id="Rectangle_6_copy_4_1_" class="st0">
	<g id="Rectangle_6_copy_4">
		<g>
			<rect x="709" y="413" class="st2" width="148" height="28"/>
		</g>
		<g>
			<polygon points="857,413 709,413 709,441 857,441 857,413 			"/>
		</g>
	</g>
</g>
<g id="Rectangle_6_copy_5_1_" class="st0">
	<g id="Rectangle_6_copy_5">
		<g>
			
				<rect x="673" y="111.4" transform="matrix(0.8544 -0.5196 0.5196 0.8544 43.5903 406.3901)" class="st2" width="148" height="28"/>
		</g>
		<g>
			<polygon points="802.9,75 676.5,151.9 691,175.8 817.5,98.9 802.9,75 			"/>
		</g>
	</g>
</g>
<g id="Rectangle_6_copy_6_1_" class="st0">
	<g id="Rectangle_6_copy_6">
		<g>
			<rect x="152" y="54" transform="matrix(0.5553 -0.8316 0.8316 0.5553 -32.6336 194.9679)" class="st2" width="28" height="148"/>
		</g>
		<g>
			<polygon points="112.2,75.3 96.7,98.5 219.8,180.7 235.3,157.5 112.2,75.3 			"/>
		</g>
	</g>
</g>
</svg>
