<?xml version="1.0" encoding="utf-8"?>
<!-- Generator: Adobe Illustrator 19.1.1, SVG Export Plug-In . SVG Version: 6.00 Build 0)  -->
<svg version="1.1" id="Layer_1" xmlns="http://www.w3.org/2000/svg" xmlns:xlink="http://www.w3.org/1999/xlink" x="0px" y="0px"
	 viewBox="0 0 90 90" style="enable-background:new 0 0 90 90;" xml:space="preserve">
<style type="text/css">
	.st0{fill:#FFFFFF;stroke:#000000;stroke-miterlimit:10;}
	.st1{fill:#010101;}
	.st2{font-family:'MyriadPro-Regular';}
	.st3{font-size:9.5px;}
</style>
<g>
	<g>
		<path class="st0" d="M75.9,77.1H14.1C10.2,77.1,7,73.9,7,70V8.2c0-3.9,3.2-7.1,7.1-7.1h61.8c3.9,0,7.1,3.2,7.1,7.1V70
			C83,73.9,79.8,77.1,75.9,77.1z"/>
		<path class="st1" d="M25.9,33.6c-0.1,1.7-0.5,9-0.5,12.2c0,0.6,0,0.8,0.3,0.9c1.8,0.8,3.7,1.6,5.4,2.7c1,0.6,1.9,1.4,2.6,2.3
			c1.2,1.4,1.6,3,1.5,4.9c-0.4,4.7-3.3,7.4-7.8,9.1c-0.8,0.3-1.7,0.4-2.6,0.6c-0.2,0-0.2,0.1-0.2,0.3c0,0.9-0.1,1.7-0.1,2.6
			c0,0.5-0.4,1-0.9,1c0,0,0,0,0,0c-0.6,0.1-1.2-0.4-1.2-1.1c0-0.9,0.1-1.8,0.1-2.7c-0.1,0-0.2,0-0.3,0c-1.9,0-3.8-0.3-5.6-1
			c-1.1-0.4-2.1-1-2.9-2c-1-1.2-1.3-2.6-0.8-4.1c0.5-1.6,2.2-2.4,3.9-2.1c0.4,0.1,0.5,0.1,0.4,0.5c-0.2,0.8-0.4,1.6-0.3,2.4
			c0.2,1.1,0.7,2,1.6,2.7c1.2,1,2.6,1.3,4.2,1.4c0.1-1.8,0.3-10.1,0.5-13.5c0-0.3-0.1-0.3-0.2-0.4c-1.3-0.7-2.7-1.3-4-2
			c-1.6-0.9-3-2-3.9-3.7c-0.7-1.2-0.9-2.6-0.8-4c0.3-3.3,2.2-5.7,5-7.4c1.3-0.8,2.8-1.3,4.4-1.6c0.1,0,0.2,0,0.3-0.1
			c0-0.4,0-0.7,0.1-1.1c0-0.8,0.1-1.5,0.1-2.3c0-0.4,0.2-0.7,0.6-0.8c0.4-0.1,0.9-0.1,1.3,0.1c0.2,0.1,0.3,0.1,0.3,0.4
			c0,0.8-0.1,1.7-0.1,2.6c0,0.3,0,0.6,0,1c0.6,0,1.1,0,1.7,0.1c1.9,0.2,3.7,0.6,5.2,1.8c1.1,0.8,1.8,1.9,1.7,3.4
			c0,0.5-0.2,1.1-0.5,1.5c-1,1.4-2.2,1.3-3.4,1.2c-0.3,0-0.4-0.1-0.3-0.4c0.1-0.7,0.2-1.4,0-2.2c-0.3-1.7-1.4-2.6-3-3
			C27,33.7,26.4,33.7,25.9,33.6z M24.7,64.1c0.1,0,0.1,0,0.2,0c1.7-0.3,3.2-0.8,4.6-1.8c1.7-1.4,2.4-3.2,2-5.3c-0.3-1.3-1-2.4-2-3.3
			c-1.1-1-2.4-1.6-3.8-2.3c-0.1-0.1-0.3-0.1-0.4-0.2C25,55.5,24.9,59.7,24.7,64.1z M23.7,33.7c-1.5,0.2-2.8,0.7-4,1.6
			c-1,0.7-1.7,1.6-2,2.8c-0.4,1.9,0.1,3.5,1.4,4.9c0.9,0.9,2,1.6,3.1,2.2c0.3,0.2,0.7,0.4,1.1,0.6C23.4,41.8,23.6,37.8,23.7,33.7z"
			/>
		<path class="st1" d="M65.8,33.6c-0.1,1.7-0.4,8.4-0.5,12.2c0,0.6,0,0.8,0.3,0.9c1.8,0.8,3.7,1.6,5.4,2.7c1,0.6,1.9,1.4,2.6,2.3
			c1.2,1.4,1.6,3,1.5,4.9c-0.4,4.7-3.3,7.4-7.8,9.1c-0.8,0.3-1.7,0.4-2.6,0.6c-0.2,0-0.2,0.1-0.2,0.3c0,0.9-0.1,1.9-0.1,2.8
			c0,0.4-0.3,0.8-0.7,0.8c-0.2,0-0.3,0-0.5,0c-0.5,0-0.9-0.4-0.9-0.9c0-1,0.1-2,0.1-2.9c-0.1,0-0.2,0-0.3,0c-1.9,0-3.8-0.3-5.6-1
			c-1.1-0.4-2.1-1-2.9-2c-1-1.2-1.3-2.6-0.8-4.1c0.5-1.6,2.2-2.4,3.9-2.1c0.4,0.1,0.5,0.1,0.4,0.5c-0.2,0.8-0.4,1.6-0.3,2.4
			c0.2,1.1,0.7,2,1.6,2.7c1.2,1,2.6,1.3,4.2,1.4c0.1-1.8,0.3-10,0.5-13.5c0-0.3-0.1-0.3-0.2-0.4c-1.3-0.7-2.7-1.3-4-2
			c-1.6-0.9-3-2-3.9-3.7c-0.7-1.2-0.9-2.6-0.8-4c0.3-3.3,2.2-5.7,5-7.4c1.3-0.8,2.8-1.3,4.4-1.6c0.1,0,0.2,0,0.3-0.1
			c0-0.4,0-0.7,0.1-1.1c0-0.8,0.1-1.5,0.1-2.3c0-0.4,0.2-0.7,0.6-0.8c0.4-0.1,0.9-0.1,1.3,0.1c0.2,0.1,0.3,0.1,0.3,0.4
			c0,0.8-0.1,1.7-0.1,2.6c0,0.3,0,0.6,0,1c0.6,0,1.1,0,1.7,0.1c1.9,0.2,3.7,0.6,5.2,1.8c1.1,0.8,1.8,1.9,1.7,3.4
			c0,0.5-0.2,1.1-0.5,1.5c-1,1.4-2.2,1.3-3.4,1.2c-0.3,0-0.4-0.1-0.3-0.4c0.1-0.7,0.2-1.4,0-2.2c-0.3-1.7-1.4-2.6-3-3
			C66.9,33.7,66.4,33.7,65.8,33.6z M64.6,64.1c0.1,0,0.1,0,0.2,0c1.7-0.3,3.2-0.8,4.6-1.8c1.7-1.4,2.4-3.2,2-5.3
			c-0.3-1.3-1-2.4-2-3.3c-1.1-1-2.4-1.6-3.8-2.3c-0.1-0.1-0.3-0.1-0.4-0.2C65,55.5,64.6,60.5,64.6,64.1z M63.7,33.7
			c-1.5,0.2-2.8,0.7-4,1.6c-1,0.7-1.7,1.6-2,2.8c-0.4,1.9,0.1,3.5,1.4,4.9c0.9,0.9,2,1.6,3.1,2.2c0.3,0.2,0.7,0.4,1.1,0.6
			C63.4,41.8,63.5,37.8,63.7,33.7z"/>
		<path d="M67.9,16C56.7,5.7,39.5,5.9,36.9,6.7c-3.2,1.1-4.6,4.3-10.5,4c-4.8-0.3-6.1-3.3-6.1-3.3s-3.5-0.3-6.2,0.3
			c0,0-3.2,2.3-3.1,7.1c0.2,4.8,1.5,7,2,7.3c0.5,0.3,5.9-0.2,6.9,0c1,0.2,1.9-2.1,3.5-2.9c1.5-0.7,6.1-0.6,7.8,0.5
			c1.7,1.1,5.3,3.5,6.5,7.8c1.2,4.3,1.5,4,0.9,20c-0.5,11.3-1.5,19.6-2,23.5c-0.2,1.3,0.8,2.4,2.1,2.4h10.1c1.3,0,2.2-1.1,2.1-2.3
			c-0.7-6.9-2.5-27.1-1.5-36.5c1.2-11.4,4.2-18.4,6.6-17.6C69,21,75.7,31.8,78.4,34.8c0.2,0.2,0.5,0.1,0.4-0.2
			C78.4,32.1,76.6,23.9,67.9,16z M24.4,15.4c-1.3,1.3-3.8,3.5-4.8,4.3c-0.1,0.1-1.1-0.5-1.4-1.4s-0.8-2.4,0.6-4
			c1.1-1.2,3.3-0.8,4.1-0.4C24.5,14.6,24.9,14.9,24.4,15.4z"/>
	</g>
	<text transform="matrix(1 0 0 1 15.3883 87.5283)" class="st2 st3">Jobs/Economy</text>
</g>
</svg>
