<?xml version="1.0" encoding="utf-8"?>
<!-- Generator: Adobe Illustrator 16.0.3, SVG Export Plug-In . SVG Version: 6.00 Build 0)  -->
<!DOCTYPE svg PUBLIC "-//W3C//DTD SVG 1.1//EN" "http://www.w3.org/Graphics/SVG/1.1/DTD/svg11.dtd">
<svg version="1.1" id="LEARN2_xA0_Image_1_" xmlns="http://www.w3.org/2000/svg" xmlns:xlink="http://www.w3.org/1999/xlink"
	 x="0px" y="0px" width="864px" height="720px" viewBox="0 0 864 720" enable-background="new 0 0 864 720" xml:space="preserve">
<g>
	<g>
		<path fill-rule="evenodd" clip-rule="evenodd" fill="#CBCBFD" d="M1,721C1,481,1,241,1,1c288,0,576,0,864,0c0,240,0,480,0,720
			C577,721,289,721,1,721z M503.834,674.057c4.693,0,8.828-0.057,12.961,0.008c99.467,1.545,198.934,3.077,298.398,4.752
			c4.077,0.068,6.744-0.879,9.093-4.329c3.46-5.082,7.729-9.613,11.197-14.691c1.329-1.947,2.181-4.835,1.931-7.151
			c-2.307-21.354-4.908-42.677-7.414-64.01c-3.809-32.413-7.603-64.827-11.417-97.24c-3.853-32.742-7.732-65.482-11.582-98.226
			c-3.811-32.413-7.591-64.829-11.398-97.242c-3.866-32.909-7.745-65.815-11.63-98.722c-1.186-10.041-2.408-20.076-3.724-31.025
			c-8.916,0-17.481,0-25.844,0c-2.814-20.332-5.494-39.688-8.227-59.425c-1.805,1.491-3.048,2.519-5.242,4.332
			c2.23-7.438,4.038-13.465,6.023-20.086c-19.362,5.362-36.223,0.966-51.38-9.843c-10.414-7.427-19.965-16.056-30.001-24.022
			c-11.463-9.1-22.482-18.906-34.682-26.899c-22.657-14.845-47.164-16.456-71.931-5.667c-10.143,4.418-19.953,10.015-29.065,16.304
			c-25.99,17.939-47.298,40.939-67.646,64.84c-7.741,9.092-15.154,18.463-22.98,28.028c-0.496-2.22-0.885-3.979-1.284-5.737
			c-5.023-22.138-14.276-42.195-29.752-59.013c-23.9-25.975-54.503-35.198-88.753-34.594c-29.14,0.514-56.911,7.88-84.018,17.973
			c-38.337,14.275-74.097,33.682-108.812,55.141c-2.79,1.725-5.817,3.533-8.954,4.109c-3.704,0.68-4.357,2.612-4.67,5.736
			c-1.043,10.398-2.297,20.776-3.47,31.166c-9.657,0-18.919,0-28.621,0c-0.717,6.978-1.424,14.065-2.177,21.147
			C73.23,221.668,67.651,273.661,62.16,325.663c-4.843,45.875-9.566,91.764-14.387,137.641
			c-5.952,56.643-11.439,113.343-18.315,169.873c-1.575,12.944,0.699,22.583,10.219,30.753c1.691,1.451,4.087,2.834,6.206,2.91
			c12.82,0.46,25.654,0.536,38.483,0.733c94.472,1.447,188.944,2.894,283.417,4.336c1.674,0.026,3.349,0.004,6.136,0.004
			c-2.18,1.747-3.234,2.56-4.253,3.415c-10.409,8.748-8.878,17.838,3.972,22.821c1.918,0.744,4.211,0.794,6.318,0.736
			c35.147-0.959,70.29-2.144,105.442-2.866c6.865-0.141,12.217-2.612,17.123-6.811C508.182,684.366,508.55,680.835,503.834,674.057z
			"/>
		<path fill-rule="evenodd" clip-rule="evenodd" fill="#010101" d="M503.834,674.057c4.716,6.778,4.348,10.31-1.313,15.152
			c-4.906,4.198-10.258,6.67-17.123,6.811c-35.152,0.723-70.295,1.907-105.442,2.866c-2.107,0.058-4.4,0.008-6.318-0.736
			c-12.85-4.983-14.381-14.073-3.972-22.821c1.019-0.855,2.073-1.668,4.253-3.415c-2.787,0-4.462,0.022-6.136-0.004
			c-94.473-1.442-188.944-2.889-283.417-4.336c-12.83-0.197-25.664-0.273-38.483-0.733c-2.119-0.076-4.515-1.459-6.206-2.91
			c-9.52-8.17-11.793-17.809-10.219-30.753c6.876-56.53,12.363-113.23,18.315-169.873c4.821-45.877,9.543-91.766,14.387-137.641
			c5.491-52.002,11.07-103.995,16.603-155.993c0.753-7.082,1.46-14.17,2.177-21.147c9.702,0,18.964,0,28.621,0
			c1.173-10.39,2.427-20.768,3.47-31.166c0.313-3.124,0.967-5.057,4.67-5.736c3.136-0.576,6.164-2.385,8.954-4.109
			c34.715-21.459,70.474-40.865,108.812-55.141c27.107-10.093,54.878-17.459,84.018-17.973c34.25-0.604,64.853,8.619,88.753,34.594
			c15.476,16.817,24.729,36.875,29.752,59.013c0.399,1.758,0.788,3.518,1.284,5.737c7.826-9.565,15.239-18.937,22.98-28.028
			c20.349-23.9,41.656-46.9,67.646-64.84c9.112-6.289,18.923-11.886,29.065-16.304c24.767-10.789,49.273-9.178,71.931,5.667
			c12.199,7.993,23.219,17.8,34.682,26.899c10.036,7.967,19.587,16.596,30.001,24.022c15.157,10.809,32.018,15.205,51.38,9.843
			c-1.985,6.621-3.793,12.648-6.023,20.086c2.194-1.813,3.438-2.841,5.242-4.332c2.732,19.737,5.412,39.093,8.227,59.425
			c8.362,0,16.928,0,25.844,0c1.315,10.949,2.538,20.984,3.724,31.025c3.885,32.906,7.764,65.813,11.63,98.722
			c3.808,32.413,7.588,64.829,11.398,97.242c3.85,32.743,7.729,65.483,11.582,98.226c3.814,32.413,7.608,64.827,11.417,97.24
			c2.506,21.333,5.107,42.655,7.414,64.01c0.25,2.316-0.602,5.204-1.931,7.151c-3.469,5.078-7.737,9.609-11.197,14.691
			c-2.349,3.45-5.016,4.397-9.093,4.329c-99.465-1.675-198.932-3.207-298.398-4.752C512.662,674,508.527,674.057,503.834,674.057z
			 M424.105,602.564c0-1.581,0.002-2.84-0.001-4.099c-0.013-7.498-0.031-14.997-0.039-22.496
			c-0.14-135.478-0.271-270.955-0.47-406.433c-0.003-2.596-0.205-5.464-1.285-7.745c-12.914-27.283-30.661-50.692-56.145-67.438
			c-34.967-22.979-73.511-26.538-113.688-19.79c-41.354,6.945-79.092,23.635-115.576,43.563c-1.077,0.589-2.701,1.679-2.685,2.508
			c0.077,3.953-2.748,5.515-5.392,7.161c-3.288,2.047-5.112,4.737-6,8.614c-15.561,67.974-27.514,136.633-38.709,205.418
			c-6.441,39.579-12.481,79.257-17.266,119.063c-3.951,32.868-6.193,65.964-8.33,99.015c-0.646,9.987,1.272,20.206,2.714,30.219
			c0.383,2.656,2.84,6.21,5.23,7.186c15.721,6.421,32.023,8.547,48.894,5.149c18.986-3.823,35.332-13.283,51.318-23.571
			c16.22-10.438,32.116-21.423,48.697-31.251c39.102-23.178,79.49-24.596,120.809-5.854c19.51,8.851,37.495,20.145,54.327,33.272
			C401.748,583.821,412.586,593.103,424.105,602.564z M454.205,601.354c2.681-1.772,4.317-2.841,5.941-3.93
			c27.3-18.308,55.865-34.105,87.403-43.98c39.863-12.481,79.224-12.24,117.972,4.592c20.398,8.861,38.642,21.365,57.335,33.169
			c11.493,7.258,23.264,14.238,35.496,20.122c14.908,7.172,30.469,7.671,45.827,0.504c7.608-3.551,7.618-3.735,6.396-11.936
			c-4.906-32.916-9.639-65.858-14.624-98.763c-6.057-39.975-12.213-79.935-18.493-119.875
			c-6.383-40.596-12.624-81.218-19.559-121.72c-7.521-43.922-15.737-87.725-23.811-131.55c-0.359-1.949-1.907-4.204-3.571-5.308
			c-19.048-12.642-39.308-22.958-60.977-30.3c-53.05-17.974-103.516-13.825-150.408,18.402
			c-29.794,20.476-52.339,47.576-70.354,78.618c-1.638,2.823-2.65,6.495-2.589,9.747c1.075,57.3,2.404,114.596,3.595,171.895
			c1.512,72.79,2.952,145.581,4.409,218.372C454.269,593.036,454.205,596.66,454.205,601.354z"/>
		<path fill-rule="evenodd" clip-rule="evenodd" fill="#FEFEFE" d="M424.105,602.564c-11.52-9.462-22.357-18.743-33.597-27.509
			c-16.832-13.128-34.817-24.422-54.327-33.272c-41.319-18.741-81.707-17.323-120.809,5.854
			c-16.581,9.828-32.477,20.813-48.697,31.251c-15.986,10.288-32.332,19.748-51.318,23.571c-16.87,3.397-33.172,1.271-48.894-5.149
			c-2.39-0.976-4.847-4.529-5.23-7.186c-1.442-10.013-3.36-20.231-2.714-30.219c2.137-33.051,4.379-66.146,8.33-99.015
			c4.785-39.807,10.825-79.484,17.266-119.063c11.195-68.785,23.149-137.444,38.709-205.418c0.887-3.877,2.712-6.567,6-8.614
			c2.644-1.646,5.469-3.208,5.392-7.161c-0.016-0.829,1.608-1.919,2.685-2.508c36.484-19.929,74.222-36.618,115.576-43.563
			c40.177-6.748,78.721-3.189,113.688,19.79c25.483,16.746,43.23,40.155,56.145,67.438c1.08,2.281,1.282,5.149,1.285,7.745
			c0.198,135.478,0.33,270.955,0.47,406.433c0.008,7.499,0.026,14.998,0.039,22.496
			C424.107,599.725,424.105,600.983,424.105,602.564z"/>
		<path fill-rule="evenodd" clip-rule="evenodd" fill="#FEFEFE" d="M454.205,601.354c0-4.694,0.063-8.318-0.01-11.939
			c-1.457-72.791-2.897-145.582-4.409-218.372c-1.19-57.299-2.52-114.595-3.595-171.895c-0.062-3.252,0.951-6.924,2.589-9.747
			c18.015-31.042,40.56-58.143,70.354-78.618c46.893-32.228,97.358-36.376,150.408-18.402c21.669,7.342,41.929,17.658,60.977,30.3
			c1.664,1.104,3.212,3.358,3.571,5.308c8.073,43.825,16.29,87.628,23.811,131.55c6.935,40.502,13.176,81.124,19.559,121.72
			c6.28,39.94,12.437,79.9,18.493,119.875c4.985,32.904,9.718,65.847,14.624,98.763c1.222,8.2,1.212,8.385-6.396,11.936
			c-15.358,7.167-30.919,6.668-45.827-0.504c-12.232-5.884-24.003-12.864-35.496-20.122c-18.693-11.804-36.937-24.308-57.335-33.169
			c-38.748-16.832-78.108-17.073-117.972-4.592c-31.538,9.875-60.104,25.673-87.403,43.98
			C458.522,598.514,456.886,599.582,454.205,601.354z"/>
	</g>
</g>
</svg>
