<?xml version="1.0" encoding="utf-8"?>
<!-- Generator: Adobe Illustrator 19.2.0, SVG Export Plug-In . SVG Version: 6.00 Build 0)  -->
<svg version="1.1" id="Layer_1" xmlns="http://www.w3.org/2000/svg" xmlns:xlink="http://www.w3.org/1999/xlink" x="0px" y="0px"
	 viewBox="0 0 90 90" style="enable-background:new 0 0 90 90;" xml:space="preserve">
<style type="text/css">
	.st0{fill:#010100;}
	.st1{fill:#98CB66;}
	.st2{fill:#FDFDFD;}
	.st3{font-family:'MyriadPro-Regular';}
	.st4{font-size:9.61px;}
</style>
<g>
	<g>
		<path class="st0" d="M6.1,77.7c0-25.9,0-51.8,0-77.7C32,0,58,0,83.9,0c0,25.9,0,51.8,0,77.7C58,77.7,32,77.7,6.1,77.7z M45,2.3
			c-10.7,0-21.3,0-32,0c-1.5,0-2.7,0.6-3.7,1.7C8.3,5.4,7.8,7,7.8,8.7c0,20.2,0,40.4,0,60.6c0,1,0.1,1.9,0.5,2.8
			c0.8,1.9,2.4,3.6,5.2,3.6c8.5-0.1,17,0,25.5,0c12.6,0,25.3,0,37.9,0c1.4,0,2.5-0.5,3.5-1.5c1.3-1.3,1.8-2.9,1.8-4.7
			c0-20.4,0-40.8,0-61.1c0-1-0.2-2-0.6-2.9c-1-2.1-2.6-3.3-5-3.3C66.1,2.4,55.6,2.3,45,2.3z"/>
		<path class="st1" d="M45,2.3c10.5,0,21.1,0,31.6,0c2.5,0,4,1.2,5,3.3c0.4,0.9,0.6,1.9,0.6,2.9c0,20.4,0,40.8,0,61.1
			c0,1.8-0.6,3.4-1.8,4.7c-1,1-2.1,1.5-3.5,1.5c-12.6,0-25.3,0-37.9,0c-8.5,0-17,0-25.5,0c-2.8,0-4.4-1.7-5.2-3.6
			c-0.4-0.9-0.5-1.9-0.5-2.8c0-20.2,0-40.4,0-60.6c0-1.7,0.4-3.3,1.6-4.7c1-1.1,2.2-1.7,3.7-1.7C23.7,2.3,34.4,2.3,45,2.3z
			 M36.3,53.1c-0.2,0-0.3,0-0.4,0c-2.8,0-5.7,0-8.5,0c-0.4,0-0.6,0.1-0.8,0.4c-4.9,5.7-9.9,11.3-14.8,17c-0.3,0.4-0.6,0.7-1,1.1
			c21.7,0.2,43.3,0.4,65,0.6c-0.1-0.1-0.1-0.2-0.1-0.2c-3.5-6.2-7-12.4-10.4-18.6c-0.1-0.2-0.2-0.3-0.5-0.3c-3.6,0-7.3,0-10.9,0
			c-0.1,0-0.2,0-0.4,0c0.1-0.1,0.1-0.2,0.2-0.3c2.4-4,4.9-7.9,7.3-11.9c1-1.6,2-3.1,2.8-4.7c1.8-3.6,2.4-7.4,1.9-11.4
			c-0.5-4.4-2.3-8.2-5.3-11.4C55.3,8.1,49.1,6,41.9,7.1C37,7.9,33,10.3,29.8,14c-3.6,4.2-5.2,9.1-4.8,14.6c0.2,2.8,0.9,5.5,2.2,8
			c0.6,1.1,1.3,2.1,1.9,3.1c2.1,3.8,4.1,7.5,6.1,11.3C35.6,51.7,36,52.3,36.3,53.1z"/>
		<path d="M36.3,53.1c-0.4-0.7-0.7-1.4-1.1-2c-2-3.8-4.1-7.6-6.1-11.3c-0.6-1.1-1.3-2-1.9-3.1c-1.3-2.5-2.1-5.2-2.2-8
			c-0.3-5.5,1.2-10.4,4.8-14.6c3.2-3.7,7.2-6.1,12-6.9c7.2-1.2,13.4,0.9,18.5,6.2c3.1,3.2,4.8,7,5.3,11.4c0.5,4-0.1,7.8-1.9,11.4
			c-0.8,1.6-1.8,3.1-2.8,4.7c-2.4,4-4.9,7.9-7.3,11.9c-0.1,0.1-0.1,0.2-0.2,0.3c0.2,0,0.3,0,0.4,0c3.6,0,7.3,0,10.9,0
			c0.2,0,0.3,0,0.5,0.3c3.5,6.2,6.9,12.4,10.4,18.6c0,0.1,0.1,0.1,0.1,0.2c-21.7-0.2-43.3-0.4-65-0.6c0.4-0.4,0.7-0.8,1-1.1
			c4.9-5.7,9.9-11.3,14.8-17c0.2-0.3,0.5-0.4,0.8-0.4c2.8,0,5.7,0,8.5,0C36,53.1,36.2,53.1,36.3,53.1z M44.4,67.8
			c-0.1-0.2-0.1-0.3-0.2-0.4c-2.2-4.1-4.4-8.2-6.6-12.2c-0.1-0.2-0.2-0.3-0.5-0.3c-3,0-6,0-9,0c-0.2,0-0.4,0.1-0.5,0.2
			c-4,4.6-8,9.2-12.1,13.8c-0.2,0.2-0.4,0.4-0.6,0.7c19.2,0.2,38.4,0.3,57.6,0.5c-0.1-0.1-0.1-0.2-0.2-0.3
			c-2.7-4.9-5.5-9.8-8.2-14.7c-0.1-0.2-0.2-0.3-0.4-0.3c-3.7,0-7.4,0-11.1,0c-0.2,0-0.3,0.1-0.5,0.3c-1.8,2.9-3.6,5.8-5.4,8.7
			C46,65.2,45.2,66.5,44.4,67.8z M45.3,32.8c3.3,0,6-2.7,6-6c0-3.3-2.7-6-6-6c-3.3,0-6,2.7-6,6C39.3,30.1,41.9,32.8,45.3,32.8z"/>
		<path class="st2" d="M44.4,67.8c0.8-1.3,1.6-2.6,2.4-3.9c1.8-2.9,3.6-5.8,5.4-8.7c0.1-0.2,0.2-0.3,0.5-0.3c3.7,0,7.4,0,11.1,0
			c0.2,0,0.3,0.1,0.4,0.3c2.7,4.9,5.5,9.8,8.2,14.7c0,0.1,0.1,0.2,0.2,0.3c-19.2-0.2-38.3-0.3-57.6-0.5c0.2-0.3,0.4-0.5,0.6-0.7
			c4-4.6,8-9.2,12.1-13.8c0.1-0.2,0.3-0.2,0.5-0.2c3,0,6,0,9,0c0.2,0,0.4,0.1,0.5,0.3c2.2,4.1,4.4,8.2,6.6,12.2
			C44.2,67.6,44.3,67.7,44.4,67.8z"/>
		<path class="st2" d="M45.3,32.8c-3.3,0-6-2.7-6-6c0-3.3,2.7-6,6-6c3.3,0,6,2.7,6,6C51.3,30.1,48.6,32.8,45.3,32.8z"/>
	</g>
</g>
<text transform="matrix(1 0 0 1 34.4542 87.5709)" class="st3 st4">Local</text>
</svg>
