<?xml version="1.0" encoding="utf-8"?>
<!-- Generator: Adobe Illustrator 19.2.0, SVG Export Plug-In . SVG Version: 6.00 Build 0)  -->
<svg version="1.1" id="Layer_1" xmlns="http://www.w3.org/2000/svg" xmlns:xlink="http://www.w3.org/1999/xlink" x="0px" y="0px"
	 viewBox="0 0 90 90" style="enable-background:new 0 0 90 90;" xml:space="preserve">
<style type="text/css">
	.st0{fill:#010100;}
	.st1{fill:#98CB66;}
	.st2{fill:#FDFDFD;}
	.st3{fill:none;stroke:#000000;stroke-miterlimit:10;}
	.st4{font-family:'MyriadPro-Regular';}
	.st5{font-size:9.5px;}
</style>
<g>
	<g>
		<path class="st0" d="M8.7,72.6c0-26,2.3-42.1,2.3-68C37.5,4.6,53,5,79.5,5c0,26-2,43.3-2,69.3C51,74.3,35.2,72.6,8.7,72.6z
			 M45,2.5c-10.9,0-21.8,0-32.7,0c-1.5,0-2.8,0.6-3.8,1.7C7.5,5.6,7,7.2,7,8.9c0,20.3,0,40.5,0,60.8c0,1,0.1,1.9,0.5,2.8
			c0.8,1.9,2.5,3.6,5.3,3.6c8.7-0.1,17.4,0,26,0c12.9,0,25.8,0,38.7,0c1.4,0,2.6-0.5,3.6-1.5c1.3-1.3,1.8-2.9,1.8-4.7
			c0-20.5,0-40.9,0-61.3c0-1-0.2-2-0.6-2.9c-1-2.1-2.7-3.3-5.1-3.3C66.6,2.6,55.8,2.5,45,2.5z"/>
		<path class="st1" d="M45.2,2.5c10.7,0,21.4,0,32.1,0c2.5,0,4.1,1.2,5.1,3.3C82.8,6.8,83,7.8,83,8.8c0,20.7,0,41.4,0,62
			c0,1.8-0.6,3.5-1.8,4.8c-1,1-2.1,1.5-3.6,1.5c-12.8,0-25.7,0-38.5,0c-8.6,0-17.3,0-25.9,0c-2.8,0-4.5-1.7-5.3-3.7
			c-0.4-0.9-0.5-1.9-0.5-2.8c0-20.5,0-41,0-61.5c0-1.7,0.4-3.3,1.6-4.8c1-1.1,2.2-1.7,3.8-1.7C23.6,2.5,34.5,2.5,45.2,2.5z
			 M36.1,53.4c-0.2,0-0.3,0-0.4,0c-2.9,0-5.8,0-8.7,0c-0.4,0-0.6,0.1-0.8,0.4c-5,5.7-10.1,11.3-15.1,17.1c-0.3,0.4-0.6,0.7-1,1.1
			c22.2,0.2,44.2,0.4,66.4,0.6c-0.1-0.1-0.1-0.2-0.1-0.2c-3.6-6.2-7.2-12.4-10.6-18.7c-0.1-0.2-0.2-0.3-0.5-0.3c-3.7,0-7.5,0-11.1,0
			c-0.1,0-0.2,0-0.4,0c0.1-0.1,0.1-0.2,0.2-0.3c2.5-4,5-7.9,7.5-11.9c1-1.6,2-3.1,2.9-4.7c1.8-3.6,2.5-7.4,1.9-11.4
			c-0.5-4.4-2.3-8.2-5.4-11.4c-5.2-5.3-11.5-7.4-18.9-6.3c-5,0.8-9.1,3.2-12.4,6.9c-3.7,4.2-5.3,9.1-4.9,14.6c0.2,2.8,0.9,5.5,2.2,8
			c0.6,1.1,1.3,2.1,1.9,3.1c2.1,3.8,4.2,7.5,6.2,11.3C35.4,52,35.8,52.6,36.1,53.4z"/>
		<path d="M36.1,53.4c-0.4-0.7-0.7-1.4-1.1-2c-2-3.8-4.2-7.6-6.2-11.3c-0.6-1.1-1.3-2-1.9-3.1c-1.3-2.5-2.1-5.2-2.2-8
			c-0.3-5.5,1.2-10.4,4.9-14.6c3.3-3.7,7.4-6.1,12.3-6.9c7.4-1.2,13.7,0.9,18.9,6.2c3.2,3.2,4.9,7,5.4,11.4c0.5,4-0.1,7.8-1.9,11.4
			c-0.8,1.6-1.8,3.1-2.9,4.7c-2.5,4-5,7.9-7.5,11.9c-0.1,0.1-0.1,0.2-0.2,0.3c0.2,0,0.3,0,0.4,0c3.7,0,7.5,0,11.1,0
			c0.2,0,0.3,0,0.5,0.3c3.6,6.2,7,12.4,10.6,18.7c0,0.1,0.1,0.1,0.1,0.2C54.2,72.4,32.1,72.2,10,72c0.4-0.4,0.7-0.8,1-1.1
			c5-5.7,10.1-11.3,15.1-17.1c0.2-0.3,0.5-0.4,0.8-0.4c2.9,0,5.8,0,8.7,0C35.8,53.4,36,53.4,36.1,53.4z M44.4,68.2
			c-0.1-0.2-0.1-0.3-0.2-0.4c-2.2-4.1-4.5-8.2-6.7-12.2c-0.1-0.2-0.2-0.3-0.5-0.3c-3.1,0-6.1,0-9.2,0c-0.2,0-0.4,0.1-0.5,0.2
			c-4.1,4.6-8.2,9.2-12.4,13.8c-0.2,0.2-0.4,0.4-0.6,0.7c19.6,0.2,39.2,0.3,58.8,0.5c-0.1-0.1-0.1-0.2-0.2-0.3
			c-2.8-4.9-5.6-9.8-8.4-14.7c-0.1-0.2-0.2-0.3-0.4-0.3c-3.8,0-7.6,0-11.3,0c-0.2,0-0.3,0.1-0.5,0.3c-1.8,2.9-3.7,5.8-5.5,8.7
			C46,65.6,45.2,66.9,44.4,68.2z M45.3,33.1c3.4,0,6.1-2.7,6.1-6s-2.8-6-6.1-6c-3.4,0-6.1,2.7-6.1,6S41.8,33.1,45.3,33.1z"/>
		<path class="st2" d="M44.4,68.2c0.8-1.3,1.6-2.6,2.5-3.9c1.8-2.9,3.7-5.8,5.5-8.7c0.1-0.2,0.2-0.3,0.5-0.3c3.8,0,7.6,0,11.3,0
			c0.2,0,0.3,0.1,0.4,0.3c2.8,4.9,5.6,9.8,8.4,14.7c0,0.1,0.1,0.2,0.2,0.3c-19.6-0.2-39.1-0.3-58.8-0.5c0.2-0.3,0.4-0.5,0.6-0.7
			c4.1-4.6,8.2-9.2,12.4-13.8c0.1-0.2,0.3-0.2,0.5-0.2c3.1,0,6.1,0,9.2,0c0.2,0,0.4,0.1,0.5,0.3c2.2,4.1,4.5,8.2,6.7,12.2
			C44.2,68,44.3,68.1,44.4,68.2z"/>
		<path class="st2" d="M45.3,33.1c-3.4,0-6.1-2.7-6.1-6s2.8-6,6.1-6c3.4,0,6.1,2.7,6.1,6S48.7,33.1,45.3,33.1z"/>
	</g>
</g>
<g>
	<g>
		<path class="st3" d="M75.9,77H14.1C10.2,77,7,73.9,7,70V9.4c0-3.8,3.2-7,7.1-7h61.8c3.9,0,7.1,3.1,7.1,7V70
			C83,73.9,79.8,77,75.9,77z"/>
	</g>
	<text transform="matrix(1 0 0 1 34.6628 87.4604)" class="st4 st5">Local</text>
</g>
</svg>
