<?xml version="1.0" encoding="utf-8"?>
<!-- Generator: Adobe Illustrator 19.2.0, SVG Export Plug-In . SVG Version: 6.00 Build 0)  -->
<svg version="1.1" id="Layer_1" xmlns="http://www.w3.org/2000/svg" xmlns:xlink="http://www.w3.org/1999/xlink" x="0px" y="0px"
	 viewBox="0 0 90 90" style="enable-background:new 0 0 90 90;" xml:space="preserve">
<style type="text/css">
	.st0{font-family:'MyriadPro-Regular';}
	.st1{font-size:9.61px;}
	.st2{fill:#FEFEFE;}
	.st3{fill:#98CB66;}
	.st4{fill:#98CB65;}
	.st5{fill:#010101;}
	.st6{fill:#020201;}
	.st7{fill:#48523F;}
	.st8{fill:#202120;}
	.st9{fill:#040503;}
	.st10{fill:#353B2F;}
	.st11{fill:#FCFCFC;}
	.st12{fill:none;stroke:#000000;stroke-miterlimit:10;}
</style>
<text transform="matrix(1 0 0 1 22.4542 87.5709)" class="st0 st1">Nationwide</text>
<g>
	<g>
		<path class="st2" d="M82.9,53.8c0,0.1,0.1,0.3,0.1,0.4c0,3.6,0,7.2,0,10.8c0,0,0,0-0.1,0c-0.1,0-0.3,0-0.4,0
			c-6.2-0.1-12.3-0.1-18.5-0.2c-8.6-0.1-17.1-0.2-25.7-0.3c-9.9-0.1-19.8-0.2-29.7-0.3c-0.5,0-1,0-1.5,0c0-2.9,0-5.8,0-8.8
			c0-0.5,0-1.1,0-1.6c0.1-0.1,0.2-0.2,0.3-0.3c7-9.1,13.9-18.2,20.9-27.3c0.2-0.2,0.4-0.3,0.6-0.3c13.2,0,26.4,0,39.5,0
			c0.3,0,0.4,0.1,0.5,0.3c4.1,8.2,8.3,16.3,12.4,24.5C81.9,51.7,82.4,52.7,82.9,53.8z M46.9,48.3c0.1-0.1,0.2-0.2,0.2-0.3
			c2.4-3.3,4.9-6.6,7.3-9.8c0.7-1,1.2-2.1,1.2-3.4c0.1-2-0.7-3.6-2.2-4.9c-1.5-1.4-3.3-2.1-5.4-2.2c-2.6-0.2-5,0.5-7,2.3
			c-2.4,2.2-2.8,5.5-1,8.1c0.9,1.3,1.7,2.6,2.6,3.9C44.1,44,45.5,46.1,46.9,48.3z"/>
		<path class="st3" d="M7,9.1c0-1.5,0.4-2.9,1.3-4.1c1-1.4,2.4-2.1,4.1-2.1c21.6,0,43.1,0,64.7,0c2.5,0,4.1,1.2,5.1,3.3
			C82.8,7.1,83,8,83,9c0,13.5,0,27.1,0,40.6c0,0,0,0-0.1,0c0-0.1-0.1-0.1-0.1-0.2c-4.2-8.4-8.5-16.7-12.7-25.1
			C70,24,69.8,24,69.6,24c-13.9,0-27.9,0-41.8,0c-0.2,0-0.4,0.1-0.5,0.2C20.6,33,13.9,41.8,7.1,50.7c0-0.1-0.1-0.3-0.1-0.4
			c0-13.6,0-27.1,0-40.7C7.1,9.4,7,9.3,7,9.1z"/>
		<path class="st4" d="M83,67c0,1.5,0.1,3,0,4.5c-0.1,2.1-0.9,3.9-2.7,5.2c-0.8,0.6-1.7,0.8-2.7,0.8c-7.9,0-15.7,0-23.6,0
			c-13.7,0-27.4,0-41.1,0c-2.9,0-4.6-1.8-5.3-3.7C7.2,73,7,72.1,7,71.2c0-0.1,0-0.3,0-0.4c0-1.5,0-3.1,0-4.6c1.4,0,2.8,0,4.2,0
			c4.3,0,8.6,0.1,12.9,0.1c4.3,0,8.6,0.1,12.9,0.1c4.3,0,8.5,0.1,12.8,0.1c4.3,0,8.6,0.1,12.9,0.1c5,0.1,9.9,0.1,14.9,0.2
			C79.3,66.9,81.1,66.9,83,67C82.9,66.9,83,67,83,67z"/>
		<path class="st5" d="M7.1,50.7c6.7-8.8,13.5-17.6,20.2-26.4c0.1-0.2,0.3-0.2,0.5-0.2c13.9,0,27.9,0,41.8,0c0.2,0,0.4,0,0.5,0.3
			c4.2,8.4,8.5,16.8,12.7,25.1c0,0.1,0.1,0.1,0.1,0.2c0,1.4,0,2.7,0,4.1c0,0,0,0,0,0.1c-0.5-1-1.1-2-1.6-3
			c-4.1-8.2-8.3-16.3-12.4-24.5c-0.1-0.2-0.3-0.3-0.5-0.3c-13.2,0-26.4,0-39.5,0c-0.3,0-0.5,0.1-0.6,0.3c-7,9.1-13.9,18.2-20.9,27.3
			c-0.1,0.1-0.2,0.2-0.3,0.3c0,0,0-0.1,0-0.1c0-1,0-1.9,0-2.9C7.1,50.8,7.1,50.7,7.1,50.7z"/>
		<path class="st6" d="M82.9,66.9c-1.8,0-3.6,0-5.4,0c-5,0-9.9-0.1-14.9-0.2c-4.3,0-8.6-0.1-12.9-0.1c-4.3,0-8.5-0.1-12.8-0.1
			c-4.3,0-8.6-0.1-12.9-0.1c-4.3,0-8.6-0.1-12.9-0.1c-1.4,0-2.8,0-4.2,0c0-0.2,0-0.4,0-0.6c0-0.4,0-0.8,0-1.2c0,0,0-0.1,0-0.1
			c0.5,0,1,0,1.5,0c9.9,0.1,19.8,0.2,29.7,0.3c8.6,0.1,17.1,0.2,25.7,0.3c6.2,0.1,12.3,0.1,18.5,0.2c0.1,0,0.3,0,0.4,0
			C82.9,65.7,82.9,66.3,82.9,66.9z"/>
		<path class="st7" d="M7.1,50.7c0,0.1,0,0.1-0.1,0.2c0,0,0,0-0.1,0c0-0.1,0-0.3,0-0.4C7,36.8,7,23.2,7,9.6c0-0.1,0-0.3,0-0.4
			c0,0.2,0,0.3,0,0.5c0,13.6,0,27.1,0,40.7C7.1,50.4,7.1,50.5,7.1,50.7z"/>
		<path class="st7" d="M7,64.3c0,0.4,0,0.8,0,1.2c0,0.2,0,0.4,0,0.6c0,1.5,0,3.1,0,4.6c0,0.1,0,0.3,0,0.4c0-0.1,0-0.3,0-0.4
			C7,68.6,7,66.5,7,64.3z"/>
		<path class="st8" d="M82.9,53.7c0-1.4,0-2.7,0-4.1c0,0,0,0,0.1,0c0,1.3,0,2.5,0,3.8C83,53.5,82.9,53.6,82.9,53.7z"/>
		<path class="st9" d="M7,50.8C7,50.8,7,50.8,7,50.8c0.1,1,0.1,1.9,0.1,2.9C7,53.7,7,53.6,7,53.5C7,52.6,7,51.7,7,50.8z"/>
		<path class="st10" d="M82.9,66.9c0-0.6,0-1.3,0-1.9c0,0,0,0,0.1,0C83,65.6,83,66.3,82.9,66.9C83,67,82.9,66.9,82.9,66.9z"/>
		<path class="st5" d="M46.9,48.3c-1.4-2.2-2.8-4.3-4.2-6.5c-0.9-1.3-1.7-2.6-2.6-3.9c-1.8-2.6-1.4-5.9,1-8.1c2-1.8,4.4-2.5,7-2.3
			c2,0.1,3.9,0.9,5.4,2.2c1.4,1.3,2.2,2.9,2.2,4.9c0,1.3-0.5,2.4-1.2,3.4c-2.4,3.3-4.9,6.6-7.3,9.8C47.1,48.1,47,48.2,46.9,48.3z
			 M47.3,32.6c-0.7,0-1.3,0.2-1.8,0.7c-0.6,0.6-0.6,1.5,0,2.2c0.9,0.9,2.6,0.9,3.5-0.1c0.5-0.6,0.5-1.4,0.1-1.9
			C48.6,32.9,48,32.6,47.3,32.6z"/>
		<path class="st11" d="M47.3,32.6c0.7,0,1.3,0.2,1.8,0.8c0.5,0.6,0.5,1.4-0.1,1.9c-0.9,0.9-2.6,1-3.5,0.1c-0.6-0.6-0.6-1.5,0-2.2
			C46.1,32.8,46.6,32.6,47.3,32.6z"/>
	</g>
</g>
<g>
	<g>
		<path class="st12" d="M75.9,77.5H14.1c-3.9,0-7.1-3.1-7.1-7V9.9c0-3.8,3.2-7,7.1-7h61.8c3.9,0,7.1,3.1,7.1,7v60.7
			C83,74.4,79.8,77.5,75.9,77.5z"/>
	</g>
</g>
</svg>
