<?xml version="1.0" encoding="utf-8"?>
<!-- Generator: Adobe Illustrator 19.2.0, SVG Export Plug-In . SVG Version: 6.00 Build 0)  -->
<svg version="1.1" xmlns="http://www.w3.org/2000/svg" xmlns:xlink="http://www.w3.org/1999/xlink" x="0px" y="0px"
	 viewBox="0 0 687 647" style="enable-background:new 0 0 687 647;" xml:space="preserve">
<style type="text/css">
	.st0{fill-rule:evenodd;clip-rule:evenodd;fill:#8DC63F;}
	.st1{enable-background:new    ;}
	.st2{fill-rule:evenodd;clip-rule:evenodd;fill:#FFFFFF;}
	.st3{fill-rule:evenodd;clip-rule:evenodd;fill:#FFC800;}
	.st4{fill-rule:evenodd;clip-rule:evenodd;}
	.st5{fill:#FFFFFF;}
</style>
<g id="Group_1_1_">
	<g id="Ellipse_5">
		<g>
			<path class="st0" d="M206.2,263.5c-2.6-3.7-16.3-5-24.2,1.8s-10.1,20.3-10,29.7c0.1,3.6,13.1-8.9,24.3-10.7
				C204.6,283,209.3,268,206.2,263.5z"/>
		</g>
	</g>
	<g id="Ellipse_6">
		<g>
			<path class="st0" d="M225.7,295.5c-3.9-4.9-17.7-9.6-25.5-0.8c-6.9,7.7-7.1,17-10.2,28.5c-1.1,4.1,22-2.8,29.8-9.5
				C227.5,307,229.4,300.1,225.7,295.5z"/>
		</g>
	</g>
	<g id="Ellipse_8">
		<g>
			<path class="st0" d="M275,338c-6.8,2.3-9,4.8-16.3,0.5c-5.3-3.1-17.9,7.6-15.7,7.5c13.9-0.6,3.5,3.2,20,4
				C271.3,350.4,281.2,335.9,275,338z"/>
		</g>
	</g>
	<g id="Ellipse_9">
		<g>
			<path class="st0" d="M231.1,337.9c-4.1-4.8-18.2-7.6-23.3-3.2c-5.1,4.4-8.4,18.2-4.8,16c11-6.4,14.9,1.2,20-3.2
				C228.1,343.1,235.3,342.8,231.1,337.9z"/>
		</g>
	</g>
	<g id="Shape_1">
		<g>
			<path class="st0" d="M211.1,262.1c-0.1-0.2-0.7-0.8-1.6-1.8C206.7,257.2,208.2,258.9,211.1,262.1z M243.8,330.8
				c0,0-0.8-20.4-6.2-32.5c-5.4-12.1-14.1-23-14.1-23s-7.8-8.4-12.3-13.3c0.9,1.4-13-11.8-18.7-19.6c-6.6-9.1-9.1-18.3-9.1-18.3
				s-2.5-7.6-4.4-19.7c-1.9-12.2-2.6-17.1-2.6-17.1l-5.7-5.7c0,0-1.8,18.4,0.7,27.6c2.5,9.2,7.3,22.3,7.3,22.3s5.7,13.6,10.1,19.2
				c4.5,5.5,18.3,17.4,18.3,17.4s2.4,1.7,11.2,12.9s6.9,8.8,10.9,18.2c4,9.4,1.8,6.5,3.3,18.1c1.4,11.6,0.4,22.2,0.4,22.2l2.3,23.7
				l1.3,13.7l12,2.5L243.8,330.8z"/>
		</g>
	</g>
	<g id="Ellipse_10">
		<g>
			<path class="st0" d="M215.5,184.9c-2.1-2.5-20.7-1.9-26.7,3.4c-6.4,5.6-12.2,15.4-8.4,15.6c2.5,0.2,15.2,0.4,21.2-4.9
				C207.7,193.8,217.6,187.3,215.5,184.9z"/>
		</g>
	</g>
	<g id="Ellipse_11">
		<g>
			<path class="st0" d="M169.3,196.6c-5.7-5.6-22.6-12.4-29.5-6.5c-6.9,6-13.9,13.3-7.9,13.6c14.9,0.6,15.8,5.8,23.5,0.8
				C163.3,199.3,179.7,206.9,169.3,196.6z"/>
		</g>
	</g>
	<g id="Ellipse_12">
		<g>
			<path class="st0" d="M177,159.2c-4.3-10.7-27.2-39.3-25.2-33.3c6.2,18.1-3.5,21,2,32.7c7.1,15.2,1.5,16.1,20.8,27.9
				C180,189.8,182.1,171.8,177,159.2z"/>
		</g>
	</g>
	<g id="Ellipse_1">
		<g>
			<path class="st0" d="M279.7,291.6c-3.8-1.5-29-9.4-36-3.4c-7,6-13.2,11-11.4,15c1.1,2.5,15.1,3.6,22.4-2.3
				C261.9,295.3,284.5,293.5,279.7,291.6z"/>
		</g>
	</g>
	<g id="Ellipse_2">
		<g>
			<path class="st0" d="M184.3,240.3c-2.3-2.9-11.5-7.6-18.8-1.4c-7.2,6.2-32.1,12.9-29,13.4c9.7,1.7,33.5,10.9,40.7,4.6
				C184.4,250.8,186.7,243.4,184.3,240.3z"/>
		</g>
	</g>
	<g id="Ellipse_3">
		<g>
			<path class="st0" d="M237.2,218.8c-5-2-32.9-13.9-40.1-7.6c-7.3,6.3-12.2,19.3-7.9,23.6c4.3,4.3,15.2-0.5,22.5-6.8
				C218.8,221.8,242.5,220.9,237.2,218.8z"/>
		</g>
	</g>
</g>
<g id="Shape_2_1_" class="st1">
	<g id="Shape_2">
		<g>
			<path class="st2" d="M454,533.6c-13.3-10.3-34.3-29.7-65.4-66.1l-0.8-1l-1.1-0.7c-56.6-39.2-90.1-81.1-96.8-121.2
				c-4.9-29.4,6.1-47.5,6.6-48.2l4-6.2l-4.8-5.6l-18.6-22.3l-47.1,6.8l30.4-33.6l0.5-2.9c0.3-1.7,7.4-41.9,43.9-41.9
				c6.7,0,14.1,1.3,22.1,3.9l3.9,1.2l3.6-1.8c22.9-11.4,65.3-45.3,104.5-145.1c19.3,74.5,14.5,134.1,0.3,160.4l-12.8,23.6l25.1-9.5
				c53.1-20,130.8-65.8,202-170.4c3.1,4.6,5.4,13.1,2,29.6c-3.7,18.1-12.6,37.2-17.8,48.7c-1.4,3-2.5,5.4-3.2,7.2
				c-1.4,3.4-3.8,11.6,4,15.5l0.4,0.2l0.4,0.1c5.2,2.1,6.6,5.1,7.3,7.5c1.4,4.9,1.7,17-12.4,42.9c-9.5,17.5-21.8,34.3-28.3,43.3
				c-1.6,2.2-2.9,4-3.8,5.3c-4,5.8-3.4,10-1.5,12.9c3.5,7.4,4,14.1,1.4,20.3c-8.6,20.8-47.1,33.7-59.7,37.9
				c-6.2,2.1-11.6,3.9-12.1,10.8l-0.5,6.7l3.4,1.7c1.2,2.5,0.6,3.6,0.4,4c-5.4,10.6-46.6,19.6-81.7,21.4l-9,0.4l-4.8,82.1l57.4,65
				l-49.7-11.1L454,533.6z"/>
		</g>
		<g>
			<path d="M645.6,81.3c-3.6,16.8-11.9,34.9-17,45.7c-1.4,3.1-2.6,5.6-3.4,7.6c-0.7,1.7-1.2,3-1.5,4.3c-2.7,9.7,1.6,19.6,10.3,24
				l0.7,0.4l0.7,0.3c0.8,0.3,1.2,0.6,1.4,0.7c0.2,0.7,2.4,9.1-10.1,32.9c-9.4,17.9-22.2,35.4-29.1,44.9c-1.7,2.3-3,4.1-4,5.5
				c-0.8,1.1-1.3,1.9-1.8,2.7c-4.1,7-3.6,14.2-0.9,19.7l0,0c3.3,6.5,2.5,10.3,1.5,12.8c-1.5,3.6-6.3,10.8-22.2,19.3
				c-11.8,6.3-24.5,10.6-31.4,12.9c-1.8,0.6-3.3,1.1-4.5,1.5c-12.2,4.5-14.2,14.1-14.5,18.1c-0.2,3.5,0.4,7,1.9,10
				c-4.2,2.5-14,6.8-35.3,10.4c-18.5,3.2-35.4,4.1-35.6,4.1l-17.9,0.9l-1,17.9l-4,69l-0.5,8.2l5.4,6.2l34.3,38.9l-3-0.7l-33.5-7.4
				l3.1,10c-10.3-10.3-22.8-23.7-37.7-41.1l-1.7-2l-2.1-1.5c-67.7-46.9-87.6-87.4-92.4-113.1c-4.7-25.1,3.8-40.9,4.9-42.7l8.2-11.9
				l-9.7-11.7l-15-18l-7.2-8.6l-11.1,1.6l-14.1,2l9.8-10.8l4-4.2l0.9-5.9c0.2-0.9,2-10.1,7.6-18.8c6.5-10.1,14.9-14.8,26.5-14.8
				c5.7,0,12.1,1.1,19.1,3.4l7.8,2.5l7.3-3.6c12.6-6.3,32-19.5,53.4-47c15.6-20.1,30.2-45,43.6-74.4c3.7,20.4,5.7,40.1,5.8,58.4
				c0.1,27.1-4.1,51.2-11.4,64.6l-25.6,47.2l50.2-18.9C505.5,213.7,577.5,172.1,645.6,81.3 M440,17c-42.4,123.5-90,158-110,168
				c-9.5-3-17.8-4.4-25.2-4.4c-45.7,0-53.8,50.4-53.8,50.4l-47,52l69-10l15,18c0,0-53,81.9,93,183c67.4,78.6,90,81,90,81l-11-36
				l63,14l-75-85l4-69c0,0,113-5.6,88-43c-2.5-1.2,95.2-22.6,69-75c-1.2-1.2,80.2-97.3,34-116c-2.5-1.2,48.9-86,9-106
				c0.7-1.8,1-2.6,0.9-2.6c-2,0-73.2,127.9-204.9,177.6C464.2,184.1,471.2,111.8,440,17L440,17z"/>
		</g>
	</g>
</g>
<g id="neck_1_" class="st1">
	<g id="neck">
		<g>
			<polygon class="st3" points="328,192 327,206 406,251 449,236 			"/>
		</g>
		<g>
			<polygon points="328,192 327,206 406,251 449,236 328,192 			"/>
		</g>
	</g>
</g>
<g id="Group_2_1_">
	<g id="FEATHERS">
		<g>
			<path class="st4" d="M518,316c-22-2.8-50-13-50-13l58,44c0,0,8.2-13.1,35-27c26.5-13.8,41.8-57.9,41.8-57.9
				C574.9,303.7,535.7,318.2,518,316z"/>
		</g>
		<g>
			<path d="M602.8,262.1c-26,38.9-62,54.1-81.1,54.1c-1.3,0-2.6-0.1-3.7-0.2c-22-2.8-50-13-50-13l58,44c0,0,8.2-13.1,35-27
				C587.5,306.2,602.8,262.1,602.8,262.1L602.8,262.1z"/>
		</g>
	</g>
	<g id="FEATHERS_copy">
		<g>
			<path class="st4" d="M578,245c-21.8,4.1-46,6-46,6l62,23c0,0,7.7-0.7,12.7-34.2C611.7,206.3,612.3,238.6,578,245z"/>
		</g>
		<g>
			<path d="M609.1,224.9c-0.8,0-8.2,15.8-31.1,20.1c-21.8,4.1-46,6-46,6l62,23c0,0,7.7-0.7,12.7-34.2
				C608.3,228.7,609.5,224.9,609.1,224.9L609.1,224.9z"/>
		</g>
	</g>
	<g id="FEATHERS_copy_2">
		<g>
			<path class="st4" d="M648,155c-22.4-25.4-17.9-32.5-35-2.1c-10.9,19.3-25.1,39-25.1,39l57.5-32.6
				C645.5,159.4,670.4,180.4,648,155z"/>
		</g>
		<g>
			<path d="M627.6,132.9c-3.4,0-6.7,6.1-14.6,20c-10.9,19.3-25,39-25,39l57.5-32.6c0,0,9.7,8.2,11.6,8.2c1.1,0-0.6-3-9-12.5
				C635.9,141.3,631.7,132.9,627.6,132.9L627.6,132.9z"/>
		</g>
	</g>
</g>
<g id="Rectangle_2_1_" class="st1">
	<g id="Rectangle_2">
		<g>
			<polygon class="st2" points="288,221 232,264 282,252 280,240 			"/>
		</g>
		<g>
			<polygon class="st5" points="288,221 232,264 282,252 280,240 288,221 			"/>
		</g>
	</g>
</g>
</svg>
