<?xml version="1.0" encoding="utf-8"?>
<!-- Generator: Adobe Illustrator 16.0.3, SVG Export Plug-In . SVG Version: 6.00 Build 0)  -->
<!DOCTYPE svg PUBLIC "-//W3C//DTD SVG 1.1//EN" "http://www.w3.org/Graphics/SVG/1.1/DTD/svg11.dtd">
<svg version="1.1" id="POLITICIAN2_xA0_Image_1_" xmlns="http://www.w3.org/2000/svg" xmlns:xlink="http://www.w3.org/1999/xlink"
	 x="0px" y="0px" width="479px" height="671px" viewBox="0 0 479 671" enable-background="new 0 0 479 671" xml:space="preserve">
<g>
	<g>
		<path fill-rule="evenodd" clip-rule="evenodd" d="M1,1c159.667,0,319.333,0,479,0c0,223.667,0,447.333,0,671
			c-159.667,0-319.333,0-479,0C1,448.333,1,224.667,1,1z M467.638,568.291c0-183.629,0-366.832,0-550.032
			c-149.619,0-298.876,0-448.266,0c0,183.581,0,366.907,0,548.941c7.643-4.771,15.298-10.346,23.629-14.593
			c18.923-9.646,39.159-15.9,59.677-21.149c3.788-0.969,5.017-2.563,5.133-6.366c0.593-19.487,1.436-38.967,2.223-58.448
			c0.67-16.586,1.382-33.17,2.116-50.708c4.702,7.42,11.153,11.292,18.172,13.84c10.46,3.798,21.011,7.698,31.851,10.037
			c45.878,9.897,92.19,11.2,138.656,4.943c25.928-3.491,51.692-7.961,76.376-19.547c0.619,2.903,1.581,5.727,1.778,8.601
			c2.127,30.914,4.212,61.832,6.074,92.763c0.237,3.943,1.207,6.004,5.347,6.758c4.398,0.8,8.688,2.302,12.949,3.725
			C425.937,544.594,448.776,551.623,467.638,568.291z M467.848,587.932c-7.141,5.003-13.907,10.426-21.317,14.743
			c-7.596,4.426-15.672,8.13-23.799,11.523c-35.743,14.923-73.139,23.647-111.424,28.645
			c-61.966,8.088-123.437,4.677-184.092-10.072C88.823,623.435,50.638,613,19.317,587.415c0,22.026,0,44.604,0,67.245
			c149.657,0,299.018,0,448.531,0C467.848,632.03,467.848,609.736,467.848,587.932z M288.657,573.769
			c-2.837-9.778-5.292-18.198-7.72-26.627c-1.842-6.391-6.157-13.411-4.775-19.019c1.436-5.823,8.355-10.323,12.953-15.333
			c4.781-5.209,9.652-10.335,15.242-16.306c-11.713-1.013-22.256-2.082-32.825-2.762c-4.427-0.285-6.987-1.897-8.917-6.115
			c-5.098-11.138-10.792-22.001-16.573-33.626c-1.225,2.052-2.095,3.389-2.847,4.789c-5.515,10.262-11.079,20.499-16.453,30.835
			c-1.312,2.521-2.84,3.546-5.764,3.55c-9.658,0.012-19.317,0.344-28.974,0.598c-1.167,0.031-2.326,0.339-3.997,0.596
			c9.05,10.126,17.458,19.814,26.213,29.178c3.06,3.273,4.014,6.002,2.376,10.482c-3.995,10.933-7.295,22.119-10.844,33.213
			c-0.361,1.131-0.514,2.328-0.918,4.221c13.107-6.649,25.46-12.81,37.692-19.201c2.827-1.478,4.971-1.481,7.781,0.13
			C262.567,559.4,274.977,566.169,288.657,573.769z M104.078,551.036c-8.07,3.77-8.606,7.691-1.042,13.924
			c1.41,1.162,2.838,2.41,4.464,3.184c9.302,4.424,18.394,9.478,28.053,12.93c61.5,21.98,124.26,24.981,187.967,11.479
			c19.898-4.218,39.611-9.136,57.877-18.416c4.09-2.078,7.913-4.932,11.322-8.021c2.975-2.694,2.653-5.936-0.906-8.369
			c-1.362-0.931-2.759-1.811-2.923-1.919c-3.642,1.945-6.33,3.842-9.315,4.908c-56.568,20.206-114.718,27.745-174.504,21.016
			c-33.156-3.732-65-12.511-95.322-26.553C107.946,554.362,106.471,552.82,104.078,551.036z"/>
		<path fill-rule="evenodd" clip-rule="evenodd" fill="#FFFFFF" d="M467.638,568.291c-18.861-16.668-41.701-23.697-64.284-31.236
			c-4.261-1.423-8.551-2.925-12.949-3.725c-4.14-0.754-5.109-2.814-5.347-6.758c-1.862-30.931-3.947-61.849-6.074-92.763
			c-0.197-2.874-1.159-5.697-1.778-8.601c-24.684,11.586-50.448,16.056-76.376,19.547c-46.466,6.257-92.778,4.954-138.656-4.943
			c-10.84-2.339-21.391-6.239-31.851-10.037c-7.019-2.548-13.47-6.42-18.172-13.84c-0.734,17.538-1.446,34.122-2.116,50.708
			c-0.787,19.481-1.63,38.961-2.223,58.448c-0.116,3.803-1.345,5.397-5.133,6.366c-20.518,5.249-40.754,11.504-59.677,21.149
			c-8.332,4.247-15.987,9.821-23.629,14.593c0-182.034,0-365.36,0-548.941c149.39,0,298.647,0,448.266,0
			C467.638,201.459,467.638,384.662,467.638,568.291z M215.624,433.852c24.824,0,49.023,0,73.872,0
			c-2.409-60.51-4.791-120.3-7.148-179.51c-21.882,0-42.921,0-64.219,0C217.29,314.367,216.464,373.599,215.624,433.852z
			 M158.079,425.502c2.529-59.286,5.019-117.654,7.517-176.219c-16.037-3.952-32.494-5.758-45.886-17.366
			c-0.218,3.793-0.447,6.926-0.572,10.063c-2.153,53.766-4.2,107.537-6.587,161.293c-0.223,5.017,1.321,7.682,5.467,9.782
			C130.483,419.37,143.91,422.405,158.079,425.502z M359.911,228.833c-0.026-0.654-0.052-1.308-0.078-1.962
			c-3.439-1.914-6.679-4.467-10.357-5.618c-9.822-3.075-19.691-6.354-29.792-8.12c-45.444-7.945-91.142-8.059-136.885-2.925
			c-16.222,1.821-32.358,4.437-47.61,10.639c-4.011,1.631-7.668,4.131-12.869,6.991c4.614,2.721,7.485,5.264,10.813,6.224
			c12.434,3.585,24.851,7.68,37.573,9.724c42.846,6.887,85.93,6.818,128.992,2.028c17.044-1.896,34.021-4.572,50.012-11.243
			C353.285,233.078,356.52,230.768,359.911,228.833z M332.324,247.218c3.877,59.27,7.768,118.76,11.741,179.51
			c9.234-3.44,17.739-6.65,26.274-9.775c4.844-1.772,5.905-5.001,5.517-10.066c-3.511-45.68-6.726-91.382-10.048-137.075
			c-0.877-12.062-1.822-24.117-2.665-35.234C352.937,238.763,342.895,242.882,332.324,247.218z M420.255,98.679
			c0.791,2.569,1.244,3.645,1.45,4.767c5.426,29.604,10.865,59.205,16.208,88.824c1.832,10.151,1.717,10.176,11.952,9.604
			c0.279-0.016,0.543-0.308,1.182-0.692c0-1.755,0-3.723,0-5.691c0-41.976-0.052-83.95,0.075-125.926
			c0.014-4.586-0.051-9.734,1.914-13.61c2.426-4.784,1.831-9.073,1.671-13.7c-5.394,0-10.329,0-15.882,0
			c0.258,3.843,0.19,7.465,0.813,10.964c0.822,4.62,3.072,9.127,3.16,13.712c0.378,19.647,0.187,39.307,0.202,58.962
			c0.002,3.428,0,6.855,0,10.283c-0.194,0.014-0.389,0.027-0.583,0.041c-5.703-31.33-11.407-62.66-17.097-93.917
			c-5.792,0-11.057,0-16.894,0c0.262,3.923,0.222,7.565,0.813,11.103c0.778,4.65,2.943,9.211,2.976,13.821
			c0.254,36.478,0.185,72.956,0.076,109.435c-0.011,3.775,0.074,8.107-1.652,11.191c-2.631,4.7-1.975,9.087-1.718,13.767
			c5.287,0,10.176,0,15.432,0c-0.216-3.862-0.078-7.383-0.68-10.771c-0.854-4.804-3.198-9.498-3.261-14.261
			C420.078,151.106,420.255,125.623,420.255,98.679z M79.334,123.918c0.868,13.945,1.028,27.984,2.842,41.806
			c1.304,9.93,4.356,19.722,7.524,29.278c1.789,5.396,6.259,8.914,12.563,9.007c6.257,0.093,10.469-3.271,13.027-8.46
			c2.333-4.731,4.608-9.713,5.623-14.838c7.48-37.78,7.212-75.748,1.356-113.675c-1.042-6.751-3.508-13.628-6.829-19.606
			c-5.729-10.315-17.479-10.208-23.598-0.132c-2.552,4.202-4.536,8.935-5.824,13.685C80.436,81.576,80.053,102.726,79.334,123.918z
			 M375.48,42.251c-8.318,53.081-10.459,106.711-22.134,159.408c6.536,0,12.082,0,19.218,0c-1.621-5.637-4.064-10.498-4.227-15.435
			c-0.35-10.656,0.471-21.352,0.81-31.945c5.684,0,9.949,0,14.741,0c0.646,9.49,1.381,18.741,1.823,28.006
			c0.1,2.071-0.171,4.774-1.411,6.178c-3.655,4.135-2.004,8.641-2.206,13.26c7.461,0,14.527,0,22.989,0
			c-1.143-4.876-2.139-9.207-3.18-13.527c-0.544-2.253-1.484-4.456-1.709-6.734c-2.765-27.976-5.433-55.961-8.118-83.944
			c-1.762-18.348-3.51-36.695-5.285-55.266C382.83,42.251,379.089,42.251,375.48,42.251z M31.67,42.089
			c0.177,4.001-0.011,7.65,0.579,11.17c0.805,4.806,3.156,9.505,3.193,14.263c0.277,36.152,0.199,72.308,0.083,108.462
			c-0.013,3.942-0.793,7.913-1.526,11.813c-0.848,4.51-2.038,8.954-3.178,13.852c8.356,0,15.244,0,22.716,0
			c-0.414-3.973-0.508-7.601-1.233-11.098c-0.782-3.774-2.994-7.399-3.116-11.138c-0.413-12.649-0.186-25.319-0.176-37.981
			c0.001-1.431,0.171-2.86,0.262-4.274c12.143,0.422,15.711-3.472,19.877-15.308c0.385-1.095,0.656-2.235,0.922-3.368
			c3.785-16.077,3.907-32.383,2.333-48.672c-0.599-6.198-2.385-12.377-4.365-18.319c-1.732-5.199-5.859-8.902-11.412-9.265
			C48.543,41.696,40.396,42.089,31.67,42.089z M237.87,201.065c0-3.77,1.237-7.815-0.238-9.536
			c-3.987-4.649-3.743-9.848-3.763-15.081c-0.143-38.312-0.169-76.624-0.208-114.936c-0.001-1.096,0.273-2.192,0.625-4.832
			c9.733,8.136,5.66,19.247,8.882,28.04c1.895,0,3.815,0,5.849,0c0-14.309,0-28.339,0-42.329c-14.938,0-29.487,0-43.977,0
			c0,14.328,0,28.264,0,42.327c2.2,0,4.1,0,6.248,0c0.264-2.041,0.477-3.844,0.732-5.641c0.747-5.264,1.29-10.57,2.361-15.769
			c0.542-2.632,1.597-5.582,5.98-4.987c0,1.876,0,3.677,0,5.478c0,25.32,0.042,50.642-0.017,75.962
			c-0.032,14.154-0.176,28.311-0.416,42.463c-0.035,2.095-0.203,4.822-1.47,6.144c-3.91,4.078-2.236,8.519-2.242,12.697
			C223.654,201.065,230.6,201.065,237.87,201.065z M308.121,188.941c-1.74-2.813-3.682-4.806-4.279-7.142
			c-1.559-6.099-3.394-12.321-3.58-18.541c-0.688-22.949-1.178-45.923-0.85-68.874c0.139-9.728,2.188-19.479,3.989-29.104
			c0.636-3.395,3.12-6.442,5.222-10.551c7.312,8.867,5.735,18.373,7.758,26.972c2.137,0,4.197,0,6.619,0c0-10.26,0-20.228,0-30.195
			c0-1.333,0.317-2.777-0.092-3.97c-0.492-1.432-1.327-3.019-2.495-3.901c-9.714-7.343-20.484-4.628-25.272,7.688
			c-3.871,9.958-6.635,20.633-7.979,31.231c-3.612,28.515-3.218,57.172-0.117,85.742c1.076,9.92,2.643,19.893,8.162,28.55
			c5.631,8.833,20.35,9.676,26.897,1.715c0.481-0.585,0.841-1.472,0.844-2.22c0.053-11.956,0.037-23.912,0.037-36.087
			c-2.516,0-4.581,0-6.585,0C314.094,169.715,316.329,180.213,308.121,188.941z M155.955,42.345c-8.478,0-15.206,0-22.326,0
			c0.176,3.819-0.001,7.344,0.576,10.738c0.846,4.972,3.197,9.843,3.236,14.771c0.286,35.977,0.207,71.957,0.079,107.936
			c-0.015,4.1-0.027,8.73-1.841,12.163c-2.505,4.743-1.814,9.087-1.566,13.784c12.171,0,23.932,0,36.381,0
			c0-16.631,0-33.003,0-49.356c-2.019,0-4.069,0-5.734,0c-1.286,9.29-2.182,18.22-3.849,27.003
			c-1.235,6.508-2.482,6.954-9.559,6.291c-0.107-0.583-0.324-1.215-0.324-1.848c0.009-40.309,0.013-80.618,0.117-120.928
			c0.006-2.274,0.766-4.565,1.311-6.816C153.506,51.742,154.654,47.426,155.955,42.345z M199.212,201.745
			c-0.489-4.144-0.709-7.871-1.423-11.5c-0.625-3.179-2.605-6.245-2.62-9.367c-0.18-39.275-0.144-78.553-0.034-117.829
			c0.007-2.572,0.393-5.6,1.772-7.616c3.001-4.391,1.745-8.732,1.582-13.151c-7.102,0-13.703,0-20.89,0
			c0.232,3.89,0.141,7.528,0.737,11.051c0.812,4.806,3.075,9.516,3.11,14.279c0.27,36.116,0.195,72.236,0.081,108.354
			c-0.012,3.939-0.771,7.91-1.506,11.806c-0.852,4.512-2.06,8.956-3.241,13.974C184.855,201.745,191.455,201.745,199.212,201.745z
			 M329.583,42.233c0.224,4.055,0.095,7.569,0.683,10.96c0.832,4.802,3.142,9.504,3.178,14.262
			c0.275,36.283,0.201,72.569,0.078,108.854c-0.014,3.932-0.043,8.396-1.814,11.663c-2.561,4.72-1.881,9.072-1.596,13.582
			c7.136,0,13.841,0,21.293,0c-0.639-4.22-1.042-7.94-1.804-11.587c-0.631-3.022-2.425-5.955-2.438-8.933
			c-0.166-39.276-0.139-78.553-0.035-117.829c0.007-2.579,0.311-5.656,1.709-7.629c3.1-4.376,1.754-8.76,1.721-13.343
			C343.509,42.233,336.912,42.233,329.583,42.233z M255.617,42.263c0.217,3.865,0.096,7.503,0.698,11.018
			c0.796,4.643,3.096,9.181,3.13,13.776c0.266,36.455,0.199,72.914,0.074,109.371c-0.014,3.93-0.924,7.881-1.66,11.776
			c-0.783,4.148-1.854,8.243-2.984,13.17c8.217,0,14.801,0,22.897,0c-1.137-4.571-2.238-8.842-3.25-13.134
			c-0.567-2.407-1.405-4.849-1.41-7.276c-0.085-39.283-0.087-78.566,0.021-117.849c0.006-2.575,0.345-5.644,1.746-7.62
			c3.111-4.389,1.619-8.765,1.738-13.232C269.438,42.263,262.837,42.263,255.617,42.263z"/>
		<path fill-rule="evenodd" clip-rule="evenodd" fill="#FFFFFF" d="M467.848,587.932c0,21.805,0,44.099,0,66.729
			c-149.513,0-298.874,0-448.531,0c0-22.641,0-45.219,0-67.245c31.321,25.585,69.506,36.02,107.898,45.355
			c60.655,14.749,122.126,18.16,184.092,10.072c38.285-4.997,75.681-13.722,111.424-28.645c8.127-3.394,16.203-7.098,23.799-11.523
			C453.94,598.357,460.707,592.935,467.848,587.932z"/>
		<path fill-rule="evenodd" clip-rule="evenodd" fill="#FFFFFF" d="M288.657,573.769c-13.681-7.6-26.09-14.368-38.349-21.397
			c-2.811-1.611-4.954-1.607-7.781-0.13c-12.232,6.392-24.585,12.552-37.692,19.201c0.404-1.893,0.557-3.09,0.918-4.221
			c3.549-11.094,6.849-22.28,10.844-33.213c1.637-4.48,0.684-7.209-2.376-10.482c-8.755-9.363-17.163-19.052-26.213-29.178
			c1.671-0.257,2.83-0.564,3.997-0.596c9.657-0.254,19.316-0.586,28.974-0.598c2.923-0.004,4.452-1.028,5.764-3.55
			c5.374-10.336,10.938-20.573,16.453-30.835c0.752-1.4,1.622-2.737,2.847-4.789c5.781,11.625,11.476,22.488,16.573,33.626
			c1.93,4.218,4.49,5.83,8.917,6.115c10.569,0.68,21.112,1.749,32.825,2.762c-5.59,5.971-10.461,11.097-15.242,16.306
			c-4.598,5.01-11.518,9.51-12.953,15.333c-1.382,5.607,2.934,12.628,4.775,19.019C283.365,555.57,285.82,563.99,288.657,573.769z"
			/>
		<path fill-rule="evenodd" clip-rule="evenodd" fill="#FFFFFF" d="M104.078,551.036c2.393,1.784,3.868,3.326,5.671,4.161
			c30.321,14.042,62.166,22.82,95.322,26.553c59.786,6.729,117.936-0.81,174.504-21.016c2.985-1.066,5.674-2.963,9.315-4.908
			c0.164,0.108,1.561,0.988,2.923,1.919c3.56,2.434,3.881,5.675,0.906,8.369c-3.409,3.09-7.232,5.943-11.322,8.021
			c-18.266,9.28-37.979,14.198-57.877,18.416c-63.707,13.503-126.467,10.502-187.967-11.479c-9.659-3.452-18.751-8.506-28.053-12.93
			c-1.626-0.773-3.054-2.021-4.464-3.184C95.471,558.728,96.007,554.806,104.078,551.036z"/>
		<path fill-rule="evenodd" clip-rule="evenodd" d="M215.624,433.852c0.84-60.253,1.667-119.484,2.504-179.51
			c21.298,0,42.337,0,64.219,0c2.357,59.21,4.739,119,7.148,179.51C264.646,433.852,240.447,433.852,215.624,433.852z"/>
		<path fill-rule="evenodd" clip-rule="evenodd" d="M158.079,425.502c-14.169-3.097-27.596-6.132-40.061-12.446
			c-4.146-2.101-5.69-4.766-5.467-9.782c2.387-53.756,4.435-107.527,6.587-161.293c0.125-3.138,0.354-6.271,0.572-10.063
			c13.392,11.608,29.849,13.414,45.886,17.366C163.098,307.848,160.608,366.216,158.079,425.502z"/>
		<path fill-rule="evenodd" clip-rule="evenodd" d="M359.911,228.833c-3.392,1.935-6.626,4.245-10.202,5.737
			c-15.991,6.671-32.968,9.347-50.012,11.243c-43.063,4.79-86.146,4.858-128.992-2.028c-12.722-2.044-25.14-6.139-37.573-9.724
			c-3.328-0.96-6.199-3.503-10.813-6.224c5.201-2.86,8.858-5.36,12.869-6.991c15.252-6.202,31.388-8.817,47.61-10.639
			c45.744-5.134,91.441-5.021,136.885,2.925c10.101,1.766,19.97,5.045,29.792,8.12c3.679,1.151,6.918,3.704,10.357,5.618
			C359.859,227.525,359.885,228.179,359.911,228.833z"/>
		<path fill-rule="evenodd" clip-rule="evenodd" d="M332.324,247.218c10.57-4.336,20.612-8.455,30.819-12.642
			c0.843,11.117,1.788,23.173,2.665,35.234c3.322,45.693,6.537,91.396,10.048,137.075c0.389,5.065-0.673,8.294-5.517,10.066
			c-8.535,3.125-17.04,6.335-26.274,9.775C340.092,365.978,336.201,306.487,332.324,247.218z"/>
		<path fill-rule="evenodd" clip-rule="evenodd" d="M420.255,98.679c0,26.944-0.177,52.428,0.158,77.904
			c0.063,4.763,2.407,9.457,3.261,14.261c0.602,3.389,0.464,6.909,0.68,10.771c-5.256,0-10.145,0-15.432,0
			c-0.257-4.68-0.913-9.066,1.718-13.767c1.727-3.084,1.642-7.416,1.652-11.191c0.108-36.479,0.178-72.957-0.076-109.435
			c-0.032-4.61-2.197-9.171-2.976-13.821c-0.592-3.537-0.552-7.18-0.813-11.103c5.837,0,11.102,0,16.894,0
			c5.689,31.257,11.394,62.587,17.097,93.917c0.194-0.014,0.389-0.027,0.583-0.041c0-3.428,0.002-6.855,0-10.283
			c-0.016-19.655,0.176-39.314-0.202-58.962c-0.088-4.585-2.338-9.092-3.16-13.712c-0.622-3.499-0.555-7.121-0.813-10.964
			c5.553,0,10.488,0,15.882,0c0.16,4.627,0.755,8.916-1.671,13.7c-1.965,3.876-1.9,9.024-1.914,13.61
			c-0.127,41.976-0.075,83.95-0.075,125.926c0,1.969,0,3.937,0,5.691c-0.639,0.385-0.902,0.677-1.182,0.692
			c-10.235,0.571-10.12,0.547-11.952-9.604c-5.343-29.619-10.782-59.221-16.208-88.824
			C421.499,102.323,421.046,101.248,420.255,98.679z"/>
		<path fill-rule="evenodd" clip-rule="evenodd" d="M79.334,123.918c0.719-21.192,1.102-42.342,6.685-62.936
			c1.288-4.75,3.272-9.482,5.824-13.685c6.119-10.076,17.868-10.184,23.598,0.132c3.321,5.979,5.786,12.855,6.829,19.606
			c5.856,37.927,6.125,75.895-1.356,113.675c-1.015,5.125-3.29,10.106-5.623,14.838c-2.558,5.188-6.77,8.553-13.027,8.46
			c-6.303-0.093-10.774-3.61-12.563-9.007c-3.167-9.557-6.22-19.349-7.524-29.278C80.362,151.902,80.202,137.863,79.334,123.918z
			 M102.589,188.765c5.815-4.843,6.46-10.622,7.234-16.087c4.012-28.333,3.41-56.796,1.615-85.236
			c-0.5-7.926-2.044-15.816-3.595-23.626c-0.56-2.819-2.542-5.356-4.102-8.474c-6.344,5.145-7.237,11.482-7.534,17.436
			c-1.075,21.592-2.229,43.218-2.052,64.82c0.114,13.889,2.303,27.783,4.028,41.617C98.574,182.342,100.897,185.227,102.589,188.765
			z"/>
		<path fill-rule="evenodd" clip-rule="evenodd" d="M375.48,42.251c3.608,0,7.35,0,11.312,0c1.775,18.57,3.523,36.918,5.285,55.266
			c2.686,27.983,5.354,55.969,8.118,83.944c0.225,2.278,1.165,4.481,1.709,6.734c1.041,4.32,2.037,8.651,3.18,13.527
			c-8.462,0-15.528,0-22.989,0c0.202-4.619-1.449-9.125,2.206-13.26c1.24-1.403,1.511-4.106,1.411-6.178
			c-0.442-9.265-1.178-18.516-1.823-28.006c-4.792,0-9.058,0-14.741,0c-0.339,10.594-1.159,21.289-0.81,31.945
			c0.162,4.937,2.605,9.798,4.227,15.435c-7.136,0-12.682,0-19.218,0C365.021,148.962,367.162,95.332,375.48,42.251z
			 M382.382,137.801c-1.498-16.375-2.948-32.227-4.397-48.078c-0.318,0.01-0.638,0.02-0.956,0.028
			c-1.798,15.927-3.597,31.854-5.425,48.05C375.399,137.801,378.502,137.801,382.382,137.801z"/>
		<path fill-rule="evenodd" clip-rule="evenodd" d="M31.67,42.089c8.726,0,16.874-0.393,24.961,0.136
			c5.553,0.362,9.679,4.065,11.412,9.265c1.98,5.942,3.766,12.121,4.365,18.319c1.574,16.289,1.452,32.595-2.333,48.672
			c-0.267,1.133-0.537,2.273-0.922,3.368c-4.166,11.836-7.734,15.729-19.877,15.308c-0.091,1.414-0.261,2.844-0.262,4.274
			c-0.01,12.662-0.237,25.332,0.176,37.981c0.122,3.738,2.334,7.363,3.116,11.138c0.725,3.497,0.819,7.125,1.233,11.098
			c-7.473,0-14.36,0-22.716,0c1.14-4.897,2.33-9.342,3.178-13.852c0.733-3.899,1.513-7.87,1.526-11.813
			c0.116-36.154,0.194-72.31-0.083-108.462c-0.037-4.758-2.388-9.457-3.193-14.263C31.659,49.739,31.847,46.09,31.67,42.089z
			 M49.22,120.959c5.946,0.017,8.196-4.058,8.5-8.297c0.935-13.018,1.344-26.087,1.485-39.141c0.04-3.695-1.277-7.495-2.459-11.087
			c-1.086-3.297-3.467-5.243-7.526-4.112C49.22,78.979,49.22,99.701,49.22,120.959z"/>
		<path fill-rule="evenodd" clip-rule="evenodd" d="M237.87,201.065c-7.271,0-14.216,0-21.653,0
			c0.006-4.179-1.668-8.619,2.242-12.697c1.268-1.321,1.435-4.049,1.47-6.144c0.239-14.152,0.383-28.309,0.416-42.463
			c0.059-25.32,0.017-50.642,0.017-75.962c0-1.801,0-3.602,0-5.478c-4.383-0.595-5.438,2.355-5.98,4.987
			c-1.071,5.198-1.614,10.505-2.361,15.769c-0.255,1.797-0.468,3.6-0.732,5.641c-2.148,0-4.048,0-6.248,0
			c0-14.063,0-27.999,0-42.327c14.49,0,29.039,0,43.977,0c0,13.99,0,28.021,0,42.329c-2.033,0-3.954,0-5.849,0
			c-3.223-8.793,0.851-19.904-8.882-28.04c-0.352,2.64-0.626,3.736-0.625,4.832c0.038,38.312,0.064,76.624,0.208,114.936
			c0.02,5.233-0.224,10.432,3.763,15.081C239.107,193.25,237.87,197.296,237.87,201.065z"/>
		<path fill-rule="evenodd" clip-rule="evenodd" d="M308.121,188.941c8.208-8.729,5.973-19.227,8.279-28.686
			c2.004,0,4.069,0,6.585,0c0,12.175,0.016,24.131-0.037,36.087c-0.003,0.748-0.362,1.635-0.844,2.22
			c-6.548,7.961-21.267,7.118-26.897-1.715c-5.52-8.657-7.086-18.63-8.162-28.55c-3.101-28.57-3.495-57.228,0.117-85.742
			c1.344-10.599,4.107-21.273,7.979-31.231c4.788-12.316,15.559-15.031,25.272-7.688c1.168,0.883,2.003,2.47,2.495,3.901
			c0.409,1.192,0.092,2.637,0.092,3.97c0,9.968,0,19.936,0,30.195c-2.422,0-4.482,0-6.619,0c-2.022-8.599-0.446-18.104-7.758-26.972
			c-2.102,4.108-4.586,7.156-5.222,10.551c-1.802,9.624-3.851,19.376-3.989,29.104c-0.328,22.951,0.162,45.925,0.85,68.874
			c0.187,6.22,2.021,12.442,3.58,18.541C304.439,184.136,306.381,186.129,308.121,188.941z"/>
		<path fill-rule="evenodd" clip-rule="evenodd" d="M155.955,42.345c-1.301,5.081-2.448,9.397-3.499,13.737
			c-0.545,2.251-1.305,4.542-1.311,6.816c-0.104,40.31-0.108,80.619-0.117,120.928c0,0.633,0.217,1.265,0.324,1.848
			c7.077,0.663,8.324,0.217,9.559-6.291c1.667-8.783,2.563-17.713,3.849-27.003c1.665,0,3.716,0,5.734,0c0,16.354,0,32.726,0,49.356
			c-12.449,0-24.209,0-36.381,0c-0.249-4.697-0.939-9.041,1.566-13.784c1.813-3.433,1.826-8.063,1.841-12.163
			c0.127-35.979,0.207-71.959-0.079-107.936c-0.039-4.928-2.39-9.799-3.236-14.771c-0.578-3.395-0.4-6.919-0.576-10.738
			C140.749,42.345,147.477,42.345,155.955,42.345z"/>
		<path fill-rule="evenodd" clip-rule="evenodd" d="M199.212,201.745c-7.757,0-14.357,0-22.431,0
			c1.181-5.018,2.389-9.462,3.241-13.974c0.735-3.896,1.494-7.866,1.506-11.806c0.114-36.118,0.189-72.238-0.081-108.354
			c-0.036-4.764-2.298-9.474-3.11-14.279c-0.596-3.522-0.504-7.161-0.737-11.051c7.187,0,13.788,0,20.89,0
			c0.163,4.419,1.419,8.761-1.582,13.151c-1.379,2.017-1.765,5.044-1.772,7.616c-0.11,39.276-0.146,78.554,0.034,117.829
			c0.015,3.122,1.994,6.188,2.62,9.367C198.503,193.874,198.724,197.602,199.212,201.745z"/>
		<path fill-rule="evenodd" clip-rule="evenodd" d="M329.583,42.233c7.329,0,13.926,0,20.975,0
			c0.033,4.583,1.379,8.967-1.721,13.343c-1.398,1.973-1.702,5.05-1.709,7.629c-0.104,39.276-0.131,78.553,0.035,117.829
			c0.013,2.978,1.807,5.91,2.438,8.933c0.762,3.646,1.165,7.367,1.804,11.587c-7.452,0-14.157,0-21.293,0
			c-0.285-4.51-0.965-8.862,1.596-13.582c1.771-3.268,1.801-7.731,1.814-11.663c0.123-36.284,0.197-72.57-0.078-108.854
			c-0.036-4.758-2.346-9.46-3.178-14.262C329.678,49.803,329.807,46.288,329.583,42.233z"/>
		<path fill-rule="evenodd" clip-rule="evenodd" d="M255.617,42.263c7.22,0,13.82,0,21,0c-0.119,4.468,1.373,8.844-1.738,13.232
			c-1.401,1.977-1.74,5.045-1.746,7.62c-0.107,39.282-0.105,78.565-0.021,117.849c0.005,2.428,0.843,4.869,1.41,7.276
			c1.012,4.292,2.113,8.563,3.25,13.134c-8.097,0-14.681,0-22.897,0c1.131-4.927,2.201-9.021,2.984-13.17
			c0.736-3.896,1.646-7.847,1.66-11.776c0.125-36.457,0.191-72.916-0.074-109.371c-0.034-4.596-2.334-9.134-3.13-13.776
			C255.713,49.766,255.834,46.128,255.617,42.263z"/>
		<path fill-rule="evenodd" clip-rule="evenodd" fill="#FFFFFF" d="M102.589,188.765c-1.692-3.538-4.015-6.423-4.405-9.55
			c-1.725-13.834-3.914-27.729-4.028-41.617c-0.177-21.603,0.977-43.229,2.052-64.82c0.296-5.953,1.189-12.291,7.534-17.436
			c1.559,3.117,3.542,5.654,4.102,8.474c1.551,7.81,3.095,15.7,3.595,23.626c1.795,28.44,2.396,56.903-1.615,85.236
			C109.049,178.143,108.404,183.922,102.589,188.765z"/>
		<path fill-rule="evenodd" clip-rule="evenodd" fill="#FFFFFF" d="M382.382,137.801c-3.88,0-6.982,0-10.778,0
			c1.828-16.196,3.627-32.123,5.425-48.05c0.318-0.009,0.638-0.019,0.956-0.028C379.434,105.574,380.884,121.426,382.382,137.801z"
			/>
		<path fill-rule="evenodd" clip-rule="evenodd" fill="#FFFFFF" d="M49.22,120.959c0-21.258,0-41.979,0-62.637
			c4.059-1.131,6.44,0.815,7.526,4.112c1.182,3.592,2.499,7.392,2.459,11.087c-0.141,13.054-0.55,26.123-1.485,39.141
			C57.416,116.901,55.166,120.976,49.22,120.959z"/>
	</g>
</g>
</svg>
