<?xml version="1.0" encoding="utf-8"?>
<!-- Generator: Adobe Illustrator 16.0.3, SVG Export Plug-In . SVG Version: 6.00 Build 0)  -->
<!DOCTYPE svg PUBLIC "-//W3C//DTD SVG 1.1//EN" "http://www.w3.org/Graphics/SVG/1.1/DTD/svg11.dtd">
<svg version="1.1" id="Politician_Info_2_xA0_Image_1_"
	 xmlns="http://www.w3.org/2000/svg" xmlns:xlink="http://www.w3.org/1999/xlink" x="0px" y="0px" width="864px" height="720px"
	 viewBox="0 0 864 720" enable-background="new 0 0 864 720" xml:space="preserve">
<g>
	<g>
		<path fill-rule="evenodd" clip-rule="evenodd" fill="#CBCBFE" d="M1,721C1,481,1,241,1,1c288,0,576,0,864,0c0,240,0,480,0,720
			C577,721,289,721,1,721z M183.325,516.522c-13.154,2.91-25.843,5.521-38.433,8.54c-33.162,7.952-66.061,16.835-97.185,31.089
			c-7.508,3.438-14.792,7.677-21.479,12.515c-8.398,6.076-8.338,11.053-0.322,17.506c4.634,3.73,9.608,7.434,15.032,9.716
			c20.646,8.687,41.12,18.097,62.408,24.884c86.904,27.702,176.399,41.438,267.229,47.123c54.793,3.429,109.568,2.753,164.307-1.71
			c57.997-4.728,115.367-13.323,171.93-27.095c37.353-9.095,74.247-19.69,109.087-36.224c9.683-4.595,18.949-10.433,27.538-16.861
			c7.967-5.963,7.627-11.34-0.57-17.178c-6.859-4.886-14.299-9.178-21.967-12.665c-30.238-13.75-62.182-22.34-94.34-30.161
			c-10.31-2.508-20.688-4.734-30.943-7.069c-1.89-28.479-3.516-56.58-5.696-84.639c-1.574-20.246-3.751-40.45-6.01-60.635
			c-0.355-3.184-3.441-6.065-3.785-9.247c-1.935-17.881-3.444-35.809-5.047-53.725c-3.146-35.17-6.22-70.346-9.39-105.513
			c-3.483-38.65-7.063-77.292-10.49-115.947c-0.161-1.812,0.317-3.99,1.261-5.531c2.676-4.369,1.732-8.194-1.74-11.176
			c-3.112-2.673-6.621-5.234-10.398-6.708c-8.489-3.313-17.1-6.551-25.933-8.71c-44.225-10.806-89.407-14.027-134.688-16.021
			c-45.651-2.01-91.289-1.411-136.885,1.811c-31.579,2.23-63.04,5.387-94.011,12.205c-13.639,3.003-27.271,6.222-39.464,13.469
			c-5.56,3.305-10.134,7.269-7.545,14.882c0.399,1.175-0.049,2.642-0.119,3.973c-1.879,35.605-3.789,71.21-5.633,106.818
			c-2.146,41.432-4.216,82.868-6.354,124.301c-2.567,49.752-5.165,99.502-7.762,149.252
			C185.086,483.923,184.206,500.054,183.325,516.522z"/>
		<path fill-rule="evenodd" clip-rule="evenodd" fill="#030102" d="M183.325,516.522c0.881-16.469,1.761-32.6,2.603-48.732
			c2.597-49.75,5.195-99.5,7.762-149.252c2.138-41.433,4.208-82.869,6.354-124.301c1.844-35.608,3.754-71.213,5.633-106.818
			c0.07-1.331,0.519-2.798,0.119-3.973c-2.588-7.613,1.985-11.577,7.545-14.882c12.194-7.247,25.826-10.466,39.464-13.469
			c30.971-6.818,62.432-9.975,94.011-12.205c45.596-3.222,91.233-3.82,136.885-1.811c45.28,1.994,90.463,5.216,134.688,16.021
			c8.833,2.159,17.443,5.396,25.933,8.71c3.777,1.474,7.286,4.035,10.398,6.708c3.473,2.981,4.416,6.807,1.74,11.176
			c-0.943,1.541-1.422,3.72-1.261,5.531c3.427,38.655,7.007,77.297,10.49,115.947c3.17,35.167,6.244,70.343,9.39,105.513
			c1.603,17.916,3.112,35.844,5.047,53.725c0.344,3.182,3.43,6.063,3.785,9.247c2.259,20.185,4.436,40.389,6.01,60.635
			c2.181,28.059,3.807,56.16,5.696,84.639c10.255,2.335,20.634,4.562,30.943,7.069c32.158,7.821,64.102,16.411,94.34,30.161
			c7.668,3.487,15.107,7.779,21.967,12.665c8.197,5.838,8.537,11.215,0.57,17.178c-8.589,6.429-17.855,12.267-27.538,16.861
			c-34.84,16.533-71.734,27.129-109.087,36.224c-56.563,13.771-113.933,22.367-171.93,27.095
			c-54.738,4.463-109.514,5.139-164.307,1.71c-90.829-5.685-180.325-19.421-267.229-47.123
			c-21.289-6.787-41.763-16.197-62.408-24.884c-5.424-2.282-10.398-5.985-15.032-9.716c-8.017-6.453-8.077-11.43,0.322-17.506
			c6.687-4.838,13.971-9.077,21.479-12.515c31.124-14.254,64.023-23.137,97.185-31.089
			C157.482,522.043,170.171,519.433,183.325,516.522z M433.96,412.878c-26.614-1.238-53.257-2.038-79.835-3.817
			c-40.729-2.728-81.061-8.631-121.03-16.944c-8.558-1.78-17.089-3.691-25.912-5.602c-1.409,24.52-2.561,48.466-4.217,72.376
			c-2.048,29.563-4.438,59.102-6.9,88.633c-0.32,3.841,0.586,5.377,4.339,6.657c68.138,23.249,138.355,34.568,210.152,36.647
			c41.515,1.202,82.907-0.787,124.175-5.652c48.174-5.68,95.626-14.849,142.275-28.201c4.104-1.175,5.451-2.795,5.162-7.142
			c-2.915-43.868-5.547-87.755-8.418-131.626c-0.703-10.74-1.992-21.441-3.057-32.624c-2.158,0.448-3.76,0.741-5.343,1.115
			c-56.838,13.415-114.402,21.733-172.75,24.449c-16.3,0.759-32.614,1.201-48.922,1.789c-1.502-2.085-3.003-4.169-4.687-6.506
			C437.148,408.794,435.554,410.836,433.96,412.878z M697.195,534.67c0,6.614-0.287,12.271,0.057,17.891
			c0.834,13.631,0.965,13.665-11.977,17.512c-63.112,18.757-127.606,29.62-193.253,34.098c-44.642,3.045-89.242,2.707-133.766-1.459
			c-49.326-4.615-97.819-13.765-145.123-28.713c-11.529-3.644-22.944-7.646-34.082-11.374c1.227-10.381,2.364-20.004,3.521-29.797
			c-31.303,1.604-125.587,31.355-142.711,44.792c0.489,0.462,0.895,1.031,1.446,1.336c4.367,2.413,8.667,4.975,13.165,7.119
			c26.222,12.502,53.771,21.33,81.705,28.991c92.152,25.275,186.194,37.443,281.572,39.684
			c62.722,1.474,125.147-2.66,187.273-11.529c51.14-7.301,101.564-17.761,150.861-33.311c22.704-7.161,45.053-15.288,65.98-26.846
			c2.679-1.479,5.204-3.237,8.828-5.511C787.716,555.317,742.406,544.975,697.195,534.67z M499.19,117.041
			c0.751,92.544,1.505,185.429,2.269,279.545c32.895-3.714,65.176-7.358,97.567-11.015c-2.514-93.687-4.991-186.045-7.458-278.009
			C560.734,110.727,530.311,113.848,499.19,117.041z M288.104,387.184c28.866,3.016,57.131,5.969,85.94,8.979
			c2.96-93.413,5.896-186.045,8.826-278.5c-27.834-2.123-55.282-4.217-83.127-6.341C295.877,202.95,292.011,294.566,288.104,387.184
			z M405.543,121.225c-2.857,91.853-5.708,183.498-8.578,275.743c28.05,0,55.558,0,83.509,0
			c-1.747-92.458-3.479-184.104-5.21-275.743C451.585,121.225,428.808,121.225,405.543,121.225z M220.272,94.692
			c-4.754,91.609-9.528,183.604-14.334,276.212c19.854,4.139,39.296,8.19,59.458,12.394c4.942-92.198,9.837-183.538,14.702-274.295
			C259.932,104.179,240.315,99.486,220.272,94.692z M226.787,77.702c0.004,0.97,0.008,1.939,0.013,2.909
			c12.53,3.136,24.95,6.832,37.609,9.306c45.748,8.938,92.128,11.655,138.597,12.789c49.837,1.216,99.609-0.376,149.194-5.832
			c23.985-2.64,47.894-5.928,71.127-12.81c4.34-1.286,8.569-2.944,12.85-4.431c-2.209-2.036-4.262-3.054-6.432-3.63
			c-10.278-2.729-20.482-5.886-30.904-7.895c-47.744-9.2-96.114-12.203-144.596-12.804c-30.296-0.375-60.63,0.597-90.918,1.741
			c-35.131,1.328-70.077,4.969-104.546,12.117C247.99,71.402,237.445,74.823,226.787,77.702z M613.292,382.653
			c16.628-3.647,31.978-7.175,47.41-10.286c3.86-0.778,4.76-2.296,4.398-5.975c-1.804-18.383-3.408-36.785-5.047-55.185
			c-2.465-27.681-4.874-55.367-7.353-83.048c-2.894-32.32-5.826-64.637-8.763-96.953c-0.97-10.67-2.004-21.334-3.057-32.51
			c-9.246,4.286-17.771,8.381-26.43,12.167c-2.732,1.194-3.534,2.749-3.505,5.628c0.833,81.761,1.586,163.523,2.337,245.285
			C613.345,368.41,613.292,375.044,613.292,382.653z"/>
		<path fill-rule="evenodd" clip-rule="evenodd" fill="#3333FD" d="M443.68,412.937c16.308-0.588,32.622-1.03,48.922-1.789
			c58.348-2.716,115.912-11.034,172.75-24.449c1.583-0.374,3.185-0.667,5.343-1.115c1.064,11.183,2.354,21.884,3.057,32.624
			c2.871,43.871,5.503,87.758,8.418,131.626c0.289,4.347-1.058,5.967-5.162,7.142c-46.649,13.353-94.102,22.521-142.275,28.201
			c-41.268,4.865-82.66,6.854-124.175,5.652c-71.797-2.079-142.014-13.398-210.152-36.647c-3.753-1.28-4.659-2.816-4.339-6.657
			c2.462-29.531,4.852-59.07,6.9-88.633c1.657-23.91,2.808-47.856,4.217-72.376c8.822,1.91,17.354,3.821,25.912,5.602
			c39.969,8.313,80.302,14.217,121.03,16.944c26.578,1.779,53.221,2.579,79.835,3.817c-10.822,15.982-21.588,32.004-32.571,47.874
			c-0.892,1.288-3.259,2.149-4.964,2.188c-19.991,0.454-39.986,0.707-59.981,1.032c-1.39,0.022-2.777,0.192-5.021,0.355
			c3.032,2.684,5.37,4.767,7.725,6.832c15.157,13.297,30.268,26.647,45.528,39.825c2.539,2.193,3.076,3.905,1.71,7.118
			c-7.481,17.6-14.684,35.318-21.961,53.004c-0.635,1.545-1.119,3.151-1.974,5.583c2.669-0.991,4.23-1.537,5.767-2.146
			c22.566-8.956,45.101-17.998,67.741-26.761c2.281-0.883,5.555-0.897,7.788,0.051c22.813,9.679,45.503,19.645,68.233,29.517
			c1.568,0.682,3.185,1.253,5.533,2.171c-0.635-2.044-0.916-3.129-1.305-4.175c-7.176-19.331-14.265-38.695-21.645-57.948
			c-1.308-3.412-0.752-5.305,2.008-7.487c7.055-5.579,13.892-11.435,20.801-17.197c9.532-7.952,19.052-15.919,29.308-24.49
			c-1.797-0.21-2.551-0.327-3.309-0.382c-21.6-1.564-43.203-3.076-64.792-4.769c-1.712-0.134-4.034-1.055-4.879-2.374
			C463.563,444.861,453.65,428.88,443.68,412.937z"/>
		<path fill-rule="evenodd" clip-rule="evenodd" fill="#FD0000" d="M697.195,534.67c45.211,10.305,90.521,20.647,133.496,42.883
			c-3.624,2.273-6.149,4.031-8.828,5.511c-20.928,11.558-43.276,19.685-65.98,26.846c-49.297,15.55-99.722,26.01-150.861,33.311
			c-62.126,8.869-124.552,13.003-187.273,11.529c-95.378-2.24-189.42-14.408-281.572-39.684
			c-27.933-7.661-55.482-16.489-81.705-28.991c-4.498-2.145-8.797-4.706-13.165-7.119c-0.551-0.305-0.957-0.874-1.446-1.336
			c17.124-13.437,111.408-43.188,142.711-44.792c-1.157,9.793-2.294,19.416-3.521,29.797c11.138,3.728,22.553,7.73,34.082,11.374
			c47.304,14.948,95.797,24.098,145.123,28.713c44.523,4.166,89.124,4.504,133.766,1.459
			c65.646-4.478,130.141-15.341,193.253-34.098c12.941-3.847,12.811-3.881,11.977-17.512
			C696.908,546.941,697.195,541.284,697.195,534.67z"/>
		<path fill-rule="evenodd" clip-rule="evenodd" fill="#FDFDFD" d="M499.19,117.041c31.12-3.193,61.544-6.314,92.378-9.479
			c2.467,91.964,4.944,184.322,7.458,278.009c-32.392,3.656-64.673,7.301-97.567,11.015
			C500.695,302.47,499.941,209.585,499.19,117.041z"/>
		<path fill-rule="evenodd" clip-rule="evenodd" fill="#FDFDFD" d="M288.104,387.184c3.908-92.617,7.773-184.233,11.64-275.862
			c27.845,2.124,55.293,4.218,83.127,6.341c-2.931,92.455-5.866,185.087-8.826,278.5
			C345.234,393.152,316.97,390.199,288.104,387.184z"/>
		<path fill-rule="evenodd" clip-rule="evenodd" fill="#FD0000" d="M405.543,121.225c23.265,0,46.042,0,69.721,0
			c1.731,91.639,3.463,183.285,5.21,275.743c-27.951,0-55.459,0-83.509,0C399.835,304.723,402.686,213.077,405.543,121.225z"/>
		<path fill-rule="evenodd" clip-rule="evenodd" fill="#FD0000" d="M220.272,94.692c20.042,4.794,39.659,9.486,59.827,14.311
			c-4.865,90.757-9.76,182.097-14.702,274.295c-20.163-4.203-39.605-8.255-59.458-12.394
			C210.744,278.297,215.519,186.302,220.272,94.692z"/>
		<path fill-rule="evenodd" clip-rule="evenodd" fill="#FDFDFD" d="M443.68,412.937c9.971,15.943,19.883,31.925,30.021,47.762
			c0.845,1.319,3.167,2.24,4.879,2.374c21.589,1.692,43.192,3.204,64.792,4.769c0.758,0.055,1.512,0.172,3.309,0.382
			c-10.256,8.571-19.775,16.538-29.308,24.49c-6.909,5.763-13.746,11.618-20.801,17.197c-2.76,2.183-3.315,4.075-2.008,7.487
			c7.38,19.253,14.469,38.617,21.645,57.948c0.389,1.046,0.67,2.131,1.305,4.175c-2.349-0.918-3.965-1.489-5.533-2.171
			c-22.73-9.872-45.421-19.838-68.233-29.517c-2.233-0.948-5.507-0.934-7.788-0.051c-22.641,8.763-45.175,17.805-67.741,26.761
			c-1.536,0.609-3.098,1.155-5.767,2.146c0.854-2.432,1.339-4.038,1.974-5.583c7.277-17.686,14.479-35.404,21.961-53.004
			c1.366-3.213,0.829-4.925-1.71-7.118c-15.261-13.178-30.371-26.528-45.528-39.825c-2.354-2.065-4.692-4.148-7.725-6.832
			c2.243-0.163,3.631-0.333,5.021-0.355c19.995-0.325,39.99-0.578,59.981-1.032c1.705-0.038,4.072-0.899,4.964-2.188
			c10.983-15.87,21.749-31.892,32.571-47.874c1.594-2.042,3.188-4.084,5.033-6.447C440.677,408.768,442.178,410.852,443.68,412.937z
			"/>
		<path fill-rule="evenodd" clip-rule="evenodd" fill="#FD0000" d="M226.787,77.702c10.658-2.879,21.204-6.3,31.995-8.538
			c34.469-7.148,69.415-10.789,104.546-12.117c30.288-1.145,60.622-2.116,90.918-1.741c48.481,0.601,96.852,3.604,144.596,12.804
			c10.422,2.009,20.626,5.166,30.904,7.895c2.17,0.576,4.223,1.594,6.432,3.63c-4.28,1.486-8.51,3.145-12.85,4.431
			c-23.233,6.882-47.142,10.17-71.127,12.81c-49.585,5.456-99.357,7.048-149.194,5.832c-46.469-1.134-92.85-3.852-138.597-12.789
			c-12.66-2.474-25.08-6.17-37.609-9.306C226.795,79.642,226.791,78.672,226.787,77.702z"/>
		<path fill-rule="evenodd" clip-rule="evenodd" fill="#FD0000" d="M613.292,382.653c0-7.609,0.053-14.243-0.008-20.876
			c-0.751-81.762-1.504-163.524-2.337-245.285c-0.029-2.879,0.772-4.434,3.505-5.628c8.659-3.786,17.184-7.881,26.43-12.167
			c1.053,11.176,2.087,21.84,3.057,32.51c2.937,32.316,5.869,64.633,8.763,96.953c2.479,27.681,4.888,55.367,7.353,83.048
			c1.639,18.399,3.243,36.802,5.047,55.185c0.361,3.679-0.538,5.196-4.398,5.975C645.27,375.479,629.92,379.006,613.292,382.653z"/>
	</g>
</g>
</svg>
