<?xml version="1.0" encoding="utf-8"?>
<!-- Generator: Adobe Illustrator 19.2.0, SVG Export Plug-In . SVG Version: 6.00 Build 0)  -->
<svg version="1.1" id="POLITICIAN2_xA0_Image_1_" xmlns="http://www.w3.org/2000/svg" xmlns:xlink="http://www.w3.org/1999/xlink"
	 x="0px" y="0px" viewBox="0 0 479 671" style="enable-background:new 0 0 479 671;" xml:space="preserve">
<style type="text/css">
	.st0{fill:#FFFFFF;}
</style>
<g>
	<g>
		<path d="M1,1c159.7,0,319.3,0,479,0c0,223.7,0,447.3,0,671c-159.7,0-319.3,0-479,0C1,448.3,1,224.7,1,1z M467.6,568.3
			c0-183.6,0-366.8,0-550c-149.6,0-298.9,0-448.3,0c0,183.6,0,366.9,0,548.9c7.6-4.8,15.3-10.3,23.6-14.6
			c18.9-9.6,39.2-15.9,59.7-21.1c3.8-1,5-2.6,5.1-6.4c0.6-19.5,1.4-39,2.2-58.4c0.7-16.6,1.4-33.2,2.1-50.7
			c4.7,7.4,11.2,11.3,18.2,13.8c10.5,3.8,21,7.7,31.9,10c45.9,9.9,92.2,11.2,138.7,4.9c25.9-3.5,51.7-8,76.4-19.5
			c0.6,2.9,1.6,5.7,1.8,8.6c2.1,30.9,4.2,61.8,6.1,92.8c0.2,3.9,1.2,6,5.3,6.8c4.4,0.8,8.7,2.3,12.9,3.7
			C425.9,544.6,448.8,551.6,467.6,568.3z M467.8,587.9c-7.1,5-13.9,10.4-21.3,14.7c-7.6,4.4-15.7,8.1-23.8,11.5
			c-35.7,14.9-73.1,23.6-111.4,28.6c-62,8.1-123.4,4.7-184.1-10.1c-38.4-9.3-76.6-19.8-107.9-45.4c0,22,0,44.6,0,67.2
			c149.7,0,299,0,448.5,0C467.8,632,467.8,609.7,467.8,587.9z M288.7,573.8c-2.8-9.8-5.3-18.2-7.7-26.6c-1.8-6.4-6.2-13.4-4.8-19
			c1.4-5.8,8.4-10.3,13-15.3c4.8-5.2,9.7-10.3,15.2-16.3c-11.7-1-22.3-2.1-32.8-2.8c-4.4-0.3-7-1.9-8.9-6.1
			c-5.1-11.1-10.8-22-16.6-33.6c-1.2,2.1-2.1,3.4-2.8,4.8c-5.5,10.3-11.1,20.5-16.5,30.8c-1.3,2.5-2.8,3.5-5.8,3.5
			c-9.7,0-19.3,0.3-29,0.6c-1.2,0-2.3,0.3-4,0.6c9.1,10.1,17.5,19.8,26.2,29.2c3.1,3.3,4,6,2.4,10.5c-4,10.9-7.3,22.1-10.8,33.2
			c-0.4,1.1-0.5,2.3-0.9,4.2c13.1-6.6,25.5-12.8,37.7-19.2c2.8-1.5,5-1.5,7.8,0.1C262.6,559.4,275,566.2,288.7,573.8z M104.1,551
			c-8.1,3.8-8.6,7.7-1,13.9c1.4,1.2,2.8,2.4,4.5,3.2c9.3,4.4,18.4,9.5,28.1,12.9c61.5,22,124.3,25,188,11.5
			c19.9-4.2,39.6-9.1,57.9-18.4c4.1-2.1,7.9-4.9,11.3-8c3-2.7,2.7-5.9-0.9-8.4c-1.4-0.9-2.8-1.8-2.9-1.9c-3.6,1.9-6.3,3.8-9.3,4.9
			c-56.6,20.2-114.7,27.7-174.5,21c-33.2-3.7-65-12.5-95.3-26.6C107.9,554.4,106.5,552.8,104.1,551z"/>
		<path class="st0" d="M467.6,568.3c-18.9-16.7-41.7-23.7-64.3-31.2c-4.3-1.4-8.6-2.9-12.9-3.7c-4.1-0.8-5.1-2.8-5.3-6.8
			c-1.9-30.9-3.9-61.8-6.1-92.8c-0.2-2.9-1.2-5.7-1.8-8.6c-24.7,11.6-50.4,16.1-76.4,19.5c-46.5,6.3-92.8,5-138.7-4.9
			c-10.8-2.3-21.4-6.2-31.9-10c-7-2.5-13.5-6.4-18.2-13.8c-0.7,17.5-1.4,34.1-2.1,50.7c-0.8,19.5-1.6,39-2.2,58.4
			c-0.1,3.8-1.3,5.4-5.1,6.4C82.2,536.7,61.9,543,43,552.6c-8.3,4.2-16,9.8-23.6,14.6c0-182,0-365.4,0-548.9
			c149.4,0,298.6,0,448.3,0C467.6,201.5,467.6,384.7,467.6,568.3z M215.6,433.9c24.8,0,49,0,73.9,0c-2.4-60.5-4.8-120.3-7.1-179.5
			c-21.9,0-42.9,0-64.2,0C217.3,314.4,216.5,373.6,215.6,433.9z M158.1,425.5c2.5-59.3,5-117.7,7.5-176.2c-16-4-32.5-5.8-45.9-17.4
			c-0.2,3.8-0.4,6.9-0.6,10.1c-2.2,53.8-4.2,107.5-6.6,161.3c-0.2,5,1.3,7.7,5.5,9.8C130.5,419.4,143.9,422.4,158.1,425.5z
			 M359.9,228.8c0-0.7-0.1-1.3-0.1-2c-3.4-1.9-6.7-4.5-10.4-5.6c-9.8-3.1-19.7-6.4-29.8-8.1c-45.4-7.9-91.1-8.1-136.9-2.9
			c-16.2,1.8-32.4,4.4-47.6,10.6c-4,1.6-7.7,4.1-12.9,7c4.6,2.7,7.5,5.3,10.8,6.2c12.4,3.6,24.9,7.7,37.6,9.7
			c42.8,6.9,85.9,6.8,129,2c17-1.9,34-4.6,50-11.2C353.3,233.1,356.5,230.8,359.9,228.8z M332.3,247.2
			c3.9,59.3,7.8,118.8,11.7,179.5c9.2-3.4,17.7-6.6,26.3-9.8c4.8-1.8,5.9-5,5.5-10.1c-3.5-45.7-6.7-91.4-10-137.1
			c-0.9-12.1-1.8-24.1-2.7-35.2C352.9,238.8,342.9,242.9,332.3,247.2z M420.3,98.7c0.8,2.6,1.2,3.6,1.5,4.8
			c5.4,29.6,10.9,59.2,16.2,88.8c1.8,10.2,1.7,10.2,12,9.6c0.3,0,0.5-0.3,1.2-0.7c0-1.8,0-3.7,0-5.7c0-42-0.1-83.9,0.1-125.9
			c0-4.6-0.1-9.7,1.9-13.6c2.4-4.8,1.8-9.1,1.7-13.7c-5.4,0-10.3,0-15.9,0c0.3,3.8,0.2,7.5,0.8,11c0.8,4.6,3.1,9.1,3.2,13.7
			c0.4,19.6,0.2,39.3,0.2,59c0,3.4,0,6.9,0,10.3c-0.2,0-0.4,0-0.6,0c-5.7-31.3-11.4-62.7-17.1-93.9c-5.8,0-11.1,0-16.9,0
			c0.3,3.9,0.2,7.6,0.8,11.1c0.8,4.7,2.9,9.2,3,13.8c0.3,36.5,0.2,73,0.1,109.4c0,3.8,0.1,8.1-1.7,11.2c-2.6,4.7-2,9.1-1.7,13.8
			c5.3,0,10.2,0,15.4,0c-0.2-3.9-0.1-7.4-0.7-10.8c-0.9-4.8-3.2-9.5-3.3-14.3C420.1,151.1,420.3,125.6,420.3,98.7z M79.3,123.9
			c0.9,13.9,1,28,2.8,41.8c1.3,9.9,4.4,19.7,7.5,29.3c1.8,5.4,6.3,8.9,12.6,9c6.3,0.1,10.5-3.3,13-8.5c2.3-4.7,4.6-9.7,5.6-14.8
			c7.5-37.8,7.2-75.7,1.4-113.7c-1-6.8-3.5-13.6-6.8-19.6c-5.7-10.3-17.5-10.2-23.6-0.1c-2.6,4.2-4.5,8.9-5.8,13.7
			C80.4,81.6,80.1,102.7,79.3,123.9z M375.5,42.3C367.2,95.3,365,149,353.3,201.7c6.5,0,12.1,0,19.2,0c-1.6-5.6-4.1-10.5-4.2-15.4
			c-0.4-10.7,0.5-21.4,0.8-31.9c5.7,0,9.9,0,14.7,0c0.6,9.5,1.4,18.7,1.8,28c0.1,2.1-0.2,4.8-1.4,6.2c-3.7,4.1-2,8.6-2.2,13.3
			c7.5,0,14.5,0,23,0c-1.1-4.9-2.1-9.2-3.2-13.5c-0.5-2.3-1.5-4.5-1.7-6.7c-2.8-28-5.4-56-8.1-83.9c-1.8-18.3-3.5-36.7-5.3-55.3
			C382.8,42.3,379.1,42.3,375.5,42.3z M31.7,42.1c0.2,4,0,7.7,0.6,11.2c0.8,4.8,3.2,9.5,3.2,14.3c0.3,36.2,0.2,72.3,0.1,108.5
			c0,3.9-0.8,7.9-1.5,11.8c-0.8,4.5-2,9-3.2,13.9c8.4,0,15.2,0,22.7,0c-0.4-4-0.5-7.6-1.2-11.1c-0.8-3.8-3-7.4-3.1-11.1
			c-0.4-12.6-0.2-25.3-0.2-38c0-1.4,0.2-2.9,0.3-4.3c12.1,0.4,15.7-3.5,19.9-15.3c0.4-1.1,0.7-2.2,0.9-3.4
			c3.8-16.1,3.9-32.4,2.3-48.7C71.8,63.6,70,57.4,68,51.5c-1.7-5.2-5.9-8.9-11.4-9.3C48.5,41.7,40.4,42.1,31.7,42.1z M237.9,201.1
			c0-3.8,1.2-7.8-0.2-9.5c-4-4.6-3.7-9.8-3.8-15.1c-0.1-38.3-0.2-76.6-0.2-114.9c0-1.1,0.3-2.2,0.6-4.8c9.7,8.1,5.7,19.2,8.9,28
			c1.9,0,3.8,0,5.8,0c0-14.3,0-28.3,0-42.3c-14.9,0-29.5,0-44,0c0,14.3,0,28.3,0,42.3c2.2,0,4.1,0,6.2,0c0.3-2,0.5-3.8,0.7-5.6
			c0.7-5.3,1.3-10.6,2.4-15.8c0.5-2.6,1.6-5.6,6-5c0,1.9,0,3.7,0,5.5c0,25.3,0,50.6,0,76c0,14.2-0.2,28.3-0.4,42.5
			c0,2.1-0.2,4.8-1.5,6.1c-3.9,4.1-2.2,8.5-2.2,12.7C223.7,201.1,230.6,201.1,237.9,201.1z M308.1,188.9c-1.7-2.8-3.7-4.8-4.3-7.1
			c-1.6-6.1-3.4-12.3-3.6-18.5c-0.7-22.9-1.2-45.9-0.9-68.9c0.1-9.7,2.2-19.5,4-29.1c0.6-3.4,3.1-6.4,5.2-10.6
			c7.3,8.9,5.7,18.4,7.8,27c2.1,0,4.2,0,6.6,0c0-10.3,0-20.2,0-30.2c0-1.3,0.3-2.8-0.1-4c-0.5-1.4-1.3-3-2.5-3.9
			c-9.7-7.3-20.5-4.6-25.3,7.7c-3.9,10-6.6,20.6-8,31.2c-3.6,28.5-3.2,57.2-0.1,85.7c1.1,9.9,2.6,19.9,8.2,28.6
			c5.6,8.8,20.4,9.7,26.9,1.7c0.5-0.6,0.8-1.5,0.8-2.2c0.1-12,0-23.9,0-36.1c-2.5,0-4.6,0-6.6,0
			C314.1,169.7,316.3,180.2,308.1,188.9z M156,42.3c-8.5,0-15.2,0-22.3,0c0.2,3.8,0,7.3,0.6,10.7c0.8,5,3.2,9.8,3.2,14.8
			c0.3,36,0.2,72,0.1,107.9c0,4.1,0,8.7-1.8,12.2c-2.5,4.7-1.8,9.1-1.6,13.8c12.2,0,23.9,0,36.4,0c0-16.6,0-33,0-49.4
			c-2,0-4.1,0-5.7,0c-1.3,9.3-2.2,18.2-3.8,27c-1.2,6.5-2.5,7-9.6,6.3c-0.1-0.6-0.3-1.2-0.3-1.8c0-40.3,0-80.6,0.1-120.9
			c0-2.3,0.8-4.6,1.3-6.8C153.5,51.7,154.7,47.4,156,42.3z M199.2,201.7c-0.5-4.1-0.7-7.9-1.4-11.5c-0.6-3.2-2.6-6.2-2.6-9.4
			c-0.2-39.3-0.1-78.6,0-117.8c0-2.6,0.4-5.6,1.8-7.6c3-4.4,1.7-8.7,1.6-13.2c-7.1,0-13.7,0-20.9,0c0.2,3.9,0.1,7.5,0.7,11.1
			c0.8,4.8,3.1,9.5,3.1,14.3c0.3,36.1,0.2,72.2,0.1,108.4c0,3.9-0.8,7.9-1.5,11.8c-0.9,4.5-2.1,9-3.2,14
			C184.9,201.7,191.5,201.7,199.2,201.7z M329.6,42.2c0.2,4.1,0.1,7.6,0.7,11c0.8,4.8,3.1,9.5,3.2,14.3c0.3,36.3,0.2,72.6,0.1,108.9
			c0,3.9,0,8.4-1.8,11.7c-2.6,4.7-1.9,9.1-1.6,13.6c7.1,0,13.8,0,21.3,0c-0.6-4.2-1-7.9-1.8-11.6c-0.6-3-2.4-6-2.4-8.9
			c-0.2-39.3-0.1-78.6,0-117.8c0-2.6,0.3-5.7,1.7-7.6c3.1-4.4,1.8-8.8,1.7-13.3C343.5,42.2,336.9,42.2,329.6,42.2z M255.6,42.3
			c0.2,3.9,0.1,7.5,0.7,11c0.8,4.6,3.1,9.2,3.1,13.8c0.3,36.5,0.2,72.9,0.1,109.4c0,3.9-0.9,7.9-1.7,11.8c-0.8,4.1-1.9,8.2-3,13.2
			c8.2,0,14.8,0,22.9,0c-1.1-4.6-2.2-8.8-3.3-13.1c-0.6-2.4-1.4-4.8-1.4-7.3c-0.1-39.3-0.1-78.6,0-117.8c0-2.6,0.3-5.6,1.7-7.6
			c3.1-4.4,1.6-8.8,1.7-13.2C269.4,42.3,262.8,42.3,255.6,42.3z"/>
		<path class="st0" d="M467.8,587.9c0,21.8,0,44.1,0,66.7c-149.5,0-298.9,0-448.5,0c0-22.6,0-45.2,0-67.2
			c31.3,25.6,69.5,36,107.9,45.4c60.7,14.7,122.1,18.2,184.1,10.1c38.3-5,75.7-13.7,111.4-28.6c8.1-3.4,16.2-7.1,23.8-11.5
			C453.9,598.4,460.7,592.9,467.8,587.9z"/>
		<path class="st0" d="M288.7,573.8c-13.7-7.6-26.1-14.4-38.3-21.4c-2.8-1.6-5-1.6-7.8-0.1c-12.2,6.4-24.6,12.6-37.7,19.2
			c0.4-1.9,0.6-3.1,0.9-4.2c3.5-11.1,6.8-22.3,10.8-33.2c1.6-4.5,0.7-7.2-2.4-10.5c-8.8-9.4-17.2-19.1-26.2-29.2
			c1.7-0.3,2.8-0.6,4-0.6c9.7-0.3,19.3-0.6,29-0.6c2.9,0,4.5-1,5.8-3.5c5.4-10.3,10.9-20.6,16.5-30.8c0.8-1.4,1.6-2.7,2.8-4.8
			c5.8,11.6,11.5,22.5,16.6,33.6c1.9,4.2,4.5,5.8,8.9,6.1c10.6,0.7,21.1,1.7,32.8,2.8c-5.6,6-10.5,11.1-15.2,16.3
			c-4.6,5-11.5,9.5-13,15.3c-1.4,5.6,2.9,12.6,4.8,19C283.4,555.6,285.8,564,288.7,573.8z"/>
		<path class="st0" d="M104.1,551c2.4,1.8,3.9,3.3,5.7,4.2c30.3,14,62.2,22.8,95.3,26.6c59.8,6.7,117.9-0.8,174.5-21
			c3-1.1,5.7-3,9.3-4.9c0.2,0.1,1.6,1,2.9,1.9c3.6,2.4,3.9,5.7,0.9,8.4c-3.4,3.1-7.2,5.9-11.3,8c-18.3,9.3-38,14.2-57.9,18.4
			c-63.7,13.5-126.5,10.5-188-11.5c-9.7-3.5-18.8-8.5-28.1-12.9c-1.6-0.8-3.1-2-4.5-3.2C95.5,558.7,96,554.8,104.1,551z"/>
		<path d="M215.6,433.9c0.8-60.3,1.7-119.5,2.5-179.5c21.3,0,42.3,0,64.2,0c2.4,59.2,4.7,119,7.1,179.5
			C264.6,433.9,240.4,433.9,215.6,433.9z"/>
		<path d="M158.1,425.5c-14.2-3.1-27.6-6.1-40.1-12.4c-4.1-2.1-5.7-4.8-5.5-9.8c2.4-53.8,4.4-107.5,6.6-161.3
			c0.1-3.1,0.4-6.3,0.6-10.1c13.4,11.6,29.8,13.4,45.9,17.4C163.1,307.8,160.6,366.2,158.1,425.5z"/>
		<path d="M359.9,228.8c-3.4,1.9-6.6,4.2-10.2,5.7c-16,6.7-33,9.3-50,11.2c-43.1,4.8-86.1,4.9-129-2c-12.7-2-25.1-6.1-37.6-9.7
			c-3.3-1-6.2-3.5-10.8-6.2c5.2-2.9,8.9-5.4,12.9-7c15.3-6.2,31.4-8.8,47.6-10.6c45.7-5.1,91.4-5,136.9,2.9c10.1,1.8,20,5,29.8,8.1
			c3.7,1.2,6.9,3.7,10.4,5.6C359.9,227.5,359.9,228.2,359.9,228.8z"/>
		<path d="M332.3,247.2c10.6-4.3,20.6-8.5,30.8-12.6c0.8,11.1,1.8,23.2,2.7,35.2c3.3,45.7,6.5,91.4,10,137.1
			c0.4,5.1-0.7,8.3-5.5,10.1c-8.5,3.1-17,6.3-26.3,9.8C340.1,366,336.2,306.5,332.3,247.2z"/>
		<path d="M420.3,98.7c0,26.9-0.2,52.4,0.2,77.9c0.1,4.8,2.4,9.5,3.3,14.3c0.6,3.4,0.5,6.9,0.7,10.8c-5.3,0-10.1,0-15.4,0
			c-0.3-4.7-0.9-9.1,1.7-13.8c1.7-3.1,1.6-7.4,1.7-11.2c0.1-36.5,0.2-73-0.1-109.4c0-4.6-2.2-9.2-3-13.8c-0.6-3.5-0.6-7.2-0.8-11.1
			c5.8,0,11.1,0,16.9,0c5.7,31.3,11.4,62.6,17.1,93.9c0.2,0,0.4,0,0.6,0c0-3.4,0-6.9,0-10.3c0-19.7,0.2-39.3-0.2-59
			c-0.1-4.6-2.3-9.1-3.2-13.7c-0.6-3.5-0.6-7.1-0.8-11c5.6,0,10.5,0,15.9,0c0.2,4.6,0.8,8.9-1.7,13.7c-2,3.9-1.9,9-1.9,13.6
			c-0.1,42-0.1,83.9-0.1,125.9c0,2,0,3.9,0,5.7c-0.6,0.4-0.9,0.7-1.2,0.7c-10.2,0.6-10.1,0.5-12-9.6c-5.3-29.6-10.8-59.2-16.2-88.8
			C421.5,102.3,421,101.2,420.3,98.7z"/>
		<path d="M79.3,123.9c0.7-21.2,1.1-42.3,6.7-62.9c1.3-4.8,3.3-9.5,5.8-13.7c6.1-10.1,17.9-10.2,23.6,0.1c3.3,6,5.8,12.9,6.8,19.6
			c5.9,37.9,6.1,75.9-1.4,113.7c-1,5.1-3.3,10.1-5.6,14.8c-2.6,5.2-6.8,8.6-13,8.5c-6.3-0.1-10.8-3.6-12.6-9
			c-3.2-9.6-6.2-19.3-7.5-29.3C80.4,151.9,80.2,137.9,79.3,123.9z M102.6,188.8c5.8-4.8,6.5-10.6,7.2-16.1c4-28.3,3.4-56.8,1.6-85.2
			c-0.5-7.9-2-15.8-3.6-23.6c-0.6-2.8-2.5-5.4-4.1-8.5c-6.3,5.1-7.2,11.5-7.5,17.4c-1.1,21.6-2.2,43.2-2.1,64.8
			c0.1,13.9,2.3,27.8,4,41.6C98.6,182.3,100.9,185.2,102.6,188.8z"/>
		<path d="M375.5,42.3c3.6,0,7.4,0,11.3,0c1.8,18.6,3.5,36.9,5.3,55.3c2.7,28,5.4,56,8.1,83.9c0.2,2.3,1.2,4.5,1.7,6.7
			c1,4.3,2,8.7,3.2,13.5c-8.5,0-15.5,0-23,0c0.2-4.6-1.4-9.1,2.2-13.3c1.2-1.4,1.5-4.1,1.4-6.2c-0.4-9.3-1.2-18.5-1.8-28
			c-4.8,0-9.1,0-14.7,0c-0.3,10.6-1.2,21.3-0.8,31.9c0.2,4.9,2.6,9.8,4.2,15.4c-7.1,0-12.7,0-19.2,0C365,149,367.2,95.3,375.5,42.3z
			 M382.4,137.8c-1.5-16.4-2.9-32.2-4.4-48.1c-0.3,0-0.6,0-1,0c-1.8,15.9-3.6,31.9-5.4,48.1C375.4,137.8,378.5,137.8,382.4,137.8z"
			/>
		<path d="M31.7,42.1c8.7,0,16.9-0.4,25,0.1c5.6,0.4,9.7,4.1,11.4,9.3c2,5.9,3.8,12.1,4.4,18.3c1.6,16.3,1.5,32.6-2.3,48.7
			c-0.3,1.1-0.5,2.3-0.9,3.4c-4.2,11.8-7.7,15.7-19.9,15.3c-0.1,1.4-0.3,2.8-0.3,4.3c0,12.7-0.2,25.3,0.2,38
			c0.1,3.7,2.3,7.4,3.1,11.1c0.7,3.5,0.8,7.1,1.2,11.1c-7.5,0-14.4,0-22.7,0c1.1-4.9,2.3-9.3,3.2-13.9c0.7-3.9,1.5-7.9,1.5-11.8
			c0.1-36.2,0.2-72.3-0.1-108.5c0-4.8-2.4-9.5-3.2-14.3C31.7,49.7,31.8,46.1,31.7,42.1z M49.2,121c5.9,0,8.2-4.1,8.5-8.3
			c0.9-13,1.3-26.1,1.5-39.1c0-3.7-1.3-7.5-2.5-11.1c-1.1-3.3-3.5-5.2-7.5-4.1C49.2,79,49.2,99.7,49.2,121z"/>
		<path d="M237.9,201.1c-7.3,0-14.2,0-21.7,0c0-4.2-1.7-8.6,2.2-12.7c1.3-1.3,1.4-4,1.5-6.1c0.2-14.2,0.4-28.3,0.4-42.5
			c0.1-25.3,0-50.6,0-76c0-1.8,0-3.6,0-5.5c-4.4-0.6-5.4,2.4-6,5c-1.1,5.2-1.6,10.5-2.4,15.8c-0.3,1.8-0.5,3.6-0.7,5.6
			c-2.1,0-4,0-6.2,0c0-14.1,0-28,0-42.3c14.5,0,29,0,44,0c0,14,0,28,0,42.3c-2,0-4,0-5.8,0c-3.2-8.8,0.9-19.9-8.9-28
			c-0.4,2.6-0.6,3.7-0.6,4.8c0,38.3,0.1,76.6,0.2,114.9c0,5.2-0.2,10.4,3.8,15.1C239.1,193.3,237.9,197.3,237.9,201.1z"/>
		<path d="M308.1,188.9c8.2-8.7,6-19.2,8.3-28.7c2,0,4.1,0,6.6,0c0,12.2,0,24.1,0,36.1c0,0.7-0.4,1.6-0.8,2.2
			c-6.5,8-21.3,7.1-26.9-1.7c-5.5-8.7-7.1-18.6-8.2-28.6c-3.1-28.6-3.5-57.2,0.1-85.7c1.3-10.6,4.1-21.3,8-31.2
			c4.8-12.3,15.6-15,25.3-7.7c1.2,0.9,2,2.5,2.5,3.9c0.4,1.2,0.1,2.6,0.1,4c0,10,0,19.9,0,30.2c-2.4,0-4.5,0-6.6,0
			c-2-8.6-0.4-18.1-7.8-27c-2.1,4.1-4.6,7.2-5.2,10.6c-1.8,9.6-3.9,19.4-4,29.1c-0.3,23,0.2,45.9,0.9,68.9c0.2,6.2,2,12.4,3.6,18.5
			C304.4,184.1,306.4,186.1,308.1,188.9z"/>
		<path d="M156,42.3c-1.3,5.1-2.4,9.4-3.5,13.7c-0.5,2.3-1.3,4.5-1.3,6.8c-0.1,40.3-0.1,80.6-0.1,120.9c0,0.6,0.2,1.3,0.3,1.8
			c7.1,0.7,8.3,0.2,9.6-6.3c1.7-8.8,2.6-17.7,3.8-27c1.7,0,3.7,0,5.7,0c0,16.4,0,32.7,0,49.4c-12.4,0-24.2,0-36.4,0
			c-0.2-4.7-0.9-9,1.6-13.8c1.8-3.4,1.8-8.1,1.8-12.2c0.1-36,0.2-72-0.1-107.9c0-4.9-2.4-9.8-3.2-14.8c-0.6-3.4-0.4-6.9-0.6-10.7
			C140.7,42.3,147.5,42.3,156,42.3z"/>
		<path d="M199.2,201.7c-7.8,0-14.4,0-22.4,0c1.2-5,2.4-9.5,3.2-14c0.7-3.9,1.5-7.9,1.5-11.8c0.1-36.1,0.2-72.2-0.1-108.4
			c0-4.8-2.3-9.5-3.1-14.3c-0.6-3.5-0.5-7.2-0.7-11.1c7.2,0,13.8,0,20.9,0c0.2,4.4,1.4,8.8-1.6,13.2c-1.4,2-1.8,5-1.8,7.6
			c-0.1,39.3-0.1,78.6,0,117.8c0,3.1,2,6.2,2.6,9.4C198.5,193.9,198.7,197.6,199.2,201.7z"/>
		<path d="M329.6,42.2c7.3,0,13.9,0,21,0c0,4.6,1.4,9-1.7,13.3c-1.4,2-1.7,5-1.7,7.6c-0.1,39.3-0.1,78.6,0,117.8
			c0,3,1.8,5.9,2.4,8.9c0.8,3.6,1.2,7.4,1.8,11.6c-7.5,0-14.2,0-21.3,0c-0.3-4.5-1-8.9,1.6-13.6c1.8-3.3,1.8-7.7,1.8-11.7
			c0.1-36.3,0.2-72.6-0.1-108.9c0-4.8-2.3-9.5-3.2-14.3C329.7,49.8,329.8,46.3,329.6,42.2z"/>
		<path d="M255.6,42.3c7.2,0,13.8,0,21,0c-0.1,4.5,1.4,8.8-1.7,13.2c-1.4,2-1.7,5-1.7,7.6c-0.1,39.3-0.1,78.6,0,117.8
			c0,2.4,0.8,4.9,1.4,7.3c1,4.3,2.1,8.6,3.3,13.1c-8.1,0-14.7,0-22.9,0c1.1-4.9,2.2-9,3-13.2c0.7-3.9,1.6-7.8,1.7-11.8
			c0.1-36.5,0.2-72.9-0.1-109.4c0-4.6-2.3-9.1-3.1-13.8C255.7,49.8,255.8,46.1,255.6,42.3z"/>
		<path class="st0" d="M102.6,188.8c-1.7-3.5-4-6.4-4.4-9.6c-1.7-13.8-3.9-27.7-4-41.6c-0.2-21.6,1-43.2,2.1-64.8
			c0.3-6,1.2-12.3,7.5-17.4c1.6,3.1,3.5,5.7,4.1,8.5c1.6,7.8,3.1,15.7,3.6,23.6c1.8,28.4,2.4,56.9-1.6,85.2
			C109,178.1,108.4,183.9,102.6,188.8z"/>
		<path class="st0" d="M382.4,137.8c-3.9,0-7,0-10.8,0c1.8-16.2,3.6-32.1,5.4-48.1c0.3,0,0.6,0,1,0
			C379.4,105.6,380.9,121.4,382.4,137.8z"/>
		<path class="st0" d="M49.2,121c0-21.3,0-42,0-62.6c4.1-1.1,6.4,0.8,7.5,4.1c1.2,3.6,2.5,7.4,2.5,11.1c-0.1,13.1-0.5,26.1-1.5,39.1
			C57.4,116.9,55.2,121,49.2,121z"/>
	</g>
</g>
</svg>
