<?xml version="1.0" encoding="utf-8"?>
<!-- Generator: Adobe Illustrator 16.0.3, SVG Export Plug-In . SVG Version: 6.00 Build 0)  -->
<!DOCTYPE svg PUBLIC "-//W3C//DTD SVG 1.1//EN" "http://www.w3.org/Graphics/SVG/1.1/DTD/svg11.dtd">
<svg version="1.1" id="Politician_Info_2_xA0_Image_1_"
	 xmlns="http://www.w3.org/2000/svg" xmlns:xlink="http://www.w3.org/1999/xlink" x="0px" y="0px" width="864px" height="720px"
	 viewBox="0 0 864 720" enable-background="new 0 0 864 720" xml:space="preserve">
<g>
	<g>
		<path fill-rule="evenodd" clip-rule="evenodd" fill="#FEFECB" d="M1,721C1,481,1,241,1,1c288,0,576,0,864,0c0,240,0,480,0,720
			C577,721,289,721,1,721z M183.322,516.524c-13.158,2.91-25.85,5.506-38.437,8.541c-33.63,8.11-67.052,16.993-98.506,31.77
			c-7.607,3.573-14.928,8.092-21.628,13.167c-6.61,5.008-6.554,9.509-0.298,14.789c5.042,4.255,10.646,8.027,16.463,11.153
			c23.835,12.806,49.389,21.326,75.209,28.994c73.506,21.829,148.739,34.39,225.023,40.876
			c64.547,5.488,129.134,5.677,193.734,0.375c57.998-4.76,115.374-13.329,171.938-27.103c37.349-9.094,74.238-19.688,109.074-36.22
			c9.683-4.595,18.949-10.43,27.538-16.858c7.983-5.976,7.647-11.327-0.561-17.177c-6.857-4.887-14.3-9.17-21.963-12.668
			c-28.842-13.165-59.301-21.511-89.968-29.104c-11.756-2.91-23.601-5.459-35.374-8.165c-1.532-23.589-2.775-46.878-4.628-70.117
			c-1.998-25.062-4.454-50.089-7.027-75.1c-0.327-3.171-3.442-6.051-3.786-9.227c-1.935-17.882-3.443-35.812-5.046-53.729
			c-3.145-35.172-6.22-70.351-9.39-105.521c-3.482-38.653-7.063-77.297-10.492-115.955c-0.16-1.813,0.301-3.997,1.247-5.532
			c2.688-4.363,1.762-8.189-1.71-11.177c-3.108-2.676-6.616-5.239-10.392-6.714c-8.487-3.315-17.097-6.558-25.928-8.716
			c-44.227-10.81-89.411-14.032-134.694-16.027c-45.654-2.011-91.295-1.412-136.895,1.809c-31.58,2.231-63.043,5.388-94.016,12.205
			c-13.637,3.002-27.269,6.219-39.461,13.465c-5.556,3.302-10.139,7.259-7.553,14.873c0.399,1.176-0.049,2.642-0.119,3.973
			c-1.874,35.442-3.781,70.883-5.617,106.327c-2.154,41.603-4.228,83.208-6.372,124.811c-2.573,49.922-5.176,99.843-7.78,149.764
			C185.077,484.274,184.198,500.24,183.322,516.524z"/>
		<path fill-rule="evenodd" clip-rule="evenodd" fill="#030202" d="M183.322,516.524c0.875-16.284,1.755-32.25,2.588-48.218
			c2.604-49.921,5.208-99.842,7.78-149.764c2.144-41.603,4.217-83.208,6.372-124.811c1.835-35.444,3.743-70.885,5.617-106.327
			c0.07-1.331,0.519-2.797,0.119-3.973c-2.585-7.614,1.998-11.571,7.553-14.873c12.192-7.246,25.824-10.463,39.461-13.465
			c30.973-6.817,62.436-9.974,94.016-12.205c45.6-3.221,91.24-3.819,136.895-1.809c45.283,1.995,90.468,5.218,134.694,16.027
			c8.831,2.158,17.44,5.4,25.928,8.716c3.775,1.475,7.283,4.038,10.392,6.714c3.472,2.987,4.398,6.813,1.71,11.177
			c-0.946,1.535-1.407,3.719-1.247,5.532c3.429,38.658,7.01,77.302,10.492,115.955c3.17,35.17,6.245,70.349,9.39,105.521
			c1.603,17.918,3.111,35.848,5.046,53.729c0.344,3.176,3.459,6.056,3.786,9.227c2.573,25.011,5.029,50.038,7.027,75.1
			c1.853,23.239,3.096,46.528,4.628,70.117c11.773,2.706,23.618,5.255,35.374,8.165c30.667,7.593,61.126,15.938,89.968,29.104
			c7.663,3.498,15.105,7.781,21.963,12.668c8.208,5.85,8.544,11.201,0.561,17.177c-8.589,6.429-17.855,12.264-27.538,16.858
			c-34.836,16.531-71.726,27.126-109.074,36.22c-56.564,13.773-113.94,22.343-171.938,27.103
			c-64.601,5.302-129.188,5.113-193.734-0.375c-76.284-6.486-151.517-19.047-225.023-40.876
			c-25.82-7.668-51.374-16.188-75.209-28.994c-5.817-3.126-11.421-6.898-16.463-11.153c-6.256-5.28-6.312-9.781,0.298-14.789
			c6.701-5.075,14.021-9.594,21.628-13.167c31.454-14.776,64.875-23.659,98.506-31.77
			C157.472,522.03,170.165,519.435,183.322,516.524z M433.959,412.88c-26.947-1.26-53.926-2.063-80.835-3.886
			c-39.893-2.701-79.404-8.508-118.572-16.566c-9.049-1.861-18.062-3.895-27.364-5.908c-1.406,24.356-2.559,48.136-4.205,71.881
			c-2.062,29.729-4.451,59.436-6.92,89.134c-0.32,3.85,0.607,5.372,4.351,6.649c68.14,23.255,138.36,34.565,210.159,36.646
			c41.516,1.202,82.909-0.79,124.179-5.655c48.176-5.679,95.627-14.857,142.28-28.2c4.124-1.179,5.424-2.801,5.137-7.128
			c-2.914-43.869-5.546-87.757-8.417-131.629c-0.703-10.742-1.99-21.446-3.005-32.138c-1.011-0.08-1.515-0.219-1.981-0.139
			c-1.145,0.196-2.274,0.483-3.405,0.75c-56.839,13.423-114.406,21.739-172.756,24.457c-16.3,0.759-32.614,1.202-48.923,1.791
			c-1.502-2.085-3.005-4.17-4.688-6.506C437.146,408.798,435.553,410.839,433.959,412.88z M696.282,534.437
			c0.59,9.16,0.867,17.291,1.725,25.359c0.515,4.844-1.139,6.846-5.819,8.277c-75.915,23.222-153.665,35.168-232.886,37.727
			c-41.331,1.334-82.565-0.51-123.656-5.614c-50.543-6.279-99.867-17.585-147.883-34.575c-3.072-1.087-6.085-2.344-8.659-3.341
			c1.207-10.157,2.336-19.658,3.579-30.117c-8.308,1.771-15.439,3.204-22.53,4.815c-35.552,8.079-70.792,17.206-104.31,31.909
			c-5.51,2.417-10.771,5.4-17.514,8.814c7.778,3.973,14.008,7.441,20.471,10.404c24.868,11.402,50.843,19.709,77.168,26.926
			c92.153,25.261,186.189,37.45,281.566,39.729c57.869,1.383,115.512-2.1,172.932-9.55c49.238-6.39,97.875-15.685,145.633-29.318
			c28.177-8.044,55.953-17.252,82.068-30.812c3.91-2.03,7.628-4.432,12.725-7.417C787.807,555.324,742.504,545.037,696.282,534.437z
			 M499.191,117.041c0.75,92.544,1.504,185.429,2.268,279.544c32.895-3.713,65.176-7.357,97.567-11.014
			c-2.514-93.687-4.991-186.045-7.458-278.009C560.734,110.727,530.311,113.849,499.191,117.041z M288.103,387.184
			c28.889,3.018,57.15,5.969,85.941,8.977c2.961-93.439,5.896-186.068,8.826-278.503c-27.857-2.119-55.306-4.208-83.128-6.325
			C295.875,202.975,292.01,294.59,288.103,387.184z M405.544,121.225c-2.857,91.852-5.708,183.498-8.578,275.743
			c28.049,0,55.556,0,83.507,0c-1.746-92.458-3.478-184.104-5.209-275.743C451.585,121.225,428.808,121.225,405.544,121.225z
			 M280.1,109.019c-20.228-4.85-39.846-9.554-59.826-14.344c-4.757,91.673-9.532,183.677-14.335,276.241
			c19.912,4.144,39.355,8.189,59.458,12.372C270.334,291.187,275.224,199.984,280.1,109.019z M226.805,77.681
			c-0.007,0.969-0.014,1.937-0.021,2.904c12.51,3.142,24.908,6.859,37.551,9.32c46.576,9.068,93.79,11.745,141.094,12.854
			c41.159,0.965,82.284-0.191,123.329-3.652c28.381-2.394,56.642-5.639,84.389-12.274c7.788-1.863,15.377-4.562,23.058-6.877
			c-0.043-0.462-0.086-0.924-0.13-1.386c-1.611-0.695-3.167-1.602-4.845-2.052c-10.751-2.887-21.411-6.28-32.316-8.389
			c-47.738-9.227-96.111-12.215-144.592-12.821c-30.296-0.38-60.631,0.588-90.918,1.739c-35.13,1.335-70.078,4.944-104.546,12.106
			C248.049,71.398,237.482,74.806,226.805,77.681z M640.945,98.668c-9.337,4.328-17.86,8.431-26.525,12.206
			c-2.766,1.205-3.498,2.803-3.469,5.652c0.814,81.261,1.555,162.523,2.29,243.785c0.065,7.132,0.009,14.266,0.009,22.355
			c16.85-3.698,32.375-7.235,47.971-10.429c3.479-0.712,4.206-2.176,3.888-5.38c-1.152-11.591-2.098-23.202-3.129-34.806
			c-2.108-23.703-4.202-47.408-6.337-71.109c-2.865-31.82-5.765-63.639-8.647-95.458
			C644.998,143.452,643.005,121.418,640.945,98.668z"/>
		<path fill-rule="evenodd" clip-rule="evenodd" fill="#3333FD" d="M443.682,412.938c16.309-0.589,32.623-1.032,48.923-1.791
			c58.35-2.718,115.917-11.034,172.756-24.457c1.131-0.267,2.261-0.554,3.405-0.75c0.467-0.08,0.971,0.059,1.981,0.139
			c1.015,10.691,2.302,21.396,3.005,32.138c2.871,43.872,5.503,87.76,8.417,131.629c0.287,4.327-1.013,5.949-5.137,7.128
			c-46.653,13.343-94.104,22.521-142.28,28.2c-41.27,4.865-82.663,6.857-124.179,5.655c-71.799-2.08-142.019-13.391-210.159-36.646
			c-3.744-1.277-4.671-2.8-4.351-6.649c2.469-29.698,4.858-59.405,6.92-89.134c1.646-23.745,2.799-47.524,4.205-71.881
			c9.302,2.014,18.315,4.047,27.364,5.908c39.168,8.059,78.68,13.865,118.572,16.566c26.909,1.822,53.888,2.626,80.834,3.886
			c-10.822,15.982-21.588,32.003-32.571,47.874c-0.892,1.287-3.26,2.146-4.965,2.186c-19.991,0.453-39.986,0.707-59.98,1.031
			c-1.39,0.022-2.777,0.193-5.019,0.357c3.03,2.682,5.37,4.766,7.726,6.832c15.157,13.297,30.268,26.648,45.528,39.826
			c2.541,2.194,3.072,3.907,1.707,7.118c-7.48,17.6-14.683,35.318-21.96,53.005c-0.636,1.543-1.119,3.149-1.974,5.581
			c2.671-0.992,4.232-1.538,5.769-2.147c22.567-8.956,45.101-17.998,67.742-26.761c2.281-0.883,5.554-0.896,7.787,0.052
			c22.813,9.68,45.503,19.645,68.233,29.518c1.569,0.682,3.182,1.264,5.538,2.194c-0.64-2.065-0.92-3.151-1.309-4.197
			c-7.176-19.331-14.265-38.696-21.645-57.949c-1.308-3.41-0.757-5.304,2.005-7.487c7.055-5.579,13.892-11.436,20.801-17.198
			c9.533-7.951,19.053-15.919,29.309-24.491c-1.795-0.21-2.548-0.327-3.306-0.382c-21.6-1.564-43.203-3.076-64.792-4.769
			c-1.713-0.134-4.036-1.053-4.88-2.372C463.564,444.863,453.652,428.882,443.682,412.938z"/>
		<path fill-rule="evenodd" clip-rule="evenodd" fill="#FD0000" d="M696.282,534.437c46.222,10.601,91.524,20.888,134.608,43.218
			c-5.097,2.985-8.814,5.387-12.725,7.417c-26.115,13.56-53.892,22.768-82.068,30.812c-47.758,13.634-96.395,22.929-145.633,29.318
			c-57.42,7.45-115.063,10.933-172.932,9.55c-95.377-2.279-189.414-14.469-281.566-39.729c-26.325-7.217-52.3-15.523-77.168-26.926
			c-6.462-2.963-12.693-6.432-20.471-10.404c6.743-3.414,12.004-6.397,17.514-8.814c33.518-14.703,68.758-23.83,104.31-31.909
			c7.091-1.611,14.222-3.045,22.53-4.815c-1.243,10.459-2.372,19.96-3.579,30.117c2.574,0.997,5.587,2.254,8.659,3.341
			c48.016,16.99,97.34,28.296,147.883,34.575c41.091,5.104,82.325,6.948,123.656,5.614c79.221-2.559,156.971-14.505,232.886-37.727
			c4.681-1.432,6.334-3.434,5.819-8.277C697.149,551.728,696.872,543.597,696.282,534.437z"/>
		<path fill-rule="evenodd" clip-rule="evenodd" fill="#FDFDFD" d="M499.191,117.041c31.119-3.192,61.543-6.314,92.377-9.479
			c2.467,91.964,4.944,184.322,7.458,278.009c-32.392,3.656-64.673,7.301-97.567,11.014
			C500.695,302.47,499.941,209.585,499.191,117.041z"/>
		<path fill-rule="evenodd" clip-rule="evenodd" fill="#FDFDFD" d="M288.103,387.184c3.907-92.594,7.772-184.209,11.639-275.852
			c27.823,2.117,55.271,4.206,83.128,6.325c-2.93,92.435-5.865,185.063-8.826,278.503
			C345.253,393.152,316.992,390.201,288.103,387.184z"/>
		<path fill-rule="evenodd" clip-rule="evenodd" fill="#FD0000" d="M405.544,121.225c23.264,0,46.041,0,69.72,0
			c1.731,91.639,3.463,183.285,5.209,275.743c-27.951,0-55.458,0-83.507,0C399.836,304.723,402.687,213.076,405.544,121.225z"/>
		<path fill-rule="evenodd" clip-rule="evenodd" fill="#FD0000" d="M280.1,109.019c-4.876,90.966-9.766,182.168-14.704,274.27
			c-20.103-4.183-39.546-8.229-59.458-12.372c4.803-92.564,9.578-184.568,14.335-276.241
			C240.254,99.465,259.873,104.169,280.1,109.019z"/>
		<path fill-rule="evenodd" clip-rule="evenodd" fill="#FDFDFE" d="M443.682,412.938c9.971,15.943,19.883,31.925,30.021,47.762
			c0.844,1.319,3.167,2.238,4.88,2.372c21.589,1.692,43.192,3.204,64.792,4.769c0.758,0.055,1.511,0.172,3.306,0.382
			c-10.256,8.572-19.775,16.54-29.309,24.491c-6.909,5.763-13.746,11.619-20.801,17.198c-2.762,2.184-3.313,4.077-2.005,7.487
			c7.38,19.253,14.469,38.618,21.645,57.949c0.389,1.046,0.669,2.132,1.309,4.197c-2.356-0.931-3.969-1.513-5.538-2.194
			c-22.73-9.873-45.421-19.838-68.233-29.518c-2.233-0.947-5.506-0.935-7.787-0.052c-22.642,8.763-45.175,17.805-67.742,26.761
			c-1.536,0.609-3.098,1.155-5.769,2.147c0.854-2.432,1.338-4.038,1.974-5.581c7.277-17.687,14.479-35.405,21.96-53.005
			c1.365-3.211,0.834-4.924-1.707-7.118c-15.261-13.178-30.371-26.529-45.528-39.826c-2.355-2.066-4.695-4.15-7.726-6.832
			c2.241-0.164,3.629-0.335,5.019-0.357c19.994-0.324,39.989-0.578,59.98-1.031c1.705-0.039,4.073-0.898,4.965-2.186
			c10.983-15.871,21.749-31.892,32.571-47.874c1.595-2.041,3.188-4.082,5.035-6.447C440.677,408.769,442.18,410.854,443.682,412.938
			z"/>
		<path fill-rule="evenodd" clip-rule="evenodd" fill="#FD0000" d="M226.805,77.681c10.677-2.875,21.244-6.282,32.052-8.527
			c34.468-7.162,69.416-10.771,104.546-12.106c30.287-1.151,60.622-2.119,90.918-1.739c48.48,0.606,96.854,3.595,144.592,12.821
			c10.905,2.108,21.565,5.502,32.316,8.389c1.678,0.45,3.233,1.356,4.845,2.052c0.044,0.462,0.087,0.924,0.13,1.386
			c-7.681,2.315-15.27,5.014-23.058,6.877c-27.747,6.636-56.008,9.881-84.389,12.274c-41.045,3.461-82.17,4.617-123.329,3.652
			c-47.305-1.108-94.519-3.785-141.094-12.854c-12.643-2.461-25.041-6.179-37.551-9.32
			C226.791,79.617,226.798,78.649,226.805,77.681z"/>
		<path fill-rule="evenodd" clip-rule="evenodd" fill="#FD0000" d="M640.945,98.668c2.06,22.75,4.053,44.784,6.05,66.817
			c2.883,31.819,5.782,63.638,8.647,95.458c2.135,23.701,4.229,47.406,6.337,71.109c1.031,11.604,1.977,23.215,3.129,34.806
			c0.318,3.204-0.408,4.668-3.888,5.38c-15.596,3.193-31.121,6.73-47.971,10.429c0-8.09,0.057-15.224-0.009-22.355
			c-0.735-81.262-1.476-162.524-2.29-243.785c-0.029-2.85,0.703-4.447,3.469-5.652C623.085,107.099,631.608,102.996,640.945,98.668z
			"/>
	</g>
</g>
</svg>
