<?xml version="1.0" encoding="utf-8"?>
<!-- Generator: Adobe Illustrator 19.2.0, SVG Export Plug-In . SVG Version: 6.00 Build 0)  -->
<svg version="1.1" id="PRESS_2l_xA0_Image_1_" xmlns="http://www.w3.org/2000/svg" xmlns:xlink="http://www.w3.org/1999/xlink"
	 x="0px" y="0px" viewBox="0 0 864 720" style="enable-background:new 0 0 864 720;" xml:space="preserve">
<style type="text/css">
	.st0{display:none;fill:#CBCBFD;}
	.st1{fill:#F8F8F8;}
	.st2{fill:#060606;}
	.st3{fill:#060607;}
	.st4{fill:#080808;}
	.st5{fill:#050506;}
	.st6{fill:#020202;}
	.st7{fill:#C4C4C4;}
	.st8{fill:#0C0C0C;}
	.st9{fill:#333339;}
	.st10{fill:#0F0F10;}
	.st11{fill:#222225;}
	.st12{fill:#404046;}
	.st13{fill:#4E4E52;}
	.st14{fill:#5B5B61;}
	.st15{fill:#050505;}
	.st16{fill:#FAFAFA;}
	.st17{fill:#F6F6F6;}
	.st18{fill:#EDEDED;}
	.st19{fill:#EBEBEB;}
	.st20{fill:#E4E4E4;}
	.st21{fill:#F4F4F4;}
	.st22{fill:#F3F3F3;}
	.st23{fill:#F1F1F1;}
	.st24{fill:#CFCFCF;}
	.st25{fill:#A2A2A2;}
	.st26{fill:#D3D3D3;}
</style>
<g>
	<g>
		<path class="st0" d="M1,721C1,481,1,241,1,1c288,0,576,0,864,0c0,240,0,480,0,720C577,721,289,721,1,721z M449.9,30.8
			c-0.3,0.1-0.6,0.3-0.9,0.4c-3.3,0.1-6.7,0.3-10,0.4c-0.5-2.2-0.9-4.4-1.4-6.6c0-2.9,0-5.9,0-9.5c-4.1,0.2-7.8,0.5-11.5,0.7
			c-1,0.1-2,0.2-3,0.3c-3,0.3-5.9,0.5-8.9,0.8c-1,0.2-2.1,0.3-3.1,0.5c-3.7,0.5-7.3,0.9-11,1.4c-2,0.1-4,0.2-6,0.3
			c-0.6,0.3-1.3,0.5-2,0.8c-2,0.2-4.1,0.5-6.1,0.7c-1,0.4-2,0.7-3,1.1c-0.9,0.3-1.9,0.4-2.8,0.8c-8.8,4.5-17.5,9-26.3,13.5
			c-3.4,0-6.7,0-10.1,0c-0.3-0.8-0.7-1.6-1-2.4c0-0.4,0.1-0.8,0.1-1.1c0.3-0.3,0.3-0.6,0-0.8c-0.7-0.3-1.3-0.5-2-0.8
			c-5,1.4-10,2.9-15,4.3c-1.7,0.5-3.3,1.1-5,1.6c-12.3,5.1-24.7,10.3-37,15.4c-0.9,0.4-1.7,0.9-2.6,1.3
			c-8.4,5.2-16.9,10.3-25.3,15.5c-0.9,0.6-1.6,2.2-1.7,3.3c-0.2,4.8-0.2,9.6-0.2,14.4c-0.3,1.7-0.6,3.3-0.9,5
			c-4.5,0.1-8.9,0.1-13.4,0.2c-2.1,0.2-4.1,0.4-6.2,0.6c-0.7,0.8-1.3,1.6-2,2.4c-0.9,1.6-1.8,3.1-2.7,4.7c-2,5.3-4,10.7-6,16
			c-0.5,2.3-1.1,4.7-1.6,7c-0.8,2.7-1.6,5.4-2.3,8c-0.6,3.7-1.1,7.3-1.7,11c-0.1,1-0.3,2-0.4,3c-0.8,4.3-1.7,8.6-2.4,13
			c-0.1,0.4,0.9,1,1.3,1.5c2,0.1,4,0.2,6,0.3c2,0.3,4,0.7,6,1c0.1,3.1,0.1,6.1,0.2,9.2c-0.3,1-0.6,2-1,2.9c-1.4,0.4-2.8,0.8-4.2,1.3
			c-1,0.4-1.9,0.7-2.9,1.1c-1.4,0.2-2.7,0.4-4.1,0.6c-0.7,0.3-1.4,0.7-2.1,1c-0.2,2.4-0.5,4.7-0.7,7.1c-0.2,2.3-0.3,4.6-0.5,6.9
			c-0.2,9.4-0.3,18.7-0.5,28.1c-0.1,1.7-0.2,3.3-0.3,5c2.4,0.6,4.8,1.2,7.2,1.8c1.3,0.3,2.6,0.6,4,1c1.5,0.7,3,1.4,4.5,2.1
			c-0.5,3.1-0.9,6.2-1.4,9.3c-1.4,0.2-2.7,0.4-4.1,0.6c-1.7,0.4-3.3,0.8-5,1.2c-2.2,0-5-1-5,2.7c0.1,7.7,0.4,15.4,0.7,23.1
			c0.1,2,0.3,4,0.4,6c0.3,4,0.5,8.1,0.8,12.1c1.7,0.4,3.5,0.8,5.2,1.3c7.3,0.4,7.3,0.4,7,7.8c0,0.3,0.1,0.6,0.1,1
			c-0.4,0.4-0.8,0.7-1.2,1.1c-1,0.1-2,0.2-3.1,0.3c-2.7,0.5-5.3,1-8.3,1.6c0.9,7.7,1.7,14.8,2.4,21.8c0,0.7,0.1,1.4,0.1,2.1
			c-0.1,2.2-0.2,4.3-0.2,6.5c0.1,8,0.1,8,8.3,8.9c1.3,0.1,2.5,0.6,3.7,0.9c0,4,0,7.6,0,11.2c-3.2,0.9-6.2,1.8-9.5,2.8
			c0.2,2.6,0.3,5.1,0.5,7.5c1,8.6,2.3,17.1,2.8,25.8c0.3,4.3,1.9,5.8,5.8,5c4.6-0.9,6,1.5,6.9,5.5c0.9,4.3-1.2,5.7-4.7,6.4
			c-4.3,0.8-5.4,3.5-4.6,7.6c2.7,14.1,5.3,28.3,7.9,42.5c3.2,18,9.8,33.6,28.6,40.4c1.9,0.7,4.5,0.6,6.4-0.2
			c4.5-1.9,8.7-4.4,13.6-6.9c0.4,4.6,0.4,8.4,1.3,12c0.4,1.8,2.1,4.2,3.8,4.8c6.3,2.2,12.8,3.5,19.1,5.6c4.1,1.4,6.4,0.3,8.4-3.3
			c2.2-3.7,5-7.1,8.3-11.9c0.9,3,1.4,4.4,1.7,5.8c1,3.9,1.6,7.8,2.9,11.6c0.5,1.3,2.2,2.5,3.6,3.1c1.5,0.7,3.2,0.7,4.9,1
			c15.7,3.1,15.6,3.1,22-10.6c0.9-1.9,3-4.5,4.5-4.6c3-0.1,6.5,0.6,6.8,5.3c0.3,3.6,1.9,7,2.5,10.6c0.5,3.2,2.1,4.9,5.3,4.5
			c4.9-0.6,5.9,1.8,5.8,6.1c-0.6,20.3-1,40.6-1.3,60.9c-0.1,3.6-1.9,4-4.7,4.1c-11.8,0.5-23.7,0.5-35.4,1.9
			c-21.7,2.5-43.5,5.1-65,9.1c-18.9,3.6-37.6,8.7-56.1,14.2c-11.2,3.3-22,8.5-30.8,16.6c-10.8,9.9-10.9,20.4,0.7,29.3
			c6.7,5.2,14.4,9.7,22.3,13c31.6,13.2,65.2,18.7,98.9,23c44,5.6,88.3,7.3,132.7,6.5c35.2-0.6,70.3-3,105.1-7.9
			c27.2-3.8,54.2-8.9,80.1-18.4c11.9-4.4,23.6-9.2,32.8-18.4c7.7-7.7,7.9-16.8,0.4-24.7c-3.1-3.2-6.6-6.1-10.4-8.4
			c-26.4-15.3-55.8-21.1-85.4-26.2c-13.1-2.3-26.2-4-39.4-5.5c-14.9-1.6-29.8-2.8-44.7-3.9c-11.9-0.8-23.9-1.2-35.9-1.8
			c-0.8-24.2-1.6-47.8-2.1-71.4c0-1.3,1.6-3.2,2.9-3.9c4.1-2.2,8.4-4,12.7-5.8c2.9-1.2,4.5-3,4.6-6.3c0.1-3.6,0.7-7.1,1.1-10.9
			c0.8,0.1,1.6-0.1,2.1,0.2c10.4,6.3,19.7,4.2,28.5-3.3c0.1-0.1,0.3-0.2,0.4-0.3c3.5-1.5,5-4,4.4-7.9c-0.4-2.9-0.1-5.8-0.1-9.3
			c4.5,0.7,8.2,0.9,11.7,1.8c6.3,1.7,10.6-2.1,15.5-4.9c4.6-2.6,6.3-5.7,5.7-10.8c-0.3-2.3-0.1-4.8-0.1-7.5
			c4.4,0.7,7.8,1.2,11.2,1.7c2,0,4,0,5.9,0c4-2.9,8.3-5.5,12-8.7c1.4-1.2,2.1-3.8,2.3-5.8c0.3-2.6-0.2-5.4-0.3-8.8
			c3.3,1.2,5.7,2.4,8.2,3c1.6,0.4,4,0.8,5.1,0c10.9-8.1,22.6-15.6,25.6-30.4c0.3-0.7,0.6-1.3,0.8-2c1.7-6.7,3.5-13.3,5.2-20
			c1.1-4.3,2.2-8.7,3.2-13c0.1-1,0.1-2,0.2-3c0.1-0.7,0.2-1.3,0.3-2c0.2-0.7,0.3-1.3,0.5-2c0-1.5,0-3,0-4.5
			c-1.4-0.2-2.7-0.4-4.1-0.6c-1.3-0.1-2.6-0.3-4-0.4c-1.2-0.4-2.4-0.7-3.6-1.1l-0.3,0l-0.2-0.3c-0.3-3.8-0.1-7.3,4.5-8.6
			c0.3-0.1,0.3-0.8,0.5-1.3c0.7-0.2,1.4-0.4,2.1-0.5c2.5-1.6,5.1-3.1,7.6-4.7c0.1-2.7,0.2-5.3,0.3-8c0-0.7,0-1.4-0.1-2.1l0,0
			c0.4-2.7,0.8-5.3,1.2-8c-0.1-2-0.1-4-0.2-6c0.2-2,0.4-4.1,0.6-6.2c-2.9-0.2-5.2-0.3-7.5-0.5c-1-0.1-2-0.3-3-0.4
			c-0.5-0.1-1.1-0.2-1.6-0.3c-0.8-0.5-1.7-0.9-2.5-1.4c-0.1-3.8-0.1-7.5-0.2-11.3c4.1-1.3,8.1-2.7,12.2-3.9c2.7-0.8,4.1-2.1,4-5.2
			c-0.2-6.8,0-13.6,0-20.5c0-9.3,0-9.3-9.2-10.9c-0.2,0-0.4,0-0.5-0.1c-1.6-1.1-4.1-1.9-4.6-3.5c-1-2.5-1.2-5.6,2.4-7l0-0.1
			c0.7-0.3,1.4-0.6,2.1-0.9c1.4-0.8,2.8-1.6,4.2-2.4c1.9-1.7,4.8-3.2,5.3-5.3c0.8-3.2,0-6.8-0.1-10.2c-0.2-2-0.4-4-0.6-6
			c0.1-1,0.1-2,0.2-2.9c-0.1-1.9-0.1-3.8-0.2-5.8c-0.1-3.2-0.1-6.4-0.2-9.6c0-0.2-0.1-0.5-0.1-0.7c-3.3-0.3-6.6-0.3-9.8-1
			c-1.6-0.4-3.7-1.7-4.1-3.1c-2.4-7.6-1-10.9,5.5-15.3c0.8-0.6,1.6-1.2,2.5-1.7c2.7-1.6,3.7-3.7,3.3-7c-0.8-6.3-1.1-12.7-1.6-19
			c-0.3-1.7-0.6-3.3-0.9-5c0-0.6-0.1-1.2-0.1-1.9c-0.7-3.7-1.4-7.3-2.2-11c-5.3,0.5-10.6,1-15.4,1.4c-2.9-10.2-0.3-16.9,8.8-20.4
			c0.5-0.2,0.8-0.6,1.3-0.8c2.7-1.1,3.5-2.9,2.9-5.9c-2.1-10.4-3.1-21-5.8-31.3c-3.2-12.3-7.3-24.4-12-36.2
			c-3.2-8-11.4-10.5-18.8-13.7c-5.1-2.1-8.4,1.6-12.4,3.1c-1.5,0.6-3,1.4-4.5,2.1c-7.5,3.5-12.7,0.3-12.6-7.9c0-3.3-0.8-4.8-4.3-5
			c-13.4-0.7-26.9-1.1-40.3-2.8c-10.8-1.4-19.9,1.9-28.7,7.1c-1.1,0.6-2.2,1.2-3.2,1.8c-4.4,2.2-8.7,4.3-13.1,6.5
			C451.8,29.8,450.8,30.3,449.9,30.8z"/>
		<path class="st1" d="M618.7,206.4c0.1,1.9,0.1,3.8,0.2,5.8c-3.3,0.4-6.6,0.8-9.9,1.2c-1-0.1-2-0.2-3-0.2c-0.9,0.1-1.8,0.2-2.7,0.4
			l-0.2,0.2c-1.8,0.5-3.5,1.1-5.3,1.6c-1.2,0.5-2.5,1.1-3.7,1.6c-1.4,0.6-2.8,1.1-4.1,1.7c-3.9,2-7.9,4-11.8,5.9
			c-1.3,0.5-2.7,1.1-4,1.6c-2.1,0.7-4.1,1.5-6.2,2.2c-3.3,1.3-6.5,2.6-9.8,3.9c-3.7,1.4-7.4,2.8-11.2,4.2c-1.7,0.6-3.4,1.2-5.1,1.8
			c-0.9,0.3-1.8,0.7-2.7,1c-4.4,1.7-8.9,3.3-13.3,5c-4.2,1.6-8.4,3.1-12.5,4.7c-0.4,0.1-0.9,0.2-1.3,0.3c-1.3,0.5-2.6,1-3.9,1.5
			c-1.4,0.5-2.8,1-4.3,1.5c-1.6,0.6-3.2,1.1-4.7,1.7c-2.8,1-5.7,2.1-8.5,3.1c-2.2,0.9-4.3,1.7-6.5,2.6c-1.3,0.5-2.6,1-4,1.4
			c-0.7,0.2-1.4,0.4-2.1,0.6c-7.7,2.4-15.3,4.7-23,7.1c-2.3,1.4-4.6,2.9-6.9,4.3c-0.6,1.4-1.6,2.8-1.7,4.2
			c-0.2,3.6-0.1,7.3-0.1,10.8c-2.1,0.9-3.8,1.6-5.5,2.3c-0.6,0.1-1.2,0.2-1.9,0.4c-31.2,7.4-62.9,7.7-95.2,6.8
			c0,8.7-0.1,16.8,0.1,24.9c0,0.9,2,2.5,3.2,2.6c5.8,0.6,11.6,0.9,17.5,1.1c26.1,0.8,52.3,1.4,77.6-6.8
			c20.4-6.6,41.1-12.3,61.2-19.6c28.5-10.5,56.6-22.1,84.9-33.2c8.7-3.4,17.5-6.9,26.8-10.6c0.8,4.3,1.6,7.9,2,10.3
			c-4.9,0.6-9.2,0.4-12.8,1.8c-12,4.4-23.8,9.3-35.6,14.2c-30.4,12.6-59.4,28.3-90.9,38.2c-9.3,2.9-18.2,7.1-27.2,10.8
			c-3.7,1.5-4.8,4.3-4.7,8.4c0.1,3.3-1,6.6-1.6,9.9c-1.8,0.5-3.5,1.1-5.3,1.6c-0.7,0.2-1.3,0.4-2,0.7c-3.7,0.8-7.3,1.5-11,2.3
			c-1,0.2-2,0.4-3.1,0.6c-2.6,0.2-5.3,0.4-7.9,0.6c-1.3,0.2-2.7,0.3-4,0.5c-5.9,0.1-11.9,0.4-17.8,0.3c-12.7,0-25.5-0.2-38.2-0.3
			c-2-0.2-4-0.3-6-0.5c-1.3-0.1-2.6-0.1-4-0.2c-0.3,0.6-0.6,1.1-1,1.7c0,6.7,0,13.3,0.1,20c1.6,0.6,3.3,1.1,4.9,1.7
			c1.7,0.1,3.3,0.3,5,0.4c4,0.2,8,0.5,12,0.7c1,0.1,2,0.2,3,0.3c2.7,0.2,5.3,0.4,8,0.6c17,0,34,0,51,0c4.4-0.5,8.7-1,13.1-1.5
			c1,0,2,0,2.9-0.1c1.3,0,2.7,0,4,0c4-1.1,8-2.2,12-3.2c0.7-0.3,1.3-0.6,2-0.9c14.3-5.3,28.7-10.6,43-15.9c0.7-0.3,1.4-0.6,2-0.9
			c1.3-0.5,2.6-1,4-1.5c0.7-0.2,1.3-0.4,2-0.6c11.3-4.9,22.8-9.6,34-14.9c14.5-6.8,28.7-14.2,43-21.3c1.1-0.6,2.3-1.1,3.4-1.7
			c5.3-2.6,10.5-5.2,15.8-7.7c0.7-0.3,1.3-0.5,2-0.8c1.3,0.8,2.5,1.6,3.8,2.5c0.4,1.6,0.9,3.2,1.3,4.9c0.2,2.7,0.5,5.4,0.7,8
			c0,0,0,0,0,0c-3-0.6-6.2-2.2-8.9-1.7c-5.1,1-10,3.2-15,4.9c-0.7,0.3-1.3,0.6-2,0.9c-0.8,0.2-1.6,0.3-2.3,0.6
			c-27.6,13.2-55.1,26.4-82.6,39.6c-0.6,0.3-1.3,0.6-1.9,1c-6,2.3-12,4.7-18.1,7c-0.7,0.3-1.3,0.6-2,0.9c-6.3,2.4-12.7,4.7-19,7.1
			c-0.7,0.2-1.4,0.5-2,0.7c-2.3,0.8-4.6,1.5-7,2.3c-0.7,0.2-1.3,0.5-2,0.7c-4.7,2.2-10.6,3.1-11,10c-0.6,3.2-1.1,6.5-1.7,9.7
			c-0.7,0.2-1.5,0.4-2.2,0.5c-1,0.3-2,0.5-3,0.8c-1.7,0.2-3.3,0.4-5,0.6c-0.7,0.1-1.4,0.3-2,0.4c-0.7,0.1-1.3,0.2-2,0.3
			c-2,0.2-4,0.4-6,0.6c-3.3,0.2-6.6,0.3-10,0.5c-10,0-20,0-30,0c-4.3-0.2-8.6-0.3-13-0.5c-2-0.2-4-0.4-6-0.5c-1-0.1-2-0.2-3-0.3
			c-1.3-0.2-2.7-0.4-4-0.5c-2.3-0.2-4.7-0.3-7-0.5c-1.3,0.3-2.6,0.6-3.9,1c-0.1,7-0.3,14.1-0.2,21.1c0,0.9,2,1.9,3.1,2.8
			c1.3,0.2,2.7,0.4,4,0.7c4.7,0.5,9.3,0.9,14,1.4c0.7,0.1,1.3,0.2,2,0.2c3.7,0.2,7.3,0.5,11,0.7c1.7,0.2,3.3,0.4,5,0.5
			c3.3,0.2,6.6,0.4,10,0.5c3,0.1,6,0.2,9,0.3c11,0,22,0,33,0c3-0.1,6-0.2,9-0.3c1.6-0.2,3.4-0.1,4.8-0.7c12.5-5,25.4-9.1,37.2-15.3
			c38.8-20.1,77.2-41,115.7-61.6c2.5-1.4,5.1-2.6,8.9-4.6c-1,6.3-1.9,11.2-2.7,16c-2.7-0.2-5.3-0.5-8-0.7c-1,0.4-1.9,0.8-2.9,1.1
			c-2.5,1.2-5.2,2.2-7.5,3.6c-12.5,7.6-24.6,16-37.4,22.8c-33.9,18-65.3,40.9-102.6,52.4c-4.5,1.4-10.2,6.7-11,11
			c-2.4,13-2.9,26.4,1,39.6c0.3,1.1-0.9,3.6-1.9,3.8c-4.9,1.4-10,2.6-15,3.2c-7.6,0.8-7.5,0.5-8.8-6.9c-2.2-13.1-4.5-26.2-7-39.3
			c-0.3-1.4-1.6-3.5-2.7-3.6c-6.6-0.6-13.2-0.8-20.4-1.2c2.7,17.6,5.2,34.3,7.8,51.1c-2.8,0.1-5.7,0.2-8.5,0.3
			c-1.6,0-3.2-0.1-4.9-0.1c-0.7,0-1.4,0-2.1,0c-1.2-2.4-2.3-4.7-3.5-7.1c-0.2-0.7-0.4-1.4-0.6-2.1c-0.4-2.3-0.8-4.6-1.2-7
			c-0.3-1-0.5-2-0.8-3.1c-0.8-4.3-1.6-8.6-2.4-12.9c-0.2-0.7-0.4-1.4-0.6-2.1c-1.3-6.9-2.5-13.7-3.9-20.6c-0.2-0.9-1.2-2.3-1.9-2.4
			c-5.6-0.6-11.2-0.9-17.2-1.4c2.1,18.8,4.1,36.9,6.1,55.5c-3.4-0.6-6-1.2-8.6-1.6c-9.5-1.3-9.3-1.3-10.8-10.9
			c-2.2-13.6-4.6-27.2-7.1-40.8c-0.3-1.7-1.5-4.4-2.7-4.7c-5.2-1.4-10.6-2.1-16.8-3.2c1.5,18.1,3,35.6,4.5,53.3
			c-5.4-1.5-10.8-3.1-16.2-4.4c-3.1-0.7-4.3-2.3-4.6-5.4c-1.3-13.9-2.8-27.8-4.4-41.7c-0.2-1.5-1.7-4.1-2.8-4.2
			c-6.4-0.7-12.9-0.9-20-1.2c2.7,14.6,5.3,28.6,8.1,43.3c-12.5-5.4-22.1-12.4-25.4-25.3c-2.7-10.3-4.8-20.7-7-31.1
			c-1.3-6.3-2.2-12.7-3.2-18.9c17.4,5.2,34.4,10.3,52.3,15.6c0-8.7-0.2-15.8,0.1-22.9c0.1-3.5-1.4-4.3-4.5-5.1
			c-15.9-4.1-31.8-8.5-47.7-12.7c-2.8-0.7-4.1-2.4-4.3-5.2c-0.7-6.8-1.5-13.5-2.2-20.3c-0.1-1,0.2-2.1,0.3-3.2
			c9.8,2.7,19.2,5.4,28.7,7.8c9.6,2.4,19.3,4.3,29.7,6.6c0-4.5,0-8.1,0-11.7c0-10.2,0-10.2-9.8-12.4c-1.5-0.3-3-0.5-4.4-0.9
			c-14.4-4-28.8-8-43.1-12.3c-1.8-0.5-4.2-2.5-4.4-4c-0.9-9.1-1.2-18.2-1.6-27.4c7,1.7,13.9,3.4,20.9,5c0.7,0.2,1.4,0.4,2.1,0.6
			c2,0.5,4,0.9,6,1.4c0.7,0.2,1.4,0.5,2,0.7c3.7,0.8,7.3,1.5,11,2.3c0.7,0.2,1.4,0.4,2,0.7c4.3,0.8,8.6,1.6,12.9,2.4
			c0.7,0.2,1.4,0.4,2.1,0.6c0.6,0.1,1.3,0.3,2,0.4c0.7-0.4,1.4-0.7,2-1.1c0.1-5.3,0.2-10.6,0.2-15.9c0-7.1,0-7.1-7.2-7.3
			c-1-0.2-2-0.4-3.1-0.6c-2.7-0.4-5.3-0.8-8-1.2c-0.7-0.2-1.3-0.4-2-0.5c-1.7-0.2-3.3-0.4-5-0.5c-0.7-0.2-1.4-0.3-2-0.5
			c-4.3-0.8-8.6-1.7-12.9-2.5c-0.7-0.2-1.4-0.4-2.1-0.6c-0.6-0.2-1.3-0.3-1.9-0.5c-2-0.5-4.1-1-6.1-1.5c-5-1.7-10-3.5-15-5.2
			c0.1-1.6,0.2-3.3,0.2-4.9c0-9.2-0.1-18.4-0.2-27.6c4.7,1.2,9.3,2.3,14,3.5c0.7,0.3,1.4,0.6,2,0.8c7.6,2.1,15.3,4.2,22.9,6.3
			c0.7,0.1,1.4,0.3,2.1,0.4c2,0.5,4,1,5.9,1.5c0.7,0.2,1.4,0.4,2,0.6c2,0.4,4,0.9,6,1.3c0.7,0.2,1.4,0.5,2,0.7
			c2.5,0.6,5.1,1.2,8.3,2c0-8.3,0.1-15.9-0.1-23.5c0-0.8-2-1.6-3.1-2.4c-2.4-0.5-4.7-0.9-7.1-1.4c-1.3-0.2-2.7-0.3-4-0.5
			c-1-0.3-2-0.6-3-0.8c-4-0.8-8-1.5-11.9-2.3c-0.7-0.2-1.4-0.5-2.1-0.7c-6.7-1.7-13.3-3.4-20-5.2c-1.7-0.5-3.3-1.1-5-1.6
			c-3.2-1.2-6.3-2.4-9.5-3.6c0.2-12.7,0.4-25.3,0.7-38c0-0.6,0.5-1.2,0.8-1.8c1,0,1.9,0.1,2.9,0.1c2,0.5,4.1,0.9,6.1,1.4
			c1.3,0.1,2.7,0.3,4,0.4c1,0.3,2,0.5,3,0.8c0.7,0.1,1.3,0.2,2,0.3c1,0.1,2,0.3,3.1,0.4c0.7,0.1,1.3,0.3,2,0.4
			c0.7,0.2,1.3,0.4,2,0.6c1.6,0.2,3.3,0.4,4.9,0.6c1,0.3,2,0.5,3.1,0.8c2.3,0.4,4.7,0.7,7,1.1c0.7,0.2,1.4,0.3,2,0.5
			c1.6,0.2,3.3,0.4,4.9,0.6c1,0.2,2,0.5,3,0.7c2.7,0.4,5.3,0.8,8,1.2c0.7,0.2,1.4,0.3,2,0.5c1.3,0.2,2.7,0.3,3.9,0.5
			c0-9.8,0-18.9,0-28c-1.6-0.6-3.3-1.2-4.9-1.8c-1.3-0.1-2.6-0.2-4-0.3c-3-0.2-6-0.5-9-0.7c-0.7-0.1-1.3-0.2-2-0.3
			c-1-0.2-2-0.3-3-0.5c-2.3-0.2-4.6-0.4-7-0.5c-1.7-0.3-3.4-0.6-5-0.9c-3-0.4-6-0.7-9-1.1c-0.7-0.2-1.4-0.3-2-0.5
			c-2.3-0.4-4.7-0.8-7-1.3c-0.7-0.1-1.5-0.3-2.2-0.4c-1.9-0.3-3.7-0.6-5.6-0.9c0.2-3.6,0.4-7.3,0.6-10.9c0.1-1,0.1-1.9,0.2-2.9
			c0.4-1.7,0.8-3.5,1.3-5.2c0.1-0.9,0.2-1.7,0.3-2.6c0.9-3.4,1.8-6.7,2.6-10c0.2-1.1,0.4-2.1,0.7-3.2c0.4-1,0.8-2,1.3-2.9
			c0.2-0.7,0.3-1.4,0.5-2c0.2-0.5,0.5-1,0.7-1.6c0.2-0.4,0.3-0.7,0.5-1.1c0.5-1.1,0.9-2.2,1.4-3.3c0.2-0.7,0.5-1.4,0.7-2.1
			c1,0,2.1,0,3.1,0c0,1.3,0,2.7,0,4c0,1,0.1,2,0.1,3c0.2,1.6,0.5,3.2,0.7,4.8c0.2,0.9,0.5,1.8,0.7,2.7c1.3,5,3,9.8,8.5,11.7
			c1.7-0.4,3.4-0.7,5.1-1.1c3.3-0.8,6.6-1.5,10-2.3c0.7-0.2,1.4-0.4,2.1-0.6c0.7-0.8,2-1.7,1.9-2.4c-0.3-1.7-1.2-3.2-1.9-4.8
			c-0.3-0.7-0.6-1.4-0.9-2.1c-0.8-3-1.5-5.9-2.3-8.9c-0.2-0.7-0.5-1.4-0.7-2.1c-0.1-0.6-0.3-1.3-0.4-1.9c-0.2-1.4-0.4-2.7-0.6-4.1
			c-0.1-0.6-0.2-1.3-0.4-1.9c-0.2-1.7-0.5-3.4-0.7-5c0.1-2.8,0.3-5.6,0.1-8.5c-0.2-4.9,0.6-9.4,4.7-12.6c4.9-3.1,9.8-6.2,14.8-9.1
			c1.5-0.8,3.6-0.5,5.4-0.8c-0.9,2.1-1.7,4.1-2.6,6.1c-0.4,0.9-0.8,1.9-1.3,2.8c-0.2,0.6-0.4,1.3-0.5,1.9c-0.3,0.7-0.5,1.4-0.8,2.1
			c-0.4,2-0.8,4-1.2,6c-0.2,0.7-0.3,1.4-0.5,2.1c-0.2,2.3-0.4,4.6-0.5,6.9c0,4.4,0,8.7,0,13.1c0.2,2.3,0.3,4.6,0.5,7
			c0.2,0.7,0.4,1.4,0.5,2c0.4,2,0.7,4,1.1,6c1.9,9.8,2.1,9.9,11,8.1c2.7,0,5.4,0,8.9,0c-1.2-3.2-2.1-5.7-2.9-8.1
			c-0.3-0.7-0.5-1.4-0.8-2.1c-0.2-1-0.4-1.9-0.6-2.9c-0.5-2-1-4-1.5-6.1c-0.1-1.6-0.3-3.3-0.4-4.9c0-4.3,0-8.7,0-13
			c0.1-1.3,0.3-2.6,0.4-4c0.2-1,0.5-2,0.7-3c2.6-7.7,7.9-13.3,14.3-17.9c4.8-3.5,9.7-7.1,14.9-9.8c14.9-7.8,30.1-15.1,45.2-22.7
			c1.9-0.7,3.7-1.5,5.6-2.2c0.4-0.1,0.8-0.2,1.2-0.3c0.7,0,1.3-0.1,2-0.1c1.7-0.4,3.3-0.8,5-1.2c1-0.1,1.9-0.2,2.9-0.2
			c2-0.4,4.1-0.9,6.1-1.3c1.3-0.1,2.6-0.2,3.9-0.3c2-0.4,4.1-0.8,6.1-1.2c1,0,2-0.1,3.1-0.1c0.7,0,1.4,0,2-0.1
			c3.3-0.4,6.6-0.9,9.9-1.3c1.6-0.1,3.3-0.1,4.9-0.2c2-0.2,4-0.3,6.1-0.5c0.2,0.6,0.3,1.2,0.5,1.8c-4.8,2-9.7,3.9-14.5,5.9
			c-0.7,0.3-1.3,0.6-2,0.9c-3.3,1.4-6.7,2.8-10,4.2c-1.2,0.5-2.4,1-3.6,1.5c-12.5,5.5-24.9,10.9-37.4,16.4c-0.7,0.3-1.3,0.7-2,1
			c-11.1,6.2-22.4,12.1-33.1,18.8c-5.6,3.5-8.6,9.5-9.9,16.1c-0.6,3-1.1,6-1.7,9c0,4,0,8,0,12c0.5,3.4,1,6.7,1.5,10.1
			c0.1,0.6,0.3,1.3,0.4,1.9c0.2,0.7,0.4,1.4,0.7,2.1c0.7,1.3,1.4,2.7,2.1,4c1.3,0.2,2.7,0.5,4,0.7c2,0.1,4,0.3,5.9,0.4
			c1.7,0.2,3.4,0.4,5.1,0.6c0.6,0.1,1.3,0.2,2,0.4c0.7-0.4,1.3-0.8,2-1.1c0-6.3,0.1-12.6,0.1-19c0.2-1,0.4-2,0.6-3
			c0.4-2,0.9-4,1.3-6c0.3-0.7,0.6-1.3,0.9-2c4.3-12.8,12.3-22.5,24.4-28.8c5.1-2.7,10.1-5.8,15.3-8.3c12.8-6.2,25.7-12.2,38.5-18.2
			c1.2-0.5,2.3-1,3.5-1.5c7.8-3.2,15.7-6.4,23.5-9.6c1-0.4,2-0.7,3-1.1c0.7-0.3,1.5-0.5,2.2-0.8c2.3-0.9,4.5-1.9,6.8-2.8
			c4.4-1.6,8.7-3.2,13.1-4.8c2.6-0.9,5.3-2.5,7.9-2.4c15.1,0.5,30.2,1.4,45.4,2.3c0.9,0.1,1.8,1.2,2.7,1.9
			c-17.9,5.7-36,10.8-53.6,17.2c-28.6,10.3-57,21.1-85.3,32.1c-11.6,4.5-19.1,13.3-23.2,25.2c-4.2,12.2-4.7,24.6-3.7,37.4
			c7.6,0.3,14.7,0.6,22.3,1c0-2.2-0.1-3.8,0-5.4c1.6-21.6,9.9-39.2,30.3-49.2c6.4-3.2,12.8-6.3,19.4-9.1
			c41.3-17.4,84-30.4,126.7-43.4c1.4,0,2.8,0,4.3,0c0.6,0.1,1.3,0.3,1.9,0.4c3.6,2.1,7.5,3.9,10.9,6.5c3.2,2.5,7,5.1,5.8,10.3
			c-0.8,0.1-1.7,0.2-2.5,0.4c-32.7,11.2-65.4,22.2-97.9,33.9c-16.7,6-32.9,13.3-49.2,20.4c-3,1.3-5.1,4.4-8.2,7.2
			c12.2,6.7,16.6,16,15.5,28.1c-0.3,3.6-0.3,7.3-0.9,10.8c-0.2,1.4-1.5,3.4-2.6,3.7c-8.9,2.2-17.7,5-26.8,5.8
			c-20.4,1.6-40.9,2.2-61.3,3.2c-1.3,0.1-2.5,0.2-3.8,0.4c0,10.8,0,21.2,0,31.8c1.1,0.1,1.9,0.3,2.7,0.2c30.2-1.6,60.6-0.7,90.4-7.4
			c15.2-3.4,30.8-5.5,45.8-9.9c40.3-11.8,80.2-24.9,118.9-41.5c5-2.1,7-1.2,9,4c0.4,2.3,0.8,4.7,1.2,7c0,1.8,0,3.5,0,4
			c-4.7,0-9.1-0.9-12.9,0.2c-10.4,2.8-20.6,6.4-30.8,9.7c-32.1,10.3-64.2,20.5-96.2,31.1c-8.6,2.8-16.8,6.8-25.1,10.7
			c-4,1.9-5,5.4-4.8,10c0.8,17.2,4,13.2-12.7,15.8c-22.7,3.5-45.6,5.4-68.4,7.9c-5.7,0.6-11.5,1-17,1.5c0,9.3,0,18.1,0,27.3
			c3.8-0.2,7.3-0.3,10.8-0.5c19.3-1.2,38.6-2,57.8-3.6c11.4-1,22.9-2.6,34.1-5.2c10.3-2.4,20.3-6.3,30.3-9.7
			c38-12.9,76.3-25.3,113.3-40.8c4.4-1.8,9.2-3.2,13.1-5.7c4.6-2.9,7.6-2.8,10.1,1.9C614.7,205.5,615.5,208.1,618.7,206.4z"/>
		<path class="st2" d="M367.5,478.1c0.8,4.3,1.6,8.6,2.4,12.9c0.3,1,0.5,2,0.8,3.1c0.4,2.3,0.8,4.6,1.2,7c0.2,0.7,0.4,1.4,0.6,2.1
			c1.2,2.4,2.3,4.7,3.5,7.1c0.3,0.5,0.7,0.9,1,1.4c0.4-0.5,0.7-0.9,1.1-1.4c1.6,0,3.2,0.1,4.9,0.1c1.6,3,7.8,3.9,9.5,1.3
			c0.1-0.2-0.6-1-1-1.6c-2.5-16.7-5.1-33.5-7.8-51.1c7.3,0.4,13.9,0.6,20.4,1.2c1,0.1,2.4,2.2,2.7,3.6c2.5,13.1,4.8,26.2,7,39.3
			c1.3,7.4,1.1,7.7,8.8,6.9c5.1-0.5,10.1-1.8,15-3.2c1-0.3,2.2-2.8,1.9-3.8c-3.8-13.1-3.3-26.5-1-39.6c0.8-4.3,6.5-9.6,11-11
			c37.3-11.6,68.7-34.4,102.6-52.4c12.9-6.9,24.9-15.2,37.4-22.8c2.4-1.4,5-2.4,7.5-3.6c1-0.4,1.9-0.8,2.9-1.1
			c2.7,0.2,5.3,0.5,8,0.7c0.7,1.3,1.3,2.7,2,4c-1.7,6.7-3.5,13.3-5.2,20c-0.3,0.7-0.6,1.3-0.8,2c-3,14.7-14.7,22.3-25.6,30.4
			c-1.1,0.8-3.5,0.4-5.1,0c-2.5-0.6-4.9-1.7-8.2-3c0.2,3.5,0.6,6.2,0.3,8.8c-0.2,2-0.9,4.6-2.3,5.8c-3.7,3.2-8,5.9-12,8.7
			c-0.9-0.7-1.7-1.4-2.6-2.1c-1.5-5.8-3-11.5-4.5-17.6c-1.8,0.8-2.6,1.2-3.5,1.6c-6.8,3.2-7,3.7-6.3,10.8c0.6,5.1,5,2.4,7.4,3.8
			c1.1,0.6,2.5,0.7,3.8,1c-0.1,0.8-0.2,1.7-0.2,2.5c-3.4-0.5-6.8-1.1-11.2-1.7c0,2.7-0.3,5.1,0.1,7.5c0.7,5-1.1,8.2-5.7,10.8
			c-4.9,2.7-9.1,6.6-15.5,4.9c-3.5-0.9-7.1-1.1-11.7-1.8c0,3.5-0.3,6.5,0.1,9.3c0.6,4-0.9,6.4-4.4,7.9c-0.2,0.1-0.3,0.2-0.4,0.3
			c-8.8,7.5-18.1,9.6-28.5,3.3c-0.5-0.3-1.2-0.1-2.1-0.2c-0.4,3.8-1,7.3-1.1,10.9c-0.1,3.3-1.7,5.1-4.6,6.3
			c-4.3,1.8-8.6,3.6-12.7,5.8c-1.3,0.7-3,2.6-2.9,3.9c0.6,23.6,1.4,47.2,2.1,71.4c12,0.6,24,0.9,35.9,1.8
			c14.9,1.1,29.8,2.3,44.7,3.9c13.2,1.4,26.3,3.2,39.4,5.5c29.5,5.2,59,10.9,85.4,26.2c3.8,2.2,7.4,5.2,10.4,8.4
			c7.6,7.9,7.4,17-0.4,24.7c-9.2,9.2-20.9,14.1-32.8,18.4c-25.9,9.5-52.9,14.5-80.1,18.4c-34.8,4.9-69.9,7.3-105.1,7.9
			c-44.4,0.8-88.6-0.9-132.7-6.5c-33.7-4.3-67.3-9.8-98.9-23c-7.9-3.3-15.6-7.7-22.3-13c-11.5-9-11.4-19.4-0.7-29.3
			c8.8-8.1,19.6-13.3,30.8-16.6c18.5-5.5,37.2-10.6,56.1-14.2c21.5-4.1,43.3-6.6,65-9.1c11.7-1.4,23.6-1.4,35.4-1.9
			c2.8-0.1,4.6-0.5,4.7-4.1c0.3-20.3,0.8-40.6,1.3-60.9c0.1-4.3-0.9-6.8-5.8-6.1c-3.2,0.4-4.8-1.2-5.3-4.5c-0.6-3.6-2.2-7-2.5-10.6
			c-0.4-4.7-3.8-5.3-6.8-5.3c-1.6,0-3.7,2.7-4.5,4.6c-6.4,13.7-6.3,13.7-22,10.6c-1.6-0.3-3.4-0.3-4.9-1c-1.4-0.7-3.1-1.8-3.6-3.1
			c-1.3-3.7-2-7.7-2.9-11.6c-0.3-1.4-0.8-2.7-1.7-5.8c-3.4,4.7-6.1,8.1-8.3,11.9c-2.1,3.5-4.4,4.7-8.4,3.3
			c-6.3-2.1-12.8-3.4-19.1-5.6c-1.7-0.6-3.4-2.9-3.8-4.8c-0.9-3.6-0.8-7.5-1.3-12c-4.9,2.5-9.1,5-13.6,6.9c-1.8,0.8-4.5,0.9-6.4,0.2
			c-18.9-6.8-25.4-22.4-28.6-40.4c-2.6-14.2-5.2-28.3-7.9-42.5c-0.8-4.1,0.3-6.7,4.6-7.6c3.5-0.7,5.6-2.1,4.7-6.4
			c-0.8-4.1-2.3-6.4-6.9-5.5c-3.9,0.7-5.5-0.7-5.8-5c-0.6-8.6-1.9-17.2-2.8-25.8c-0.3-2.5-0.4-4.9-0.5-7.5c3.3-1,6.3-1.8,9.5-2.8
			c0-3.6,0-7.3,0-11.2c-1.3-0.3-2.5-0.8-3.7-0.9c-8.2-0.9-8.2-0.9-8.3-8.9c0-2.2,0.1-4.3,0.2-6.5c0.9-1.2,2.5-2.4,2.6-3.7
			c0.3-5.2,0.1-10.5,0.1-16.4c0.9,0.3,2,0.7,3.1,1.2c0.5,9.1,0.8,18.3,1.6,27.4c0.1,1.5,2.6,3.5,4.4,4c14.3,4.3,28.7,8.2,43.1,12.3
			c1.4,0.4,2.9,0.6,4.4,0.9c9.8,2.2,9.8,2.2,9.8,12.4c0,3.6,0,7.2,0,11.7c-10.4-2.3-20.1-4.3-29.7-6.6c-9.5-2.3-18.9-5.1-28.7-7.8
			c-0.1,1.1-0.4,2.2-0.3,3.2c0.7,6.8,1.6,13.5,2.2,20.3c0.3,2.8,1.5,4.5,4.3,5.2c15.9,4.2,31.8,8.6,47.7,12.7
			c3.1,0.8,4.6,1.6,4.5,5.1c-0.3,7.1-0.1,14.3-0.1,22.9c-17.8-5.3-34.8-10.4-52.3-15.6c1.1,6.3,1.9,12.6,3.2,18.9
			c2.1,10.4,4.3,20.8,7,31.1c3.3,12.9,13,19.9,25.4,25.3c-2.7-14.7-5.3-28.7-8.1-43.3c7.1,0.4,13.6,0.5,20,1.2
			c1.1,0.1,2.6,2.6,2.8,4.2c1.6,13.9,3.1,27.8,4.4,41.7c0.3,3.2,1.5,4.7,4.6,5.4c5.4,1.3,10.8,2.9,16.2,4.4
			c-1.5-17.7-3-35.1-4.5-53.3c6.2,1.1,11.6,1.8,16.8,3.2c1.3,0.3,2.4,3,2.7,4.7c2.5,13.6,4.9,27.2,7.1,40.8
			c1.5,9.6,1.3,9.6,10.8,10.9c2.6,0.3,5.2,1,8.6,1.6c-2.1-18.6-4-36.6-6.1-55.5c6,0.5,11.6,0.8,17.2,1.4c0.7,0.1,1.8,1.4,1.9,2.4
			c1.4,6.8,2.6,13.7,3.9,20.6C367.1,476.7,367.3,477.4,367.5,478.1z M501.7,465c0.4,0.5,0.9,1.4,1.3,1.4c4.6,0.1,9.2,0.1,14.2,0.1
			c-1.4-8-2.9-16.1-4.4-24.6c-2.5,1-4,1.8-5.6,2.2c-4.2,1.1-5.8,3.6-5.3,8c0.3,2.9-0.2,6-0.3,8.9C499.1,462.3,499.1,463.7,501.7,465
			z M600.8,655.3c-0.1-0.7-0.2-1.5-0.3-2.2c-3.7-0.5-7.4-1.3-11.1-1.4c-18.1-0.6-36.3-0.8-54.4-1.5c-48.3-1.7-96.5-4.5-143.7-16.1
			c-11.3-2.8-22.3-7.5-33-12.4c-6.5-3-6.3-5.9-1.3-10.8c4.3-4.2,3.8-7.4-2-8.8c-5-1.2-10.2-1.9-15.3-2c-22.4-0.6-44.5,2.5-66.4,7.1
			c-14,2.9-28,6.2-40.6,13.3c-4.1,2.3-8.8,4.6-8.7,10c0.1,5.1,5,7.2,8.9,9.3c13.8,7.5,28.7,12.3,43.9,16
			c32.5,7.9,65.6,11.2,98.9,13.1c51.1,3,102.2,3.6,153.2-2.6c19.7-2.4,39.3-5,58.9-7.7C592.1,658.1,596.4,656.5,600.8,655.3z
			 M395.8,607.2c9.5,0.5,18.2,0.9,27.4,1.4c-0.2-3.7-0.4-6.7-0.6-9.6c-0.8-14.5-2-28.9-2.3-43.4c-0.1-5.3-1.7-8.1-6.5-10
			c-6.8-2.8-13.4-6.2-20.6-9.7C394.1,560,394.9,583.3,395.8,607.2z M480.9,489.6c-1.5-9.5-2.9-18.7-4.4-28.2c-6,2.6-9.7,5.2-10,12.4
			c-0.4,13.9-1,13.9,12.5,16.2C479.3,489.9,479.7,489.8,480.9,489.6z M573.8,412.1c-3.2,3.8-9.2,3.3-8.6,8.8
			c0.8,6.5,7.1,4.1,10.5,6.4c0.3-0.3,0.6-0.6,1-0.9C575.8,422,574.9,417.7,573.8,412.1z M526.7,452.4c-0.1,0.3-0.2,0.5-0.3,0.8
			c0.3,0.1,0.6,0.4,0.8,0.3c0.2-0.1,0.2-0.5,0.4-0.8C527.3,452.7,527,452.6,526.7,452.4z M555.7,431.4c-0.1,0.3-0.4,0.6-0.3,0.8
			c0.1,0.2,0.5,0.3,0.8,0.4c0.1-0.3,0.4-0.6,0.3-0.8C556.4,431.6,556,431.5,555.7,431.4z"/>
		<path class="st3" d="M565,33.9c-0.6-0.1-1.2-0.3-1.9-0.4c-1.4,0-2.8,0-4.3,0c-42.7,13-85.5,26.1-126.8,43.4
			c-6.6,2.8-13,5.9-19.4,9.1c-20.4,10.1-28.7,27.6-30.3,49.2c-0.1,1.6,0,3.3,0,5.4c-7.5-0.3-14.6-0.6-22.3-1
			c-1.1-12.8-0.5-25.2,3.7-37.4c4.1-11.9,11.6-20.7,23.2-25.2c28.3-11,56.7-21.8,85.3-32.1c17.7-6.3,35.7-11.5,53.6-17.2
			c0.7-0.7,1.3-1.3,2-2c-1-0.9-2-2.6-3.1-2.7c-7.7-0.6-15.5-1-23.3-1.2c-9.3-0.2-18.6,0-27.9,0c-1.6,0-3.1-0.6-4.7-0.9
			c8.9-5.2,17.9-8.5,28.7-7.1c13.3,1.7,26.8,2.1,40.3,2.8c3.6,0.2,4.4,1.7,4.3,5c-0.1,8.2,5.1,11.3,12.6,7.9
			c1.5-0.7,2.9-1.5,4.5-2.1c4-1.5,7.4-5.3,12.4-3.1c7.4,3.1,15.7,5.6,18.8,13.7c4.7,11.8,8.7,23.9,12,36.2
			c2.7,10.2,3.7,20.9,5.8,31.3c0.6,3.1-0.1,4.8-2.9,5.9c-0.5,0.2-0.8,0.6-1.3,0.8c-9.1,3.5-11.7,10.2-8.8,20.4
			c4.8-0.4,10.1-0.9,15.4-1.4c0.7,3.7,1.4,7.3,2.2,11c0,0.6,0.1,1.2,0.1,1.9c-0.8-0.7-1.6-1.3-2.3-2c-2-5.2-4-6.2-9-4
			c-38.7,16.6-78.6,29.7-118.9,41.5c-14.9,4.4-30.5,6.4-45.8,9.9c-29.8,6.7-60.2,5.8-90.4,7.4c-0.8,0-1.6-0.1-2.7-0.2
			c0-10.6,0-21,0-31.8c1.3-0.1,2.5-0.3,3.8-0.4c20.5-1,40.9-1.5,61.3-3.2c9-0.7,17.9-3.6,26.8-5.8c1.1-0.3,2.4-2.3,2.6-3.7
			c0.6-3.6,0.6-7.2,0.9-10.8c1.1-12.1-3.4-21.4-15.5-28.1c3.1-2.8,5.2-5.9,8.2-7.2c16.3-7.1,32.5-14.4,49.2-20.4
			c32.5-11.7,65.3-22.7,97.9-33.9c0.8-0.3,1.6-0.3,2.5-0.4c3.2-0.8,2.6-2.8,1.6-5c-3.4-7.4-10.4-10.3-17.3-13.3
			C565.9,32.5,565.3,33.4,565,33.9z M591.7,113.1c-1,0.1-2,0-2.9,0.2c-14.7,4.2-29.4,8.5-44.1,12.6c-32,9-63.9,17.9-95.9,26.9
			c-2.2,0.4-4.4,0.8-6.6,1.2c0.1,0.6,0.2,1.2,0.2,1.8c2.7-0.4,5.3-0.8,8-1.2c8.9-2.1,17.8-3.9,26.6-6.4c31.5-8.9,63-18,94.4-27.2
			c6.9-2,13.7-4.6,20.5-6.9c0.3-0.3,0.5-0.5,0.8-0.8C592.5,113.3,592.1,113.2,591.7,113.1z M462.4,135.2c7.3-2.1,14.3-4.1,21.2-6.4
			c1-0.3,2-2.6,1.9-3.8c-0.8-9-4.1-17.1-9.4-24.3c-0.7-1-2.6-2-3.5-1.7c-6.1,1.9-12.1,4.3-17.7,6.3c2.2,5,4.7,9.3,5.9,14.1
			C461.9,124.1,461.8,129.1,462.4,135.2z M499.9,125.3c5.8-1.6,10.7-3.1,15.6-4.4c3.6-0.9,5-3.5,5.3-6.9c1-9.3-1.9-17.3-7.6-24.5
			c-0.7-0.9-2.3-1.7-3.2-1.5c-5.7,1.5-11.4,3.2-17.6,5C500,102.6,501,113.1,499.9,125.3z M527.1,84.3c6,9,11.1,17.9,8.5,29.4
			c6.3-1.8,11.8-3.4,17.3-5.2c1.1-0.3,2.6-1.6,2.6-2.5c0.2-9.7-0.6-19.3-7.1-27.3c-0.7-0.8-2.4-1.6-3.3-1.3
			C539.2,79.5,533.4,81.9,527.1,84.3z M568.4,102.8c8.5,0.4,12.4-2.8,12.4-11.6c0.1-8.3-2.2-16-6.6-22.8c-5.3,1.2-10.2,2.3-14.4,3.3
			C562.7,81.9,565.5,92,568.4,102.8z M532.4,25.9c0.3-0.1,0.5-0.3,0.8-0.4c-0.1-0.1-0.2-0.3-0.3-0.3c-0.3,0-0.6,0.1-0.9,0.1
			C532,25.5,532.2,25.7,532.4,25.9z M529.8,26.9c-0.1-0.1-0.2-0.2-0.3-0.3c-0.1,0.1-0.2,0.2-0.3,0.3c0.1,0.1,0.3,0.3,0.4,0.4
			C529.7,27.2,529.7,27,529.8,26.9z"/>
		<path class="st4" d="M541.7,238.3c1.7-0.6,3.4-1.2,5.1-1.8c0.6,1.1,1.1,3,1.9,3.2c3.4,0.8,8.4-3.5,9.2-7.4
			c3.3-1.3,6.5-2.6,9.8-3.9c0.9,0.8,1.9,1.7,2.8,2.5c1.1-1.6,2.2-3.2,3.4-4.7c1.3-0.5,2.7-1.1,4-1.6c0.2,1,0.4,2.1,0.5,3.1
			c2.2-0.7,4.1-1.1,5.9-1.9c1.9-0.9,3.8-2,5.5-3.3c1.5-1.1,3.1-2.6,0-3.8c1.4-0.6,2.8-1.1,4.1-1.7c0.7,0.6,1.4,1.3,2.1,1.9
			c0.6-1.2,1.1-2.3,1.7-3.5c1.8-0.5,3.5-1.1,5.3-1.6c-0.2,5,3.6,2.8,5.9,3.3c0.4,0.4,0.7,0.7,1.1,1.1c0,0.3,0,0.6,0,0.9
			c-0.7,0.7-1.3,1.4-2,2.1c-1.1-0.3-2.8-1.3-3.3-0.9c-2.1,1.9-2,15-0.2,17.7c1.1,0.6,2.3,1.3,3.4,1.9c-3.6,1.3-3.4,4.5-2.4,7
			c0.6,1.5,3,2.3,4.6,3.5c0.1,0.1,0.3,0.1,0.5,0.1c9.2,1.6,9.2,1.6,9.2,10.9c0,6.8-0.3,13.7,0,20.5c0.1,3.2-1.3,4.5-4,5.2
			c-4.1,1.2-8.2,2.6-12.2,3.9c-1.4-0.1-2.8-0.1-4.1-0.2c5-2.4,10.1-4.9,15.1-7.3c-0.3-0.6-0.6-1.2-0.9-1.9c-7.3,3.2-14.7,6.4-22,9.6
			c-11.5,4.8-23,9.6-34.5,14.5c-1.8,1.1-3.5,2.3-5.3,3.4l0,0c-0.6-0.2-1.2-0.3-1.8-0.5c-0.1,0.5-0.1,1-0.2,1.5l0,0
			c-1.1-0.1-2.3-0.6-3.2-0.3c-29.2,11.3-58.4,22.7-87.6,34.2c-0.7,0.3-0.9,2.1-1.3,3.2c-4.6,0.8-9.1,1.7-13.7,2.5
			c0.6-3.3,1.7-6.6,1.6-9.9c-0.1-4,1-6.9,4.7-8.4c9-3.7,17.9-7.9,27.2-10.8c31.5-9.9,60.5-25.6,90.9-38.2
			c11.8-4.9,23.6-9.8,35.6-14.2c3.7-1.4,7.9-1.1,12.8-1.8c-0.5-2.4-1.2-6-2-10.3c-9.3,3.7-18.1,7.1-26.8,10.6
			c-28.3,11.1-56.4,22.8-84.9,33.2c-20.1,7.4-40.8,13.1-61.2,19.6c-25.4,8.2-51.5,7.5-77.6,6.8c-5.8-0.2-11.7-0.5-17.5-1.1
			c-1.2-0.1-3.1-1.7-3.2-2.6c-0.3-8.1-0.1-16.2-0.1-24.9c32.3,0.9,64,0.6,95.2-6.8c0.3,0.5,0.6,1,0.9,1.6c0.3-0.6,0.6-1.3,0.9-1.9
			c1.7-0.7,3.3-1.4,5.5-2.3c0-3.6-0.2-7.2,0.1-10.8c0.1-1.4,1.1-2.8,1.7-4.2c0,2.4,1.1,3.8,3.1,1.9c1.7-1.6,2.6-4.1,3.8-6.2
			c7.7-2.4,15.3-4.7,23-7.1c0.6,1,1.1,2,1.8,3c0,0.1,1.6-0.7,1.5-0.8c-0.3-1-0.8-1.9-1.2-2.8c1.3-0.5,2.6-1,4-1.4
			c1.1,1,2.4,3,3.4,2.8c2.8-0.4,4.3-2.4,3.1-5.4c2.8-1,5.7-2.1,8.5-3.1c2.2,1.3,4.5,2.5,4.7-1.7c1.4-0.5,2.8-1,4.3-1.5
			c0.5,0.7,1,1.4,1.5,2c0.8-1.2,1.6-2.4,2.4-3.6c0.4-0.1,0.9-0.2,1.3-0.3c1.9,0.6,4.4,2.4,5.6,1.7c2.7-1.4,7.5-1.3,6.9-6.4
			c4.4-1.7,8.9-3.3,13.3-5c0.5,0.8,1,1.5,1.5,2.3C540.9,240.4,541.3,239.4,541.7,238.3z M481.8,281.3c1.1-0.4,2.2-0.8,3.2-1.2
			c0.8,0.9,1.6,1.9,2.3,2.8c0.8-1.4,1.7-2.9,2.5-4.3c2-0.6,4.1-1.2,6.1-1.8c0.5,0.7,1.1,1.3,1.6,2c0.4-1,0.9-2.1,1.3-3.1
			c2.3-0.7,4.7-1.3,7-2c0.7,0.7,1.4,1.4,2.1,2.1c0.6-1.2,1.2-2.3,1.8-3.5c1.1-0.4,2.1-0.7,3.2-1.1c0.8,0.9,1.6,1.8,2.4,2.8
			c0.8-1.5,1.6-2.9,2.5-4.4c18.2-6.3,36.4-12.5,54.5-18.8c8.2-2.8,16.3-5.6,24.5-8.6c2.9-1,2.8-1.1,2.2-3.5
			c-0.2-1.1-0.5-2.3-0.7-3.4c-0.7,0-1.3,0-2,0c0,1.3,0,2.6,0,4c-2.1,0.7-4.2,1.3-6.3,2c-0.7-1-1.4-1.9-2.2-2.9c-1,1.5-2,3.1-2.9,4.6
			c-1.4,0.4-2.7,0.9-4.1,1.3c-1.4-0.7-3.5-2.5-4.2-2c-1.9,1.2-3.1,3.4-4.6,5.1c-5.4,1.9-10.8,3.8-16.1,5.6c-0.3-0.5-0.7-1-1-1.5
			c-0.3,0.7-0.6,1.4-0.9,2c-1.7,0.5-3.4,1.1-5.1,1.6c-2-2.3-4-2.4-6.9-1.1c-6.2,2.7-12.8,4.5-19.1,7.1c-1.3,0.5-2.1,2.6-3.1,4
			c-2.3,0.7-4.7,1.4-7,2.1c-0.5-0.7-1.1-1.3-1.6-2c-0.4,1.1-0.8,2.2-1.2,3.2c-2,0.6-4.1,1.1-6.1,1.7c-1.2-1-2.5-3.1-3.5-2.9
			c-3.2,0.6-6.5,1.8-6.4,6.1c-8.3,2.6-16.7,5.3-25,7.9c-2.1-0.7-4.6-2.4-6.2-1.8c-1.9,0.7-3.2,3.4-4.7,5.2c-0.4,1.9-5.9-0.7-3.3,3.8
			c1.1,4.8,4.8,2.1,7.3,2.3c0.8,0.1,1.8-2.7,2.7-4.2c1.3-0.4,2.7-0.8,4-1.1c0.8,3.9,3.7,3,5.8,2.1
			C477.6,286.3,482.8,287.2,481.8,281.3z M600.9,238.4c-0.1-0.1-0.2-0.2-0.3-0.4c-0.1,0.2-0.3,0.4-0.3,0.7c0,0.1,0.2,0.2,0.3,0.3
			C600.6,238.8,600.8,238.6,600.9,238.4z M602.2,239.3l0.2,0.2l0-0.2L602.2,239.3z"/>
		<path class="st5" d="M618.7,206.4c-3.2,1.7-4-0.9-5-2.9c-2.5-4.7-5.5-4.9-10.1-1.9c-4,2.5-8.7,3.8-13.1,5.7
			c-37.1,15.6-75.3,28-113.3,40.8c-10.1,3.4-20,7.3-30.3,9.7c-11.2,2.6-22.7,4.2-34.1,5.2c-19.2,1.7-38.5,2.5-57.8,3.6
			c-3.5,0.2-6.9,0.3-10.8,0.5c0-9.2,0-17.9,0-27.3c5.6-0.5,11.3-0.9,17-1.5c22.8-2.5,45.8-4.3,68.4-7.9c16.7-2.6,13.5,1.4,12.7-15.8
			c-0.2-4.6,0.8-8.1,4.8-10c8.2-3.9,16.5-7.8,25.1-10.7c32-10.6,64.1-20.7,96.2-31.1c10.3-3.3,20.4-6.9,30.8-9.7
			c3.8-1,8.2-0.2,12.9-0.2c0-0.5,0-2.3,0-4c0.7,0,1.4,0,2,0c0.5,6.3,0.7,12.7,1.6,19c0.4,3.3-0.6,5.4-3.3,7
			c-0.9,0.5-1.6,1.1-2.5,1.7c-6.5,4.4-7.8,7.7-5.5,15.3c0.4,1.4,2.5,2.8,4.1,3.1c3.2,0.7,6.5,0.7,9.8,1c-0.2,0.3-0.1,0.5,0.1,0.7
			C618.6,200,618.7,203.2,618.7,206.4z M593,181.1c2.4-1,4.7-1.9,7.1-2.9c-0.2-0.6-0.4-1.1-0.6-1.7c-2.7,1-5.4,2-8.2,3
			c-0.6,0.6-1.2,1.1-1.7,1.7C590.7,181.1,591.9,181.1,593,181.1z M552,193.9c-1.9,0.7-3.7,1.4-5.6,2.1
			c-32.8,11.5-65.7,22.7-100.8,31.3c9.9,3.2,66.2-13.6,102.5-29.5c1.3-0.5,2.7-1,4-1.5c12.6-4.7,25.2-9.4,37.8-14.1
			c-0.3-0.7-0.6-1.4-0.8-2.2C576.7,184.6,564.3,189.3,552,193.9z"/>
		<path class="st2" d="M610,377c-0.7-1.3-1.3-2.7-2-4c0.8-4.9,1.6-9.8,2.7-16c-3.7,1.9-6.3,3.2-8.9,4.6
			c-38.5,20.6-76.9,41.4-115.7,61.6c-11.9,6.2-24.8,10.3-37.2,15.3c-1.5,0.6-3.2,0.5-4.8,0.7c-3,0.1-6,0.2-9,0.3c-11,0-22,0-33,0
			c-3-0.1-6-0.2-9-0.3c-3.3-0.2-6.6-0.4-10-0.5c-1.7-0.2-3.3-0.4-5-0.5c-3.7-0.2-7.3-0.5-11-0.7c-0.7-0.1-1.3-0.2-2-0.2
			c-4.7-0.5-9.3-0.9-14-1.4c-1.3-0.2-2.7-0.4-4-0.7c-1.1-0.9-3.1-1.8-3.1-2.8c-0.2-7,0.1-14.1,0.2-21.1c1.3-0.3,2.6-0.6,3.9-1
			c2.3,0.2,4.7,0.3,7,0.5c1.3,0.2,2.7,0.4,4,0.5c1,0.1,2,0.2,3,0.3c2,0.2,4,0.4,6,0.5c4.3,0.2,8.6,0.3,13,0.5
			c0.9,0.5,1.8,1.5,2.7,1.5c8.2,0.1,16.4,0.1,24.6,0c0.9,0,1.8-1,2.7-1.5c3.3-0.2,6.6-0.3,10-0.5c2-0.2,4-0.4,6-0.6
			c0.7-0.1,1.3-0.2,2-0.3c0.7-0.1,1.4-0.3,2-0.4c1.7-0.2,3.3-0.4,5-0.6c1-0.3,2-0.5,3-0.8c0.7-0.2,1.5-0.4,2.2-0.5
			c1.6,0.1,3.2,0.2,4.5,0.3c-1-3.5-1.9-6.8-2.8-10c0.4-6.9,6.3-7.8,11-10c0.7-0.2,1.3-0.5,2-0.7c2.3-0.8,4.6-1.5,7-2.3
			c0.7-0.2,1.4-0.5,2-0.7c6.3-2.4,12.7-4.7,19-7.1c0.7-0.3,1.3-0.6,2-0.9c6-2.3,12-4.7,18.1-7c0.6-0.3,1.3-0.6,1.9-1
			c27.5-13.2,55.1-26.4,82.6-39.6c0.7-0.3,1.6-0.4,2.3-0.6c0.7-0.3,1.3-0.6,2-0.9c5-1.7,9.9-3.9,15-4.9c2.8-0.5,6,1.1,8.9,1.7
			c0,0.7,0,1.4,0.1,2.1c-0.1,2.7-0.2,5.3-0.3,8c-2.5,1.6-5.1,3.1-7.6,4.7c1.2-1.9,2.3-3.9,3.5-5.9c-5-0.1-9.3,2.7-9.7,6.1
			c-0.3,0-0.7-0.1-1-0.1c-0.3-0.5-0.7-0.9-1-1.4c-0.3,0.5-0.7,0.9-1,1.4c-1.9,0.6-3.8,1.1-5.6,1.9c-34.1,16-68.2,32.1-102.3,48.1
			c-11.7,5.4-23.5,10.4-35.3,15.6c-2.3,0.3-4.6,0.3-6.8,0.9c-0.7,0.2-1.6,2.6-1.2,3.1c1.7,2.2,8.1,1.4,10.3-1.1
			c47.1-22.2,94.2-44.4,141-66.5c0.8,3.3,1.4,5.8,1.9,8.4l0.2,0.3c0,0,0.3,0,0.3,0c1.2,0.4,2.4,0.7,3.6,1.1c1.3,0.1,2.6,0.3,4,0.4
			c1.4,0.2,2.7,0.4,4.1,0.6c0,1.5,0,3,0,4.5c-0.2,0.7-0.3,1.3-0.5,2c-0.1,0.7-0.2,1.3-0.3,2c-0.1,1-0.1,2-0.2,3
			C612.1,368.3,611.1,372.7,610,377z"/>
		<path class="st6" d="M222.1,302.1c-1.1-0.4-2.1-0.8-3.1-1.2c0,5.9,0.2,11.1-0.1,16.4c-0.1,1.3-1.7,2.4-2.6,3.7
			c0-0.7-0.1-1.4-0.1-2.1c0.1-3,0.2-6.1,0.2-9.1c0-3.5-0.8-7.1,0-10.3c0.3-1.5,3.5-2.3,5.4-3.5c0.1-0.1,0.1-0.3,0.2-0.5
			c1-0.1,2-0.2,3.1-0.3c0.5,0.1,1.1,0.1,1.6,0.2c-0.1-0.4-0.3-0.8-0.4-1.3c0-0.3-0.1-0.6-0.1-1c0.2-7.4,0.2-7.4-7-7.8
			c-1.7-0.4-3.5-0.8-5.2-1.3c-0.3-4-0.5-8.1-0.8-12.1c-0.1-2-0.3-4-0.4-6c-0.2-7.7-0.5-15.4-0.7-23.1c-0.1-3.8,2.8-2.7,5-2.7
			c1.7-0.4,3.3-0.8,5-1.2c1.4-0.2,2.7-0.4,4.1-0.6c3.5-1.4,4.1-5.4,1.4-9.3c-1.5-0.7-3-1.4-4.5-2.1c-1.3-0.3-2.6-0.6-4-1
			c-2.4-0.6-4.8-1.2-7.2-1.8c0.1-1.7,0.2-3.3,0.3-5c0.2-9.4,0.3-18.7,0.5-28.1c0.2-2.3,0.3-4.6,0.5-6.9c0.2-2.4,0.5-4.7,0.7-7.1
			c0.7-0.3,1.4-0.7,2.1-1c1.4-0.2,2.7-0.4,4.1-0.6c1-0.4,1.9-0.7,2.9-1.1c1.4-0.4,2.8-0.8,4.2-1.3c0.3-1,0.6-2,1-2.9
			c-0.1-3.1-0.1-6.1-0.2-9.2c-1.5-3.3-3.8-1.9-6-1c-2-0.1-4-0.2-6-0.3c0.4-2.4,0.9-4.8,1-7.1c0.2-2.4,0-4.9,0.1-7.4
			c0.1-1,0.3-2,0.4-3c0.6-3.7,1.1-7.3,1.7-11c0.8-2.7,1.6-5.4,2.3-8c0.5-2.3,1.1-4.7,1.6-7c2-5.3,4-10.7,6-16
			c0.9-1.6,1.8-3.1,2.7-4.7c0.6-0.8,1.3-1.6,2-2.4c2.1-0.2,4.1-0.4,6.2-0.6c4.5-0.1,8.9-0.1,13.4-0.2c0.3-1.7,0.6-3.3,0.9-5
			c0.1-4.8,0-9.6,0.2-14.4c0.1-1.2,0.8-2.7,1.7-3.3c8.4-5.3,16.9-10.4,25.3-15.5c0.9-0.4,1.7-0.9,2.6-1.3
			c12.3-5.1,24.7-10.3,37-15.4c1.7-0.5,3.3-1.1,5-1.6c5-1.4,10-2.9,15-4.3c0.7,0.3,1.3,0.5,2,0.8c0.3,0.3,0.3,0.5,0,0.8
			c0,0.4-0.1,0.8-0.1,1.1c0.3,0.8,0.7,1.6,1,2.4c3.3,2.6,6.7,2.6,10.1,0c8.7-4.5,17.5-9,26.3-13.5c0.8-0.4,1.8-0.5,2.8-0.8
			c1-0.4,2-0.7,3-1.1c2-0.2,4.1-0.5,6.1-0.7c0.6-0.3,1.3-0.5,2-0.8c2-0.1,4-0.2,6-0.3c3.7-0.5,7.3-0.9,11-1.4c1-0.2,2.1-0.3,3.1-0.5
			c3-0.3,5.9-0.5,8.9-0.8c1-0.1,2-0.2,3-0.3c1.7,0.4,3.5,1.6,4.9,1.1c4.7-1.4,5.2,1.3,5.5,4.5c-1.4,0.5-2.7,1-4,1.5
			c-1.7,0-3.5,0.1-5.2,0.1c-2-0.1-4.1-0.3-6.1-0.4c-1.7,0.7-3.4,1.3-5.1,2c-3.3,0-6.7,0-10-0.1c-0.6,0.8-1.2,1.7-1.8,2.5
			c-1,0-2,0.1-3.1,0.1c-1.5-2.4-3.4-3.5-6-1.7c-1.3,0.6-2.7,1.3-4,1.9c-2.4,0-4.7,0-7.1,0c-1,0.4-2,0.7-3,1.1
			c-1.3,0.3-2.6,0.6-3.9,0.9c-0.7,0.7-1.3,1.5-2,2.2c-0.4,0.1-0.8,0.2-1.2,0.3c-2.5-0.9-5.8-3.9-5.6,2.2
			C353.1,42.1,338,49.5,323,57.3c-5.3,2.7-10.1,6.4-14.9,9.8c-6.4,4.6-11.7,10.2-14.3,17.9c-0.2,1-0.5,2-0.7,3
			c-0.1,1.3-0.3,2.6-0.4,4c-2.4,3.1-2.4,10,0,13c0.1,1.6,0.3,3.3,0.4,4.9c0.5,2,1,4,1.5,6.1c0.2,1,0.4,1.9,0.6,2.9
			c0.3,0.7,0.5,1.4,0.8,2.1c0.9,2.4,1.8,4.9,2.9,8.1c-3.4,0-6.2,0-8.9,0c-5.1-0.6-9.1-2.6-10.5-8c0-0.1-0.3-0.1-0.5-0.1
			c-0.4-2-0.7-4-1.1-6c-0.2-0.7-0.4-1.4-0.5-2c-0.2-2.3-0.3-4.6-0.5-7c0-4.4,0-8.7,0-13.1c0.2-2.3,0.4-4.6,0.5-6.9
			c0.2-0.7,0.3-1.4,0.5-2.1c0.4-2,0.8-4,1.2-6c0.3-0.7,0.5-1.4,0.8-2.1c0.2-0.6,0.4-1.3,0.5-1.9c0.4-0.9,0.8-1.9,1.3-2.8
			c0.9-2.1,1.7-4.1,2.6-6.1c1.9-2.3,3.9-4.7,5.8-7c0.9-0.5,1.8-1,2.8-1.4c-0.2-0.4-0.5-0.8-0.7-1.1c-0.7,0.6-1.4,1.1-2.2,1.7
			c-1.4,1-2.8,1.9-4.2,2.9c-0.2,0-0.4,0-0.6,0c-6.6,3.8-13.2,7.5-19.7,11.5c-0.9,0.5-1,2.3-1.4,3.5c-4.1,3.3-5,7.7-4.7,12.6
			c0.1,2.8-0.1,5.6-0.1,8.5c0.2,1.7,0.5,3.4,0.7,5c0.1,0.6,0.2,1.3,0.4,1.9c0.2,1.4,0.4,2.7,0.6,4.1c0.1,0.6,0.3,1.3,0.4,1.9
			c0.2,0.7,0.5,1.4,0.7,2.1c0.8,3,1.5,5.9,2.3,8.9c0.3,0.7,0.6,1.4,0.9,2.1c0.7,1.6,1.6,3.1,1.9,4.8c0.1,0.7-1.2,1.6-1.9,2.4
			c-0.7,0.2-1.4,0.4-2.1,0.6c-3.3,0.8-6.6,1.5-10,2.3c-1.7,0.4-3.4,0.7-5.1,1.1c-5.5-2-7.2-6.7-8.5-11.7c-0.2-0.9-0.5-1.8-0.7-2.7
			c-0.2-1.6-0.5-3.2-0.7-4.8c0-1-0.1-2-0.1-3c0-1.3,0-2.7,0-4c0-2.3-0.1-4.6-0.1-6.9c0-0.6,0-1.3-0.1-1.9c-0.5,0.7-1,1.5-1.6,2.2
			c-1,2.2-2,4.3-3,6.5c-0.7,0.8-1.3,1.7-2,2.5c0,0.4,0,0.7,0,1.1c-0.1,0.5-0.1,1.1-0.2,1.6c-0.3,0.9-0.6,1.8-0.8,2.8
			c-0.6,0.8-1.3,1.7-1.9,2.5c0,0.8,0.1,1.6,0.1,2.4c-0.4,0.8-0.8,1.7-1.2,2.5c-0.1,1.2-0.1,2.5-0.2,3.7c-0.6,0.8-1.2,1.5-1.8,2.3
			c0,1.6,0,3.1,0,4.7c-1.5,0.5-4.1,0.4-1.9,3.2c0,1.6,0,3.2,0,4.7c-0.4,1.1-0.7,2.2-1.1,3.3c-0.1,2.6-0.2,5.2-0.3,7.9
			c-0.6,0.6-1.2,1.2-1.7,1.7c0.9,0.4,1.8,0.9,2.7,1.3c0.4-0.1,0.8-0.1,1.2-0.2c1.9,0.3,3.7,0.6,5.6,0.9c0.7,0.1,1.5,0.3,2.2,0.4
			c2.3,0.4,4.7,0.8,7,1.3c0.7,0.2,1.4,0.3,2,0.5c3,0.4,6,0.7,9,1.1c1.2,3.1,3.1,2.3,5,0.9c2.3,0.2,4.6,0.4,7,0.5c1,0.2,2,0.3,3,0.5
			c0.7,0.1,1.3,0.2,2,0.3c2.8,3.2,5.9,2,9,0.7c1.3,0.1,2.6,0.2,4,0.3c1.6,0.6,3.3,1.2,4.9,1.8c0,9.1,0,18.2,0,28
			c-1.3-0.1-2.6-0.3-3.9-0.5c-0.7-0.2-1.4-0.3-2-0.5c-2.7-0.4-5.3-0.8-8-1.2c-1-0.2-2-0.5-3-0.7c-1.6-0.2-3.3-0.4-4.9-0.6
			c-0.7-0.2-1.4-0.3-2-0.5c-2.3-0.4-4.7-0.7-7-1.1c-1-0.3-2-0.5-3.1-0.8c-1.6-0.2-3.3-0.4-4.9-0.6c-0.7-0.2-1.3-0.4-2-0.6
			c-0.7-0.1-1.3-0.3-2-0.4c-1-0.1-2-0.3-3.1-0.4c-0.7-0.1-1.3-0.2-2-0.3c-1-0.3-2-0.5-3-0.8c-1.3-0.1-2.7-0.3-4-0.4
			c-2-0.5-4.1-0.9-6.1-1.4c-1,0-1.9-0.1-2.9-0.1c-2.1-2-2.5-0.6-3.1,1.4c-3.8,11.9-1.2,24.1-1.7,36.1c0,0.7,2.2,1.5,3.3,2.3
			c3.2,1.2,6.3,2.4,9.5,3.6c1.7,0.5,3.3,1.1,5,1.6c6.7,1.7,13.3,3.4,20,5.2c0.7,0.2,1.4,0.5,2.1,0.7c4,0.8,8,1.5,11.9,2.3
			c1,0.3,2,0.6,3,0.8c1.3,0.2,2.7,0.3,4,0.5c2,2.3,4.2,3.4,7.1,1.4c1.1,0.8,3.1,1.6,3.1,2.4c0.2,7.6,0.1,15.2,0.1,23.5
			c-3.2-0.8-5.7-1.4-8.3-2c-0.7-0.2-1.4-0.5-2-0.7c-2-0.4-4-0.9-6-1.3c-0.7-0.2-1.4-0.4-2-0.6c-2-0.5-4-1-5.9-1.5
			c-0.7-0.1-1.4-0.3-2.1-0.4c-7.6-2.1-15.3-4.2-22.9-6.3c-0.7-0.3-1.4-0.6-2-0.8c-4.7-1.2-9.3-2.3-14-3.5c-3.3-2.6-3,0-3,2
			c0,7.8,0.1,15.6,0.1,23.4c0.3,1.3,0.6,2.7,0.9,4c0.7,1,1.3,2,2,3c5,1.7,10,3.5,15,5.2c1.5,2.5,3.4,3.5,6.1,1.5
			c0.6,0.2,1.3,0.3,1.9,0.5c0.7,0.2,1.4,0.4,2.1,0.6c4.3,0.8,8.6,1.7,12.9,2.5c0.7,0.2,1.4,0.3,2,0.5c1.7,0.2,3.3,0.4,5,0.5
			c0.7,0.2,1.3,0.4,2,0.5c2.7,0.4,5.3,0.8,8,1.2c1,0.2,2,0.4,3.1,0.6c7.2,0.2,7.2,0.2,7.2,7.3c0,5.3-0.2,10.6-0.2,15.9
			c-0.7,0.4-1.4,0.7-2,1.1c-0.6-0.1-1.3-0.3-2-0.4c-0.7-0.2-1.4-0.4-2.1-0.6c-4.3-0.8-8.6-1.6-12.9-2.4c-0.7-0.2-1.4-0.4-2-0.7
			c-3.7-0.8-7.3-1.5-11-2.3c-0.7-0.2-1.4-0.5-2-0.7c-2-0.5-4-0.9-6-1.4c-0.7-0.2-1.4-0.4-2.1-0.6C236,305.5,229,303.8,222.1,302.1z"
			/>
		<path class="st6" d="M444.3,349.7c4.6-0.8,9.1-1.7,13.7-2.5c3-0.7,6.2-1.1,9.1-2.2c26.9-10.8,53.7-21.8,80.5-32.8
			c1-0.4,1.7-1.4,2.5-2.1l0,0c0.7-0.3,1.3-0.7,2-1c0,0,0,0,0,0c2.3-0.6,4.7-1.2,7-1.9c11-4.7,22-9.3,33.1-14
			c2.5-0.8,4.9-1.7,7.4-2.5c1.4,0.1,2.8,0.1,4.1,0.2c0.1,3.8,0.1,7.5,0.2,11.3c0.8,0.5,1.7,0.9,2.5,1.4c0.5,0.1,1.1,0.2,1.6,0.3
			c0.3,0.4,0.7,0.7,1,1.1c0,1.8,0.1,3.6,0.1,5.4c-5.3,2.6-10.5,5.2-15.8,7.7c-1.1,0.6-2.3,1.1-3.4,1.7c-14.3,7.1-28.5,14.5-43,21.3
			c-11.2,5.3-22.6,9.9-34,14.9c-0.7,0.2-1.3,0.4-2,0.6c-1.3,0.5-2.6,1-4,1.5c-0.7,0.3-1.4,0.6-2,0.9c-14.3,5.3-28.7,10.6-43,15.9
			c-0.7,0.3-1.3,0.6-2,0.9c-4,1.1-8,2.2-12,3.2c-1.3,0-2.7,0-4,0c-1,0-2,0-2.9,0.1c-4.6-2.1-8.9-0.6-13.1,1.5c-17,0-34,0-51,0
			c-2.7-0.2-5.3-0.4-8-0.6c-1-0.1-2-0.2-3-0.3c-3.8-3.3-7.9-2-12-0.7c-1.7-0.1-3.3-0.3-5-0.4c-1.6-0.6-3.3-1.1-4.9-1.7
			c0-6.7,0-13.3-0.1-20c0.3-0.6,0.6-1.1,1-1.7c1.3,0.1,2.6,0.1,4,0.2c2,0.2,4,0.3,6,0.5c12.7,0.1,25.5,0.3,38.2,0.3
			c5.9,0,11.9-0.2,17.8-0.3c1.3-0.2,2.7-0.3,4-0.5c2.6-0.2,5.3-0.4,7.9-0.6c1-0.2,2-0.4,3.1-0.6c3.7-0.8,7.3-1.5,11-2.3
			c0.7-0.2,1.3-0.4,2-0.7C440.8,350.8,442.5,350.2,444.3,349.7z"/>
		<path class="st6" d="M401,38.3c3.3-1.4,6.7-2.8,10-4.2c0.7-0.3,1.3-0.6,2-0.9c4.8-2,9.7-3.9,14.5-5.9c1.8-0.8,3.7-1.5,5.5-2.3
			c1.5,0,3,0,4.6,0c0.5,2.2,0.9,4.4,1.4,6.6c1.1,0.4,2.3,0.7,3.3,1.4c1,0.7,1.8,1.7,2.7,2.5c-7.8,3.2-15.7,6.4-23.5,9.6
			c-1.2,0.5-2.3,1-3.5,1.5c-12.8,6.1-25.7,12-38.5,18.2c-5.2,2.5-10.1,5.7-15.3,8.3c-12.1,6.3-20.1,15.9-24.4,28.8
			c-0.3,0.7-0.6,1.3-0.9,2c-0.4,2-0.9,4-1.3,6c-0.2,1-0.4,2-0.6,3c0,6.3-0.1,12.6-0.1,19c-0.7,0.4-1.3,0.8-2,1.1
			c-0.6-0.1-1.3-0.2-2-0.4c-1.7-0.2-3.4-0.4-5.1-0.6c-2-0.1-4-0.3-5.9-0.4c-1.3-0.2-2.7-0.5-4-0.7c-0.7-1.3-1.4-2.7-2.1-4
			c-0.2-0.7-0.4-1.4-0.7-2.1c-0.1-0.6-0.3-1.3-0.4-1.9c2.1-3.8,1-7-1.5-10.1c0-4,0-8,0-12c0.6-3,1.1-6,1.7-9
			c1.4-6.6,4.3-12.6,9.9-16.1c10.8-6.7,22.1-12.6,33.1-18.8c0.7-0.3,1.3-0.7,2-1c12.5-5.5,24.9-10.9,37.4-16.4
			C398.6,39.3,399.8,38.8,401,38.3z"/>
		<path class="st7" d="M601.9,350.1c-0.6-2.5-1.2-5-1.9-8.4c-46.8,22.1-93.9,44.3-141,66.5c-1.3-0.1-2.6-0.2-4.5-0.3
			c1.1-1.2,1.7-1.9,2.3-2.6c11.8-5.2,23.6-10.2,35.3-15.6c34.1-15.9,68.2-32.1,102.3-48.1c1.8-0.8,3.7-1.3,5.6-1.9c0.7,0,1.3,0,2,0
			c0.3,0,0.7,0.1,1,0.1c1.3,0.1,2.7,0.3,4,0.4c-0.2,0.4-0.2,1.2-0.5,1.3C601.9,342.8,601.6,346.3,601.9,350.1z"/>
		<path class="st8" d="M610,219c0-0.3,0-0.6,0-0.9c-0.3-1-0.7-2.1-1-3.1c0-0.5,0-1.1,0-1.6c3.3-0.4,6.6-0.8,9.9-1.2
			c-0.1,1-0.1,2-0.2,2.9c0.2,2,0.4,4,0.6,6c0.1,3.4,1,7,0.1,10.2c-0.5,2.1-3.5,3.5-5.3,5.3c0.1-2.9-1.4-3.9-4.1-3.4
			c-0.4-1-0.7-2-1.1-3.1C609.3,226.3,609.7,222.6,610,219z"/>
		<path class="st9" d="M469,21.1c1.6,0.3,3.1,0.9,4.7,0.9c9.3,0.1,18.6-0.1,27.9,0c7.8,0.1,15.5,0.6,23.3,1.2
			c1.1,0.1,2.1,1.8,3.1,2.7c-0.7,0.7-1.3,1.3-2,2c-0.9-0.7-1.8-1.8-2.7-1.9c-15.1-0.9-30.2-1.8-45.4-2.3c-2.6-0.1-5.2,1.6-7.9,2.4
			c0.4-3.4-2.2-3.1-4.3-3.2C466.9,22.3,467.9,21.7,469,21.1z"/>
		<path class="st6" d="M465.8,22.9c2.1,0.2,4.6-0.2,4.3,3.2c-4.4,1.6-8.7,3.2-13.1,4.8c-1.4-0.5-2.9-1-4.3-1.5
			C457,27.2,461.4,25,465.8,22.9z"/>
		<path class="st2" d="M222,295.5c-0.1,0.2-0.1,0.4-0.2,0.5c-1.9,1.2-5.1,2-5.4,3.5c-0.8,3.3,0,6.9,0,10.3c0,3-0.2,6.1-0.2,9.1
			c-0.8-7.1-1.6-14.2-2.4-21.8C216.7,296.5,219.3,296,222,295.5z"/>
		<path class="st10" d="M437.6,25c-1.5,0-3,0-4.6,0c-0.2-0.5-0.4-1.1-0.6-1.6c1.3-0.5,2.6-1,4-1.5c-0.3-3.3-0.8-6-5.5-4.5
			c-1.4,0.4-3.3-0.7-4.9-1.1c3.7-0.2,7.5-0.4,11.5-0.7C437.6,19.2,437.6,22.1,437.6,25z"/>
		<path class="st6" d="M614.9,312c-1.3-0.8-2.5-1.6-3.8-2.5c0-1.5-0.1-3-0.1-4.4c0.2-0.3,0.2-0.5,0-0.8c2.3,0.1,4.6,0.3,7.5,0.5
			c-0.2,2.1-0.4,4.2-0.6,6.2C617,311.3,615.9,311.7,614.9,312z"/>
		<path class="st8" d="M607,340.2c-1.3-0.1-2.7-0.3-4-0.4c0.4-3.4,4.7-6.2,9.7-6.1c-1.2,2-2.4,4-3.5,5.9
			C608.4,339.9,607.7,340,607,340.2z"/>
		<path class="st11" d="M610.1,233.1c2.7-0.5,4.2,0.5,4.1,3.4c-1.4,0.8-2.8,1.6-4.2,2.4c-0.7-0.2-1.3-0.4-2-0.6c0,0.5-0.1,1-0.1,1.5
			c0,0,0,0.1,0,0.1c-1.1-0.6-2.3-1.3-3.4-1.9C606.4,236.3,608.2,234.7,610.1,233.1z M612.3,236.4c-0.1,0-0.2-0.1-0.4-0.1
			c0,0.2,0,0.3-0.1,0.5c0.1,0,0.3,0,0.4-0.1C612.3,236.6,612.3,236.5,612.3,236.4z"/>
		<path class="st2" d="M217.1,145c0,2.5,0.1,4.9-0.1,7.4c-0.2,2.4-0.7,4.8-1,7.1c-0.5-0.5-1.4-1.1-1.3-1.5
			C215.4,153.7,216.3,149.4,217.1,145z"/>
		<path class="st10" d="M445,35.6c-0.9-0.9-1.7-1.9-2.7-2.5c-1-0.6-2.2-0.9-3.3-1.4c3.3-0.1,6.7-0.3,10-0.4c-0.3,1.1-0.7,2.2-1,3.3
			C447,34.9,446,35.2,445,35.6z"/>
		<path class="st2" d="M219.2,131.1c-0.6,3.7-1.1,7.3-1.7,11C218,138.4,218.6,134.7,219.2,131.1z"/>
		<path class="st10" d="M411,17.8c-3.7,0.5-7.3,0.9-11,1.4C403.7,18.7,407.4,18.3,411,17.8z"/>
		<path class="st12" d="M614.1,149c-0.7,0-1.4,0-2,0c-0.4-2.3-0.8-4.7-1.2-7c0.8,0.7,1.6,1.3,2.3,2
			C613.5,145.7,613.8,147.3,614.1,149z"/>
		<path class="st10" d="M354,36.4c-3.4,2.6-6.7,2.6-10.1,0C347.3,36.3,350.7,36.4,354,36.4z"/>
		<path class="st2" d="M227.5,229c2.7,3.9,2.2,7.9-1.4,9.3C226.6,235.2,227,232.1,227.5,229z"/>
		<path class="st13" d="M616.9,325c-0.2-2.7-0.5-5.4-0.7-8c0.6,0,1.3,0,1.9,0.1C617.7,319.6,617.3,322.3,616.9,325z"/>
		<path class="st10" d="M423,16.5c-3,0.3-5.9,0.5-8.9,0.8C417.1,17.1,420.1,16.8,423,16.5z"/>
		<path class="st12" d="M613.1,142.1c-0.7-3.7-1.4-7.3-2.2-11C611.7,134.8,612.4,138.5,613.1,142.1z"/>
		<path class="st2" d="M548.3,447.7c0.9,0.7,1.7,1.4,2.6,2.1c-2,0-4,0-5.9,0c0.1-0.8,0.2-1.7,0.2-2.5
			C546.3,447.4,547.3,447.5,548.3,447.7z"/>
		<path class="st13" d="M616.8,335c0.1-2.7,0.2-5.3,0.3-8C617,329.7,616.9,332.3,616.8,335z"/>
		<path class="st10" d="M452.7,29.4c1.4,0.5,2.9,1,4.3,1.5c-2.3,0.9-4.5,1.9-6.8,2.8c-0.1-1-0.2-2-0.3-2.9
			C450.8,30.3,451.8,29.8,452.7,29.4z"/>
		<path class="st4" d="M618.2,317c-0.6,0-1.3,0-1.9-0.1c-0.4-1.6-0.9-3.2-1.3-4.9c1-0.3,2-0.7,3.1-1C618,313,618.1,315,618.2,317z"
			/>
		<path class="st2" d="M213.2,184.1c-0.2,2.3-0.3,4.6-0.5,6.9C212.9,188.7,213.1,186.4,213.2,184.1z"/>
		<path class="st2" d="M223.1,116c-0.5,2.3-1.1,4.7-1.6,7C222,120.7,222.6,118.4,223.1,116z"/>
		<path class="st2" d="M222,159.9c2.2-0.9,4.5-2.2,6,1C226,160.5,224,160.2,222,159.9z"/>
		<path class="st11" d="M619.4,221.1c-0.2-2-0.4-4-0.6-6C618.9,217.1,619.1,219.1,619.4,221.1z"/>
		<path class="st2" d="M212.7,266c0.1,2,0.3,4,0.4,6C213,270,212.9,268,212.7,266z"/>
		<path class="st2" d="M222,238.9c-1.7,0.4-3.3,0.8-5,1.2C218.7,239.7,220.4,239.3,222,238.9z"/>
		<path class="st2" d="M239.9,92.3c-2.1,0.2-4.1,0.4-6.2,0.6C235.8,92.7,237.8,92.5,239.9,92.3z"/>
		<path class="st2" d="M212.2,219.1c-0.1,1.7-0.2,3.3-0.3,5C212,222.4,212.1,220.7,212.2,219.1z"/>
		<path class="st2" d="M254.2,87.1c-0.3,1.7-0.6,3.3-0.9,5C253.6,90.4,253.9,88.7,254.2,87.1z"/>
		<path class="st2" d="M213.9,284c1.7,0.4,3.5,0.8,5.2,1.3C217.4,284.9,215.7,284.5,213.9,284z"/>
		<path class="st2" d="M326,35.5c-1.7,0.5-3.3,1.1-5,1.6C322.7,36.5,324.3,36,326,35.5z"/>
		<path class="st2" d="M219,225.9c1.3,0.3,2.6,0.6,4,1C221.7,226.5,220.4,226.2,219,225.9z"/>
		<path class="st2" d="M231.8,95.3c-0.9,1.6-1.8,3.1-2.7,4.7C230,98.4,230.9,96.9,231.8,95.3z"/>
		<path class="st10" d="M386,21c-1,0.4-2,0.7-3,1.1C384,21.7,385,21.4,386,21z"/>
		<path class="st2" d="M228.2,170.1c-0.3,1-0.6,2-1,2.9C227.5,172,227.9,171,228.2,170.1z"/>
		<path class="st13" d="M611,304.3c0.2,0.3,0.2,0.5,0,0.8c-0.7,0-1.4-0.1-2-0.1c-0.3-0.4-0.7-0.7-1-1.1C609,304,610,304.2,611,304.3
			z"/>
		<path class="st7" d="M606.1,351.4c-1.2-0.4-2.4-0.7-3.6-1.1C603.6,350.7,604.8,351.1,606.1,351.4z"/>
		<path class="st2" d="M223,174.3c-1,0.4-1.9,0.7-2.9,1.1C221.1,175,222,174.6,223,174.3z"/>
		<path class="st7" d="M614.1,352.5c-1.4-0.2-2.7-0.4-4.1-0.6C611.4,352.1,612.8,352.3,614.1,352.5z"/>
		<path class="st6" d="M449.9,30.8c0.1,1,0.2,2,0.3,2.9c-0.7,0.3-1.5,0.5-2.2,0.8c0.3-1.1,0.7-2.2,1-3.3
			C449.3,31.1,449.6,30.9,449.9,30.8z"/>
		<path class="st2" d="M226.2,294.1c0.1,0.4,0.3,0.8,0.4,1.3c-0.5-0.1-1.1-0.1-1.6-0.2C225.5,294.8,225.9,294.5,226.2,294.1z"/>
		<path class="st13" d="M606.4,303.6c-0.8-0.5-1.7-0.9-2.5-1.4C604.7,302.7,605.5,303.1,606.4,303.6z"/>
		<path class="st2" d="M216,175.9c-0.7,0.3-1.4,0.7-2.1,1C214.6,176.6,215.3,176.3,216,175.9z"/>
		<path class="st7" d="M613.7,359.1c0.2-0.7,0.3-1.3,0.5-2C614,357.7,613.8,358.4,613.7,359.1z"/>
		<path class="st2" d="M603.9,399c0.3-0.7,0.6-1.3,0.8-2C604.5,397.7,604.2,398.3,603.9,399z"/>
		<path class="st2" d="M284,52.5c-0.9,0.4-1.7,0.9-2.6,1.3C282.3,53.4,283.2,52.9,284,52.5z"/>
		<path class="st10" d="M343.1,32c-0.7-0.3-1.3-0.5-2-0.8C341.7,31.5,342.4,31.7,343.1,32z"/>
		<path class="st10" d="M394,19.5c-0.6,0.3-1.3,0.5-2,0.8C392.7,20,393.4,19.7,394,19.5z"/>
		<path class="st4" d="M607.9,239.8c0-0.5,0.1-1,0.1-1.5c0.7,0.2,1.3,0.4,2,0.6C609.3,239.2,608.6,239.5,607.9,239.8z"/>
		<path class="st7" d="M613.2,364c0.1-1,0.1-2,0.2-3C613.3,362,613.3,363,613.2,364z"/>
		<path class="st1" d="M618.5,196.8c-0.3-0.2-0.3-0.4-0.1-0.7C618.5,196.4,618.5,196.6,618.5,196.8z"/>
		<path class="st10" d="M343,34c0-0.4,0.1-0.8,0.1-1.1C343,33.2,343,33.6,343,34z"/>
		<path class="st2" d="M219.5,220.8c-1.2-0.8-3.4-1.6-3.3-2.3c0.6-12-2.1-24.2,1.7-36.1c0.6-1.9,1-3.4,3.1-1.4
			c-0.3,0.6-0.8,1.2-0.8,1.8C220,195.5,219.8,208.2,219.5,220.8z"/>
		<path class="st9" d="M217,271c0-7.8-0.1-15.6-0.1-23.4c0-2-0.3-4.7,3-2c0.1,9.2,0.2,18.4,0.2,27.6c0,1.6-0.1,3.3-0.2,4.9
			c-0.7-1-1.3-2-2-3C217.6,273.7,217.3,272.3,217,271z"/>
		<path class="st9" d="M264,74.9c0.5-1.2,0.6-2.9,1.4-3.5c6.5-4,13.1-7.7,19.7-11.5c0.2,0,0.4,0,0.6,0c1.4-1,2.8-1.9,4.2-2.9
			c0,0.3,0.1,0.6,0.1,0.9c-1.9,2.4-3.9,4.7-5.8,7c-1.8,0.2-3.9-0.1-5.4,0.8C273.7,68.6,268.9,71.8,264,74.9z"/>
		<path class="st12" d="M565,33.9c0.3-0.5,0.9-1.4,1-1.4c6.9,3,13.8,5.9,17.3,13.3c1,2.1,1.5,4.2-1.6,5c1.2-5.2-2.6-7.8-5.8-10.3
			C572.6,37.9,568.6,36.1,565,33.9z"/>
		<path class="st8" d="M411,412.4c-0.9,0.5-1.8,1.5-2.7,1.5c-8.2,0.1-16.4,0.1-24.6,0c-0.9,0-1.8-1-2.7-1.5
			C391,412.4,401,412.4,411,412.4z"/>
		<path class="st4" d="M589.9,218.6c3.1,1.2,1.5,2.7,0,3.8c-1.7,1.3-3.6,2.4-5.5,3.3c-1.7,0.8-3.6,1.2-5.9,1.9
			c-0.2-1-0.4-2.1-0.5-3.1C582,222.5,585.9,220.5,589.9,218.6z"/>
		<path class="st4" d="M558,232.2c-0.8,4-5.8,8.2-9.2,7.4c-0.8-0.2-1.3-2.1-1.9-3.2C550.6,235,554.3,233.6,558,232.2z"/>
		<path class="st4" d="M525.7,244.2c0.6,5.1-4.2,5-6.9,6.4c-1.2,0.6-3.7-1.1-5.6-1.7C517.4,247.4,521.5,245.8,525.7,244.2z"/>
		<path class="st14" d="M233.1,106.9c1-2.2,2-4.3,3-6.5c0.5-0.1,1.1-0.2,1.6-0.3c0,2.3,0.1,4.6,0.1,6.9c-1,0-2.1,0-3.1,0
			C234.3,107,233.7,107,233.1,106.9z"/>
		<path class="st4" d="M455,268.9c-1.3,2.1-2.1,4.6-3.8,6.2c-2,1.9-3.1,0.6-3.1-1.9C450.4,271.8,452.7,270.3,455,268.9z"/>
		<path class="st2" d="M279.1,121c0.2,0,0.4,0,0.5,0.1c1.5,5.4,5.4,7.4,10.5,8C281.2,130.9,281,130.8,279.1,121z"/>
		<path class="st9" d="M391.4,510c0.4,0.5,1.1,1.4,1,1.6c-1.7,2.6-7.9,1.7-9.5-1.3C385.7,510.2,388.6,510.1,391.4,510z"/>
		<path class="st4" d="M490.5,257.1c1.2,3.1-0.3,5-3.1,5.4c-1,0.2-2.3-1.8-3.4-2.8C486.2,258.8,488.3,257.9,490.5,257.1z"/>
		<path class="st2" d="M292.7,105c-2.5-3-2.5-9.9,0-13C292.7,96.3,292.7,100.7,292.7,105z"/>
		<path class="st2" d="M276.9,93c0,4.4,0,8.7,0,13.1C276.9,101.7,276.9,97.3,276.9,93z"/>
		<path class="st8" d="M443,399c0.9,3.2,1.8,6.5,2.8,10c-1.3-0.1-2.9-0.2-4.5-0.3C441.8,405.5,442.4,402.2,443,399z"/>
		<path class="st14" d="M226.9,126c0.1-1.2,0.1-2.5,0.2-3.7c0.7,0.3,1.4,0.6,2,0.8c-0.9,3.3-1.8,6.7-2.6,10
			c-0.5-0.1-0.9-0.2-1.4-0.2c0-1.6,0-3.1,0-4.7C225.7,127.5,226.3,126.8,226.9,126z"/>
		<path class="st4" d="M428,380.6c4.2-2.1,8.4-3.6,13.1-1.5C436.7,379.6,432.3,380.1,428,380.6z"/>
		<path class="st9" d="M406,25c3.3,0,6.7,0,10,0.1c0,0.4,0,0.7,0.1,1.1c-3.3,0.4-6.6,0.9-9.9,1.3C406.1,26.6,406,25.8,406,25z"/>
		<path class="st14" d="M432.5,23.4c0.2,0.5,0.4,1.1,0.6,1.6c-1.8,0.8-3.7,1.5-5.5,2.3c-0.2-0.6-0.3-1.2-0.5-1.8
			c0.1-0.7,0.1-1.3,0.2-2C429,23.5,430.7,23.4,432.5,23.4z"/>
		<path class="st14" d="M224.2,154.9c-0.4,0.1-0.8,0.1-1.2,0.2c-0.3-1-0.7-2-1-3c0.1-2.6,0.2-5.2,0.3-7.9c0.8-0.1,1.7-0.2,2.6-0.2
			C224.5,147.6,224.3,151.2,224.2,154.9z"/>
		<path class="st4" d="M354,379.1c4.1-1.3,8.2-2.6,12,0.7C362,379.5,358,379.3,354,379.1z"/>
		<path class="st4" d="M574,226.1c-1.1,1.6-2.2,3.2-3.4,4.7c-0.9-0.8-1.9-1.7-2.8-2.5C569.9,227.6,571.9,226.9,574,226.1z"/>
		<path class="st4" d="M609,213.4c0,0.5,0,1.1,0,1.6c0,0.7,0,1.3-0.1,2c-2.3-0.5-6.1,1.6-5.9-3.3c0,0,0.2-0.2,0.2-0.2
			c0.9-0.1,1.8-0.2,2.7-0.4C607,213.2,608,213.3,609,213.4z"/>
		<path class="st9" d="M395,26c2.7-1.8,4.5-0.7,6,1.7c-2,0.4-4.1,0.8-6.1,1.2C395,27.9,395,27,395,26z"/>
		<path class="st15" d="M313.3,113c2.5,3.1,3.7,6.3,1.5,10.1C314.3,119.7,313.8,116.4,313.3,113z"/>
		<path class="st8" d="M393,439.1c3,0.1,6,0.2,9,0.3C399,439.3,396,439.2,393,439.1z"/>
		<path class="st2" d="M276,161.9c-3.1,1.3-6.3,2.5-9-0.7C270,161.4,273,161.7,276,161.9z"/>
		<path class="st9" d="M427.3,23.5c-0.1,0.7-0.1,1.3-0.2,2c-2,0.2-4,0.3-6.1,0.5c0-1,0.1-1.9,0.1-2.9
			C423.2,23.2,425.2,23.4,427.3,23.5z"/>
		<path class="st8" d="M435,439.4c3-0.1,6-0.2,9-0.3C441,439.2,438,439.3,435,439.4z"/>
		<path class="st14" d="M223.3,140.9c0-1.6,0-3.2,0-4.7c1-0.1,2-0.2,2.9-0.4c-0.4,1.7-0.8,3.5-1.3,5.2
			C224.4,141,223.8,140.9,223.3,140.9z"/>
		<path class="st15" d="M315,92c-0.6,3-1.1,6-1.7,9C313.9,98,314.4,95,315,92z"/>
		<path class="st4" d="M369,380c2.7,0.2,5.3,0.4,8,0.6C374.3,380.4,371.7,380.2,369,380z"/>
		<path class="st9" d="M384,28c2.4,0,4.7,0,7.1,0c0,0.4,0,0.8,0,1.3c-2,0.4-4.1,0.9-6.1,1.3C384.6,29.7,384.3,28.8,384,28z"/>
		<path class="st10" d="M421.1,23.1c0,1-0.1,1.9-0.1,2.9c-1.6,0.1-3.3,0.1-4.9,0.2c0-0.4,0-0.7-0.1-1.1
			C417.7,24.4,419.4,23.7,421.1,23.1z"/>
		<path class="st2" d="M368.2,34.6c-0.2-6.1,3.1-3,5.6-2.2C371.9,33.2,370.1,33.9,368.2,34.6z"/>
		<path class="st2" d="M226.2,135.8c-1,0.1-2,0.2-2.9,0.4c-2.3-2.7,0.3-2.6,1.9-3.2c0.5,0.1,0.9,0.2,1.4,0.2
			C226.4,134.1,226.3,134.9,226.2,135.8z"/>
		<path class="st4" d="M480.1,261.1c0.4,0.9,0.9,1.8,1.2,2.8c0,0.1-1.5,0.9-1.5,0.8c-0.7-0.9-1.2-2-1.8-3
			C478.6,261.6,479.3,261.4,480.1,261.1z"/>
		<path class="st2" d="M282,236.9c-2.9,2-5.1,0.9-7.1-1.4C277.3,235.9,279.7,236.4,282,236.9z"/>
		<path class="st9" d="M377,30c1.3-0.3,2.6-0.6,3.9-0.9c0.4,0.6,0.7,1.1,1.1,1.7c-1.7,0.4-3.3,0.8-5,1.2C377,31.3,377,30.7,377,30z"
			/>
		<path class="st8" d="M368,411.9c-2-0.2-4-0.4-6-0.5C364,411.6,366,411.8,368,411.9z"/>
		<path class="st8" d="M427,411.3c-2,0.2-4,0.4-6,0.6C423,411.7,425,411.5,427,411.3z"/>
		<path class="st2" d="M223.3,140.9c0.6,0,1.1,0.1,1.7,0.1c-0.1,1-0.1,1.9-0.2,2.9c-0.9,0.1-1.7,0.2-2.6,0.2
			C222.5,143.1,222.9,142,223.3,140.9z"/>
		<path class="st4" d="M355,356c-2-0.2-4-0.3-6-0.5C351,355.7,353,355.9,355,356z"/>
		<path class="st2" d="M223.9,181.2c2,0.5,4.1,0.9,6.1,1.4C228,182.1,226,181.7,223.9,181.2z"/>
		<path class="st2" d="M241.1,284.8c-2.6,1.9-4.5,0.9-6.1-1.5C237,283.8,239,284.3,241.1,284.8z"/>
		<path class="st10" d="M391.1,29.2c0-0.4,0-0.8,0-1.3c1.3-0.6,2.7-1.3,4-1.9c0,0.9,0,1.9-0.1,2.8C393.7,29,392.4,29.1,391.1,29.2z"
			/>
		<path class="st2" d="M294.6,116c-0.5-2-1-4-1.5-6.1C293.6,112,294.1,114,294.6,116z"/>
		<path class="st2" d="M247.9,133.2c1.7-0.4,3.4-0.7,5.1-1.1C251.3,132.4,249.6,132.8,247.9,133.2z"/>
		<path class="st8" d="M378,438c1.7,0.2,3.3,0.4,5,0.5C381.3,438.4,379.7,438.2,378,438z"/>
		<path class="st4" d="M597.7,215.3c-0.6,1.2-1.1,2.3-1.7,3.5c-0.7-0.6-1.4-1.3-2.1-1.9C595.2,216.3,596.5,215.8,597.7,215.3z"/>
		<path class="st4" d="M503.7,252.3c-0.3,4.2-2.5,3-4.7,1.7C500.6,253.4,502.2,252.8,503.7,252.3z"/>
		<path class="st15" d="M328,132.1c1.7,0.2,3.4,0.4,5.1,0.6C331.3,132.6,329.6,132.3,328,132.1z"/>
		<path class="st2" d="M284.9,164c-1.6-0.6-3.3-1.2-4.9-1.8C281.6,162.8,283.3,163.4,284.9,164z"/>
		<path class="st2" d="M259.8,101c-0.2-1.7-0.5-3.4-0.7-5C259.3,97.6,259.5,99.3,259.8,101z"/>
		<path class="st2" d="M255,159.9c-2,1.4-3.8,2.2-5-0.9C251.7,159.3,253.4,159.6,255,159.9z"/>
		<path class="st4" d="M609,305c0.7,0,1.4,0.1,2,0.1c0,1.5,0.1,3,0.1,4.4c-0.7,0.3-1.3,0.5-2,0.8C609.1,308.6,609,306.8,609,305z"/>
		<path class="st14" d="M228.3,119.8c0-0.8-0.1-1.6-0.1-2.4c1-0.1,1.9-0.3,2.9-0.4c-0.4,1-0.8,2-1.3,2.9
			C229.3,119.9,228.8,119.9,228.3,119.8z"/>
		<path class="st4" d="M344.1,377c1.6,0.6,3.3,1.1,4.9,1.7C347.4,378.1,345.7,377.5,344.1,377z"/>
		<path class="st10" d="M382,30.8c-0.4-0.6-0.7-1.1-1.1-1.7c1-0.4,2-0.7,3-1.1c0.3,0.9,0.6,1.7,1,2.5C384,30.6,383,30.7,382,30.8z"
			/>
		<path class="st4" d="M511.9,249.2c-0.8,1.2-1.6,2.4-2.4,3.6c-0.5-0.7-1-1.4-1.5-2C509.3,250.3,510.6,249.7,511.9,249.2z"/>
		<path class="st2" d="M234,226c-1.7-0.5-3.3-1.1-5-1.6C230.7,224.9,232.3,225.4,234,226z"/>
		<path class="st15" d="M318,131c1.3,0.2,2.7,0.5,4,0.7C320.7,131.5,319.3,131.3,318,131z"/>
		<path class="st4" d="M541.7,238.3c-0.4,1.1-0.8,2.2-1.2,3.2c-0.5-0.8-1-1.5-1.5-2.3C539.9,238.9,540.8,238.6,541.7,238.3z"/>
		<path class="st4" d="M415,355.5c-1.3,0.2-2.7,0.3-4,0.5C412.3,355.9,413.7,355.7,415,355.5z"/>
		<path class="st4" d="M444,379c1.3,0,2.7,0,4,0C446.7,379.1,445.3,379,444,379z"/>
		<path class="st8" d="M348,410.1c-1.3,0.3-2.6,0.6-3.9,1C345.4,410.7,346.7,410.4,348,410.1z"/>
		<path class="st8" d="M359,411.1c-1.3-0.2-2.7-0.4-4-0.5C356.3,410.7,357.6,410.9,359,411.1z"/>
		<path class="st8" d="M347,434.9c1.3,0.2,2.7,0.4,4,0.7C349.7,435.4,348.4,435.1,347,434.9z"/>
		<path class="st12" d="M558.9,33.5c1.4,0,2.8,0,4.3,0C561.7,33.5,560.3,33.5,558.9,33.5z"/>
		<path class="st14" d="M231.2,110.6c0-0.4,0-0.7,0-1.1c1-0.1,2-0.3,2.9-0.4c-0.5,1.1-0.9,2.2-1.4,3.3
			C232.2,111.8,231.7,111.2,231.2,110.6z"/>
		<path class="st2" d="M234.1,109.1c-1,0.1-2,0.2-2.9,0.4c0.7-0.8,1.3-1.7,2-2.5c0.6,0,1.1,0,1.7,0
			C234.6,107.7,234.4,108.4,234.1,109.1z"/>
		<path class="st2" d="M260.7,107c-0.2-1.4-0.4-2.7-0.6-4.1C260.3,104.3,260.5,105.7,260.7,107z"/>
		<path class="st2" d="M228.3,119.8c0.5,0.1,1,0.1,1.5,0.2c-0.2,1.1-0.4,2.1-0.7,3.2c-0.7-0.3-1.4-0.6-2-0.8
			C227.5,121.5,227.9,120.7,228.3,119.8z"/>
		<path class="st14" d="M237.9,111c0,1,0.1,2,0.1,3C238,113,238,112,237.9,111z"/>
		<path class="st8" d="M439,409.2c-1,0.3-2,0.5-3,0.8C437,409.8,438,409.5,439,409.2z"/>
		<path class="st4" d="M426,354.3c-1,0.2-2,0.4-3.1,0.6C424,354.7,425,354.5,426,354.3z"/>
		<path class="st2" d="M271,235c-1-0.3-2-0.6-3-0.8C269,234.5,270,234.7,271,235z"/>
		<path class="st2" d="M234,183c1,0.3,2,0.5,3,0.8C236,183.5,235,183.3,234,183z"/>
		<path class="st15" d="M337.1,113c0.2-1,0.4-2,0.6-3C337.5,111,337.3,112,337.1,113z"/>
		<path class="st2" d="M268,189.1c1,0.2,2,0.5,3,0.7C270,189.6,269,189.4,268,189.1z"/>
		<path class="st2" d="M265,160.9c-1-0.2-2-0.3-3-0.5C263,160.6,264,160.8,265,160.9z"/>
		<path class="st2" d="M231.1,117.1c-1,0.1-1.9,0.3-2.9,0.4c0.6-0.8,1.3-1.7,1.9-2.5c0.5,0,0.9,0,1.4,0
			C231.4,115.7,231.2,116.4,231.1,117.1z"/>
		<path class="st2" d="M250.9,186.2c1,0.3,2,0.5,3.1,0.8C253,186.7,252,186.4,250.9,186.2z"/>
		<path class="st2" d="M278.1,291.8c-1-0.2-2-0.4-3.1-0.6C276,291.4,277,291.6,278.1,291.8z"/>
		<path class="st9" d="M370.6,494.1c-0.3-1-0.5-2-0.8-3.1C370.1,492,370.4,493.1,370.6,494.1z"/>
		<path class="st2" d="M293.1,88c0.2-1,0.5-2,0.7-3C293.6,86,293.3,87,293.1,88z"/>
		<path class="st2" d="M239,184.1c1,0.1,2,0.3,3.1,0.4C241,184.4,240,184.3,239,184.1z"/>
		<path class="st10" d="M418,46.7c1.2-0.5,2.3-1,3.5-1.5C420.3,45.7,419.1,46.2,418,46.7z"/>
		<path class="st4" d="M589.9,319.8c1.1-0.6,2.3-1.1,3.4-1.7C592.2,318.7,591.1,319.3,589.9,319.8z"/>
		<path class="st14" d="M231.5,115c-0.5,0-0.9,0-1.4,0c0.3-0.9,0.6-1.8,0.8-2.8c0.4,0.4,0.9,0.8,1.3,1.3
			C232,114,231.8,114.5,231.5,115z"/>
		<path class="st10" d="M401,38.3c-1.2,0.5-2.4,1-3.6,1.5C398.6,39.3,399.8,38.8,401,38.3z"/>
		<path class="st2" d="M279,191.1c0.7,0.2,1.4,0.3,2,0.5C280.3,191.4,279.7,191.2,279,191.1z"/>
		<path class="st2" d="M261,188.1c0.7,0.2,1.4,0.3,2,0.5C262.3,188.4,261.7,188.2,261,188.1z"/>
		<path class="st2" d="M256.1,231.9c-0.7-0.2-1.4-0.5-2.1-0.7C254.7,231.4,255.4,231.6,256.1,231.9z"/>
		<path class="st2" d="M244,184.9c0.7,0.2,1.3,0.4,2,0.6C245.3,185.3,244.7,185.1,244,184.9z"/>
		<path class="st2" d="M242.9,307.2c0.7,0.2,1.4,0.4,2.1,0.6C244.3,307.6,243.6,307.4,242.9,307.2z"/>
		<path class="st2" d="M241,157.9c-0.7-0.2-1.4-0.3-2-0.5C239.7,157.6,240.3,157.8,241,157.9z"/>
		<path class="st2" d="M251,309.1c0.7,0.2,1.4,0.5,2,0.7C252.3,309.6,251.6,309.4,251,309.1z"/>
		<path class="st8" d="M465,385.2c-0.7,0.2-1.4,0.5-2,0.7C463.6,385.7,464.3,385.4,465,385.2z"/>
		<path class="st14" d="M232,156.2c-0.7-0.1-1.5-0.3-2.2-0.4C230.5,155.9,231.2,156,232,156.2z"/>
		<path class="st9" d="M367.5,478.1c-0.2-0.7-0.4-1.4-0.6-2.1C367.1,476.7,367.3,477.4,367.5,478.1z"/>
		<path class="st15" d="M335,133.1c0.7-0.4,1.3-0.8,2-1.1C336.3,132.4,335.6,132.8,335,133.1z"/>
		<path class="st2" d="M278.9,315.1c0.7,0.2,1.4,0.4,2.1,0.6C280.3,315.5,279.6,315.3,278.9,315.1z"/>
		<path class="st2" d="M283,316.1c0.7-0.4,1.4-0.7,2-1.1C284.3,315.4,283.6,315.7,283,316.1z"/>
		<path class="st2" d="M263,129.8c0.7-0.2,1.4-0.4,2.1-0.6C264.4,129.4,263.7,129.6,263,129.8z"/>
		<path class="st2" d="M260,288.9c-0.7-0.2-1.4-0.3-2-0.5C258.7,288.6,259.4,288.7,260,288.9z"/>
		<path class="st2" d="M267,290c-0.7-0.2-1.3-0.4-2-0.5C265.7,289.6,266.3,289.8,267,290z"/>
		<path class="st8" d="M593,328.1c-0.7,0.3-1.3,0.6-2,0.9C591.7,328.7,592.3,328.4,593,328.1z"/>
		<path class="st15" d="M315.2,125c0.2,0.7,0.4,1.4,0.7,2.1C315.6,126.4,315.4,125.7,315.2,125z"/>
		<path class="st9" d="M372.5,503.1c-0.2-0.7-0.4-1.4-0.6-2.1C372.1,501.7,372.3,502.4,372.5,503.1z"/>
		<path class="st2" d="M265.1,122c-0.3-0.7-0.6-1.4-0.9-2.1C264.5,120.6,264.8,121.3,265.1,122z"/>
		<path class="st4" d="M439,351.3c-0.7,0.2-1.3,0.4-2,0.7C437.7,351.8,438.3,351.5,439,351.3z"/>
		<path class="st2" d="M296,121c-0.3-0.7-0.5-1.4-0.8-2.1C295.5,119.6,295.7,120.3,296,121z"/>
		<path class="st14" d="M238.7,118.8c0.2,0.9,0.5,1.8,0.7,2.7C239.2,120.5,239,119.6,238.7,118.8z"/>
		<path class="st9" d="M378.1,510.2c-0.4,0.5-0.7,0.9-1.1,1.4c-0.3-0.5-0.7-0.9-1-1.4C376.7,510.2,377.4,510.2,378.1,510.2z"/>
		<path class="st2" d="M234,249.1c0.7,0.3,1.4,0.6,2,0.8C235.3,249.6,234.6,249.4,234,249.1z"/>
		<path class="st11" d="M606,213.1c-0.9,0.1-1.8,0.2-2.7,0.4C604.1,213.4,605.1,213.2,606,213.1z"/>
		<path class="st4" d="M511,356.6c0.7-0.2,1.3-0.4,2-0.6C512.3,356.2,511.7,356.4,511,356.6z"/>
		<path class="st4" d="M505,359c0.7-0.3,1.4-0.6,2-0.9C506.4,358.4,505.7,358.7,505,359z"/>
		<path class="st4" d="M440.9,290.6c-0.3,0.6-0.6,1.3-0.9,1.9c-0.3-0.5-0.6-1-0.9-1.6C439.6,290.8,440.2,290.7,440.9,290.6z"/>
		<path class="st8" d="M506,369.2c-0.6,0.3-1.3,0.6-1.9,1C504.7,369.9,505.4,369.5,506,369.2z"/>
		<path class="st2" d="M600,372.3c-1,0.4-1.9,0.8-2.9,1.1C598.1,373.1,599,372.7,600,372.3z"/>
		<path class="st4" d="M460,375.8c0.7-0.3,1.3-0.6,2-0.9C461.3,375.2,460.6,375.5,460,375.8z"/>
		<path class="st2" d="M277.4,113c0.2,0.7,0.4,1.4,0.5,2C277.8,114.3,277.6,113.7,277.4,113z"/>
		<path class="st8" d="M486,377.2c-0.7,0.3-1.3,0.6-2,0.9C484.7,377.8,485.4,377.5,486,377.2z"/>
		<path class="st2" d="M258.9,256.2c0.7,0.1,1.4,0.3,2.1,0.4C260.3,256.5,259.6,256.3,258.9,256.2z"/>
		<path class="st2" d="M267,258.1c0.7,0.2,1.4,0.4,2,0.6C268.3,258.5,267.6,258.3,267,258.1z"/>
		<path class="st2" d="M261.9,111c-0.2-0.7-0.5-1.4-0.7-2.1C261.4,109.6,261.6,110.3,261.9,111z"/>
		<path class="st2" d="M264,312.1c0.7,0.2,1.4,0.4,2,0.7C265.3,312.5,264.6,312.3,264,312.1z"/>
		<path class="st8" d="M456,388.2c-0.7,0.2-1.3,0.5-2,0.7C454.7,388.7,455.3,388.5,456,388.2z"/>
		<path class="st2" d="M275,260.1c0.7,0.2,1.4,0.5,2,0.7C276.3,260.5,275.7,260.3,275,260.1z"/>
		<path class="st15" d="M338.9,104c0.3-0.7,0.6-1.3,0.9-2C339.5,102.7,339.2,103.3,338.9,104z"/>
		<path class="st2" d="M277.9,84c-0.2,0.7-0.3,1.4-0.5,2.1C277.6,85.3,277.7,84.6,277.9,84z"/>
		<path class="st2" d="M279.9,75.9c-0.3,0.7-0.5,1.4-0.8,2.1C279.4,77.3,279.6,76.6,279.9,75.9z"/>
		<path class="st2" d="M281.7,71.2c-0.4,0.9-0.8,1.9-1.3,2.8C280.8,73.1,281.2,72.1,281.7,71.2z"/>
		<path class="st8" d="M431,410.6c-0.7,0.1-1.4,0.3-2,0.4C429.7,410.9,430.3,410.7,431,410.6z"/>
		<path class="st10" d="M360,56.1c-0.7,0.3-1.3,0.7-2,1C358.7,56.8,359.4,56.5,360,56.1z"/>
		<path class="st10" d="M413,33.2c-0.7,0.3-1.3,0.6-2,0.9C411.7,33.8,412.4,33.5,413,33.2z"/>
		<path class="st2" d="M245,285.9c-0.7-0.2-1.4-0.4-2.1-0.6C243.7,285.5,244.4,285.7,245,285.9z"/>
		<path class="st10" d="M377,30c0,0.7,0,1.4,0,2c-0.7,0-1.3,0.1-2,0.1C375.7,31.4,376.3,30.7,377,30z"/>
		<path class="st8" d="M365,437c0.7,0.1,1.3,0.2,2,0.2C366.3,437.2,365.7,437.1,365,437z"/>
		<path class="st10" d="M406,25c0.1,0.8,0.1,1.6,0.2,2.5c-0.7,0-1.4,0-2,0.1C404.7,26.7,405.4,25.8,406,25z"/>
		<path class="st4" d="M345,355.3c-0.3,0.6-0.6,1.1-1,1.7C344.4,356.4,344.7,355.9,345,355.3z"/>
		<path class="st2" d="M232.2,113.4c-0.4-0.4-0.9-0.8-1.3-1.3c0.1-0.5,0.1-1.1,0.2-1.6c0.5,0.6,1,1.2,1.5,1.8
			C232.6,112.7,232.4,113.1,232.2,113.4z"/>
		<path class="st16" d="M600.8,655.3c-4.4,1.1-8.7,2.8-13.1,3.4c-19.6,2.7-39.3,5.3-58.9,7.7c-51,6.3-102.1,5.7-153.2,2.6
			c-33.3-2-66.4-5.2-98.9-13.1c-15.2-3.7-30.1-8.4-43.9-16c-3.9-2.1-8.7-4.2-8.9-9.3c-0.2-5.4,4.6-7.7,8.7-10
			c12.6-7.1,26.6-10.4,40.6-13.3c21.9-4.6,44-7.6,66.4-7.1c5.1,0.1,10.3,0.8,15.3,2c5.8,1.4,6.3,4.6,2,8.8c-5,4.9-5.2,7.8,1.3,10.8
			c10.7,4.9,21.6,9.6,33,12.4c47.1,11.6,95.4,14.4,143.7,16.1c18.1,0.6,36.3,0.9,54.4,1.5c3.7,0.1,7.4,0.9,11.1,1.4
			C600.6,653.8,600.7,654.6,600.8,655.3z"/>
		<path class="st17" d="M395.8,607.2c-0.9-23.9-1.7-47.1-2.6-71.4c7.3,3.4,13.8,6.9,20.6,9.7c4.8,2,6.4,4.8,6.5,10
			c0.3,14.5,1.5,28.9,2.3,43.4c0.2,3,0.3,5.9,0.6,9.6C414,608.1,405.3,607.6,395.8,607.2z"/>
		<path class="st18" d="M480.9,489.6c-1.2,0.2-1.6,0.4-1.9,0.3c-13.5-2.3-12.9-2.2-12.5-16.2c0.2-7.2,4-9.8,10-12.4
			C478,470.9,479.4,480.1,480.9,489.6z"/>
		<path class="st19" d="M501.7,461c0.1-3,0.6-6,0.3-8.9c-0.5-4.4,1.1-6.9,5.3-8c1.6-0.4,3.1-1.2,5.6-2.2c1.5,8.5,3,16.7,4.4,24.6
			c-5,0-9.6,0-14.2-0.1c-0.4,0-0.9-0.9-1.3-1.4C501.7,463.7,501.7,462.3,501.7,461z"/>
		<path class="st19" d="M548.3,447.7c-1-0.1-2.1-0.3-3.1-0.4c-1.3-0.3-2.7-0.4-3.8-1c-2.4-1.4-6.8,1.3-7.4-3.8
			c-0.8-7.1-0.5-7.6,6.3-10.8c0.9-0.4,1.7-0.8,3.5-1.6C545.4,436.1,546.9,441.9,548.3,447.7z"/>
		<path class="st20" d="M573.8,412.1c1.1,5.6,2,10,2.9,14.3c-0.3,0.3-0.6,0.6-1,0.9c-3.4-2.4-9.7,0-10.5-6.4
			C564.5,415.3,570.6,415.8,573.8,412.1z"/>
		<path class="st2" d="M501.7,461c0,1.3,0,2.7,0,4C499.1,463.7,499.1,462.3,501.7,461z"/>
		<path class="st2" d="M526.7,452.4c0.3,0.1,0.5,0.2,0.8,0.3c-0.1,0.3-0.2,0.7-0.4,0.8c-0.2,0.1-0.5-0.2-0.8-0.3
			C526.5,453,526.6,452.7,526.7,452.4z"/>
		<path class="st2" d="M555.7,431.4c0.3,0.1,0.7,0.2,0.8,0.4c0.1,0.2-0.2,0.5-0.3,0.8c-0.3-0.1-0.7-0.2-0.8-0.4
			C555.4,432,555.6,431.7,555.7,431.4z"/>
		<path class="st21" d="M462.4,135.2c-0.6-6.1-0.5-11.1-1.8-15.9c-1.2-4.7-3.8-9.1-5.9-14.1c5.7-2.1,11.7-4.4,17.7-6.3
			c0.9-0.3,2.8,0.7,3.5,1.7c5.3,7.2,8.7,15.3,9.4,24.3c0.1,1.3-0.9,3.5-1.9,3.8C476.7,131.1,469.7,133.1,462.4,135.2z"/>
		<path class="st22" d="M499.9,125.3c1.1-12.2,0.1-22.8-7.4-32.2c6.2-1.8,11.9-3.6,17.6-5c0.9-0.2,2.5,0.7,3.2,1.5
			c5.6,7.2,8.6,15.2,7.6,24.5c-0.4,3.4-1.7,5.9-5.3,6.9C510.6,122.2,505.7,123.7,499.9,125.3z"/>
		<path class="st21" d="M527.1,84.3c6.4-2.5,12.1-4.8,18-6.8c0.9-0.3,2.6,0.5,3.3,1.3c6.5,8,7.3,17.6,7.1,27.3
			c0,0.9-1.6,2.1-2.6,2.5c-5.5,1.8-11.1,3.3-17.3,5.2C538.2,102.2,533.1,93.3,527.1,84.3z"/>
		<path class="st23" d="M568.4,102.8c-3-10.8-5.8-20.9-8.6-31.2c4.2-1,9.1-2.1,14.4-3.3c4.4,6.9,6.7,14.5,6.6,22.8
			C580.8,99.9,576.9,103.2,568.4,102.8z"/>
		<path class="st24" d="M448.9,152.8c32-8.9,63.9-17.9,95.9-26.9c14.7-4.1,29.4-8.4,44.1-12.6c0.9-0.3,1.9-0.2,2.9-0.2
			c0.1,0.3,0.3,0.7,0.4,1c-6.8,2.3-13.6,4.9-20.5,6.9c-31.4,9.2-62.9,18.3-94.4,27.2c-8.8,2.5-17.7,4.3-26.6,6.4
			C450,154,449.4,153.4,448.9,152.8z"/>
		<path class="st25" d="M448.9,152.8c0.6,0.6,1.1,1.2,1.7,1.8c-2.7,0.4-5.3,0.8-8,1.2c-0.1-0.6-0.2-1.2-0.2-1.8
			C444.5,153.6,446.7,153.2,448.9,152.8z"/>
		<path class="st9" d="M532.4,25.9c-0.2-0.2-0.3-0.4-0.5-0.5c0.3-0.1,0.6-0.1,0.9-0.1c0.1,0,0.2,0.2,0.3,0.3
			C532.9,25.6,532.6,25.7,532.4,25.9z"/>
		<path class="st9" d="M529.8,26.9c0,0.1-0.1,0.3-0.1,0.4c-0.1-0.1-0.3-0.3-0.4-0.4c0.1-0.1,0.2-0.2,0.3-0.3
			C529.6,26.7,529.7,26.8,529.8,26.9z"/>
		<path class="st24" d="M591.7,113.1c0.4,0.1,0.8,0.1,1.2,0.2c-0.3,0.3-0.5,0.5-0.8,0.8C592,113.8,591.8,113.5,591.7,113.1z"/>
		<path class="st26" d="M599.1,238.7c0.6,2.3,0.7,2.4-2.2,3.5c-8.1,2.9-16.3,5.7-24.5,8.6c-18.2,6.3-36.4,12.5-54.5,18.8
			c-1.6,0.5-3.2,1.1-4.8,1.6c-1.1,0.4-2.1,0.7-3.2,1.1c-1.3,0.5-2.6,0.9-3.9,1.4c-2.3,0.7-4.7,1.3-7,2c-1,0.4-1.9,0.8-2.9,1.2
			c-2,0.6-4.1,1.2-6.1,1.8c-1.6,0.5-3.2,1-4.9,1.6c-1.1,0.4-2.2,0.8-3.2,1.2c-4.3,1.4-8.6,2.7-12.9,4.1c-1.3,0.4-2.7,0.8-4,1.1
			c-3.3,0.6-6.6,1.3-10,1.9c-2.6-4.5,2.9-1.9,3.3-3.8c3.6-1.1,7.3-2.2,10.9-3.4c8.3-2.6,16.7-5.3,25-7.9c3.3-1.1,6.6-2.2,9.9-3.2
			c2-0.6,4.1-1.1,6.1-1.7c1-0.4,1.9-0.8,2.9-1.2c2.3-0.7,4.7-1.4,7-2.1c9.7-3.3,19.4-6.7,29.1-10c1.7-0.5,3.4-1.1,5.1-1.6
			c0.6-0.2,1.2-0.3,1.8-0.5c5.4-1.9,10.8-3.8,16.1-5.6c2.9-1,5.9-2.1,8.8-3.1c1.4-0.4,2.7-0.9,4.1-1.3c1.7-0.6,3.4-1.1,5.1-1.7
			c2.1-0.7,4.2-1.3,6.3-2C597.3,239,598.2,238.9,599.1,238.7z"/>
		<path class="st26" d="M550,310c-0.8,0.7-1.5,1.7-2.5,2.1c-26.8,11-53.6,22-80.5,32.8c-2.9,1.2-6,1.5-9.1,2.2
			c0.4-1.1,0.6-2.9,1.3-3.2c29.2-11.5,58.4-22.9,87.6-34.2C547.7,309.4,549,309.9,550,310z"/>
		<path class="st4" d="M549.1,255.2c-9.7,3.3-19.4,6.7-29.1,10c1-1.4,1.7-3.5,3.1-4c6.3-2.6,12.9-4.4,19.1-7.1
			C545.1,252.8,547.1,252.9,549.1,255.2z"/>
		<path class="st7" d="M592.1,293.2c-11,4.7-22,9.3-33.1,14c-0.6-0.5-1.2-1.1-1.7-1.6c11.5-4.8,23-9.6,34.5-14.5
			C591.9,291.8,592,292.5,592.1,293.2z"/>
		<path class="st4" d="M610.1,233.1c-1.8,1.6-3.7,3.2-5.5,4.9c-1.8-2.7-1.9-15.8,0.2-17.7c0.5-0.4,2.2,0.5,3.3,0.9
			c-0.4,3.1-2.1,6.3,1,8.9C609.3,231,609.7,232.1,610.1,233.1z"/>
		<path class="st25" d="M592.1,293.2c-0.1-0.7-0.2-1.4-0.3-2.1c7.3-3.2,14.7-6.4,22-9.6c0.3,0.6,0.6,1.2,0.9,1.9
			c-5,2.4-10.1,4.9-15.1,7.3C597,291.6,594.6,292.4,592.1,293.2z"/>
		<path class="st4" d="M468.8,285.4c4.3-1.4,8.6-2.7,12.9-4.1c1,5.9-4.2,5-7.1,6.2C472.6,288.3,469.6,289.3,468.8,285.4z"/>
		<path class="st4" d="M504,270.2c-3.3,1.1-6.6,2.2-9.9,3.2c-0.1-4.3,3.1-5.5,6.4-6.1C501.5,267.1,502.8,269.1,504,270.2z"/>
		<path class="st4" d="M469.1,281.3c-3.6,1.1-7.3,2.2-10.9,3.4c1.5-1.8,2.8-4.5,4.7-5.2C464.6,278.9,467,280.6,469.1,281.3z"/>
		<path class="st4" d="M580.9,244.3c-2.9,1-5.9,2.1-8.8,3.1c1.5-1.8,2.8-3.9,4.6-5.1C577.4,241.8,579.5,243.5,580.9,244.3z"/>
		<path class="st4" d="M454.9,288.4c3.3-0.6,6.6-1.3,10-1.9c-0.9,1.5-1.9,4.2-2.7,4.2C459.7,290.5,456,293.2,454.9,288.4z"/>
		<path class="st11" d="M609,230c-3.1-2.7-1.4-5.9-1-8.9c0.7-0.7,1.3-1.4,2-2.1C609.7,222.6,609.3,226.3,609,230z"/>
		<path class="st4" d="M590.1,241.2c-1.7,0.6-3.4,1.1-5.1,1.7c1-1.5,2-3.1,2.9-4.6C588.6,239.3,589.3,240.3,590.1,241.2z"/>
		<path class="st4" d="M513,271.1c1.6-0.5,3.2-1.1,4.8-1.6c-0.8,1.5-1.6,2.9-2.5,4.4C514.6,273,513.8,272.1,513,271.1z"/>
		<path class="st4" d="M485,280.1c1.6-0.5,3.2-1,4.9-1.6c-0.8,1.4-1.7,2.9-2.5,4.3C486.6,282,485.8,281.1,485,280.1z"/>
		<path class="st4" d="M599.1,238.7c-0.9,0.2-1.8,0.4-2.7,0.5c0-1.3,0-2.6,0-4c0.7,0,1.3,0,2,0C598.6,236.4,598.8,237.5,599.1,238.7
			z"/>
		<path class="st26" d="M557.3,305.6c0.6,0.5,1.2,1.1,1.7,1.6c-2.3,0.6-4.7,1.2-7,1.9C553.8,307.9,555.6,306.8,557.3,305.6z"/>
		<path class="st4" d="M505.9,273.7c1.3-0.5,2.6-0.9,3.9-1.4c-0.6,1.2-1.2,2.3-1.8,3.5C507.3,275.1,506.6,274.4,505.9,273.7z"/>
		<path class="st4" d="M513,267.2c-1,0.4-1.9,0.8-2.9,1.2c0.4-1.1,0.8-2.2,1.2-3.2C511.9,265.9,512.5,266.6,513,267.2z"/>
		<path class="st4" d="M496,276.8c1-0.4,1.9-0.8,2.9-1.2c-0.4,1-0.9,2.1-1.3,3.1C497.1,278.1,496.5,277.5,496,276.8z"/>
		<path class="st4" d="M556,253c-0.6,0.2-1.2,0.3-1.8,0.5c0.3-0.7,0.6-1.4,0.9-2C555.3,252,555.7,252.5,556,253z"/>
		<path class="st11" d="M608.9,217c0-0.7,0-1.3,0.1-2c0.3,1,0.7,2.1,1,3.1C609.7,217.7,609.3,217.4,608.9,217z"/>
		<path class="st26" d="M552,309c-0.7,0.3-1.3,0.7-2,1c0.1-0.5,0.1-1,0.2-1.5C550.8,308.7,551.4,308.9,552,309z"/>
		<path class="st26" d="M600.9,238.4c-0.1,0.2-0.2,0.4-0.3,0.6c-0.1-0.1-0.3-0.2-0.3-0.3c0.1-0.2,0.2-0.4,0.3-0.7
			C600.6,238.1,600.7,238.2,600.9,238.4z"/>
		<polygon class="st11" points="602.2,239.3 602.5,239.3 602.4,239.5 		"/>
		<path class="st26" d="M548,197.8c-36.2,15.9-92.6,32.7-102.5,29.5c35.1-8.6,68-19.8,100.8-31.3C547,196.6,547.5,197.2,548,197.8z"
			/>
		<path class="st7" d="M552,193.9c12.3-4.7,24.7-9.3,37-14c0.3,0.7,0.6,1.4,0.8,2.2c-12.6,4.7-25.2,9.4-37.8,14.1
			C552.1,195.5,552,194.7,552,193.9z"/>
		<path class="st25" d="M591.3,179.5c2.7-1,5.4-2,8.2-3c0.2,0.6,0.4,1.1,0.6,1.7c-2.4,1-4.7,1.9-7.1,2.9
			C592.5,180.5,591.9,180,591.3,179.5z"/>
		<path class="st26" d="M552,193.9c0,0.8,0.1,1.6,0.1,2.3c-1.3,0.5-2.7,1-4,1.5c-0.5-0.6-1.1-1.2-1.6-1.8
			C548.3,195.3,550.1,194.6,552,193.9z"/>
		<path class="st7" d="M591.3,179.5c0.6,0.5,1.1,1.1,1.7,1.6c-1.1,0-2.3,0.1-3.4,0.1C590.2,180.6,590.8,180,591.3,179.5z"/>
		<path class="st8" d="M456.8,405.3c-0.6,0.7-1.2,1.4-2.3,2.6c1.9,0.1,3.2,0.2,4.5,0.3c-2.2,2.5-8.6,3.3-10.3,1.1
			c-0.4-0.5,0.5-2.9,1.2-3.1C452.1,405.6,454.5,405.6,456.8,405.3z"/>
		<path class="st8" d="M602,339.7c-0.7,0-1.3,0-2,0c0.3-0.5,0.7-0.9,1-1.4C601.3,338.8,601.7,339.2,602,339.7z"/>
		<path class="st2" d="M221.9,152c0.3,1,0.7,2,1,3c-0.9-0.4-1.8-0.9-2.7-1.3C220.8,153.2,221.4,152.6,221.9,152z"/>
		<path class="st2" d="M290.1,58c-0.1-0.3-0.1-0.6-0.1-0.9c0.7-0.6,1.4-1.1,2.2-1.7c0.2,0.4,0.5,0.8,0.7,1.1
			C291.9,57.1,291,57.5,290.1,58z"/>
		<path class="st2" d="M217,271c0.3,1.3,0.6,2.7,0.9,4C217.6,273.7,217.3,272.3,217,271z"/>
		<path class="st2" d="M237.8,100.1c-0.5,0.1-1.1,0.2-1.6,0.3c0.5-0.7,1-1.5,1.6-2.2C237.7,98.8,237.8,99.5,237.8,100.1z"/>
		<path class="st2" d="M226.9,126c-0.6,0.8-1.2,1.5-1.8,2.3C225.7,127.5,226.3,126.8,226.9,126z"/>
		<path class="st2" d="M285.7,60c-0.2,0-0.4,0-0.6,0C285.3,60,285.5,60,285.7,60z"/>
		<path class="st8" d="M612.3,236.4c0,0.1,0,0.3,0,0.3c-0.1,0.1-0.2,0.1-0.4,0.1c0-0.2,0-0.3,0.1-0.5
			C612,236.3,612.2,236.3,612.3,236.4z"/>
	</g>
</g>
</svg>
