<?xml version="1.0" encoding="utf-8"?>
<!-- Generator: Adobe Illustrator 16.0.3, SVG Export Plug-In . SVG Version: 6.00 Build 0)  -->
<!DOCTYPE svg PUBLIC "-//W3C//DTD SVG 1.1//EN" "http://www.w3.org/Graphics/SVG/1.1/DTD/svg11.dtd">
<svg version="1.1" id="Question_mark_xA0_Image_1_" xmlns="http://www.w3.org/2000/svg" xmlns:xlink="http://www.w3.org/1999/xlink"
	 x="0px" y="0px" width="864px" height="720px" viewBox="0 0 864 720" enable-background="new 0 0 864 720" xml:space="preserve">
<g>
	<g>
		<path fill-rule="evenodd" clip-rule="evenodd" fill="#CBCBFE" d="M865,721c-288,0-576,0-864,0C1,481,1,241,1,1c288,0,576,0,864,0
			C865,241,865,481,865,721z M282.628,330.426c0.965-1.866,1.703-3.325,2.469-4.769c16.249-30.59,36.435-58.09,63.541-80.023
			c23.069-18.666,48.917-30.82,79.059-31.963c7.117-0.27,14.39-0.101,21.396,1.05c22.267,3.655,31.982,17.629,28.589,39.848
			c-3.091,20.231-11.504,38.461-21.146,56.162c-21.511,39.488-48.399,75.251-76.789,109.958c-1.623,1.984-2.916,4.444-3.677,6.896
			c-5.019,16.187-9.865,32.426-14.737,48.658c-4.916,16.378-9.798,32.767-14.826,49.592c68.077,7.857,135.76,15.669,204.007,23.546
			c-0.758-2.396-1.185-3.985-1.757-5.521c-11.758-31.604-23.479-63.222-35.382-94.771c-1.268-3.361-0.818-5.595,1.278-8.483
			c29.084-40.068,54.845-82.159,75.894-127.016c18.52-39.469,33.608-80.06,36.944-124.042c2.122-27.97-1.379-54.999-17.171-79.019
			c-18.411-28.005-41.24-51.875-69.536-70.083c-42.548-27.379-88.591-38.094-138.649-27.389
			c-41.069,8.782-73.633,31.407-100.283,63.177c-32.329,38.539-53.215,83.176-70.177,130.109
			c-4.855,13.436-4.18,24.063,3.159,36.544C251.583,271.371,266.627,300.858,282.628,330.426z M437.603,707.984
			c29.481,0.029,59.121-8.607,79.737-22.939c7.018-4.878,13.647-10.808,19.054-17.404c11.425-13.94,11.377-30.079,0.639-44.598
			c-3.337-4.512-7.176-8.895-11.563-12.351c-45.776-36.073-107.91-41.099-159.562-4.809c-7.448,5.233-14.06,12.41-19.249,19.936
			c-8.624,12.506-8.505,26.258,0.234,38.817c4.488,6.452,10.115,12.532,16.38,17.254
			C386.482,699.383,413.225,706.953,437.603,707.984z"/>
		<path fill-rule="evenodd" clip-rule="evenodd" d="M282.628,330.426c-16.001-29.567-31.045-59.055-47.794-87.54
			c-7.339-12.481-8.015-23.108-3.159-36.544c16.962-46.934,37.848-91.57,70.177-130.109c26.65-31.77,59.213-54.395,100.283-63.177
			c50.059-10.705,96.102,0.01,138.649,27.389c28.296,18.208,51.125,42.078,69.536,70.083c15.792,24.02,19.293,51.049,17.171,79.019
			c-3.336,43.982-18.425,84.573-36.944,124.042c-21.049,44.856-46.81,86.947-75.894,127.016c-2.097,2.889-2.546,5.122-1.278,8.483
			c11.902,31.55,23.624,63.168,35.382,94.771c0.572,1.536,0.999,3.126,1.757,5.521c-68.247-7.877-135.93-15.688-204.007-23.546
			c5.028-16.825,9.91-33.214,14.826-49.592c4.872-16.232,9.719-32.472,14.737-48.658c0.761-2.451,2.054-4.911,3.677-6.896
			c28.39-34.707,55.278-70.47,76.789-109.958c9.643-17.701,18.056-35.931,21.146-56.162c3.394-22.219-6.322-36.192-28.589-39.848
			c-7.007-1.15-14.279-1.319-21.396-1.05c-30.142,1.143-55.989,13.297-79.059,31.963c-27.106,21.934-47.292,49.434-63.541,80.023
			C284.331,327.101,283.594,328.56,282.628,330.426z"/>
		<path fill-rule="evenodd" clip-rule="evenodd" d="M437.603,707.984c-24.378-1.031-51.12-8.602-74.329-26.094
			c-6.265-4.722-11.892-10.802-16.38-17.254c-8.739-12.56-8.858-26.312-0.234-38.817c5.189-7.525,11.801-14.702,19.249-19.936
			c51.651-36.29,113.785-31.265,159.562,4.809c4.387,3.456,8.226,7.839,11.563,12.351c10.738,14.519,10.786,30.657-0.639,44.598
			c-5.406,6.597-12.036,12.526-19.054,17.404C496.724,699.377,467.084,708.014,437.603,707.984z"/>
	</g>
</g>
</svg>
