<?xml version="1.0" encoding="utf-8"?>
<!-- Generator: Adobe Illustrator 19.1.1, SVG Export Plug-In . SVG Version: 6.00 Build 0)  -->
<svg version="1.1" id="Layer_1" xmlns="http://www.w3.org/2000/svg" xmlns:xlink="http://www.w3.org/1999/xlink" x="0px" y="0px"
	 viewBox="0 0 90 90" style="enable-background:new 0 0 90 90;" xml:space="preserve">
<style type="text/css">
	.st0{fill:#FFFFFF;stroke:#000000;stroke-miterlimit:10;}
	.st1{clip-path:url(#SVGID_2_);}
	.st2{fill:#010101;}
	.st3{stroke:#FFFFFF;stroke-width:3;stroke-miterlimit:10;}
	.st4{fill:#FFFFFF;}
	.st5{font-family:'MyriadPro-Regular';}
	.st6{font-size:9.5px;}
</style>
<g>
	<g>
		<path class="st0" d="M75.9,77.1H14.1C10.2,77.1,7,73.9,7,70V8.1c0-3.9,3.2-7.1,7.1-7.1h61.8c3.9,0,7.1,3.2,7.1,7.1V70
			C83,73.9,79.8,77.1,75.9,77.1z"/>
		<g>
			<defs>
				<path id="SVGID_1_" d="M73.1,74.1H16.6c-3.9,0-7.1-3.2-7.1-7.1V10.5c0-3.9,3.2-7.1,7.1-7.1h56.5c3.9,0,7.1,3.2,7.1,7.1V67
					C80.2,70.9,77,74.1,73.1,74.1z"/>
			</defs>
			<clipPath id="SVGID_2_">
				<use xlink:href="#SVGID_1_"  style="overflow:visible;"/>
			</clipPath>
			<g class="st1">
				<path class="st2" d="M68.3,67.9c-0.1-3.6,4.9-6,2-8.3c-1.5-1.1-3.2-2.5-4.4-4c-2-2.5-0.3-3.9,2-3.9c2,0,3.7-0.3,3.7-1.8
					c0-2-2.2-2.7-3.9-3.7c-0.3-0.2-0.5-0.5-0.4-0.8c0.2-0.7,0-1.4-0.1-1.7c-0.2-0.4-0.8-1.4-2.5-2.1c-1.1-0.4-5.1-1.5-5.7-0.3
					c-0.8,1.8,1.9,5,3.6,5.9c1.1,0.6,1.8,0.6,2.6,0.4c0.3-0.1,0.8-0.5,1.5-0.8c0,0,0.4,0,0.5,0c0.6,0.3,4.2,2,3.6,3.2
					c-0.4,0.9-3.8,0.8-4.5,1.1c-4.3,1.5-1.1,5.5,1.2,7.1c1.7,1.2,3.7,2.4,2.7,3.9c-1.6,2.4-2.3,3.7-2.3,5.3c0,1.1,0.2,3,0.4,3
					C68.4,70.7,68.3,68.8,68.3,67.9z"/>
				<circle class="st2" cx="24.4" cy="28.3" r="33.2"/>
				<circle class="st3" cx="24.4" cy="28.3" r="30.8"/>
				<circle class="st0" cx="34.5" cy="19.6" r="6.1"/>
				<path class="st2" d="M69.6,49.2L67.6,48c-0.4-0.3-0.6-0.8-0.3-1.3l0.1-0.2c0.3-0.4,0.8-0.6,1.3-0.3l1.9,1.2
					c0.4,0.3,0.6,0.8,0.3,1.3l-0.1,0.2C70.5,49.4,70,49.5,69.6,49.2z"/>
				<circle class="st4" cx="34.5" cy="17.1" r="2"/>
			</g>
			<use xlink:href="#SVGID_1_"  style="overflow:visible;fill:none;stroke:#FFFFFF;stroke-miterlimit:10;"/>
		</g>
	</g>
	<text transform="matrix(1 -8.944959e-004 8.944959e-004 1 17.3267 87.5607)" class="st5 st6">Reproduction</text>
</g>
</svg>
