<?xml version="1.0" encoding="utf-8"?>
<!-- Generator: Adobe Illustrator 16.0.3, SVG Export Plug-In . SVG Version: 6.00 Build 0)  -->
<!DOCTYPE svg PUBLIC "-//W3C//DTD SVG 1.1//EN" "http://www.w3.org/Graphics/SVG/1.1/DTD/svg11.dtd">
<svg version="1.1" id="Settings_tool_flattened_xA0_Image_1_"
	 xmlns="http://www.w3.org/2000/svg" xmlns:xlink="http://www.w3.org/1999/xlink" x="0px" y="0px" width="864px" height="720px"
	 viewBox="0 0 864 720" enable-background="new 0 0 864 720" xml:space="preserve">
<g>
	<g>
		<path fill-rule="evenodd" clip-rule="evenodd" fill="#CBCBFE" d="M864.958,720.958c-288.014,0-575.986,0-863.916,0
			c0-240.014,0-479.986,0-719.916c288.014,0,575.986,0,863.916,0C864.958,241.056,864.958,481.028,864.958,720.958z
			 M344.673,691.788c71.782,17.946,142.984,14.56,213.86-11.107c-4.83-4.448-4.724-9.553-4.521-14.79
			c0.718-18.479,1.23-36.966,2.083-55.438c0.072-1.577,1.762-3.577,3.247-4.514c14.999-9.456,30.2-18.596,45.119-28.175
			c2.874-1.845,4.935-2.17,8.068-1.017c17.229,6.342,34.583,12.341,51.822,18.654c5.399,1.978,11.795,2.494,14.377,9.527
			c48.857-48.014,80.817-104.334,95.519-169.773c-3.057-1.407-5.57-2.189-7.673-3.591c-15.764-10.504-31.086-21.73-47.307-31.463
			c-7.959-4.775-8.279-10.37-8.013-18.321c0.527-15.768-0.153-31.59-0.801-47.37c-0.132-3.235,0.113-5.059,2.98-6.887
			c14.983-9.558,29.762-19.438,44.737-29.009c4.872-3.114,8.933-8.222,15.854-6.534C761.936,223.446,700.556,127.069,652.9,99.909
			c-3.916,2.764-7.005,5.637-10.635,7.389c-18.192,8.776-36.49,17.338-54.865,25.726c-1.85,0.845-4.813,0.738-6.669-0.155
			c-14.006-6.744-27.905-13.716-41.716-20.854c-1.725-0.892-3.501-2.983-3.949-4.836c-3.152-13.031-6.541-26.052-8.699-39.265
			c-1.754-10.738-8.005-21.155-3.142-32.726c-71.729-17.792-142.229-14.461-211.051,10.139c0.258,3.83,0.846,7.021,0.623,10.153
			c-1.483,20.913-3.077,41.82-4.856,62.71c-0.145,1.695-1.565,3.825-3.029,4.78c-14.995,9.788-30.199,19.258-45.133,29.137
			c-2.386,1.578-3.879,1.513-6.153,0.438c-16.623-7.853-33.297-15.595-49.942-23.399c-4.75-2.228-9.457-4.544-14.501-6.973
			c-48.109,46.963-80.285,103.238-95.215,168.636c2.829,1.216,5.678,1.643,7.338,3.277c17.693,17.419,35.217,35.011,52.706,52.637
			c1.036,1.044,1.893,2.766,1.946,4.205c0.467,12.643,0.854,25.291,0.925,37.94c0.01,1.876-1.275,4.373-2.773,5.547
			c-12.964,10.154-26.016,20.203-39.25,30.001c-6.287,4.654-11.497,11.811-21.479,9.488
			c18.315,79.463,59.358,143.347,121.318,193.343c2.625-2.434,4.514-5.223,7.136-6.453c19.634-9.221,39.388-18.189,59.192-27.04
			c1.614-0.721,4.302-0.688,5.782,0.19c17.436,10.339,35.618,19.039,54.832,25.516c2.389,0.805,3.401,1.784,3.431,4.478
			c0.194,17.66,0.695,35.318,0.854,52.979C345.967,681.589,345.163,686.27,344.673,691.788z"/>
		<path fill-rule="evenodd" clip-rule="evenodd" d="M344.673,691.788c0.49-5.519,1.294-10.199,1.252-14.872
			c-0.159-17.66-0.66-35.318-0.854-52.979c-0.029-2.693-1.042-3.673-3.431-4.478c-19.214-6.477-37.396-15.177-54.832-25.516
			c-1.48-0.878-4.168-0.911-5.782-0.19c-19.804,8.851-39.558,17.819-59.192,27.04c-2.622,1.23-4.511,4.02-7.136,6.453
			c-61.96-49.996-103.003-113.88-121.318-193.343c9.983,2.322,15.192-4.834,21.479-9.488c13.234-9.798,26.287-19.847,39.25-30.001
			c1.498-1.174,2.784-3.671,2.773-5.547c-0.071-12.649-0.458-25.298-0.925-37.94c-0.053-1.439-0.911-3.161-1.946-4.205
			c-17.489-17.626-35.013-35.218-52.706-52.637c-1.66-1.635-4.509-2.062-7.338-3.277c14.93-65.397,47.106-121.673,95.215-168.636
			c5.045,2.429,9.752,4.745,14.501,6.973c16.645,7.805,33.32,15.547,49.942,23.399c2.274,1.074,3.767,1.14,6.153-0.438
			c14.934-9.879,30.138-19.349,45.133-29.137c1.463-0.955,2.884-3.085,3.029-4.78c1.779-20.89,3.373-41.797,4.856-62.71
			c0.223-3.133-0.365-6.323-0.623-10.153c68.822-24.6,139.322-27.931,211.051-10.139c-4.863,11.57,1.388,21.987,3.142,32.726
			c2.158,13.213,5.547,26.233,8.699,39.265c0.448,1.853,2.225,3.944,3.949,4.836c13.811,7.139,27.71,14.11,41.716,20.854
			c1.855,0.894,4.819,1,6.669,0.155c18.375-8.388,36.673-16.949,54.865-25.726c3.63-1.752,6.719-4.625,10.635-7.389
			c47.655,27.16,109.035,123.537,121.127,192.072c-6.922-1.688-10.982,3.42-15.854,6.534c-14.976,9.571-29.754,19.451-44.737,29.009
			c-2.867,1.828-3.112,3.651-2.98,6.887c0.647,15.78,1.328,31.603,0.801,47.37c-0.267,7.951,0.054,13.546,8.013,18.321
			c16.221,9.732,31.543,20.959,47.307,31.463c2.103,1.401,4.616,2.184,7.673,3.591c-14.701,65.439-46.661,121.76-95.519,169.773
			c-2.582-7.033-8.978-7.55-14.377-9.527c-17.239-6.313-34.594-12.313-51.822-18.654c-3.134-1.153-5.194-0.828-8.068,1.017
			c-14.919,9.579-30.12,18.719-45.119,28.175c-1.485,0.937-3.175,2.937-3.247,4.514c-0.853,18.472-1.365,36.959-2.083,55.438
			c-0.203,5.237-0.31,10.342,4.521,14.79C487.657,706.348,416.455,709.734,344.673,691.788z M433.679,473.103
			c9.337-1.363,18.874-1.932,27.979-4.217c68.546-17.197,103.544-90.718,72.654-153.038
			c-23.058-46.519-75.466-70.079-128.242-57.826c-55.766,12.946-93.129,70.368-81.823,125.749
			C334.805,435.486,380.57,472.532,433.679,473.103z"/>
		<path fill-rule="evenodd" clip-rule="evenodd" fill="#CBCBFE" d="M433.679,473.103c-53.108-0.57-98.874-37.616-109.432-89.332
			c-11.306-55.381,26.058-112.803,81.823-125.749c52.776-12.253,105.185,11.308,128.242,57.826
			c30.89,62.32-4.108,135.841-72.654,153.038C452.553,471.171,443.016,471.739,433.679,473.103z"/>
	</g>
</g>
</svg>
