<?xml version="1.0" encoding="utf-8"?>
<!-- Generator: Adobe Illustrator 19.2.0, SVG Export Plug-In . SVG Version: 6.00 Build 0)  -->
<svg version="1.1" id="SKIP_xA0_Image_1_" xmlns="http://www.w3.org/2000/svg" xmlns:xlink="http://www.w3.org/1999/xlink" x="0px"
	 y="0px" viewBox="0 0 603 720" style="enable-background:new 0 0 603 720;" xml:space="preserve">
<style type="text/css">
	.st0{fill:#CBCBFE;}
	.st1{fill:#707070;}
</style>
<g>
	<g>
		<path class="st0" d="M604,721c-201,0-402,0-603,0C1,481,1,241,1,1c201,0,402,0,603,0C604,241,604,481,604,721z M139,480
			c126.5-78.6,252-156.6,377.8-234.8C390.6,180.1,264.2,114.8,137.3,49.4c-0.2,1.9-0.4,2.9-0.4,3.9c-0.3,16-0.5,32-1,48
			c-0.1,3.8,1.3,5.5,4.5,7.2c87.4,44.8,174.8,89.7,262.2,134.6c4,2,7.9,4.2,12.3,6.4c-1.8,1.2-3.1,2.1-4.5,3
			c-52.1,32.4-104.1,64.7-156.2,97c-37.2,23.1-74.4,46.2-111.6,69.4c-1.6,1-3.4,3.1-3.5,4.7C138.9,442.1,139,460.5,139,480z
			 M254.6,572.2c-0.3-0.3-0.6-0.5-0.9-0.8c0-19.1,0-38.2,0-57.4c0-4,2-6.8,4.8-9.9c2-2.2,2-7,1.5-10.5c-0.2-1.4-4-3.1-6.2-3.2
			c-9-0.4-18-0.3-27,0c-2.2,0.1-6,1.2-6.3,2.4c-0.8,3.5-1.6,9.4,0.3,10.8c6.5,4.8,6,11.1,6,17.5c0.1,31.5,0.1,63,0,94.5
			c0,12.2,0.2,24.3-0.2,36.5c-0.1,3.6-0.8,8.6-3.2,10.5c-3.8,3-3.6,6.2-3.8,9.9c-0.2,4.9,2,6.5,6.6,6.4c9.2-0.2,18.3,0.2,27.5-0.2
			c2.2-0.1,6-1.8,6.2-3.3c0.5-3.6,2-7.6-1.5-11.2c-2.2-2.1-4.5-5.4-4.5-8.2c-0.6-19.3-0.7-38.6-0.9-57.9c0-1.4,0-2.8,0-4.1
			c0.5-0.1,1.1-0.2,1.6-0.3c2.1,6,4.4,12,6.4,18c4.8,14.9,9.6,29.8,14.1,44.7c0.6,2.1,0.9,5.9-0.2,6.6c-4,2.6-3,6.2-3.2,9.6
			c-0.3,4.5,1.8,6.3,6.3,6.2c9.7-0.1,19.3,0.1,29-0.2c2.1-0.1,5.8-1.6,6-2.8c0.5-3.5,0.4-7.6-0.9-10.8c-1.7-4.1-5.8-7.3-7.2-11.5
			c-9.4-27.2-18.4-54.5-27.4-81.9c-0.5-1.5-0.3-3.7,0.4-5.2c7.4-16.7,14.8-33.5,22.5-50.1c1.6-3.4,3.3-7.7,6.3-9.4
			c5.2-3,4.3-7.1,4.4-11.4c0.1-3.5-1.7-5.2-5.2-5.2c-9.8,0-19.7-0.1-29.5,0.1c-1.6,0-4.2,1.6-4.5,2.9c-0.7,3-0.7,6.3-0.3,9.4
			c0.1,1,2.6,1.5,3.5,2.7c1,1.2,2.1,2.9,2,4.3c-0.3,5.3-0.1,10.9-1.9,15.7c-5.1,13.9-10.9,27.5-16.6,41.2
			C257.8,568.6,256,570.3,254.6,572.2z M403,602.7c1.7,0,3.5,0,5.3,0c14.3,0.3,25.1-5.8,30.9-18.8c10.5-23.7,11.1-48.2,3.1-72.6
			c-4-12.3-13.3-19.7-26.4-20.5c-13.4-0.8-27-0.6-40.5-0.5c-2.1,0-5.8,1.5-6,2.8c-0.6,3.6-1.1,9.1,0.9,10.7
			c5.2,4.2,5.6,9.2,5.6,14.7c0.1,34.5,0.1,69,0.1,103.5c0,10,0.2,20-0.2,30c-0.1,3.5-0.6,8.5-2.8,10.1c-4.5,3.3-3.9,7.2-4,11.4
			c-0.1,3.6,1.6,5.2,5.1,5.2c10.3,0,20.7,0.1,31-0.1c1.4,0,3-0.6,4-1.5c2.7-2.7,1-11-1.9-13.5c-1.9-1.5-3.9-4.2-4-6.4
			C402.8,639.4,403,621.4,403,602.7z M145,652.2c0,6,0.2,12-0.1,18c-0.1,2.9,0.9,4.3,3.6,5c5.4,1.5,10.8,3.5,16.3,4.5
			c21.3,3.7,34.8-4.2,41.3-24.9c2.4-7.9,3.8-16.2,4.4-24.5c1.8-25.1-4.5-47.5-23.1-65.6c-3-2.9-5.8-6-8.2-9.4
			c-8.8-12.1-10-25.4-5.1-39.3c1.3-3.6,3.8-6.2,8.2-6.3c4.4-0.1,6.9,2.6,8.2,6.2c1.8,5.2,3.1,10.5,4.2,15.9c1.5,7,1.3,7.1,8.6,6.9
			c5.4-0.1,6.7-1.3,6.7-6.9c0-7.7,0-15.3,0-23c0-15.8-0.4-16.3-16-19.6c-20.3-4.3-36.3,4.2-42.8,23.9c-2.5,7.6-3.9,15.9-4.4,23.9
			c-1.4,21.5,3.5,41.3,18.4,57.8c3,3.3,6.2,6.5,9.2,9.9c12.2,13.7,13.4,29.5,8.9,46.3c-1.2,4.4-3.8,7.8-9,8c-5.2,0.2-8.3-3-9.7-7.2
			c-2-6.1-3.5-12.5-4.4-18.8c-0.6-3.8-1.8-5.4-5.6-4.9c-1.3,0.2-2.7,0-4,0c-3.7,0-5.5,1.7-5.5,5.5C145,639.9,145,646.1,145,652.2z
			 M337.2,678.7c4.5,0,9,0.3,13.5-0.1c2.3-0.3,6.2-1.8,6.3-3.1c0.4-3.6-0.4-7.6-1.5-11.1c-1-3.1-3.8-5.7-4.5-8.8
			c-0.9-4.2-0.8-8.6-0.8-12.9c-0.1-39.5,0-79,0-118.5c0-3.7-0.1-7.5,0.8-10.9c0.9-3.1,3.6-5.7,4.6-8.8c1.1-3.6,1.8-7.5,1.4-11.2
			c-0.1-1.3-4.1-2.9-6.4-3c-9-0.3-18-0.3-27,0c-2.2,0.1-5.9,1.4-6.1,2.6c-0.7,3.6-1.3,9.3,0.6,10.7c5.7,4.3,5.8,9.8,5.8,15.6
			c0.1,26,0.1,52,0.1,78c0,18,0.1,36-0.2,54c-0.1,3.8-0.6,8.9-3.1,11c-3.6,3.2-3.8,6.4-3.9,10.4c-0.1,4.2,1.6,6.2,5.9,6.1
			C327.6,678.6,332.4,678.7,337.2,678.7z"/>
		<path class="st1" d="M139,480c0-19.4-0.1-37.9,0.2-56.4c0-1.6,1.9-3.7,3.5-4.7c37.1-23.2,74.4-46.3,111.6-69.4
			c52.1-32.3,104.1-64.7,156.2-97c1.4-0.9,2.8-1.8,4.5-3c-4.4-2.3-8.3-4.4-12.3-6.4c-87.4-44.9-174.8-89.8-262.2-134.6
			c-3.2-1.7-4.6-3.4-4.5-7.2c0.5-16,0.7-32,1-48c0-1,0.2-1.9,0.4-3.9c126.9,65.5,253.3,130.7,379.5,195.8
			C391,323.4,265.5,401.4,139,480z"/>
		<path class="st1" d="M254.6,572.2c1.4-1.9,3.2-3.6,4.1-5.7c5.7-13.7,11.6-27.3,16.6-41.2c1.8-4.8,1.6-10.4,1.9-15.7
			c0.1-1.4-1-3.1-2-4.3c-0.9-1.1-3.4-1.7-3.5-2.7c-0.4-3.1-0.5-6.4,0.3-9.4c0.3-1.3,2.9-2.8,4.5-2.9c9.8-0.3,19.7-0.1,29.5-0.1
			c3.5,0,5.2,1.7,5.2,5.2c-0.1,4.3,0.8,8.5-4.4,11.4c-2.9,1.7-4.7,6-6.3,9.4c-7.7,16.6-15.1,33.3-22.5,50.1
			c-0.7,1.5-0.9,3.6-0.4,5.2c9,27.3,18,54.7,27.4,81.9c1.4,4.2,5.5,7.4,7.2,11.5c1.3,3.2,1.5,7.3,0.9,10.8c-0.2,1.3-3.9,2.8-6,2.8
			c-9.7,0.3-19.3,0-29,0.2c-4.4,0.1-6.5-1.7-6.3-6.2c0.2-3.5-0.8-7.1,3.2-9.6c1.1-0.7,0.8-4.5,0.2-6.6c-4.6-15-9.3-29.8-14.1-44.7
			c-2-6.1-4.2-12-6.4-18c-0.5,0.1-1.1,0.2-1.6,0.3c0,1.4,0,2.8,0,4.1c0.2,19.3,0.3,38.6,0.9,57.9c0.1,2.8,2.4,6,4.5,8.2
			c3.5,3.5,2.1,7.6,1.5,11.2c-0.2,1.4-4,3.2-6.2,3.3c-9.1,0.4-18.3,0-27.5,0.2c-4.6,0.1-6.8-1.5-6.6-6.4c0.2-3.8,0-6.9,3.8-9.9
			c2.4-1.9,3.1-6.9,3.2-10.5c0.4-12.1,0.2-24.3,0.2-36.5c0-31.5,0-63,0-94.5c0-6.4,0.5-12.7-6-17.5c-1.8-1.4-1-7.2-0.3-10.8
			c0.3-1.2,4.1-2.3,6.3-2.4c9-0.3,18-0.3,27,0c2.2,0.1,6,1.8,6.2,3.2c0.5,3.5,0.5,8.3-1.5,10.5c-2.8,3.1-4.8,5.9-4.8,9.9
			c-0.1,19.1,0,38.2,0,57.4C254.1,571.7,254.3,571.9,254.6,572.2z"/>
		<path class="st1" d="M403,602.7c0,18.7-0.1,36.6,0.2,54.6c0,2.2,2.1,4.8,4,6.4c3,2.5,4.7,10.8,1.9,13.5c-0.9,0.9-2.6,1.5-4,1.5
			c-10.3,0.1-20.7,0.1-31,0.1c-3.5,0-5.2-1.7-5.1-5.2c0.1-4.2-0.6-8.1,4-11.4c2.2-1.6,2.7-6.6,2.8-10.1c0.4-10,0.2-20,0.2-30
			c0-34.5,0-69-0.1-103.5c0-5.5-0.4-10.5-5.6-14.7c-2-1.6-1.4-7.1-0.9-10.7c0.2-1.3,3.9-2.8,6-2.8c13.5-0.1,27-0.3,40.5,0.5
			c13.1,0.8,22.4,8.2,26.4,20.5c8,24.4,7.3,49-3.1,72.6c-5.7,13-16.6,19.1-30.9,18.8C406.5,602.7,404.7,602.7,403,602.7z
			 M402.4,580.8c9.6,0.9,14.1-2.1,16.5-11.3c3.2-12.8,2.8-25.8,1.5-38.7c-0.4-4.2-1.5-8.6-3.1-12.5c-2.6-6.3-8.1-8.3-14.8-6
			C402.4,535,402.4,557.8,402.4,580.8z"/>
		<path class="st1" d="M145,652.2c0-6.2,0.1-12.3,0-18.5c0-3.8,1.8-5.5,5.5-5.5c1.3,0,2.7,0.2,4,0c3.8-0.5,5,1.1,5.6,4.9
			c1,6.4,2.5,12.7,4.4,18.8c1.4,4.3,4.5,7.4,9.7,7.2c5.2-0.2,7.8-3.6,9-8c4.5-16.8,3.3-32.7-8.9-46.3c-3-3.4-6.2-6.5-9.2-9.9
			c-14.9-16.5-19.8-36.3-18.4-57.8c0.5-8.1,1.8-16.3,4.4-23.9c6.5-19.7,22.4-28.3,42.8-23.9c15.6,3.3,16,3.8,16,19.6
			c0,7.7,0,15.3,0,23c0,5.5-1.3,6.8-6.7,6.9c-7.3,0.1-7.1,0.1-8.6-6.9c-1.1-5.3-2.4-10.7-4.2-15.9c-1.2-3.6-3.8-6.2-8.2-6.2
			c-4.3,0.1-6.9,2.6-8.2,6.3c-4.9,13.9-3.7,27.2,5.1,39.3c2.4,3.4,5.2,6.5,8.2,9.4c18.6,18,24.9,40.5,23.1,65.6
			c-0.6,8.2-1.9,16.6-4.4,24.5c-6.5,20.7-20,28.6-41.3,24.9c-5.5-1-10.9-3-16.3-4.5c-2.6-0.7-3.7-2.2-3.6-5
			C145.1,664.2,145,658.2,145,652.2z"/>
		<path class="st1" d="M337.2,678.7c-4.8,0-9.7-0.1-14.5,0c-4.3,0.1-6-1.8-5.9-6.1c0.1-4,0.3-7.2,3.9-10.4c2.4-2.1,3-7.2,3.1-11
			c0.3-18,0.2-36,0.2-54c0-26,0-52-0.1-78c0-5.8-0.1-11.3-5.8-15.6c-1.9-1.4-1.3-7.2-0.6-10.7c0.2-1.2,4-2.5,6.1-2.6
			c9-0.3,18-0.3,27,0c2.3,0.1,6.2,1.7,6.4,3c0.4,3.6-0.3,7.6-1.4,11.2c-1,3.1-3.7,5.7-4.6,8.8c-0.9,3.5-0.8,7.3-0.8,10.9
			c0,39.5-0.1,79,0,118.5c0,4.3-0.1,8.8,0.8,12.9c0.7,3.1,3.5,5.7,4.5,8.8c1.1,3.6,1.9,7.5,1.5,11.1c-0.1,1.3-4,2.8-6.3,3.1
			C346.3,679.1,341.7,678.7,337.2,678.7z"/>
		<path class="st0" d="M402.4,580.8c0-23,0-45.8,0-68.6c6.7-2.3,12.2-0.3,14.8,6c1.6,3.9,2.7,8.3,3.1,12.5c1.3,13,1.7,26-1.5,38.7
			C416.5,578.7,412,581.7,402.4,580.8z"/>
	</g>
</g>
</svg>
