<?xml version="1.0" encoding="utf-8"?>
<!-- Generator: Adobe Illustrator 19.1.1, SVG Export Plug-In . SVG Version: 6.00 Build 0)  -->
<svg version="1.1" id="Layer_1" xmlns="http://www.w3.org/2000/svg" xmlns:xlink="http://www.w3.org/1999/xlink" x="0px" y="0px"
	 viewBox="0 0 90 90" style="enable-background:new 0 0 90 90;" xml:space="preserve">
<style type="text/css">
	.st0{fill:#FFFFFF;stroke:#000000;stroke-miterlimit:10;}
	.st1{stroke:#000000;stroke-width:2;stroke-miterlimit:10;}
	.st2{fill:#FFFFFF;stroke:#000000;stroke-width:2;stroke-miterlimit:10;}
	.st3{fill:none;stroke:#FFFFFF;stroke-width:0.75;stroke-linecap:round;stroke-miterlimit:10;}
	.st4{font-family:'MyriadPro-Regular';}
	.st5{font-size:9.5px;}
</style>
<g>
	<g>
		<path class="st0" d="M75.9,77H14.1C10.2,77,7,73.8,7,69.9V8.1C7,4.2,10.2,1,14.1,1h61.8C79.8,1,83,4.2,83,8.1v61.8
			C83,73.8,79.8,77,75.9,77z"/>
		<g>
			<path class="st1" d="M45.8,56.6L45,55.8l0.4-0.3l0.8,0.8l4.6-4.5l-0.6-0.6l0.4-0.3l0.6,0.6l4.6-4.5l-0.3-0.3l0.4-0.3l0.3,0.3
				l4.8-4.7C55.6,36,47.2,26.6,45.4,24.6c-1.5-1.8-6.6-7.8-14.2-8.7C17,14.1,11.5,29.1,16.7,37.2c2.9,4.6,16,16.9,24.1,24.3
				L45.8,56.6z"/>
			<path class="st2" d="M25.3,51.5L25.3,51.5c-1.3-1.3-1.4-3.2-0.3-4.5c0,0,16.9-19.1,19.5-22.2c1.5-1.8,6.5-7.8,14.1-8.8
				C72.9,14.1,78.5,29,73.3,37.2c-3.5,5.5-21.8,22.6-28.2,28.5c-1.2,1.1-3.1,1.1-4.4,0l-0.2-0.2c-1.3-1.2-1.4-3.2-0.1-4.5l4.7-5
				l-0.4-0.3l-6.5,6.8c-1.2,1.3-3.2,1.4-4.5,0.1l0,0c-1.3-1.2-1.4-3.2-0.1-4.5l6.3-6.6L39.6,51l-6,6.3c-1.2,1.3-3.2,1.4-4.5,0.1l0,0
				c-1.3-1.2-1.4-3.2-0.1-4.5l5.9-6.2l-0.4-0.3l-4.6,4.8C28.6,52.6,26.5,52.7,25.3,51.5z"/>
			<path d="M59,52.9l-1.1-1.2c-1-1-1-2.7,0.1-3.7l0,0c1-1,2.7-1,3.7,0.1l1.1,1.2c1,1,1,2.7-0.1,3.7l0,0C61.7,54,60,53.9,59,52.9z"/>
			<path d="M49.1,36.8l-9.9-7.9c-1.1-1.2-0.3-4.6,0.9-5.8l0,0c1.2-1.1,3-1.1,4.2,0.1l9.1,9.5c1.1,1.2,1.1,3-0.1,4.2l0,0
				C52.1,38,50.2,38,49.1,36.8z"/>
			<path d="M55.9,58.1l-2.3-2.4c-1-1-1-2.7,0.1-3.7l0,0c1-1,2.7-1,3.7,0.1l2.3,2.4c1,1,1,2.7-0.1,3.7l0,0
				C58.6,59.1,56.9,59.1,55.9,58.1z"/>
			<path d="M51.4,61.7l-2.3-2.4c-1-1-1-2.7,0.1-3.7l0,0c1-1,2.7-1,3.7,0.1l2.3,2.4c1,1,1,2.7-0.1,3.7l0,0
				C54.1,62.8,52.5,62.7,51.4,61.7z"/>
			<path d="M46.3,64.6l-1.1-1.2c-1-1-1-2.7,0.1-3.7l0,0c1-1,2.7-1,3.7,0.1l1.1,1.2c1,1,1,2.7-0.1,3.7h0
				C48.9,65.6,47.3,65.6,46.3,64.6z"/>
		</g>
		<path class="st3" d="M36.2,28.9c2.6,0.7,2.8,0,6.3,3.3"/>
	</g>
	<text transform="matrix(1 0 0 1 15.6628 87.4604)" class="st4 st5">Social Services</text>
</g>
</svg>
