<?xml version="1.0" encoding="utf-8"?>
<!-- Generator: Adobe Illustrator 19.2.0, SVG Export Plug-In . SVG Version: 6.00 Build 0)  -->
<svg version="1.1" id="SUBMITt_xA0_Image_1_" xmlns="http://www.w3.org/2000/svg" xmlns:xlink="http://www.w3.org/1999/xlink"
	 x="0px" y="0px" viewBox="0 0 1440 720" style="enable-background:new 0 0 1440 720;" xml:space="preserve">
<style type="text/css">
	.st0{fill:#CBCBFE;}
	.st1{fill:#010301;}
	.st2{fill:#00FC00;}
</style>
<g>
	<g>
		<path class="st0" d="M1,1c479.9,0,959.8,0,1439.9,0c0,239.9,0,479.7,0,719.8c-479.9,0-959.9,0-1439.9,0C1,481,1,241,1,1z
			 M1174,378.1c4.9-13.1,5.1-25.9,1.5-39.3c26.4,0,51.9,0,78.3,0c-9.1-12.6-17.9-24.5-26.4-36.5c-1.7-2.4-3.5-3.4-6.5-3.4
			c-22.7,0.1-45.3,0.1-68,0c-2.1,0-4.7-0.7-6.2-2c-13.3-11.8-27.9-21.5-43.5-29.9c-42.7-22.9-88.4-37.2-135.4-48
			c-72-16.6-145.1-24-218.9-25.7c-79.8-1.8-159.1,3.4-237.7,17.8c-46,8.4-91.3,19.9-134.7,37.7c-30,12.3-58.7,26.8-83,48.8
			c-1.2,1-3.3,1.3-5,1.3c-17.8,0.1-35.7,0.6-53.5-0.2c-8.9-0.4-14.7,2.3-19.9,9.5c-7.6,10.4-16.2,20-25.2,30.9c25.8,0,50.5,0,75.6,0
			c-4,13.4-3.1,26.1,1.2,39.1c-25.7,0-50.8,0-76.7,0c9.1,12.5,17.8,24.4,26.3,36.5c1.9,2.7,3.9,3.5,7,3.4c23-0.1,46-0.1,69,0
			c2.2,0,4.8,1,6.7,2.3c12.9,8.5,25.2,18.1,38.7,25.5c42.4,23.4,88.3,37.3,135.3,48.1c71.8,16.5,144.8,24,218.4,25.7
			c72.3,1.7,144.2-2.5,215.6-13.9c47.7-7.6,94.7-18.3,140.1-34.9c34.3-12.6,67.3-27.8,95.8-51.4c1.3-1.1,3.6-1.4,5.5-1.4
			c18.5-0.1,37-0.9,55.5,0.2c12.6,0.8,21.2-2.7,28.2-13.3c6.2-9.3,14.1-17.5,21.8-26.8C1226.8,378.1,1200.8,378.1,1174,378.1z"/>
		<path class="st1" d="M1174,378.1c26.7,0,52.8,0,79.9,0c-7.7,9.4-15.7,17.5-21.8,26.8c-7,10.6-15.6,14.1-28.2,13.3
			c-18.4-1.2-37-0.3-55.5-0.2c-1.8,0-4.1,0.3-5.5,1.4c-28.5,23.6-61.4,38.8-95.8,51.4c-45.4,16.6-92.4,27.3-140.1,34.9
			c-71.4,11.4-143.4,15.6-215.6,13.9c-73.6-1.7-146.5-9.2-218.4-25.7c-47-10.8-92.9-24.7-135.3-48.1c-13.5-7.4-25.7-17.1-38.7-25.5
			c-1.9-1.3-4.4-2.2-6.7-2.3c-23-0.2-46-0.2-69,0c-3.1,0-5.1-0.8-7-3.4c-8.5-12.1-17.2-23.9-26.3-36.5c25.9,0,50.9,0,76.7,0
			c-4.3-13-5.2-25.7-1.2-39.1c-25.2,0-49.8,0-75.6,0c8.9-10.9,17.6-20.5,25.2-30.9c5.2-7.2,11-9.9,19.9-9.5
			c17.8,0.8,35.7,0.3,53.5,0.2c1.7,0,3.9-0.3,5-1.3c24.3-22,53-36.6,83-48.8c43.4-17.8,88.7-29.2,134.7-37.7
			c78.6-14.4,157.9-19.6,237.7-17.8c73.7,1.6,146.9,9.1,218.9,25.7c47,10.8,92.7,25,135.4,48c15.6,8.4,30.2,18.1,43.5,29.9
			c1.5,1.3,4.1,2,6.2,2c22.7,0.1,45.3,0.1,68,0c3,0,4.8,0.9,6.5,3.4c8.5,12,17.2,23.9,26.4,36.5c-26.4,0-52,0-78.3,0
			C1179.1,352.2,1178.9,365.1,1174,378.1z M722.6,504.7c54.1-0.4,110.1-3.5,165.7-11.6c46.9-6.8,93.1-16.3,138.1-31.3
			c33.3-11,65.5-24.4,94.4-44.7c13.4-9.5,25.7-20.3,34.1-34.6c5.7-9.7,8.8-20,7.3-31.5c-1.5-11.7-6.9-21.5-14.1-30.4
			c-13.1-16.2-30-27.8-47.9-37.9c-34.9-19.7-72.5-32.6-111-42.7c-85.1-22.5-171.9-30.9-259.6-31.6c-63.7-0.5-127.2,3.5-190.2,13.5
			c-45.3,7.1-89.9,17-133.2,32.1c-31.5,11-62,24.2-89.2,44.1c-12.6,9.2-23.9,19.8-31.6,33.6c-5.1,9-7.8,18.7-6.7,29.2
			c1.7,15.4,9.8,27.4,20.1,38.1c13.6,14.2,30,24.8,47.3,34c45.2,24,93.9,38.2,143.6,48.9C565.7,498.3,642.8,504.4,722.6,504.7z"/>
		<path class="st2" d="M722.6,504.7c-79.8-0.4-156.8-6.4-232.9-22.7c-49.8-10.7-98.4-24.9-143.6-48.9c-17.3-9.2-33.6-19.8-47.3-34
			c-10.3-10.8-18.4-22.8-20.1-38.1c-1.2-10.5,1.6-20.2,6.7-29.2c7.7-13.8,19-24.4,31.6-33.6c27.1-19.9,57.6-33.1,89.2-44.1
			c43.3-15.1,88-25,133.2-32.1c63-9.9,126.5-14,190.2-13.5c87.7,0.8,174.6,9.2,259.6,31.6c38.5,10.2,76.1,23.1,111,42.7
			c17.9,10.1,34.8,21.7,47.9,37.9c7.2,8.9,12.6,18.7,14.1,30.4c1.5,11.5-1.6,21.8-7.3,31.5c-8.5,14.4-20.7,25.2-34.1,34.6
			c-28.9,20.3-61.1,33.7-94.4,44.7c-45,14.9-91.2,24.5-138.1,31.3C832.7,501.2,776.7,504.4,722.6,504.7z M763.9,262.5
			c-10.8,0-21.2-0.1-31.5,0.1c-2.2,0.1-5.9,1.3-6.1,2.6c-0.7,3.4-1.4,9,0.4,10.3c6.5,4.7,6,11.1,6.1,17.5c0.1,34.7,0.1,69.3,0.1,104
			c0,9,0.2,18-0.2,27c-0.2,3.6-0.8,8.6-3.2,10.5c-3.8,3-3.5,6.2-3.7,9.9c-0.3,4.7,1.9,6.2,6.3,6.1c6-0.2,12,0.2,18-0.2
			c2-0.1,5.6-1.4,5.7-2.5c0.5-3.6,1.2-9.2-0.8-10.7c-5.5-4.2-5.7-9.5-5.7-15.1c-0.1-28.7-0.1-57.3-0.1-86c0-1.2,0.1-2.4,0.2-3.6
			c5.4,28.3,10.3,56.6,15.4,84.9c2.6,14.3,2.7,14.3,17.5,12.8c0.2,0,0.3-0.1,0.9-0.4c6.1-32.5,12.2-65.2,18.5-98.9
			c0.5,1.4,0.7,1.7,0.7,2c-0.1,31.7-0.2,63.3-0.3,95c0,3.7-2.2,6-4.7,8.8c-2,2.3-2.1,6.9-1.8,10.4c0.1,1.3,3.6,3.2,5.6,3.2
			c9.3,0.3,18.7,0.3,28,0c1.9-0.1,5.3-1.7,5.4-2.9c0.3-3.5,0.6-8.6-1.4-10.5c-3.7-3.4-5-6.8-5-11.3c-0.1-39.7-0.2-79.3-0.3-119
			c0-6.8,0-13.7,0.4-20.5c0.2-2.7,0.9-6.5,2.7-7.7c4.2-2.7,4-6.3,4.1-10.3c0-4-1.6-5.8-5.7-5.8c-9,0.1-18,0.1-27,0
			c-2.8,0-4,0.8-4.5,3.8c-3.5,20-7.2,39.9-10.9,59.9c-2,10.6-4,21.3-6,31.9c-0.3,0-0.5,0-0.8-0.1
			C774.8,326.4,769.4,294.7,763.9,262.5z M698,352.1c3.9-6.5,8.2-12.3,11.2-18.7c5.8-12.5,6-25.9,4.4-39.2
			c-2.2-18.6-10.5-32.9-37.2-31.7c-12.3,0.5-24.7,0-37,0.2c-2.1,0-5.8,1.4-6,2.7c-0.6,3.4-1.2,8.9,0.7,10.2
			c5.8,4.2,5.8,9.7,5.8,15.5c0,39.5,0,79,0,118.4c0,5.5,0.2,11-0.2,16.5c-0.3,3-0.9,7.1-3,8.5c-4,2.7-3.8,6-3.9,9.8
			c-0.1,4.2,1.4,6.1,5.8,6.1c13.3-0.1,26.7,0.1,40-0.1c16.5-0.2,27-8.1,32.5-23.8c4-11.5,4.5-23.5,4-35.5
			C714.5,375.7,710,361.9,698,352.1z M595,345.9C595,345.9,594.9,345.9,595,345.9c0,18.3,0.4,36.7-0.3,55
			c-0.3,8.3-2.6,16.6-4.6,24.8c-0.9,3.7-4.1,5.4-8,5.6c-4.1,0.2-7.1-1.6-8.9-5.2c-1.1-2.1-2.2-4.2-2.5-6.5
			c-1.1-7.1-2.4-14.2-2.6-21.3c-0.4-23.2-0.3-46.3-0.3-69.5c0-13.7-0.1-27.3,0.3-41c0.1-3.3,0.9-7.8,3.1-9.5c3.8-2.9,3.7-6,3.9-9.9
			c0.2-4.6-1.9-6.2-6.3-6.1c-8.2,0.2-16.3,0-24.5,0c-9.8,0-10,0-9.5,9.6c0.1,1.8,1.7,3.5,2.7,5.2c1.1,2,2.9,3.8,3.3,5.9
			c0.8,3.5,0.9,7.3,0.9,10.9c0.1,33.8,0,67.7,0.2,101.5c0.1,13.4,1.8,26.6,7.7,38.9c6,12.4,16.1,18.1,29.7,18.1
			c14.1,0,24-6.5,29.2-19.4c2.6-6.6,4.7-13.7,5.3-20.7c1.2-16.4,1.7-32.9,1.9-49.4c0.3-25,0.1-50,0.4-75c0-3.3,0.7-7.9,2.9-9.5
			c3.9-3,3.9-6.3,4-10.3c0-4-1.7-5.8-5.7-5.8c-7.7,0.1-15.3-0.2-23,0.2c-2.1,0.1-5.7,1.7-5.9,3c-0.4,3.5-0.6,8.5,1.4,10.5
			c3.5,3.4,5,6.9,5,11.3C595,306.9,595,326.4,595,345.9z M474.8,400.5c-2.4,0-4.8,0-7.1,0c-5.7,0.1-6.7,1-6.7,6.7c0,8.3,0,16.7,0,25
			c0,15.2,0,15.2,14.9,18.6c24.9,5.5,40.7-1,48-30.3c1.8-7.2,2.1-14.8,2.5-22.3c1.1-23.8-6-44.6-23.3-61.5
			c-3.4-3.4-6.6-7.1-9.3-11.1c-7.6-11.3-8.3-23.7-4.4-36.4c1.3-4.1,3.8-7.5,8.9-7.5c4.8,0,7.4,3.2,8.6,7.1
			c1.8,5.9,3.1,11.9,4.1,17.9c0.5,2.9,1.5,4.2,4.4,3.9c1.6-0.2,3.3-0.1,5,0c3.5,0.1,5.3-1.6,5.3-5.1c0-11.8,0.1-23.7-0.1-35.5
			c0-1.2-0.8-3.1-1.8-3.6c-10.6-5.1-21.7-7.8-33.4-4.7c-13.5,3.5-21,13.5-24.2,26.2c-7.8,31.4-4.4,60.5,20.1,84.5
			c1.3,1.3,2.5,2.7,3.8,4c9.9,10.4,12.8,23.1,11.3,36.9c-0.4,4.1-1.6,8.1-3,12c-1.3,3.7-4.2,6-8.4,6c-4.1,0-7-2-8.8-5.6
			c-1.3-2.7-2.5-5.5-3.2-8.4C476.8,411.9,475.9,406.4,474.8,400.5z M966.8,314.4c2.6,0,5.3-0.1,7.9,0c4.1,0.2,5.6-1.7,5.6-5.7
			c-0.1-13.5-0.1-27,0-40.5c0-4-1.5-5.7-5.6-5.7c-24.3,0.1-48.6,0.1-73,0c-4.3,0-5.9,1.7-5.9,6c0.2,11.3,0.1,22.7,0.1,34
			c0,12.4-1.4,12.1,12.3,11.9c0.5,0,0.9-0.3,1.3-0.4c1.6-7.9,2.9-15.8,4.9-23.5c1.7-6.2,4.1-7.3,10.4-6.4c0.1,0.6,0.2,1.2,0.2,1.9
			c0,46,0,91.9,0,137.9c0,6.1-0.9,11.7-8,13.5c0,2.3,0,4.1,0,5.9c0,6.4,0.6,7.1,7.2,7.1c7.8,0,15.7,0,23.5,0
			c12.3,0.1,11.7,0.9,11.5-11.7c0-0.5-0.2-1-0.3-1.7c-5.5-0.9-6.9-5-7.3-9.8c-0.3-3.3-0.4-6.6-0.4-10c0-42.8,0-85.6,0-128.4
			c0-1.6,0-3.2,0-4.8c5.8-1.3,9.2,1,10.4,5.8C963.4,297.7,964.9,305.7,966.8,314.4z M879.1,356.5
			C879.1,356.5,879.2,356.5,879.1,356.5c0-22-0.1-44,0.2-66c0.1-4.1,0.7-9.5,3.3-12c3.4-3.2,3.5-6.2,3.6-10c0.2-4.2-1.4-6.1-5.8-6
			c-9.5,0.2-19-0.1-28.5,0.2c-2,0.1-5.4,1.4-5.6,2.6c-0.6,3.4-1.2,9,0.6,10.3c6.2,4.3,5.9,10,5.9,16c0.1,37.8,0,75.7,0,113.5
			c0,6.8,0.2,13.7-0.2,20.5c-0.2,3.2-0.9,7.5-3,9c-3.8,2.8-3.8,5.9-3.9,9.8c-0.1,4.6,1.8,6.2,6.3,6.1c9.2-0.2,18.3,0.1,27.5-0.2
			c2.2-0.1,5.9-1.3,6.1-2.5c0.7-3.4,1.4-9.1-0.4-10.3c-6.5-4.5-6-10.8-6.1-17C879,399.2,879.1,377.8,879.1,356.5z"/>
		<path class="st1" d="M763.9,262.5c5.5,32.2,10.8,63.9,16.2,95.5c0.3,0,0.5,0,0.8,0.1c2-10.6,4-21.3,6-31.9
			c3.7-20,7.4-39.9,10.9-59.9c0.5-3,1.6-3.8,4.5-3.8c9,0.1,18,0.1,27,0c4,0,5.7,1.8,5.7,5.8c0,4,0.1,7.6-4.1,10.3
			c-1.8,1.2-2.5,5-2.7,7.7c-0.5,6.8-0.5,13.7-0.4,20.5c0.1,39.7,0.2,79.3,0.3,119c0,4.5,1.3,7.9,5,11.3c2,1.9,1.7,6.9,1.4,10.5
			c-0.1,1.2-3.5,2.9-5.4,2.9c-9.3,0.3-18.7,0.3-28,0c-2-0.1-5.5-2-5.6-3.2c-0.3-3.5-0.3-8.1,1.8-10.4c2.5-2.8,4.7-5.1,4.7-8.8
			c0.2-31.7,0.2-63.3,0.3-95c0-0.3-0.2-0.6-0.7-2c-6.3,33.7-12.4,66.5-18.5,98.9c-0.6,0.3-0.7,0.4-0.9,0.4
			c-14.8,1.5-15,1.5-17.5-12.8c-5.1-28.3-9.9-56.6-15.4-84.9c-0.1,1.2-0.2,2.4-0.2,3.6c0,28.7,0,57.3,0.1,86
			c0,5.6,0.3,10.9,5.7,15.1c2,1.5,1.3,7.1,0.8,10.7c-0.2,1.1-3.7,2.4-5.7,2.5c-6,0.3-12,0-18,0.2c-4.4,0.1-6.5-1.4-6.3-6.1
			c0.2-3.7,0-6.9,3.7-9.9c2.4-1.9,3-6.8,3.2-10.5c0.5-9,0.2-18,0.2-27c0-34.7,0-69.3-0.1-104c0-6.4,0.5-12.8-6.1-17.5
			c-1.8-1.3-1.2-7-0.4-10.3c0.3-1.3,4-2.5,6.1-2.6C742.8,262.4,753.1,262.5,763.9,262.5z"/>
		<path class="st1" d="M698,352.1c12,9.9,16.5,23.6,17.1,39c0.5,12,0,24-4,35.5c-5.5,15.7-16,23.5-32.5,23.8
			c-13.3,0.2-26.7,0-40,0.1c-4.4,0-5.9-1.9-5.8-6.1c0.1-3.8,0-7.1,3.9-9.8c2-1.4,2.7-5.5,3-8.5c0.5-5.5,0.2-11,0.2-16.5
			c0-39.5,0-79,0-118.4c0-5.8,0-11.3-5.8-15.5c-1.8-1.3-1.3-6.9-0.7-10.2c0.2-1.3,3.9-2.6,6-2.7c12.3-0.3,24.7,0.3,37-0.2
			c26.7-1.2,35,13,37.2,31.7c1.6,13.3,1.3,26.8-4.4,39.2C706.3,339.8,702,345.6,698,352.1z M666.4,364c0,21.8,0,43.3,0,64.7
			c12.7,2.4,19.8-1.6,21.2-13.9c1.3-11.6,1.4-23.5,0.1-35.1C686.3,366.2,680.4,362.5,666.4,364z M666.3,341.9
			c12.2,1.6,17.3-1.3,20.1-12.3c2.9-11.4,3-23.1,0.3-34.6c-2.4-10-10.5-13.8-20.4-10.2C666.3,303.7,666.3,322.6,666.3,341.9z"/>
		<path class="st1" d="M595,345.9c0-19.5,0-39,0-58.5c0-4.5-1.5-7.9-5-11.3c-2-2-1.8-7-1.4-10.5c0.1-1.2,3.8-2.9,5.9-3
			c7.6-0.4,15.3-0.1,23-0.2c3.9,0,5.7,1.7,5.7,5.8c0,4,0,7.3-4,10.3c-2.2,1.6-2.9,6.3-2.9,9.5c-0.3,25,0,50-0.4,75
			c-0.2,16.5-0.7,33-1.9,49.4c-0.5,7-2.6,14.1-5.3,20.7c-5.2,12.9-15.1,19.4-29.2,19.4c-13.6,0-23.7-5.7-29.7-18.1
			c-5.9-12.3-7.6-25.5-7.7-38.9c-0.3-33.8-0.1-67.7-0.2-101.5c0-3.6-0.2-7.4-0.9-10.9c-0.4-2.1-2.2-3.9-3.3-5.9
			c-1-1.7-2.6-3.4-2.7-5.2c-0.5-9.6-0.3-9.6,9.5-9.6c8.2,0,16.3,0.1,24.5,0c4.4-0.1,6.5,1.5,6.3,6.1c-0.1,3.8-0.1,7-3.9,9.9
			c-2.2,1.7-3,6.2-3.1,9.5c-0.4,13.7-0.3,27.3-0.3,41c0,23.2-0.1,46.3,0.3,69.5c0.1,7.1,1.5,14.2,2.6,21.3c0.3,2.2,1.4,4.4,2.5,6.5
			c1.8,3.6,4.8,5.4,8.9,5.2c3.9-0.2,7.2-2,8-5.6c2-8.2,4.3-16.5,4.6-24.8C595.4,382.6,594.9,364.2,595,345.9
			C594.9,345.9,595,345.9,595,345.9z"/>
		<path class="st1" d="M474.8,400.5c1.1,5.9,2,11.4,3.3,16.9c0.7,2.9,1.9,5.7,3.2,8.4c1.7,3.5,4.7,5.6,8.8,5.6c4.2,0,7-2.3,8.4-6
			c1.4-3.9,2.6-7.9,3-12c1.5-13.9-1.5-26.5-11.3-36.9c-1.3-1.3-2.5-2.7-3.8-4c-24.5-23.9-27.9-53-20.1-84.5
			c3.2-12.7,10.7-22.7,24.2-26.2c11.7-3.1,22.8-0.4,33.4,4.7c1,0.5,1.8,2.3,1.8,3.6c0.1,11.8,0.1,23.7,0.1,35.5
			c0,3.5-1.8,5.2-5.3,5.1c-1.7,0-3.3-0.1-5,0c-3,0.3-3.9-1-4.4-3.9c-1-6-2.3-12.1-4.1-17.9c-1.2-3.9-3.8-7.2-8.6-7.1
			c-5,0-7.6,3.4-8.9,7.5c-3.9,12.7-3.2,25.1,4.4,36.4c2.7,4,5.9,7.7,9.3,11.1c17.3,16.9,24.4,37.7,23.3,61.5
			c-0.3,7.5-0.7,15.1-2.5,22.3c-7.3,29.3-23,35.9-48,30.3c-14.9-3.3-14.9-3.4-14.9-18.6c0-8.3,0-16.7,0-25c0-5.7,1-6.6,6.7-6.7
			C470,400.5,472.3,400.5,474.8,400.5z"/>
		<path class="st1" d="M966.8,314.4c-1.9-8.7-3.3-16.7-5.3-24.6c-1.2-4.8-4.6-7.1-10.4-5.8c0,1.5,0,3.1,0,4.8c0,42.8,0,85.6,0,128.4
			c0,3.3,0.1,6.7,0.4,10c0.4,4.8,1.8,8.9,7.3,9.8c0.2,0.8,0.3,1.3,0.3,1.7c0.2,12.5,0.8,11.7-11.5,11.7c-7.8,0-15.7,0-23.5,0
			c-6.6,0-7.2-0.6-7.2-7.1c0-1.8,0-3.7,0-5.9c7.1-1.7,8-7.4,8-13.5c0-46,0-91.9,0-137.9c0-0.6-0.1-1.3-0.2-1.9
			c-6.3-0.9-8.7,0.2-10.4,6.4c-2.1,7.7-3.3,15.5-4.9,23.5c-0.4,0.1-0.8,0.4-1.3,0.4c-13.7,0.3-12.3,0.6-12.3-11.9
			c0-11.3,0.1-22.7-0.1-34c-0.1-4.3,1.6-6,5.9-6c24.3,0.1,48.6,0.1,73,0c4.1,0,5.6,1.7,5.6,5.7c-0.1,13.5-0.1,27,0,40.5
			c0,4-1.4,5.9-5.6,5.7C972.1,314.3,969.4,314.4,966.8,314.4z"/>
		<path class="st1" d="M879.1,356.5c0,21.3-0.1,42.7,0.1,64c0,6.2-0.4,12.5,6.1,17c1.8,1.3,1.2,6.9,0.4,10.3c-0.3,1.2-4,2.4-6.1,2.5
			c-9.2,0.3-18.3,0-27.5,0.2c-4.4,0.1-6.4-1.5-6.3-6.1c0.1-3.9,0.2-7,3.9-9.8c2.1-1.6,2.8-5.9,3-9c0.5-6.8,0.2-13.7,0.2-20.5
			c0-37.8,0-75.7,0-113.5c0-5.9,0.3-11.7-5.9-16c-1.8-1.2-1.2-6.8-0.6-10.3c0.2-1.2,3.6-2.5,5.6-2.6c9.5-0.3,19,0,28.5-0.2
			c4.4-0.1,6,1.8,5.8,6c-0.2,3.8-0.2,6.8-3.6,10c-2.6,2.4-3.3,7.9-3.3,12C879,312.5,879.2,334.5,879.1,356.5
			C879.2,356.5,879.1,356.5,879.1,356.5z"/>
		<path class="st2" d="M666.4,364c14-1.5,19.9,2.2,21.4,15.6c1.2,11.6,1.2,23.6-0.1,35.1c-1.4,12.3-8.5,16.3-21.2,13.9
			C666.4,407.3,666.4,385.8,666.4,364z"/>
		<path class="st2" d="M666.3,341.9c0-19.3,0-38.2,0-57.1c9.9-3.6,18,0.2,20.4,10.2c2.7,11.5,2.6,23.2-0.3,34.6
			C683.5,340.7,678.5,343.6,666.3,341.9z"/>
	</g>
</g>
</svg>
