<?xml version="1.0" encoding="utf-8"?>
<!-- Generator: Adobe Illustrator 19.1.1, SVG Export Plug-In . SVG Version: 6.00 Build 0)  -->
<svg version="1.1" id="Layer_1" xmlns="http://www.w3.org/2000/svg" xmlns:xlink="http://www.w3.org/1999/xlink" x="0px" y="0px"
	 viewBox="0 0 90 90" style="enable-background:new 0 0 90 90;" xml:space="preserve">
<style type="text/css">
	.st0{fill:#FFFFFF;stroke:#000000;stroke-miterlimit:10;}
	.st1{fill:#010101;}
	.st2{font-family:'MyriadPro-Regular';}
	.st3{font-size:9.5px;}
</style>
<g>
	<g>
		<path class="st0" d="M75.9,77.1H14.1C10.2,77.1,7,73.9,7,70V8.1c0-3.9,3.2-7.1,7.1-7.1h61.8c3.9,0,7.1,3.2,7.1,7.1V70
			C83,73.9,79.8,77.1,75.9,77.1z"/>
		<path class="st1" d="M45.2,31.5c0-0.7,0.1-1.3,0.1-2c0-0.4,0.1-0.5,0.5-0.6c0.2,0,0.4,0,0.6,0c0.1,0,0.2,0.1,0.2,0.2
			c0,0.5,0,1.1-0.1,1.6c0,0.2,0,0.4,0,0.6c0.3,0,0.7,0,1.1,0.1c1.2,0.1,2.3,0.4,3.3,1.1c0.7,0.5,1.1,1.2,1.1,2.1
			c0,0.9-0.6,1.6-1.5,1.7c-0.3,0-0.6,0-0.9,0c-0.2,0-0.2-0.1-0.2-0.2c0.1-0.5,0.1-1,0-1.5c-0.2-1-0.9-1.5-1.8-1.7
			c-0.3-0.1-0.7-0.1-1-0.2c0,0.3,0,0.7,0,1c-0.1,2.3-0.2,4.6-0.3,6.8c0,0.2,0,0.2,0.2,0.3c1.1,0.5,2.3,1,3.4,1.7
			c0.8,0.5,1.4,1.1,1.9,1.8c0.5,0.8,0.7,1.7,0.6,2.6c-0.2,2.5-1.6,4.2-3.8,5.2c-0.8,0.4-1.7,0.6-2.6,0.8c-0.1,0-0.2,0.1-0.2,0.2
			c0,0.7,0,2.2-0.1,2.2c-0.3,0.3-1.3,0.1-1.3,0.1c-0.1-0.8,0.1-1.6,0.1-2.4c-0.4,0-0.8,0-1.2-0.1c-1.1-0.1-2.1-0.3-3-0.8
			c-0.8-0.4-1.4-1-1.7-1.8c-0.4-1-0.1-2.1,0.7-2.6c0.5-0.4,1.1-0.5,1.7-0.4c0.3,0.1,0.3,0.1,0.2,0.3c-0.1,0.5-0.2,1-0.1,1.5
			c0.1,0.6,0.3,1.1,0.8,1.5c0.8,0.7,1.8,1,2.8,1c0-0.1,0-0.1,0-0.1c0.1-2,0.2-4.1,0.2-6.1c0-0.7,0-1.4,0.1-2.2c0-0.2,0-0.2-0.2-0.3
			c-0.9-0.4-1.7-0.9-2.6-1.3c-0.7-0.4-1.4-0.9-1.9-1.6c-0.7-0.9-1-1.9-0.9-3c0.1-1.8,1-3.1,2.5-4.1c1-0.7,2.1-1.2,3.3-1.4
			C45,31.6,45.1,31.6,45.2,31.5z M46,43.6c-0.1,2.7-0.2,5.4-0.3,8.1c0.1,0,0.1,0,0.1,0c0.9-0.1,1.8-0.4,2.6-1c0.6-0.4,1.1-1,1.4-1.7
			c0.4-1.3,0.1-2.4-0.8-3.4c-0.5-0.6-1.2-1-1.9-1.4C46.8,44,46.4,43.8,46,43.6z M45.1,32.8c-1,0.1-2,0.6-2.7,1.2
			c-1.4,1.2-1.4,3-0.5,4.1c0.7,1.1,1.8,1.6,3,2.2C44.9,37.8,45,35.3,45.1,32.8z"/>
		<path d="M44.6,8.3L14.8,20.1c-0.2,0.1-0.4,0.3-0.4,0.6v1.8c0,0.3,0.3,0.6,0.6,0.6h29.8h29.8c0.3,0,0.6-0.3,0.6-0.6v-1.8
			c0-0.3-0.2-0.5-0.4-0.6L45.1,8.3C44.9,8.3,44.8,8.3,44.6,8.3z"/>
		<path d="M73.4,27.9H17c-0.4,0-0.8-0.4-0.8-0.8v-1.6c0-0.4,0.4-0.8,0.8-0.8h56.4c0.4,0,0.8,0.4,0.8,0.8v1.6
			C74.2,27.6,73.9,27.9,73.4,27.9z"/>
		<path d="M77.2,63v-2.2c0-0.3-0.3-0.6-0.6-0.6h-0.7c-0.3,0-0.6-0.3-0.6-0.6v-2.2c0-0.3-0.3-0.6-0.6-0.6H15.8
			c-0.3,0-0.6,0.3-0.6,0.6v2.2c0,0.3-0.3,0.6-0.6,0.6h-0.7c-0.3,0-0.6,0.3-0.6,0.6V63c0,0.3-0.3,0.6-0.6,0.6h-0.3
			c-0.3,0-0.6,0.3-0.6,0.6v2.2c0,0.3,0.3,0.6,0.6,0.6h65.9c0.3,0,0.6-0.3,0.6-0.6v-2.2c0-0.3-0.3-0.6-0.6-0.6h-0.3
			C77.5,63.6,77.2,63.3,77.2,63z"/>
		<path d="M24,54.9h-3.4c-0.6,0-1.1-0.5-1.1-1.1l0.6-23c0-0.6,0.5-1.1,1.1-1.1h2.3c0.6,0,1.1,0.5,1.1,1.1l0.5,23
			C25.1,54.4,24.6,54.9,24,54.9z"/>
		<path d="M35.7,54.9h-3.4c-0.6,0-1.1-0.5-1.1-1.1l0.6-23c0-0.6,0.5-1.1,1.1-1.1h2.3c0.6,0,1.1,0.5,1.1,1.1l0.5,23
			C36.8,54.4,36.3,54.9,35.7,54.9z"/>
		<path d="M58.2,54.9h-3.4c-0.6,0-1.1-0.5-1.1-1.1l0.6-23c0-0.6,0.5-1.1,1.1-1.1h2.3c0.6,0,1.1,0.5,1.1,1.1l0.5,23
			C59.4,54.4,58.9,54.9,58.2,54.9z"/>
		<path d="M70,54.9h-3.4c-0.6,0-1.1-0.5-1.1-1.1l0.6-23c0-0.6,0.5-1.1,1.1-1.1h2.3c0.6,0,1.1,0.5,1.1,1.1l0.5,23
			C71.1,54.4,70.6,54.9,70,54.9z"/>
	</g>
	<text transform="matrix(1 0 0 1 33.7037 87.5156)" class="st2 st3">Taxes</text>
</g>
</svg>
