<?xml version="1.0" encoding="utf-8"?>
<!-- Generator: Adobe Illustrator 19.2.0, SVG Export Plug-In . SVG Version: 6.00 Build 0)  -->
<svg version="1.1" id="VOTER_thumb_xA0_Image_1_" xmlns="http://www.w3.org/2000/svg" xmlns:xlink="http://www.w3.org/1999/xlink"
	 x="0px" y="0px" viewBox="0 0 864 720" style="enable-background:new 0 0 864 720;" xml:space="preserve">
<style type="text/css">
	.st0{display:none;fill:#CBCBFE;}
	.st1{fill:#EC1D25;}
	.st2{fill:#030303;}
	.st3{fill:#FEFEFE;}
</style>
<g>
	<g>
		<path class="st0" d="M1,1c288,0,576,0,864,0c0,240,0,480,0,720c-288,0-576,0-864,0C1,481,1,241,1,1z M358.5,446
			c-18,0-36.1,0-54.1,0c-0.8-1.8-1.6-3.6-2.3-5.5c-15.4-41.4-30.8-82.8-46.1-124.2c-4.6-12.4-9.3-24.8-14.3-38.2
			c-24.8,51.4-49.2,101.8-73.2,151.5c10.2,5.6,19.9,10.9,29.7,16.3c-9.9,0-19.9,0-29.9,0c0,83,0,165.4,0,247.9c82.4,0,164.6,0,247,0
			c0-1.2,0-2,0-2.8c0-63.8,0-127.7,0-191.5c0-1.2-0.1-2.3-0.2-3.5c1-1.5,1.8-3.2,3-4.6c17.3-20.9,33.7-42.6,52.2-62.5
			C518.9,376.3,575,332.3,633.2,291c1.6-1.1,3.2-2.3,4.7-3.5c-6.9-26.3-7.1-52.4-1.8-78.6c4.4-21.9,12.2-42.8,20.4-63.6
			c10.9-27.5,22.8-54.7,28.8-83.8c2.2-11,3.5-22.1,5.2-33.2c-0.5-0.2-0.9-0.3-1.4-0.5c-1.2,1-2.5,2-3.7,3
			c-40.1,35.4-75.5,75.2-109.6,116.3C510,226.7,450,310.5,392.2,395.9C380.9,412.6,369.7,429.3,358.5,446z"/>
		<path class="st1" d="M198.2,445.8c-9.7-5.3-19.4-10.7-29.7-16.3c24-49.6,48.4-100.1,73.2-151.5c5,13.4,9.6,25.8,14.3,38.2
			c15.4,41.4,30.7,82.8,46.1,124.2c0.7,1.9,1.5,3.7,2.3,5.5c1.6,4.5,3.2,8.9,4.8,13.4c4.9,13.2,9.7,26.5,14.9,40.5
			c9-14.2,17.3-27.4,25.7-40.5c2.9-4.4,5.8-8.9,8.7-13.3c11.2-16.7,22.4-33.5,33.7-50.2C450,310.5,510,226.7,575.9,147.2
			c34.1-41,69.5-80.8,109.6-116.2c1.2-1.1,2.5-2,3.7-3c0.5,0.2,0.9,0.3,1.4,0.5c-1.7,11.1-2.9,22.2-5.2,33.2
			c-6,29.2-17.9,56.3-28.8,83.8c-8.2,20.7-16,41.6-20.4,63.6c-5.3,26.2-5.1,52.3,1.8,78.6c-1.5,1.1-3.1,2.3-4.7,3.5
			C575,332.5,518.9,376.5,470.2,429c-18.4,19.8-34.9,41.6-52.2,62.5c-1.2,1.4-2,3.1-3,4.6c-4.4,6.5-8.9,13-13.3,19.6
			c-0.9,1.4-1.9,2.7-2.8,4.1c-31.7,50-53.4,104.5-71.4,160.6c-1.5,4.2-3.1,8.5-4.8,13.3c-2.5-4.9-4.6-9-6.7-13.1
			c-2.6-6.3-5.5-12.4-7.9-18.8c-14.1-38.3-28-76.7-42.1-115c-9.2-25-19.1-49.6-35.7-70.9c-4.5-5.8-10.2-10.8-15.3-16.1
			C209.4,454.9,203.8,450.3,198.2,445.8z"/>
		<path class="st2" d="M198.2,445.8c5.6,4.6,11.2,9.1,16.8,13.7c-10.9,0-21.9,0-33.1,0c0,73.7,0,147.1,0,220.8
			c44.9,0,89.5,0,134.1,0c2.1,4.1,4.2,8.2,6.7,13.1c1.8-4.8,3.3-9.1,4.8-13.3c24.6,0,49.2,0,74.2,0c0-55.1,0-109.9,0-164.6
			c4.4-6.5,8.9-13,13.3-19.6c0.1,1.2,0.2,2.3,0.2,3.5c0,63.8,0,127.7,0,191.5c0,0.8,0,1.7,0,2.8c-82.3,0-164.5,0-247,0
			c0-82.5,0-164.9,0-247.9C178.3,445.8,188.2,445.8,198.2,445.8z"/>
		<path class="st2" d="M358.5,446c-2.9,4.4-5.8,8.9-8.7,13.3c-13.5,0-27.1,0-40.6,0c-1.6-4.5-3.2-8.9-4.8-13.4
			C322.5,446,340.5,446,358.5,446z"/>
		<path class="st3" d="M316,680.3c-44.6,0-89.2,0-134.1,0c0-73.7,0-147.1,0-220.8c11.2,0,22.1,0,33.1,0c5.1,5.4,10.8,10.3,15.3,16.1
			c16.5,21.3,26.5,45.9,35.7,70.9c14.1,38.3,28,76.7,42.1,115C310.4,667.8,313.3,674,316,680.3z"/>
		<path class="st3" d="M401.6,515.4c0,54.8,0,109.6,0,164.6c-25,0-49.6,0-74.2,0c18-56.1,39.6-110.6,71.4-160.6
			C399.7,518.1,400.7,516.8,401.6,515.4z"/>
		<path class="st3" d="M309.3,459.4c13.5,0,27.1,0,40.6,0c-8.3,13.2-16.7,26.3-25.7,40.5C319,485.8,314.1,472.6,309.3,459.4z"/>
	</g>
</g>
</svg>
