<?xml version="1.0" encoding="utf-8"?>
<!-- Generator: Adobe Illustrator 19.2.0, SVG Export Plug-In . SVG Version: 6.00 Build 0)  -->
<svg version="1.1" id="Votewise_logo_no_background3_xA0_Image_1_"
	 xmlns="http://www.w3.org/2000/svg" xmlns:xlink="http://www.w3.org/1999/xlink" x="0px" y="0px" viewBox="0 0 1418 672"
	 style="enable-background:new 0 0 1418 672;" xml:space="preserve">
<g>
	<g>
		<path d="M850.8,300.5c-9.7-20.5-15.2-42-17.1-64.6C826.1,145.3,884.1,66,965.9,35.2c27.4-10.3,55.8-15.8,85-14.2
			c84.7,4.8,149.1,42.6,187.6,119.8c15,30.1,20.4,62.5,16.8,96c-1.4,13.3-4.5,26.5-6.8,39.7c-2.4,5.9-4.7,11.8-7.1,17.8
			c-18.2,41.2-46.9,73.1-85.7,95.8c-4.7,2.8-9.5,5.4-14.3,8.1c-10.7,4.2-21.5,8.4-32.2,12.7c-10.4,2.1-20.7,4.7-31.1,6.3
			c-40.6,6.5-79.9,1.4-118-14c-4.6-1.9-9.1-4.1-13.6-6.1C903,376.4,871,344.3,850.8,300.5z M1146.4,377.9c0.6-0.2,1.1-0.3,1.5-0.6
			c54.1-33.3,86.5-80.9,91.7-144.6c4.4-54-12.9-101.8-51.5-139.7c-61.4-60.1-134.4-74.7-214.4-45.2c-59.2,21.8-97.8,65-115,126.3
			c-1.1,3.8-2,8-1.3,11.7c6.8,37.2,13.8,74.3,20.9,111.4c1.3,7,1.4,14.8,4.7,20.8c8.1,14.6,19.8,26.6,32.8,38.1
			c1.6-8.7,3-16.7,4.6-25.3c5.1,3.2,9.7,5.8,14.1,8.7c6.4,4.2,7.5,4,13.3-1.3c3.1-2.9,2.8-4.5-0.6-6.8c-6.3-4.3-12.4-9-18.4-13.6
			c-3.8-2.9-5.5-6.4-4.6-11.6c11.7-69.1,23.3-138.2,34.7-207.3c0.6-3.8,1.7-4.9,5.6-4.9c20.8,0.2,41.7,0.1,62.5,0.1
			c1.6,0,3.1,0.2,5,0.3c-5.1,27.8-10.1,55-15.2,82.1c-13.1,70.5-26.2,141-39.4,211.5c-0.6,3.3,0.2,4.8,3.4,5.8
			c28.2,9.4,57,12.8,86.6,9.9c7-0.7,13.9-2.1,21.5-3.3c-1.5-2.9-2.5-5-3.5-7c-21.2-40.8-25.8-83.8-17.5-128.6
			c8.1-44.1,29.4-81.3,59.6-113.9c1.4-1.5,4.3-2.4,6.5-2.4c25.7-0.2,51.3-0.1,77-0.1c1.6,0,3.1,0,4.7,0c-3.1,3.6-6.4,6.1-9.6,8.7
			c-44.3,36-73.8,80.4-78.4,138.8C1125.1,325.3,1132.1,352.4,1146.4,377.9z"/>
		<path d="M850.8,300.5c20.2,43.8,52.2,75.9,95.6,96.6c1.6,1.4,3.2,2.8,4.5,3.9c-13,70.2-26.1,140.4-39.1,210.6c-0.2,0-0.5,0-0.7,0
			c-15.7-80-31.3-160.1-47-240.1c-0.4,0-0.9,0-1.3-0.1c-14.3,80-28.5,159.9-42.8,239.9c-0.3,0-0.6,0-0.8,0
			c-29.4-149.9-58.8-299.8-88.4-450.1c16.7,0,32.9,0,49.4,0c12.9,73.9,25.8,147.7,38.7,221.5c0.4,0,0.8,0.1,1.3,0.1
			c6.3-34.9,12.7-69.7,19-104.6c0.4,0,0.8-0.1,1.1-0.1c2,5.3,4,10.6,6.2,15.9C847.7,296.3,849.4,298.3,850.8,300.5z"/>
		<path d="M90.1,161.4c15.7,0,31,0,47,0c13,75.1,26.1,150.3,39.1,225.4c0.6,0,1.2,0.1,1.8,0.1c13-75.1,26.1-150.2,39.1-225.5
			c15.5,0,30.7,0,46.4,0c-28.7,150.1-57.3,299.9-85.9,449.7c-0.4,0-0.7,0-1.1,0.1C147.7,461.4,118.9,311.6,90.1,161.4z"/>
		<path d="M287.2,422c0-35.1,0.4-70.3-0.1-105.4c-0.6-37.7,27.6-61.4,61.7-62.7c20.6-0.8,38.8,4.7,53.4,20
			c10.4,11,15.6,24.3,15.6,39.4c0.1,72.5,0,144.9,0,217.4c0,30.6-21.2,54.9-51.4,59.2c-17.4,2.5-34.2,0.9-49.8-7.8
			c-19.4-10.9-29-28-29.3-50C286.9,495.3,287.2,458.6,287.2,422z M376.4,421.5c0-32.3,0-64.6,0-96.9c0-4.1-0.3-8.3-0.8-12.4
			c-1.5-11.1-6.6-16.1-17.9-17c-4.3-0.3-8.6-0.2-12.9,0.4c-7.5,1-12.6,5.4-14.2,12.8c-1.2,5.6-1.8,11.5-1.8,17.3
			c-0.1,57.3-0.1,114.6-0.1,171.9c0,9.8,0,19.6,0.4,29.4c0.7,15.6,6.5,21.9,22,22.3c14.3,0.4,23.6-2.1,24.9-21.8c0.2-4,0.4-8,0.4-12
			C376.4,484.1,376.4,452.8,376.4,421.5z"/>
		<path d="M647.1,453.1c24.6,0,48.9,0,73.6,0c0,12.9,0,25.4,0,38.5c-24.4,0-48.8,0-73.9,0c0,10.9,0,21.4,0,31.8c0,0.5,0.1,1,0.1,1.5
			c0.6,15.1,2.5,16.9,17.9,16.9c18.5,0,37,0,55.9,0c0,13.6,0,27,0,40.7c-1.2,0.1-2.5,0.4-3.8,0.4c-21.3,0-42.7,0.3-64-0.3
			c-17.3-0.5-32.4-6.3-41.1-22.7c-4.9-9.3-6.6-19.5-6.7-29.9c-0.1-12.5,0-25,0-38.2c-8,0-15.8-0.2-23.5,0.1c-4,0.2-6.2-1.1-8.3-4.5
			c-6.7-11.2-13.9-22.2-21.3-34c18,0,35.2,0,53,0c0-63.9,0-127.2,0-190.9c38.8,0,77.1,0,115.7,0c0,13.3,0,26.6,0,40.5
			c-24.3,0-48.8,0-73.7,0C647.1,353.3,647.1,402.8,647.1,453.1z"/>
		<path d="M1241.3,294.3c2.4-5.9,4.7-11.9,7.1-17.8c1.6-5,3.2-10.1,4.6-14.5c33.6,0,67.1,0,100.8,0c0,14,0,27.2,0,41
			c-24.5,0-48.9,0-73.7,0c0,50.2,0,99.9,0,150.1c24.6,0,49,0,73.7,0c0,13,0,25.4,0,38.3c-24.4,0-48.8,0-74.1,0c0,2.9,0,5.3,0,7.7
			c0.1,9.3,0,18.7,0.2,28c0.2,11.5,3.1,14.5,14.7,14.5c18.2,0.1,36.3,0,54.5,0c1.5,0,2.9,0.1,4.7,0.2c0,13.5,0,26.8,0,40.5
			c-1.2,0.2-2.5,0.4-3.8,0.4c-21.3,0-42.7,0.3-64-0.3c-17.3-0.5-32.4-6.2-41.1-22.6c-5-9.3-6.6-19.5-6.7-29.9c-0.2-12.5,0-25,0-38.3
			c-7.3,0-14.4-0.4-21.4,0.1c-5.4,0.4-8.7-1.3-11.5-6.2c-6.2-10.8-13.1-21.1-20.2-32.4c17.9,0,35.1,0,53.1,0c0-2.1,0-3.7,0-5.3
			c0-45.3,0.4-90.7-0.5-136C1237.6,305.4,1241.4,300.5,1241.3,294.3z"/>
		<path d="M482.2,303.3c-14.3,0-28,0-42.2,0c0-13.8,0-27.2,0-40.8c42.3,0,84.3,0,126.7,0c0,13.4,0,26.6,0,40.5
			c-14.1,0-28.2,0-42.8,0c0,93.5,0,186.4,0,279.5c-14.1,0-27.6,0-41.7,0C482.2,489.4,482.2,396.6,482.2,303.3z"/>
		<path d="M1109.2,410.9c10.7-4.2,21.5-8.4,32.2-12.7c1.9-0.5,3.8-1,5.6-1.5c11.9,23.3,25.1,46.1,35.5,70
			c13.9,31.7,7.7,62.9-7.8,92.6c-3.8,7.3-8.9,14-13.5,20.9c-0.8,1.2-2.5,2.4-3.8,2.4c-16.8,0.2-33.5,0.1-51,0.1
			c6.8-7.6,13.3-14.4,19.2-21.6c12.7-15.5,21.6-32.6,22.5-53.2c0.7-15.3-3.3-29.3-10.5-42.6c-9.1-17-18.2-34-27.3-51
			C1109.9,413.3,1109.6,412.1,1109.2,410.9z"/>
		<path d="M1022.4,420.6c14.7,0,29.6,0,43.1,0c-0.4,1-1.6,2.5-1.6,4.1c-0.1,14.8-0.1,29.6-0.1,44.4c0,36.6,0,73.2,0,109.9
			c0,1.1-0.1,2.3-0.2,3.6c-13.7,0-27.2,0-41.2,0C1022.4,528.6,1022.4,474.6,1022.4,420.6z"/>
		<path d="M1257.3,233.7c0-8.9,0-17.8,0-26.7c0.1,0,0.2,0,0.2,0c0,8.9,0,17.9,0,26.8C1257.5,233.8,1257.4,233.8,1257.3,233.7z"/>
		<path d="M1032.2,19.5c8.3,0,16.5,0,24.8,0c0,0.1,0,0.2,0,0.3c-8.3,0-16.6,0-24.8,0C1032.2,19.7,1032.2,19.6,1032.2,19.5z"/>
		<path d="M831.7,210c0,6.9,0,13.9,0,20.8c-0.1,0-0.1,0-0.2,0c0-6.9,0-13.9,0-20.8C831.6,210,831.7,210,831.7,210z"/>
	</g>
</g>
</svg>
