<?xml version="1.0" encoding="utf-8"?>
<!-- Generator: Adobe Illustrator 19.2.0, SVG Export Plug-In . SVG Version: 6.00 Build 0)  -->
<svg version="1.1" xmlns="http://www.w3.org/2000/svg" xmlns:xlink="http://www.w3.org/1999/xlink" x="0px" y="0px"
	 viewBox="0 0 468 429" style="enable-background:new 0 0 468 429;" xml:space="preserve">
<style type="text/css">
	.st0{enable-background:new    ;}
	.st1{fill-rule:evenodd;clip-rule:evenodd;fill:#96ED19;}
	.st2{fill-rule:evenodd;clip-rule:evenodd;fill:#060600;}
	.st3{fill-rule:evenodd;clip-rule:evenodd;fill:#F7F7F3;}
	.st4{fill-rule:evenodd;clip-rule:evenodd;fill:#010101;}
</style>
<g id="Shape_1_1_" class="st0">
	<g id="Shape_1">
		<g>
			<ellipse class="st1" cx="222" cy="214" rx="185" ry="181"/>
		</g>
	</g>
</g>
<g id="Shape_2_1_" class="st0">
	<g id="Shape_2">
		<g>
			<path class="st2" d="M182.7,147.1c0-10.7-28.5-36.6-39.1-36.6c-10.6,0-66.7,37.4-66.7,48.2s33.5,77.5,44.1,77.5
				C229.5,236.1,182.7,222,182.7,147.1z"/>
		</g>
	</g>
</g>
<g id="Shape_7_1_" class="st0">
	<g id="Shape_7">
		<g>
			<ellipse class="st3" cx="137.5" cy="200.1" rx="11.5" ry="33.9"/>
		</g>
	</g>
</g>
<g id="Shape_3_1_" class="st0">
	<g id="Shape_3">
		<g>
			<path class="st2" d="M297.8,97.6c-10.5,0-58,46.8-58,55.9c0,9.1,33.7,64.7,44.2,64.7c10.5,0,78.9-49.8,78.9-58.9
				C362.9,150.2,308.3,97.6,297.8,97.6z"/>
		</g>
	</g>
</g>
<g id="Shape_6_1_" class="st0">
	<g id="Shape_6">
		<g>
			<path class="st4" d="M313.9,312c-101.8-51.7-104.3-54.6-204.9,0c-31.1,40.3-9.9,47.5,27.2,20.3c69.6-6.1,75.4-3.8,177.7,15.9
				C337.3,356.1,343.6,344.1,313.9,312z"/>
		</g>
	</g>
</g>
<g id="Shape_8_1_" class="st0">
	<g id="Shape_8">
		<g>
			<ellipse class="st3" cx="313.6" cy="132.9" rx="33.4" ry="9.9"/>
		</g>
	</g>
</g>
</svg>
