<?xml version="1.0" encoding="utf-8"?>
<!-- Generator: Adobe Illustrator 19.2.0, SVG Export Plug-In . SVG Version: 6.00 Build 0)  -->
<svg version="1.1" id="INTEREST_GROUPthumb_xA0_Image_1_"
	 xmlns="http://www.w3.org/2000/svg" xmlns:xlink="http://www.w3.org/1999/xlink" x="0px" y="0px" viewBox="0 0 864 720"
	 style="enable-background:new 0 0 864 720;" xml:space="preserve">
<style type="text/css">
	.st0{display:none;fill:#CBCBFE;}
	.st1{fill:#010101;}
	.st2{fill:#FDFDFC;}
	.st3{fill:#999933;}
	.st4{fill:#FDFDFD;}
	.st5{fill:#B7B771;}
	.st6{fill:#CBCBFE;}
</style>
<g>
	<g>
		<path class="st0" d="M1,720.8C1,480.9,1,241,1,1c288,0,576,0,864,0c0,239.9,0,479.7,0,719.8C577,720.8,289,720.8,1,720.8z
			 M644.2,139.1c-2.1-6.9-3.7-13.9-6.3-20.6c-2-5.2-4.7-10.2-7.7-14.8c-3.3-5.1-6-10.7-10.9-14.9c-4.4-3.8-7.1-9.5-11.1-13.9
			c-5-5.7-11.6-8.9-19.2-9.8c-4.1-0.5-8.2-0.8-12.3-1.3c-8.4-0.9-16.8-2.4-25.2-2.6c-5.9-0.1-11.8,2.3-17.7,2.6
			c-8,0.4-14.8,3.7-21.7,7.2c-3.3-2.7-6.5-5.5-9.8-8.2c-5.5-7-11.7-13.1-19.5-18c-9.4-6-18.8-11.3-29.3-15c-4-1.4-7.6-3.7-11.4-5.6
			c0.2-0.4,0.4-0.8,0.6-1.3c-4.1,0-8.3,0.2-12.4-0.1c-2.7-0.1-3.5,1-3.4,3.4c-6.2,0.1-12.3,0.5-18.5,0.4c-3-0.1-4.8,0.9-6.4,3.4
			c-6.9,10.8-14,21.5-21.3,32c-1.2,1.7-3.4,3.1-5.4,3.6c-14.5,3.7-29.1,6.9-43.5,10.7c-3,0.8-5.3,0.6-7.9-0.9
			c-10.4-6.3-21-12.2-31.3-18.6c-2.6-1.6-4.5-1.6-7,0.1c-15.4,10.1-30.9,20.3-46.6,30c-4.2,2.6-5.5,5.8-5.9,10.3
			c-1.1,12.1-2.3,24.2-3.7,36.3c-0.2,1.8-1.3,3.7-2.5,5c-7.2,7.6-14.5,15.2-21.9,22.6c-1.2,1.2-2.9,2.4-4.5,2.5
			c-15.2,1-30.5,1.8-46.1,2.7c-12.3,20.9-24.8,42.3-37.3,63.5c8.1,14.9,16.2,29.6,24.1,44.4c0.8,1.5,0.7,3.8,0.3,5.6
			c-1.9,9.1-4.4,18.1-6,27.3c-0.6,3.7-2.3,5.4-5.4,6.7c-11.7,5-23.3,10.3-33.5,14.9c0,26.7-0.1,52.5,0.1,78.3c0,1.9,1.6,4.4,3.2,5.4
			c8.2,5.6,16.4,11.5,25.2,16.2c10.6,5.6,18.1,13,19.3,25.5c0.1,1.1,0.5,2.3,1.1,3.3c5.6,9.6,3.4,18.1-2.1,27.1
			c-6.6,10.9-11.9,22.5-18.1,34.4c12.2,19.8,24.8,40.3,37.4,60.8c1.8-0.6,3.4-1.4,4.9-1.5c14.7-1.5,29.5-3,44.3-4.3
			c1.5-0.1,3.5,0.8,4.7,1.9c5.9,5.3,11.8,10.8,17.4,16.5c1.5,1.6,2.7,4.2,2.8,6.3c0.2,13.8,0.2,27.7,0.1,41.5c0,3.1,0.9,4.7,3.6,6.3
			c14.7,8.5,29.3,17.2,43.9,25.8c5.1,3,10.2,6,14.7,8.7c2.7-2.3,4.8-4.5,7.2-6.1c10.4-7.2,21-14,31.4-21.3c2.8-1.9,5.2-2,8.3-1.3
			c10.5,2.4,21.2,4.4,31.7,6.9c1.9,0.5,4.2,2,5.1,3.7c7.1,13,14.2,26,20.8,39.2c1.4,2.8,3.1,3.4,5.7,3.5c8.3,0.3,16.6,0.7,25,1.1
			c2.2,4.9,6.3,0.9,9.4,1.7c-0.9-0.3-1.9-0.6-3.8-1.2c4.8-1.5,8.7-2.5,12.5-3.8c4.9-1.7,9.7-3.4,14.4-5.5c4.1-1.9,8-4.5,12-6.7
			c8.9-4.8,17.6-10,22.8-19.3c4.4-1.1,8.8-2.1,13.2-3.2c3.8,2.1,7.7,4.1,11.3,6.5c6.2,4.2,13.1,5.1,20.2,5.6
			c12,0.9,23.4-1.5,34.4-5.8c6.4-2.5,12.1-7,18.6-8.8c5.9-1.6,8.6-6,11-10c6.2-10.4,11.9-21.2,16.6-32.3c2.4-5.7,2.9-12.4,3.3-18.8
			c0.4-6-0.5-12.1-0.9-18.2c3.1-2,6.2-4.1,9.3-6.1c4.7,0,9.3,0.2,14,0.1c4.1-0.2,8.3-0.2,12.2-1.4c4.1-1.2,7.7-4.1,11.8-5.4
			c8.5-2.8,15.9-7.4,23-12.8c3.9-2.9,7.4-6.3,11.3-9.1c8.4-5.8,16.9-11.4,17.9-23.1c0.9-9.8,2.5-19.5,3.4-29.2c0.5-5,0.2-10,0.1-15
			c-0.2-5,0-10.1-1.2-14.8c-2-7.4-4.4-14.7-8.8-21.2c2-3,3.9-6.1,5.9-9.1c0.2-0.3,0.3-0.6,0.6-0.8c8.3-5,15.1-11.6,20.1-20
			c2.9-5,6.2-9.8,9-14.8c3.4-6.2,6.5-12.4,9.5-18.8c3.6-7.6,1.2-15.8,2.1-23.7c1.3-11-3.9-20.2-8.4-29.4
			c-3.9-7.9-8.8-15.2-14.3-22.3c-5.1-6.7-10.8-12.3-17.5-17.2c-1-4.7-2.1-9.4-3.1-14.1c0.7-1,1.8-1.9,2-3c1.9-9.3,5.1-18.2,4.2-28
			c-0.8-10-0.5-20-1.2-30c-0.4-5.5-2.1-11-2.8-16.5c-0.6-4.8-2.4-8.8-5.8-11.9c-5.2-4.7-10.7-9-16.1-13.5c-2.4-2-4.8-4.1-7.5-5.6
			c-12.4-6.9-24.5-14.5-38.7-17.2c0-0.8,0.4-1.9,0.1-2.2c-4.3-4.1-8.7-8.1-13.2-12C646.4,138.3,645.1,138.9,644.2,139.1z"/>
		<path class="st1" d="M433.9,706.7c-8.3-0.4-16.6-0.8-25-1.1c-2.6-0.1-4.3-0.7-5.7-3.5c-6.6-13.2-13.7-26.3-20.8-39.2
			c-0.9-1.7-3.2-3.3-5.1-3.7c-10.5-2.5-21.1-4.4-31.7-6.9c-3.1-0.7-5.5-0.7-8.3,1.3c-10.4,7.3-21,14.2-31.4,21.3
			c-2.4,1.6-4.5,3.8-7.2,6.1c-4.5-2.7-9.6-5.7-14.7-8.7c-14.6-8.6-29.2-17.3-43.9-25.8c-2.7-1.5-3.6-3.2-3.6-6.3
			c0.2-13.8,0.2-27.7-0.1-41.5c0-2.2-1.2-4.8-2.8-6.3c-5.6-5.7-11.5-11.1-17.4-16.5c-1.2-1.1-3.2-2-4.7-1.9
			c-14.8,1.3-29.5,2.8-44.3,4.3c-1.6,0.2-3.1,1-4.9,1.5c-12.6-20.5-25.2-41-37.4-60.8c6.2-11.9,11.5-23.5,18.1-34.4
			c5.5-9,7.7-17.6,2.1-27.1c-0.6-1-0.9-2.2-1.1-3.3c-1.2-12.5-8.6-19.8-19.3-25.5c-8.8-4.6-17-10.5-25.2-16.2
			c-1.6-1.1-3.2-3.6-3.2-5.4c-0.2-25.8-0.1-51.6-0.1-78.3c10.2-4.5,21.8-9.8,33.5-14.9c3.2-1.4,4.8-3,5.4-6.7c1.6-9.2,4-18.2,6-27.3
			c0.4-1.8,0.5-4.1-0.3-5.6c-7.9-14.8-15.9-29.5-24.1-44.4c12.5-21.2,25-42.6,37.3-63.5c15.6-0.9,30.9-1.7,46.1-2.7
			c1.6-0.1,3.3-1.3,4.5-2.5c7.4-7.5,14.7-15,21.9-22.6c1.2-1.3,2.3-3.3,2.5-5c1.4-12.1,2.7-24.2,3.7-36.3c0.4-4.5,1.7-7.7,5.9-10.3
			c15.7-9.7,31.2-19.8,46.6-30c2.6-1.7,4.4-1.7,7-0.1c10.4,6.3,20.9,12.3,31.3,18.6c2.6,1.6,4.8,1.7,7.9,0.9
			c14.5-3.8,29.1-7,43.5-10.7c2-0.5,4.2-2,5.4-3.6c7.3-10.6,14.4-21.2,21.3-32c1.6-2.6,3.4-3.5,6.4-3.4c6.2,0.1,12.3-0.2,18.5-0.4
			c2.2,0.8,4.5,1.6,7.1,2.6c0,1.8,0,3.9,0,6.1c0,221.6,0,443.1,0,664.7C434,702.1,433.9,704.4,433.9,706.7z M381.2,596
			c0-1.7,0-3,0-4.4c0-32.3-0.1-64.6,0.1-96.9c0-3.5-1-5.1-4.3-6.5c-34.5-14.3-59.2-38.7-73.7-73.2c-1.4-3.3-2.9-4.4-6.4-4.4
			c-30.5,0.1-61,0.1-91.4,0.1c-1.4,0-2.8,0.2-4.3,0.2C217.6,502.1,290.4,577.5,381.2,596z M381.2,136.1
			c-91.3,18.8-161.3,93.2-178.9,179c0.6,0.1,1.3,0.4,1.9,0.4c32.2,0,64.3,0.1,96.5-0.1c1.5,0,3.7-1.8,4.5-3.3
			c15.4-32,39.4-54.8,72.3-68.3c3.3-1.3,3.9-3.1,3.9-6.3c-0.1-32.2-0.1-64.3-0.1-96.5C381.2,139.4,381.2,138,381.2,136.1z"/>
		<path class="st2" d="M725.9,278.6c1,4.7,2.1,9.4,3.1,14.1c-56.4,12.7-112.7,25.3-169.2,38c0.4,1.9,0.7,2.8,0.8,3.8
			c2.5,12.7,8.6,24.7,6.2,38.2c-0.1,0.3,0.1,0.7,0,1c-0.9,2.9-1.4,6-2.7,8.6c-2.2,4.4-1.6,7.2,2.5,8.4
			c53.7,16.4,107.5,32.7,161.3,49c-2,3-3.9,6.1-5.9,9.1c-3.6,4.7-7.7,4.1-13,2.3c-47.8-16.5-95.6-32.7-143.4-49.1
			c-4.2-1.4-5.8-1.1-7.5,3.5c-3.4,9.2-7.2,18.3-12.1,26.7c-5.5,9.2-12.4,17.6-19,26.7c37.8,39.1,76,78.5,114.2,118.1
			c-1.1,1.4-2,2.6-2.9,3.7c-3.1,2-6.2,4.1-9.3,6.1l0,0c-0.3-0.7-0.6-1.3-0.9-2c-0.5-0.7-1-1.3-1.5-1.9
			c-34.2-38.2-68.5-76.4-102.6-114.6c-1.3-1.4-2-3.4-3-5.3c-14.7,12.9-29.4,21.5-45.8,27.3c-3.7,1.3-4.3,2.6-3.4,6.4
			c14,54.9,27.9,109.8,41.7,164.8c0.6,2.3,0.5,4.8,0.8,7.2c-4.4,1.1-8.8,2.1-13.2,3.2c-12.5-59.1-25-118.2-37.5-177.9
			c-9.1,2.1-17.5,4.1-26.2,6.1c-0.2-2.4-0.3-3.7-0.3-5c0-85.6,0-171.2,0-256.8c0-5.3,1.4-6.3,6.9-5.4c4.4,1.1,8.8,2.1,13.2,3.2
			c1,0.2,1.9,0.3,2.9,0.5c2,1.1,4,3.5,6.3,0.4c0.1-0.3,0.4-0.6,0.4-0.9c9.5-46.8,18.9-93.6,28.4-140.3c2.2-11.1,4.8-22.1,7.2-33.1
			c3.3,2.7,6.5,5.5,9.8,8.2c1.7,2.6,4,4.5,2.9,8.6c-12,44.1-23.7,88.3-35.4,132.5c-2.5,9.3-4.9,18.6-7.4,28.2
			c19.4,6.6,35.9,16.8,51.2,30.4c1.3-1.5,2.2-2.7,3.2-3.8c34.5-37.3,69-74.5,103.5-111.8c4.8-5.2,9.5-10.7,14.2-16
			c0.9-0.2,2.2-0.8,2.7-0.4c4.5,3.9,8.9,7.9,13.2,12c0.4,0.3,0,1.4-0.1,2.2c-0.8,0.6-1.6,1.2-2.3,1.9
			c-40.6,38.5-81.2,77-121.7,115.5c-2.2,2-4.3,4.1-5.6,5.3c9.3,15.2,18.3,29.8,27.7,45c26.7-7.3,54.6-14.9,82.4-22.6
			c27.8-7.7,55.7-15.3,83.6-23C724.8,276.4,725.3,277.5,725.9,278.6z"/>
		<path class="st3" d="M638.3,580.9c0.9-1.2,1.8-2.3,2.9-3.7c-38.2-39.5-76.4-79-114.2-118.1c6.6-9.1,13.5-17.5,19-26.7
			c5-8.4,8.7-17.6,12.1-26.7c1.7-4.5,3.3-4.9,7.5-3.5c47.8,16.4,95.7,32.6,143.4,49.1c5.3,1.8,9.3,2.4,13-2.3
			c4.4,6.5,6.8,13.8,8.8,21.2c1.3,4.7,1.1,9.9,1.2,14.8c0.2,5,0.4,10-0.1,15c-0.9,9.8-2.5,19.5-3.4,29.2
			c-1.1,11.7-9.5,17.3-17.9,23.1c-4,2.8-7.5,6.2-11.3,9.1c-7,5.4-14.5,10-23,12.8c-4.1,1.4-7.7,4.2-11.8,5.4
			c-3.9,1.1-8.1,1.2-12.2,1.4C647.6,581.1,643,580.9,638.3,580.9z"/>
		<path class="st3" d="M644.2,139.1c-4.7,5.4-9.3,10.8-14.2,16c-34.5,37.3-69,74.6-103.5,111.8c-1,1.1-1.9,2.3-3.2,3.8
			c-15.2-13.6-31.8-23.8-51.2-30.4c2.5-9.6,4.9-18.9,7.4-28.2C491.3,168,503,123.8,515,79.7c1.1-4.1-1.2-6-2.9-8.6
			c6.9-3.5,13.7-6.8,21.7-7.2c5.9-0.3,11.8-2.7,17.7-2.6c8.4,0.1,16.8,1.7,25.2,2.6c4.1,0.4,8.2,0.8,12.3,1.3
			c7.6,0.9,14.2,4,19.2,9.8c3.9,4.5,6.7,10.1,11.1,13.9c4.9,4.2,7.6,9.8,10.9,14.9c3,4.7,5.7,9.6,7.7,14.8
			C640.4,125.2,642.1,132.2,644.2,139.1z"/>
		<path class="st3" d="M444,233.1c-5.5-0.9-6.9,0.1-6.9,5.4c0,85.6,0,171.2,0,256.8c0,1.3,0.2,2.6,0.3,5c8.7-2,17.1-4,26.2-6.1
			c12.6,59.6,25.1,118.8,37.5,177.9c-5.2,9.2-13.9,14.4-22.8,19.3c-4,2.2-7.9,4.7-12,6.7c-4.7,2.1-9.5,3.8-14.4,5.5
			c-3.8,1.3-7.7,2.4-12.5,3.8c2,0.6,2.9,0.9,3.8,1.2c-3.1-0.8-7.2,3.2-9.4-1.7c0-2.3,0.1-4.7,0.1-7c0-221.6,0-443.1,0-664.7
			c0-2.1,0-4.3,0-6.1c-2.7-1-4.9-1.8-7.1-2.6c-0.1-2.4,0.7-3.6,3.4-3.4c4.1,0.2,8.3,0.1,12.4,0.1c-0.2,0.4-0.4,0.8-0.6,1.3
			c3.8,1.9,7.5,4.2,11.4,5.6c10.5,3.7,19.9,9,29.3,15c7.7,4.9,13.9,11,19.5,18c-2.4,11-5,22-7.2,33.1
			c-9.5,46.8-18.9,93.6-28.4,140.3c-0.1,0.3-0.3,0.6-0.4,0.9c-2.1-0.1-4.2-0.3-6.2-0.4c-1-0.2-1.9-0.3-2.9-0.5
			c-2.4-1.2-5.2-1.9-7-3.7C447.5,230.1,445.9,230.4,444,233.1z"/>
		<path class="st3" d="M727.9,439.9c-53.8-16.3-107.5-32.7-161.3-49c-4.2-1.3-4.7-4-2.5-8.4c1.3-2.7,1.9-5.7,2.7-8.6
			c0.1-0.3,0-0.7,0-1c2.4-13.5-3.7-25.5-6.2-38.2c-0.2-1-0.4-1.9-0.8-3.8c56.5-12.7,112.8-25.4,169.2-38
			c6.7,4.9,12.3,10.6,17.5,17.2c5.5,7.1,10.4,14.4,14.3,22.3c4.5,9.2,9.7,18.4,8.4,29.4c-0.9,7.9,1.5,16.1-2.1,23.7
			c-3,6.4-6.2,12.6-9.5,18.8c-2.8,5.1-6,9.8-9,14.8c-5,8.4-11.7,15-20.1,20C728.2,439.2,728.1,439.6,727.9,439.9z"/>
		<path class="st3" d="M514.3,668.9c-0.2-2.4-0.2-4.9-0.8-7.2c-13.8-54.9-27.7-109.9-41.7-164.8c-1-3.8-0.3-5,3.4-6.4
			c16.3-5.7,31.1-14.3,45.8-27.3c1,1.8,1.7,3.8,3,5.3c34.2,38.2,68.4,76.4,102.6,114.6c0.6,0.6,1,1.3,1.5,1.9c0.3,0.7,0.6,1.3,0.9,2
			l0,0c0.3,6.1,1.2,12.2,0.9,18.2c-0.4,6.3-0.8,13.1-3.3,18.8c-4.7,11.1-10.4,22-16.6,32.3c-2.4,4-5.2,8.4-11,10
			c-6.5,1.8-12.2,6.3-18.6,8.8c-11,4.3-22.5,6.7-34.4,5.8c-7.1-0.5-14.1-1.4-20.2-5.6C522,672.9,518.1,671,514.3,668.9z"/>
		<path class="st3" d="M725.9,278.6c-0.6-1.1-1.1-2.3-1.8-3.7c-27.9,7.7-55.7,15.4-83.6,23c-27.9,7.7-55.7,15.3-82.4,22.6
			c-9.3-15.1-18.3-29.8-27.7-45c1.3-1.2,3.4-3.3,5.6-5.3c40.6-38.5,81.2-77,121.7-115.5c0.7-0.7,1.5-1.3,2.3-1.9
			c14.2,2.8,26.3,10.3,38.7,17.2c2.7,1.5,5.1,3.7,7.5,5.6c5.4,4.4,11,8.8,16.1,13.5c3.4,3.1,5.2,7.2,5.8,11.9
			c0.7,5.5,2.4,11,2.8,16.5c0.7,10,0.4,20,1.2,30c0.8,9.8-2.4,18.8-4.2,28C727.7,276.7,726.6,277.7,725.9,278.6z"/>
		<path class="st4" d="M381.2,596c-90.8-18.5-163.6-93.8-180.2-185c1.5-0.1,2.9-0.2,4.3-0.2c30.5,0,61,0.1,91.4-0.1
			c3.5,0,5,1.1,6.4,4.4c14.5,34.5,39.2,58.9,73.7,73.2c3.3,1.4,4.4,3,4.3,6.5c-0.1,32.3-0.1,64.6-0.1,96.9
			C381.2,592.9,381.2,594.2,381.2,596z"/>
		<path class="st4" d="M381.2,136.1c0,1.9,0,3.4,0,4.8c0,32.2,0,64.3,0.1,96.5c0,3.2-0.6,5-3.9,6.3c-32.8,13.4-56.8,36.3-72.3,68.3
			c-0.7,1.5-2.9,3.3-4.5,3.3c-32.2,0.2-64.3,0.1-96.5,0.1c-0.6,0-1.3-0.2-1.9-0.4C220,229.2,289.9,154.9,381.2,136.1z"/>
		<path class="st5" d="M444,233.1c1.9-2.8,3.6-3,6.2-0.5c1.8,1.8,4.6,2.5,7,3.7C452.8,235.3,448.4,234.2,444,233.1z"/>
		<path class="st5" d="M460,236.8c2.1,0.1,4.2,0.3,6.2,0.4C464,240.3,462.1,237.9,460,236.8z"/>
		<path class="st6" d="M629,587c-0.3-0.7-0.6-1.3-0.9-2C628.4,585.7,628.7,586.4,629,587z"/>
	</g>
</g>
</svg>
