<?xml version="1.0" encoding="utf-8"?>
<!-- Generator: Adobe Illustrator 19.2.0, SVG Export Plug-In . SVG Version: 6.00 Build 0)  -->
<svg version="1.1" id="ADVOCATE_xA0_Image_1_" xmlns="http://www.w3.org/2000/svg" xmlns:xlink="http://www.w3.org/1999/xlink"
	 x="0px" y="0px" viewBox="0 0 479 671" style="enable-background:new 0 0 479 671;" xml:space="preserve">
<style type="text/css">
	.st0{fill:#010101;}
	.st1{fill:#FCFCFB;}
	.st2{fill:#999999;}
</style>
<g>
	<g>
		<path class="st0" d="M1,336C1,225.7,1,115.3,0.9,5c0-3.4,0.7-4.1,4.1-4.1C162,1,319,1,476,0.9c3.4,0,4.1,0.7,4.1,4.1
			c-0.1,221-0.1,442,0,663c0,3.4-0.7,4.1-4.1,4.1c-157-0.1-314-0.1-471,0c-3.4,0-4.1-0.7-4.1-4.1C1,557.3,1,446.7,1,336z
			 M464.9,334.6c0-105.5,0-211,0.1-316.4c0-4-0.8-5.2-5.1-5.2c-145.8,0.1-291.6,0.1-437.4,0c-4.7,0-5.6,1.3-5.6,5.7
			c0.1,210.5,0.1,420.9,0,631.4c0,4.7,0.9,6,5.8,6c145.6-0.2,291.3-0.2,436.9,0c4.6,0,5.3-1.3,5.3-5.5
			C464.9,545.2,464.9,439.9,464.9,334.6z"/>
		<path class="st1" d="M464.9,334.6c0,105.3,0,210.6,0.1,315.9c0,4.2-0.7,5.5-5.3,5.5c-145.6-0.2-291.3-0.2-436.9,0
			c-4.9,0-5.8-1.3-5.8-6c0.1-210.5,0.1-420.9,0-631.4c0-4.4,0.8-5.7,5.6-5.7c145.8,0.1,291.6,0.1,437.4,0c4.2,0,5.1,1.2,5.1,5.2
			C464.9,123.7,464.9,229.1,464.9,334.6z M238,173.1c-3.5,0.1-7,0.4-10.5,0.1c-3.3-0.3-5.1,1-6.7,3.8c-3.9,6.7-8.3,13.2-12.4,19.9
			c-1.2,2-2.6,3-5,3.4c-9.2,1.6-18.2,3.8-27,7.1c-2.3,0.9-3.8,0.3-5.5-0.8c-6.3-4-12.8-7.8-19-12c-2.3-1.5-3.8-1.6-6.1,0.1
			c-9.8,6.9-19.7,13.7-29.6,20.3c-2.2,1.5-3.1,3.2-3.3,5.6c-0.6,7.3-1.5,14.6-2,21.9c-0.3,3.8-1.4,6.9-4.3,9.6
			c-4.1,3.9-7.7,8.3-11.4,12.6c-1.1,1.3-2,2.4-4,2.5c-8.6,0.5-17.3,1.4-25.9,1.6c-2.7,0-3.7,0.9-4.8,2.9
			c-6.9,12.7-13.9,25.4-21.1,37.9c-1.2,2.2-1.1,3.7,0,5.7c4.5,8.5,8.8,17.1,13.3,25.7c1,2,1.5,3.9,1,6.2c-1.7,7.1-1.4,15.7-5.5,20.9
			c-4.1,5.1-12.6,6.8-19.2,10c-0.6,0.3-1.2,0.7-1.8,0.8c-3.1,0.7-3.5,2.7-3.4,5.5c0.4,16.2,0.7,32.3,0.9,48.5c0,2.5,1,3.9,2.9,5.2
			c7.2,4.8,14.3,9.7,21.4,14.6c2.9,2,10.5,22.4,9.5,25.7c-0.2,0.8-0.7,1.5-1,2.3c-4.6,9.2-9.1,18.5-13.9,27.6
			c-0.8,1.6-0.3,2.4,0.3,3.5c7.2,12.5,14.5,25,21.8,37.5c0.7,1.3,1.2,2.3,3.3,2c7.2-1.1,14.6-1.6,21.8-2.9
			c6.6-1.2,11.9-0.4,15.9,5.6c1.4,2.2,3.6,3.9,5.7,5.6c1.8,1.5,2.5,3.2,2.4,5.6c-0.1,9.2,0,18.3-0.1,27.5c0,1.9,0.2,3.4,2.1,4.6
			c12.2,7.5,24.3,15.2,36.4,22.7c0.7,0.5,1.5,1.8,2.8,0.2c4.4-5.3,11.1-7.9,16-12.5c6.3-5.9,12.7-6,21.2-4.6
			c11.6,1.9,18.1,7.1,21.9,17.8c2.1,5.8,4.4,13.2,9,16.1c4.7,2.9,12.3,1.2,18.6,1.5c-0.2,1.4,0.7,1.5,1.7,1.8
			c3.2,0.9,3.7-2.8,6.1-3.5c10.8-3.2,20.4-8.4,29.4-15.4c3.8-3,5.5-5.9,4.6-10.3c-7.5-37.6-15.1-75.2-22.4-112.9
			c-0.8-4.3-2.6-4.5-6-3.9c-4.3,0.9-8.3,3.5-13,2.7c0-61.2,0-122.4,0-183.6c6.2-1.1,10.9,3.9,16.9,4.3c2.8,0.2,4.1,0.4,4.8-2.9
			c7.5-36.9,15.2-73.8,22.8-110.7c0.4-1.9,1-4.2-0.5-5.7c-6.2-5.8-12-12-19.4-16.5c-6.7-4.1-14.3-6.2-21-10.4
			C245.1,170.3,240.3,168.8,238,173.1z M434,491.5c0.5-5.8-1.1-12.7-2.4-19.7c-0.7-3.5-1.7-5.7-5.2-6.9
			c-32.8-11.6-65.6-23.1-98.3-34.9c-4-1.5-5.1-0.2-6.1,3.3c-3.3,11.1-8.5,21.5-16.2,30.1c-3.5,4-3.3,6.3,0.2,10.1
			c19.5,21,38.7,42.2,58.1,63.3c3.6,3.9,8.1,7.4,10.5,12c1.7,3.2,3.4,3.3,5.8,3.1c10.2-0.7,19.8-3.2,27.9-9.8
			c4.2-3.4,8.8-6.4,12.8-10c3.4-3.1,8-5.6,9.3-10.1C433.2,512.6,434.1,502.8,434,491.5z M457.6,405.8c0-3.3,1.1-7.6-0.2-11.1
			c-5.1-13.7-10.8-27.1-22.2-37.1c-3-2.6-5.5-3.5-9.3-2.5c-11.7,3.1-23.5,6-35.3,8.9c-20.8,5.2-41.6,10.2-62.4,15.5
			c-1.8,0.4-5-0.1-4.4,3.4c0.6,3.8,1.1,7.5,2.5,11.1c2.8,7,2.5,14.4,0.5,21.4c-1.7,5.9-2.4,5.7,3.3,7.5
			c32.5,10.4,64.9,20.7,97.3,31.2c4,1.3,6.6,0.3,9.3-2.3c6.3-6.2,10.9-13.7,14.4-21.6C454.6,422.7,459.8,415.5,457.6,405.8z
			 M368.2,567.6c-0.5-6.2,0.4-10.4-3.1-14.5c-21.8-25.6-43.3-51.4-64.8-77.2c-2-2.4-3.4-2.9-5.9-0.6c-7.5,6.7-16.1,11.9-25.6,15.2
			c-3,1.1-2.6,2.5-2,4.9c4.3,17.9,8.6,35.9,12.8,53.8c4.9,20.7,9.7,41.4,14.5,62.1c0.3,1.5,1.1,2.1,2.2,2.9
			c10.5,7.5,22.4,7.4,33.7,4.4c9.2-2.4,18.6-5.5,24.9-14.1C363.5,592.8,367.7,580,368.2,567.6z M377,248.1
			c-0.9-5.3-2.5-10.5-4.7-15.5c-3.8-8.6-9.2-16.2-15.1-23.3c-2.7-3.2-5.9-7-10.8-8.3c-11.9-3.1-23.9-4.9-36-2.9
			c-4.5,0.7-10.4-0.6-12.3,6.6c-9.6,37.2-19.4,74.3-29.3,111.3c-0.7,2.6-0.6,3.9,2.1,5c9.8,3.7,18.3,9.5,26,16.5
			c2.2,2,3.5,1.7,5.3-0.4c3.4-4.1,6.9-8.1,10.4-12.1c20.6-23.7,41.3-47.5,61.9-71.2C375.7,252.2,377.5,250.7,377,248.1z M433.9,319
			c1.4-9.7-2.1-18.9-2.3-28.5c0-1.7-1.3-3.5-2.6-5.2c-3.2-4-8.1-5.6-11.5-9.2c-7.4-7.9-16.9-12.3-27.2-15.3c-3.8-1.1-5.8,0-8.2,2.5
			c-25.2,25.9-50.5,51.7-75.9,77.5c-2.4,2.4-2.7,4-0.4,6.6c5.8,6.5,10,14.2,13.1,22.3c1.5,3.9,3.3,4.3,6.9,3.2
			c32.8-9.9,65.6-19.8,98.5-29.3c5.8-1.7,8.3-4.1,8.9-10.3C433.8,328.5,433.5,323.7,433.9,319z M139,95.8c0-5.3,0.3-10.7-0.1-16
			c-0.9-12.3-2.3-24.5-8.7-35.4C125.7,36.7,119,33,110.1,33c-6,0-12-0.1-18,0.1c-1.7,0-4.5-1.1-4.9,0.8c-0.6,2.5-1.5,5.9,0.7,8.1
			c2.7,2.7,3.2,5.7,3.2,9.1c0.4,31.5,0.5,62.9,0,94.4c-0.1,3.4-0.4,6.5-3.1,9.1c-2.1,2.1-1.3,5.2-0.8,7.6c0.6,2.4,3.4,1.1,5.2,1.1
			c5.7,0.2,11.3,0,17,0.1c8.6,0.1,15-3.7,19.5-10.8c2.4-3.8,4.2-7.9,5.5-12.2C138.7,125.7,139.4,110.8,139,95.8z M248.4,96.7
			c0-9.8,0-19.6-1.4-29.4c-1.4-9.9-3-19.8-8.8-28.3c-7.4-10.9-21.6-11-29.3-0.4c-3.6,4.9-5.7,10.5-7.1,16.3
			c-6,25.8-5.4,51.8-2.3,77.9c1,8.8,3.3,17.2,8.1,24.9c6.5,10.3,22.7,9.8,29,0.7c2.9-4.1,5-8.6,6.5-13.4
			C248,129.3,248.5,113,248.4,96.7z M431,126c0-6.5-0.1-13,0.1-19.5c0-1.5-1.4-3.9,1.7-4.2c2.4-0.3,4.4,0.5,5.1,3
			c0.8,2.7,1.7,5.5,1.8,8.2c0.2,3.1,2,2.7,4,2.8c2.6,0.2,3-1,3-3.3c-0.1-11.7-0.1-23.3,0-35c0-2.4-0.7-3.3-3.1-3.1
			c-1.9,0.2-3.9-0.5-3.9,2.8c0,3.1-0.6,6.3-2.1,9.2c-1.1,2.2-3.2,2.1-5.2,2c-2,0-1.4-1.5-1.4-2.5c0-12.5,0-25,0-37.5
			c0-1-0.4-2.2,1.3-2.8c4.9-1.6,9.9,0.6,11.5,5.7c1,3.1,1.8,6.4,2,9.7c0.3,4.2,3,3.4,5.6,3.6c3.5,0.3,2.7-2.1,2.7-3.9
			c0-8.2-0.2-16.3,0.1-24.5c0.1-3.5-1.2-4-4.2-3.9c-11,0.2-22,0-33,0.1c-1.7,0-4.5-1.1-4.9,0.9c-0.5,2.5-1.5,5.9,0.7,8.1
			c2.7,2.6,3.2,5.8,3.2,9.1c0,31.3,0,62.6,0,93.9c0,3.5-0.3,6.8-3.2,9.6c-2.1,2-1.2,5.2-0.7,7.6c0.5,2.2,3.1,1,4.8,1
			c11.2,0.1,22.3,0,33.5,0.1c2.8,0,3.7-0.6,3.7-3.5c0-9.7,0.3-19.3,0.5-28.9c0-1.9,0.6-4.2-2.8-3.9c-2.4,0.2-5-0.9-5.3,3.5
			c-0.4,5.6-1.4,11.2-3.9,16.4c-2.3,4.7-6.7,3.2-10.1,2.9c-3.1-0.3-1.3-3.5-1.4-5.3C430.8,138.3,431,132.2,431,126z M69,163.2
			c2.3,0,4.7,0.1,7,0c1.7-0.1,4.4,1.1,4.9-0.9c0.7-2.4,1.3-5.6-0.6-7.6c-3-3.4-3.6-7.5-4.1-11.5c-4.4-33.6-8.7-67.3-13-100.9
			c-1.2-9.6-1.2-9.5-10.7-9.3c-2.4,0.1-3.3,0.6-3.7,3.2c-4.9,31.2-9.8,62.4-15.2,93.5c-1.5,8.8-1.4,18.1-7.4,25.9
			c-2.9,3.8,0,7.6,4.9,7.6c3.2,0,6.3,0.1,9.5-0.1c1.5-0.1,4,1.1,4.3-1c0.4-2.4,1.4-5.4-0.9-7.4c-2.6-2.2-2.9-5.1-3-8.1
			c-0.2-6.7,1.3-13.2,2.1-19.8c0.1-1,0.2-2.3,1.3-2.4c4.5-0.2,9-0.1,13.5,0c0.9,0,1,1.1,1.1,2c1,7.4,2.2,14.8,1.9,22.4
			c-0.1,2.1-0.5,4.1-2.3,5.3c-3.2,2.3-1.9,5.6-1.4,8.2c0.4,2.1,3.4,0.8,5.3,1C64.7,163.4,66.9,163.2,69,163.2z M345.9,163.2
			c2.3,0,4.7,0.1,7,0c1.7-0.1,4.5,1,5-0.8c0.7-2.4,1.4-5.6-0.5-7.7c-3-3.4-3.7-7.5-4.2-11.5c-4.4-33.6-8.7-67.3-13-100.9
			c-1.3-10-1.2-9.9-11.1-9.4c-2.3,0.1-3,0.9-3.3,3.1c-4.9,31.2-9.8,62.4-15.2,93.5c-1.5,8.8-1.3,18.1-7.4,25.9
			c-2.9,3.7,0,7.8,4.8,7.8c3.2,0,6.3,0.1,9.5,0c1.5-0.1,4,1,4.4-0.9c0.5-2.3,1.4-5.5-0.4-7.1c-3.7-3.1-3.4-7-3.4-10.9
			c0-5.9,1.5-11.5,2-17.3c0.3-3.5,2.9-3.1,4.7-2.6c3.7,1.1,9.4-3.5,11.1,2.5c1.9,6.8,2.3,14.1,2.2,21.3c0,2.2-0.4,4.5-2.2,5.9
			c-3.2,2.3-2,5.6-1.6,8.1c0.4,2.3,3.4,0.9,5.2,1.1C341.6,163.4,343.7,163.2,345.9,163.2z M170.1,119.3c-2.6-22.3-5.3-44.6-7.8-66.9
			c-0.4-3.8-0.3-7.5,2.9-10.6c2.2-2.1,1.3-5.5,0.7-8c-0.4-1.8-3.2-0.7-4.9-0.8c-4.7-0.1-9.3-0.2-14,0c-1.7,0.1-4.3-1.1-4.8,0.9
			c-0.6,2.4-1.4,5.7,0.5,7.7c3.4,3.6,3.8,8,4.3,12.4c4.4,34.2,8.7,68.3,13,102.5c1,8,1,7.9,9.2,7.7c2.3-0.1,3.5-0.4,3.9-3.1
			c5.3-33.5,10.6-67,16.2-100.4c1.1-6.7,1.3-13.7,6.3-19.6c3.1-3.6,0.1-8.2-4.6-8.2c-3,0-6,0-9,0c-4.9,0-7.9,4.5-4.7,8.1
			c4.8,5.3,3.7,11.1,2.9,16.9C177.3,78.5,174.7,99,170.1,119.3z M388,98c0-16,0-32,0-48c0-1.2-0.8-3,0.8-3.5
			c1.7-0.6,3.4,0.4,4.3,1.7c1,1.4,1.8,3.2,2.2,4.9c0.9,4.1,1.8,8.2,2.1,12.3c0.3,4,3,2.5,5,2.8c2.7,0.4,2.9-1.2,2.9-3.3
			c-0.1-9.5-0.1-19,0-28.5c0.1-3-1-3.5-3.7-3.5c-14.2,0.1-28.3,0.1-42.5,0c-2.9,0-3.6,0.8-3.5,3.6c0.2,9.2,0.2,18.3,0,27.5
			c-0.1,3.6,1.1,4.4,4.5,4.3c3.2,0,3.5-1.7,3.7-4c0.4-5,1.1-9.9,3.1-14.6c0.9-2.1,2.7-3.8,5-3.4c2.5,0.5,1.3,3.1,1.3,4.7
			c0.1,13.5,0.1,27,0.1,40.5c0,17.7,0,35.3-0.1,53c0,3.8-0.2,7.5-3.8,10.3c-2.1,1.6-1.1,4.8-0.6,7.1c0.5,2.5,3.1,1.1,4.7,1.2
			c5,0.2,10,0.2,15,0c1.5,0,3.9,1.1,4.3-1c0.4-2.3,1.5-5.5-0.6-7.1c-4.2-3.1-4.1-7.3-4.2-11.6C388,128.3,388,113.2,388,98z
			 M272.4,99.7c0-4.3-0.1-8.7,0-13c0.2-4.5,0.3-9,0.9-13.4c1-8.2,1.6-16.6,5.7-24.1c1.1-2.1,2.4-4.4,5-4.4c3,0,3.9,2.9,4.8,5.1
			c1.8,4.2,2.1,8.7,2.8,13.1c0.5,3.6,3.2,1.8,5,2.2c2.4,0.5,2.6-1,2.6-2.9c-0.1-8.2,0-16.3,0-24.5c0-1.4-0.2-2.4-1.5-3.3
			c-8.8-6.3-22.1-4.3-28.4,4.4c-3.7,5-5.8,10.8-7.4,16.7c-4.3,16.2-5,32.9-4.6,49.5c0.3,14.6,0.8,29.3,5.4,43.4
			c5.5,16.8,17.3,20.5,33.4,13.8c2.4-1,3.2-2.3,3.1-4.8c-0.2-8-0.2-16,0-24c0.1-2.7-0.6-3.6-3.5-3.7c-3.3-0.1-4.4,1.1-4.6,4.1
			c-0.3,4.8-1,9.6-3.3,14c-2.7,5.2-6.2,5.3-9.2,0.3c-1.9-3.2-2.9-6.7-3.6-10.3C272.6,125.3,272.3,112.5,272.4,99.7z"/>
		<path class="st0" d="M243,638.2c-6.3-0.3-13.9,1.5-18.6-1.5c-4.6-2.9-6.9-10.3-9-16.1c-3.8-10.7-10.3-15.9-21.9-17.8
			c-8.5-1.4-14.8-1.3-21.2,4.6c-5,4.6-11.6,7.2-16,12.5c-1.3,1.6-2.1,0.2-2.8-0.2c-12.2-7.5-24.2-15.2-36.4-22.7
			c-1.9-1.2-2.1-2.6-2.1-4.6c0.1-9.2,0-18.3,0.1-27.5c0-2.4-0.6-4.1-2.4-5.6c-2.1-1.7-4.3-3.4-5.7-5.6c-4-6-9.3-6.8-15.9-5.6
			c-7.2,1.3-14.5,1.7-21.8,2.9c-2.1,0.3-2.6-0.7-3.3-2c-7.3-12.5-14.5-25-21.8-37.5c-0.6-1.1-1.1-1.9-0.3-3.5
			c4.8-9.1,9.3-18.4,13.9-27.6c0.4-0.7,0.8-1.5,1-2.3c0.9-3.3-6.7-23.8-9.5-25.7c-7.1-4.9-14.2-9.8-21.4-14.6
			c-2-1.3-2.9-2.7-2.9-5.2c-0.2-16.2-0.5-32.3-0.9-48.5c-0.1-2.8,0.3-4.8,3.4-5.5c0.6-0.1,1.2-0.5,1.8-0.8c6.6-3.2,15-4.8,19.2-10
			c4.1-5.1,3.8-13.8,5.5-20.9c0.5-2.3,0.1-4.2-1-6.2c-4.5-8.5-8.8-17.2-13.3-25.7c-1.1-2.1-1.2-3.6,0-5.7
			c7.1-12.6,14.1-25.2,21.1-37.9c1.1-2,2.1-2.8,4.8-2.9c8.6-0.1,17.3-1.1,25.9-1.6c2-0.1,2.9-1.2,4-2.5c3.7-4.3,7.3-8.7,11.4-12.6
			c2.9-2.8,4-5.8,4.3-9.6c0.5-7.3,1.3-14.6,2-21.9c0.2-2.4,1.1-4.2,3.3-5.6c10-6.6,19.9-13.4,29.6-20.3c2.3-1.6,3.8-1.6,6.1-0.1
			c6.2,4.1,12.7,8,19,12c1.7,1.1,3.2,1.7,5.5,0.8c8.7-3.3,17.8-5.5,27-7.1c2.4-0.4,3.8-1.4,5-3.4c4.1-6.7,8.4-13.2,12.4-19.9
			c1.6-2.8,3.4-4.1,6.7-3.8c3.5,0.3,7,0,10.5-0.1c5.1,0.5,5.1,3.9,5.1,8c-0.1,42.1-0.1,84.1-0.1,126.2c0,2,0.2,4,0.4,5.9
			c0,61.2,0,122.4,0,183.6c-0.1,1.8-0.4,3.6-0.4,5.4C243,547.6,243,592.9,243,638.2z M92.1,436c5.6,29,17,54.5,35.5,76.7
			c20.2,24.2,45.4,40.8,75.9,48.9c2.1,0.6,4.8,2.4,4.8-2.4c-0.2-22-0.1-44,0-66c0-2.1-0.5-3.3-2.6-4.2
			c-22.9-10.1-38.7-27.1-47.7-50.4c-0.7-1.7-1.4-2.7-3.5-2.7C133.8,436,113.2,436,92.1,436z M208.2,248.4c-0.9,0-1.2-0.1-1.5,0
			c-61.8,17.1-97.5,58.7-113.2,119.5c-0.7,2.5,0,3.1,2.5,3.1c19.8-0.1,39.6-0.1,59.4,0c2.1,0,3.3-0.5,4.2-2.6
			c9.5-21.4,24.7-37.2,46.2-46.6c1.7-0.7,2.5-1.6,2.5-3.7C208.2,294.9,208.2,271.8,208.2,248.4z"/>
		<path class="st2" d="M434,491.5c0.1,11.2-0.8,21.1-3.6,30.5c-1.3,4.5-6,7-9.3,10.1c-4,3.7-8.6,6.6-12.8,10
			c-8.2,6.6-17.7,9.1-27.9,9.8c-2.5,0.2-4.2,0.1-5.8-3.1c-2.4-4.6-6.9-8-10.5-12c-19.3-21.1-38.6-42.4-58.1-63.3
			c-3.5-3.8-3.8-6.1-0.2-10.1c7.7-8.7,12.9-19,16.2-30.1c1.1-3.5,2.1-4.8,6.1-3.3c32.7,11.8,65.5,23.4,98.3,34.9
			c3.5,1.2,4.6,3.4,5.2,6.9C432.9,478.8,434.5,485.7,434,491.5z"/>
		<path class="st2" d="M457.6,405.8c2.1,9.7-3,16.9-6.4,24.4c-3.6,7.9-8.1,15.4-14.4,21.6c-2.7,2.7-5.3,3.6-9.3,2.3
			c-32.4-10.5-64.9-20.8-97.3-31.2c-5.8-1.8-5.1-1.7-3.3-7.5c2-7,2.3-14.4-0.5-21.4c-1.4-3.6-1.9-7.4-2.5-11.1
			c-0.5-3.5,2.7-2.9,4.4-3.4c20.8-5.2,41.6-10.3,62.4-15.5c11.8-2.9,23.6-5.8,35.3-8.9c3.8-1,6.3-0.1,9.3,2.5
			c11.4,10.1,17.1,23.5,22.2,37.1C458.8,398.1,457.6,402.5,457.6,405.8z"/>
		<path class="st2" d="M368.2,567.6c-0.5,12.4-4.7,25.2-13.2,36.9c-6.3,8.6-15.7,11.7-24.9,14.1c-11.4,3-23.3,3.1-33.7-4.4
			c-1.1-0.8-1.9-1.5-2.2-2.9c-4.8-20.7-9.6-41.4-14.5-62.1c-4.2-17.9-8.5-35.9-12.8-53.8c-0.6-2.4-1-3.8,2-4.9
			c9.5-3.3,18.1-8.5,25.6-15.2c2.5-2.2,3.9-1.8,5.9,0.6c21.5,25.8,43,51.7,64.8,77.2C368.6,557.2,367.7,561.4,368.2,567.6z"/>
		<path class="st2" d="M377,248.1c0.5,2.6-1.3,4.1-2.7,5.7c-20.6,23.8-41.3,47.5-61.9,71.2c-3.5,4-7,8-10.4,12.1
			c-1.7,2.1-3.1,2.4-5.3,0.4c-7.7-7-16.2-12.8-26-16.5c-2.7-1-2.8-2.4-2.1-5c9.9-37.1,19.7-74.2,29.3-111.3
			c1.8-7.1,7.8-5.9,12.3-6.6c12.1-1.9,24.1-0.1,36,2.9c4.9,1.3,8.1,5,10.8,8.3c5.9,7.1,11.3,14.7,15.1,23.3
			C374.6,237.7,376.1,242.8,377,248.1z"/>
		<path class="st2" d="M433.9,319c-0.4,4.8-0.1,9.5-0.6,14.3c-0.6,6.1-3.1,8.6-8.9,10.3c-32.9,9.5-65.7,19.4-98.5,29.3
			c-3.6,1.1-5.4,0.7-6.9-3.2c-3.1-8.1-7.3-15.7-13.1-22.3c-2.3-2.6-1.9-4.2,0.4-6.6c25.4-25.8,50.6-51.6,75.9-77.5
			c2.4-2.5,4.4-3.6,8.2-2.5c10.3,3,19.7,7.4,27.2,15.3c3.4,3.6,8.3,5.3,11.5,9.2c1.3,1.6,2.6,3.4,2.6,5.2
			C431.8,300.1,435.3,309.3,433.9,319z"/>
		<path class="st2" d="M243.4,313.2c-0.1-2-0.4-4-0.4-5.9c0-42.1-0.1-84.1,0.1-126.2c0-4.1,0-7.5-5.1-8c2.3-4.3,7.1-2.8,8.9-1.6
			c6.7,4.2,14.3,6.3,21,10.4c7.4,4.5,13.3,10.6,19.4,16.5c1.6,1.5,0.9,3.8,0.5,5.7c-7.6,36.9-15.2,73.8-22.8,110.7
			c-0.7,3.2-2,3.1-4.8,2.9C254.3,317.1,249.6,312.1,243.4,313.2z"/>
		<path class="st2" d="M243,638.2c0-45.3,0-90.6,0-135.9c0-1.8,0.2-3.6,0.4-5.4c4.7,0.8,8.6-1.9,13-2.7c3.4-0.7,5.2-0.4,6,3.9
			c7.3,37.7,14.9,75.3,22.4,112.9c0.9,4.4-0.8,7.3-4.6,10.3c-8.9,7-18.6,12.1-29.4,15.4c-2.4,0.7-2.8,4.4-6.1,3.5
			C243.7,639.7,242.8,639.6,243,638.2z"/>
		<path class="st0" d="M139,95.8c0.4,15-0.3,29.9-4.7,44.4c-1.3,4.3-3,8.5-5.5,12.2c-4.6,7.1-11,10.9-19.5,10.8
			c-5.7-0.1-11.3,0.1-17-0.1c-1.8-0.1-4.6,1.3-5.2-1.1c-0.6-2.4-1.3-5.5,0.8-7.6c2.7-2.6,3.1-5.7,3.1-9.1c0.5-31.5,0.4-62.9,0-94.4
			c0-3.4-0.6-6.4-3.2-9.1c-2.2-2.2-1.2-5.5-0.7-8.1c0.4-1.9,3.2-0.8,4.9-0.8c6-0.1,12-0.1,18-0.1c8.9,0,15.6,3.7,20.1,11.4
			c6.5,10.9,7.8,23.2,8.7,35.4C139.4,85.1,139,90.5,139,95.8z M106,97.6c0,16.2,0.2,32.3-0.1,48.5c-0.1,4.5,2.1,4.5,5.1,3.8
			c2.7-0.7,4.6-2.7,6-4.9c2-3.1,3.2-6.6,4-10.1c4.3-19.2,4-38.6,2.4-58.1c-0.6-7-1.8-13.9-4.5-20.4c-1.6-3.9-3.7-7.5-7.8-9.3
			c-3.2-1.4-5.1-1.4-5.1,3.1C106.1,66,106,81.8,106,97.6z"/>
		<path class="st0" d="M248.4,96.7c0.1,16.3-0.5,32.6-5.3,48.4c-1.5,4.8-3.6,9.2-6.5,13.4c-6.4,9.1-22.6,9.6-29-0.7
			c-4.8-7.7-7.1-16.1-8.1-24.9c-3.1-26-3.6-52.1,2.3-77.9c1.4-5.8,3.5-11.4,7.1-16.3c7.7-10.7,21.9-10.5,29.3,0.4
			c5.8,8.5,7.4,18.4,8.8,28.3C248.4,77.1,248.4,86.9,248.4,96.7z M212.2,96.7c0.2,12.1,0.6,23.6,2,35c0.7,5.7,1.5,11.6,4.7,16.6
			c3,4.8,5.5,4.7,8.4,0c1.9-3.2,2.9-6.7,3.5-10.3c4-24.7,3.3-49.4,0.7-74.1c-0.5-4.4-1.4-8.9-3.2-13c-1.1-2.6-2.2-5.8-5.3-6
			c-3.6-0.2-4.6,3.3-5.8,6c-1,2.2-1.6,4.7-2.1,7.1C212.6,71,212.6,84.2,212.2,96.7z"/>
		<path class="st0" d="M431,126c0,6.2-0.2,12.3,0.1,18.5c0.1,1.8-1.8,5,1.4,5.3c3.5,0.3,7.8,1.8,10.1-2.9c2.5-5.2,3.5-10.8,3.9-16.4
			c0.3-4.5,2.9-3.3,5.3-3.5c3.3-0.3,2.8,1.9,2.8,3.9c-0.2,9.7-0.5,19.3-0.5,28.9c0,2.9-0.9,3.5-3.7,3.5c-11.2-0.2-22.3,0-33.5-0.1
			c-1.6,0-4.3,1.2-4.8-1c-0.5-2.4-1.4-5.6,0.7-7.6c2.9-2.8,3.2-6.1,3.2-9.6c0-31.3,0-62.6,0-93.9c0-3.3-0.5-6.5-3.2-9.1
			c-2.2-2.2-1.2-5.5-0.7-8.1c0.4-2,3.2-0.8,4.9-0.9c11-0.1,22,0,33-0.1c3,0,4.4,0.4,4.2,3.9c-0.3,8.1-0.1,16.3-0.1,24.5
			c0,1.8,0.8,4.2-2.7,3.9c-2.6-0.2-5.3,0.6-5.6-3.6c-0.2-3.3-1.1-6.6-2-9.7c-1.6-5.1-6.6-7.4-11.5-5.7c-1.7,0.6-1.3,1.7-1.3,2.8
			c0,12.5,0,25,0,37.5c0,1-0.6,2.5,1.4,2.5c2,0,4.1,0.2,5.2-2c1.4-2.9,2-6.1,2.1-9.2c0-3.3,2-2.6,3.9-2.8c2.4-0.2,3.1,0.7,3.1,3.1
			c-0.1,11.7-0.1,23.3,0,35c0,2.2-0.4,3.4-3,3.3c-2-0.1-3.9,0.3-4-2.8c-0.1-2.8-1-5.5-1.8-8.2c-0.7-2.5-2.7-3.2-5.1-3
			c-3,0.3-1.6,2.8-1.7,4.2C430.9,113,431,119.5,431,126z"/>
		<path class="st0" d="M69,163.2c-2.2,0-4.3,0.2-6.5,0c-1.8-0.2-4.9,1.1-5.3-1c-0.5-2.5-1.8-5.9,1.4-8.2c1.7-1.2,2.2-3.3,2.3-5.3
			c0.3-7.5-1-14.9-1.9-22.4c-0.1-0.8-0.2-2-1.1-2c-4.5-0.1-9-0.1-13.5,0c-1.1,0-1.2,1.4-1.3,2.4c-0.9,6.6-2.3,13.1-2.1,19.8
			c0.1,3,0.4,5.9,3,8.1c2.3,2,1.3,5,0.9,7.4c-0.3,2.1-2.8,0.9-4.3,1c-3.2,0.2-6.3,0.1-9.5,0.1c-4.9,0-7.9-3.8-4.9-7.6
			c6.1-7.8,5.9-17.1,7.4-25.9C39,98.6,43.9,67.4,48.8,36.2c0.4-2.6,1.3-3.2,3.7-3.2c9.6-0.2,9.5-0.3,10.7,9.3
			c4.3,33.6,8.6,67.3,13,100.9c0.5,4,1.1,8.2,4.1,11.5c1.9,2.1,1.2,5.3,0.6,7.6c-0.6,2-3.2,0.7-4.9,0.9
			C73.7,163.4,71.4,163.2,69,163.2z M52.7,74.1c-0.5,0-1.1,0-1.6,0c-1.5,9.8-3,19.6-4.7,29.4c-1.3,7.5-1.3,7.2,6.4,7.6
			c4.2,0.2,4.6-1.4,4-4.8c-0.5-2.6-0.7-5.3-1-7.9C54.8,90.3,53.8,82.2,52.7,74.1z"/>
		<path class="st0" d="M345.9,163.2c-2.2,0-4.3,0.2-6.5-0.1c-1.8-0.2-4.8,1.2-5.2-1.1c-0.5-2.6-1.6-5.8,1.6-8.1
			c1.8-1.3,2.2-3.6,2.2-5.9c0.1-7.2-0.3-14.5-2.2-21.3c-1.6-5.9-7.3-1.3-11.1-2.5c-1.8-0.5-4.4-0.9-4.7,2.6c-0.5,5.8-2,11.5-2,17.3
			c0,4-0.3,7.8,3.4,10.9c1.9,1.6,1,4.8,0.4,7.1c-0.5,1.9-2.9,0.8-4.4,0.9c-3.2,0.2-6.3,0.1-9.5,0c-4.8,0-7.7-4-4.8-7.8
			c6.1-7.8,5.9-17.1,7.4-25.9c5.3-31.1,10.2-62.3,15.2-93.5c0.4-2.3,1-3,3.3-3.1c9.9-0.5,9.8-0.6,11.1,9.4
			c4.3,33.6,8.6,67.3,13,100.9c0.5,4,1.2,8.1,4.2,11.5c1.9,2.1,1.2,5.3,0.5,7.7c-0.5,1.8-3.3,0.6-5,0.8
			C350.6,163.4,348.2,163.2,345.9,163.2z M322.4,111c3.1,0,5.9-0.2,8.7,0.1c2.8,0.3,3.3-0.9,2.9-3.4c-1-7.4-1.9-14.8-2.8-22.3
			c-0.5-3.8-0.4-7.7-3-11.4C326.3,86.2,324.4,98.4,322.4,111z"/>
		<path class="st0" d="M170.1,119.3c4.6-20.3,7.2-40.9,10.1-61.4c0.8-5.8,1.9-11.6-2.9-16.9c-3.2-3.6-0.2-8.1,4.7-8.1c3,0,6,0,9,0
			c4.8,0,7.8,4.5,4.6,8.2c-5,5.8-5.2,12.8-6.3,19.6c-5.6,33.5-10.9,66.9-16.2,100.4c-0.4,2.7-1.6,3.1-3.9,3.1
			c-8.2,0.2-8.2,0.3-9.2-7.7c-4.3-34.2-8.7-68.3-13-102.5c-0.6-4.4-0.9-8.8-4.3-12.4c-1.8-2-1.1-5.3-0.5-7.7
			c0.5-2.1,3.2-0.9,4.8-0.9c4.7-0.2,9.3-0.1,14,0c1.7,0.1,4.5-1,4.9,0.8c0.6,2.5,1.6,5.9-0.7,8c-3.3,3.1-3.4,6.8-2.9,10.6
			C164.8,74.7,167.5,97,170.1,119.3z"/>
		<path class="st0" d="M388,98c0,15.2,0,30.3,0,45.5c0,4.3,0,8.5,4.2,11.6c2,1.5,1,4.8,0.6,7.1c-0.4,2.1-2.8,1-4.3,1
			c-5,0.1-10,0.2-15,0c-1.6-0.1-4.2,1.3-4.7-1.2c-0.4-2.3-1.5-5.4,0.6-7.1c3.6-2.8,3.7-6.5,3.8-10.3c0.1-17.7,0.1-35.3,0.1-53
			c0-13.5,0-27-0.1-40.5c0-1.6,1.2-4.2-1.3-4.7c-2.3-0.5-4.1,1.2-5,3.4c-2,4.6-2.7,9.6-3.1,14.6c-0.2,2.3-0.6,4-3.7,4
			c-3.4,0-4.6-0.7-4.5-4.3c0.3-9.2,0.2-18.3,0-27.5c-0.1-2.8,0.7-3.7,3.5-3.6c14.2,0.1,28.3,0.1,42.5,0c2.7,0,3.8,0.6,3.7,3.5
			c-0.2,9.5-0.1,19,0,28.5c0,2.1-0.2,3.7-2.9,3.3c-2-0.3-4.7,1.2-5-2.8c-0.3-4.1-1.2-8.2-2.1-12.3c-0.4-1.7-1.2-3.5-2.2-4.9
			c-1-1.3-2.7-2.3-4.3-1.7c-1.6,0.6-0.8,2.3-0.8,3.5C388,66,388,82,388,98z"/>
		<path class="st0" d="M272.4,99.7c-0.1,12.8,0.2,25.6,2.7,38.3c0.7,3.6,1.7,7.1,3.6,10.3c3,5,6.5,4.9,9.2-0.3
			c2.3-4.3,2.9-9.2,3.3-14c0.2-3,1.3-4.2,4.6-4.1c2.9,0.1,3.6,1,3.5,3.7c-0.2,8-0.2,16,0,24c0.1,2.6-0.8,3.8-3.1,4.8
			c-16.1,6.6-27.9,3-33.4-13.8c-4.6-14.1-5.1-28.8-5.4-43.4c-0.4-16.6,0.3-33.3,4.6-49.5c1.6-6,3.8-11.7,7.4-16.7
			c6.3-8.7,19.6-10.7,28.4-4.4c1.3,1,1.5,2,1.5,3.3c0,8.2,0,16.3,0,24.5c0,1.9-0.2,3.4-2.6,2.9c-1.8-0.4-4.5,1.4-5-2.2
			c-0.6-4.4-1-9-2.8-13.1c-0.9-2.2-1.8-5.1-4.8-5.1c-2.6,0-3.9,2.3-5,4.4c-4.1,7.5-4.6,15.9-5.7,24.1c-0.6,4.4-0.7,9-0.9,13.4
			C272.3,91.1,272.4,95.4,272.4,99.7z"/>
		<path class="st1" d="M92.1,436c21.1,0,41.8,0,62.4-0.1c2.1,0,2.8,1,3.5,2.7c9.1,23.3,24.8,40.3,47.7,50.4c2.1,0.9,2.6,2.1,2.6,4.2
			c-0.1,22-0.1,44,0,66c0,4.9-2.7,3-4.8,2.4c-30.5-8.2-55.7-24.8-75.9-48.9C109.1,490.5,97.6,465,92.1,436z"/>
		<path class="st1" d="M208.2,248.4c0,23.5,0,46.6,0,69.7c0,2-0.8,2.9-2.5,3.7c-21.6,9.4-36.8,25.2-46.2,46.6
			c-0.9,2-2.1,2.6-4.2,2.6c-19.8-0.1-39.6-0.1-59.4,0c-2.5,0-3.1-0.6-2.5-3.1c15.7-60.7,51.5-102.4,113.2-119.5
			C207,248.3,207.3,248.4,208.2,248.4z"/>
		<path class="st1" d="M106,97.6c0-15.8,0.1-31.6-0.1-47.5c-0.1-4.6,1.8-4.6,5.1-3.1c4.1,1.8,6.2,5.4,7.8,9.3
			c2.7,6.5,4,13.4,4.5,20.4c1.6,19.5,1.9,38.9-2.4,58.1c-0.8,3.6-1.9,7-4,10.1c-1.5,2.3-3.3,4.3-6,4.9c-3,0.7-5.2,0.8-5.1-3.8
			C106.2,129.9,106,113.8,106,97.6z"/>
		<path class="st1" d="M212.2,96.7c0.4-12.5,0.4-25.7,3-38.6c0.5-2.4,1.1-4.9,2.1-7.1c1.2-2.6,2.3-6.2,5.8-6c3.2,0.2,4.2,3.4,5.3,6
			c1.8,4.2,2.7,8.6,3.2,13c2.6,24.7,3.3,49.4-0.7,74.1c-0.6,3.6-1.6,7.1-3.5,10.3c-2.9,4.7-5.4,4.7-8.4,0c-3.2-5.1-4-10.9-4.7-16.6
			C212.7,120.3,212.4,108.8,212.2,96.7z"/>
		<path class="st1" d="M52.7,74.1c1,8.1,2.1,16.3,3.1,24.4c0.3,2.6,0.5,5.3,1,7.9c0.6,3.3,0.2,5-4,4.8c-7.7-0.4-7.6-0.1-6.4-7.6
			c1.6-9.8,3.1-19.6,4.7-29.4C51.7,74.1,52.2,74.1,52.7,74.1z"/>
		<path class="st1" d="M322.4,111c2-12.6,3.9-24.8,5.8-37c2.6,3.7,2.5,7.6,3,11.4c0.9,7.4,1.8,14.9,2.8,22.3
			c0.3,2.5-0.1,3.6-2.9,3.4C328.3,110.8,325.5,111,322.4,111z"/>
	</g>
</g>
</svg>
