<?xml version="1.0" encoding="utf-8"?>
<!-- Generator: Adobe Illustrator 19.2.0, SVG Export Plug-In . SVG Version: 6.00 Build 0)  -->
<svg version="1.1" id="Back_xA0_Image_1_" xmlns="http://www.w3.org/2000/svg" xmlns:xlink="http://www.w3.org/1999/xlink" x="0px"
	 y="0px" viewBox="0 0 603 720" style="enable-background:new 0 0 603 720;" xml:space="preserve">
<style type="text/css">
	.st0{fill:#CBCBFE;}
	.st1{fill:#010101;}
</style>
<g>
	<g>
		<path class="st0" d="M1,721C1,481,1,241,1,1c201,0,402,0,603,0c0,240,0,480,0,720C403,721,202,721,1,721z M456.2,468.4
			c0.6-0.2,1.2-0.4,1.8-0.6c0-17-0.1-34,0.1-51c0-3.7-1.2-5.5-4.4-7.1c-79-40.5-157.9-81-236.8-121.6c-12.5-6.4-25-12.9-37.9-19.5
			c2.2-1.4,4.1-2.6,5.9-3.7C273.5,209.7,362.2,154.6,451,99.6c2.8-1.8,4.2-3.5,4.1-7c-0.3-7.8-0.1-15.7-0.1-23.5
			c0-10.1,0-20.2,0-30.9C328.6,116.6,203,194.6,77.1,272.8C203.3,337.9,329.7,403.1,456.2,468.4z M186,580.1
			c4.1-6.9,8.8-12.9,11.6-19.7c5.9-14.6,6.2-29.9,2.7-45.1c-3.9-16.8-13.2-24.3-30.3-24.7c-14.3-0.3-28.7-0.2-43,0
			c-2,0-5.4,1.4-5.6,2.6c-0.6,3.4-1.2,9.1,0.6,10.3c6.2,4.2,6,10,6,15.9c0.1,36.7,0,73.3,0,110c0,8,0.2,16-0.2,24
			c-0.2,3.1-0.8,7.6-2.9,9c-4.2,2.9-3.9,6.3-4,10.2c-0.1,4,1.4,5.8,5.5,5.8c13.3-0.1,26.7,0.1,40-0.1c16.9-0.3,27.3-8.1,32.8-24.1
			c4.2-12,4.6-24.5,3.8-37C202.2,602.5,197.5,589.3,186,580.1z M418.3,593.8c0.4-0.2,0.9-0.3,1.3-0.5c1.8,4.9,3.8,9.8,5.4,14.7
			c5.2,15.8,10.3,31.6,15.1,47.4c0.8,2.5,1,7.2-0.2,7.9c-4.1,2.2-2.9,5.5-2.9,8.5c-0.1,5.8,0.7,6.5,6.7,6.5c9.5,0,19,0.2,28.5-0.1
			c2.1-0.1,5.8-1.4,6-2.7c0.6-3.4,1.1-8.7-0.8-10.3c-4.5-3.7-6.5-8.4-8.2-13.4c-9.1-26.7-17.9-53.5-26.7-80.3
			c-0.5-1.4-0.5-3.4,0.1-4.7c8.1-18,16.2-36.1,24.5-54c1.1-2.4,2.5-5.4,4.6-6.3c5.4-2.4,4.3-6.6,4.4-10.8c0.2-3.9-1.6-5.4-5.4-5.3
			c-7.3,0.1-14.7,0-22,0c-12.4,0.1-12.5-2-11.8,13.1c4.9,2.1,5.8,3.5,5.8,9c0,1.3,0,2.7-0.3,4c-3.6,18.7-12,35.5-20.1,52.4
			c-0.7,1.4-2.4,2.2-4.2,3.9c0-19.6-0.1-38.1,0.1-56.6c0-3.3,0.8-7.9,3-9.6c3.8-3,3.9-6.3,4-10.3c0.1-4.3-1.5-6-5.9-5.9
			c-9.5,0.2-19-0.1-28.5,0.2c-2,0.1-5.5,1.4-5.6,2.5c-0.4,3.6-1,9,1,10.6c4.8,3.8,5.6,8.4,5.6,13.6c0,32.1,0.1,64.3,0.1,96.4
			c0,13,0.1,26-0.2,39c-0.1,3.3-0.7,8.1-2.9,9.5c-4.2,2.9-3.9,6.3-4.1,10.2c-0.2,4.3,1.6,6,5.9,5.9c9.5-0.2,19,0.1,28.5-0.2
			c2-0.1,5.5-1.4,5.6-2.5c0.5-3.6,1.1-9-0.9-10.6c-4.1-3.3-5.5-7.1-5.5-11.6C418.2,633.7,418.3,613.7,418.3,593.8z M256.9,665.2
			c0,2.6,0,4.6,0,6.6c0,6.1,0.6,6.7,6.5,6.7c10,0,20,0.1,30-0.1c1.9,0,5.1-1.4,5.2-2.4c0.5-3.6,1.2-9.2-0.7-10.6
			c-4.7-3.5-5.9-8-6.6-12.8c-5.5-35.7-10.8-71.4-16.2-107.1c-2.7-18.2-5.5-36.5-8.2-54.6c-7.6,0-14.9,0-22,0
			c-0.3,0.6-0.6,0.8-0.6,1.2c-7.1,37.6-14.2,75.1-21.4,112.7c-3.2,16.5-6.4,32.9-9.9,49.4c-1,4.8-2.5,9.7-8,11.4
			c0,2.5,0.1,4.7,0,6.8c-0.4,4.5,1.5,6.4,6.1,6.2c5.3-0.2,10.7-0.1,16,0c12.8,0.1,12,0.7,11.9-12.4c0-0.3-0.2-0.6-0.4-1.1
			c-4.9-0.6-6.7-4.1-6.3-8.5c0.8-10.6,2-21.1,3.2-31.7c0.1-0.9,1.9-2.2,3-2.2c6.3-0.2,12.7-0.2,19,0c1.1,0,3,1.6,3.2,2.6
			c1.3,9.9,2.4,19.8,3.1,29.8C264,659.7,262.8,664.1,256.9,665.2z M361,628.9c-0.3,2.2-0.5,4.5-1,6.8c-1.3,5.7-2.3,11.4-4.2,16.9
			c-0.8,2.4-3.1,4.9-5.4,6.1c-4,2.2-8.9,0.5-10.9-4.9c-3.1-8.5-6-17.3-7.2-26.2c-3.4-24.7-2.9-49.5-1-74.3
			c0.9-12.1,2.4-24.2,7.8-35.4c2.1-4.3,4.7-8.6,10.3-8.1c5.2,0.4,6.5,5.1,7.9,9.2c0.8,2.2,1.3,4.5,1.8,6.7c0.8,4.2,1.4,8.4,2.2,12.9
			c3.1,0,5.9,0,8.8,0c3.5,0,5.1-1.7,5.1-5.2c0-11.7,0-23.3-0.1-35c0-1.2-0.9-2.9-1.9-3.5c-15.9-8.8-38.9-11.3-52.7,10.3
			c-8.4,13.2-12.2,27.9-14.4,43.2c-3.5,24.2-3.3,48.5-0.9,72.8c1.4,14.4,4,28.7,11.3,41.6c4.8,8.4,11.5,14.7,21.2,16.8
			c12.6,2.7,24.4-0.4,35.7-5.9c1-0.5,1.6-2.7,1.6-4.1c0.1-9.5,0.1-19,0.1-28.5C375,628.4,377,627.8,361,628.9z"/>
		<path class="st1" d="M456.2,468.4C329.7,403.1,203.3,337.9,77.1,272.8C203,194.6,328.6,116.6,455,38.1c0,10.8,0,20.9,0,30.9
			c0,7.8-0.2,15.7,0.1,23.5c0.1,3.5-1.2,5.3-4.1,7c-88.8,55.1-177.5,110.2-266.2,165.3c-1.8,1.1-3.6,2.3-5.9,3.7
			c12.9,6.6,25.4,13,37.9,19.5c78.9,40.6,157.9,81.1,236.8,121.6c3.2,1.7,4.5,3.4,4.4,7.1c-0.2,17-0.1,34-0.1,51
			C457.4,468,456.8,468.2,456.2,468.4z"/>
		<path class="st1" d="M186,580.1c11.5,9.1,16.1,22.4,17,37.2c0.7,12.5,0.3,25-3.8,37c-5.5,16-16,23.8-32.8,24.1
			c-13.3,0.2-26.7,0-40,0.1c-4.1,0-5.6-1.8-5.5-5.8c0.1-4-0.2-7.4,4-10.2c2.1-1.4,2.8-5.9,2.9-9c0.4-8,0.2-16,0.2-24
			c0-36.7,0-73.3,0-110c0-6,0.2-11.7-6-15.9c-1.8-1.2-1.2-6.8-0.6-10.3c0.2-1.2,3.6-2.6,5.6-2.6c14.3-0.2,28.7-0.3,43,0
			c17.2,0.4,26.5,7.9,30.3,24.7c3.5,15.2,3.3,30.6-2.7,45.1C194.8,567.3,190.2,573.3,186,580.1z M154.3,656.9
			c13.1,1.6,18.4-1.3,21-12.5c3.1-13.6,3.3-27.4-0.4-41c-2.9-10.6-9.8-14.1-20.6-11.1C154.3,613.8,154.3,635.2,154.3,656.9z
			 M154.3,569.9c12.3,1.7,18.4-1.6,20.1-13.1c1.5-10.5,1.6-21.5,0.4-32.1c-1.3-11.4-8.6-15.1-20.5-12.2
			C154.3,531.5,154.3,550.6,154.3,569.9z"/>
		<path class="st1" d="M418.3,593.8c0,19.9-0.1,39.9,0.1,59.8c0,4.5,1.5,8.3,5.5,11.6c2,1.6,1.4,7,0.9,10.6
			c-0.1,1.1-3.6,2.5-5.6,2.5c-9.5,0.3-19,0-28.5,0.2c-4.3,0.1-6-1.7-5.9-5.9c0.2-3.9-0.2-7.3,4.1-10.2c2.2-1.5,2.8-6.2,2.9-9.5
			c0.3-13,0.2-26,0.2-39c0-32.1,0-64.3-0.1-96.4c0-5.2-0.8-9.8-5.6-13.6c-2-1.6-1.4-7-1-10.6c0.1-1.1,3.6-2.5,5.6-2.5
			c9.5-0.3,19,0,28.5-0.2c4.3-0.1,5.9,1.6,5.9,5.9c-0.1,4-0.2,7.2-4,10.3c-2.2,1.8-2.9,6.3-3,9.6c-0.3,18.5-0.1,36.9-0.1,56.6
			c1.8-1.7,3.5-2.5,4.2-3.9c8.1-16.9,16.5-33.7,20.1-52.4c0.2-1.3,0.3-2.7,0.3-4c0-5.5-0.9-6.8-5.8-9c-0.7-15.1-0.6-13,11.8-13.1
			c7.3,0,14.7,0.1,22,0c3.8-0.1,5.5,1.5,5.4,5.3c-0.2,4.1,1,8.4-4.4,10.8c-2.1,0.9-3.5,4-4.6,6.3c-8.3,17.9-16.4,36-24.5,54
			c-0.6,1.3-0.6,3.3-0.1,4.7c8.8,26.8,17.6,53.6,26.7,80.3c1.7,4.9,3.7,9.6,8.2,13.4c1.9,1.6,1.4,6.9,0.8,10.3
			c-0.2,1.3-3.9,2.6-6,2.7c-9.5,0.3-19,0.1-28.5,0.1c-5.9,0-6.8-0.8-6.7-6.5c0.1-3-1.2-6.3,2.9-8.5c1.2-0.6,1-5.4,0.2-7.9
			c-4.8-15.9-10-31.7-15.1-47.4c-1.6-5-3.6-9.8-5.4-14.7C419.2,593.5,418.7,593.6,418.3,593.8z"/>
		<path class="st1" d="M256.9,665.2c5.9-1.1,7.1-5.5,6.8-10.2c-0.7-9.9-1.9-19.9-3.1-29.8c-0.1-1-2-2.6-3.2-2.6
			c-6.3-0.3-12.7-0.2-19,0c-1.1,0-2.9,1.4-3,2.2c-1.3,10.5-2.4,21.1-3.2,31.7c-0.3,4.4,1.4,7.9,6.3,8.5c0.2,0.5,0.4,0.8,0.4,1.1
			c0.2,13.1,0.9,12.5-11.9,12.4c-5.3,0-10.7-0.2-16,0c-4.6,0.2-6.4-1.7-6.1-6.2c0.2-2.1,0-4.3,0-6.8c5.5-1.7,7-6.6,8-11.4
			c3.5-16.4,6.8-32.9,9.9-49.4c7.2-37.5,14.2-75.1,21.4-112.7c0.1-0.3,0.3-0.6,0.6-1.2c7.1,0,14.4,0,22,0
			c2.7,18.1,5.4,36.4,8.2,54.6c5.4,35.7,10.7,71.4,16.2,107.1c0.7,4.8,2,9.3,6.6,12.8c1.9,1.4,1.2,7,0.7,10.6
			c-0.1,1-3.4,2.4-5.2,2.4c-10,0.2-20,0.1-30,0.1c-5.9,0-6.5-0.6-6.5-6.7C256.9,669.8,256.9,667.8,256.9,665.2z M257.4,601.3
			c-2.6-17.9-5.1-35.3-7.6-52.8c-0.4,0-0.7,0-1.1,0c-3.1,17.5-6.3,35-9.5,52.8C245.4,601.3,251.2,601.3,257.4,601.3z"/>
		<path class="st1" d="M361,628.9c16-1.1,14.1-0.4,14.1,12.2c0,9.5,0.1,19-0.1,28.5c0,1.4-0.6,3.6-1.6,4.1
			c-11.3,5.5-23.1,8.6-35.7,5.9c-9.7-2.1-16.4-8.4-21.2-16.8c-7.3-12.9-9.9-27.1-11.3-41.6c-2.4-24.3-2.6-48.6,0.9-72.8
			c2.2-15.2,6-29.9,14.4-43.2c13.8-21.7,36.7-19.1,52.7-10.3c1,0.6,1.9,2.3,1.9,3.5c0.1,11.7,0.1,23.3,0.1,35c0,3.5-1.7,5.2-5.1,5.2
			c-2.8,0-5.6,0-8.8,0c-0.7-4.4-1.4-8.7-2.2-12.9c-0.4-2.3-1-4.6-1.8-6.7c-1.4-4.1-2.7-8.8-7.9-9.2c-5.5-0.5-8.2,3.8-10.3,8.1
			c-5.4,11.1-6.8,23.3-7.8,35.4c-1.9,24.8-2.4,49.6,1,74.3c1.2,8.9,4.1,17.8,7.2,26.2c2,5.3,6.9,7.1,10.9,4.9
			c2.3-1.3,4.5-3.7,5.4-6.1c1.9-5.5,2.9-11.2,4.2-16.9C360.4,633.4,360.6,631.1,361,628.9z"/>
		<path class="st0" d="M154.3,656.9c0-21.7,0-43.1,0-64.5c10.8-3,17.7,0.5,20.6,11.1c3.7,13.6,3.5,27.4,0.4,41
			C172.7,655.7,167.4,658.6,154.3,656.9z"/>
		<path class="st0" d="M154.3,569.9c0-19.3,0-38.4,0-57.4c11.8-2.9,19.2,0.8,20.5,12.2c1.2,10.6,1.1,21.6-0.4,32.1
			C172.7,568.4,166.6,571.6,154.3,569.9z"/>
		<path class="st0" d="M257.4,601.3c-6.3,0-12,0-18.2,0c3.2-17.8,6.3-35.3,9.5-52.8c0.4,0,0.7,0,1.1,0
			C252.4,565.9,254.9,583.4,257.4,601.3z"/>
	</g>
</g>
</svg>
