<?xml version="1.0" encoding="utf-8"?>
<!-- Generator: Adobe Illustrator 19.1.1, SVG Export Plug-In . SVG Version: 6.00 Build 0)  -->
<svg version="1.1" id="Layer_1" xmlns="http://www.w3.org/2000/svg" xmlns:xlink="http://www.w3.org/1999/xlink" x="0px" y="0px"
	 viewBox="0 0 90 90" style="enable-background:new 0 0 90 90;" xml:space="preserve">
<style type="text/css">
	.st0{fill:#FFFFFF;stroke:#000000;stroke-miterlimit:10;}
	.st1{stroke:#FFFFFF;stroke-miterlimit:10;}
	.st2{fill:#020202;stroke:#FFFFFF;stroke-miterlimit:10;}
	.st3{fill:#020202;}
	.st4{fill:none;stroke:#FFFFFF;stroke-linecap:round;stroke-miterlimit:10;}
	.st5{font-family:'MyriadPro-Regular';}
	.st6{font-size:9.5px;}
</style>
<g>
	<g>
		<path class="st0" d="M75.9,77H14.1C10.2,77,7,73.9,7,70V8.1C7,4.2,10.2,1,14.1,1h61.8C79.8,1,83,4.2,83,8.1V70
			C83,73.9,79.8,77,75.9,77z"/>
		<path class="st1" d="M43.9,63l10.5-0.3c0.8,0,1.4,0.6,1.4,1.3v0c0,0.8-0.6,1.4-1.3,1.4L44,65.8c-0.8,0-1.5-0.7-1.4-1.5v0
			C42.7,63.6,43.2,63,43.9,63z"/>
		<path class="st2" d="M45.1,37.7c-2.2,1.2-6,6-6.2,7s-3,7.4-3.5,8.5s-2.5,6.9-3.2,8.6c-0.5,1.1-2.6,6-4.1,9.4
			c-0.7,1.5,0.5,3.3,2.1,3.3h9c1.1,0,2.1-0.8,2.3-2c0.6-3.9,2-12.4,2.2-12.8c0.4-0.6,4.1-3,5-5.1s0.7-2.5,1.7-2.6
			c1-0.1,2.4,0.7,2.7,1.2c0.4,0.5,0,1.6,0,1.6s1,0,1.6-0.8c0.3-0.5,0.4-1.6,0.2-2.6c-0.1-0.7-0.7-1.5-0.9-1.7c-0.5-0.5-3-0.8-3.5-1
			s3-0.5,3.6-0.1c0.6,0.4,0.8,3.5,1.2,2.6c1.6-3.5,0.4-5.4-1.1-5.8c-0.9-0.2-4.8,0.5-5.1,0.7c-0.4,0.1,3.3-1.2,3.9-1.2
			c0.6,0,2.2,0.5,2.6,0.8c0.4,0.4,0.2-1.8-1-2.6c-1.5-1-3-1-3.7-1c-1.4,0.1-4.3,1.3-5.4,1.4s-0.6-2,0.7-3.3c1.3-1.3,5.6-3.5,7-3.4
			c1.4,0.1,0.7-0.6-0.2-0.9C50.6,35.1,47.3,36.5,45.1,37.7z"/>
		<path class="st3" d="M54.6,37.3c0,0.9,0.3,1.7-0.3,2.4c-0.6,0.7-1.1,0.7-1.3,1.1c-0.1,0.2,0,1.1,0,1.1s-0.9-0.8-2.9-0.4
			c-2.1,0.3-4,1.1-4.5,1.1s2.1-3.3,4.6-4.4C52.2,37.1,54.6,36.6,54.6,37.3z"/>
		<path class="st3" d="M50.1,52.5c-0.9,0.5,0,1.4-1.7,3.4c-1.8,2-3.7,3.5-3.9,3.8c-0.2,0.3-0.3,2.8-0.2,2.9c0.1,0.1,7.8-0.2,9.4-0.3
			c0.2,0,0.3-0.2,0.3-0.3c0-0.2,0-0.5,0-0.7c0-0.1-0.1-0.2-0.2-0.2c-0.2-0.1-1,0-1,0s-0.2-7.2-0.2-7.3
			C52.3,53.1,51.2,51.9,50.1,52.5z"/>
		<path class="st3" d="M49.4,73.3c-0.8,0.1-1.1-0.1-1.8-0.5c-0.9-0.5-1.9-1.8-2.3-4.2c-0.4-2.4-0.1-2.5-0.1-2.5l4-0.1l0,0l4-0.1
			c0,0,0.3,0.1,0.1,2.5c-0.2,2.4-1.1,3.8-2,4.4C50.6,73.1,50.3,73.3,49.4,73.3L49.4,73.3z"/>
		<g>
			<path class="st3" d="M61.4,32.1c0-0.3-0.2-0.9-0.7-1.2c-0.9-0.6-1.7-0.9-1.7-0.9l0-2.1c0.2-0.1,1.2-0.5,1.1-1.1
				c-0.1-0.5-0.9-1-1.3-1.1c-0.4-0.1-0.8,0.1-1.6,0.1s-1-1-1.9-1c-0.9,0-0.9,0.2-1.8,0.6c-0.4,0.2-0.4,0.3-0.9,0
				c-0.7-0.4-1.1-0.7-2-0.7c-0.4,0-1.2,0.6-1.6,0.7c-0.4,0.1-1.2-0.8-2.1-0.7c-0.3,0-1.1,0.7-1.3,0.9c-0.7,0.7-1.7-1.4-3.1,0
				c-0.5,0.6-0.7,0.7-1.2,0.5c-0.4-0.2-1-0.9-2-0.6c-0.7,0.2-1,0.8-1.6,0.9c-0.4,0.1-1-0.5-1.9-0.1c-0.7,0.2-1,1.1-1.3,1.3
				c-0.5,0.2-0.8-0.3-1.8-0.2c-0.6,0.1-1.8,1.1-1.7,1.9c0.1,0.8,1,1.2,1,1.2v2c0,0-0.7,0.4-0.8,0.5c-0.5,0.5-0.7,1.6-0.6,2.3
				c0.1,0.5,0.5,0.5,0.7,0.6c0.3,0.2,0,0.4,0.7,1c1.4,1.3,5.8,2,6.8,2.5c0.9,0.4,1,1.8,1.7,1.7c0.6-0.1,1.7-1.6,2.2-2.1
				c1.6-1.4,2.4-1.8,2.9-2.1c2.2-1.2,3.5-1.3,5.3-1.6c1.1-0.2,2.2,0,3.1,0.6c1.1,0.7,0.9,1.9,2.2,1.9s4.3-2.1,4.9-3.3
				c0.3-0.5,0.1-1,0.1-1.4C61.1,32.6,61.4,32.9,61.4,32.1z"/>
			<path class="st3" d="M32.4,14.6c0.4,0.9,1.1,2.5,2.3,2.9c1.2,0.4,1.5,0.7,1.7,1.4c0.1,0.4,0,0.8,0.3,1.2c0.4,0.8,2.1,1.2,2.3,1.6
				c0.6,1,1.6,1.3,1.9,1.5c0,0,0,0.4,0,0.9c0,0.2,1.3-0.4,4.5-0.6c2-0.1,4.1,0.1,5.2,0.3l0-1.2c0,0,0.4-0.2,1.4-1
				c1.1-0.7,1.2-3.7,0.9-4.8c-0.3-1.1-2.1-2.9-4.5-3.4c-2.4-0.5-2-1.6-2.5-2.9c-0.4-1.2-0.8-1.3-1.3-0.4c-0.5,0.7-1.1,1.2-1.7,2.3
				c-0.3,0.6-0.6,2.1-0.3,2.7c0.3,0.6,1.6,1.1,2.1,1.3c1.3,0.4,2.4,0.6,2.9,1.5c0.4,0.8,0.2,2.1-0.3,2.7c-0.9,1.1-1.4,1.2-2,1.3
				c-0.4,0.1,1.1-0.7,1.2-1.3c0.2-0.9,0.2-1.4-0.5-2.4c-0.6-0.8-3.7-2.1-4.4-2.4c-0.7-0.3-2.8-1.3-2.8-1.3s0.7,0.2,2.2-0.1
				c1.5-0.3,1.3-2.9,1.3-2.9c-0.1-0.8-0.5-1.8-0.8-1.4c-0.5,0.6-0.2,1.5-1.5,1.9c-0.8,0.3-2.5,0.4-3.7,0.1s-1.5-1-2.8-1.9
				c-1.3-0.9-2.9-0.9-3.5-1.3c-0.6-0.3-1.2-1.6-2.5-1.8c-1.3-0.2-0.9,0.3-0.7,0.6c0.3,0.5,0.8,1.8,0.8,2.4c0,0.6,0.9,1.9,1.6,2.3
				S32.1,13.9,32.4,14.6z"/>
		</g>
		<path class="st4" d="M31.7,30.3c3.2-1.3,7.5-2.6,13.3-3.1c6.1-0.5,11.2,0.2,14.7,0.9"/>
		<path class="st4" d="M30.7,32.9c3.4-1.4,8.2-2.8,14.5-3.4c6.7-0.6,12.2,0.2,16,1"/>
	</g>
	<text transform="matrix(1 -8.944959e-004 8.944959e-004 1 18.0113 87.5395)" class="st5 st6">Civil Liberties</text>
</g>
</svg>
