<?xml version="1.0" encoding="utf-8"?>
<!-- Generator: Adobe Illustrator 19.2.0, SVG Export Plug-In . SVG Version: 6.00 Build 0)  -->
<svg version="1.1" id="Layer_1" xmlns="http://www.w3.org/2000/svg" xmlns:xlink="http://www.w3.org/1999/xlink" x="0px" y="0px"
	 viewBox="0 0 90 90" style="enable-background:new 0 0 90 90;" xml:space="preserve">
<style type="text/css">
	.st0{fill:#98CB66;}
	.st1{fill:#FDFDFD;}
	.st2{fill:#98CA65;}
	.st3{fill:none;stroke:#000000;stroke-miterlimit:10;}
	.st4{font-family:'MyriadPro-Regular';}
	.st5{font-size:9.5px;}
</style>
<g>
	<g>
		<path d="M82.3,72.1c-26.3,0-48.4,3.3-75.2,0C7.1,46,9.6,33.1,9.6,7C35.9,7,49.7,5.3,76,5.3C76,31.4,82.3,46,82.3,72.1z M82.3,71.9
			c0-0.4,0.1-0.8,0.1-1.2c0-20.5,0-41.1,0-61.6c0-1.2-0.3-2.3-0.8-3.3c-1-1.9-2.6-2.9-4.8-2.9c-21.5,0-42.9,0-64.4,0
			c-1.5,0-2.8,0.6-3.8,1.8C7.4,6.1,7,7.6,7,9.4c0,20.4,0,40.8,0,61.2c0,0.4,0,0.7,0,1.1c0.1,0,0.1,0.1,0.2,0.1
			c0.1-0.1,0.1-0.3,0.2-0.4c6.9-6.7,13.8-13.3,20.7-20c0.2-0.2,0.3-0.2,0.6-0.2c3.6,0,7.2,0,10.8,0c0.1,0,0.2,0,0.4,0
			c-0.1-0.1-0.1-0.2-0.2-0.3c-1.9-3.1-3.9-6.2-5.8-9.3c-1.1-1.7-2.2-3.3-3.2-4.9c-2.7-4.2-3.3-8.6-1.2-13.1c1.6-3.6,4.4-6.1,8-7.8
			c3.9-1.8,8-2.2,12.2-1.4c4,0.8,7.4,2.7,10.1,5.8c2.2,2.6,3.4,5.6,3.3,9.1c-0.1,2.9-1,5.4-2.7,7.7c-3.3,4.6-6.7,9.3-10,13.9
			c-0.1,0.1-0.1,0.2-0.2,0.3c0.2,0,0.3,0,0.4,0c4.5,0,9,0,13.4,0c0.3,0,0.4,0.1,0.6,0.3c5.6,6.5,11.1,12.9,16.7,19.3
			C81.6,71.1,82,71.5,82.3,71.9z M78.3,70.2c-0.1-0.1-0.2-0.3-0.3-0.4c-4.8-5.5-9.5-11-14.3-16.6c-0.2-0.2-0.3-0.2-0.5-0.2
			c-4.7,0-9.4,0-14.1,0c-0.3,0-0.4,0.1-0.6,0.3c-1.2,1.7-2.5,3.4-3.7,5.2c-0.1,0.1-0.1,0.2-0.2,0.3c-0.1-0.1-0.1-0.2-0.2-0.3
			c-1.1-1.7-2.2-3.4-3.2-5.1C41.1,53.1,41,53,40.7,53c-3.7,0-7.5,0-11.2,0c-0.3,0-0.4,0.1-0.6,0.3C23.1,58.9,17.3,64.4,11.6,70
			c-0.1,0.1-0.1,0.1-0.2,0.2C33.7,70.2,56,70.2,78.3,70.2z M7.1,72.1c0.2,0.6,0.4,1.2,0.7,1.8c0.9,1.9,2.4,3.1,4.6,3.1
			c21.6,0,43.2,0,64.8,0c0.5,0,1-0.1,1.4-0.2c2.2-0.8,3.2-2.5,3.8-4.6C57.2,72.1,32.2,72.1,7.1,72.1z M45.5,24.3
			c-1.4,0-2.5,0.4-3.5,1.2c-2,1.6-2.1,4.2-0.3,6c2,1.9,5.6,1.9,7.6-0.1c1.6-1.6,1.6-4,0-5.6C48.2,24.8,46.9,24.4,45.5,24.3z"/>
		<path class="st0" d="M82.3,71.9c-0.4-0.4-0.7-0.8-1-1.2c-5.6-6.4-11.1-12.9-16.7-19.3c-0.2-0.2-0.3-0.3-0.6-0.3c-4.5,0-9,0-13.4,0
			c-0.1,0-0.2,0-0.4,0c0.1-0.1,0.1-0.2,0.2-0.3c3.3-4.6,6.6-9.3,10-13.9c1.7-2.3,2.6-4.9,2.7-7.7c0.1-3.4-1.1-6.5-3.3-9.1
			c-2.7-3.1-6.1-5-10.1-5.8c-4.2-0.8-8.3-0.4-12.2,1.4c-3.6,1.6-6.4,4.1-8,7.8c-2,4.6-1.5,9,1.2,13.1c1.1,1.6,2.2,3.3,3.2,4.9
			c2,3.1,3.9,6.2,5.8,9.3c0.1,0.1,0.1,0.2,0.2,0.3c-0.2,0-0.3,0-0.4,0c-3.6,0-7.2,0-10.8,0c-0.2,0-0.4,0.1-0.6,0.2
			c-6.9,6.7-13.8,13.3-20.7,20c-0.1,0.1-0.1,0.2-0.2,0.4c-0.1,0-0.1-0.1-0.2-0.1c0-0.4,0-0.7,0-1.1C7,50.2,7,29.8,7,9.4
			c0-1.7,0.4-3.3,1.6-4.7c1-1.2,2.2-1.8,3.8-1.8c21.5,0,42.9,0,64.4,0c2.2,0,3.8,1,4.8,2.9c0.6,1,0.8,2.2,0.8,3.3
			c0,20.5,0,41.1,0,61.6C82.4,71.1,82.4,71.5,82.3,71.9z"/>
		<path class="st1" d="M78.3,70.2c-22.3,0-44.6,0-66.9,0c0.1-0.1,0.1-0.2,0.2-0.2c5.7-5.6,11.5-11.1,17.2-16.7
			c0.2-0.2,0.4-0.3,0.6-0.3c3.7,0,7.5,0,11.2,0c0.3,0,0.4,0.1,0.6,0.3c1.1,1.7,2.1,3.4,3.2,5.1c0.1,0.1,0.1,0.2,0.2,0.3
			c0.1-0.1,0.1-0.2,0.2-0.3c1.2-1.7,2.5-3.4,3.7-5.2c0.1-0.2,0.3-0.3,0.6-0.3c4.7,0,9.4,0,14.1,0c0.2,0,0.4,0.1,0.5,0.2
			c4.8,5.5,9.5,11,14.3,16.6C78.1,69.9,78.2,70.1,78.3,70.2z"/>
		<path class="st2" d="M7.1,72.1c25.2,0,50.2,0,75.2,0c-0.5,2.2-1.6,3.9-3.8,4.6c-0.5,0.2-1,0.2-1.4,0.2c-21.6,0-43.2,0-64.8,0
			c-2.2,0-3.6-1.2-4.6-3.1C7.5,73.4,7.3,72.8,7.1,72.1z"/>
		<path class="st1" d="M45.5,24.3c1.4,0,2.7,0.5,3.7,1.5c1.6,1.6,1.6,4,0,5.6c-2,2-5.6,2-7.6,0.1c-1.8-1.7-1.7-4.4,0.3-6
			C43,24.7,44.1,24.4,45.5,24.3z"/>
	</g>
</g>
<g>
	<g>
		<path class="st3" d="M75.9,77H14.1C10.2,77,7,73.9,7,70V9.4c0-3.8,3.2-7,7.1-7h61.8c3.9,0,7.1,3.1,7.1,7V70
			C83,73.9,79.8,77,75.9,77z"/>
	</g>
	<text transform="matrix(1 0 0 1 21.6628 87.4604)" class="st4 st5">Countywide</text>
</g>
</svg>
