<?xml version="1.0" encoding="utf-8"?>
<!-- Generator: Adobe Illustrator 19.1.1, SVG Export Plug-In . SVG Version: 6.00 Build 0)  -->
<svg version="1.1" id="Layer_1" xmlns="http://www.w3.org/2000/svg" xmlns:xlink="http://www.w3.org/1999/xlink" x="0px" y="0px"
	 viewBox="0 0 90 90" style="enable-background:new 0 0 90 90;" xml:space="preserve">
<style type="text/css">
	.st0{fill:#FFFFFF;stroke:#000000;stroke-miterlimit:10;}
	.st1{fill:#020202;}
	.st2{font-family:'MyriadPro-Regular';}
	.st3{font-size:9.5px;}
</style>
<g>
	<path class="st0" d="M75.9,77H14.1C10.2,77,7,73.9,7,70V8.1C7,4.2,10.2,1,14.1,1h61.8C79.8,1,83,4.2,83,8.1V70
		C83,73.9,79.8,77,75.9,77z"/>
	<path class="st1" d="M63.8,41.1l-15.6,5.8c-2,0.7-4.2,0.7-6.2,0l-15.6-5.8c0,0-0.5,1.6,0,6.2c1.3,12.1,17.1,12,18.7,11.9
		c1.6,0,17.4,0.2,18.7-11.9C64.3,42.8,63.8,41.1,63.8,41.1z"/>
	<path d="M45.1,33.3c-0.5,0-0.4,0.1-0.7-0.1l-20.6,5.2l17.6,6.6c2.4,0.9,5.1,0.9,7.6,0l28-10.6c1.6-0.6,1.6-2.8,0-3.4L48.9,20.6
		c-2.4-0.9-5.1-0.9-7.5,0L13.2,31c-1.6,0.6-1.6,2.8,0,3.4l7.2,2.7h0v4.9c-0.5,0.3-0.8,0.8-0.8,1.4c0,0.5,0.2,0.8,0.5,1.1V48h0.2
		l-1.5,15.7c0,0,0.5,1,2.4,1s2.4-1,2.4-1L22.1,48h0.1v-3.4c0.3-0.3,0.5-0.7,0.5-1.2c0-0.6-0.3-1.1-0.8-1.4v-4.3L43,32.5
		c-0.2-0.2-0.3-0.5-0.3-0.7c0-0.1,0.1-0.4,0.2-0.5c0.2,0.7,1.1,1.2,2.3,1.2s2.1-0.5,2.3-1.2c0,0.1,0,0.5,0,0.6
		C47.4,32.6,46.4,33.3,45.1,33.3z"/>
</g>
<text transform="matrix(1 0 0 1 24.635 87.5)" class="st2 st3">Education</text>
</svg>
