<?xml version="1.0" encoding="utf-8"?>
<!-- Generator: Adobe Illustrator 19.1.1, SVG Export Plug-In . SVG Version: 6.00 Build 0)  -->
<svg version="1.1" id="Layer_1" xmlns="http://www.w3.org/2000/svg" xmlns:xlink="http://www.w3.org/1999/xlink" x="0px" y="0px"
	 viewBox="0 0 90 90" style="enable-background:new 0 0 90 90;" xml:space="preserve">
<style type="text/css">
	.st0{fill:#FFFFFF;stroke:#000000;stroke-miterlimit:10;}
	.st1{font-family:'MyriadPro-Regular';}
	.st2{font-size:9.5px;}
</style>
<g>
	<g>
		<path class="st0" d="M75.9,77H14.1C10.2,77,7,73.9,7,70V8.1C7,4.2,10.2,1,14.1,1h61.8C79.8,1,83,4.2,83,8.1V70
			C83,73.9,79.8,77,75.9,77z"/>
		<path d="M76.5,66.3H63.9V36.2h1.4c0,0-0.6,20.4,0,24.7c0.6,4,4.1,5.2,6.7,5.3c4.5,0.1,5.6-3.5,5-7.2c-0.8-4.9-5-9.9-5-13.1
			s0.6-22.6,0-24.9c-0.5-1.8-5.9-5.7-8.2-7.2V9.9c0-1.4-1.2-2.6-2.6-2.6H49.2H37.1c-1.4,0-2.6,1.2-2.6,2.6v56.3H21.9
			c-0.6,0-1.1,0.5-1.1,1.1V71c0,0.6,0.5,1.1,1.1,1.1h27.3h27.3c0.6,0,1.1-0.5,1.1-1.1v-3.6C77.6,66.8,77.1,66.3,76.5,66.3z
			 M63.9,18.3c0.5,0.2,1.1,0.6,1.1,1.4c0,1.6,0,4.3,0,4.3h3.9c0,0,0,16.6,0,21.2s4.6,12,4.9,14.1c0.3,2.1-0.2,3.6-2.7,3.5
			c-2.6-0.2-2.6-4.6-2.6-4.6s-1.1-9.4-0.2-22c0.2-2.4,0.6-3.2-1.1-3.3c-1.7-0.1-3.5,0-3.5,0V18.3z M60.9,22.7c0,0.7-0.6,1.3-1.3,1.3
			H38.7c-0.7,0-1.3-0.6-1.3-1.3V12.2c0-0.7,0.6-1.3,1.3-1.3h20.9c0.7,0,1.3,0.6,1.3,1.3V22.7z"/>
		<polygon points="19.5,21.8 29.1,20.2 19.5,40.7 29.1,38.2 12,64 17.1,44.7 10.5,46.1 		"/>
	</g>
	<text transform="matrix(1 -8.944959e-004 8.944959e-004 1 30.9639 87.5279)" class="st1 st2">Energy</text>
</g>
</svg>
