<?xml version="1.0" encoding="utf-8"?>
<!-- Generator: Adobe Illustrator 19.2.0, SVG Export Plug-In . SVG Version: 6.00 Build 0)  -->
<svg version="1.1" id="Expand_Tool_xA0_Image_1_" xmlns="http://www.w3.org/2000/svg" xmlns:xlink="http://www.w3.org/1999/xlink"
	 x="0px" y="0px" viewBox="0 0 1080 1080" style="enable-background:new 0 0 1080 1080;" xml:space="preserve">
<style type="text/css">
	.st0{display:none;fill:#CBCBFE;}
	.st1{fill:#555555;}
</style>
<g>
	<g>
		<path class="st0" d="M1,1081C1,721.1,1,361.1,1,1.1c359.9,0,719.8,0,1079.8,0c0,359.9,0,719.9,0,1079.9C721,1081,361,1081,1,1081z
			 M541.1,515.6c113.6,0,227.3,0,340.9,0c1.5,0,3,0,4.5,0c26.2-0.4,42.5-17.1,42.5-43.2c0-17.5,0.1-35-0.1-52.5c0-4-0.5-8-1.5-11.8
			c-5-18.2-20.6-29.1-41.1-29.1c-213.8,0-427.5,0-641.3,0c-18.2,0-36.3-0.1-54.5,0c-21.8,0.2-39.3,17.7-39.5,39.6
			c-0.2,19.2-0.1,38.3,0,57.5c0,8.4,2.6,16.1,7.6,22.8c9.1,12.3,21.7,16.8,36.6,16.8C310.5,515.6,425.8,515.6,541.1,515.6z
			 M543.9,640.5c-114.5,0-229,0-343.5,0c-1.7,0-3.3,0-5,0c-23.5,0.6-40.3,17.7-40.4,41.3c0,18-0.3,36,0.1,54
			c0.3,16.9,8.4,29.5,23.9,36.1c6.2,2.6,13.6,3.6,20.4,3.6c229,0.2,458,0.1,687,0.1c0.8,0,1.7,0,2.5,0c25.9-0.6,42.1-17.2,42.1-43.1
			c0-17.3,0.1-34.7,0-52c-0.1-16.5-9.6-31.3-25.1-36.9c-6.1-2.2-13-3-19.5-3C772.2,640.4,658,640.5,543.9,640.5z M541.4,1036.4
			c0-0.3,0-0.7,0-1c59.5,0,119,0.1,178.4,0c56-0.1,112-0.2,168-0.4c23.7-0.1,41.1-17.3,41.2-40.9c0.1-17,0-34,0-51
			c0-26.4-16.6-43.1-43-43.1c-58,0.2-116,0.4-173.9,0.6c-116.8,0.4-233.6,0.7-350.4,1c-55.5,0.2-111,0.3-166.5,0.4
			c-23.9,0.1-41.1,17.4-41.2,41.4c0,17,0,34,0,51c0,25.7,16.8,42.6,42.5,42.6c58.8-0.2,117.6-0.5,176.4-0.6
			C429.1,1036.3,485.3,1036.4,541.4,1036.4z"/>
		<path class="st1" d="M541.1,515.6c-115.3,0-230.6,0-345.9,0c-14.9,0-27.5-4.4-36.6-16.8c-5-6.8-7.6-14.4-7.6-22.8
			c-0.1-19.2-0.1-38.3,0-57.5c0.2-21.8,17.7-39.4,39.5-39.6c18.2-0.2,36.3,0,54.5,0c213.8,0,427.5,0,641.3,0
			c20.5,0,36,10.9,41.1,29.1c1.1,3.8,1.5,7.9,1.5,11.8c0.2,17.5,0.1,35,0.1,52.5c0,26.2-16.4,42.8-42.5,43.2c-1.5,0-3,0-4.5,0
			C768.4,515.6,654.7,515.6,541.1,515.6z"/>
		<path class="st1" d="M543.9,640.5c114.2,0,228.3,0,342.5,0.1c6.5,0,13.5,0.8,19.5,3c15.4,5.6,25,20.3,25.1,36.9
			c0.1,17.3,0,34.7,0,52c0,25.9-16.2,42.5-42.1,43.1c-0.8,0-1.7,0-2.5,0c-229,0-458,0-687-0.1c-6.8,0-14.2-1-20.4-3.6
			c-15.5-6.6-23.6-19.2-23.9-36.1c-0.4-18-0.1-36-0.1-54c0-23.5,16.8-40.7,40.4-41.3c1.7,0,3.3,0,5,0
			C314.9,640.5,429.4,640.5,543.9,640.5z"/>
		<path class="st1" d="M541.4,1036.4c-56.2,0-112.3-0.1-168.5,0c-58.8,0.1-117.6,0.4-176.4,0.6c-25.7,0.1-42.5-16.8-42.5-42.6
			c0-17,0-34,0-51c0.1-24.1,17.3-41.4,41.2-41.4c55.5-0.1,111-0.2,166.5-0.4c116.8-0.3,233.6-0.7,350.4-1c58-0.2,116-0.4,173.9-0.6
			c26.4-0.1,43,16.7,43,43.1c0,17,0,34,0,51c-0.1,23.6-17.5,40.9-41.2,40.9c-56,0.1-112,0.3-168,0.4c-59.5,0.1-119,0-178.4,0
			C541.4,1035.7,541.4,1036.1,541.4,1036.4z"/>
	</g>
</g>
</svg>
