<?xml version="1.0" encoding="utf-8"?>
<!-- Generator: Adobe Illustrator 19.1.1, SVG Export Plug-In . SVG Version: 6.00 Build 0)  -->
<svg version="1.1" id="Layer_1" xmlns="http://www.w3.org/2000/svg" xmlns:xlink="http://www.w3.org/1999/xlink" x="0px" y="0px"
	 viewBox="0 0 90 90" style="enable-background:new 0 0 90 90;" xml:space="preserve">
<style type="text/css">
	.st0{fill:#FFFFFF;stroke:#000000;stroke-miterlimit:10;}
	.st1{font-family:'MyriadPro-Regular';}
	.st2{font-size:9.5px;}
</style>
<g>
	<g>
		<path class="st0" d="M75.9,77.1H14.1C10.2,77.1,7,73.9,7,70V8.2c0-3.9,3.2-7.1,7.1-7.1h61.8c3.9,0,7.1,3.2,7.1,7.1V70
			C83,73.9,79.8,77.1,75.9,77.1z"/>
		<g>
			<path d="M60.9,24.9c-1.1,0.5-2.3,1.1-3.4,1.7c-3.9,2.3-5.3,6.2-3.4,10.2c0.7,1.4,0.7,1.4-0.5,2.6c0,0-0.1,0.1-0.1,0.1
				c-2.1,2.1-4.5,3.9-7.3,4.9c-1.3,0.5-2.7,0.6-4,0.9c-2,0.5-3.1,2.2-2.9,4.3c0.1,0.9,0.3,1.7,0.4,2.6c0.5,2.8,1,5.7,1.5,8.5
				c0.3,1.7,1.4,3.1,2,4.7c0.3,0.8,0.2,1.3-0.6,1.6c-0.7,0.3-1.5,0.6-2.2,0.8c-3.1,1.1-6.2,2.3-9.3,3.4c-0.6,0.2-1.1,0.5-1.4,1.1
				c-0.6,1.1-2.1,1.3-2.9,0.4c-2.2-2.3-3.4-5-3.5-8.2c-0.1-2-0.1-4.1-0.2-6.1c-0.1-3.1-0.2-6.2-0.3-9.3c-0.1-2.5-1.3-3.8-3.8-4
				c-1.2-0.1-2.3,0.1-3.5,0.4c-0.6,0.1-1.3,0.1-1.5-0.5c-0.2-0.6,0.1-1.1,0.7-1.4c0.9-0.5,1.3-1.2,1.5-2.2c0.2-1,0-1.9,0.2-2.9
				c0.1-1.2-0.3-2.1-1-3c-0.3-0.3-0.5-0.6-0.8-1c-0.4-0.5-0.6-1.1-0.2-1.7c0.3-0.6,0.9-0.7,1.5-0.6c0.8,0.1,1.4-0.1,1.8-0.8
				c0.4-0.8,1-1.2,1.7-1.6c0.5-0.3,0.8-0.6,0.8-1.2c0-1.3,0.6-1.6,1.7-0.8c0.5,0.4,0.9,0.4,1.5,0.2c4.8-2,9.5-4.3,14.4-6.3
				c9.4-3.9,18.5-8.4,27.7-12.6c0.4-0.2,0.6-0.4,0.8-0.9c0.5-1.8,1-2.2,2.3-2.2c0.5,0,1,0.2,1.4,0.5c0.5,0.3,0.9,0.3,1.4,0
				c1.1-0.5,1.4-0.4,2.1,0.7c0.3,0.5,0.6,1.1,0.7,1.7c0.3,1.3,0.2,1.4-0.9,1.9c-0.8,0.3-0.9,0.7-0.5,1.5c0.6,1.3,1.2,2.6,1.8,3.9
				c0.5,1,0.4,1.1-0.6,1.6c-0.8,0.4-1.5,0.7-2.3,1.1c-0.6,0.3-1.1,0.5-1.1,1.3c0,0.5-0.4,0.6-0.8,0.7c-1.8,0.8-3.6,1.7-5.4,2.5
				C63.2,23.9,62,24.4,60.9,24.9z M44.6,34.3c-1.2,0.6-1.3,0.7-0.9,2c0.7,2.1,2.3,3.1,4.4,3.4c0.2,0,0.4,0,0.6,0.1
				c0.2,0,0.4,0.1,0.4,0.3c0,0.2-0.1,0.4-0.3,0.5c-0.5,0.2-1,0.2-1.5,0.2c-1.9-0.3-3.5-1.2-5-2.3c-0.4-0.3-0.5-0.8-0.7-1.2
				c-0.4-0.9-0.9-1.1-1.8-0.7c-1.1,0.5-1.9,1.3-2.2,2.4c-0.9,3,1.2,5.6,4.2,5.2c3.6-0.4,6.9-1.7,9.5-4.3c1.1-1,1.5-2.3,1.1-3.8
				c-0.4-1.6-1.3-2.8-3-3.2c-1.3-0.3-2.4,0.2-3.4,0.7c-0.2,0.1-0.3,0.1-0.5,0.2C45.3,34,45,34.2,44.6,34.3z M29.2,71.2
				c-0.3-0.7-0.8-0.3-1.2-0.1c-0.4,0.2-1,0.2-0.7,0.9c0.2,0.6,0.8,0.7,1.3,0.5C29.2,72.2,29.5,71.8,29.2,71.2z"/>
		</g>
	</g>
	<text transform="matrix(1 0 0 1 20.3446 87.5413)" class="st1 st2">Gun Control</text>
</g>
</svg>
