<?xml version="1.0" encoding="utf-8"?>
<!-- Generator: Adobe Illustrator 19.1.1, SVG Export Plug-In . SVG Version: 6.00 Build 0)  -->
<svg version="1.1" id="Layer_1" xmlns="http://www.w3.org/2000/svg" xmlns:xlink="http://www.w3.org/1999/xlink" x="0px" y="0px"
	 viewBox="0 0 90 90" style="enable-background:new 0 0 90 90;" xml:space="preserve">
<style type="text/css">
	.st0{fill:#FFFFFF;stroke:#000000;stroke-miterlimit:10;}
	.st1{fill:#FFFFFF;}
	.st2{font-family:'MyriadPro-Regular';}
	.st3{font-size:9.5px;}
</style>
<g>
	<g>
		<path class="st0" d="M75.9,77H14.1C10.2,77,7,73.9,7,70V8.1C7,4.2,10.2,1,14.1,1h61.8C79.8,1,83,4.2,83,8.1V70
			C83,73.9,79.8,77,75.9,77z"/>
		<g>
			<g>
				<path d="M46.7,8.8c0.5,0.7,1.5,1.4,1.5,1.4c0.2,0.1,0.4,0.3,0.6,0.4l5,2.4c0.2,0.1,0.5,0.3,0.6,0.4l0.5,0.6
					c0.1,0.2,0.2,0.5,0.3,0.7c0,0,1.2,3.5,1.9,5.4c0.6,1.6,1.6,4.6,1.6,4.6c0.1,0.2,0.2,0.5,0.2,0.7c0,0,0.3,1,0.6,1.7
					c0.2,0.4,0.5,0.8,0.9,1c0.7,0.3,1.7,0.8,1.7,0.8c0.2,0.1,0.4,0.2,0.6,0.2c0.1,0,0.2-0.5,0.2-0.7c0,0-0.1-1.1-0.2-1.9
					c-0.1-0.5-0.1-1-0.1-1.4c-0.1-0.8-0.2-1.9-0.2-1.9c0-0.2-0.1-0.5-0.1-0.7l-0.1-0.7c0-0.2-0.1-0.5-0.1-0.7L62,19.3
					c0-0.2-0.1-0.5-0.1-0.7l-0.1-0.7c0-0.2,0-0.5-0.1-0.6c0-0.1,0.1-0.4,0.3-0.3c0,0,0.5,0.2,1,0.4c1.3,0.6,2.6,1.1,4,1.5
					c1.1,0.3,3,0.7,3,0.7c0.2,0,0.5,0.1,0.7,0.1c0,0,0.6,0.1,1.1,0.1c0.4,0,0.8,0,1.3-0.1c0.2,0,0.1,0.1,0.3-0.1
					c0.8-0.8,2.6-2.4,2.6-2.4c0.1-0.1,0.4-0.4,0.5-0.5l2-2.3c0.1-0.2,0.1-0.3-0.1-0.4c0,0-0.4-0.2-0.7-0.3c-0.3-0.1-0.5-0.1-0.8-0.1
					c-0.6,0.2-2,0.6-2,0.6c-0.2,0.1-0.5,0.2-0.7,0.2c0,0-1.7,0.6-2.8,0.9c-0.1,0-0.3,0-0.4,0c-1.3-0.6-2.7-1.3-4-1.9
					c-1.6-0.8-3.2-1.5-4.8-2.3c-1.1-0.5-2.8-1.4-2.8-1.4c-0.2-0.1-0.5-0.2-0.6-0.3l-4.3-2.1c-0.2-0.1-0.5-0.2-0.6-0.3l-1.5-0.7
					c-0.2-0.1-0.5-0.2-0.7-0.3c0,0-0.5-0.1-1-0.2C50.4,5.8,50,5.8,50,5.8c-0.2,0-0.5,0-0.7,0.1L48,6.2c-0.2,0.1-0.5,0.2-0.7,0.3
					c0,0-1.2,0.3-1.2,0.9C46.2,7.9,46.5,8.4,46.7,8.8z"/>
			</g>
			<path d="M60.5,9c1.1,0.5,2.1,1,3.1,1.5c0.6,0.3,1.3,0.6,1.9,0.9c0.1,0,0.3,0,0.4,0c1.7-1.1,3.3-2.1,5-3.2c0.3-0.2,0.3-0.4,0-0.6
				c-0.8-0.4-1.6-0.8-2.4-1.1c-0.2-0.1-0.5-0.1-0.7,0c-2.3,0.8-4.6,1.6-7,2.4C60.6,8.9,60.6,9,60.5,9z"/>
		</g>
		<path d="M13.2,70.8c-0.3-1.4,0.5-2.8,1.9-3.1c3.5-0.8,9.8-2.5,13.7-5.1c1-0.7,14.8-9.2,16.1-10c12.6-7.7,20.4-10.9,27.5-9.3
			c2.6,0.6,4,2.8,2.6,7.1c-2.2,7-4.5,12.9-6.1,16.6c-1.6,3.7-1,7.2-1,7.2H27.6h-2.1H14C14,74.1,13.7,72.7,13.2,70.8z"/>
		<path d="M20.1,63.3l2.9-1.7l0.2-5.1c0-1,0.5-1.9,1.3-2.5c4.1-2.9,16.1-10.9,20.6-13.7c10.1-6.2,16.1-3.1,16.1-3.1l0.7,1.7
			c0,0-5.9-0.2-12.3,2.5C43.6,44,27.8,56.2,27.8,56.2l-0.1,1.6c0,0,18.7-12.5,23.3-14.3c5.5-2.3,8.6-2.3,11.5-2.3
			c0.8,0,3.2,0.4,3.2,0.4L64,36.2c-0.3-1-1.1-1.9-2.2-2.2c-2.2-0.7-6.4-1.5-11.8-0.2c-7,1.7-23.3,14.1-28.2,18
			c-0.8,0.7-1.3,1.7-1.3,2.7L20.1,63.3z"/>
		<path d="M30,42.8l-0.9-7c-0.2-2.8,2.7-3.8,4.4-4.3c4-1.1,5.2,0.9,5.2,0.9l1.2,4.2L30,42.8z"/>
		<ellipse class="st1" cx="59.5" cy="54" rx="1.9" ry="2.9"/>
		<path class="st1" d="M9.7,72.5c0.1,0.5,6.4,0.1,5.9-2.6c-0.3-1.2,2.6,1.5,6.3,2.6c3.5,1,6.7-1.5,6.3-2.8s3.8,2.8,6.3,2.8
			c2.5,0,4.9-1,5.4-2.8c0.5-1.7,3.5,2.8,7.5,2.8s4.6-1.9,4.9-3.2s4.5,3.2,7.3,3.2s4-1.6,4-3.7c0-0.5,4.9,3.7,6.7,3.6
			s2.8-0.9,3.5-2.4c0.5-1.2,4.6,3,5.6,2.6s-2.5,2.9-2.5,2.9H14.5L9.7,72.5z"/>
		<path class="st1" d="M48.2,6.1c-0.1-0.1-0.6,0.4-0.1,1c0.3,0.3,0.5,0.3,0.6,0.5C48.8,7.8,48.6,8,48.6,8s-0.3-0.1-0.7-0.5
			c-0.2-0.2-0.4-0.5-0.4-0.8C47.5,6.3,48.2,6.1,48.2,6.1z"/>
		<path d="M69.1,18.9c0,0,4.4-0.3,4.4,0.5c0.1,0.8,0,3,0,3.9c0,0.2,0,0.4-0.2,0.4h-1c-0.1,0-0.3-0.1-0.3-0.2L69.1,18.9z"/>
	</g>
	<text transform="matrix(1 0 0 1 19.9337 87.5)" class="st2 st3">Immigration</text>
</g>
</svg>
