<?xml version="1.0" encoding="utf-8"?>
<!-- Generator: Adobe Illustrator 19.1.1, SVG Export Plug-In . SVG Version: 6.00 Build 0)  -->
<svg version="1.1" id="Layer_1" xmlns="http://www.w3.org/2000/svg" xmlns:xlink="http://www.w3.org/1999/xlink" x="0px" y="0px"
	 viewBox="0 0 90 90" style="enable-background:new 0 0 90 90;" xml:space="preserve">
<style type="text/css">
	.st0{fill:#FFFFFF;stroke:#000000;stroke-miterlimit:10;}
	.st1{clip-path:url(#SVGID_2_);}
	.st2{clip-path:url(#SVGID_2_);fill:none;stroke:#000000;stroke-width:0.75;stroke-miterlimit:10;}
	.st3{clip-path:url(#SVGID_2_);fill:none;stroke:#000000;stroke-width:0.5;stroke-miterlimit:10;}
	.st4{clip-path:url(#SVGID_2_);fill:#FFFFFF;}
	.st5{clip-path:url(#SVGID_2_);fill:none;stroke:#000000;stroke-width:0.25;stroke-miterlimit:10;}
	.st6{clip-path:url(#SVGID_2_);fill:none;stroke:#FFFFFF;stroke-width:0.25;stroke-miterlimit:10;}
	.st7{font-family:'MyriadPro-Regular';}
	.st8{font-size:9.5px;}
</style>
<g>
	<g>
		<path class="st0" d="M75.9,77H14.1C10.2,77,7,73.9,7,70V8.1C7,4.2,10.2,1,14.1,1h61.8C79.8,1,83,4.2,83,8.1V70
			C83,73.9,79.8,77,75.9,77z"/>
		<g>
			<defs>
				<path id="SVGID_1_" d="M73,75.1H17c-3.9,0-7.1-3.2-7.1-7.1V12C9.9,8.1,13.1,5,17,5h56c3.9,0,7.1,3.2,7.1,7.1v56
					C80.1,71.9,76.9,75.1,73,75.1z"/>
			</defs>
			<clipPath id="SVGID_2_">
				<use xlink:href="#SVGID_1_"  style="overflow:visible;"/>
			</clipPath>
			<path class="st1" d="M29.1,69.5h-4.2V9.7c0-1,0.8-1.8,1.8-1.8h2.4V69.5z"/>
			<path class="st1" d="M41,11.2H25.2V9.6c0-1,0.8-1.7,1.7-1.7h12.4c1,0,1.7,0.8,1.7,1.7V11.2z"/>
			<path class="st1" d="M25.1,68.7h15.8l4.2,2.1c0.7,0.3,0.4,1.4-0.3,1.4H21.5c-0.8,0-1-1-0.4-1.4L25.1,68.7z"/>
			<path class="st1" d="M64.7,70.9h-2.6V34.3c0-0.9,0.7-1.7,1.7-1.7h0.9V70.9z"/>
			<path class="st1" d="M71.9,34.6h-9.8v-0.9c0-0.6,0.5-1.1,1.1-1.1h7.5c0.6,0,1.1,0.5,1.1,1.1V34.6z"/>
			<path class="st1" d="M62.2,69.9h9.8l2.5,1.2c0.5,0.2,0.3,0.9-0.2,0.9H60.1c-0.5,0-0.7-0.7-0.2-0.9L62.2,69.9z"/>
			<polygon class="st1" points="-1.5,42.5 83.4,56 83.4,57.8 -1.5,49.1 			"/>
			<path class="st2" d="M80.1,54.2c-8.9-0.2-14.9-15.5-16.4-19.6c-0.1-0.3-0.5-0.3-0.6,0C51,78.3,28.4,17.6,25.6,9.7
				c-0.1-0.3-0.5-0.3-0.6,0c-2.6,6.8-21.1,52.7-44.4,13.6"/>
			<path class="st3" d="M8.9,12"/>
			<polygon class="st4" points="-1.5,43.5 83.4,56.3 83.4,56.9 -1.5,45.7 			"/>
			<path class="st1" d="M40.9,69.5h-4.2V8h2.4c1,0,1.8,0.8,1.8,1.8V69.5z"/>
			<path class="st1" d="M72,70.9h-2.6V32.6h0.9c0.9,0,1.7,0.7,1.7,1.7V70.9z"/>
			<line class="st3" x1="34" y1="24" x2="34" y2="48.9"/>
			<line class="st3" x1="44" y1="20.6" x2="44" y2="50"/>
			<line class="st3" x1="50.5" y1="38.2" x2="50.5" y2="50.9"/>
			<line class="st3" x1="55.4" y1="47.2" x2="55.4" y2="51.8"/>
			<line class="st3" x1="59.9" y1="51.3" x2="60.9" y2="52.3"/>
			<line class="st3" x1="67.8" y1="47.1" x2="67.8" y2="53.9"/>
			<line class="st3" x1="74.3" y1="44" x2="74.3" y2="54.9"/>
			<line class="st3" x1="77.2" y1="50.2" x2="77.1" y2="55.3"/>
			<line class="st3" x1="79.4" y1="53.1" x2="79.4" y2="55.4"/>
			<path class="st2" d="M83.4,55.4c-7.8-2-10.8-16.4-11.5-20c0-0.2-0.3-0.2-0.3,0C60.4,81.7,43.4,18.6,41.3,10.8
				c-0.1-0.2-0.4-0.3-0.5,0c-2.8,6.9-24.8,58.4-48.8,12.1"/>
			<line class="st3" x1="20.5" y1="39.6" x2="20.5" y2="46.3"/>
			<line class="st3" x1="12.1" y1="41.6" x2="12.1" y2="44.7"/>
			<line class="st5" x1="0.1" y1="34.2" x2="0.1" y2="42.1"/>
			<line class="st5" x1="-1.5" y1="38.2" x2="-1.5" y2="41.5"/>
			<line class="st5" x1="6.4" y1="35.8" x2="6.4" y2="43.7"/>
			<line class="st5" x1="15.1" y1="28.8" x2="15.1" y2="45.4"/>
			<line class="st5" x1="22.6" y1="15.3" x2="22.6" y2="46.3"/>
			<line class="st5" x1="32" y1="25" x2="32" y2="48.6"/>
			<line class="st5" x1="42.2" y1="43.5" x2="42.2" y2="49.7"/>
			<line class="st5" x1="47.6" y1="48.9" x2="47.6" y2="50.5"/>
			<line class="st5" x1="52.7" y1="50" x2="52.7" y2="51.3"/>
			<line class="st5" x1="57.3" y1="47.4" x2="57.3" y2="51.9"/>
			<line class="st5" x1="60.4" y1="41.7" x2="60.4" y2="52.8"/>
			<line class="st5" x1="66.4" y1="41" x2="66.4" y2="53.4"/>
			<line class="st5" x1="73.2" y1="51.2" x2="73.2" y2="54.4"/>
			<path class="st6" d="M83.4,54.9C75.8,52.9,72.7,38.8,72,35c0-0.2-0.3-0.2-0.4,0c-11,45.5-27.7-15.1-30.1-24.3
				c-0.1-0.4-0.6-0.4-0.7-0.1c-2.2,5.2-12.2,27.9-25.2,30.7c-7.1,1.5-15.1-2.9-23.4-19"/>
		</g>
	</g>
	<text transform="matrix(1 0 0 1 16.4465 87.5)" class="st7 st8">Infrastructure </text>
</g>
</svg>
