<?xml version="1.0" encoding="utf-8"?>
<!-- Generator: Adobe Illustrator 19.1.1, SVG Export Plug-In . SVG Version: 6.00 Build 0)  -->
<svg version="1.1" id="Layer_1" xmlns="http://www.w3.org/2000/svg" xmlns:xlink="http://www.w3.org/1999/xlink" x="0px" y="0px"
	 viewBox="0 0 90 90" style="enable-background:new 0 0 90 90;" xml:space="preserve">
<style type="text/css">
	.st0{fill:#FFFFFF;stroke:#000000;stroke-miterlimit:10;}
	.st1{fill:#FFFFFF;}
	.st2{font-family:'MyriadPro-Regular';}
	.st3{font-size:9.5px;}
</style>
<g>
	<g>
		<path class="st0" d="M76,77H14.2c-3.9,0-7.1-3.2-7.1-7.1V8.1c0-3.9,3.2-7.1,7.1-7.1H76c3.9,0,7.1,3.2,7.1,7.1v61.8
			C83.1,73.8,80,77,76,77z"/>
		<path d="M73.4,74.3H16.5c-3.6,0-6.5-2.9-6.5-6.6V10.3c0-3.6,2.9-6.6,6.5-6.6h56.8c3.6,0,6.5,2.9,6.5,6.6v57.4
			C79.9,71.3,77,74.3,73.4,74.3z"/>
		<g>
			<g>
				<path class="st1" d="M11.8,35c0-0.1,0-0.2,0-0.2c-0.2-0.6-0.5-1.2-0.7-1.9C11,32.6,11,32.4,11,32.2c0-0.1,0.1-0.1,0.2-0.2
					c0.1,0.1,0.3,0.1,0.3,0.2c0,0.5,0.2,0.9,0.5,1.3c0.1,0.1,0.1,0.2,0.1,0.2c-0.2,0.4,0.3,0.6,0.5,0.9c0.1,0.2,0.4,0.3,0.4,0.5
					c0.1,0.2,0.1,0.4,0,0.6c-0.1,0.2,0,0.4,0.2,0.6c0.5,0.3,1,0.6,1.4,0.9c0.2,0.1,0.4,0.2,0.6,0.3c0.2,0.1,0.4,0.1,0.7,0
					c0.2-0.1,0.5,0,0.7,0.3c0.1,0.2,0.3,0.4,0.5,0.5c0.2,0.1,0.6,0.2,0.8,0.2c0.1,0,0.2,0,0.2,0.1c0.2,0.3,0.3,0.6,0.5,0.8
					c0,0.1,0.1,0.2,0.1,0.2c0.2,0.2,0.4,0.4,0.6,0.6c0,0,0.1,0.1,0.1,0.1c0.3,0.1,0.5,0.2,0.8,0.3c0,0,0-0.1,0-0.2
					c0.1-0.1,0.2-0.2,0.3-0.2c0.1,0,0.3,0.1,0.3,0.2c0.3,0.4,0.3,0.9,0.3,1.4c0,0.2-0.1,0.4-0.3,0.6c-0.4,0.4-0.7,0.9-0.8,1.4
					c0,0.1,0,0.3,0.1,0.5c0.1,0.1,0.1,0.2,0,0.3c-0.3,0.3-0.3,0.9,0.1,1.2c0.1,0.1,0.2,0.3,0.3,0.4c0.2,0.4,0.5,0.8,0.7,1.2
					c0.2,0.4,0.5,0.8,0.6,1.2c0.1,0.3,0.5,0.4,0.7,0.6c0.3,0.2,0.6,0.5,0.9,0.7c0.1,0.1,0.2,0.3,0.2,0.5c0.2,1.1,0.1,2.3,0.1,3.4
					c0,0.2,0.2,0.5,0.2,0.7c0,0.1,0,0.1,0,0.2c0,0.4-0.1,0.9-0.1,1.3c0,0.4-0.1,0.7,0.2,1.1c0.1,0.1,0.1,0.2,0.1,0.3
					c0,0.3,0.1,0.6,0.1,0.9c0,0.1,0.2,0.1,0.4,0.2c0,0.2,0.3,0.4-0.2,0.5c0,0.1,0.1,0.3,0.1,0.4c0,0.2-0.1,0.4,0.2,0.5
					c0.1,0,0.1,0.1,0,0.2c-0.1,0.2,0,0.4,0.2,0.5c0.2,0.3,0.4,0.5,0.6,0.8c0.1,0.1,0.2,0.2,0.3,0.4c0.2,0.3,0.6,0.5,1,0.6
					c0.3,0.1,0.6,0.1,0.9,0.2c0.1,0,0.3-0.1,0.5-0.1c0.1-0.1,0.1-0.2,0-0.2c-0.6-0.1-0.9-0.4-1.2-0.7c-0.2-0.2-0.2-0.4-0.1-0.6
					c0.1-0.3,0.2-0.5,0.3-0.8c0,0-0.1-0.1-0.1-0.2c-0.1-0.1-0.3-0.2-0.3-0.4c-0.1-0.1-0.1-0.3,0-0.4c0.3-0.2,0.2-0.6,0.3-0.8
					c0,0-0.1-0.1-0.1-0.2c-0.1-0.1-0.2-0.2-0.2-0.3c0-0.1,0-0.2,0.3-0.2c0.3,0,0.5-0.2,0.4-0.4c0-0.3,0-0.3,0.4-0.3
					c0.6-0.1,0.8-0.2,0.9-0.7c0-0.1-0.1-0.2-0.2-0.3c-0.1-0.2-0.2-0.4-0.4-0.5c0,0,0.1-0.1,0.1-0.1c0.1,0,0.3,0.1,0.4,0.1
					c0.3,0.2,0.4,0.2,0.6-0.1c0.2-0.2,0.3-0.5,0.4-0.8c0.1-0.2,0.1-0.4,0.2-0.5c0,0,0.1-0.1,0.1-0.1c0.4-0.2,0.5-0.6,0.5-0.9
					c0-0.1,0-0.2,0-0.3c-0.1-0.4,0.2-0.7,0.6-0.9c0.4-0.2,0.7-0.4,1.1-0.6c0.4-0.2,0.7-0.6,0.7-1c0-0.2,0.1-0.3,0.1-0.5
					c0-0.1,0-0.2,0-0.3c0-0.3,0.1-0.6,0.1-0.9c0,0,0-0.1,0-0.1c-0.2-0.4,0.2-0.7,0.4-1c0.3-0.5,0.5-0.9,0.7-1.4
					c0.1-0.3,0-0.6-0.4-0.9c-0.3-0.2-0.6-0.4-0.9-0.7c-0.2-0.1-0.4-0.2-0.6-0.2c-0.2,0-0.4,0-0.5,0c-0.3,0-0.5-0.1-0.6-0.3
					c-0.1-0.2-0.8-0.4-1.1-0.4c-0.2-0.1-0.3-0.3-0.5-0.4c0,0-0.1,0-0.1-0.1c-0.1-0.3-0.2-0.5-0.3-0.8c-0.1-0.4-0.4-0.8-0.9-1
					c-0.1,0-0.2-0.1-0.3,0c-0.7,0.1-1.1-0.2-1.4-0.7c-0.1-0.1-0.1-0.1-0.2-0.2c-0.3-0.2-0.6-0.4-0.8-0.7c-0.1-0.1-0.1-0.1-0.2-0.2
					c-0.4,0.2-0.8,0.2-1.2,0c-0.2-0.1-0.4,0-0.5-0.1c-0.2-0.1-0.4-0.2-0.5-0.3c0,0-0.1-0.1-0.1-0.1c-0.1,0.1-0.2,0.3-0.2,0.4
					c-0.1,0-0.1-0.1-0.2-0.1c0-0.1,0-0.1,0.1-0.2c0-0.1,0-0.1,0-0.1c-0.1,0-0.1,0-0.2,0c-0.3,0.1-0.5,0.3-0.8,0.4
					c-0.2,0.1-0.3,0.3-0.4,0.5c0,0,0,0.1,0,0.1c-0.1,0.1-0.2,0.2-0.3,0.3c-0.1-0.1-0.3-0.1-0.4-0.2c-0.2-0.2-0.5-0.3-0.9-0.1
					C20,40,19.8,40,19.7,39.9c-0.1-0.2-0.3-0.4-0.3-0.6c-0.1-0.4,0-0.9,0.1-1.3c0-0.1,0-0.1-0.1-0.2c-0.2-0.1-0.4-0.3-0.8-0.2
					c-0.2,0.1-0.4,0-0.7-0.1c0,0-0.1-0.1-0.1-0.1c0.2-0.5,0.4-1,0.6-1.4c0-0.1,0.1-0.3,0-0.3c-0.1,0-0.3-0.1-0.4,0
					c-0.2,0.1-0.5,0.2-0.5,0.4c0,0.2-0.1,0.3-0.3,0.4c-0.3,0.1-0.5,0.2-0.8,0.3c-0.3,0.1-0.6-0.1-0.8-0.5c-0.1-0.3-0.3-0.5-0.3-0.8
					c0-0.2,0.1-0.4,0.2-0.6c0.1-0.3,0.2-0.5,0.2-0.8c0-0.3,0.2-0.6,0.5-0.8c0.2-0.1,0.5-0.3,0.7-0.5c0.4-0.2,0.7-0.3,1.1-0.1
					c0.1,0,0.3,0,0.4-0.1c0.2,0,0.3-0.1,0.5-0.2c0.1,0,0.3,0,0.4-0.1c0.1,0,0.1,0,0.2,0c0.3,0.1,0.5,0.2,0.8,0.3
					c0.2,0.1,0.3,0.2,0.2,0.4c-0.1,0.3-0.1,0.6,0.2,0.9c0,0,0.1,0.1,0.2,0.1c0,0,0.1-0.1,0.1-0.1c0-0.4,0-0.7,0-1.1
					c0-0.3,0-0.6,0.2-0.9c0.4-0.4,0.9-0.8,1.4-1.1c0.2-0.1,0.4-0.3,0.6-0.5c0,0,0.1-0.1,0.1-0.1c-0.1-0.3,0.2-0.6,0.3-0.8
					c0-0.1,0.1-0.1,0.2-0.2c0.1-0.1,0.2-0.2,0.3-0.3c0.1-0.1,0.2-0.2,0.4-0.3c0.3-0.1,0.6-0.2,0.8-0.2c0.1,0,0.2-0.1,0.2-0.2
					c0-0.4,0.3-0.6,0.7-0.8c0.2-0.1,0.5-0.2,0.7-0.2c0.1,0,0.2,0,0.3,0c0,0.1,0,0.1,0,0.1c0,0.1,0,0.2,0,0.2c0.1,0,0.2,0,0.3,0
					c0.5-0.2,0.9-0.4,1.4-0.6c0.2-0.1,0.2-0.2,0.1-0.2c-0.3,0.1-0.5,0.2-0.8,0.2c-0.3,0-0.5-0.2-0.4-0.5c0.1-0.1,0.1-0.3,0.2-0.4
					c0.1-0.2,0-0.2-0.2-0.2c-0.1,0-0.2,0-0.3,0c0.1-0.3,0.2-0.4,0.6-0.4c0.5,0,1,0,1.5-0.1c0.2,0,0.5-0.1,0.7-0.2c0,0,0.1,0,0.1,0.1
					c-0.1,0.2-0.3,0.4-0.4,0.6c-0.1,0.1-0.2,0.2-0.3,0.3c-0.1,0.1-0.1,0.2,0.2,0.2c0.4,0,0.7,0.1,1,0.2c0.2,0,0.3-0.1,0.3-0.2
					c0-0.2,0-0.3,0-0.5c0-0.1-0.1-0.1-0.2-0.1c-0.2,0-0.3-0.1-0.3-0.2c0-0.2,0-0.4,0.1-0.6c0.2-0.4,0.1-0.8-0.3-1
					c-0.1-0.1-0.3-0.1-0.3-0.2c-0.1-0.1-0.1-0.3-0.1-0.4c0-0.4,0-0.7-0.2-1.1c-0.1,0.1-0.2,0.1-0.2,0.2c-0.2,0.1-0.4,0.3-0.6,0.4
					c-0.1,0-0.3,0-0.4,0c-0.1-0.1-0.2-0.2-0.2-0.3c0-0.2,0-0.4-0.2-0.6c-0.1-0.2-0.3-0.3-0.6-0.2c-0.1,0-0.2,0-0.3,0
					c-0.6,0-0.6,0-0.8,0.4c-0.1,0.2-0.3,0.4-0.4,0.6c-0.1,0.1-0.2,0.2,0,0.3c0.1,0.2,0,0.5-0.2,0.6c-0.3,0.1-0.5,0.3-0.8,0.4
					C25.2,23.9,25,24,25,24.2c-0.1,0.3,0,0.6-0.4,0.7c-0.1,0.1-0.2,0.2-0.4,0c-0.1-0.1-0.3-0.3-0.1-0.4c0,0,0,0,0-0.1
					c0-0.2,0-0.4,0.1-0.5c0.1-0.1,0-0.2-0.2-0.2c-0.5,0-0.7-0.3-1.1-0.5c-0.2-0.1-0.3-0.2-0.5-0.2c-0.3,0-0.3-0.1-0.3-0.3
					c0-0.1-0.1-0.2-0.1-0.3c0-0.1,0-0.2,0-0.2c0.3-0.4,0.8-0.5,1.2-0.7c0.3-0.1,0.5-0.3,0.7-0.4c0.4-0.2,0.9-0.4,1.3-0.6
					c0,0,0,0,0.1,0.1c0,0-0.1,0.1-0.1,0.1c0,0.1,0,0.2,0,0.2c0.1,0,0.3,0,0.4,0c0.2-0.2,0.4-0.2,0.6-0.1c0.1,0,0.2,0,0.3,0
					c0-0.1,0-0.2-0.1-0.2c-0.1-0.1-0.3-0.3-0.5-0.4c0.3-0.1,0.6-0.2,0.9-0.3c0.1,0,0.3-0.1,0.3-0.2c0.1-0.2,0.2-0.4,0.3-0.6
					c0-0.1,0.1-0.1,0.2-0.1c0.2,0,0.5,0,0.7-0.1c0.3,0,0.6,0.2,0.6,0.4c0.1,0.1,0.4,0.1,0.4,0.2c0,0.1-0.1,0.3-0.2,0.4
					c-0.1,0.1-0.3,0.3-0.5,0.4c-0.1,0.1-0.4,0.1-0.5,0.1c-0.2,0-0.3,0-0.5,0.1c0,0-0.1,0.1-0.1,0.2c0.1,0,0.2,0.1,0.2,0.1
					c0.6-0.1,0.6-0.1,1,0.4c0.2,0.2,0.5,0.3,0.8,0.4c0,0,0.1-0.1,0.2-0.1c0-0.1,0-0.1-0.1-0.3c0.2,0.1,0.4,0.2,0.5,0.2
					c0.1-0.1,0.2-0.2,0.3-0.3c0-0.1,0-0.2,0-0.3c-0.1-0.1-0.2-0.2-0.2-0.3c0-0.1,0.1-0.2,0.1-0.3c0.1,0,0.2,0.1,0.3,0.1
					c0.1,0,0.1,0.1,0.1,0.2c0.1,0,0.2,0.1,0.3,0.1c0.1,0,0.3-0.1,0.4-0.2c0.1-0.1,0.3-0.3,0.3-0.3c-0.1-0.2-0.3-0.3-0.6-0.4
					c-0.3-0.1-0.4-0.1-0.2-0.4c0.1-0.2,0.1-0.3-0.2-0.4c-0.2-0.1-0.4-0.2-0.6-0.3c-0.2-0.1-0.3-0.3-0.5-0.4c-0.1,0-0.1-0.1-0.2-0.1
					c-0.4,0-0.8,0-1.3,0c-0.2,0-0.4,0.1-0.5,0.1c0-0.1,0-0.1,0-0.2c-0.1,0-0.2,0-0.3,0c-0.4,0-0.6,0.3-0.9,0.5
					c-0.2,0.1-0.1,0.4,0.1,0.4c0.1,0,0.2,0.1,0.3,0.1c-0.1,0.1-0.1,0.3-0.2,0.3c-0.2,0.1-0.4,0.3-0.6,0.4c-0.1,0-0.2,0-0.3,0
					c0-0.1,0-0.1,0-0.2c0.1-0.2,0.1-0.3-0.1-0.4c-0.3-0.2-0.3-0.7,0-0.9c0.1-0.1,0.3,0,0.4-0.1c0.2-0.1,0.4-0.2,0.6-0.2
					c0-0.2,0-0.3,0.1-0.4c0.1-0.2,0.2-0.2,0.4,0c0.1,0.1,0.2,0.1,0.4,0.1c0.6,0,1.2,0,1.8,0c0.1,0,0.1-0.1,0.2-0.1
					c-0.4-0.3-0.9-0.1-1.3-0.2c0,0-0.1-0.1-0.1-0.1c0.1,0,0.1,0,0.2-0.1c0.3,0,0.6-0.1,0.9-0.1c0.7,0,1.3-0.1,1.8-0.4
					c0.4-0.2,0.8-0.4,1.3-0.5c0.7-0.1,1.4-0.3,2.1-0.4c0,0,0,0,0.1-0.1c-0.1,0-0.2,0-0.3,0c-0.7,0-1.3,0-2,0c-0.7,0-1.4,0.1-2.1,0.2
					c-0.5,0-0.9,0-1.4,0.1c-0.2,0-0.3,0.1-0.5,0.1c-0.1,0-0.2,0.1-0.3,0.1c-0.2,0-0.4,0.1-0.3,0.3c0.1,0.1,0.3,0.2,0.4,0.3
					c0,0,0.1,0,0.2,0c-0.2,0.3-1,0.5-1.3,0.3c0,0,0,0-0.1-0.1c-0.1,0-0.3-0.1-0.3-0.1c-0.1,0-0.1,0.1-0.2,0.2
					c-0.1,0.1-0.1,0.2-0.2,0.2c-0.2,0-0.3,0-0.4-0.2c0-0.2-0.3-0.2-0.5-0.2c-0.1,0.1-0.2,0.2-0.3,0.4c0,0,0.1,0.1,0.2,0.1
					c0.1,0,0.3,0,0.4,0c0.1,0,0.3,0.1,0.5,0.2c-0.8,0.3-1.2,0.7-1.7,1.2c-0.2,0.2-0.4,0.3-0.7,0.3c-0.2,0-0.4,0.1-0.5,0.3
					c-0.2,0.2-1,0.4-1.3,0.2c-0.5-0.3-0.8-0.3-1.3,0c-0.3,0.2-0.8,0.1-1.2,0.1c0,0,0-0.1,0.1-0.1c-0.1-0.1-0.2-0.2-0.4-0.3
					c-0.3-0.1-0.7-0.1-1-0.2c-0.3-0.1-0.7-0.1-1-0.2c-0.2,0-0.3,0-0.5,0.1c-0.4,0.1-0.8,0.2-1.3,0.1c-0.2,0-0.5,0.1-0.8,0.1
					c-0.1,0-0.2,0-0.3,0c-0.3-0.1-0.6-0.2-1-0.2c-0.3,0-0.7,0-1-0.1c-0.2,0-0.3-0.1-0.5-0.1c-0.1,0-0.3,0-0.3-0.1
					c-0.3-0.2-0.7-0.2-1.1-0.1c-0.4,0.1-0.8,0.2-1.1,0.3c-0.3,0.1-0.5,0.1-0.8,0.2c0,0-0.1,0-0.1-0.1c0-1.2-0.2-2.4,0.4-3.5
					c0.7-1.2,1.7-2.2,3.4-2.6c0.4-0.1,0.8-0.1,1.2-0.1c20.7,0,41.4,0,62.2,0c2,0,3.3,0.8,4.3,2.1c0.6,0.8,0.8,1.6,0.8,2.4
					c0,0.4,0,0.8,0,1.2c-0.1,0-0.2,0-0.2,0c-0.4-0.1-0.9-0.2-1.3-0.3c-0.1,0-0.2-0.1-0.2-0.1c-0.5,0-1-0.1-1.5-0.1
					c-0.1,0-0.1,0-0.2,0c0,0.3,0,0.3-0.5,0.3c-0.3,0-0.6,0-0.8,0c-0.1,0.2-0.3,0.3-0.6,0.1c-0.3-0.2-0.6-0.4-1-0.6
					c-0.3-0.1-0.7-0.1-1-0.2c-0.1,0.1-0.1,0.2-0.2,0.2c-0.3,0-0.6,0-0.9,0c-0.3,0-0.5-0.1-0.8-0.1c-0.2,0-0.4-0.1-0.5-0.1
					c-0.3-0.1-0.3-0.1-0.6,0.1C70.7,18,70.5,18,70.3,18c0-0.1,0-0.1,0-0.2c0,0,0.2,0,0.2-0.1c0.1-0.1,0.2-0.2,0.4-0.3
					c-0.1-0.1-0.3-0.2-0.4-0.2c-0.3-0.1-0.6-0.1-1-0.1c-0.2,0-0.4-0.1-0.5-0.1c-0.3-0.2-1-0.1-1.2,0.1c-0.1,0.2-0.3,0.2-0.5,0.2
					c-0.5,0-1,0.1-1.5,0.1c-0.2,0-0.5,0.1-0.5,0.3c0,0-0.1,0.1-0.2,0.1c-0.1,0-0.2,0-0.3,0c-0.3,0-0.4,0-0.2,0.3c0,0,0,0.1,0,0.2
					c-0.2,0-0.4,0-0.6,0c-0.2,0-0.2,0.1-0.1,0.2c0,0,0,0.1,0,0.2c-0.1,0-0.2,0-0.3,0c-0.1,0-0.1-0.1-0.2-0.2c0-0.1-0.1-0.1-0.1-0.2
					c-0.1,0.1-0.1,0.2-0.2,0.3c0,0-0.1,0.1-0.2,0.1c-0.1,0-0.1-0.1-0.1-0.1c0-0.2-0.1-0.3-0.4-0.4c-0.1,0-0.2-0.1-0.3-0.1
					c0,0-0.1,0.1-0.1,0.1c0,0.3-0.3,0.6,0,0.9c0.1,0.1,0.2,0.1,0.3,0.2c0.1,0.1,0.1,0.2,0.2,0.2c-0.1,0-0.2,0-0.3,0
					c-0.5-0.1-0.9-0.4-1.4-0.3c-0.2,0-0.4-0.1-0.6-0.1c0.1,0.1,0.2,0.2,0.2,0.2c-0.3,0.1-0.7,0.1-1,0.2c-0.2,0-0.2,0.1-0.3,0
					c0,0-0.2-0.1-0.2,0c-0.3,0.1-0.7,0.3-1,0.4c-0.1,0-0.2,0.1-0.4,0.1c0-0.1,0-0.2,0-0.2c0-0.1,0-0.2-0.1-0.2
					c-0.1-0.1-0.3-0.1-0.5-0.1c0.1,0.2,0.2,0.4,0.3,0.5c0.1,0.2-0.1,0.2-0.2,0.2c-0.4,0-0.5,0.1-0.6,0.4c0,0.1-0.1,0.2-0.3,0.1
					c0,0-0.1,0-0.1,0c-0.1,0-0.3,0-0.4,0c0,0.1,0.1,0.2,0.1,0.3c-0.1,0-0.3,0-0.4-0.1c-0.1-0.1-0.2-0.2-0.3-0.3
					c-0.1-0.1-0.1-0.2-0.1-0.3c0.2,0,0.4,0,0.5,0c0.4,0.1,0.7,0.1,1-0.1c0.2-0.1,0.2-0.2,0-0.3c-0.3-0.1-0.6-0.2-0.9-0.3
					c-0.5-0.1-1-0.2-1.5-0.4c-0.1,0-0.2-0.1-0.2-0.2c-0.2-0.2-0.4-0.3-0.7-0.1c-0.1,0-0.2,0.1-0.3,0.1c-0.8-0.2-1.4,0.1-2,0.4
					c-0.2,0.1-0.3,0.1-0.5,0.2c0.3,0.3-0.1,0.4-0.3,0.6c-0.2,0.2-0.4,0.4-0.5,0.7C49.2,20.9,49,21,48.7,21c-0.1,0-0.3,0-0.4,0.1
					c-0.6,0.3-0.7,0.6-0.5,1.1c0,0.1,0,0.1,0,0.2c0,0.2,0.2,0.4,0.5,0.4c0.1,0,0.2,0,0.2-0.1c0.1,0,0.1-0.1,0.2-0.2
					c0.3-0.2,0.4-0.2,0.6,0.1c0,0.1,0.1,0.2,0.2,0.3c0,0.1,0.1,0.2,0.1,0.3c0,0.1-0.1,0.2-0.2,0.2c-0.1,0-0.2-0.1-0.2-0.1
					C49,23.3,49,23.2,49,23.1c0-0.1,0-0.1,0-0.2c-0.5,0.1-0.7,0.4-0.5,0.8c0,0.1,0.1,0.2,0.1,0.2c0.1,0.1,0,0.2-0.2,0.3
					c-0.2,0-0.4,0.1-0.6,0.1c-0.2,0-0.4,0.1-0.4,0.3c0,0.3-0.2,0.4-0.4,0.5c-0.2,0.1-0.4,0.2-0.5,0.4c-0.1,0.3-0.5,0.2-0.8,0.2
					c0,0.3-0.2,0.2-0.4,0.2c-0.1,0-0.2,0-0.2,0c-0.1,0-0.2,0.1-0.2,0.1c0,0,0.1,0.1,0.1,0.1c0.6,0.3,0.8,0.7,0.8,1.2
					c0,0.3-0.2,0.4-0.5,0.4c-0.3,0-0.7,0-1,0c-0.1,0-0.2,0-0.3,0c-0.1,0-0.3,0-0.4,0c-0.1,0.1-0.1,0.2-0.1,0.3
					c0.1,0.3,0.1,0.6-0.1,0.9c-0.1,0.2-0.1,0.3,0,0.5c0,0,0,0,0,0c0,0.3,0.1,0.4,0.5,0.4c0.2,0,0.4,0.5,0.3,0.7
					c-0.1,0.3-0.3,0.5-0.7,0.7c-0.4,0.2-0.6,0.5-0.6,0.9c0,0.4-0.4,0.8-0.9,0.9c-0.1,0-0.2,0.1-0.2,0.1c-0.2,0.2-0.3,0.4-0.4,0.6
					c-0.1,0.1-0.1,0.2-0.2,0.4c0,0,0,0.1,0,0.1c-0.4,0.3-0.3,0.8-0.7,1.1c0,0,0,0.1,0,0.1c0,0.3,0.1,0.6,0.1,0.8
					c0,0.4,0.1,0.8-0.1,1.2c-0.2,0.4,0,0.7,0,1.1c0,0.1,0.2,0.3,0.3,0.4c0.4,0.3,0.7,0.7,0.9,1.1c0.1,0.3,0.4,0.5,0.7,0.7
					c0.2,0.2,0.5,0.4,0.8,0.5c0.1,0.1,0.2,0.1,0.4,0.1c0.5-0.2,1-0.2,1.5-0.1c0.2,0,0.4-0.1,0.5-0.1c0.4-0.3,0.9-0.4,1.4-0.3
					c0.3,0,0.4,0.1,0.5,0.3c0.1,0.4,0.2,0.4,0.7,0.4c0.6,0,0.7,0.1,0.7,0.5c0,0.4,0,0.9-0.3,1.3c0,0,0,0.1,0,0.1
					c0.1,0.1,0.2,0.3,0.3,0.4c0.2,0.3,0.5,0.6,0.6,0.9c0.2,0.3,0.2,0.6,0.3,0.9c0,0.1,0.1,0.1,0.1,0.2c0,0.1,0.1,0.1,0,0.2
					c-0.2,0.2,0,0.4,0.1,0.7c0,0.1,0.1,0.2,0.1,0.3C50,47.4,50,47.7,49.8,48c-0.3,0.5-0.2,1-0.2,1.5c0,0.2,0.2,0.4,0.3,0.6
					c0.2,0.5,0.5,1,0.5,1.5c0.1,0.6,0.3,1.2,0.6,1.8c0.2,0.4,0.4,0.7,0.4,1.2c0,0.2,0.1,0.4,0.2,0.5c0.2,0.2,0.5,0.1,0.7,0
					c0.3-0.1,0.6-0.1,0.8-0.1c0.5-0.1,1-0.1,1.3-0.5c0.4-0.5,0.8-0.9,1.2-1.3c0.2-0.2,0.3-0.6,0.3-0.9c0-0.2,0.1-0.4,0.3-0.5
					c0.5-0.3,0.7-0.7,0.5-1.3c-0.1-0.2-0.1-0.5,0.1-0.7c0.4-0.3,0.6-0.7,1.2-0.9c0.3-0.1,0.5-0.4,0.5-0.7c0-0.3,0-0.6,0-0.9
					c0-0.4-0.1-0.8-0.2-1.2C58.1,46,58,45.6,58,45.2c0-0.2,0.1-0.4,0.2-0.5c0.2-0.3,0.3-0.6,0.6-0.9c0.3-0.3,0.6-0.7,0.9-1
					c0.1-0.1,0.3-0.2,0.4-0.3c0.2-0.2,0.3-0.3,0.4-0.5c0.4-0.5,0.7-1.1,1-1.6c0.2-0.4,0.4-0.8,0.3-1.2c0-0.1-0.1-0.2-0.3-0.1
					c-0.2,0.1-0.5,0.2-0.7,0.2c-0.3,0.1-0.6,0.2-0.9,0.2c-0.3,0-0.5-0.2-0.5-0.5c0-0.2-0.1-0.3-0.3-0.4c-0.5-0.5-1.3-1-1.4-1.7
					c0-0.1-0.1-0.2-0.1-0.2c-0.3-0.2-0.3-0.4-0.3-0.6c0.1-0.3-0.2-0.5-0.4-0.8c-0.3-0.6-0.6-1.2-0.9-1.8c0.4-0.2,0.5-0.1,0.7,0.1
					c0.3,0.5,0.7,1,1,1.5c0,0.1,0,0.2,0.1,0.2c0.1,0.2,0.1,0.4,0.2,0.5c0.2,0.3,0.5,0.6,0.7,0.9c0.1,0.1,0.2,0.3,0.3,0.4
					c0,0.1-0.1,0.2-0.1,0.2c0.2,0.4,0.3,0.7,0.5,1.1c0.1,0.2,0.4,0.3,0.5,0.2c0.2-0.3,0.7-0.2,0.9-0.4c0.4-0.3,1-0.3,1.3-0.7
					c0.1-0.1,0.3-0.2,0.4-0.2c0.3-0.1,0.5-0.1,0.6-0.3c0.1-0.2,0.3-0.3,0.5-0.4c0.1-0.1,0.1-0.2,0.1-0.3c0,0,0-0.1,0-0.1
					c0.3-0.2,0.3-0.5,0.4-0.7c0.1-0.2-0.1-0.6-0.4-0.6c-0.4,0-0.6-0.2-0.6-0.5c0-0.1-0.1-0.2-0.1-0.3c-0.2,0.2-0.3,0.3-0.4,0.4
					c-0.1,0.1-0.3,0.2-0.4,0.2c-0.4,0-0.5,0-0.5-0.4c0-0.1,0-0.1,0-0.2c-0.4,0.1-0.4,0.1-0.5-0.2c-0.1-0.2-0.2-0.4-0.4-0.5
					c-0.2-0.2-0.2-0.4-0.1-0.7c0-0.1,0.2-0.2,0.3-0.2c0.1,0,0.3,0.1,0.3,0.1c0.1,0.1,0.3,0.3,0.3,0.5c0.1,0.3,0.5,0.4,0.8,0.6
					c0.1,0.1,0.4,0,0.6,0c0.1,0,0.3-0.1,0.4-0.1c0.1,0,0.1,0.2,0.1,0.3c0,0,0,0,0,0.1c0.4,0,0.8,0.1,1.1,0.2c0.3,0.1,0.6,0.2,1,0.1
					c0.2,0,0.4,0,0.5,0c0.3,0,0.5,0.1,0.6,0.3c0,0,0,0.1,0.1,0.1c0.3,0.2,0.5,0.5,0.6,0.8c0.1,0.3,0.5,0.3,0.9-0.1
					c0.1,0.2,0.1,0.4,0.2,0.6c0.1,0.4,0.2,0.7,0.3,1.1c0.1,0.2,0.1,0.4,0.2,0.6c0.1,0.3,0.3,0.6,0.4,0.9c0.1,0.3,0.3,0.6,0.4,0.9
					c0.1,0.1,0.1,0.3,0.2,0.4c0,0.1,0.1,0.1,0.2,0.2c0.1-0.1,0.2-0.1,0.2-0.2c0.2-0.2,0.3-0.4,0.5-0.6c0.1-0.1,0.1-0.2,0.1-0.3
					c0-0.3,0-0.6,0-0.9c0-0.1,0-0.1,0-0.2c-0.2-0.3,0-0.4,0.3-0.6c0.4-0.4,0.8-0.8,1.1-1.2c0.1-0.1,0.2-0.1,0.2-0.1
					c0.1-0.1,0.2-0.2,0.3-0.3c0.1-0.4,0.2-0.4,0.6-0.3c0.2-0.1,0.4-0.1,0.5-0.2c0.2-0.1,0.5,0.1,0.5,0.3c0,0.2,0.2,0.4,0.4,0.5
					c0.1,0.1,0.1,0.2,0.2,0.2c0.1,0.1,0.1,0.2,0.2,0.3c0.1,0.1,0.2,0.2,0.1,0.4c0,0.1-0.1,0.1,0,0.2c0.1,0.1,0.1,0.2,0.2,0.4
					c0.1-0.1,0.3-0.1,0.4-0.2c0.1,0,0.1-0.1,0.2-0.1c0.1,0,0.2-0.1,0.2,0c0.1,0,0.1,0.1,0.1,0.2c0.1,0.3,0.2,0.6,0.3,0.9
					c0.1,0.4,0.1,0.7,0.2,1.1c0,0.3,0,0.6,0,0.9c0,0,0,0.1,0.1,0.1c0.5,0.2,0.5,0.6,0.8,1c0,0,0,0.1,0,0.2c-0.2,0.2,0,0.3,0.1,0.5
					c0.1,0.2,0.3,0.4,0.6,0.5c0.1,0,0.2,0.2,0.3,0.3c0,0,0.1,0.1,0.2,0.1c0,0,0,0,0,0c-0.1-0.2-0.3-0.5-0.4-0.7
					c0-0.1-0.1-0.1-0.1-0.2c0-0.5-0.3-0.9-0.8-1.3c-0.2-0.1-0.4-0.3-0.3-0.5c0,0,0-0.1-0.1-0.2c-0.3-0.3-0.2-0.6-0.1-0.8
					c0-0.1,0-0.3,0.1-0.4c0-0.1,0.1-0.2,0.2-0.3c0.1,0.1,0.1,0.1,0.2,0.2c0,0,0,0.1,0.1,0.1c0.5,0.1,0.7,0.5,0.9,0.8
					c0,0,0.1,0.1,0.1,0.1c0.3,0,0.4,0.1,0.2,0.3c0,0,0,0.1,0,0.2c0.1,0,0.2,0,0.2-0.1c0.1-0.1,0.2-0.3,0.4-0.4
					c0.1-0.1,0.2-0.1,0.3-0.2c0.3-0.1,0.4-0.2,0.4-0.5c0.1-0.7-0.2-1.2-0.8-1.7c-0.2-0.2-0.4-0.5-0.5-0.7c-0.1-0.1,0-0.3,0.1-0.4
					c0.1-0.1,0.2-0.2,0.3-0.4c0.2-0.2,0.4-0.2,0.6-0.1c0.1,0,0.1,0.1,0.1,0.2c0,0.1,0,0.1,0,0.2c0.1-0.1,0.1-0.1,0.1-0.1
					c0-0.2,0.2-0.3,0.5-0.3c0.1,0,0.2-0.1,0.4-0.2c0,0.1,0,0.2,0,0.2c0,2.2,0,4.3,0,6.5c0,0.3,0,0.5-0.4,0.6
					c-0.3,0.1-0.4,0.6-0.1,0.8c0.2,0.1,0.2,0.3,0.2,0.5c-0.1,0.2,0.1,0.4,0.4,0.5c0,0.3,0,0.7,0,1c-0.2,0-0.4,0.1-0.5,0.1
					c-0.2,0-0.5,0-0.7-0.2c-0.2-0.2-0.5-0.1-0.6,0c0.3,0.1,0.5,0.3,0.7,0.4c0.3,0.1,0.7,0.2,1,0.3c0,0,0,0,0.1-0.1
					c0,0.1,0,0.2,0,0.3c0,1.7,0,3.4,0,5c0,0.3-0.1,0.6-0.1,0.8c0,0.1-0.1,0.2-0.2,0.2c0.4,0.6,0.2,1.3,0.2,1.9
					c0,0.3-0.2,0.5-0.4,0.8c-0.1,0.2-0.1,0.3,0.2,0.4c0.3,0,0.3,0.1,0.3,0.3c0,2.3,0,2.4,0,4.7c0,1.3-0.6,2.5-1.9,3.4
					c-0.9,0.7-2,1-3.2,1c-0.1,0-0.3,0-0.4,0c-20.4,0-40.8,0-61.2,0c-2.7,0-4.6-1.1-5.3-3.1c-0.2-0.5-0.3-1.1-0.3-1.6
					c0-13.4,0-24.5,0-37.9c0-0.4,0.4-0.6,0.9-0.4c0.2,0.1,0.3,0.1,0.5,0.2c0.6,0.1,0.9,0.4,0.8,0.9c0,0.2-0.1,0.4-0.1,0.6
					c0,0.1,0.1,0.2,0.2,0.2c0.1,0.1,0.2,0.1,0.2,0.2c0,0.3,0,0.6,0,1c0,0.1,0,0.2-0.2,0.2c-0.2,0-0.2,0.1-0.1,0.2
					c0,0,0.1,0.1,0.1,0.1c0.3,0.2,0.4,0.4,0.2,0.7c-0.3,0.3-0.4,0.7-0.6,1.1c-0.1,0.1-0.2,0.2-0.3,0.3c0,0-0.1,0.1-0.1,0.1
					c-0.2,0.3-0.3,0.7-0.6,1.1c-0.2,0.3,0,0.7,0,1.1c0,0.2,0,0.4,0.1,0.6c0,0.1,0.1,0.3,0.2,0.4c0.3,0.2,0.5,0.4,0.5,0.8
					c0,0.4,0,0.8,0.3,1.2c0,0,0,0.1,0,0.2c-0.3,0.3,0.1,0.5,0.2,0.7c0.1,0.1,0.2,0.2,0.2,0.2c0,0.2,0.1,0.4,0.2,0.6
					c0.1,0.1,0.2,0.2,0.2,0.4C11.7,35,11.7,35,11.8,35z M35.2,20.2c-0.6,0.4-0.7,0.9-0.7,1.4c0,0.3,0.1,0.6,0.2,0.9
					c0,0.1,0.2,0.2,0.3,0.3c0.1,0.1,0.3,0.1,0.4,0.2c0.2,0.1,0.5,0.1,0.6,0c0.3-0.4,0.7-0.7,0.9-1.1c0.3-0.4,0.8-0.5,1.2-0.6
					c0.3-0.1,0.6-0.1,0.8-0.3c0.6-0.4,1.3-0.6,2-0.8c0.1,0,0.3-0.1,0.4-0.1c0.5-0.1,0.5-0.1,0.5-0.4c0-0.2,0.1-0.4,0.3-0.5
					c0.1,0,0.2-0.1,0.3-0.2c0.1,0,0.1-0.1,0.1-0.2c-0.1-0.2,0-0.3,0.1-0.4c0.2-0.1,0.2-0.2,0.1-0.4c-0.2-0.2-0.1-0.3,0.2-0.4
					c0.1,0,0.2-0.1,0.4-0.1c0.3-0.1,0.5-0.2,0.8-0.3c0,0,0,0,0-0.1c-0.1,0-0.2,0-0.3,0c-0.2,0-0.5,0.1-0.6,0
					c-0.3-0.1-0.6-0.2-0.9-0.3c-0.3,0-0.6-0.1-0.9-0.1c-0.7,0-1.4,0.1-2.2,0.1c-0.3,0-0.6,0-0.8,0.1c-0.1,0-0.2,0.1-0.3,0.1
					c-0.4,0-0.9,0-1.3,0c-0.8,0.1-1.5,0.2-2.3,0.2c0,0.3-0.1,0.4-0.3,0.4c-0.4,0-0.7,0.1-1.1,0.1c-0.1,0-0.2,0.1-0.3,0.1
					c0.1,0.1,0.2,0.2,0.3,0.2c0.4,0.1,0.8,0.2,1.2,0.2c0.5,0.1,0.9,0.4,0.8,0.8c0,0.1-0.1,0.2-0.2,0.3c0.1,0.1,0.3,0.1,0.5,0.2
					c-0.2,0.1-0.4,0.1-0.5,0.1C34.7,20,34.8,20.2,35.2,20.2z M60.5,47.1c-0.2,0.2-0.3,0.4-0.4,0.6c-0.2,0.2-0.4,0.4-0.7,0.6
					c-0.5,0.2-0.7,0.6-0.5,1c0.1,0.2,0.1,0.4,0,0.5c-0.3,0.4-0.4,0.8-0.4,1.2c0,0.2,0.2,0.4,0.4,0.5c0,0,0.1,0,0.2,0
					c0.5-0.1,0.6-0.4,0.7-0.7c0.1-0.3,0.1-0.5,0.2-0.8c0.1-0.3,0.1-0.5,0.2-0.8c0-0.1,0-0.2,0.1-0.2c0.2-0.3,0-0.7,0.4-0.9
					c0,0,0,0,0,0C60.7,47.8,60.8,47.4,60.5,47.1z M21.5,19.6C21.5,19.6,21.5,19.6,21.5,19.6c0,0.2,0,0.3-0.1,0.4
					c-0.1,0.1-0.2,0.2,0,0.4c0.3,0.2,0.5,0.3,0.8,0.1c0.1,0,0.2-0.1,0.4-0.1c0.3,0,0.6,0,0.9,0c0.1,0,0.3,0,0.4,0.1
					c0.2,0.1,0.7-0.1,0.6-0.3c-0.1-0.3-0.1-0.5,0-0.7c0-0.1,0-0.2-0.1-0.2c-0.1,0-0.2,0-0.3,0c-0.1,0.1-0.1,0.2-0.2,0.2
					c-0.1,0-0.2,0.1-0.2,0.1c-0.3-0.1-0.5-0.1-0.7-0.2c-0.1,0-0.2-0.1-0.3-0.2c-0.1-0.2-0.3-0.3-0.6-0.3c-0.1,0-0.3,0-0.4,0
					c-0.2,0-0.4,0.1-0.6,0.2c-0.2,0.2-0.4,0.2-0.7,0.4c-0.1,0-0.1,0.1-0.2,0.1c0.1,0.1,0.2,0.2,0.3,0.2c0.2,0,0.4-0.1,0.6-0.1
					C21.3,19.7,21.4,19.6,21.5,19.6z M77.5,44c-0.1-0.1-0.2-0.3-0.3-0.4c-0.1-0.1-0.2-0.2-0.3-0.2c-0.2-0.1-0.3-0.2-0.1-0.3
					c0,0,0-0.1,0-0.1c-0.1-0.1-0.1-0.1-0.2-0.2c-0.3-0.2-0.6-0.4-0.8-0.6c-0.1-0.1-0.1-0.3-0.3-0.3c-0.3-0.2-0.6-0.4-1-0.5
					c-0.1,0-0.2,0-0.2,0c0,0,0.1,0.1,0.1,0.1c0.2,0.2,0.4,0.4,0.6,0.6c0,0,0.1,0.1,0.1,0.1c0.2,0.1,0.4,0.3,0.5,0.5
					c0.1,0.3,0.4,0.6,0.5,1c0,0.5,0.4,0.9,0.8,1.2c0.1,0.1,0.3,0.1,0.4,0.1c0.1-0.1,0.2-0.3,0.2-0.4C77.5,44.3,77.5,44.2,77.5,44z
					 M45.6,23.5C45.6,23.5,45.6,23.4,45.6,23.5c-0.1,0-0.2,0.1-0.3,0.1c-0.3,0.1-0.5,0.2-0.5,0.4c0,0.1,0,0.2,0,0.4
					c0,0.3,0,0.3,0.4,0.4c0.1,0,0.1,0.1,0.2,0.1c0.1,0.2,0,0.4-0.3,0.4c0,0.1,0,0.2,0,0.2c-0.3,0.2-0.1,0.2,0.1,0.3
					c-0.1,0.1-0.2,0.2-0.3,0.3c0,0,0,0,0.1,0.1c0.1,0,0.2,0,0.2,0c0.2-0.1,0.5-0.2,0.8-0.1c0.3,0,0.6,0,0.6-0.3c0,0,0-0.1,0.1-0.1
					c0.1-0.1,0.1-0.2-0.1-0.3c-0.1,0-0.2-0.1-0.2-0.2c-0.2-0.2-0.3-0.5-0.5-0.7c-0.1-0.2-0.2-0.2,0-0.4c0.1-0.1,0.1-0.2-0.1-0.2
					c-0.3-0.1-0.3-0.1-0.1-0.3C45.6,23.6,45.6,23.5,45.6,23.5z M22.4,18.5c0.2,0.1,0.4,0.2,0.6,0.2c0.2,0.1,0.4,0.2,0.6,0.3
					c0.1,0,0.2,0,0.3,0c0.3-0.1,0.6-0.2,1-0.2c0.6,0,0.6,0,0.3-0.4c0,0,0,0-0.1,0c-0.3,0.1-0.6,0.3-0.8,0.2c-0.2,0-0.6-0.1-0.6-0.5
					C23.3,18.3,22.9,18.4,22.4,18.5z M41.8,22.1c0.4-0.1,0.7-0.2,1-0.3c0.3-0.1,0.3-0.2,0.3-0.4c-0.1-0.2-0.3-0.1-0.5-0.1
					c-0.4,0-0.9,0.3-1.3-0.1c0,0-0.2,0.1-0.3,0.1c0.1,0.1,0.1,0.1,0.2,0.2c0.1,0.1,0.2,0.1,0.3,0.2C41.5,21.9,41.7,22,41.8,22.1z
					 M21.5,35.2c0,0,0,0.1-0.1,0.1c0.2,0.1,0.4,0.2,0.7,0.3c0.3,0.1,0.5,0.2,0.5,0.5c0,0.1,0.1,0.2,0.3,0.2c0.2,0,0.5-0.1,0.7-0.1
					c0.1,0,0.1-0.1,0.2-0.1c-0.1-0.1-0.1-0.1-0.2-0.2c-0.1-0.1-0.2-0.1-0.3-0.2c-0.3-0.2-0.6-0.5-1-0.5c-0.1,0-0.1,0-0.2,0
					C21.8,35.3,21.6,35.3,21.5,35.2z M44.7,24.7c-0.4-0.1-0.4-0.1-0.7,0.1c0,0-0.1,0.1-0.2,0.1c-0.3,0-0.3,0.2-0.2,0.3
					c0,0.1,0,0.2,0,0.3c0,0.1-0.1,0.2-0.1,0.2c0.2,0,0.3,0,0.5,0c0.4-0.1,0.7-0.2,0.6-0.6c0,0,0.1-0.1,0.1-0.1
					C44.7,24.9,44.7,24.8,44.7,24.7z M25.5,36.8c-0.3-0.4-0.4-0.5-0.9-0.5c-0.1,0-0.1,0-0.2,0c-0.2,0-0.3,0-0.3,0.2
					c0,0.1-0.1,0.2-0.3,0.2c-0.1,0-0.2,0.1-0.3,0.1c0,0,0,0.1,0,0.1c0.1,0,0.3,0,0.4,0c0.1,0,0.2,0.1,0.4,0.1c0.1,0,0.2,0,0.2-0.1
					c0.1-0.2,0.3-0.2,0.5-0.2C25.3,36.8,25.4,36.8,25.5,36.8z M25.4,19.4c0,0-0.1,0-0.1,0c0.2,0.1,0.3,0.3,0.5,0.3
					c0.2,0,0.5-0.1,0.6-0.2c0.1-0.1,0.1-0.3,0.1-0.4c-0.1,0-0.2,0-0.4,0c-0.1,0-0.2,0-0.2,0c-0.1,0-0.1,0-0.2,0.1
					C25.6,19.3,25.5,19.3,25.4,19.4z M69.7,39.9c0,0.1,0,0.1,0,0.2c0,0.2,0.1,0.4,0.1,0.6c0,0,0.1,0.1,0.1,0.1
					c0.1,0,0.1-0.1,0.2-0.1C70.3,40.5,70.1,40,69.7,39.9z M27.7,18C27.7,18,27.7,18,27.7,18c-0.2-0.1-0.5-0.2-0.7-0.2
					c0,0-0.1,0-0.2,0.1c0,0,0,0.1,0,0.1c0.2,0.1,0.4,0.1,0.6,0.2C27.5,18.1,27.6,18.1,27.7,18z M78.3,36.3c-0.2,0.1-0.3,0.2-0.2,0.4
					c0,0,0.1,0.1,0.2,0C78.4,36.7,78.4,36.5,78.3,36.3C78.3,36.4,78.3,36.4,78.3,36.3z M28.3,17.8c-0.1,0-0.1,0-0.2,0
					c0,0.1,0,0.2,0,0.3c0,0,0.1,0.1,0.1,0.1c0,0,0.1,0,0.1-0.1C28.3,18,28.3,17.9,28.3,17.8z M25.6,17.9
					C25.5,17.9,25.5,17.9,25.6,17.9c-0.2,0-0.4,0.1-0.5,0.1c0,0,0.1,0.1,0.1,0.1C25.3,18.1,25.4,18,25.6,17.9z"/>
				<path class="st1" d="M50.2,30.3c0.3-0.1,0.5-0.3,0.4-0.5c-0.1-0.2,0-0.3,0.3-0.4c-0.7-0.2-1-0.7-1.4-1.1
					c-0.1-0.1-0.1-0.3-0.1-0.5c0,0,0.1-0.1,0.1-0.1c0.1,0,0.3,0.1,0.3,0.1c0.2,0.5,0.8,0.8,1.3,1.1c0.2,0.2,0.4,0.3,0.3,0.5
					c-0.1,0.2,0.1,0.4,0.3,0.5c0.2,0.1,0.3,0.2,0.3,0.4c0,0.1,0.1,0.2,0.2,0.2c0.1-0.1,0.1-0.1,0.2-0.2c0,0,0.1-0.1,0.1-0.1
					c0.1-0.1,0.1-0.2,0-0.3c-0.1-0.1-0.1-0.1-0.2-0.2c0-0.1-0.1-0.1-0.1-0.2c0.1,0,0.2,0,0.3,0c0.1,0,0.1-0.1,0.2-0.1
					c0.1,0,0.2-0.1,0.3-0.1c0.1,0.1,0.3,0.2,0.2,0.3c0,0.3,0.2,0.6,0.3,0.9c0,0,0.1,0.1,0.1,0.1c0.2,0.1,0.5,0.1,0.7,0.2
					c0.1-0.2,0.4-0.1,0.6,0c0.3,0.2,0.4,0,0.6-0.1c0.1,0,0.3-0.1,0.3-0.1c0.1,0,0.2,0.2,0.2,0.3c0.1,0.5-0.2,1-0.4,1.4
					c0,0.1-0.2,0.2-0.4,0.2c-0.2,0-0.5,0-0.7,0c-0.1,0-0.2,0.1-0.4,0.1c-0.1,0-0.3,0-0.4,0c-0.5-0.2-1-0.4-1.5-0.6
					c-0.3-0.1-0.5,0-0.7,0.1c-0.1,0.1-0.3,0.2-0.1,0.4c0,0,0,0.2-0.1,0.2c-0.1,0-0.2,0.1-0.3,0c-0.3-0.1-0.5-0.2-0.8-0.3
					c-0.2-0.1-0.4-0.2-0.5-0.3C49.7,32,49.5,32,49.3,32c-0.2,0-0.3-0.2-0.4-0.3c-0.2-0.1-0.2-0.2-0.1-0.4c0.2-0.2,0-0.5,0-0.7
					c0,0-0.2-0.1-0.4-0.1c-0.2,0-0.4,0-0.5,0c-0.2,0-0.4,0.1-0.5,0.1c-0.1,0-0.2,0-0.3,0c-0.3,0-0.7,0.1-1,0.1
					c-0.2,0-0.3,0.2-0.4,0.3c-0.1,0.1-0.3,0.1-0.4,0.1c-0.1,0-0.3,0-0.4,0c-0.1,0-0.3-0.1-0.3-0.1c-0.1-0.1-0.1-0.3,0.2-0.3
					c0.2,0,0.3-0.1,0.5-0.1c0.4-0.1,0.8-0.5,0.8-0.8c0-0.3,0.2-0.5,0.5-0.7c0.2-0.1,0.5-0.2,0.5-0.5c0-0.2,0.4-0.3,0.6-0.2
					c0.2,0.1,0.3,0.1,0.4,0c0.1-0.1,0.2-0.2,0.4-0.2c0.2-0.1,0.5-0.1,0.6,0.1c0.1,0.3,0.4,0.6,0.8,0.8c0.2,0.1,0.3,0.2,0.5,0.3
					c0.3,0.2,0.4,0.4,0.2,0.7C50.2,30.1,50.2,30.2,50.2,30.3z M49.6,30.3C49.6,30.4,49.6,30.4,49.6,30.3c0.1,0.1,0.3,0.2,0.4,0.2
					C50.1,30.3,50,30.3,49.6,30.3z"/>
				<path class="st1" d="M51.7,23.9c-0.3,0.2-0.3,0.4-0.2,0.6c0.1,0.1,0.1,0.2-0.1,0.3c-0.2,0.1-0.4,0.3-0.7,0.1c0,0-0.2,0-0.3,0.1
					c-0.2,0.1-0.5,0.2-0.8,0.1c0,0-0.1,0-0.2,0c-0.1,0-0.2,0-0.3,0c0-0.1,0-0.2,0.1-0.3c0.1-0.1,0.2-0.1,0.3-0.1c0.1,0,0.2,0,0.2,0
					c0.2-0.1,0.3-0.2,0.5-0.3c0.1-0.1,0.2-0.2,0.1-0.3c-0.1-0.3,0.1-0.4,0.3-0.6c0.2-0.2,0.2-0.3,0-0.4c-0.3-0.1-0.2-0.3-0.1-0.5
					c0.1-0.2,0.2-0.5,0.6-0.6c0.2-0.1,0.3-0.2,0.3-0.4c0-0.1,0.1-0.2,0.3-0.2c0.1,0,0.3,0,0.4,0c0.1,0,0.2,0,0.2,0c0,0,0,0.1,0,0.2
					c-0.1,0.1-0.2,0.2-0.4,0.3c-0.3,0.2-0.5,0.4-0.4,0.7c0,0.1,0,0.2,0,0.3c0,0.2,0.3,0.3,0.6,0.2C52.3,23,52.7,23,53,23
					c0.1,0,0.2,0.1,0.3,0.1c-0.1,0.1-0.1,0.2-0.2,0.2c-0.1,0-0.3,0-0.5,0.1c-0.1,0-0.3,0-0.4,0c-0.2,0-0.3,0.1-0.1,0.3
					c0,0,0.1,0.1,0.1,0.1c0,0.1,0,0.2-0.1,0.3c0,0-0.2,0-0.3,0C51.8,24,51.7,23.9,51.7,23.9z"/>
				<path class="st1" d="M55.9,27.8C55.9,27.9,55.9,27.9,55.9,27.8c0.6,0.2,1,0.6,1.4,1c0.1,0.1,0.1,0.2,0.1,0.3
					c0,0.1-0.2,0.2-0.3,0.2c-0.5,0-0.9,0.1-1.4-0.2c-0.2-0.1-0.5,0-0.8,0c-0.2,0-0.3,0.1-0.5,0.2c-0.2,0.1-0.9-0.1-0.9-0.3
					c0-0.2,0-0.3,0.1-0.5c0.1-0.2,0.2-0.5,0.4-0.7c0.1-0.1,0.3-0.2,0.4-0.3c0.2,0,0.4,0.1,0.4,0.3c0,0.2,0.1,0.3,0.4,0.3
					c0.2,0,0.3-0.1,0.3-0.3c0-0.2,0.3-0.5,0.6-0.5c0,0,0.1,0,0.1,0c0,0.1,0,0.1,0,0.2C56.1,27.6,56,27.7,55.9,27.8z"/>
				<path class="st1" d="M60.5,30.7c-0.3,0-0.4-0.1-0.6-0.2c-0.4-0.2-0.4-0.4-0.3-0.7c0.1-0.1,0.1-0.2,0.1-0.3c0-0.1,0-0.1,0-0.2
					c-0.2-0.2-0.5-0.4-0.7-0.6c-0.1-0.2-0.3-0.4-0.3-0.6c0-0.1,0.2-0.2,0.3-0.3c0.2-0.1,0.3-0.3,0.5-0.4c0.2-0.2,0.3-0.2,0.6,0
					c0.1,0.1,0.2,0.3,0.2,0.4c0,0.1-0.2,0.1-0.3,0.2c-0.2,0.1-0.3,0.2-0.1,0.3c0.2,0.2,0.4,0.3,0.6,0.4c0,0,0.1,0.1,0.1,0.1
					c0,0.1,0.1,0.2,0.2,0.2c0.1,0,0.2,0.1,0.2,0.2c0,0-0.1,0.1-0.1,0.2c-0.3,0.1-0.3,0.2-0.1,0.3c0.4,0.2,0.2,0.6,0.4,0.9
					c0,0-0.1,0.1-0.2,0.2C60.8,30.7,60.6,30.7,60.5,30.7z"/>
				<path class="st1" d="M62.6,20.5c0.3,0,0.4,0.2,0.3,0.4c0,0.1,0,0.1-0.1,0.2c0,0.1-0.1,0.2-0.2,0.2c-0.1,0-0.2,0-0.3-0.1
					c0-0.1,0.1-0.1,0.1-0.2C62.6,20.8,62.6,20.7,62.6,20.5z"/>
				<path class="st1" d="M79.1,29.6c0,0.2,0,0.4,0,0.6C78.6,30.1,78.6,30,79.1,29.6z"/>
				<path class="st1" d="M62.1,20c0.3,0,0.5,0.2,0.4,0.4c0,0-0.2,0-0.2,0C62.2,20.2,62.2,20.1,62.1,20z"/>
			</g>
		</g>
	</g>
	<text transform="matrix(1 -8.944959e-004 8.944959e-004 1 10.7369 87.5031)" class="st2 st3">International Rel.</text>
</g>
</svg>
