<?xml version="1.0" encoding="utf-8"?>
<!-- Generator: Adobe Illustrator 19.2.0, SVG Export Plug-In . SVG Version: 6.00 Build 0)  -->
<svg version="1.1" id="SIGN_UP_xA0_Image_1_" xmlns="http://www.w3.org/2000/svg" xmlns:xlink="http://www.w3.org/1999/xlink"
	 x="0px" y="0px" viewBox="0 0 1200 1512" style="enable-background:new 0 0 1200 1512;" xml:space="preserve">
<style type="text/css">
	.st0{fill:#010101;}
	.st1{fill:#FDFDFD;}
	.st2{fill:#FEFE00;}
</style>
<g>
	<g>
		<path class="st0" d="M1,1c400,0,800,0,1200,0c0,504,0,1008,0,1512c-400,0-800,0-1200,0C1,1009,1,505,1,1z M601.5,1482.5
			c164,0,328,0,492,0.1c21.5,0,39.6-7.5,54.4-22.9c19.2-20.1,28-44.6,28-72c-0.1-202.3-0.6-404.5-0.8-606.8
			c-0.1-113.2-0.1-226.3,0.1-339.5c0-15.8-3.1-30.7-10.2-44.6c-15.6-30.9-39.6-47.9-75.6-47.9c-326.5,0.3-653,0.2-979.5,0.1
			c-23.6,0-42.8,9.3-58,27.1c-17.4,20.6-24.3,44.8-24.3,71.4c0,312.2,0,624.3,0,936.5c0,14.8,2.1,29.1,7.4,42.9
			c14.1,36.8,41.1,55.5,80.5,55.5C277.5,1482.5,439.5,1482.5,601.5,1482.5z M602,288.5c163.6,0,327.3,0.1,490.9-0.2
			c9,0,18.4-1.4,26.8-4.3c31.5-11.1,55.2-47.3,55.4-83.3c0.1-22.8,0.1-45.7-0.1-68.5c-0.1-15.8-3.1-31.1-10-45.3
			c-15.5-32.3-39.9-50.2-77.3-50c-105,0.5-210,0.2-315,0.2c-221.3,0-442.6,0-663.9,0c-9.9,0-19.6,1.2-28.7,5.4
			C48,57.4,31.4,84.2,28.3,118.3c-2.3,25.5-0.5,51.3-0.5,76.9c0,13.1,2.6,25.7,7.3,37.9c14.1,36.8,41.2,55.4,80.5,55.4
			C277.7,288.5,439.9,288.5,602,288.5z"/>
		<path class="st1" d="M601.5,1482.5c-162,0-324,0-486,0c-39.3,0-66.4-18.7-80.5-55.5c-5.3-13.8-7.4-28.2-7.4-42.9
			c0-312.2,0-624.3,0-936.5c0-26.6,6.9-50.8,24.3-71.4c15.1-17.9,34.3-27.1,58-27.1c326.5,0,653,0.1,979.5-0.1c36,0,60,17,75.6,47.9
			c7,13.9,10.2,28.8,10.2,44.6c-0.2,113.2-0.2,226.3-0.1,339.5c0.2,202.3,0.7,404.5,0.8,606.8c0,27.4-8.8,51.9-28,72
			c-14.8,15.4-32.9,22.9-54.4,22.9C929.5,1482.5,765.5,1482.5,601.5,1482.5z M336.9,1203C336.2,1202.6,336.6,1202.7,336.9,1203
			c10.9,12.7,21.7,25.7,33,38.2c8.5,9.5,17.2,18.9,26.7,27.3c13.5,11.9,27.7,23.2,42.1,34c10.4,7.7,21.5,14.5,32.6,21.2
			c8.8,5.3,18,9.7,27.2,14.4c5.5,2.8,11.1,5.4,16.7,7.8c4.7,2,9.7,3.5,14.4,5.5c4.6,2,8.9,4.6,13.6,6.4c5,1.9,10.3,2.8,15.4,4.5
			c7.5,2.5,14.8,6.1,22.5,7.9c5.8,1.4,11.5,2.5,17.3,4.2c8.7,2.6,18.1,3.2,27.2,4.6c0.5,0.1,1,0,1.5,0.1c6.3,1.3,12.6,3.1,19,4
			c5.5,0.8,11.2,1,16.8,0.9c31.9-0.2,63.9-0.5,95.8-0.8c0.5,0,1,0,1.5-0.1c6.3-1.4,12.6-2.9,19-4.1c5.9-1.1,11.9-1.8,17.9-2.7
			c0.5-0.1,0.9-0.3,1.4-0.4c4.3-1.3,8.6-2.7,13-3.8c6.7-1.6,13.5-2.5,20-4.5c7.6-2.3,15-5.6,22.5-8.3c8.5-3,17.2-5.5,25.5-8.9
			c9.1-3.7,17.9-8,26.6-12.4c7.5-3.8,14.7-8.1,21.9-12.3c10-5.8,20-11.6,29.7-17.9c9-5.8,17.8-11.9,26.1-18.6
			c9.6-7.7,18.8-16,27.6-24.6c12.8-12.6,25.4-25.3,37.4-38.7c9.9-11,19-22.8,27.8-34.7c5.7-7.6,10.3-16.1,15.4-24.2
			c2.6-4.2,5.4-8.4,7.7-12.8c2.7-5.1,5.1-10.3,7.6-15.6c3.8-8.1,7.6-16.1,11.3-24.3c2.8-6.2,5.4-12.5,8-18.8
			c1.1-2.7,1.9-5.4,2.7-8.2c0.7-2.3,1-4.6,1.7-6.9c2.1-6.4,4.4-12.6,6.4-19c0.8-2.5,1-5.1,1.7-7.6c2.1-6.9,4.8-13.6,6.4-20.5
			c1.4-6,1.7-12.2,2.5-18.3c0.1-0.5,0-1,0.1-1.5c1.3-5.7,3.1-11.4,3.8-17.2c0.8-6.5,0.9-13.2,1-19.8c0.1-24.7,0.4-49.3-0.2-74
			c-0.2-7.7,0.7-15.6-2.6-23.3c-2.1-4.8-1.4-10.8-2.1-16.2c-0.7-5.8-1.6-11.5-2.4-17.3c0-0.2-0.1-0.3-0.1-0.5
			c-2.2-6.7-4.5-13.3-6.4-20c-1.7-5.9-2.5-12-4.3-17.9c-2.4-7.6-5.3-15.1-8-22.6c-0.9-2.6-1.7-5.2-2.8-7.7
			c-2.6-5.8-5.3-11.5-7.9-17.3c-2.2-4.8-3.9-9.9-6.4-14.5c-4.4-8.3-9.3-16.3-13.9-24.4c-3.3-5.8-6.2-11.9-9.8-17.5
			c-5.1-8-10.5-15.8-16.2-23.4c-8.2-10.7-16.6-21.3-25.4-31.6c-5.2-6.1-11-11.6-16.8-17.2c-11.7-11.2-23.2-22.6-35.4-33.1
			c-9.2-7.9-19.5-14.7-29.4-21.9c-5-3.7-9.8-7.8-15.1-10.9c-10.5-6.1-21.3-11.7-31.9-17.5c-7.4-4.1-14.7-8.5-22.2-12.3
			c-6.6-3.3-13.4-6-20.2-8.7c-7.5-3-15.1-5.9-22.7-8.4c-5.4-1.8-11.1-2.9-16.7-4.3c-2.8-0.7-5.6-1.1-8.4-1.9
			c-6.4-2.1-12.6-5-19.1-6.4c-9.1-2-18.5-3-27.8-4.4c-0.3,0-0.7,0-1-0.1c-6.3-1.3-12.6-3-19-4c-5.5-0.8-11.2-1-16.8-0.9
			c-31.9,0.2-63.9,0.5-95.8,0.8c-0.5,0-1.2-0.2-1.5,0.1c-5.8,5-13.2,0.9-19.6,3.8c-5.3,2.4-11.8,2.1-17.7,3c-0.3,0-0.6,0.3-0.9,0.4
			c-4.5,1.3-9,2.6-13.5,3.7c-6.5,1.6-13.2,2.5-19.5,4.5c-7.6,2.4-15,5.6-22.5,8.3c-8.3,3-16.6,5.7-25,8.6c-1.9,0.7-3.9,1.3-5.7,2.2
			c-6.9,3.4-13.7,7-20.6,10.4c-7.1,3.5-14.4,6.5-21.2,10.5c-8.6,5-16.8,10.7-25.1,16.2c-5.4,3.6-10.8,7.2-16,10.9
			c-6.8,4.9-13.7,9.7-20.2,14.9c-7.4,5.9-14.8,11.8-21.5,18.3c-9.4,9.1-18.4,18.6-27.4,28.1c-7,7.4-14.1,14.8-20.4,22.8
			c-7.7,9.8-14.7,20-21.6,30.3c-6,9-11.5,18.4-17.3,27.6c-1.8,2.9-3.9,5.7-6,8.8c-2.3-3.7-4.5-7.1-6.5-10.5
			c-6.5-11-16-18.6-27.6-23.6c-5.2-2.3-10.4-4.4-15.8-5.9c-3.3-0.9-4.6-2.5-4.8-5.8c-0.6-11.8-1.6-23.6-2-35.4c-0.2-9,0.8-18,0.5-27
			c-0.7-15.5-5.4-20.9-20.4-24.6c-23.1-5.7-43.5-2-58.7,17.7c-13,16.8-20.7,36-23.2,57.1c-2.3,19.2,3.3,35,21.4,45.1
			c8.8,4.9,17.2,10.8,25.4,16.8c6.4,4.6,12.2,10,18.9,15.5c-19.4,5.7-37.5,11.4-53.5,21.9c-13.8-10-23-10.7-38.2-2.3
			c-11.3,6.2-20.2,15.1-27.8,25.5c-1.3,1.7-3.2,3.5-5.2,4.1c-6.1,2-11,5.7-14.4,11c-8.7,13.4-13.5,28.2-14.6,44
			c-0.8,11.8,4.3,18.8,15.3,23c1,0.4,2,0.8,2.5,1c-6.1,3.9-12.6,7.2-18.1,11.8c-5.8,4.8-5.6,10.2-0.4,15.5
			c6.6,6.8,13.5,13.3,20.1,19.9c-2.1,1.4-5,2.9-7.3,4.9c-9.5,8-12,18.7-10,30.3c1.7,10,9.8,14.3,18.6,16.6
			c7.1,1.9,14.5,2.8,22.1,4.3c-0.7,1.1-1.3,2.2-2,3.2c-22,31-37.6,64.9-46.5,101.9c-6.5,27-8.8,54.2-4,81.7
			c7,40.8,28.8,72.1,62.8,95.1c7.6,5.1,15.5,9.7,23.6,14c7.9,4.2,15.9,8.9,24.4,11.1c8.8,2.2,16.9,4.9,24.4,9.9
			c0.4,0.3,1,0.2,1.5,0.3c8.6,2.2,16.9,0.3,25-2.5c20.5-7.1,38.7-18.7,55.5-32C288.2,1244,312.1,1223.5,336.9,1203z"/>
		<path class="st1" d="M602,288.5c-162.1,0-324.3,0-486.4,0c-39.3,0-66.4-18.6-80.5-55.4c-4.7-12.2-7.3-24.8-7.3-37.9
			c0-25.7-1.8-51.5,0.5-76.9C31.4,84.2,48,57.4,80.2,42.5c9-4.2,18.7-5.4,28.7-5.4c221.3,0,442.6,0,663.9,0c105,0,210,0.4,315-0.2
			c37.4-0.2,61.7,17.7,77.3,50c6.9,14.2,9.9,29.5,10,45.3c0.2,22.8,0.2,45.7,0.1,68.5c-0.2,36-23.8,72.3-55.4,83.3
			c-8.4,3-17.8,4.3-26.8,4.3C929.3,288.6,765.6,288.5,602,288.5z M665.2,114.8c0.8,2.3,1.2,3.3,1.5,4.4c9.7,33.5,19.4,67,29.1,100.5
			c1.3,4.5,1.4,10.6,4.4,12.8c3.2,2.3,9.2,1,14,1.1c6.6,0.1,7.1-0.4,7.1-7.1c0-46.7,0-93.3,0-140c0-6.2,0.3-12.3,0.8-18.5
			c0.2-2.3,1.1-5.6,2.7-6.6c4.1-2.5,3.8-6,3.9-9.9c0.1-4.6-1.9-6.2-6.3-6.1c-6,0.2-12,0.1-18,0c-2.8,0-6.2,0-6.3,3.2
			c-0.1,3.6-1.9,7.6,1.7,11.1c2.3,2.2,4.7,5.7,4.7,8.6c0.3,28.7,0.2,57.5,0.2,86.1c-5.1-17.8-10.3-35.9-15.5-54
			c-5.3-18.3-10.5-36.6-15.8-55c-8.7,0-17-0.1-25.4,0.1c-2.1,0.1-5.6,1.1-5.8,2.2c-0.6,3.6-1.4,9.4,0.4,10.7c6,4.3,6,10.1,6,16
			c0.1,33,0.1,66,0.1,99c0,11,0.2,22-0.2,33c-0.1,3.7-0.6,8.9-2.9,10.6c-4.6,3.3-4,7.1-4.1,11.2c-0.1,3.6,1.5,5.2,5.1,5.2
			c6.5-0.1,13,0.2,19.5-0.1c2-0.1,5.3-1.6,5.5-2.7c0.4-3.6,0.9-9-1-10.6c-4.3-3.5-5.5-7.5-5.5-12.2
			C665.1,177.3,665.2,146.7,665.2,114.8z M578.6,137.4c-0.5-10.3-0.7-20.6-1.7-30.9c-1.5-15.8-4.1-31.4-12.4-45.3
			c-13.8-23.4-41.7-24-56.6-1.3c-7.4,11.2-10.8,23.8-12.9,36.9c-4.6,28.1-4.4,56.4-0.9,84.6c1.7,13.7,4.8,27.2,12.7,39
			c13.2,19.8,39.3,20.7,53.4,1.5c4.2-5.8,7.5-12.6,9.8-19.4C577.3,181.4,578.3,159.4,578.6,137.4z M460.8,45.6c-3.7,0-7.3,0-11,0
			c-9.7,0-9.9,0.1-9.5,9.7c0.1,1.6,1.6,3.2,2.5,4.7c1.3,2.4,3.3,4.5,4,7.1c0.8,3.3,0.7,6.9,0.7,10.4c0.1,45.3,0.1,90.6,0.1,135.9
			c0,10.8,0,21.7-0.9,32.4c-0.4,5.1-1.9,11.2-5.2,14.6c-4.8,5-4.8,9.5-3.1,15.1c0.5,1.6,0.6,3.3,1,4.9c1.4,6.1,3.3,6.8,8.4,3.2
			c17.7-12.5,24.9-30.5,25.1-51.3c0.5-50,0.4-100,0.5-149.9c0-4.8,0.1-9.7,0.7-14.5c0.3-2.4,1-5.7,2.6-6.7c4.5-2.5,4-6.2,4.1-10.1
			c0-4-1.6-5.8-5.6-5.7C470.5,45.6,465.6,45.6,460.8,45.6z M598,139C598,139,598,139,598,139c0,22.7,0.1,45.3-0.2,68
			c0,3.6-0.7,8.7-3,10.5c-4,3-3.8,6.3-3.9,10.2c-0.1,4.3,1.8,6,6,5.9c8.2-0.1,16.3,0,24.5,0c10.3,0,10.4-0.1,9.9-10.2
			c-0.1-1.5-1.5-2.9-2.3-4.3c-1.3-2.1-3.2-3.9-3.7-6.1c-0.8-3.2-1-6.6-1-9.9c-0.1-38.6-0.1-77.3-0.1-115.9c0-5.2-0.3-10.4,0.3-15.5
			c0.4-3.5,0.8-8.2,3.1-10c3.9-3.1,3.7-6.4,3.8-10.3c0.1-4.4-1.9-5.8-6-5.7c-9.3,0.2-18.7-0.1-28,0.2c-2.1,0.1-5.7,1.5-6,2.7
			c-0.6,3.4-1.1,9,0.7,10.2c5.8,4,5.9,9.3,5.9,14.9C598,95.4,598,117.2,598,139z"/>
		<path class="st0" d="M336.9,1203c-24.8,20.6-48.6,41.1-73.3,60.6c-16.8,13.3-35,24.9-55.5,32c-8.1,2.8-16.3,4.7-25,2.5
			c-0.5-0.1-1.1-0.1-1.5-0.3c-7.4-5-15.6-7.7-24.4-9.9c-8.5-2.1-16.5-6.9-24.4-11.1c-8.1-4.3-16-8.9-23.6-14
			c-34-23-55.8-54.2-62.8-95.1c-4.7-27.5-2.5-54.8,4-81.7c8.9-37,24.5-70.9,46.5-101.9c0.7-1,1.4-2.1,2-3.2
			c-7.6-1.4-15-2.4-22.1-4.3C68.1,974.3,60,970,58.3,960c-2-11.6,0.5-22.3,10-30.3c2.4-2,5.2-3.5,7.3-4.9
			c-6.7-6.5-13.5-13.1-20.1-19.9c-5.2-5.4-5.4-10.8,0.4-15.5c5.5-4.6,12-7.9,18.1-11.8c-0.5-0.2-1.5-0.6-2.5-1
			c-11-4.2-16.1-11.2-15.3-23c1.1-15.8,5.8-30.7,14.6-44c3.5-5.3,8.3-8.9,14.4-11c2-0.7,3.9-2.4,5.2-4.1
			c7.6-10.3,16.4-19.3,27.8-25.5c15.2-8.3,24.4-7.7,38.2,2.3c16-10.5,34.1-16.2,53.5-21.9c-6.7-5.5-12.5-10.9-18.9-15.5
			c-8.2-5.9-16.5-11.9-25.4-16.8c-18.1-10.1-23.7-25.8-21.4-45.1c2.5-21,10.3-40.2,23.2-57.1c15.2-19.8,35.6-23.5,58.7-17.7
			c14.9,3.7,19.7,9.1,20.4,24.6c0.4,9-0.7,18-0.5,27c0.3,11.8,1.3,23.6,2,35.4c0.2,3.2,1.5,4.8,4.8,5.8c5.4,1.5,10.7,3.7,15.8,5.9
			c11.6,5.1,21,12.7,27.6,23.6c2,3.4,4.2,6.8,6.5,10.5c2.1-3,4.1-5.8,6-8.8c5.8-9.2,11.3-18.6,17.3-27.6c6.9-10.3,14-20.6,21.6-30.3
			c6.3-8,13.4-15.3,20.4-22.8c9-9.5,18-19.1,27.4-28.1c6.8-6.5,14.2-12.4,21.5-18.3c6.6-5.2,13.4-10,20.2-14.9
			c5.3-3.8,10.6-7.4,16-10.9c8.3-5.5,16.5-11.2,25.1-16.2c6.8-4,14.2-7,21.2-10.5c6.9-3.4,13.7-7,20.6-10.4c1.8-0.9,3.8-1.6,5.7-2.2
			c8.3-2.9,16.7-5.6,25-8.6c7.5-2.7,14.9-5.9,22.5-8.3c6.4-2,13-2.9,19.5-4.5c4.5-1.1,9-2.5,13.5-3.7c0.3-0.1,0.6-0.3,0.9-0.4
			c6-0.9,12.4-0.6,17.7-3c6.5-2.9,13.9,1.2,19.6-3.8c0.3-0.3,1-0.1,1.5-0.1c31.9-0.3,63.9-0.6,95.8-0.8c5.6,0,11.3,0.1,16.8,0.9
			c6.4,0.9,12.7,2.6,19,4c0.3,0.1,0.7,0,1,0.1c9.3,1.4,18.6,2.4,27.8,4.4c6.5,1.4,12.7,4.3,19.1,6.4c2.7,0.9,5.6,1.3,8.4,1.9
			c5.6,1.4,11.2,2.5,16.7,4.3c7.7,2.5,15.2,5.4,22.7,8.4c6.8,2.7,13.7,5.4,20.2,8.7c7.6,3.8,14.8,8.2,22.2,12.3
			c10.6,5.8,21.4,11.4,31.9,17.5c5.3,3.1,10.1,7.2,15.1,10.9c9.8,7.3,20.1,14,29.4,21.9c12.3,10.5,23.8,21.9,35.4,33.1
			c5.8,5.5,11.6,11.1,16.8,17.2c8.7,10.3,17.2,20.9,25.4,31.6c5.8,7.5,11.1,15.4,16.2,23.4c3.6,5.6,6.5,11.7,9.8,17.5
			c4.6,8.2,9.5,16.2,13.9,24.4c2.5,4.7,4.2,9.7,6.4,14.5c2.6,5.8,5.3,11.5,7.9,17.3c1.1,2.5,1.9,5.1,2.8,7.7c2.7,7.5,5.7,15,8,22.6
			c1.8,5.8,2.6,12,4.3,17.9c1.9,6.7,4.3,13.4,6.4,20c0.1,0.2,0.1,0.3,0.1,0.5c0.8,5.8,1.7,11.5,2.4,17.3c0.7,5.4,0,11.4,2.1,16.2
			c3.4,7.7,2.5,15.6,2.6,23.3c0.6,24.7,0.3,49.3,0.2,74c0,6.6-0.1,13.3-1,19.8c-0.7,5.8-2.5,11.5-3.8,17.2c-0.1,0.5,0,1-0.1,1.5
			c-0.8,6.1-1.1,12.3-2.5,18.3c-1.6,7-4.3,13.7-6.4,20.5c-0.8,2.5-0.9,5.1-1.7,7.6c-2,6.4-4.3,12.7-6.4,19c-0.7,2.2-1.1,4.6-1.7,6.9
			c-0.8,2.8-1.6,5.5-2.7,8.2c-2.6,6.3-5.2,12.6-8,18.8c-3.7,8.1-7.5,16.2-11.3,24.3c-2.5,5.2-4.9,10.5-7.6,15.6
			c-2.4,4.4-5.1,8.6-7.7,12.8c-5.1,8.1-9.7,16.5-15.4,24.2c-8.9,11.9-18,23.6-27.8,34.7c-12,13.3-24.6,26.1-37.4,38.7
			c-8.8,8.6-18,16.8-27.6,24.6c-8.3,6.7-17.2,12.8-26.1,18.6c-9.7,6.3-19.7,12-29.7,17.9c-7.2,4.2-14.4,8.5-21.9,12.3
			c-8.7,4.4-17.6,8.7-26.6,12.4c-8.3,3.4-17,5.9-25.5,8.9c-7.5,2.7-14.9,6-22.5,8.3c-6.5,2-13.4,2.9-20,4.5c-4.4,1-8.7,2.5-13,3.8
			c-0.5,0.1-0.9,0.3-1.4,0.4c-6,0.9-12,1.6-17.9,2.7c-6.4,1.2-12.7,2.7-19,4.1c-0.5,0.1-1,0.1-1.5,0.1c-31.9,0.3-63.9,0.6-95.8,0.8
			c-5.6,0-11.3-0.1-16.8-0.9c-6.4-0.9-12.7-2.6-19-4c-0.5-0.1-1,0-1.5-0.1c-9.1-1.4-18.5-1.9-27.2-4.6c-5.8-1.7-11.5-2.8-17.3-4.2
			c-7.7-1.9-15-5.4-22.5-7.9c-5.1-1.7-10.4-2.6-15.4-4.5c-4.7-1.8-9-4.4-13.6-6.4c-4.7-2-9.7-3.4-14.4-5.5c-5.7-2.4-11.2-5-16.7-7.8
			c-9.1-4.7-18.4-9.1-27.2-14.4c-11.1-6.6-22.2-13.4-32.6-21.2c-14.5-10.8-28.6-22.1-42.1-34c-9.5-8.4-18.2-17.9-26.7-27.3
			C358.6,1228.6,347.8,1215.7,336.9,1203C336.6,1202.7,336.2,1202.6,336.9,1203z M276,970.4c0,1.4-0.1,2.8,0,4.3
			c0.6,8.9-0.4,17.8,2.4,26.8c2.8,9.3,2.5,19.6,4.4,29.2c1.9,9.8,5,19.4,7.5,29.1c0.1,0.3,0,0.7,0.2,1c3.7,5.3,4.2,11.7,6.3,17.5
			c2,5.6,3.6,11.4,6,16.8c2.3,5.4,5.5,10.4,8.1,15.7c2.7,5.6,4.7,11.5,7.6,17c5,9.6,10,19.2,15.7,28.4c5.2,8.5,11.1,16.7,17.1,24.8
			c8.6,11.6,16.8,23.5,26.5,34.2c11.5,12.7,23.8,24.9,36.7,36.2c12.7,11.3,26,22,39.9,31.7c17.9,12.5,36.6,23.7,56.4,33
			c10.6,5,21.1,10.4,32,14.8c8.1,3.3,16.7,5.6,25.1,8.2c2.3,0.7,4.6,1.2,6.8,2c5.6,1.9,11.1,4.4,16.9,5.8c7.1,1.8,14.4,2.8,21.6,4.2
			c6.4,1.2,12.7,2.6,19,3.9c0.6,0.1,1.3,0,2,0.1c6.2,1.3,12.3,3.2,18.6,3.8c8.9,0.8,17.9,1,26.9,0.9c25.3-0.1,50.6-0.4,75.9-0.9
			c6.8-0.1,13.5-1.4,20.3-2.2c3.9-0.5,7.9-1,11.8-1.9c7.6-1.8,15.2-4.1,22.8-6c6.2-1.5,12.6-2.7,18.8-4.1c2.5-0.5,4.9-1.1,7.3-2
			c5.2-1.9,10.3-4.1,15.5-5.9c6-2.1,12.1-3.7,18-6c7.7-3.1,15.3-6.6,22.9-10.1c7-3.2,14.1-6.3,20.6-10.2c16.2-9.7,32.5-19.4,48-30
			c11.8-8.1,23-17.1,33.7-26.6c10.5-9.3,20.3-19.4,30-29.5c7.9-8.1,15.5-16.5,22.6-25.3c6.5-8.1,12.3-16.7,18.2-25.3
			c6.8-9.8,13.8-19.6,19.7-29.9c6.6-11.6,12.5-23.7,18.1-36c4.1-9,7.1-18.4,10.5-27.6c0.7-1.9,0.7-4.1,1.5-6
			c1.9-5.1,4.5-9.9,6.1-15.1c1.8-5.9,2.6-12.2,4.1-18.2c1.8-7.1,4.7-13.9,6-21.1c1.5-8.2,1.4-16.6,3.8-24.9c2-6.8,1.3-14.4,1.3-21.7
			c0.1-22.7,0.1-45.3,0-68c0-1.8-0.4-3.6-0.7-5.3c-1-7.4-1.9-14.7-2.9-22.1c-0.2-1.3-0.4-2.5-0.7-3.8c-1-4.8-2.2-9.6-3.1-14.5
			c-1.4-7.3-2.2-14.7-4-21.8c-1.5-5.7-4.3-10.9-6.2-16.5c-2.8-8.2-5.1-16.6-7.9-24.8c-2.4-6.9-4.8-13.8-7.8-20.4
			c-4.3-9.4-9.2-18.5-14.1-27.6c-4.2-7.7-8.6-15.4-13.3-22.8c-5-7.8-10.2-15.5-15.7-22.8c-8.8-11.6-17.6-23.2-27.2-34.2
			c-8.3-9.6-17.4-18.4-26.5-27.3c-6.3-6.2-13.1-11.9-19.9-17.6c-5.4-4.4-11.1-8.4-16.7-12.5c-6.7-5-13.4-10.1-20.2-14.8
			c-4.8-3.4-9.9-6.5-15-9.4c-8.1-4.7-16.3-9.5-24.6-13.9c-6.7-3.5-13.6-6.7-20.4-9.8c-7.6-3.5-15.2-6.9-23-10.1
			c-5.6-2.3-11.4-3.9-17-6c-5.2-1.9-10.3-4.3-15.6-5.9c-6.4-2-13-3.6-19.5-5.2c-6.5-1.6-13-3.1-19.5-4.3c-5.7-1.1-11.5-1.5-17.2-2.6
			c-6.3-1.1-12.4-3-18.7-3.8c-6.1-0.7-12.3-0.9-18.4-0.6c-31.9,1.3-63.9-3.1-95.7,2.8c-6.4,1.2-13,1.2-19.4,1.7
			c-0.5,0-1,0.2-1.4,0.3c-4.6,1.2-9.1,2.5-13.7,3.7c-4.6,1.1-9.3,2.1-13.9,3.1c-2.2,0.5-4.5,0.5-6.7,1.2c-6.3,1.9-12.6,4.2-18.9,6.2
			c-6.2,2-12.5,3.6-18.6,5.8c-5.3,1.9-10.3,4.3-15.5,6.4c-4.6,1.9-9.4,3.5-13.9,5.8c-7.3,3.6-14.4,7.6-21.6,11.4
			c-5.6,2.9-11.6,5.2-17,8.5c-9.4,5.8-18.6,12.2-27.8,18.4c-6.6,4.5-13.5,8.6-19.7,13.6c-9.2,7.4-18.3,15.1-26.8,23.4
			c-12.2,11.7-24.3,23.5-35.5,36.2c-11.3,12.8-22,26.3-31.7,40.4c-8.6,12.5-15.5,26.3-23.2,39.5c-3.1,5.3-3.6,10.3-1.1,16.3
			c2.7,6.5,4.4,13.6,5.6,20.6c1.5,8.5,3.1,17.1,2.7,25.6c-0.5,10.4-5.8,19.4-12.2,27.4c-5.6,6.9-12,13.3-18,19.9
			C335.7,896.1,324.6,948.8,276,970.4z M217.1,974.6c-4.4,0.5-7,0.7-9.5,1.2c-4.9,1-9.7,2.9-14.6,3.1c-22.9,1-45.9,1.8-68.9,2.3
			c-4.1,0.1-6.7,1-9.2,4.3c-32.3,43.5-52.7,91.6-55.4,146.1c-1.7,33.3,6,64.1,27.4,90.6c14.9,18.3,33.7,31.6,54.7,41.9
			c8.7,4.2,17.9,7.3,26.9,10.8c4.8,1.9,10.7,2.5,14.3,5.7c4.2,3.7,8.3,3.7,12.3,2.4c9.1-3,18.5-5.8,26.8-10.5
			c38.6-21.8,71.1-51.5,103.3-81.5c2-1.9,2-3.6-0.2-5.4c-0.9-0.7-1.8-1.5-2.4-2.4c-6.2-10.5-12.6-20.9-18.3-31.7
			c-6.5-12.4-12.6-25.1-18.5-37.8c-4.2-9.1-7.8-18.5-11.5-27.9c-1.7-4.5-3-9.1-4.3-13.8c-0.4-1.6,0-3.4-0.5-4.9
			c-1.9-5.9-4.2-11.7-6-17.7c-1-3.3-1.5-6.7-2.4-11.2c-1.4,2.4-2.2,3.5-2.8,4.6c-9.8,19.1-19.4,38.3-29.4,57.2
			c-4.2,8-6.7,16.1-6.3,25.2c0.2,5.3-0.5,10.6-0.9,16c-0.8,9.1-1.8,18.1-2.7,27.2c-5.4,0-10.2,0-14.2,0c1.4-32.3,2.3-64.4,4.3-96.4
			C211.3,1040,214.4,1008,217.1,974.6z M107.6,797.6c0.2,0.6,0.3,1.2,0.5,1.8c11.7,0.7,23.5,2.2,35.2,1.9c5.5-0.2,11.1-2.9,17-2.3
			c3.9,0.4,7.8,0.4,11.8,0.4c13.5-0.1,26.9-0.9,40.3-0.2c20.6,1.1,32.8,10.7,36,28.3c1.2,6.8,0.9,13.9,0.6,20.8
			c-0.4,6.9-3.7,12.7-8.9,17.4c-0.8,0.7-1.4,1.5-2.2,2.3c0.1,0.5,0.2,1.1,0.3,1.6c4.2,0,8.6,0.8,12.5-0.1
			c20-4.8,35.8-16.4,49.2-31.6c8.3-9.5,12.4-20.5,11.1-33.1c-2.6-26.7-12.8-50.7-25.9-73.8c-6.5-11.5-16.1-18.9-28.3-23.1
			c-8.3-2.8-16.8-5.1-26-7.9c0.4-5.9,1.1-12.2,1.1-18.5c-0.1-14.5-0.7-28.9-1-43.4c-0.1-6,0.4-12-0.1-18c-0.2-2.2-2-5.4-3.8-6
			c-21.4-7-37.6-5-50.6,15c-10.8,16.6-17.7,34.6-17.4,54.8c0.1,8,3.8,14.5,9.9,19.1c5.1,3.8,11.6,5.6,16.8,9.3
			c10.5,7.3,20.7,15.1,30.6,23.2c4.9,3.9,10.6,8,8.8,15.9c-0.1,0.5,0.6,1.1,0.8,1.7c1.7,4.5-0.4,8.4-4.9,9.8
			c-11.9,3.6-23.8,7.5-35.7,11.1c-2.5,0.8-5.2,1-7.8,1.4c-7.5,1.3-15.1,2.7-22.6,3.9c-4.1,0.6-8.2,1.1-12.3,1.1
			c-3,0.1-6.3-1.5-9.1-0.8C122.7,782.3,114.8,789.5,107.6,797.6z M145.3,864.1c0,0,0-0.1,0-0.1c11,0,22,0.5,33-0.1
			c12.8-0.7,25.6-1.6,38.2-4c15.5-2.9,18.6-8,17.8-23.6c0-0.2,0-0.3,0-0.5c-0.8-13.3-5.6-19.4-18.9-20.6c-13-1.2-26.2-1-39.3-0.5
			c-18.1,0.6-36.1,3.9-54.3,1.4c-8.4-1.2-16.8-2-25.3-3.1c-7.1-0.9-12.2,2.4-14.9,8.5c-3.3,7.7-6.4,15.7-8.5,23.9
			c-3.7,14.6-1.2,18.2,13.9,18.6C106.3,864.5,125.8,864.1,145.3,864.1z M283.3,872.2c-2.3,1.3-4.5,2.5-6.7,3.7
			c-18.5,10.4-37,13.3-56,1.3c-2.3-1.4-5.8-0.8-8.8-1.1c-0.1,0.5-0.2,0.9-0.3,1.4c10.8,5.4,20.6,11.7,23.7,24.5
			c3.3,13.8-3.7,22.3-15.8,28.2c12.3,8.7,12.3,19.6,7.4,31.5c19.9,3.4,43.3-2.5,58.7-14.5C312.2,926,311.4,892.4,283.3,872.2z
			 M69.8,897.6c8.3,9.6,17.4,17.2,29.4,20.5c1.6,0.4,3.3,0.7,4.9,0.6c27.3-2,54.6-2,81.8,1.4c9.9,1.3,18.8-1.1,27.6-4.6
			c8.2-3.3,9.5-9.4,3.4-16c-2.4-2.6-5.5-5.2-8.7-6.4c-7.1-2.8-14.3-5.5-21.7-6.9c-24.4-4.6-49.1-4.1-73.6-0.9
			C98.1,887.2,83.6,890.2,69.8,897.6z M145.1,966.8c15.6-1,30.2-1.4,44.8-3c6.5-0.7,12.8-3.2,18.9-5.6c4-1.6,6.3-5.7,5.3-9.8
			c-0.7-2.7-3.5-5.3-6.1-6.9c-2.9-1.8-6.4-2.8-9.8-3.5c-34.3-6.9-68.8-6.6-103.4-2.6c-5,0.6-10,2.5-14.6,4.7c-6.2,3-7.6,9-7.1,15.3
			c0.5,5.6,5.8,5.7,9.7,7c2.7,0.9,5.5,1.4,8.3,1.5C109.4,965,127.7,965.9,145.1,966.8z M232.2,978.2c-2.6,31.5-5.1,62.6-7.6,93.7
			c1.7-1.1,2.5-2.4,3.3-3.8c8.1-15.3,16.2-30.5,24.3-45.8c2.1-4,4.6-7.4,3.3-12.8c-1.9-7.7-1.8-15.8-2.7-23.8
			c-0.3-2.9-0.8-5.8-1.3-8.5C244.9,977.5,238.4,977.8,232.2,978.2z"/>
		<path class="st0" d="M665.2,114.8c0,31.9-0.1,62.5,0.1,93.2c0,4.7,1.2,8.7,5.5,12.2c2,1.6,1.5,7,1,10.6c-0.1,1.2-3.5,2.6-5.5,2.7
			c-6.5,0.3-13,0.1-19.5,0.1c-3.6,0-5.2-1.6-5.1-5.2c0.1-4.2-0.5-8,4.1-11.2c2.3-1.7,2.8-6.9,2.9-10.6c0.4-11,0.2-22,0.2-33
			c0-33,0-66-0.1-99c0-5.9,0-11.7-6-16c-1.9-1.3-1-7.1-0.4-10.7c0.2-1.1,3.8-2.1,5.8-2.2c8.3-0.2,16.6-0.1,25.4-0.1
			c5.3,18.4,10.6,36.7,15.8,55c5.2,18.1,10.4,36.2,15.5,54c0-28.6,0.1-57.4-0.2-86.1c0-2.9-2.4-6.4-4.7-8.6
			c-3.7-3.5-1.8-7.5-1.7-11.1c0.1-3.3,3.5-3.3,6.3-3.2c6,0.1,12,0.2,18,0c4.4-0.2,6.4,1.4,6.3,6.1c-0.1,3.9,0.1,7.3-3.9,9.9
			c-1.7,1-2.5,4.3-2.7,6.6c-0.6,6.1-0.8,12.3-0.8,18.5c-0.1,46.7,0,93.3,0,140c0,6.7-0.4,7.2-7.1,7.1c-4.8-0.1-10.7,1.3-14-1.1
			c-3-2.2-3.1-8.4-4.4-12.8c-9.7-33.5-19.4-67-29.1-100.5C666.4,118.1,666,117,665.2,114.8z"/>
		<path class="st0" d="M578.6,137.4c-0.3,22-1.3,44-8.6,65c-2.4,6.8-5.6,13.6-9.8,19.4c-14.1,19.2-40.1,18.3-53.4-1.5
			c-7.9-11.8-11-25.3-12.7-39c-3.5-28.2-3.7-56.4,0.9-84.6c2.1-13,5.6-25.7,12.9-36.9c14.9-22.7,42.8-22.1,56.6,1.3
			c8.2,13.9,10.8,29.5,12.4,45.3C577.9,116.8,578.1,127.1,578.6,137.4z M552.9,145.6c-1.5-20.1-2.2-36.3-4.2-52.3
			c-1-7.9-3.5-15.9-6.7-23.2c-3.4-7.7-10.5-7.5-14.8-0.2c-1.8,3.1-3.4,6.6-4,10.1c-1.8,11.8-3.9,23.6-4.5,35.5
			c-1.4,25.8-1.4,51.6,3.5,77.1c1.2,6.2,3.7,12.4,6.9,17.9c3.1,5.4,9.2,5.1,12.5-0.2c2.3-3.8,4.5-8,5.1-12.3
			C549.3,179.4,551.2,160.6,552.9,145.6z"/>
		<path class="st0" d="M460.8,45.6c4.8,0,9.7,0.1,14.5,0c4.1-0.1,5.6,1.8,5.6,5.7c0,4,0.4,7.6-4.1,10.1c-1.6,0.9-2.4,4.3-2.6,6.7
			c-0.6,4.8-0.7,9.6-0.7,14.5c-0.2,50,0,100-0.5,149.9c-0.2,20.7-7.4,38.8-25.1,51.3c-5.1,3.6-7,2.9-8.4-3.2c-0.4-1.6-0.5-3.3-1-4.9
			c-1.7-5.6-1.7-10.2,3.1-15.1c3.3-3.4,4.7-9.5,5.2-14.6c0.9-10.8,0.9-21.6,0.9-32.4c0-45.3,0-90.6-0.1-135.9
			c0-3.5,0.1-7.1-0.7-10.4c-0.6-2.5-2.6-4.7-4-7.1c-0.9-1.6-2.4-3.1-2.5-4.7c-0.5-9.5-0.2-9.7,9.5-9.7
			C453.5,45.6,457.1,45.6,460.8,45.6z"/>
		<path class="st0" d="M598,139c0-21.8,0-43.6,0-65.5c0-5.7-0.1-11-5.9-14.9c-1.8-1.2-1.3-6.8-0.7-10.2c0.2-1.3,3.9-2.7,6-2.7
			c9.3-0.3,18.7,0,28-0.2c4.2-0.1,6.2,1.3,6,5.7c-0.1,3.9,0.1,7.3-3.8,10.3c-2.3,1.8-2.8,6.5-3.1,10c-0.5,5.1-0.3,10.3-0.3,15.5
			c0,38.6,0,77.3,0.1,115.9c0,3.3,0.1,6.7,1,9.9c0.6,2.2,2.5,4.1,3.7,6.1c0.9,1.4,2.2,2.8,2.3,4.3c0.6,10.2,0.4,10.2-9.9,10.2
			c-8.2,0-16.3-0.1-24.5,0c-4.2,0.1-6.1-1.6-6-5.9c0.1-3.9-0.1-7.2,3.9-10.2c2.3-1.8,3-6.9,3-10.5C598.1,184.3,597.9,161.7,598,139
			C598,139,598,139,598,139z"/>
		<path class="st2" d="M276,970.4c48.6-21.6,59.7-74.3,21.2-107.4c6-6.6,12.4-12.9,18-19.9c6.5-8,11.8-17,12.2-27.4
			c0.4-8.5-1.2-17.2-2.7-25.6c-1.2-7-2.9-14.1-5.6-20.6c-2.5-6-2-11,1.1-16.3c7.7-13.2,14.5-27,23.2-39.5
			c9.7-14.1,20.4-27.5,31.7-40.4c11.1-12.7,23.3-24.5,35.5-36.2c8.5-8.2,17.6-15.9,26.8-23.4c6.2-5,13.1-9.1,19.7-13.6
			c9.2-6.2,18.3-12.6,27.8-18.4c5.4-3.3,11.3-5.6,17-8.5c7.2-3.7,14.3-7.8,21.6-11.4c4.5-2.2,9.3-3.8,13.9-5.8
			c5.2-2.1,10.2-4.5,15.5-6.4c6.1-2.2,12.4-3.8,18.6-5.8c6.3-2,12.5-4.2,18.9-6.2c2.1-0.7,4.5-0.7,6.7-1.2c4.7-1,9.3-2,13.9-3.1
			c4.6-1.1,9.1-2.4,13.7-3.7c0.5-0.1,1-0.2,1.4-0.3c6.5-0.5,13.1-0.5,19.4-1.7c31.8-5.9,63.8-1.5,95.7-2.8
			c6.1-0.2,12.4-0.1,18.4,0.6c6.3,0.8,12.4,2.6,18.7,3.8c5.7,1,11.5,1.5,17.2,2.6c6.6,1.2,13.1,2.7,19.5,4.3
			c6.5,1.6,13.1,3.2,19.5,5.2c5.3,1.7,10.4,4,15.6,5.9c5.7,2.1,11.5,3.7,17,6c7.7,3.1,15.4,6.6,23,10.1c6.9,3.1,13.8,6.3,20.4,9.8
			c8.3,4.4,16.5,9.1,24.6,13.9c5.1,3,10.1,6.1,15,9.4c6.9,4.8,13.5,9.9,20.2,14.8c5.6,4.1,11.3,8.1,16.7,12.5
			c6.8,5.6,13.6,11.4,19.9,17.6c9.1,8.8,18.2,17.7,26.5,27.3c9.5,11,18.4,22.6,27.2,34.2c5.6,7.3,10.8,15,15.7,22.8
			c4.7,7.4,9.1,15.1,13.3,22.8c4.9,9.1,9.7,18.2,14.1,27.6c3.1,6.6,5.5,13.5,7.8,20.4c2.8,8.2,5.1,16.6,7.9,24.8
			c1.9,5.6,4.7,10.9,6.2,16.5c1.8,7.1,2.7,14.6,4,21.8c0.9,4.9,2.1,9.7,3.1,14.5c0.3,1.3,0.5,2.5,0.7,3.8c1,7.4,1.9,14.7,2.9,22.1
			c0.2,1.8,0.7,3.6,0.7,5.3c0,22.7,0.1,45.3,0,68c0,7.3,0.7,14.9-1.3,21.7c-2.4,8.3-2.4,16.6-3.8,24.9c-1.3,7.2-4.1,14-6,21.1
			c-1.6,6-2.4,12.3-4.1,18.2c-1.6,5.2-4.1,10-6.1,15.1c-0.7,1.9-0.8,4.1-1.5,6c-3.4,9.3-6.4,18.7-10.5,27.6
			c-5.5,12.2-11.4,24.3-18.1,36c-5.9,10.3-12.9,20.1-19.7,29.9c-5.9,8.6-11.7,17.2-18.2,25.3c-7.1,8.8-14.8,17.2-22.6,25.3
			c-9.7,10.1-19.5,20.2-30,29.5c-10.7,9.5-21.9,18.5-33.7,26.6c-15.6,10.6-31.8,20.3-48,30c-6.6,3.9-13.7,7-20.6,10.2
			c-7.6,3.5-15.1,7-22.9,10.1c-5.9,2.3-12,3.9-18,6c-5.2,1.8-10.3,4-15.5,5.9c-2.4,0.9-4.8,1.4-7.3,2c-6.3,1.4-12.6,2.6-18.8,4.1
			c-7.6,1.9-15.2,4.1-22.8,6c-3.9,0.9-7.8,1.4-11.8,1.9c-6.7,0.8-13.5,2.1-20.3,2.2c-25.3,0.5-50.6,0.7-75.9,0.9
			c-9,0-18-0.1-26.9-0.9c-6.3-0.6-12.4-2.5-18.6-3.8c-0.6-0.1-1.3,0-2-0.1c-6.3-1.3-12.7-2.6-19-3.9c-7.2-1.4-14.5-2.4-21.6-4.2
			c-5.7-1.5-11.2-3.9-16.9-5.8c-2.2-0.8-4.6-1.3-6.8-2c-8.4-2.7-17-4.9-25.1-8.2c-10.9-4.5-21.4-9.8-32-14.8
			c-19.8-9.3-38.6-20.5-56.4-33c-13.9-9.7-27.2-20.4-39.9-31.7c-12.8-11.4-25.2-23.5-36.7-36.2c-9.6-10.7-17.9-22.6-26.5-34.2
			c-6-8.1-11.8-16.3-17.1-24.8c-5.6-9.2-10.7-18.8-15.7-28.4c-2.8-5.5-4.9-11.4-7.6-17c-2.5-5.3-5.7-10.3-8.1-15.7
			c-2.4-5.4-4-11.2-6-16.8c-2.1-5.8-2.6-12.3-6.3-17.5c-0.2-0.2-0.1-0.6-0.2-1c-2.5-9.7-5.6-19.3-7.5-29.1
			c-1.9-9.7-1.6-19.9-4.4-29.2c-2.8-9-1.8-17.9-2.4-26.8C275.9,973.2,276,971.8,276,970.4z M987,1011.4c-2.2,2.4-4.1,4.6-6.1,6.5
			c-90.8,87.5-197.4,120.3-320.5,88.1c-84.7-22.1-156.6-68-219-128.9c-1.2-1.2-2-3.8-1.7-5.5c1-6,3.3-11.9,3.7-17.9
			c0.5-6.3-0.6-12.8-1-19.2c-0.5,0-1,0-1.6,0.1c-1.8,4-3.4,8.2-5.4,12.1c-9.3,18.2-22.8,31.8-43.6,35.2c-10.7,1.8-21.8,0.7-32.7,1
			c-2.9,0.1-5.8,0.4-8.7,0.6c0,0.5-0.1,1.1-0.1,1.6c3.2,1.3,6.3,2.8,9.6,3.8c14.4,4.1,29.1,6.5,44.2,5.8c1.6-0.1,4,0.5,4.8,1.7
			c3.7,5.5,7.3,11,10.2,16.9c7.2,14.6,13.5,29.6,21,44.1c21,40.6,46,78.4,79.6,109.8c56.1,52.4,121.8,71.3,197.1,56.1
			c39.7-8,76.4-23.8,111.2-44.1c69.8-40.6,129.4-93.5,182.9-153.5c1.9-2.1,3.3-4.7,5.4-7.6c14.6-1.1,30.4-1.5,44.4-10.5
			c-2.2-1.4-4.3-2.2-6.5-2.3c-12.1-0.7-24.2-0.8-36.2-2c-8.9-0.9-17.9-2.2-26.4-4.9c-13.3-4.3-23.7-12.8-30.6-25.3
			C961.6,991.2,972.8,1002,987,1011.4z M587,807.6c-1.7-11.8-2.7-23.8-5.2-35.4c-3.2-15.3-8.8-29.7-20.6-40.7
			c-10.8-10-24.1-10.5-34.2,0.2c-6.1,6.3-11.5,14.1-14.8,22.2c-12.8,31.4-13.3,63.8-4.4,96.3c3.6,13.1,9,25.4,19.4,34.8
			c10.6,9.6,23.4,9.9,33.5-0.1c5.3-5.3,9.9-11.7,13.3-18.4C583.2,848,585.8,828.1,587,807.6z M831,818c1.7,12,2.8,24.1,5.2,35.9
			c2.7,13.3,7.6,25.8,16.5,36.4c13.2,15.7,29.8,15.8,42.6-0.2c4.8-6,8.8-13,11.5-20.2c11.5-30.7,12-62,3.5-93.6
			c-3.4-12.6-8.6-24.5-18.1-33.9c-11.6-11.3-25.3-11.5-36.5,0.2c-4.7,5-8.7,11-11.8,17.1C834.9,778,832.2,797.7,831,818z"/>
		<path class="st2" d="M217.1,974.6c-2.7,33.5-5.8,65.4-7.8,97.5c-2,32-2.9,64.1-4.3,96.4c4,0,8.8,0,14.2,0
			c0.9-9.1,1.9-18.1,2.7-27.2c0.5-5.3,1.2-10.7,0.9-16c-0.4-9.1,2.1-17.2,6.3-25.2c10-19,19.6-38.1,29.4-57.2
			c0.6-1.2,1.3-2.3,2.8-4.6c1,4.5,1.4,8,2.4,11.2c1.8,5.9,4.1,11.7,6,17.7c0.5,1.5,0.1,3.3,0.5,4.9c1.3,4.6,2.6,9.3,4.3,13.8
			c3.6,9.4,7.3,18.8,11.5,27.9c5.9,12.7,11.9,25.4,18.5,37.8c5.7,10.8,12.2,21.2,18.3,31.7c0.6,1,1.5,1.7,2.4,2.4
			c2.1,1.8,2.2,3.5,0.2,5.4c-32.2,30-64.7,59.7-103.3,81.5c-8.3,4.7-17.6,7.5-26.8,10.5c-4,1.3-8.1,1.3-12.3-2.4
			c-3.6-3.2-9.5-3.8-14.3-5.7c-9-3.5-18.3-6.6-26.9-10.8c-21-10.3-39.8-23.5-54.7-41.9c-21.4-26.5-29.1-57.3-27.4-90.6
			c2.8-54.6,23.1-102.7,55.4-146.1c2.4-3.3,5.1-4.2,9.2-4.3c23-0.5,45.9-1.2,68.9-2.3c4.9-0.2,9.7-2.1,14.6-3.1
			C210.1,975.3,212.7,975.1,217.1,974.6z"/>
		<path class="st2" d="M107.6,797.6c7.2-8.1,15.2-15.3,26-18.1c2.8-0.7,6.1,0.8,9.1,0.8c4.1-0.1,8.3-0.5,12.3-1.1
			c7.6-1.2,15.1-2.6,22.6-3.9c2.6-0.5,5.3-0.7,7.8-1.4c11.9-3.6,23.8-7.5,35.7-11.1c4.5-1.4,6.6-5.3,4.9-9.8
			c-0.2-0.6-0.9-1.2-0.8-1.7c1.8-7.9-3.9-12-8.8-15.9c-9.9-8-20.1-15.8-30.6-23.2c-5.2-3.7-11.7-5.5-16.8-9.3
			c-6.1-4.5-9.8-11.1-9.9-19.1c-0.3-20.2,6.6-38.2,17.4-54.8c13-20,29.2-21.9,50.6-15c1.8,0.6,3.6,3.8,3.8,6c0.5,6,0,12,0.1,18
			c0.3,14.5,0.9,28.9,1,43.4c0.1,6.3-0.7,12.6-1.1,18.5c9.2,2.8,17.7,5.1,26,7.9c12.2,4.2,21.8,11.7,28.3,23.1
			c13.1,23.1,23.3,47.1,25.9,73.8c1.2,12.6-2.8,23.6-11.1,33.1c-13.4,15.2-29.2,26.8-49.2,31.6c-4,1-8.3,0.1-12.5,0.1
			c-0.1-0.5-0.2-1.1-0.3-1.6c0.7-0.8,1.4-1.6,2.2-2.3c5.1-4.7,8.5-10.5,8.9-17.4c0.4-6.9,0.7-14.1-0.6-20.8
			c-3.2-17.5-15.4-27.2-36-28.3c-13.4-0.7-26.9,0.1-40.3,0.2c-3.9,0-7.9,0-11.8-0.4c-5.9-0.6-11.5,2.1-17,2.3
			c-11.7,0.4-23.5-1.1-35.2-1.9C107.9,798.8,107.7,798.2,107.6,797.6z"/>
		<path class="st2" d="M145.3,864.1c-19.5,0-39,0.4-58.4-0.1c-15.1-0.4-17.6-4-13.9-18.6c2.1-8.2,5.1-16.1,8.5-23.9
			c2.6-6.2,7.7-9.4,14.9-8.5c8.4,1,16.9,1.9,25.3,3.1c18.2,2.5,36.2-0.8,54.3-1.4c13.1-0.4,26.3-0.6,39.3,0.5
			c13.4,1.2,18.2,7.4,18.9,20.6c0,0.2,0,0.3,0,0.5c0.8,15.6-2.3,20.7-17.8,23.6c-12.5,2.4-25.4,3.2-38.2,4c-11,0.6-22,0.1-33,0.1
			C145.3,864,145.3,864,145.3,864.1z"/>
		<path class="st2" d="M283.3,872.2c28.1,20.1,28.9,53.8,2.2,74.8c-15.3,12.1-38.7,17.9-58.7,14.5c4.9-11.9,4.9-22.8-7.4-31.5
			c12.1-5.8,19-14.3,15.8-28.2c-3-12.8-12.9-19.1-23.7-24.5c0.1-0.5,0.2-0.9,0.3-1.4c3,0.3,6.5-0.3,8.8,1.1
			c19.1,12.1,37.6,9.1,56-1.3C278.8,874.7,280.9,873.5,283.3,872.2z"/>
		<path class="st2" d="M69.8,897.6c13.8-7.4,28.3-10.4,43-12.3c24.5-3.1,49.2-3.7,73.6,0.9c7.4,1.4,14.7,4.1,21.7,6.9
			c3.3,1.3,6.3,3.8,8.7,6.4c6.1,6.5,4.8,12.7-3.4,16c-8.8,3.5-17.7,5.9-27.6,4.6c-27.2-3.4-54.5-3.4-81.8-1.4
			c-1.6,0.1-3.3-0.2-4.9-0.6C87.2,914.9,78.1,907.3,69.8,897.6z"/>
		<path class="st2" d="M145.1,966.8c-17.4-0.9-35.7-1.8-54-2.8c-2.8-0.2-5.7-0.7-8.3-1.5c-3.9-1.3-9.3-1.3-9.7-7
			c-0.5-6.3,0.9-12.3,7.1-15.3c4.6-2.2,9.6-4.1,14.6-4.7c34.6-4,69.1-4.4,103.4,2.6c3.4,0.7,6.9,1.7,9.8,3.5
			c2.5,1.6,5.4,4.2,6.1,6.9c1.1,4.1-1.2,8.2-5.3,9.8c-6.1,2.4-12.5,4.9-18.9,5.6C175.3,965.4,160.7,965.8,145.1,966.8z"/>
		<path class="st1" d="M232.2,978.2c6.2-0.3,12.7-0.6,19.3-1c0.4,2.7,0.9,5.6,1.3,8.5c0.8,7.9,0.8,16.1,2.7,23.8
			c1.3,5.5-1.2,8.8-3.3,12.8c-8.1,15.3-16.2,30.5-24.3,45.8c-0.7,1.4-1.5,2.7-3.3,3.8C227.1,1040.8,229.7,1009.7,232.2,978.2z"/>
		<path class="st1" d="M552.9,145.6c-1.7,15-3.6,33.8-6.1,52.5c-0.6,4.3-2.8,8.5-5.1,12.3c-3.3,5.4-9.4,5.7-12.5,0.2
			c-3.2-5.5-5.6-11.7-6.9-17.9c-5-25.5-4.9-51.3-3.5-77.1c0.6-11.9,2.7-23.7,4.5-35.5c0.5-3.5,2.2-7,4-10.1
			c4.3-7.3,11.4-7.5,14.8,0.2c3.2,7.3,5.7,15.3,6.7,23.2C550.7,109.4,551.4,125.5,552.9,145.6z"/>
		<path class="st0" d="M987,1011.4c-14.2-9.4-25.4-20.2-25.8-38.3c6.9,12.5,17.4,21,30.6,25.3c8.4,2.7,17.5,4.1,26.4,4.9
			c12,1.2,24.1,1.3,36.2,2c2.2,0.1,4.3,0.9,6.5,2.3c-14,8.9-29.9,9.4-44.4,10.5c-2.1,3-3.5,5.5-5.4,7.6
			c-53.5,60-113.1,112.9-182.9,153.5c-34.8,20.2-71.5,36.1-111.2,44.1c-75.3,15.2-141.1-3.6-197.1-56.1
			c-33.6-31.4-58.7-69.2-79.6-109.8c-7.5-14.5-13.8-29.5-21-44.1c-2.9-5.9-6.5-11.4-10.2-16.9c-0.8-1.1-3.2-1.8-4.8-1.7
			c-15.1,0.7-29.8-1.7-44.2-5.8c-3.3-0.9-6.4-2.5-9.6-3.8c0-0.5,0.1-1.1,0.1-1.6c2.9-0.2,5.8-0.5,8.7-0.6c10.9-0.3,22,0.8,32.7-1
			c20.8-3.4,34.3-17,43.6-35.2c2-3.9,3.6-8,5.4-12.1c0.5,0,1,0,1.6-0.1c0.4,6.4,1.5,12.9,1,19.2c-0.4,6-2.7,11.9-3.7,17.9
			c-0.3,1.7,0.5,4.3,1.7,5.5c62.4,60.9,134.3,106.8,219,128.9c123.1,32.1,229.7-0.6,320.5-88.1C982.9,1016,984.8,1013.8,987,1011.4z
			"/>
		<path class="st0" d="M587,807.6c-1.2,20.5-3.8,40.4-13,58.7c-3.4,6.7-7.9,13.2-13.3,18.4c-10.2,10-22.9,9.7-33.5,0.1
			c-10.4-9.4-15.8-21.7-19.4-34.8c-8.9-32.6-8.4-64.9,4.4-96.3c3.3-8.1,8.7-15.8,14.8-22.2c10.2-10.6,23.4-10.2,34.2-0.2
			c11.8,11,17.4,25.5,20.6,40.7C584.3,783.8,585.3,795.8,587,807.6z"/>
		<path class="st0" d="M831,818c1.3-20.3,3.9-40,13-58.2c3.1-6.2,7.1-12.2,11.8-17.1c11.2-11.7,24.9-11.6,36.5-0.2
			c9.6,9.4,14.7,21.2,18.1,33.9c8.5,31.5,8,62.9-3.5,93.6c-2.7,7.2-6.7,14.2-11.5,20.2c-12.8,16.1-29.4,15.9-42.6,0.2
			c-8.9-10.6-13.8-23.1-16.5-36.4C833.8,842.1,832.6,830,831,818z"/>
	</g>
</g>
</svg>
