<?xml version="1.0" encoding="utf-8"?>
<!-- Generator: Adobe Illustrator 19.2.0, SVG Export Plug-In . SVG Version: 6.00 Build 0)  -->
<svg version="1.1" id="LEARN2_xA0_Image_1_" xmlns="http://www.w3.org/2000/svg" xmlns:xlink="http://www.w3.org/1999/xlink"
	 x="0px" y="0px" viewBox="0 0 864 720" style="enable-background:new 0 0 864 720;" xml:space="preserve">
<style type="text/css">
	.st0{display:none;fill:#CBCBFD;}
	.st1{fill:#010101;}
	.st2{fill:#FEFEFE;}
</style>
<g>
	<g>
		<path class="st0" d="M1,721C1,481,1,241,1,1c288,0,576,0,864,0c0,240,0,480,0,720C577,721,289,721,1,721z M503.8,674.1
			c4.7,0,8.8-0.1,13,0c99.5,1.5,198.9,3.1,298.4,4.8c4.1,0.1,6.7-0.9,9.1-4.3c3.5-5.1,7.7-9.6,11.2-14.7c1.3-1.9,2.2-4.8,1.9-7.2
			c-2.3-21.4-4.9-42.7-7.4-64c-3.8-32.4-7.6-64.8-11.4-97.2c-3.9-32.7-7.7-65.5-11.6-98.2c-3.8-32.4-7.6-64.8-11.4-97.2
			c-3.9-32.9-7.7-65.8-11.6-98.7c-1.2-10-2.4-20.1-3.7-31c-8.9,0-17.5,0-25.8,0c-2.8-20.3-5.5-39.7-8.2-59.4c-1.8,1.5-3,2.5-5.2,4.3
			c2.2-7.4,4-13.5,6-20.1c-19.4,5.4-36.2,1-51.4-9.8c-10.4-7.4-20-16.1-30-24c-11.5-9.1-22.5-18.9-34.7-26.9
			c-22.7-14.8-47.2-16.5-71.9-5.7c-10.1,4.4-20,10-29.1,16.3c-26,17.9-47.3,40.9-67.6,64.8c-7.7,9.1-15.2,18.5-23,28
			c-0.5-2.2-0.9-4-1.3-5.7c-5-22.1-14.3-42.2-29.8-59c-23.9-26-54.5-35.2-88.8-34.6c-29.1,0.5-56.9,7.9-84,18
			c-38.3,14.3-74.1,33.7-108.8,55.1c-2.8,1.7-5.8,3.5-9,4.1c-3.7,0.7-4.4,2.6-4.7,5.7c-1,10.4-2.3,20.8-3.5,31.2
			c-9.7,0-18.9,0-28.6,0c-0.7,7-1.4,14.1-2.2,21.1c-5.5,52-11.1,104-16.6,156c-4.8,45.9-9.6,91.8-14.4,137.6
			c-6,56.6-11.4,113.3-18.3,169.9c-1.6,12.9,0.7,22.6,10.2,30.8c1.7,1.5,4.1,2.8,6.2,2.9c12.8,0.5,25.7,0.5,38.5,0.7
			c94.5,1.4,188.9,2.9,283.4,4.3c1.7,0,3.3,0,6.1,0c-2.2,1.7-3.2,2.6-4.3,3.4c-10.4,8.7-8.9,17.8,4,22.8c1.9,0.7,4.2,0.8,6.3,0.7
			c35.1-1,70.3-2.1,105.4-2.9c6.9-0.1,12.2-2.6,17.1-6.8C508.2,684.4,508.5,680.8,503.8,674.1z"/>
		<path class="st1" d="M503.8,674.1c4.7,6.8,4.3,10.3-1.3,15.2c-4.9,4.2-10.3,6.7-17.1,6.8c-35.2,0.7-70.3,1.9-105.4,2.9
			c-2.1,0.1-4.4,0-6.3-0.7c-12.9-5-14.4-14.1-4-22.8c1-0.9,2.1-1.7,4.3-3.4c-2.8,0-4.5,0-6.1,0c-94.5-1.4-188.9-2.9-283.4-4.3
			c-12.8-0.2-25.7-0.3-38.5-0.7c-2.1-0.1-4.5-1.5-6.2-2.9c-9.5-8.2-11.8-17.8-10.2-30.8c6.9-56.5,12.4-113.2,18.3-169.9
			c4.8-45.9,9.5-91.8,14.4-137.6c5.5-52,11.1-104,16.6-156c0.8-7.1,1.5-14.2,2.2-21.1c9.7,0,19,0,28.6,0c1.2-10.4,2.4-20.8,3.5-31.2
			c0.3-3.1,1-5.1,4.7-5.7c3.1-0.6,6.2-2.4,9-4.1c34.7-21.5,70.5-40.9,108.8-55.1c27.1-10.1,54.9-17.5,84-18
			c34.3-0.6,64.9,8.6,88.8,34.6c15.5,16.8,24.7,36.9,29.8,59c0.4,1.8,0.8,3.5,1.3,5.7c7.8-9.6,15.2-18.9,23-28
			c20.3-23.9,41.7-46.9,67.6-64.8C539,34.6,548.8,29,559,24.6c24.8-10.8,49.3-9.2,71.9,5.7c12.2,8,23.2,17.8,34.7,26.9
			c10,8,19.6,16.6,30,24c15.2,10.8,32,15.2,51.4,9.8c-2,6.6-3.8,12.6-6,20.1c2.2-1.8,3.4-2.8,5.2-4.3c2.7,19.7,5.4,39.1,8.2,59.4
			c8.4,0,16.9,0,25.8,0c1.3,10.9,2.5,21,3.7,31c3.9,32.9,7.8,65.8,11.6,98.7c3.8,32.4,7.6,64.8,11.4,97.2
			c3.8,32.7,7.7,65.5,11.6,98.2c3.8,32.4,7.6,64.8,11.4,97.2c2.5,21.3,5.1,42.7,7.4,64c0.3,2.3-0.6,5.2-1.9,7.2
			c-3.5,5.1-7.7,9.6-11.2,14.7c-2.3,3.5-5,4.4-9.1,4.3c-99.5-1.7-198.9-3.2-298.4-4.8C512.7,674,508.5,674.1,503.8,674.1z
			 M424.1,602.6c0-1.6,0-2.8,0-4.1c0-7.5,0-15,0-22.5c-0.1-135.5-0.3-271-0.5-406.4c0-2.6-0.2-5.5-1.3-7.7
			c-12.9-27.3-30.7-50.7-56.1-67.4c-35-23-73.5-26.5-113.7-19.8c-41.4,6.9-79.1,23.6-115.6,43.6c-1.1,0.6-2.7,1.7-2.7,2.5
			c0.1,4-2.7,5.5-5.4,7.2c-3.3,2-5.1,4.7-6,8.6c-15.6,68-27.5,136.6-38.7,205.4c-6.4,39.6-12.5,79.3-17.3,119.1
			c-4,32.9-6.2,66-8.3,99c-0.6,10,1.3,20.2,2.7,30.2c0.4,2.7,2.8,6.2,5.2,7.2c15.7,6.4,32,8.5,48.9,5.1c19-3.8,35.3-13.3,51.3-23.6
			c16.2-10.4,32.1-21.4,48.7-31.3c39.1-23.2,79.5-24.6,120.8-5.9c19.5,8.9,37.5,20.1,54.3,33.3C401.7,583.8,412.6,593.1,424.1,602.6
			z M454.2,601.4c2.7-1.8,4.3-2.8,5.9-3.9c27.3-18.3,55.9-34.1,87.4-44c39.9-12.5,79.2-12.2,118,4.6c20.4,8.9,38.6,21.4,57.3,33.2
			c11.5,7.3,23.3,14.2,35.5,20.1c14.9,7.2,30.5,7.7,45.8,0.5c7.6-3.6,7.6-3.7,6.4-11.9c-4.9-32.9-9.6-65.9-14.6-98.8
			c-6.1-40-12.2-79.9-18.5-119.9c-6.4-40.6-12.6-81.2-19.6-121.7c-7.5-43.9-15.7-87.7-23.8-131.6c-0.4-1.9-1.9-4.2-3.6-5.3
			c-19-12.6-39.3-23-61-30.3c-53-18-103.5-13.8-150.4,18.4c-29.8,20.5-52.3,47.6-70.4,78.6c-1.6,2.8-2.6,6.5-2.6,9.7
			c1.1,57.3,2.4,114.6,3.6,171.9c1.5,72.8,3,145.6,4.4,218.4C454.3,593,454.2,596.7,454.2,601.4z"/>
		<path class="st2" d="M424.1,602.6c-11.5-9.5-22.4-18.7-33.6-27.5c-16.8-13.1-34.8-24.4-54.3-33.3c-41.3-18.7-81.7-17.3-120.8,5.9
			c-16.6,9.8-32.5,20.8-48.7,31.3c-16,10.3-32.3,19.7-51.3,23.6c-16.9,3.4-33.2,1.3-48.9-5.1c-2.4-1-4.8-4.5-5.2-7.2
			c-1.4-10-3.4-20.2-2.7-30.2c2.1-33.1,4.4-66.1,8.3-99c4.8-39.8,10.8-79.5,17.3-119.1c11.2-68.8,23.1-137.4,38.7-205.4
			c0.9-3.9,2.7-6.6,6-8.6c2.6-1.6,5.5-3.2,5.4-7.2c0-0.8,1.6-1.9,2.7-2.5c36.5-19.9,74.2-36.6,115.6-43.6
			c40.2-6.7,78.7-3.2,113.7,19.8c25.5,16.7,43.2,40.2,56.1,67.4c1.1,2.3,1.3,5.1,1.3,7.7c0.2,135.5,0.3,271,0.5,406.4
			c0,7.5,0,15,0,22.5C424.1,599.7,424.1,601,424.1,602.6z"/>
		<path class="st2" d="M454.2,601.4c0-4.7,0.1-8.3,0-11.9c-1.5-72.8-2.9-145.6-4.4-218.4c-1.2-57.3-2.5-114.6-3.6-171.9
			c-0.1-3.3,1-6.9,2.6-9.7c18-31,40.6-58.1,70.4-78.6c46.9-32.2,97.4-36.4,150.4-18.4c21.7,7.3,41.9,17.7,61,30.3
			c1.7,1.1,3.2,3.4,3.6,5.3c8.1,43.8,16.3,87.6,23.8,131.6c6.9,40.5,13.2,81.1,19.6,121.7c6.3,39.9,12.4,79.9,18.5,119.9
			c5,32.9,9.7,65.8,14.6,98.8c1.2,8.2,1.2,8.4-6.4,11.9c-15.4,7.2-30.9,6.7-45.8-0.5c-12.2-5.9-24-12.9-35.5-20.1
			c-18.7-11.8-36.9-24.3-57.3-33.2c-38.7-16.8-78.1-17.1-118-4.6c-31.5,9.9-60.1,25.7-87.4,44C458.5,598.5,456.9,599.6,454.2,601.4z
			"/>
	</g>
</g>
</svg>
