<?xml version="1.0" encoding="utf-8"?>
<!-- Generator: Adobe Illustrator 19.2.0, SVG Export Plug-In . SVG Version: 6.00 Build 0)  -->
<svg version="1.1" id="Layer_1" xmlns="http://www.w3.org/2000/svg" xmlns:xlink="http://www.w3.org/1999/xlink" x="0px" y="0px"
	 viewBox="0 0 90 90" style="enable-background:new 0 0 90 90;" xml:space="preserve">
<style type="text/css">
	.st0{fill:#010101;}
	.st1{fill:#FDFDFD;}
	.st2{fill:#020202;}
	.st3{fill:#EC1D25;}
	.st4{fill:#FEFDFD;}
	.st5{fill:#FEFEFE;}
	.st6{fill:#030303;}
	.st7{fill:#FCFBFB;}
	.st8{fill:#F9F7F7;}
	.st9{fill:#020000;}
	.st10{fill:#080405;}
	.st11{fill:#3333FD;}
	.st12{fill:#FB0000;}
	.st13{fill:#FCFCFC;}
	.st14{fill:#FC0000;}
	.st15{fill:#FCFCFE;}
	.st16{fill:#F90000;}
	.st17{fill:none;stroke:#000000;stroke-miterlimit:10;}
	.st18{font-family:'MyriadPro-Regular';}
	.st19{font-size:9.5px;}
</style>
<g>
	<g>
		<path class="st0" d="M45,76.4c10.9,0,21.7,0,32.6,0c1.6,0,2.9-0.7,3.9-1.9c1.1-1.3,1.5-2.9,1.5-4.5c0-10.2,0-20.3,0-30.5
			c0-10.2,0-20.4,0-30.6c0-1.3-0.2-2.5-0.9-3.6c-1-1.8-2.4-2.9-4.5-2.9c-21.7,0-43.5,0-65.2,0c-1.5,0-2.8,0.6-3.8,1.7
			C7.5,5.5,7,7.1,7,8.9C7,29.2,7,49.6,7,70c0,1,0.1,1.9,0.5,2.8c0.9,2.5,2.7,3.7,5.4,3.7C23.6,76.4,34.3,76.4,45,76.4z"/>
		<path class="st1" d="M45,76.4c-10.7,0-21.4,0-32.2,0c-2.6,0-4.4-1.2-5.4-3.7C7.1,71.9,7,70.9,7,70C7,49.6,7,29.2,7,8.9
			c0-1.8,0.5-3.4,1.6-4.7c1-1.1,2.2-1.7,3.8-1.7c21.7,0,43.5,0,65.2,0c2.1,0,3.5,1.1,4.5,2.9C82.8,6.4,83,7.6,83,8.9
			c0,10.2,0,20.4,0,30.6c0,10.2,0,20.3,0,30.5c0,1.7-0.4,3.2-1.5,4.5c-1,1.2-2.3,1.9-3.9,1.9C66.7,76.4,55.8,76.4,45,76.4z
			 M68.2,36.1c-0.6-0.2-1.1-0.4-1.7-0.5c0,0,0,0,0-0.1c0.1-0.1,0.1-0.1,0.2-0.2c1.7-1.5,3.1-3.2,4.2-5.2c1.7-3.2,2.2-6.6,1.3-10.1
			c-0.7-2.9-2.3-5.4-4.3-7.6c-2.5-2.6-5.5-4.6-8.7-6.1c-5.4-2.5-11-3.6-16.9-3.8c-3.8-0.1-7.6,0.2-11.4,1c-4.4,1-8.6,2.5-12.4,5
			c-2.9,1.9-5.4,4.1-7.1,7C9,19.6,8.4,23.7,10,28.1c1.1,3,3,5.5,5.4,7.6c2.7,2.4,5.9,4.1,9.2,5.4c0.3,0.1,0.7,0.3,1.1,0.4
			c-3.3,6.3-8.4,10.2-15.4,11.6c0.8,0.1,1.6,0.1,2.4,0.2c3.2,0.1,6.4,0.1,9.6-0.3c1.9-0.2,3.8-0.5,5.6-1.2c0.5-0.2,1.1-0.4,1.6-0.6
			c0.1,2,0.4,3.2,1.1,4.6c1.2,2.6,3.1,4.6,5.5,6.3c3.6,2.6,7.6,4.1,11.8,5c2.6,0.5,5.2,0.8,7.8,0.8c0.1,0,0.3,0.1,0.4,0.1
			c0.7,0.6,1.4,1.4,2.2,1.9c2.9,2.1,6.2,3.2,9.6,3.9c2.2,0.4,4.5,0.7,6.8,0.8c0.8,0,1.5,0,2.2,0c0,0-0.1-0.1-0.2-0.1
			c-1.9-1.2-3.7-2.5-5.2-4.1c-0.8-0.8-1.5-1.6-1.9-2.6c-0.3-0.6-0.4-1.3-0.2-2c0.1-0.2,0.2-0.4,0.4-0.5c0.9-0.4,1.9-0.8,2.8-1.3
			c2.8-1.4,5.2-3.3,7.1-5.8c1.6-2.2,2.6-4.6,2.6-7.3c0-2.1-0.6-4.1-1.7-6c-1.3-2.3-3.2-4-5.3-5.5c0.4-0.3,0.8-0.7,1.3-1
			c0.8-0.6,1.5-1.1,2.3-1.7c-0.5-1.7-0.5-3.4-0.1-5.1c0.3-1.5,0.8-2.9,1.4-4.3c0.7-1.9,1.6-3.7,1.9-5.7c0.1-0.6,0.2-1.2,0.3-1.8
			c0,0-0.1,0-0.1,0c-0.7,0.6-1.3,1.2-2,1.8C77,25,74,28.6,71.2,32.3C70.2,33.5,69.2,34.8,68.2,36.1z"/>
		<path class="st2" d="M75.3,39.5c2.2,1.5,4,3.3,5.3,5.5c1.1,1.8,1.7,3.8,1.7,6c0,2.7-1,5.1-2.6,7.3c-1.9,2.5-4.4,4.3-7.1,5.8
			c-0.9,0.5-1.9,0.9-2.8,1.3c-0.2,0.1-0.4,0.2-0.4,0.5c-0.2,0.7,0,1.3,0.2,2c0.4,1,1.1,1.9,1.9,2.6c1.6,1.6,3.4,2.9,5.2,4.1
			c0.1,0.1,0.2,0.1,0.2,0.1c-0.7,0-1.5,0-2.2,0c-2.3-0.1-4.5-0.4-6.8-0.8c-3.5-0.7-6.7-1.8-9.6-3.9c-0.8-0.6-1.5-1.3-2.2-1.9
			c-0.1-0.1-0.2-0.1-0.4-0.1c-2.6,0-5.2-0.3-7.8-0.8c-4.3-0.9-8.3-2.4-11.8-5c-2.3-1.7-4.2-3.7-5.5-6.3c-0.7-1.5-1-2.7-1.1-4.6
			c-0.5,0.2-1.1,0.4-1.6,0.6c-1.8,0.6-3.7,0.9-5.6,1.2c-3.2,0.4-6.4,0.4-9.6,0.3c-0.8,0-1.6-0.1-2.4-0.2c7-1.4,12.1-5.2,15.4-11.6
			c-0.4-0.1-0.7-0.3-1.1-0.4c-3.4-1.3-6.5-3-9.2-5.4c-2.4-2.1-4.3-4.5-5.4-7.6c-1.6-4.4-1-8.5,1.4-12.5c1.8-2.9,4.3-5.2,7.1-7
			c3.8-2.4,8-4,12.4-5c3.8-0.8,7.6-1.1,11.4-1c5.9,0.2,11.6,1.3,16.9,3.8c3.3,1.5,6.3,3.4,8.7,6.1c2.1,2.2,3.6,4.6,4.3,7.6
			c0.9,3.5,0.3,6.9-1.3,10.1c-1.1,2-2.5,3.7-4.2,5.2c-0.1,0.1-0.1,0.1-0.2,0.2c0,0,0,0,0,0.1c0.6,0.2,1.1,0.4,1.7,0.5
			c-0.4,0.5-0.8,1.1-1.2,1.6c-0.7-0.2-1.4-0.4-2.1-0.6c-0.1,0-0.3,0-0.4,0.1c-3,2.1-6.2,3.6-9.6,4.7c-0.2-0.6-0.5-1.2-0.7-1.8
			c3.1-1,5.9-2.3,8.6-4.1c2.5-1.7,4.7-3.7,6.2-6.3c1.5-2.6,2.2-5.5,1.6-8.5c-0.4-2.4-1.5-4.4-3-6.3c-2.1-2.5-4.6-4.5-7.5-6
			c-5.3-2.8-11-4.1-16.9-4.4c-3.9-0.2-7.8,0.1-11.7,0.9c-4,0.9-7.8,2.2-11.3,4.4c-2.7,1.7-5.1,3.7-6.8,6.4
			c-2.2,3.3-2.8,6.9-1.6,10.7c0.9,2.8,2.6,5,4.8,7c2.9,2.6,6.2,4.4,9.8,5.7c0.5,0.2,0.8,0.4,0.7,0.9c0,0.5,0.2,1-0.1,1.6
			c-2.1,4.1-5.1,7.4-9.2,9.7c-0.1,0-0.1,0.1-0.2,0.2c2.1-0.1,4.2-0.2,6.3-0.5c2.4-0.4,4.7-1,6.7-2.2c2.8-1.6,5.2-3.7,7.4-6.1
			c0,0,0-0.1,0-0.1c-0.1,0-0.2,0-0.3-0.1c0.4-0.4,0.8-0.7,1.2-1c0.1-0.1,0.3-0.1,0.4-0.1c0.5,0,1,0.2,1.5,0.2
			c1.8-0.1,3.7-0.1,5.5-0.3c1.3-0.1,2.7-0.4,4-0.6c-0.4,0.7-0.7,1.4-1.1,2.1c-3.3,0.6-6.6,0.8-10,0.7c-0.2,0-0.4,0.1-0.5,0.2
			c-2.1,2.3-4.4,4.3-7,5.9c-0.1,0.1-0.2,0.2-0.2,0.4c0,0.8,0,1.5,0.1,2.3c0.4,2.2,1.5,4,2.9,5.6c2.1,2.3,4.7,3.8,7.5,5
			c4.1,1.7,8.4,2.5,12.9,2.7c0.4,0,0.9-0.1,1.3,0.1c0.4,0.2,0.6,0.6,0.9,0.9c0.5,0.6,1,1.2,1.6,1.7c1.4,1.1,2.9,1.8,4.5,2.5
			c2.6,1,5.3,1.5,8.1,1.9c0.3,0,0.7,0,1,0.1c0,0,0,0,0,0c0,0,0,0,0,0c0,0,0,0,0,0c-0.2-0.2-0.5-0.4-0.7-0.7c-1.1-1-2.2-2.1-3-3.4
			c-0.6-1-0.9-2-0.7-3.2c0.1-0.8,0.6-1.5,0.9-2.2c0,0,0.1-0.1,0.1-0.1c0.9-0.4,1.8-0.7,2.6-1.2c2.4-1.3,4.6-2.9,6.3-5
			c1.2-1.6,2.1-3.3,2.3-5.4c0.3-2.3-0.4-4.4-1.6-6.3c-1.3-2-3-3.6-5-4.9C74.3,40.4,74.8,40,75.3,39.5z"/>
		<path class="st3" d="M49.2,43.2c0.4-0.7,0.7-1.4,1.1-2.1c0.8-1.6,1.6-3.2,2.4-4.8c0.1,0.2,0.1,0.3,0.2,0.4
			c0.4,1.1,0.9,2.3,1.3,3.4c0.2,0.6,0.5,1.2,0.7,1.8c0.1,0.4,0.3,0.8,0.4,1.1c0.5,1.4,1.1,2.8,1.6,4.2c0.1,0.3,0.2,0.6,0.3,0.9
			c0.3,0.9,0.6,1.7,1,2.6c0.3-0.4,0.5-0.8,0.8-1.2c0.3-0.5,0.6-1,0.9-1.5c0.2-0.3,0.4-0.6,0.6-0.9c0-0.1,0.1-0.1,0.1-0.2
			c2.1-3.1,4.2-6.1,6.4-9.2c0-0.1,0.1-0.2,0.1-0.2c0.4-0.5,0.8-1.1,1.2-1.6c1-1.3,1.9-2.6,2.9-3.8C74,28.6,77,25,80.3,21.8
			c0.6-0.6,1.3-1.2,2-1.8c0,0,0.1,0,0.1,0c-0.1,0.6-0.1,1.2-0.3,1.8c-0.4,2-1.2,3.8-1.9,5.7c-0.6,1.4-1.1,2.8-1.4,4.3
			c-0.3,1.7-0.3,3.4,0.1,5.1c-0.8,0.6-1.5,1.1-2.3,1.7c-0.4,0.3-0.9,0.6-1.3,1c-0.5,0.4-1.1,0.8-1.6,1.2c0,0-0.1,0.1-0.1,0.1
			c-2.5,2-4.9,4.2-7,6.6c-0.8,1-1.6,2-2.4,3c-0.3,0.4-0.6,0.9-0.9,1.3c-0.1,0.1-0.1,0.1-0.2,0.2c-2.1,3.3-3.5,6.8-4.7,10.5
			c-0.1,0.3-0.2,0.6-0.3,0.9c-0.2-0.3-0.3-0.6-0.4-0.9c0,0,0-0.1,0-0.1c-1.1-2.3-1.9-4.6-2.7-7c-0.6-1.7-1.2-3.4-2.1-4.9
			c-0.5-0.9-1.1-1.8-1.9-2.4c-0.4-0.3-0.8-0.6-1.1-0.9c-0.6-0.4-1.3-0.7-2-1.1C48.3,45.2,48.8,44.2,49.2,43.2z"/>
		<path class="st1" d="M54.1,40.1c-0.4-1.1-0.9-2.3-1.3-3.4c0-0.1-0.1-0.2-0.2-0.4c-0.8,1.6-1.6,3.2-2.4,4.8c-1.3,0.2-2.6,0.5-4,0.6
			c-1.8,0.2-3.7,0.2-5.5,0.3c-0.5,0-1-0.1-1.5-0.2c-0.1,0-0.3,0-0.4,0.1c-0.4,0.3-0.8,0.6-1.2,1c0.1,0,0.2,0,0.3,0.1
			c0,0,0,0.1,0,0.1c-2.2,2.4-4.6,4.5-7.4,6.1c-2.1,1.2-4.4,1.9-6.7,2.2c-2.1,0.3-4.1,0.5-6.3,0.5c0.1-0.1,0.2-0.1,0.2-0.2
			c4.1-2.3,7.1-5.6,9.2-9.7c0.3-0.6,0-1,0.1-1.6c0-0.5-0.2-0.7-0.7-0.9c-3.6-1.3-7-3.1-9.8-5.7c-2.2-1.9-3.9-4.2-4.8-7
			c-1.2-3.8-0.5-7.4,1.6-10.7c1.7-2.7,4.1-4.7,6.8-6.4c3.5-2.2,7.3-3.5,11.3-4.4c3.8-0.8,7.7-1.1,11.7-0.9
			c5.9,0.3,11.6,1.6,16.9,4.4c2.9,1.5,5.5,3.4,7.5,6c1.5,1.9,2.6,3.9,3,6.3c0.5,3-0.1,5.9-1.6,8.5c-1.5,2.6-3.7,4.6-6.2,6.3
			C60.1,37.8,57.2,39.1,54.1,40.1z M28,28.7c-0.8,0.2-1.7,0.3-2.5,0.5c-1.6,0.4-3.2,0.8-4.7,1.5c-0.3,0.1-0.5,0.3-0.8,0.5
			c-0.3,0.2-0.3,0.4,0,0.7c0.2,0.2,0.5,0.4,0.8,0.5c0.9,0.4,1.8,0.8,2.8,1.1c5.1,1.6,10.4,2.3,15.8,2.4c5,0.1,9.9-0.3,14.7-1.4
			c1.8-0.4,3.7-0.9,5.4-1.6c0.6-0.2,1.1-0.5,1.6-0.9c0.5-0.3,0.5-0.6,0-0.9c-0.3-0.2-0.7-0.4-1.1-0.6C58,29.8,56,29.4,54,29
			c-0.3-0.1-0.4-0.1-0.4-0.4c-0.1-2-0.3-4-0.5-6.1c0-0.4-0.2-0.7-0.3-1c-0.4-4.2-0.8-8.4-1.2-12.7c0-0.1,0-0.2,0-0.3
			c0.1-0.4,0.1-0.6-0.3-0.7c-0.5-0.2-1-0.4-1.5-0.6c-1.8-0.4-3.6-0.6-5.5-0.7c-4-0.2-7.9-0.2-11.8,0.4c-0.9,0.1-1.8,0.4-2.8,0.7
			c-0.4,0.1-0.7,0.4-0.7,0.9c0,2.1-0.2,4.2-0.3,6.3c-0.2,3.3-0.4,6.6-0.6,9.9C28.1,26,28.1,27.4,28,28.7z"/>
		<path class="st4" d="M49.2,43.2c-0.5,1-1,2-1.4,2.9c0.7,0.4,1.3,0.7,2,1.1c-0.7,0-1.3,0-2,0c0,5.4,0,10.8,0,16.2
			c5.5,0,10.9,0,16.3,0c0-0.1,0-0.2,0-0.2c0-4.2,0-8.3,0-12.5c0-0.1,0-0.2,0-0.2c0.8-1,1.6-2.1,2.4-3c2.1-2.4,4.5-4.6,7-6.6
			c0,0,0.1-0.1,0.1-0.1c2,1.3,3.8,2.9,5,4.9c1.2,1.9,1.8,4,1.6,6.3c-0.2,2-1.1,3.8-2.3,5.4c-1.7,2.2-3.9,3.8-6.3,5
			c-0.9,0.4-1.8,0.8-2.6,1.2c-0.1,0-0.1,0.1-0.1,0.1c-0.3,0.7-0.8,1.4-0.9,2.2C67.8,67,68.2,68,68.7,69c0.8,1.3,1.8,2.4,3,3.4
			c0.2,0.2,0.5,0.4,0.7,0.7l0,0c-0.3,0-0.7,0-1-0.1c-2.8-0.3-5.5-0.8-8.1-1.9c-1.6-0.6-3.2-1.4-4.5-2.5c-0.6-0.5-1.1-1.1-1.6-1.7
			c-0.3-0.3-0.5-0.8-0.9-0.9c-0.4-0.2-0.9-0.1-1.3-0.1c-4.5-0.1-8.8-0.9-12.9-2.7c-2.8-1.2-5.4-2.8-7.5-5c-1.5-1.6-2.6-3.4-2.9-5.6
			c-0.1-0.7-0.1-1.5-0.1-2.3c0-0.1,0.1-0.3,0.2-0.4c2.6-1.6,4.9-3.6,7-5.9c0.2-0.2,0.3-0.2,0.5-0.2C42.6,44,45.9,43.8,49.2,43.2z"/>
		<path class="st1" d="M67,37.7c0,0.1-0.1,0.2-0.1,0.2c-2.1,3.1-4.2,6.1-6.4,9.2c0,0.1-0.1,0.1-0.1,0.2c-1.2,0-2.4,0-3.6,0
			c-0.5-1.4-1.1-2.8-1.6-4.2c-0.1-0.4-0.3-0.8-0.4-1.1c3.4-1.1,6.7-2.6,9.6-4.7c0.1-0.1,0.3-0.1,0.4-0.1
			C65.6,37.3,66.3,37.5,67,37.7z"/>
		<path class="st4" d="M72.4,73.1C72.4,73.1,72.4,73.1,72.4,73.1C72.4,73.1,72.4,73.1,72.4,73.1C72.4,73.1,72.4,73.1,72.4,73.1
			L72.4,73.1z"/>
		<path class="st5" d="M50.9,48.1c0.8,0.7,1.4,1.5,1.9,2.4c0.9,1.6,1.5,3.2,2.1,4.9c0.8,2.4,1.6,4.7,2.7,7c0,0,0,0.1,0,0.1
			c-3,0-5.9,0-8.9,0c0-4.8,0-9.6,0-14.4C49.5,48.1,50.2,48.1,50.9,48.1z"/>
		<path class="st6" d="M50.9,48.1c-0.7,0-1.5,0-2.2,0c0,4.8,0,9.6,0,14.4c3,0,5.9,0,8.9,0c0.1,0.3,0.3,0.5,0.4,0.9
			c0.1-0.3,0.2-0.6,0.3-0.9c1.6,0,3.3,0,4.9,0c0-3.6,0-7.2,0-10.7c0.3-0.4,0.6-0.9,0.9-1.3c0,0.1,0,0.2,0,0.2c0,4.2,0,8.3,0,12.5
			c0,0.1,0,0.1,0,0.2c-5.5,0-10.9,0-16.3,0c0-5.4,0-10.8,0-16.2c0.7,0,1.3,0,2,0C50.2,47.5,50.5,47.8,50.9,48.1z"/>
		<path class="st7" d="M63.3,51.8c0,3.6,0,7.1,0,10.7c-1.7,0-3.3,0-4.9,0c1.2-3.7,2.6-7.2,4.7-10.5C63.1,52,63.2,51.9,63.3,51.8z"/>
		<path class="st8" d="M59.8,48.1c-0.3,0.5-0.6,1-0.9,1.5c-0.2,0.4-0.5,0.7-0.8,1.2c-0.3-0.9-0.7-1.8-1-2.6
			C58,48.1,58.9,48.1,59.8,48.1z"/>
		<path class="st9" d="M59.8,48.1c-0.9,0-1.8,0-2.7,0c-0.1-0.3-0.2-0.6-0.3-0.9c1.2,0,2.4,0,3.6,0C60.2,47.6,60,47.8,59.8,48.1z"/>
		<path class="st10" d="M28,28.7c0.1-1.4,0.1-2.7,0.2-4.1c0.2-3.3,0.4-6.6,0.6-9.9c0.1-2.1,0.3-4.2,0.3-6.3c0-0.6,0.3-0.8,0.7-0.9
			c0.9-0.3,1.8-0.5,2.8-0.7c3.9-0.6,7.9-0.6,11.8-0.4c1.8,0.1,3.7,0.3,5.5,0.7c0.5,0.1,1.1,0.3,1.5,0.6c0.4,0.2,0.4,0.3,0.3,0.7
			c0,0.1,0,0.2,0,0.3c0.4,4.2,0.8,8.4,1.2,12.7c0,0.4,0.2,0.7,0.3,1c0.2,2,0.3,4,0.5,6.1c0,0.3,0.1,0.4,0.4,0.4c2,0.4,4,0.9,5.9,1.6
			c0.4,0.2,0.7,0.3,1.1,0.6c0.5,0.3,0.5,0.6,0,0.9c-0.5,0.3-1,0.6-1.6,0.9c-1.7,0.7-3.6,1.2-5.4,1.6c-4.8,1.1-9.8,1.5-14.7,1.4
			c-5.4-0.2-10.6-0.8-15.8-2.4c-0.9-0.3-1.9-0.7-2.8-1.1c-0.3-0.1-0.5-0.3-0.8-0.5c-0.3-0.2-0.3-0.4,0-0.7c0.2-0.2,0.5-0.3,0.8-0.5
			c1.5-0.7,3.1-1.1,4.7-1.5C26.3,29.1,27.1,28.9,28,28.7z M40.5,23.9c-1.1,0-2.2-0.1-3.3-0.1c-2.5-0.1-5-0.5-7.5-1
			c-0.2,0-0.3-0.1-0.5-0.1c0,0.3,0,0.6-0.1,0.9c-0.2,2.2-0.3,4.4-0.5,6.6c0,0.3,0,0.4,0.3,0.4c3.3,1,6.7,1.6,10.2,1.7
			c2.9,0.1,5.7-0.1,8.6-0.5c1.7-0.3,3.4-0.7,5-1c0.2,0,0.3-0.1,0.3-0.3c-0.1-1.9-0.3-3.7-0.4-5.6c0-0.7-0.1-1.4-0.2-2.1
			c-0.2,0-0.3,0.1-0.5,0.1c-2.5,0.5-5,0.9-7.6,1.1c-1.1,0.1-2.2,0.1-3.3,0.1c-0.1-0.1-0.2-0.2-0.2-0.3
			C40.7,23.7,40.6,23.8,40.5,23.9z M20.7,31.6c0.2,0.1,0.3,0.2,0.4,0.2c0.8,0.3,1.6,0.7,2.4,1c3.7,1.2,7.5,1.8,11.4,2.2
			c3,0.3,5.9,0.4,8.9,0.2c3.3-0.2,6.5-0.6,9.8-1.3c2.1-0.5,4.1-1,6-1.9c0.3-0.1,0.5-0.3,0.8-0.4c-2.2-1.1-4.5-1.5-6.7-2
			c0,0.3,0,0.6,0,0.8c0,0.1,0,0.1,0,0.2c0.1,0.5,0.1,0.5-0.5,0.7c0,0-0.1,0-0.1,0c-2.8,0.8-5.7,1.3-8.6,1.5
			c-4.8,0.4-9.5,0.1-14.2-1.1c-0.9-0.2-1.8-0.5-2.6-0.8c0.1-0.5,0.1-0.9,0.2-1.4C25.5,30,23.1,30.5,20.7,31.6z M48.8,22.6
			c-0.1-4.4-0.3-8.7-0.4-13.1c-1.6,0.2-3.1,0.3-4.6,0.4c0,4.3,0.1,8.7,0.1,13.1C45.6,22.9,47.2,22.8,48.8,22.6z M33.8,9.7
			c-0.2,4.3-0.4,8.6-0.6,13c1.4,0.1,2.9,0.3,4.3,0.4c0.1-4.4,0.3-8.7,0.4-13.1C36.6,9.9,35.2,9.8,33.8,9.7z M39.1,10.2
			c0,0.4,0,0.7,0,1.1c-0.1,3.8-0.3,7.7-0.4,11.5c0,0.2,0,0.3,0.3,0.3c1.2,0,2.4,0,3.6,0c0.1,0,0.2,0,0.3,0
			c-0.1-4.3-0.2-8.6-0.3-12.9C41.4,10.2,40.3,10.2,39.1,10.2z M29.8,8.9c0,0.3,0,0.6-0.1,0.9c-0.1,1.8-0.2,3.6-0.3,5.3
			c-0.1,2.1-0.2,4.3-0.4,6.4c0,0.2,0,0.3,0.3,0.3c0.7,0.1,1.4,0.3,2.1,0.4c0.2,0,0.4,0.1,0.6,0.1c0.2-4.3,0.5-8.6,0.7-12.8
			C31.8,9.4,30.9,9.2,29.8,8.9z M30.2,8.1c0,0,0,0.1,0,0.1c0.3,0.1,0.6,0.2,0.9,0.3c2.3,0.5,4.6,0.7,6.9,0.8c3,0.1,6.1,0.1,9.1-0.3
			c1.1-0.1,2.2-0.4,3.3-0.6c0.1,0,0.2-0.1,0.4-0.1c-0.1-0.1-0.2-0.1-0.2-0.1c-0.3-0.1-0.6-0.2-1-0.3c-2-0.4-4-0.6-6-0.7
			C39.7,7,35.9,7.1,32.1,7.7C31.5,7.8,30.8,8,30.2,8.1z M50.9,9.1c-0.5,0.2-0.9,0.4-1.3,0.5c-0.2,0.1-0.2,0.2-0.2,0.4
			c0,3.7,0.1,7.4,0.1,11.1c0,0.4,0,0.8,0.1,1.3c0.9-0.2,1.7-0.3,2.6-0.5C51.7,17.7,51.3,13.4,50.9,9.1z"/>
		<path class="st11" d="M41,23.9c1.1,0,2.2-0.1,3.3-0.1c2.5-0.1,5.1-0.5,7.6-1.1c0.1,0,0.3-0.1,0.5-0.1c0.1,0.7,0.1,1.4,0.2,2.1
			c0.1,1.9,0.2,3.7,0.4,5.6c0,0.3-0.1,0.3-0.3,0.3c-1.7,0.4-3.4,0.8-5,1c-2.8,0.5-5.7,0.6-8.6,0.5c-3.5-0.1-6.9-0.6-10.2-1.7
			c-0.2-0.1-0.3-0.2-0.3-0.4c0.2-2.2,0.3-4.4,0.5-6.6c0-0.3,0-0.6,0.1-0.9c0.2,0,0.4,0.1,0.5,0.1c2.5,0.5,5,0.9,7.5,1
			c1.1,0.1,2.2,0.1,3.3,0.1c-0.5,0.7-1,1.4-1.5,2.1c-0.1,0.2-0.3,0.3-0.5,0.3c-0.9,0-1.9,0-2.8,0c-0.1,0-0.2,0-0.3,0
			c0.1,0.1,0.2,0.2,0.3,0.2c0.8,0.6,1.5,1.3,2.3,1.9c0.2,0.2,0.2,0.3,0.1,0.5c-0.4,0.8-0.7,1.5-1,2.3c0,0.1-0.1,0.2-0.1,0.3
			c0.2-0.1,0.3-0.1,0.4-0.1c1.1-0.4,2.2-0.8,3.2-1.2c0.1,0,0.3,0,0.5,0c1.1,0.4,2.2,0.9,3.4,1.4c0.1,0,0.2,0.1,0.3,0.1
			c-0.4-1-0.8-1.9-1.1-2.9c-0.1-0.2,0-0.3,0.1-0.4c0.8-0.6,1.5-1.2,2.3-1.8c0.1,0,0.1-0.1,0.2-0.2c-0.2,0-0.3,0-0.4,0
			c-1-0.1-1.9-0.1-2.9-0.2c-0.1,0-0.3-0.1-0.3-0.2C42,25.4,41.5,24.6,41,23.9z"/>
		<path class="st12" d="M20.7,31.6c2.3-1.1,4.7-1.6,7.2-2.1c-0.1,0.5-0.1,0.9-0.2,1.4c0.9,0.3,1.7,0.5,2.6,0.8
			c4.7,1.2,9.4,1.5,14.2,1.1c2.9-0.3,5.8-0.7,8.6-1.5c0,0,0.1,0,0.1,0c0.5-0.1,0.5-0.1,0.5-0.7c0-0.1,0-0.1,0-0.2c0-0.2,0-0.5,0-0.8
			c2.3,0.5,4.5,1,6.7,2c-0.3,0.2-0.6,0.3-0.8,0.4c-1.9,0.9-4,1.4-6,1.9c-3.2,0.7-6.5,1.1-9.8,1.3c-3,0.1-6,0.1-8.9-0.2
			c-3.9-0.4-7.7-1-11.4-2.2c-0.8-0.3-1.6-0.6-2.4-1C21,31.8,20.9,31.7,20.7,31.6z"/>
		<path class="st13" d="M48.8,22.6c-1.6,0.2-3.2,0.3-4.9,0.5c0-4.4-0.1-8.8-0.1-13.1c1.6-0.2,3.1-0.3,4.6-0.4
			C48.6,13.9,48.7,18.2,48.8,22.6z"/>
		<path class="st13" d="M33.8,9.7c1.4,0.1,2.8,0.2,4.2,0.3c-0.1,4.3-0.3,8.7-0.4,13.1c-1.5-0.1-2.9-0.3-4.3-0.4
			C33.4,18.3,33.6,14,33.8,9.7z"/>
		<path class="st14" d="M39.1,10.2c1.2,0,2.3,0,3.5,0c0.1,4.3,0.2,8.6,0.3,12.9c-0.1,0-0.2,0-0.3,0c-1.2,0-2.4,0-3.6,0
			c-0.3,0-0.3-0.1-0.3-0.3c0.1-3.8,0.3-7.7,0.4-11.5C39.1,10.9,39.1,10.6,39.1,10.2z"/>
		<path class="st12" d="M29.8,8.9c1,0.2,2,0.4,3,0.7c-0.2,4.3-0.5,8.5-0.7,12.8c-0.2,0-0.4,0-0.6-0.1c-0.7-0.1-1.4-0.3-2.1-0.4
			c-0.2,0-0.3-0.1-0.3-0.3c0.1-2.1,0.2-4.3,0.4-6.4c0.1-1.8,0.2-3.6,0.3-5.3C29.8,9.6,29.8,9.3,29.8,8.9z"/>
		<path class="st15" d="M41,23.9c0.5,0.7,1,1.5,1.5,2.2c0.1,0.1,0.2,0.1,0.3,0.2c1,0.1,1.9,0.1,2.9,0.2c0.1,0,0.2,0,0.4,0
			c-0.1,0.1-0.1,0.1-0.2,0.2c-0.8,0.6-1.5,1.2-2.3,1.8c-0.2,0.1-0.2,0.2-0.1,0.4c0.4,0.9,0.8,1.9,1.1,2.9c-0.1,0-0.2-0.1-0.3-0.1
			c-1.1-0.5-2.2-0.9-3.4-1.4c-0.1-0.1-0.3-0.1-0.5,0c-1.1,0.4-2.2,0.8-3.2,1.2c-0.1,0-0.2,0.1-0.4,0.1c0.1-0.1,0.1-0.2,0.1-0.3
			c0.3-0.8,0.7-1.5,1-2.3c0.1-0.2,0.1-0.4-0.1-0.5c-0.8-0.6-1.5-1.2-2.3-1.9c-0.1-0.1-0.1-0.1-0.3-0.2c0.1,0,0.2,0,0.3,0
			c0.9,0,1.9,0,2.8,0c0.2,0,0.4-0.1,0.5-0.3c0.5-0.7,1-1.4,1.5-2.1c0.1-0.1,0.2-0.2,0.3-0.3C40.9,23.7,41,23.8,41,23.9z"/>
		<path class="st16" d="M30.2,8.1c0.6-0.1,1.3-0.3,1.9-0.4c3.8-0.6,7.6-0.7,11.4-0.5c2,0.1,4,0.3,6,0.7c0.3,0.1,0.6,0.2,1,0.3
			c0.1,0,0.1,0,0.2,0.1c-0.2,0.1-0.3,0.1-0.4,0.1c-1.1,0.2-2.2,0.5-3.3,0.6c-3,0.4-6,0.4-9.1,0.3c-2.3-0.1-4.6-0.2-6.9-0.8
			c-0.3-0.1-0.6-0.2-0.9-0.3C30.2,8.2,30.2,8.2,30.2,8.1z"/>
		<path class="st12" d="M50.9,9.1c0.4,4.3,0.8,8.5,1.2,12.8c-0.8,0.2-1.7,0.3-2.6,0.5c0-0.4-0.1-0.9-0.1-1.3c0-3.7-0.1-7.4-0.1-11.1
			c0-0.2,0.1-0.3,0.2-0.4C50.1,9.5,50.5,9.3,50.9,9.1z"/>
	</g>
</g>
<g>
	<g>
		<g>
			<path class="st17" d="M75.9,77H14.1C10.2,77,7,73.9,7,70V9.4c0-3.8,3.2-7,7.1-7h61.8c3.9,0,7.1,3.1,7.1,7V70
				C83,73.9,79.8,77,75.9,77z"/>
		</g>
		<text transform="matrix(1 0 0 1 7.6628 87.4604)" class="st18 st19">Political Dictionary</text>
	</g>
</g>
</svg>
