<?xml version="1.0" encoding="utf-8"?>
<!-- Generator: Adobe Illustrator 19.2.0, SVG Export Plug-In . SVG Version: 6.00 Build 0)  -->
<svg version="1.1" id="Politician_Info_2_xA0_Image_1_"
	 xmlns="http://www.w3.org/2000/svg" xmlns:xlink="http://www.w3.org/1999/xlink" x="0px" y="0px" viewBox="0 0 864 720"
	 style="enable-background:new 0 0 864 720;" xml:space="preserve">
<style type="text/css">
	.st0{display:none;fill:#CBCBFE;}
	.st1{fill:#030102;}
	.st2{fill:#3333FD;}
	.st3{fill:#FD0000;}
	.st4{fill:#FDFDFD;}
</style>
<g>
	<g>
		<path class="st0" d="M1,721C1,481,1,241,1,1c288,0,576,0,864,0c0,240,0,480,0,720C577,721,289,721,1,721z M183.3,516.5
			c-13.2,2.9-25.8,5.5-38.4,8.5c-33.2,8-66.1,16.8-97.2,31.1c-7.5,3.4-14.8,7.7-21.5,12.5c-8.4,6.1-8.3,11.1-0.3,17.5
			c4.6,3.7,9.6,7.4,15,9.7c20.6,8.7,41.1,18.1,62.4,24.9c86.9,27.7,176.4,41.4,267.2,47.1c54.8,3.4,109.6,2.8,164.3-1.7
			c58-4.7,115.4-13.3,171.9-27.1c37.4-9.1,74.2-19.7,109.1-36.2c9.7-4.6,18.9-10.4,27.5-16.9c8-6,7.6-11.3-0.6-17.2
			c-6.9-4.9-14.3-9.2-22-12.7c-30.2-13.8-62.2-22.3-94.3-30.2c-10.3-2.5-20.7-4.7-30.9-7.1c-1.9-28.5-3.5-56.6-5.7-84.6
			c-1.6-20.2-3.8-40.5-6-60.6c-0.4-3.2-3.4-6.1-3.8-9.2c-1.9-17.9-3.4-35.8-5-53.7c-3.1-35.2-6.2-70.3-9.4-105.5
			c-3.5-38.6-7.1-77.3-10.5-115.9c-0.2-1.8,0.3-4,1.3-5.5c2.7-4.4,1.7-8.2-1.7-11.2c-3.1-2.7-6.6-5.2-10.4-6.7
			c-8.5-3.3-17.1-6.6-25.9-8.7c-44.2-10.8-89.4-14-134.7-16c-45.7-2-91.3-1.4-136.9,1.8c-31.6,2.2-63,5.4-94,12.2
			c-13.6,3-27.3,6.2-39.5,13.5c-5.6,3.3-10.1,7.3-7.5,14.9c0.4,1.2,0,2.6-0.1,4c-1.9,35.6-3.8,71.2-5.6,106.8
			c-2.1,41.4-4.2,82.9-6.4,124.3c-2.6,49.8-5.2,99.5-7.8,149.3C185.1,483.9,184.2,500.1,183.3,516.5z"/>
		<path class="st1" d="M183.3,516.5c0.9-16.5,1.8-32.6,2.6-48.7c2.6-49.8,5.2-99.5,7.8-149.3c2.1-41.4,4.2-82.9,6.4-124.3
			c1.8-35.6,3.8-71.2,5.6-106.8c0.1-1.3,0.5-2.8,0.1-4c-2.6-7.6,2-11.6,7.5-14.9c12.2-7.2,25.8-10.5,39.5-13.5
			c31-6.8,62.4-10,94-12.2c45.6-3.2,91.2-3.8,136.9-1.8c45.3,2,90.5,5.2,134.7,16c8.8,2.2,17.4,5.4,25.9,8.7c3.8,1.5,7.3,4,10.4,6.7
			c3.5,3,4.4,6.8,1.7,11.2c-0.9,1.5-1.4,3.7-1.3,5.5c3.4,38.7,7,77.3,10.5,115.9c3.2,35.2,6.2,70.3,9.4,105.5
			c1.6,17.9,3.1,35.8,5,53.7c0.3,3.2,3.4,6.1,3.8,9.2c2.3,20.2,4.4,40.4,6,60.6c2.2,28.1,3.8,56.2,5.7,84.6
			c10.3,2.3,20.6,4.6,30.9,7.1c32.2,7.8,64.1,16.4,94.3,30.2c7.7,3.5,15.1,7.8,22,12.7c8.2,5.8,8.5,11.2,0.6,17.2
			c-8.6,6.4-17.9,12.3-27.5,16.9c-34.8,16.5-71.7,27.1-109.1,36.2c-56.6,13.8-113.9,22.4-171.9,27.1c-54.7,4.5-109.5,5.1-164.3,1.7
			c-90.8-5.7-180.3-19.4-267.2-47.1c-21.3-6.8-41.8-16.2-62.4-24.9c-5.4-2.3-10.4-6-15-9.7c-8-6.5-8.1-11.4,0.3-17.5
			c6.7-4.8,14-9.1,21.5-12.5c31.1-14.3,64-23.1,97.2-31.1C157.5,522,170.2,519.4,183.3,516.5z M434,412.9c-26.6-1.2-53.3-2-79.8-3.8
			c-40.7-2.7-81.1-8.6-121-16.9c-8.6-1.8-17.1-3.7-25.9-5.6c-1.4,24.5-2.6,48.5-4.2,72.4c-2,29.6-4.4,59.1-6.9,88.6
			c-0.3,3.8,0.6,5.4,4.3,6.7c68.1,23.2,138.4,34.6,210.2,36.6c41.5,1.2,82.9-0.8,124.2-5.7c48.2-5.7,95.6-14.8,142.3-28.2
			c4.1-1.2,5.5-2.8,5.2-7.1c-2.9-43.9-5.5-87.8-8.4-131.6c-0.7-10.7-2-21.4-3.1-32.6c-2.2,0.4-3.8,0.7-5.3,1.1
			c-56.8,13.4-114.4,21.7-172.8,24.4c-16.3,0.8-32.6,1.2-48.9,1.8c-1.5-2.1-3-4.2-4.7-6.5C437.1,408.8,435.6,410.8,434,412.9z
			 M697.2,534.7c0,6.6-0.3,12.3,0.1,17.9c0.8,13.6,1,13.7-12,17.5c-63.1,18.8-127.6,29.6-193.3,34.1c-44.6,3-89.2,2.7-133.8-1.5
			c-49.3-4.6-97.8-13.8-145.1-28.7c-11.5-3.6-22.9-7.6-34.1-11.4c1.2-10.4,2.4-20,3.5-29.8c-31.3,1.6-125.6,31.4-142.7,44.8
			c0.5,0.5,0.9,1,1.4,1.3c4.4,2.4,8.7,5,13.2,7.1c26.2,12.5,53.8,21.3,81.7,29c92.2,25.3,186.2,37.4,281.6,39.7
			c62.7,1.5,125.1-2.7,187.3-11.5c51.1-7.3,101.6-17.8,150.9-33.3c22.7-7.2,45.1-15.3,66-26.8c2.7-1.5,5.2-3.2,8.8-5.5
			C787.7,555.3,742.4,545,697.2,534.7z M499.2,117c0.8,92.5,1.5,185.4,2.3,279.5c32.9-3.7,65.2-7.4,97.6-11c-2.5-93.7-5-186-7.5-278
			C560.7,110.7,530.3,113.8,499.2,117z M288.1,387.2c28.9,3,57.1,6,85.9,9c3-93.4,5.9-186,8.8-278.5c-27.8-2.1-55.3-4.2-83.1-6.3
			C295.9,202.9,292,294.6,288.1,387.2z M405.5,121.2c-2.9,91.9-5.7,183.5-8.6,275.7c28,0,55.6,0,83.5,0
			c-1.7-92.5-3.5-184.1-5.2-275.7C451.6,121.2,428.8,121.2,405.5,121.2z M220.3,94.7c-4.8,91.6-9.5,183.6-14.3,276.2
			c19.9,4.1,39.3,8.2,59.5,12.4c4.9-92.2,9.8-183.5,14.7-274.3C259.9,104.2,240.3,99.5,220.3,94.7z M226.8,77.7c0,1,0,1.9,0,2.9
			c12.5,3.1,24.9,6.8,37.6,9.3c45.7,8.9,92.1,11.7,138.6,12.8c49.8,1.2,99.6-0.4,149.2-5.8c24-2.6,47.9-5.9,71.1-12.8
			c4.3-1.3,8.6-2.9,12.8-4.4c-2.2-2-4.3-3.1-6.4-3.6c-10.3-2.7-20.5-5.9-30.9-7.9c-47.7-9.2-96.1-12.2-144.6-12.8
			c-30.3-0.4-60.6,0.6-90.9,1.7c-35.1,1.3-70.1,5-104.5,12.1C248,71.4,237.4,74.8,226.8,77.7z M613.3,382.7
			c16.6-3.6,32-7.2,47.4-10.3c3.9-0.8,4.8-2.3,4.4-6c-1.8-18.4-3.4-36.8-5-55.2c-2.5-27.7-4.9-55.4-7.4-83
			c-2.9-32.3-5.8-64.6-8.8-97c-1-10.7-2-21.3-3.1-32.5c-9.2,4.3-17.8,8.4-26.4,12.2c-2.7,1.2-3.5,2.7-3.5,5.6
			c0.8,81.8,1.6,163.5,2.3,245.3C613.3,368.4,613.3,375,613.3,382.7z"/>
		<path class="st2" d="M443.7,412.9c16.3-0.6,32.6-1,48.9-1.8c58.3-2.7,115.9-11,172.8-24.4c1.6-0.4,3.2-0.7,5.3-1.1
			c1.1,11.2,2.4,21.9,3.1,32.6c2.9,43.9,5.5,87.8,8.4,131.6c0.3,4.3-1.1,6-5.2,7.1c-46.6,13.4-94.1,22.5-142.3,28.2
			c-41.3,4.9-82.7,6.9-124.2,5.7c-71.8-2.1-142-13.4-210.2-36.6c-3.8-1.3-4.7-2.8-4.3-6.7c2.5-29.5,4.9-59.1,6.9-88.6
			c1.7-23.9,2.8-47.9,4.2-72.4c8.8,1.9,17.4,3.8,25.9,5.6c40,8.3,80.3,14.2,121,16.9c26.6,1.8,53.2,2.6,79.8,3.8
			c-10.8,16-21.6,32-32.6,47.9c-0.9,1.3-3.3,2.1-5,2.2c-20,0.5-40,0.7-60,1c-1.4,0-2.8,0.2-5,0.4c3,2.7,5.4,4.8,7.7,6.8
			c15.2,13.3,30.3,26.6,45.5,39.8c2.5,2.2,3.1,3.9,1.7,7.1c-7.5,17.6-14.7,35.3-22,53c-0.6,1.5-1.1,3.2-2,5.6c2.7-1,4.2-1.5,5.8-2.1
			c22.6-9,45.1-18,67.7-26.8c2.3-0.9,5.6-0.9,7.8,0.1c22.8,9.7,45.5,19.6,68.2,29.5c1.6,0.7,3.2,1.3,5.5,2.2c-0.6-2-0.9-3.1-1.3-4.2
			c-7.2-19.3-14.3-38.7-21.6-57.9c-1.3-3.4-0.8-5.3,2-7.5c7.1-5.6,13.9-11.4,20.8-17.2c9.5-8,19.1-15.9,29.3-24.5
			c-1.8-0.2-2.6-0.3-3.3-0.4c-21.6-1.6-43.2-3.1-64.8-4.8c-1.7-0.1-4-1.1-4.9-2.4C463.6,444.9,453.6,428.9,443.7,412.9z"/>
		<path class="st3" d="M697.2,534.7c45.2,10.3,90.5,20.6,133.5,42.9c-3.6,2.3-6.1,4-8.8,5.5c-20.9,11.6-43.3,19.7-66,26.8
			c-49.3,15.5-99.7,26-150.9,33.3c-62.1,8.9-124.6,13-187.3,11.5c-95.4-2.2-189.4-14.4-281.6-39.7c-27.9-7.7-55.5-16.5-81.7-29
			c-4.5-2.1-8.8-4.7-13.2-7.1c-0.6-0.3-1-0.9-1.4-1.3c17.1-13.4,111.4-43.2,142.7-44.8c-1.2,9.8-2.3,19.4-3.5,29.8
			c11.1,3.7,22.6,7.7,34.1,11.4c47.3,14.9,95.8,24.1,145.1,28.7c44.5,4.2,89.1,4.5,133.8,1.5c65.6-4.5,130.1-15.3,193.3-34.1
			c12.9-3.8,12.8-3.9,12-17.5C696.9,546.9,697.2,541.3,697.2,534.7z"/>
		<path class="st4" d="M499.2,117c31.1-3.2,61.5-6.3,92.4-9.5c2.5,92,4.9,184.3,7.5,278c-32.4,3.7-64.7,7.3-97.6,11
			C500.7,302.5,499.9,209.6,499.2,117z"/>
		<path class="st4" d="M288.1,387.2c3.9-92.6,7.8-184.2,11.6-275.9c27.8,2.1,55.3,4.2,83.1,6.3c-2.9,92.5-5.9,185.1-8.8,278.5
			C345.2,393.2,317,390.2,288.1,387.2z"/>
		<path class="st3" d="M405.5,121.2c23.3,0,46,0,69.7,0c1.7,91.6,3.5,183.3,5.2,275.7c-28,0-55.5,0-83.5,0
			C399.8,304.7,402.7,213.1,405.5,121.2z"/>
		<path class="st3" d="M220.3,94.7c20,4.8,39.7,9.5,59.8,14.3c-4.9,90.8-9.8,182.1-14.7,274.3c-20.2-4.2-39.6-8.3-59.5-12.4
			C210.7,278.3,215.5,186.3,220.3,94.7z"/>
		<path class="st4" d="M443.7,412.9c10,15.9,19.9,31.9,30,47.8c0.8,1.3,3.2,2.2,4.9,2.4c21.6,1.7,43.2,3.2,64.8,4.8
			c0.8,0.1,1.5,0.2,3.3,0.4c-10.3,8.6-19.8,16.5-29.3,24.5c-6.9,5.8-13.7,11.6-20.8,17.2c-2.8,2.2-3.3,4.1-2,7.5
			c7.4,19.3,14.5,38.6,21.6,57.9c0.4,1,0.7,2.1,1.3,4.2c-2.3-0.9-4-1.5-5.5-2.2c-22.7-9.9-45.4-19.8-68.2-29.5
			c-2.2-0.9-5.5-0.9-7.8-0.1c-22.6,8.8-45.2,17.8-67.7,26.8c-1.5,0.6-3.1,1.2-5.8,2.1c0.9-2.4,1.3-4,2-5.6c7.3-17.7,14.5-35.4,22-53
			c1.4-3.2,0.8-4.9-1.7-7.1c-15.3-13.2-30.4-26.5-45.5-39.8c-2.4-2.1-4.7-4.1-7.7-6.8c2.2-0.2,3.6-0.3,5-0.4c20-0.3,40-0.6,60-1
			c1.7,0,4.1-0.9,5-2.2c11-15.9,21.7-31.9,32.6-47.9c1.6-2,3.2-4.1,5-6.4C440.7,408.8,442.2,410.9,443.7,412.9z"/>
		<path class="st3" d="M226.8,77.7c10.7-2.9,21.2-6.3,32-8.5C293.3,62,328.2,58.4,363.3,57c30.3-1.1,60.6-2.1,90.9-1.7
			c48.5,0.6,96.9,3.6,144.6,12.8c10.4,2,20.6,5.2,30.9,7.9c2.2,0.6,4.2,1.6,6.4,3.6c-4.3,1.5-8.5,3.1-12.8,4.4
			c-23.2,6.9-47.1,10.2-71.1,12.8c-49.6,5.5-99.4,7-149.2,5.8c-46.5-1.1-92.9-3.9-138.6-12.8c-12.7-2.5-25.1-6.2-37.6-9.3
			C226.8,79.6,226.8,78.7,226.8,77.7z"/>
		<path class="st3" d="M613.3,382.7c0-7.6,0.1-14.2,0-20.9c-0.8-81.8-1.5-163.5-2.3-245.3c0-2.9,0.8-4.4,3.5-5.6
			c8.7-3.8,17.2-7.9,26.4-12.2c1.1,11.2,2.1,21.8,3.1,32.5c2.9,32.3,5.9,64.6,8.8,97c2.5,27.7,4.9,55.4,7.4,83
			c1.6,18.4,3.2,36.8,5,55.2c0.4,3.7-0.5,5.2-4.4,6C645.3,375.5,629.9,379,613.3,382.7z"/>
	</g>
</g>
</svg>
