<?xml version="1.0" encoding="utf-8"?>
<!-- Generator: Adobe Illustrator 16.0.3, SVG Export Plug-In . SVG Version: 6.00 Build 0)  -->
<!DOCTYPE svg PUBLIC "-//W3C//DTD SVG 1.1//EN" "http://www.w3.org/Graphics/SVG/1.1/DTD/svg11.dtd">
<svg version="1.1" id="Question_mark_xA0_Image_1_" xmlns="http://www.w3.org/2000/svg" xmlns:xlink="http://www.w3.org/1999/xlink"
	 x="0px" y="0px" width="864px" height="720px" viewBox="0 0 864 720" enable-background="new 0 0 864 720" xml:space="preserve">
<g>
	<g>
		<path fill-rule="evenodd" clip-rule="evenodd" fill="#FEFECB" d="M865,721c-288,0-576,0-864,0C1,481,1,241,1,1c288,0,576,0,864,0
			C865,241,865,481,865,721z M282.354,329.922c6.019-10.079,11.58-20.31,17.999-29.97c19.405-29.202,42.625-54.606,74.005-71.409
			c24.211-12.964,49.942-18.146,77.194-13.453c12.453,2.145,22.358,8.418,25.241,21.633c1.284,5.885,1.333,12.294,0.622,18.309
			c-1.956,16.566-8.592,31.689-16.068,46.395c-22.01,43.295-51.079,81.776-81.601,119.263c-1.62,1.989-2.921,4.443-3.681,6.895
			c-5.019,16.187-9.862,32.427-14.734,48.658c-4.916,16.38-9.798,32.77-14.825,49.594c68.075,7.857,135.767,15.67,204.018,23.547
			c-0.758-2.388-1.188-3.977-1.76-5.513c-11.759-31.603-23.483-63.217-35.381-94.768c-1.261-3.344-0.854-5.58,1.256-8.482
			c27.731-38.155,52.404-78.195,72.888-120.715c19.938-41.389,36.384-83.948,39.957-130.34c2.155-27.97-1.387-54.989-17.154-79.028
			c-17.347-26.448-38.708-49.256-64.984-67.034c-46.305-31.328-96.584-42.846-151.447-28.414
			c-40.25,10.588-71.395,34.811-96.83,66.937c-32.345,40.854-53.538,87.392-69.132,136.755c-1.484,4.698-1.322,8.506,1.168,13.032
			C247.051,264.421,264.658,297.218,282.354,329.922z M441.251,708.146c27.791-0.878,53.212-7.823,75.884-22.988
			c7.215-4.825,13.916-10.98,19.4-17.711c11.254-13.81,11.19-29.726,0.663-44.146c-3.305-4.526-7.123-8.922-11.487-12.396
			c-40.241-32.028-96.619-41.616-149.021-12.169c-12.035,6.764-22.895,14.945-30.219,26.934
			c-7.929,12.976-8.323,26.363,0.391,38.921c4.477,6.452,10.093,12.534,16.348,17.256
			C386.383,699.341,413.099,706.915,441.251,708.146z"/>
		<path fill-rule="evenodd" clip-rule="evenodd" d="M282.354,329.922c-17.697-32.704-35.304-65.501-53.25-98.11
			c-2.491-4.526-2.653-8.334-1.168-13.032c15.595-49.363,36.788-95.9,69.132-136.755c25.435-32.126,56.58-56.349,96.83-66.937
			c54.863-14.432,105.143-2.914,151.447,28.414c26.276,17.778,47.638,40.586,64.984,67.034
			c15.768,24.039,19.31,51.059,17.154,79.028c-3.573,46.392-20.02,88.951-39.957,130.34c-20.483,42.52-45.156,82.56-72.888,120.715
			c-2.109,2.902-2.517,5.139-1.256,8.482c11.897,31.551,23.622,63.165,35.381,94.768c0.571,1.536,1.002,3.125,1.76,5.513
			c-68.251-7.877-135.942-15.689-204.018-23.547c5.027-16.824,9.909-33.214,14.825-49.594c4.872-16.231,9.716-32.472,14.734-48.658
			c0.76-2.451,2.061-4.905,3.681-6.895c30.521-37.486,59.591-75.968,81.601-119.263c7.477-14.705,14.112-29.828,16.068-46.395
			c0.711-6.015,0.662-12.424-0.622-18.309c-2.883-13.215-12.788-19.488-25.241-21.633c-27.252-4.693-52.983,0.489-77.194,13.453
			c-31.38,16.803-54.601,42.207-74.005,71.409C293.934,309.612,288.373,319.843,282.354,329.922z"/>
		<path fill-rule="evenodd" clip-rule="evenodd" d="M441.251,708.146c-28.152-1.23-54.868-8.805-78.041-26.299
			c-6.255-4.722-11.871-10.804-16.348-17.256c-8.714-12.558-8.319-25.945-0.391-38.921c7.324-11.988,18.184-20.17,30.219-26.934
			c52.401-29.447,108.779-19.859,149.021,12.169c4.364,3.474,8.183,7.869,11.487,12.396c10.527,14.42,10.591,30.336-0.663,44.146
			c-5.484,6.73-12.186,12.886-19.4,17.711C494.463,700.322,469.042,707.268,441.251,708.146z"/>
	</g>
</g>
</svg>
