<?xml version="1.0" encoding="utf-8"?>
<!-- Generator: Adobe Illustrator 19.2.0, SVG Export Plug-In . SVG Version: 6.00 Build 0)  -->
<svg version="1.1" id="Question_mark_xA0_Image_1_" xmlns="http://www.w3.org/2000/svg" xmlns:xlink="http://www.w3.org/1999/xlink"
	 x="0px" y="0px" viewBox="0 0 864 720" style="enable-background:new 0 0 864 720;" xml:space="preserve">
<style type="text/css">
	.st0{display:none;fill:#CBCBFE;}
</style>
<g>
	<g>
		<path class="st0" d="M865,721c-288,0-576,0-864,0C1,481,1,241,1,1c288,0,576,0,864,0C865,241,865,481,865,721z M282.6,330.4
			c1-1.9,1.7-3.3,2.5-4.8c16.2-30.6,36.4-58.1,63.5-80c23.1-18.7,48.9-30.8,79.1-32c7.1-0.3,14.4-0.1,21.4,1.1
			c22.3,3.7,32,17.6,28.6,39.8c-3.1,20.2-11.5,38.5-21.1,56.2c-21.5,39.5-48.4,75.3-76.8,110c-1.6,2-2.9,4.4-3.7,6.9
			c-5,16.2-9.9,32.4-14.7,48.7c-4.9,16.4-9.8,32.8-14.8,49.6c68.1,7.9,135.8,15.7,204,23.5c-0.8-2.4-1.2-4-1.8-5.5
			c-11.8-31.6-23.5-63.2-35.4-94.8c-1.3-3.4-0.8-5.6,1.3-8.5c29.1-40.1,54.8-82.2,75.9-127c18.5-39.5,33.6-80.1,36.9-124
			c2.1-28-1.4-55-17.2-79c-18.4-28-41.2-51.9-69.5-70.1c-42.5-27.4-88.6-38.1-138.6-27.4c-41.1,8.8-73.6,31.4-100.3,63.2
			c-32.3,38.5-53.2,83.2-70.2,130.1c-4.9,13.4-4.2,24.1,3.2,36.5C251.6,271.4,266.6,300.9,282.6,330.4z M437.6,708
			c29.5,0,59.1-8.6,79.7-22.9c7-4.9,13.6-10.8,19.1-17.4c11.4-13.9,11.4-30.1,0.6-44.6c-3.3-4.5-7.2-8.9-11.6-12.4
			c-45.8-36.1-107.9-41.1-159.6-4.8c-7.4,5.2-14.1,12.4-19.2,19.9c-8.6,12.5-8.5,26.3,0.2,38.8c4.5,6.5,10.1,12.5,16.4,17.3
			C386.5,699.4,413.2,707,437.6,708z"/>
		<path d="M282.6,330.4c-16-29.6-31-59.1-47.8-87.5c-7.3-12.5-8-23.1-3.2-36.5c17-46.9,37.8-91.6,70.2-130.1
			c26.6-31.8,59.2-54.4,100.3-63.2c50.1-10.7,96.1,0,138.6,27.4c28.3,18.2,51.1,42.1,69.5,70.1c15.8,24,19.3,51,17.2,79
			c-3.3,44-18.4,84.6-36.9,124c-21,44.9-46.8,86.9-75.9,127c-2.1,2.9-2.5,5.1-1.3,8.5c11.9,31.5,23.6,63.2,35.4,94.8
			c0.6,1.5,1,3.1,1.8,5.5c-68.2-7.9-135.9-15.7-204-23.5c5-16.8,9.9-33.2,14.8-49.6c4.9-16.2,9.7-32.5,14.7-48.7
			c0.8-2.5,2.1-4.9,3.7-6.9c28.4-34.7,55.3-70.5,76.8-110c9.6-17.7,18.1-35.9,21.1-56.2c3.4-22.2-6.3-36.2-28.6-39.8
			c-7-1.1-14.3-1.3-21.4-1.1c-30.1,1.1-56,13.3-79.1,32c-27.1,21.9-47.3,49.4-63.5,80C284.3,327.1,283.6,328.6,282.6,330.4z"/>
		<path d="M437.6,708c-24.4-1-51.1-8.6-74.3-26.1c-6.3-4.7-11.9-10.8-16.4-17.3c-8.7-12.6-8.9-26.3-0.2-38.8
			c5.2-7.5,11.8-14.7,19.2-19.9c51.7-36.3,113.8-31.3,159.6,4.8c4.4,3.5,8.2,7.8,11.6,12.4c10.7,14.5,10.8,30.7-0.6,44.6
			c-5.4,6.6-12,12.5-19.1,17.4C496.7,699.4,467.1,708,437.6,708z"/>
	</g>
</g>
</svg>
