<?xml version="1.0" encoding="utf-8"?>
<!-- Generator: Adobe Illustrator 19.2.0, SVG Export Plug-In . SVG Version: 6.00 Build 0)  -->
<svg version="1.1" id="Layer_1" xmlns="http://www.w3.org/2000/svg" xmlns:xlink="http://www.w3.org/1999/xlink" x="0px" y="0px"
	 viewBox="0 0 90 90" style="enable-background:new 0 0 90 90;" xml:space="preserve">
<style type="text/css">
	.st0{fill:#FFFFFF;stroke:#000000;stroke-miterlimit:10;}
	.st1{font-family:'MyriadPro-Regular';}
	.st2{font-size:9.5px;}
</style>
<g>
	<g>
		<path class="st0" d="M75.9,77H14.1C10.2,77,7,73.9,7,70V9.4c0-3.8,3.2-7,7.1-7h61.8c3.9,0,7.1,3.1,7.1,7V70
			C83,73.9,79.8,77,75.9,77z"/>
	</g>
	<text transform="matrix(1 0 0 1 14.6628 87.4604)" class="st1 st2">Subject Priority</text>
</g>
<g>
	<g>
		<path d="M57.8,32.9c2.9,0,5.8,0,8.8,0c1-3.4,1.9-6.8,2.9-10.2c0,0,0,0,0.1,0c0.2,0.8,0.4,1.5,0.6,2.3c0.6,2.4,1.2,4.7,1.9,7.1
			c0,0.1,0,0.2,0.1,0.2c0.1,0.4,0.3,0.5,0.7,0.5c2.6,0,5.2,0,7.8,0c0.1,0,0.1,0,0.2,0c-0.1,0.1-0.2,0.2-0.3,0.3
			c-2.1,1.9-4.2,3.8-6.3,5.7c-0.3,0.3-0.3,0.5-0.2,0.9c0.9,3.3,1.7,6.5,2.6,9.8c0,0,0,0.1,0.1,0.2c-2.5-2.2-4.9-4.3-7.3-6.4
			c-2.5,2.3-5,4.5-7.6,6.9c0-0.2,0.1-0.3,0.1-0.4c0.9-3.2,1.8-6.4,2.7-9.6c0-0.1,0.1-0.2,0.1-0.3c0.1-0.4,0-0.7-0.3-1
			c-2.1-1.8-4.2-3.7-6.3-5.6C57.9,33.1,57.8,33,57.8,32.9C57.8,32.9,57.8,32.9,57.8,32.9z"/>
		<path d="M45.7,22.6c0.6,2.1,1.1,4.1,1.6,6.1c0.3,1.1,0.6,2.2,0.9,3.4c0.2,0.6,0.3,0.7,0.9,0.7c2.6,0,5.1,0,7.7,0
			c0.1,0,0.1,0,0.2,0c-0.1,0.1-0.2,0.2-0.3,0.3c-2.1,1.9-4.3,3.9-6.4,5.8c-0.2,0.2-0.3,0.4-0.2,0.7c0.9,3.2,1.7,6.4,2.5,9.7
			c0,0.1,0.1,0.3,0.1,0.5c-2.5-2.2-4.9-4.3-7.3-6.4c-2.5,2.3-5,4.6-7.6,6.9c0.3-1.2,0.7-2.4,1-3.5c0.6-2.2,1.3-4.5,1.9-6.7
			c0.1-0.5,0.1-0.9-0.3-1.2c-2.1-1.8-4.2-3.7-6.2-5.5c-0.1-0.1-0.2-0.1-0.3-0.3c0.2,0,0.3,0,0.4,0c2.7,0,5.5,0,8.2-0.1
			c0.3,0,0.4-0.1,0.4-0.3c0.9-3.2,1.8-6.3,2.7-9.5C45.6,22.9,45.7,22.8,45.7,22.6z"/>
		<path d="M32.4,32.8c-0.9,0.8-1.8,1.6-2.7,2.4c-1.3,1.2-2.7,2.4-4,3.6c-0.2,0.2-0.3,0.4-0.2,0.7c0.9,3.2,1.7,6.5,2.6,9.7
			c0,0.1,0,0.2,0.1,0.4c-2.5-2.2-4.8-4.3-7.3-6.4c-2.5,2.3-5,4.5-7.6,6.9c0-0.2,0.1-0.3,0.1-0.4c0.9-3.2,1.8-6.5,2.7-9.7
			c0.2-0.6,0.1-1-0.4-1.4c-2.1-1.8-4.2-3.7-6.2-5.5c-0.1-0.1-0.1-0.1-0.3-0.3c0.2,0,0.3,0,0.4,0c2.7,0,5.4,0,8.1-0.1
			c0.3,0,0.4-0.1,0.4-0.4c0.9-3.2,1.8-6.3,2.7-9.4c0-0.1,0.1-0.2,0.1-0.4c0.1,0.2,0.1,0.3,0.1,0.4c0.8,3,1.6,6,2.4,9.1
			c0,0.1,0,0.2,0.1,0.2c0.1,0.3,0.3,0.5,0.7,0.5c2.6,0,5.2,0,7.9-0.1C32.2,32.8,32.2,32.8,32.4,32.8z"/>
	</g>
</g>
</svg>
