<?xml version="1.0" encoding="utf-8"?>
<!-- Generator: Adobe Illustrator 19.2.0, SVG Export Plug-In . SVG Version: 6.00 Build 0)  -->
<svg version="1.1" id="SKIPb_xA0_Image_1_" xmlns="http://www.w3.org/2000/svg" xmlns:xlink="http://www.w3.org/1999/xlink" x="0px"
	 y="0px" viewBox="0 0 603 720" style="enable-background:new 0 0 603 720;" xml:space="preserve">
<style type="text/css">
	.st0{fill:#CBCBFE;}
	.st1{fill:#010101;}
</style>
<g>
	<g>
		<path class="st0" d="M1,720.8C1,481.1,1,241.1,1,1.1c200.9,0,401.8,0,602.8,0c0,239.8,0,479.6,0,719.7
			C403,720.8,202,720.8,1,720.8z M139,479.9c126.4-78.5,252-156.5,377.9-234.7C390.6,180.1,264.1,114.8,136,48.7
			c0,18.2,0.2,34.9-0.1,51.5c-0.1,4.2,1.1,6.4,4.9,8.4c88,45,176,90.3,263.9,135.4c3.3,1.7,6.6,3.5,10.3,5.4
			c-2.1,1.3-3.7,2.4-5.4,3.5c-33.9,21.1-67.8,42.1-101.7,63.2c-55,34.1-109.9,68.3-164.8,102.6c-1.8,1.1-3.8,3.5-3.8,5.4
			C138.9,442.4,139,460.7,139,479.9z M255.4,573.5c-0.7-0.6-1.5-1.2-2.2-1.9c0-18.5-0.1-36.9,0.1-55.4c0-3.3,0.8-7.8,3-9.6
			c3.8-3,3.9-6.3,4-10.3c0.1-4.3-1.5-6-5.9-5.9c-9.5,0.2-19-0.1-28.5,0.2c-2,0.1-5.5,1.4-5.6,2.5c-0.4,3.6-1,9,1,10.6
			c4.8,3.8,5.6,8.4,5.6,13.6c0,32.5,0.1,65,0.1,97.4c0,12.7,0.1,25.3-0.2,38c-0.1,3.3-0.7,8.1-2.9,9.5c-4.2,2.9-3.9,6.3-4.1,10.2
			c-0.2,4.3,1.6,6,5.9,5.9c9.3-0.2,18.7,0.1,28-0.1c2.1,0,5.7-1,5.9-2.1c0.7-3.6,1.5-9.6-0.2-10.8c-6.9-4.6-6.1-11.1-6.2-17.4
			c-0.2-17-0.1-34-0.1-51c0-1.2,0.2-2.4,0.3-3.6c0.4-0.1,0.8-0.2,1.2-0.3c1.8,4.9,3.8,9.8,5.4,14.8c5.2,15.8,10.3,31.6,15.1,47.5
			c0.8,2.5,1,7.2-0.2,7.9c-4.1,2.2-2.9,5.5-2.9,8.5c-0.1,5.8,0.7,6.5,6.7,6.5c9.5,0,19,0.2,28.5-0.1c2.1-0.1,5.8-1.4,6-2.7
			c0.6-3.4,0.6-7.4-0.7-10.5c-2-4.5-6.4-8.1-8-12.7c-9.3-26.8-18.1-53.8-27-80.8c-0.5-1.4-0.4-3.4,0.2-4.7c8.1-18,16.2-36.1,24.5-54
			c1.1-2.4,2.5-5.4,4.6-6.3c5.4-2.4,4.3-6.6,4.4-10.8c0.2-3.9-1.6-5.4-5.4-5.3c-7.3,0.1-14.7,0-22,0c-12.4,0.1-12.5-2-11.8,13.4
			c5.1,0.6,5.8,4.4,5.8,8.7c0,1.2,0,2.3-0.2,3.5c-3.5,18.9-12,35.8-20.1,52.9C256.8,570.5,256.1,572,255.4,573.5z M402.4,602.3
			c1.1,0,1.8-0.1,2.4,0c22.2,2.1,32.3-10.3,37.4-25.8c5.9-17.8,6.6-36,3.1-54.2c-4.5-23.3-15.2-31.8-39-31.8
			c-10.3,0-20.7-0.1-31,0.1c-2,0-5.6,1.2-5.8,2.3c-0.6,3.6-1.4,9.4,0.5,10.7c5.9,4.2,5.9,9.7,5.9,15.5c0,36.6,0,73.3,0,109.9
			c0,8.2,0.2,16.3-0.2,24.5c-0.2,3.1-0.8,7.6-2.9,9c-4.2,2.9-3.8,6.3-3.9,10.2c-0.1,4,1.4,5.8,5.5,5.8c10.2-0.1,20.3,0.1,30.5-0.2
			c1.7,0,4.8-1.7,4.9-2.8c0.3-3.6,0.7-9.2-1.2-10.4c-4.4-2.7-6.1-6.1-6.2-10.5C402.2,637.3,402.4,620,402.4,602.3z M145,674
			c5.2,1.6,10.1,3.6,15.3,4.7c25.2,5.6,40.7-1.8,47.7-30.7c1.7-7.2,2.1-14.8,2.4-22.3c1.1-24-6.3-44.8-23.9-61.7
			c-3.2-3.1-6.1-6.6-8.7-10.3c-7.5-11.1-8.4-23.2-4.8-35.8c1.2-4.3,3.6-8.1,8.8-8.3c5.3-0.2,7.8,3.4,9.1,7.7
			c1.6,5.4,3.1,10.9,3.8,16.5c0.5,3.9,1.8,5.3,5.6,4.7c0.8-0.1,1.7,0,2.5,0c5.9,0,6.7-0.8,6.7-6.6c0-9.2,0-18.3,0-27.5
			c0-10.1,0-10.1-9.6-13.4c-24.5-8.3-43.6,1.5-50.4,26.5c-4.7,17.2-4.3,34.6,0.8,51.7c3.7,12.3,10.9,22.4,20,31.1
			c13,12.3,17.3,27.2,14.4,44.5c-0.5,3.2-1.5,6.5-3.1,9.4c-3.6,6.6-11.7,6.9-15.8,0.5c-1.8-2.9-3.1-6.3-3.9-9.6
			c-1.4-5.4-2.2-11-3.3-16.7c-3.1,0-6.3-0.6-9.1,0.2c-1.8,0.5-4.5,2.8-4.5,4.4C144.8,646.6,145,660.1,145,674z M324,584.6
			C324,584.6,323.9,584.6,324,584.6c0,22.5,0.1,45-0.2,67.4c0,3.6-0.7,8.6-3,10.5c-3.9,3.1-3.8,6.3-3.9,10.2
			c-0.1,4.4,1.9,5.9,6.1,5.8c8.2-0.1,16.3,0,24.5,0c10.2,0,10.4-0.1,9.8-10.2c-0.1-1.4-1.3-2.7-2-4c-1.4-2.3-3.4-4.4-4.1-6.9
			c-0.9-3-0.9-6.2-0.9-9.4c-0.1-42-0.1-83.9,0-125.9c0-3.6,0.4-7.3,1-10.9c0.3-1.7,1-4.1,2.3-4.7c4.7-2.3,3.8-6.3,3.9-10.2
			c0.2-4-1.5-5.7-5.6-5.7c-9.7,0.1-19.3-0.1-29,0.2c-1.9,0.1-5.3,1.6-5.4,2.8c-0.5,3.4-1.1,8.9,0.8,10.2c5.6,3.9,5.8,8.9,5.8,14.5
			C324,540.3,324,562.4,324,584.6z"/>
		<path class="st1" d="M139,479.9c0-19.2-0.1-37.5,0.2-55.9c0-1.8,2.1-4.3,3.8-5.4c54.9-34.3,109.9-68.4,164.8-102.6
			c33.9-21.1,67.8-42.1,101.7-63.2c1.7-1,3.4-2.1,5.4-3.5c-3.6-1.9-6.9-3.7-10.3-5.4c-88-45.2-175.9-90.4-263.9-135.4
			c-3.9-2-5-4.1-4.9-8.4c0.3-16.6,0.1-33.3,0.1-51.5c128,66.1,254.6,131.3,380.9,196.5C391,323.4,265.4,401.4,139,479.9z"/>
		<path class="st1" d="M255.4,573.5c0.7-1.5,1.4-3,2.1-4.5c8-17.1,16.6-34.1,20.1-52.9c0.2-1.1,0.2-2.3,0.2-3.5c0-4.2-0.7-8-5.8-8.7
			c-0.7-15.4-0.6-13.3,11.8-13.4c7.3,0,14.7,0.1,22,0c3.8-0.1,5.5,1.5,5.4,5.3c-0.2,4.1,1,8.4-4.4,10.8c-2.1,0.9-3.5,4-4.6,6.3
			c-8.3,17.9-16.4,36-24.5,54c-0.6,1.3-0.6,3.3-0.2,4.7c8.9,27,17.7,54,27,80.8c1.6,4.6,6,8.2,8,12.7c1.4,3.1,1.3,7.1,0.7,10.5
			c-0.2,1.3-3.9,2.6-6,2.7c-9.5,0.3-19,0.1-28.5,0.1c-5.9,0-6.8-0.8-6.7-6.5c0.1-3-1.2-6.3,2.9-8.5c1.2-0.6,1-5.4,0.2-7.9
			c-4.8-15.9-10-31.7-15.1-47.5c-1.6-5-3.6-9.8-5.4-14.8c-0.4,0.1-0.8,0.2-1.2,0.3c-0.1,1.2-0.3,2.4-0.3,3.6c0,17-0.1,34,0.1,51
			c0.1,6.3-0.7,12.8,6.2,17.4c1.8,1.2,0.9,7.2,0.2,10.8c-0.2,1.1-3.8,2.1-5.9,2.1c-9.3,0.2-18.7,0-28,0.1c-4.3,0.1-6-1.7-5.9-5.9
			c0.2-3.9-0.2-7.3,4.1-10.2c2.2-1.5,2.8-6.2,2.9-9.5c0.3-12.7,0.2-25.3,0.2-38c0-32.5,0-65-0.1-97.4c0-5.2-0.8-9.8-5.6-13.6
			c-2-1.6-1.4-7-1-10.6c0.1-1.1,3.6-2.5,5.6-2.5c9.5-0.3,19,0,28.5-0.2c4.3-0.1,6,1.6,5.9,5.9c-0.1,4-0.2,7.2-4,10.3
			c-2.2,1.8-3,6.3-3,9.6c-0.3,18.5-0.1,36.9-0.1,55.4C254,572.3,254.7,572.9,255.4,573.5z"/>
		<path class="st1" d="M402.4,602.3c0,17.7-0.1,35,0.1,52.3c0.1,4.4,1.8,7.8,6.2,10.5c1.9,1.2,1.5,6.8,1.2,10.4
			c-0.1,1.1-3.2,2.7-4.9,2.8c-10.2,0.3-20.3,0-30.5,0.2c-4.1,0.1-5.6-1.8-5.5-5.8c0.1-3.9-0.3-7.4,3.9-10.2c2.1-1.5,2.8-5.9,2.9-9
			c0.4-8.1,0.2-16.3,0.2-24.5c0-36.6,0-73.3,0-109.9c0-5.8,0-11.3-5.9-15.5c-1.9-1.3-1.1-7.1-0.5-10.7c0.2-1.1,3.8-2.2,5.8-2.3
			c10.3-0.2,20.6-0.1,31-0.1c23.7,0,34.5,8.5,39,31.8c3.5,18.2,2.7,36.5-3.1,54.2c-5.1,15.5-15.2,27.8-37.4,25.8
			C404.1,602.3,403.5,602.3,402.4,602.3z M402.2,581.1c9.6,0.9,14.9-2.1,16.5-11.5c1.7-10.2,2.2-20.8,2.2-31.2
			c0-6.2-1.2-12.6-3-18.6c-2.3-7.7-7.6-9.9-15.7-7.9C402.2,534.9,402.2,557.8,402.2,581.1z"/>
		<path class="st1" d="M145,674c0-13.9-0.2-27.4,0.2-40.9c0-1.6,2.7-3.9,4.5-4.4c2.8-0.8,5.9-0.2,9.1-0.2c1.1,5.7,1.9,11.3,3.3,16.7
			c0.8,3.3,2.1,6.7,3.9,9.6c4.1,6.4,12.2,6.1,15.8-0.5c1.5-2.9,2.5-6.2,3.1-9.4c2.9-17.3-1.5-32.2-14.4-44.5
			c-9.2-8.7-16.4-18.8-20-31.1c-5.1-17.1-5.4-34.5-0.8-51.7c6.8-25,25.8-34.8,50.4-26.5c9.6,3.2,9.6,3.2,9.6,13.4
			c0,9.2,0,18.3,0,27.5c0,5.7-0.9,6.5-6.7,6.6c-0.8,0-1.7-0.1-2.5,0c-3.7,0.6-5.1-0.8-5.6-4.7c-0.7-5.6-2.1-11.1-3.8-16.5
			c-1.3-4.3-3.9-7.9-9.1-7.7c-5.2,0.2-7.6,4-8.8,8.3c-3.6,12.6-2.8,24.7,4.8,35.8c2.5,3.7,5.4,7.2,8.7,10.3
			c17.5,16.9,24.9,37.7,23.9,61.7c-0.3,7.5-0.7,15.1-2.4,22.3c-7,28.9-22.4,36.3-47.7,30.7C155.1,677.6,150.2,675.7,145,674z"/>
		<path class="st1" d="M324,584.6c0-22.1,0-44.3,0-66.4c0-5.5-0.3-10.6-5.8-14.5c-1.8-1.3-1.3-6.8-0.8-10.2c0.2-1.2,3.5-2.7,5.4-2.8
			c9.6-0.3,19.3,0,29-0.2c4.1-0.1,5.7,1.6,5.6,5.7c-0.2,3.9,0.8,7.9-3.9,10.2c-1.3,0.6-2,3-2.3,4.7c-0.6,3.6-1,7.3-1,10.9
			c-0.1,42,0,83.9,0,125.9c0,3.1,0,6.4,0.9,9.4c0.7,2.5,2.7,4.6,4.1,6.9c0.8,1.3,1.9,2.6,2,4c0.6,10.1,0.4,10.2-9.8,10.2
			c-8.2,0-16.3-0.1-24.5,0c-4.1,0.1-6.2-1.4-6.1-5.8c0.1-4,0.1-7.2,3.9-10.2c2.3-1.9,3-6.9,3-10.5C324.1,629.5,323.9,607,324,584.6
			C323.9,584.6,324,584.6,324,584.6z"/>
		<path class="st0" d="M402.2,581.1c0-23.2,0-46.2,0-69.1c8.1-2.1,13.4,0.2,15.7,7.9c1.8,6,3,12.4,3,18.6c0,10.4-0.5,21-2.2,31.2
			C417.1,579,411.8,582,402.2,581.1z"/>
	</g>
</g>
</svg>
