<?xml version="1.0" encoding="utf-8"?>
<!-- Generator: Adobe Illustrator 19.2.0, SVG Export Plug-In . SVG Version: 6.00 Build 0)  -->
<svg version="1.1" id="Layer_1" xmlns="http://www.w3.org/2000/svg" xmlns:xlink="http://www.w3.org/1999/xlink" x="0px" y="0px"
	 viewBox="0 0 90 90" style="enable-background:new 0 0 90 90;" xml:space="preserve">
<style type="text/css">
	.st0{fill:#98CB66;}
	.st1{fill:#98CB65;}
	.st2{fill:#FEFEFE;}
	.st3{fill:#010101;}
	.st4{fill:#020201;}
	.st5{fill:#46523A;}
	.st6{fill:#434C3A;}
	.st7{fill:#222222;}
	.st8{fill:#1F1F1F;}
	.st9{fill:#FDFDFD;}
	.st10{fill:none;stroke:#000000;stroke-miterlimit:10;}
	.st11{font-family:'MyriadPro-Regular';}
	.st12{font-size:9.5px;}
</style>
<g>
	<g>
		<path class="st0" d="M7.5,9C7.6,7.5,8,6.2,8.9,5c1-1.4,2.4-2.1,4.1-2.1c21.3,0,42.6,0,63.9,0c2.5,0,4.1,1.2,5.1,3.3
			c0.4,0.9,0.6,1.8,0.6,2.8c0,16.3,0,32.6,0,48.9c0,0.1,0,0.2,0,0.3c0,0,0,0-0.1,0c-0.1,0-0.1-0.1-0.2-0.1
			c-6.7-4.6-13.5-9.2-20.2-13.7c-0.1-0.1-0.3-0.1-0.5-0.1c-3.9,0-7.8,0.1-11.7,0.1c-0.1,0-0.2,0-0.4,0c0.1-0.1,0.1-0.2,0.2-0.3
			c1.2-1.6,2.5-3.2,3.7-4.8c0.8-1.1,1.7-2.1,2.4-3.2c1.3-2.2,1.5-4.5,0.6-6.9c-0.9-2.2-2.5-3.7-4.5-4.8c-3.1-1.7-6.4-2.1-9.8-1.4
			c-2.6,0.5-4.9,1.6-6.7,3.6c-2.7,2.9-3,7-0.7,10.2c0.3,0.4,0.6,0.7,0.9,1.1c1.4,2.1,2.9,4.1,4.3,6.2c0.1,0.1,0.1,0.2,0.2,0.3
			c-0.1,0-0.1,0-0.2,0c-3.2,0-6.5,0.1-9.7,0.1c-0.3,0-0.6,0.1-0.9,0.3C21.9,49.4,14.8,54,7.6,58.5c0-0.1-0.1-0.3-0.1-0.4
			c0-16.2,0-32.4,0-48.6C7.6,9.3,7.5,9.2,7.5,9z"/>
		<path class="st1" d="M82.5,64.5c0,2,0.1,4.1,0,6.1c-0.1,2.1-0.9,3.8-2.6,5c-0.8,0.6-1.8,0.8-2.8,0.8c-10.9,0-21.8,0-32.7,0
			c-10.4,0-20.7,0-31.1,0c-2.9,0-4.6-1.8-5.3-3.6c-0.3-0.8-0.5-1.7-0.5-2.6c0-0.1,0-0.3,0-0.4c0-2.1,0-4.2,0-6.3c1.7,0,3.3,0,5,0.1
			c3.4,0,6.8,0.1,10.2,0.1c3.4,0,6.8,0.1,10.2,0.1c3.4,0,6.8,0.1,10.2,0.1c3.4,0,6.8,0.1,10.2,0.1c3.4,0,6.8,0.1,10.2,0.1
			c4.4,0.1,8.8,0.1,13.2,0.2C78.8,64.4,80.6,64.5,82.5,64.5C82.5,64.5,82.5,64.5,82.5,64.5z"/>
		<path class="st2" d="M82.5,60.5c0,0.7,0,1.4,0,2.1c0,0,0,0-0.1,0c-0.1,0-0.2,0-0.3,0c-4.1-0.1-8.2-0.1-12.3-0.2
			c-6.8-0.1-13.6-0.2-20.5-0.3C38.9,62,28.5,61.9,18,61.8c-3.5,0-7-0.1-10.5-0.1c0-0.2,0-0.3,0-0.5c0-0.1,0-0.2,0-0.4
			c1.4-0.9,2.8-1.8,4.2-2.7c6-3.8,12-7.7,18.1-11.5c0.1-0.1,0.3-0.2,0.5-0.2c3.6-0.1,7.1-0.1,10.7-0.1c0.2,0,0.3,0.1,0.4,0.2
			c0.8,1.1,1.6,2.3,2.3,3.4c0.2,0.3,0.4,0.6,0.6,0.9c0.1-0.1,0.1-0.2,0.2-0.2c1.1-1.3,2.1-2.7,3.2-4c0.2-0.2,0.3-0.3,0.6-0.3
			c4.2,0,8.5-0.1,12.7-0.1c0.2,0,0.4,0.1,0.5,0.2c5.5,3.7,10.9,7.4,16.3,11.1C79.4,58.4,80.9,59.4,82.5,60.5z"/>
		<path class="st3" d="M82.5,60.5c-1.6-1.1-3.1-2.1-4.7-3.2c-5.4-3.7-10.9-7.4-16.3-11.1c-0.1-0.1-0.4-0.2-0.5-0.2
			c-4.2,0-8.5,0.1-12.7,0.1c-0.3,0-0.4,0.1-0.6,0.3c-1,1.4-2.1,2.7-3.2,4c-0.1,0.1-0.1,0.1-0.2,0.2c-0.2-0.3-0.4-0.6-0.6-0.9
			c-0.8-1.1-1.6-2.3-2.3-3.4c-0.1-0.2-0.2-0.2-0.4-0.2c-3.6,0-7.1,0.1-10.7,0.1c-0.2,0-0.3,0.1-0.5,0.2c-6,3.8-12,7.7-18.1,11.5
			C10.3,59,9,59.9,7.6,60.8c0-0.7,0-1.5,0-2.2c0,0,0,0,0.1-0.1c7.2-4.6,14.3-9.1,21.5-13.7c0.3-0.2,0.5-0.3,0.9-0.3
			c3.2,0,6.5-0.1,9.7-0.1c0.1,0,0.1,0,0.2,0c-0.1-0.1-0.1-0.2-0.2-0.3c-1.4-2.1-2.8-4.1-4.3-6.2c-0.3-0.4-0.6-0.7-0.9-1.1
			c-2.3-3.2-2.1-7.2,0.7-10.2c1.8-2,4.1-3.1,6.7-3.6c3.4-0.7,6.7-0.3,9.8,1.4c2,1.1,3.6,2.6,4.5,4.8c1,2.4,0.8,4.7-0.6,6.9
			c-0.7,1.1-1.6,2.1-2.4,3.2c-1.2,1.6-2.5,3.2-3.7,4.8c-0.1,0.1-0.1,0.1-0.2,0.3c0.2,0,0.3,0,0.4,0c3.9,0,7.8-0.1,11.7-0.1
			c0.2,0,0.4,0.1,0.5,0.1c6.8,4.6,13.5,9.1,20.2,13.7c0.1,0,0.1,0.1,0.2,0.1c0,0.6,0,1.3,0,1.9c0,0.1,0,0.2,0.1,0.3
			C82.5,60.4,82.5,60.4,82.5,60.5z M44.6,34.4c1.1,0,1.9-0.2,2.5-0.7c1.4-1,1.4-2.6,0-3.6c-1.3-1-3.4-0.9-4.7,0
			c-1.3,1-1.3,2.6,0,3.6C43.2,34.2,44,34.4,44.6,34.4z"/>
		<path class="st4" d="M7.5,61.6c3.5,0,7,0.1,10.5,0.1c10.4,0.1,20.9,0.3,31.3,0.4c6.8,0.1,13.6,0.2,20.5,0.3
			c4.1,0.1,8.2,0.1,12.3,0.2c0.1,0,0.2,0,0.3,0c0,0.6,0,1.2,0,1.9c-1.8,0-3.6,0-5.4-0.1c-4.4-0.1-8.8-0.1-13.2-0.2
			c-3.4,0-6.8-0.1-10.2-0.1c-3.4,0-6.8-0.1-10.2-0.1c-3.4,0-6.8-0.1-10.2-0.1c-3.4,0-6.8-0.1-10.2-0.1c-3.4,0-6.8-0.1-10.2-0.1
			c-1.7,0-3.3,0-5-0.1c0-0.2,0-0.5,0-0.7c0-0.3,0-0.7-0.1-1C7.5,61.7,7.5,61.7,7.5,61.6z"/>
		<path class="st5" d="M7.6,58.5C7.6,58.5,7.6,58.6,7.6,58.5c-0.1,0.1-0.1,0.1-0.1,0.1c0-0.1,0-0.3,0-0.4c0-16.3,0-32.5,0-48.8
			c0-0.1,0-0.3,0-0.4c0,0.2,0,0.3,0,0.5c0,16.2,0,32.4,0,48.6C7.6,58.2,7.6,58.4,7.6,58.5z"/>
		<path class="st6" d="M7.5,61.8c0,0.3,0,0.7,0.1,1c0,0.2,0,0.5,0,0.7c0,2.1,0,4.2,0,6.3c0,0.1,0,0.3,0,0.4c0-0.1,0-0.3,0-0.4
			C7.5,67.2,7.5,64.5,7.5,61.8z"/>
		<path class="st6" d="M7.5,58.6C7.5,58.6,7.5,58.6,7.5,58.6c0.1,0.7,0.1,1.5,0.1,2.2c0,0.1,0,0.2,0,0.4c0-0.3,0-0.6,0-0.8
			C7.5,59.8,7.5,59.2,7.5,58.6z"/>
		<path class="st7" d="M82.5,60.3c0-0.1-0.1-0.2-0.1-0.3c0-0.6,0-1.3,0-1.9c0,0,0,0,0.1,0C82.5,58.9,82.5,59.6,82.5,60.3z"/>
		<path class="st8" d="M82.4,64.5c0-0.6,0-1.2,0-1.9c0,0,0,0,0.1,0C82.5,63.2,82.5,63.9,82.4,64.5C82.5,64.5,82.5,64.5,82.4,64.5z"
			/>
		<path class="st9" d="M44.6,34.4c-0.6,0-1.4-0.2-2.1-0.7c-1.3-1-1.3-2.6,0-3.6c1.3-1,3.4-1,4.7,0c1.3,1,1.3,2.6,0,3.6
			C46.5,34.2,45.6,34.5,44.6,34.4z"/>
	</g>
</g>
<g>
	<g>
		<path class="st10" d="M75.9,77H14.1C10.2,77,7,73.9,7,70V9.4c0-3.8,3.2-7,7.1-7h61.8c3.9,0,7.1,3.1,7.1,7V70
			C83,73.9,79.8,77,75.9,77z"/>
	</g>
	<text transform="matrix(1 0 0 1 25.6628 87.4604)" class="st11 st12">Statewide</text>
</g>
</svg>
