<?xml version="1.0" encoding="utf-8"?>
<!-- Generator: Adobe Illustrator 19.2.0, SVG Export Plug-In . SVG Version: 6.00 Build 0)  -->
<svg version="1.1" id="Layer_1" xmlns="http://www.w3.org/2000/svg" xmlns:xlink="http://www.w3.org/1999/xlink" x="0px" y="0px"
	 viewBox="0 0 90 90" style="enable-background:new 0 0 90 90;" xml:space="preserve">
<style type="text/css">
	.st0{fill:#010101;}
	.st1{fill:#FEFEFE;}
	.st2{fill:#EB1D25;}
	.st3{fill:#020202;}
	.st4{fill:#FEFDFD;}
	.st5{fill:#FDFDFD;}
	.st6{fill:#FDFCFC;}
	.st7{fill:none;stroke:#000000;stroke-miterlimit:10;}
	.st8{font-family:'MyriadPro-Regular';}
	.st9{font-size:9.5px;}
</style>
<g>
	<g>
		<path class="st0" d="M32.2,76.6c0.1,0,0.1,0,0.2,0c15.1,0,30.2,0,45.3,0c1.6,0,2.8-0.7,3.8-1.9c1-1.3,1.5-2.7,1.5-4.3
			c0-4.2,0-8.4,0-12.6c0-16.3,0-32.6,0-48.9c0-1.1-0.2-2.2-0.7-3.3c-1-2.1-2.6-3.3-5-3.3c-21.4,0-42.8,0-64.3,0
			c-1.5,0-2.8,0.6-3.8,1.8C8.1,5.5,7.7,7.1,7.7,8.8c0,20.4,0,40.9,0,61.3c0,1,0.1,1.9,0.5,2.8c0.9,2.4,2.7,3.7,5.3,3.7
			c6.1,0,12.2,0,18.3,0C31.9,76.6,32,76.6,32.2,76.6L32.2,76.6z"/>
		<path class="st1" d="M32.2,76.6c-0.2,0-0.3,0-0.5,0c-6.1,0-12.2,0-18.3,0c-2.6,0-4.4-1.2-5.3-3.7c-0.3-0.9-0.5-1.8-0.5-2.8
			c0-20.4,0-40.9,0-61.3c0-1.7,0.5-3.3,1.6-4.7c1-1.2,2.2-1.8,3.8-1.8c21.4,0,42.8,0,64.3,0c2.4,0,4,1.2,5,3.3
			c0.5,1,0.7,2.1,0.7,3.3c0,16.3,0,32.6,0,48.9c0,4.2,0,8.4,0,12.6c0,1.6-0.5,3.1-1.5,4.3c-1,1.2-2.2,1.9-3.8,1.9
			c-15.1,0-30.2,0-45.3,0C32.3,76.6,32.2,76.6,32.2,76.6c0.9-0.8,1.8-1.6,2.8-2.4c0.7-0.6,1.3-1.1,2-1.7c7.3,0.1,14.6,0.1,21.9,0.2
			c4.8,0,9.7,0.1,14.5,0.1c1,0,2,0,3,0c-3.4-6.1-6.9-12.2-10.3-18.3c1.2-0.3,2.3-0.5,3.5-0.8C68.8,53,68.7,52,68.8,51
			c0.1-1,0.3-2,0.6-3c0.4-1.4,0.9-2.8,1.3-4.2c0.1-0.2,0.1-0.5,0.2-0.8c-0.1,0-0.1,0-0.2,0c-2,0.5-3.9,1.2-5.7,2.1
			c-3.8,1.8-7.4,4-10.9,6.3c-1.1,0.7-2.2,1.5-3.3,2.2c-0.1,0-0.3,0-0.4,0c0.1-0.1,0.1-0.2,0.2-0.3c3.8-5.6,7.7-11.2,11.5-16.9
			c0.7-1,1.4-2,2-3c1.8-3.3,2.4-6.8,1.6-10.6c-0.8-4.1-3-7.3-6.2-9.8C55,9.6,50,8.3,44.4,9c-4,0.5-7.5,2-10.5,4.7
			c-3.2,2.8-5.1,6.3-5.6,10.6c-0.4,3.4,0.3,6.6,2.1,9.5c0.5,0.8,1.1,1.6,1.6,2.4c3.5,5.7,6.9,11.5,10.3,17.3c0,0.1,0.1,0.1,0.1,0.2
			c-1,0-2,0-3,0c0-0.7,0.1-1.5,0.1-2.2c-1.5,0.4-3,0.8-4.5,1.2c-1.3,0.3-2.5,0.7-3.8,1c-1.3,0-2.6,0-3.9,0c-0.3,0-0.5,0.1-0.7,0.3
			c-5,5.8-10.1,11.5-15.1,17.3c-0.3,0.3-0.6,0.7-0.9,1.1c7.3,0.1,14.6,0.1,21.9,0.2c-0.1,0.8-0.1,1.6-0.2,2.4
			C32.3,75.5,32.2,76,32.2,76.6z"/>
		<path class="st2" d="M50.8,53.7c1.1-0.7,2.2-1.5,3.3-2.2c3.5-2.3,7.1-4.5,10.9-6.3c1.8-0.9,3.7-1.7,5.7-2.1c0,0,0.1,0,0.2,0
			c-0.1,0.3-0.1,0.5-0.2,0.8c-0.4,1.4-0.9,2.8-1.3,4.2c-0.3,1-0.4,2-0.6,3c-0.1,1,0,2,0.8,2.7c-1.2,0.3-2.3,0.5-3.5,0.8
			c-1,0.3-2,0.7-3,1c-0.2,0.1-0.3,0.1-0.5,0.2c-2.6,1-5.1,2.3-7.5,3.7c-4.6,2.7-8.9,5.8-13.1,9c-0.9,0.7-1.8,1.4-2.7,2.2
			c-0.8,0.6-1.5,1.3-2.3,1.9c-0.7,0.6-1.3,1.1-2,1.7c-0.9,0.8-1.8,1.6-2.8,2.4c0,0,0,0,0,0c0.1-0.6,0.1-1.1,0.2-1.7
			c0.1-0.8,0.1-1.6,0.2-2.4c0-0.6,0.1-1.3,0.1-1.9c0.2-2.8,0.2-5.6-0.1-8.3c-0.2-1.5-0.5-2.9-1.1-4.3c-0.4-0.9-0.9-1.8-1.7-2.4
			c-0.5-0.4-1-0.7-1.4-1.1c1-0.3,1.9-0.5,2.9-0.8c1.3-0.3,2.6-0.7,3.8-1c1.5-0.4,2.9-0.8,4.5-1.2c0,0.8-0.1,1.5-0.1,2.2
			c0,0.6-0.1,1.3-0.1,1.9c-0.2,2.3-0.3,4.6-0.5,7c2.1-1.6,4.1-3.1,6.1-4.6c0.4,0.6,0.8,1.3,1.2,2c0.1-0.1,0.1-0.2,0.2-0.2
			c0.9-1.3,1.8-2.6,2.7-4C49.5,54.9,50,54.1,50.8,53.7z"/>
		<path d="M50.8,53.7c-0.8,0.4-1.3,1.2-1.8,2c-0.9,1.3-1.8,2.6-2.7,4c-0.1,0.1-0.1,0.2-0.2,0.2c-0.4-0.7-0.8-1.3-1.2-2
			c-0.4-0.7-0.8-1.4-1.2-2.1c-0.1-0.2-0.2-0.3-0.5-0.3c-1.3,0-2.6,0-4,0c0-0.6,0.1-1.3,0.1-1.9c1,0,1.9,0,3,0c0-0.1-0.1-0.2-0.1-0.2
			c-3.4-5.8-6.9-11.5-10.3-17.3c-0.5-0.8-1.1-1.6-1.6-2.4c-1.7-3-2.4-6.1-2.1-9.5c0.5-4.3,2.4-7.8,5.6-10.6c3-2.6,6.5-4.2,10.5-4.7
			C50,8.3,55,9.6,59.5,13c3.3,2.5,5.4,5.8,6.2,9.8c0.7,3.7,0.2,7.2-1.6,10.6c-0.6,1.1-1.3,2-2,3c-3.8,5.6-7.6,11.3-11.5,16.9
			c-0.1,0.1-0.1,0.2-0.2,0.3C50.6,53.7,50.7,53.7,50.8,53.7z M47.2,20.2c-1.5,0-2.7,0.3-3.8,1.1c-3,2-3.2,5.9-0.5,8.2
			c2.4,2,6.2,1.9,8.4-0.2c2-1.9,2.2-4.8,0.4-6.9C50.5,20.9,48.9,20.2,47.2,20.2z"/>
		<path class="st3" d="M36.9,72.6c0.8-0.6,1.5-1.3,2.3-1.9c2,0,4,0,6,0.1c8.3,0.1,16.5,0.1,24.8,0.2c1,0,2,0,3.1,0
			c-0.1-0.1-0.1-0.2-0.2-0.3c-1.4-2.4-2.7-4.8-4.1-7.2c-1.4-2.5-2.8-5-4.3-7.6c-0.1-0.2-0.2-0.3-0.4-0.3c-0.4,0-0.7,0-1.1,0
			c1-0.3,2-0.7,3-1c3.4,6.1,6.9,12.2,10.3,18.3c-1,0-2,0-3,0c-4.8,0-9.7-0.1-14.5-0.1C51.5,72.7,44.2,72.6,36.9,72.6z"/>
		<path class="st3" d="M31.3,53.7c-1,0.3-2,0.6-2.9,0.8c0.5,0.3,1,0.7,1.4,1.1c-0.6,0-1.1,0-1.7,0c-0.1,0-0.3,0.1-0.4,0.2
			c-4.2,4.8-8.5,9.7-12.7,14.5c0,0.1-0.1,0.1-0.1,0.2c6,0.1,11.9,0.1,17.8,0.2c0,0.6-0.1,1.3-0.1,1.9c-7.3-0.1-14.6-0.1-21.9-0.2
			c0.3-0.4,0.6-0.7,0.9-1.1c5-5.7,10.1-11.5,15.1-17.3c0.2-0.2,0.4-0.3,0.7-0.3C28.7,53.7,30,53.7,31.3,53.7z"/>
		<path class="st4" d="M63.1,55.6c0.4,0,0.7,0,1.1,0c0.2,0,0.3,0.1,0.4,0.3c1.4,2.5,2.8,5,4.3,7.6c1.4,2.4,2.7,4.8,4.1,7.2
			c0.1,0.1,0.1,0.2,0.2,0.3c-1.1,0-2.1,0-3.1,0c-8.3-0.1-16.5-0.1-24.8-0.2c-2,0-4,0-6-0.1c0.9-0.7,1.8-1.4,2.7-2.2
			c4.2-3.3,8.5-6.4,13.1-9c2.4-1.4,4.9-2.7,7.5-3.7C62.7,55.7,62.9,55.6,63.1,55.6z"/>
		<path class="st5" d="M32.7,70.6c-5.9-0.1-11.8-0.1-17.8-0.2c0.1-0.1,0.1-0.2,0.1-0.2c4.2-4.8,8.5-9.7,12.7-14.5
			c0.1-0.1,0.2-0.2,0.4-0.2c0.6,0,1.1,0,1.7,0c0.8,0.7,1.3,1.5,1.7,2.4c0.6,1.4,0.9,2.8,1.1,4.3C32.9,65.1,32.9,67.8,32.7,70.6z"/>
		<path class="st6" d="M39.3,55.6c1.3,0,2.6,0,4,0c0.2,0,0.3,0.1,0.5,0.3c0.4,0.7,0.8,1.4,1.2,2.1c-2,1.5-4,3-6.1,4.6
			C39,60.2,39.2,57.9,39.3,55.6z"/>
		<path class="st5" d="M47.2,20.2c1.6,0,3.2,0.7,4.5,2.1c1.8,2.1,1.6,5-0.4,6.9c-2.2,2.2-6,2.3-8.4,0.2c-2.7-2.3-2.4-6.2,0.5-8.2
			C44.5,20.5,45.7,20.2,47.2,20.2z"/>
	</g>
	<g>
		<g>
			<path class="st7" d="M75.9,77H14.1C10.2,77,7,73.9,7,70V9.4c0-3.8,3.2-7,7.1-7h61.8c3.9,0,7.1,3.1,7.1,7V70
				C83,73.9,79.8,77,75.9,77z"/>
		</g>
		<text transform="matrix(1 0 0 1 18.6628 87.4604)" class="st8 st9">Where to Vote</text>
	</g>
</g>
</svg>
